<?xml version="1.0" encoding="UTF-8"?><svg id="b" xmlns="http://www.w3.org/2000/svg" viewBox="0 0 338.35 438.77"><g id="c"><g id="d"><g id="e"><g><path d="M313.89,148.15c-.18,.82-.06,1.97-.57,2.43-17.95,16.15-15.48,37.5-15.4,58.5,.28,70.56,.2,141.12,.29,211.68,0,7.84-2.17,17.22,10.74,18.01h-22.49c0-44.92-.01-88.78,0-132.63,.01-38.45,.22-76.9,.03-115.34-.1-20.6,4.52-42.41-12.45-60.08,2.73,2.38,5.46,4.76,8.24,7.18,5.66-17.79,1.34-29.15-13.3-33.74,.33,3.42,.63,6.59,.93,9.77l-2.55,.78c-.96-2.21-1.51-4.75-2.97-6.55-2.42-3-5.03-6.4-8.34-7.93-1.96-.91-6.46,3.04-8.02,2.02-3.83-2.49-6.62-6.59-8.53-8.65,2.54-7.94,4.91-15.34,7.83-24.44l9.56,7.21c8.43,.68,17.41,1.41,26.39,2.12,.52-.63,1.26-1.17,1.51-1.88,1.57-4.45,3.04-8.94,4.53-13.42,2.16,4.62,4.07,9.38,6.57,13.8,1.81,3.2,3.85,6.95,6.82,8.67,6.32,3.66,13.31,6.15,20.33,9.25,.42-2.51,.96-5.78,1.03-6.23,3.91,3.06,8.82,6.89,14.28,11.16-2.54,1.84-5.33,3.87-8.94,6.49,6.37,7.07,5.54,13.08-3.69,16.93-6.22-9.1-10.77-6.37-13.41-.11-3.95-3.17-8.3-6.65-13.57-10.87v49.23c12.77-5.03,9.41-16,10.28-24.35,1.64,3.71,3.25,7.35,4.87,11h0Z" fill="#41463d"/><path d="M64.98,65.61c-11.02,17.04-7.67,36.18-7.67,54.71,0,67.17,.24,134.35,.59,201.52,.09,17.64,.45,17.62,17.94,17.89,3.19,.05,6.38,.33,9.54,1.68-12.03,1.06-24.06,2.12-38.51,3.4v-25.23c0-14.36-.29-28.74,.06-43.09,.31-12.93-4.35-22.1-17.26-26.02,4.49-11.3-2.21-16.28-24.42-19.13,3.85-.38,7.7-.77,12.67-1.26l-6.37-8.61,2.36-2.4c10.45,10.41,20.89,20.83,31.34,31.24l3.24-.84c-2.94-8.84-5.87-17.68-8.81-26.53,.56-.27,1.1-.58,1.62-.92,1.18-.42,3.38-.84,3.38-1.25-.02-11.79,3.56-24.28-5.07-33.38,1.52-1.13,4.59-2.31,4.64-3.62,.45-11.2,2.11-22.64-8.92-30.96-5.94-4.48-10.8-10.5-15.72-16.19-1.37-1.58-1.19-4.5-1.72-6.81,2.12,.67,4.96,.7,6.24,2.13,5.93,6.59,11.42,13.58,17.07,20.42l5.11-1.64c0-26.37,.23-52.74-.23-79.1-.07-4.23-3.19-8.4-4.9-12.6l1.23-19.14h-8.77c-.65-2.08-1.63-5.23-2.6-8.34-9.61,3.36-7,9.77-4.41,16.17-3.08-2.14-6.16-4.28-9.2-6.39,4.08-6.45,8.32-11.98-3.76-14.34-5.21-1.02-9.69-5.7-13.67-8.2C4.03,11.33,6.87,6.08,10.16,0c7.06,1.49,15.06,11.31,19.73,2.9,8.01,1.07,13.56,1.84,19.12,2.54,5.8,.73,14.07-1.78,11.12,13.64,5.07-4.33,7.67-6.67,10.42-8.83,1.18-.93,2.72-2.15,4.02-2.06,23,1.45,46,3.02,68.99,4.77,1.87,.14,3.63,1.79,6.41,3.24-19.6-1.11-38.04-2.15-56.49-3.19l-.67,2.39c2.91,2.28,5.83,4.55,11.1,8.68-6.78-1.72-10.78-3.54-14.76-3.49-3.02,.04-6.02,2.45-9.03,3.81,1.36,3.03,2.06,6.72,4.25,8.94,3.37,3.42,7.76,5.84,14.93,10.99-11.95,2.77-19.65,4.56-27.35,6.34,1.71-7.61-1.73-10.83-8.63-8.12-6.54,2.57-5.07,19.11,1.65,23.06h.01Zm-10.25-46.22l-.05,5.76c6.4,1.14,12.78,2.72,19.22,3,1.1,.05,2.44-5.47,4.79-11.1-10.01,.97-16.98,1.65-23.96,2.33h0Z" fill="#41463d"/><path d="M207.12,420.18c-10.76,.94-21.52,1.87-33.94,2.95v-14.35c-.07-84.97-.06-169.94-.38-254.9-.03-7.29-2.24-14.57-3.34-21.24,.94-1.73,3.08-3.84,3.08-5.95,.05-15.64,.02-31.29-.73-46.91-.3-6.31-2.59-12.2-11.13-7.09-1.22,.73-3.34,1.28-4.41,.71-10.44-5.49-20.75-11.23-29.7-16.13,4.16-8.53,7.67-15.73,11.69-23.99,8.41,2.63,19.57,6.12,30.73,9.62,2.91-3.23,5.6-6.23,8.42-9.36,4.91,6.83,9.46,13.15,13.22,18.38-1.18,1.15-5.85,3.97-5.47,5.67,.84,3.8,3.45,8.44,6.7,10.18,4.65,2.49,10.91,1.86,15.72,4.17,2.95,1.42,4.48,5.82,6.64,8.89-3.61,.05-7.26,.42-10.82,.03-1.9-.2-3.66-1.7-6.42-3.08-1.6,3.83-2.95,7.08-4.55,10.89-2.15-1.18-4.48-2.47-7.86-4.33-.19,2.4-.42,3.95-.42,5.5,.23,105.27,.59,210.55,.54,315.82,0,9.81,2.67,14.28,12.83,12.91,3.24-.44,6.58-.07,9.88-.07l-.29,1.68h0ZM158.95,50.16c-2.29,9.82,3.41,11.07,12.25,11.15-.8-6-1.46-10.97-2.22-16.7-4.61,2.62-7.5,4.27-10.39,5.91-1.99-11.83-14.58-5.04-19.54-13.41-2,13.08,6,15.19,13.71,16.84,1.72,.37,4.12-2.45,6.2-3.79h0Z" fill="#41463d"/><path d="M41.29,222.02c-.52,.34-1.06,.65-1.62,.92-11.31-9.2-22.61-18.41-33.92-27.61,.87-.99,1.74-1.97,2.62-2.96,9.84,11.24,30.06,10.11,32.92,29.66h0Z" fill="#41463d"/></g></g></g></g></svg>