<?xml version="1.0" encoding="UTF-8"?><svg id="b" xmlns="http://www.w3.org/2000/svg" viewBox="0 0 457.37 382.48"><g id="c"><g id="d"><g id="e"><g><path d="M129.21,146.66c27.8-7.38,33.66-26.97,30.26-52.57-1.27-9.56-.17-19.44-.11-29.18,.13-20.9,7.38-27.14,24.79-23.88,4.9-9.22,9.26-17.41,13.62-25.6l-1.82-.88c-1.83,1.44-3.65,2.88-6.11,4.82-1.12-4.55-2.1-8.52-3.16-12.79C198.69,4.18,210.48,.59,222.42,0c5.18-.25,10.65,5.73,15.99,8.88-3.72,4.82-7.39,9.69-11.2,14.44-.88,1.1-2.25,1.81-4.44,3.52,9.5,6.32,18.53,12.33,29.99,19.96-12.88,4.41-21.47,7.35-30.07,10.3l1.14,3.62c13.38-3.93,26.77-7.85,37.97-11.14-2.76,9.01-4.56,15.43-6.7,21.73-2.89,8.55,6.25,20.01-7.63,28.11v-34.99c-6.02,1.92-10.44,3.33-12.05,3.84v78.39c15.04-8.62,9.7-19.94,11.26-29.1,.96-5.64-2.51-13.75,8.13-13.53-.61,10.91-1.22,21.81-1.9,34.11,6.63-1.83,11.45-2.62,15.78-4.53,3.88-1.71,7.21-4.65,10.78-7.05-3.03-3.22-5.83-6.69-9.13-9.59-5.13-4.51-10.6-8.64-15.93-12.92,9.02,3.65,18.61,6.32,26.93,11.17,12.86,7.48,24.74,11.07,38.75,2.39,10.78-6.68,19.86-1.41,27.07,7.6-11.66-.59-24.89-3.98-26.61,15.52,8.72-.84,16.61-1.6,24.43-2.35,.66-5.03,1.22-9.3,1.79-13.56,1.98,6.69,3.95,13.38,6.2,20.99,5.09,.3,12.28,.69,19.46,1.2,.9,.06,2.48,.71,2.54,1.23,2.76,22.77,24.39,28.85,38.57,40.7,0-23.94,3.05-50.1-.98-75.12-3.14-19.51-.48-37.89,.61-58.1-10.75-1.83-21.04-3.59-31.33-5.34,.03-.95,.07-1.89,.1-2.84h31.76c-5.55-3.3-7.39-4.4-7.08-4.21,2.39-8.29,4.56-15.8,7.73-26.78,1.38,10.47,2.29,17.34,3.2,24.2l1.61,.02c.36-6.84,.71-13.68,1.07-20.52,9.06,9.86-3.21,28.31,19.17,32.19-11.27-2.09-16.28-.56-16.1,10.42,.6,36.87,.25,73.76,.57,110.64,.08,9.55,1.26,19.08,1.95,28.83,4.59,5.56,25.16-6.31,16.51,15.01-5.41-1.24-10.45-2.4-16.22-3.73v14.32c10.48,.73,20.78,1.45,31.07,2.17,.06,1.44,.13,2.88,.19,4.33-15.72,1.48-31.44,2.96-49.25,4.63,1.59-17.23,1.67-34.03-18.34-45.98-8.24,2.17-21.53,7.83-35.09,8.57-12.17,.67-24.63-4.08-32.55-5.59-2.68-9.04-3.09-16.29-6.81-20.85-2.4-2.95-10.02-3.57-14.63-2.46-12.41,3.01-24.56,7.23-36.6,11.57-4.03,1.45-7.4,4.71-11.07,7.14,3.48,3.27,6.49,7.34,10.52,9.66,11.65,6.7,23.7,12.69,38.94,20.72-24.16,9.46-45.77,17.54-67,26.52-4.99,2.11-8.39,7.7-13.06,10.91-7.97,5.47-15.78,12.81-24.7,14.89-17.07,3.98-34.85,6.22-52.39,6.58-18.06,.37-21.98-15.49-26.48-29.82-3.25,1.7-5.62,2.93-9.35,4.88v-26.65c-10.76,3.7-21.5,6.55-31.52,11-19.85,8.8-31.14,4.62-38.88-14.69-1.71-4.28-5.9-10.54-9.19-10.7-14.96-.72-16.41-9.6-21.84-21.72-12.22-27.28-3.12-54.44-8.08-82.59,8.92,3.95,16.78,6.34,23.28,10.72,3.98,2.68,5.89,8.42,8.72,12.79l-.05-.09c-8.18-5.03-16.36-10.07-26.34-16.21v46.24c4.11,.22,8.74,.47,11.25,.6,7.03,7.04,14.41,14.44,21.79,21.84-.36,.31-.86,.56-1.04,.96-.11,.24,.18,.92,.45,1.04,8.35,3.73,16.73,7.41,25.1,11.1l1.65-2.71c-1.84-2.5-3.68-4.99-5.53-7.49,2.81,.29,5.62,.57,9.31,.95v-31.38c1.26,0,2.51,.02,3.77,.02v34.17c1.61-.13,3.22-.26,4.83-.38-1.97-14.8,8.5-31.28-8.02-43.99,17.36-2.89,34.83-5.79,52.29-8.7l.5,1.4c-5.49,2.25-10.97,4.49-16.46,6.74l.29,2.42c5.59-.54,11.17-1.08,16.76-1.63-3.83,5.43-7.66,10.87-11.46,16.33-4.95-.92-9.93-1.86-16.57-3.12,0,14.22-.31,26.7,.25,39.13,.12,2.61,3.11,5.45,5.38,7.54,4.85,4.46,10.09,8.51,17.25,14.44,.14-19.76,6.67-39.68-6.76-58.38,9.41,4.22,12.95,10.91,11.24,21.5-1.3,8.07-1.05,16.6,0,24.73,.52,4.03,5.48,11.2,6.55,10.87,8.82-2.72,11.99,4.75,16.32,8.65,8.91,8.03,16.78,6.7,22.94,2.13-1.9-12.57-3.49-23.13-4.76-31.59-.94,4.3-2.36,10.8-3.79,17.31-28.01-7.01-31.67-15.72-18.71-42.69,19.12,7.1,49.06,1.5,73.95-15.3-16.28-5.66-31.24-9.33-44.72-15.98-14.65-7.22-26.82,6.36-40.48,2.23l.03-.02h0ZM56.86,215.72l.28,.34-5.44-.13,8.11,6.03,1.46-2.73c-1.47-1.17-2.94-2.33-4.41-3.5h0Zm266.89-43.69c3.12,2.21,6.25,4.42,9.37,6.64,.88-.85,1.77-1.7,2.65-2.54v16.11c1.99-3.93,2.78-5.47,3.47-6.83,2.28,3.94,4.68,8.07,6.06,10.45,11.24-8.81,20.85-16.34,31.54-24.72-18.26-20.39-35.12-1.88-53.09,.9h0Zm-117.27-20.6c4.7-1.23,9.68-1.89,9.7-2.62,.4-24.98,.34-49.97,.34-74.96-1.16-.68-2.32-1.36-3.48-2.05-2.18,3.47-6.17,6.9-6.26,10.42-.58,22.29-.29,44.61-.29,69.2h-.01Zm55.31-1.33c-33.65,9.91-34.21,10.59-30.59,37.19,1.8-23.58,22.63-3.77,30.59-16.59v-20.6Zm-72.01-5.5l2.89,.07V69.37l-2.89,.06v75.2h0v-.02Zm-14.2-68.3l-3.47,.03v61.34l3.47-.02v-61.34h0Zm45.41-18.38c-14.59-2.29-25.86-4.06-38.77-6.08,11.96,12.89,24.98,15.57,38.77,6.08ZM87.54,160.06v48.62c1.55-.09,3.09-.18,4.64-.27-.79-16.29,4.36-32.81-4.64-48.35h0ZM167.52,59.09l-2.25,.22v75.03l2.25-.11V59.09Zm55.35,20.53l-1.21,.41v76.44h1.21V79.62Zm80.61,72.79c-14.42-18.92-19.83-.85-27.69,2.99,8.05-.87,16.1-1.74,27.69-2.99Z" fill="#41463d"/><path d="M124.05,346.96c9.08,6.13,17.39,11.74,25.7,17.36l-2.49,4.5c-7.15-3-14.3-6-21.45-8.99-.67,.7-1.34,1.41-2.01,2.11,3.96,3.61,7.91,7.23,12.28,11.21-15.58,10.91-33.72,9.58-50.39,8.87-3.78-5.94-7.82-12.28-12.23-19.22-2.96,3.31-5.01,5.59-6.99,7.81-10.68-5.5,20.77-20.57-5.15-21.71,3.23-7.12,6.62-14.59,10.63-23.44,2.22,8.51,4.04,15.49,5.86,22.46,1.2-.19,2.41-.38,3.61-.57v-21.96c13.31,21.19,21.19,7,32.86-2.98,1.27,10.5,2.22,18.33,3.3,27.28l6.73-13.87,2.25,.55c-.94,3.92-1.87,7.85-2.53,10.6h.02Z" fill="#41463d"/><path d="M32.01,133.97c9.39-17.25,21.12-31.86,38.55-40.07,1.26,1.45,2.51,2.89,3.77,4.34-5.24,3.78-11.02,7.02-15.59,11.49-5.47,5.34-9.48,12.16-14.94,17.52-3.11,3.05-7.85,4.46-11.84,6.62l.06,.11h0Z" fill="#41463d"/><polygon points="47.32 186.72 46.89 187.4 47.61 187.02 47.32 186.72" fill="#41463d"/><path d="M56.86,215.72c-.19,.36-.32,.78-.6,1.05-.12,.11-.55-.09-.83-.15,.57-.19,1.13-.39,1.71-.57l-.27-.33h0Z" fill="#41463d"/></g></g></g></g></svg>