<?xml version="1.0" encoding="utf-8"?>
<!-- Generator: Adobe Illustrator 26.3.1, SVG Export Plug-In . SVG Version: 6.00 Build 0)  -->
<svg version="1.1" id="b" xmlns="http://www.w3.org/2000/svg" xmlns:xlink="http://www.w3.org/1999/xlink" x="0px" y="0px"
	 viewBox="0 0 457.4 382.5" style="enable-background:new 0 0 457.4 382.5;" xml:space="preserve">
<style type="text/css">
	.st0{fill:#E4D6A7;}
	.st1{fill:#41463D;}
</style>
<polygon class="st0" points="2.4,173.1 0,110.4 70.6,93.9 149.8,137.7 165.3,43.9 261.8,49.6 254,222 144,272 101,222 66,235 "/>
<g id="c">
	<g id="d">
		<g id="e">
			<g>
				<path class="st1" d="M129.2,146.7c27.8-7.4,33.7-27,30.3-52.6c-1.3-9.6-0.2-19.4-0.1-29.2c0.1-20.9,7.4-27.1,24.8-23.9
					c4.9-9.2,9.3-17.4,13.6-25.6l-1.8-0.9c-1.8,1.4-3.6,2.9-6.1,4.8c-1.1-4.6-2.1-8.5-3.2-12.8c12-2.4,23.8-6,35.7-6.6
					c5.2-0.2,10.6,5.7,16,8.9c-3.7,4.8-7.4,9.7-11.2,14.4c-0.9,1.1-2.2,1.8-4.4,3.5c9.5,6.3,18.5,12.3,30,20
					c-12.9,4.4-21.5,7.3-30.1,10.3l1.1,3.6c13.4-3.9,26.8-7.8,38-11.1c-2.8,9-4.6,15.4-6.7,21.7c-2.9,8.6,6.2,20-7.6,28.1v-35
					c-6,1.9-10.4,3.3-12.1,3.8v78.4c15-8.6,9.7-19.9,11.3-29.1c1-5.6-2.5-13.8,8.1-13.5c-0.6,10.9-1.2,21.8-1.9,34.1
					c6.6-1.8,11.4-2.6,15.8-4.5c3.9-1.7,7.2-4.6,10.8-7.1c-3-3.2-5.8-6.7-9.1-9.6c-5.1-4.5-10.6-8.6-15.9-12.9
					c9,3.7,18.6,6.3,26.9,11.2c12.9,7.5,24.7,11.1,38.8,2.4c10.8-6.7,19.9-1.4,27.1,7.6c-11.7-0.6-24.9-4-26.6,15.5
					c8.7-0.8,16.6-1.6,24.4-2.4c0.7-5,1.2-9.3,1.8-13.6c2,6.7,4,13.4,6.2,21c5.1,0.3,12.3,0.7,19.5,1.2c0.9,0.1,2.5,0.7,2.5,1.2
					c2.8,22.8,24.4,28.9,38.6,40.7c0-23.9,3-50.1-1-75.1c-3.1-19.5-0.5-37.9,0.6-58.1c-10.8-1.8-21-3.6-31.3-5.3
					c0-1,0.1-1.9,0.1-2.8h31.8c-5.5-3.3-7.4-4.4-7.1-4.2c2.4-8.3,4.6-15.8,7.7-26.8c1.4,10.5,2.3,17.3,3.2,24.2l1.6,0
					c0.4-6.8,0.7-13.7,1.1-20.5c9.1,9.9-3.2,28.3,19.2,32.2c-11.3-2.1-16.3-0.6-16.1,10.4c0.6,36.9,0.2,73.8,0.6,110.6
					c0.1,9.6,1.3,19.1,2,28.8c4.6,5.6,25.2-6.3,16.5,15c-5.4-1.2-10.5-2.4-16.2-3.7v14.3c10.5,0.7,20.8,1.4,31.1,2.2
					c0.1,1.4,0.1,2.9,0.2,4.3c-15.7,1.5-31.4,3-49.2,4.6c1.6-17.2,1.7-34-18.3-46c-8.2,2.2-21.5,7.8-35.1,8.6
					c-12.2,0.7-24.6-4.1-32.5-5.6c-2.7-9-3.1-16.3-6.8-20.9c-2.4-2.9-10-3.6-14.6-2.5c-12.4,3-24.6,7.2-36.6,11.6
					c-4,1.4-7.4,4.7-11.1,7.1c3.5,3.3,6.5,7.3,10.5,9.7c11.6,6.7,23.7,12.7,38.9,20.7c-24.2,9.5-45.8,17.5-67,26.5
					c-5,2.1-8.4,7.7-13.1,10.9c-8,5.5-15.8,12.8-24.7,14.9c-17.1,4-34.8,6.2-52.4,6.6c-18.1,0.4-22-15.5-26.5-29.8
					c-3.2,1.7-5.6,2.9-9.3,4.9v-26.6c-10.8,3.7-21.5,6.6-31.5,11c-19.8,8.8-31.1,4.6-38.9-14.7c-1.7-4.3-5.9-10.5-9.2-10.7
					C15,214,13.5,205.2,8.1,193C-4.1,165.8,5,138.6,0,110.4c8.9,3.9,16.8,6.3,23.3,10.7c4,2.7,5.9,8.4,8.7,12.8l0-0.1
					c-8.2-5-16.4-10.1-26.3-16.2v46.2c4.1,0.2,8.7,0.5,11.2,0.6c7,7,14.4,14.4,21.8,21.8c-0.4,0.3-0.9,0.6-1,1
					c-0.1,0.2,0.2,0.9,0.5,1c8.4,3.7,16.7,7.4,25.1,11.1l1.7-2.7c-1.8-2.5-3.7-5-5.5-7.5c2.8,0.3,5.6,0.6,9.3,0.9v-31.4
					c1.3,0,2.5,0,3.8,0V193c1.6-0.1,3.2-0.3,4.8-0.4c-2-14.8,8.5-31.3-8-44c17.4-2.9,34.8-5.8,52.3-8.7l0.5,1.4
					c-5.5,2.2-11,4.5-16.5,6.7l0.3,2.4c5.6-0.5,11.2-1.1,16.8-1.6c-3.8,5.4-7.7,10.9-11.5,16.3c-4.9-0.9-9.9-1.9-16.6-3.1
					c0,14.2-0.3,26.7,0.2,39.1c0.1,2.6,3.1,5.4,5.4,7.5c4.8,4.5,10.1,8.5,17.2,14.4c0.1-19.8,6.7-39.7-6.8-58.4
					c9.4,4.2,12.9,10.9,11.2,21.5c-1.3,8.1-1.1,16.6,0,24.7c0.5,4,5.5,11.2,6.5,10.9c8.8-2.7,12,4.8,16.3,8.6
					c8.9,8,16.8,6.7,22.9,2.1c-1.9-12.6-3.5-23.1-4.8-31.6c-0.9,4.3-2.4,10.8-3.8,17.3c-28-7-31.7-15.7-18.7-42.7
					c19.1,7.1,49.1,1.5,73.9-15.3c-16.3-5.7-31.2-9.3-44.7-16C155,137.2,142.8,150.8,129.2,146.7L129.2,146.7L129.2,146.7
					L129.2,146.7z M56.9,215.7l0.3,0.3l-5.4-0.1l8.1,6l1.5-2.7C59.8,218.1,58.3,216.9,56.9,215.7L56.9,215.7L56.9,215.7z M323.8,172
					c3.1,2.2,6.2,4.4,9.4,6.6c0.9-0.9,1.8-1.7,2.6-2.5v16.1c2-3.9,2.8-5.5,3.5-6.8c2.3,3.9,4.7,8.1,6.1,10.4
					c11.2-8.8,20.9-16.3,31.5-24.7C358.6,150.8,341.7,169.3,323.8,172L323.8,172L323.8,172z M206.5,151.4c4.7-1.2,9.7-1.9,9.7-2.6
					c0.4-25,0.3-50,0.3-75c-1.2-0.7-2.3-1.4-3.5-2.1c-2.2,3.5-6.2,6.9-6.3,10.4C206.2,104.5,206.5,126.8,206.5,151.4L206.5,151.4
					L206.5,151.4z M261.8,150.1c-33.6,9.9-34.2,10.6-30.6,37.2c1.8-23.6,22.6-3.8,30.6-16.6V150.1z M189.8,144.6l2.9,0.1V69.4
					l-2.9,0.1V144.6L189.8,144.6L189.8,144.6L189.8,144.6z M175.6,76.3l-3.5,0v61.3l3.5,0V76.3L175.6,76.3L175.6,76.3z M221,57.9
					c-14.6-2.3-25.9-4.1-38.8-6.1C194.2,64.7,207.2,67.4,221,57.9z M87.5,160.1v48.6c1.6-0.1,3.1-0.2,4.6-0.3
					C91.4,192.1,96.5,175.6,87.5,160.1L87.5,160.1z M167.5,59.1l-2.2,0.2v75l2.2-0.1V59.1z M222.9,79.6l-1.2,0.4v76.4h1.2V79.6z
					 M303.5,152.4c-14.4-18.9-19.8-0.9-27.7,3C283.8,154.5,291.9,153.7,303.5,152.4z"/>
				<path class="st1" d="M124.1,347c9.1,6.1,17.4,11.7,25.7,17.4l-2.5,4.5c-7.1-3-14.3-6-21.4-9c-0.7,0.7-1.3,1.4-2,2.1
					c4,3.6,7.9,7.2,12.3,11.2c-15.6,10.9-33.7,9.6-50.4,8.9c-3.8-5.9-7.8-12.3-12.2-19.2c-3,3.3-5,5.6-7,7.8
					c-10.7-5.5,20.8-20.6-5.2-21.7c3.2-7.1,6.6-14.6,10.6-23.4c2.2,8.5,4,15.5,5.9,22.5c1.2-0.2,2.4-0.4,3.6-0.6v-22
					c13.3,21.2,21.2,7,32.9-3c1.3,10.5,2.2,18.3,3.3,27.3l6.7-13.9l2.2,0.5C125.6,340.3,124.7,344.2,124.1,347L124.1,347L124.1,347z
					"/>
				<path class="st1" d="M32,134c9.4-17.2,21.1-31.9,38.5-40.1c1.3,1.4,2.5,2.9,3.8,4.3c-5.2,3.8-11,7-15.6,11.5
					c-5.5,5.3-9.5,12.2-14.9,17.5c-3.1,3.1-7.8,4.5-11.8,6.6L32,134L32,134L32,134z"/>
				<polygon class="st1" points="47.3,186.7 46.9,187.4 47.6,187 				"/>
				<path class="st1" d="M56.9,215.7c-0.2,0.4-0.3,0.8-0.6,1.1c-0.1,0.1-0.5-0.1-0.8-0.1c0.6-0.2,1.1-0.4,1.7-0.6L56.9,215.7
					L56.9,215.7L56.9,215.7z"/>
			</g>
		</g>
	</g>
</g>
</svg>
