<?xml version="1.0" encoding="utf-8"?>
<!-- Generator: Adobe Illustrator 26.3.1, SVG Export Plug-In . SVG Version: 6.00 Build 0)  -->
<svg version="1.1" id="b" xmlns="http://www.w3.org/2000/svg" xmlns:xlink="http://www.w3.org/1999/xlink" x="0px" y="0px"
	 viewBox="0 0 174.5 86.9" style="enable-background:new 0 0 174.5 86.9;" xml:space="preserve">
<style type="text/css">
	.st0{fill:#E4D6A7;}
	.st1{fill:#41463D;}
</style>
<polygon class="st0" points="2.1,65.3 44.3,16.4 79.1,0.4 161.7,12.7 161.7,32.9 54.3,86.9 "/>
<g id="c">
	<g id="d">
		<g>
			<path class="st1" d="M65.9,24.1c7.6-3,15.1-6,22.7-9l0.5,0.7c-5.2,3.4-10.4,6.7-15.6,10.1c0.5,1,0.9,2,1.4,3
				c11.2-3,22.1-7.3,33.5-8.8c11.3-1.5,22.9-0.3,34.4-0.3c-0.5-1.2-1-2.3-1.5-3.5c2.2-1.2,4.4-3.1,6.8-3.4c4.1-0.6,8.3-0.2,13.6-0.2
				v13.4c3.9,1.7,7.6,3.4,12.9,5.7c-5.1,2.7-9,5-13.1,6.9c-29.3,14.2-58.9,27.7-87.7,42.7c-13.6,7.1-25.7,8-38.6-0.5
				c-2.2-1.4-5.4-2.7-7.7-2.1C14.9,81.8,9.7,71.1,2.1,65.3c-4.5-3.4-1.1-13,4.6-17.1c3.3,3.3,5.8,7.2,9.4,9.2
				c7.9,4.4,16.4,7.8,24.6,11.6c0.5,0.2,1.5,0.3,2,0c7.7-6.5,16.3-12.3,22.5-20c3.1-3.9,1.9-11.4,2.2-17.3c0.1-2.6-0.8-5.3-1.3-7.9
				L65.9,24.1L65.9,24.1L65.9,24.1z"/>
			<path class="st1" d="M66.1,23.9c-2,4.1-4,8.1-6.9,13.8c-6.3-2.4-13.8-5.2-22-8.3c0.4-0.5-0.5,0.7-1.4,1.9l-2.5-1.9
				c3.4-4,6.9-8.1,11-12.9c7,2.5,14.3,5.2,21.6,7.8C65.9,24.1,66.1,23.9,66.1,23.9L66.1,23.9L66.1,23.9z"/>
			<path class="st1" d="M113,0c-0.6,1.4-1.1,2.8-1.7,4.2c-7.5-0.5-15-1.5-22.5-1.5c-4.9,0-9.8,1.5-15.8,1.4c2-1.3,4-3.6,6.1-3.7
				C90.4,0,101.7,0.1,113,0z"/>
			<path class="st1" d="M111.1,3.9l24.8,0.2l0,5.4c-4.2-0.4-8.4-1.1-12.7-1.2c-2.8-0.1-5.7,0.4-8.6,0.7c-1.8,0.2-3.6,0.6-5.3,0.9
				L111.1,3.9L111.1,3.9L111.1,3.9z"/>
		</g>
	</g>
</g>
</svg>
