<?xml version="1.0" encoding="UTF-8"?><svg id="b" xmlns="http://www.w3.org/2000/svg" viewBox="0 0 174.51 86.95"><g id="c"><g id="d"><g><path d="M65.94,24.13c7.56-3,15.13-6.02,22.69-9.03l.51,.68c-5.2,3.36-10.41,6.73-15.61,10.1,.46,1.01,.92,2.04,1.38,3.05,11.15-3.05,22.14-7.29,33.5-8.82,11.28-1.52,22.92-.33,34.4-.33-.49-1.17-.99-2.34-1.48-3.51,2.24-1.19,4.39-3.07,6.75-3.4,4.09-.56,8.3-.16,13.61-.16v13.39c3.95,1.74,7.62,3.36,12.85,5.66-5.1,2.72-9.01,4.98-13.07,6.94-29.27,14.17-58.88,27.7-87.74,42.65-13.63,7.07-25.72,8.01-38.56-.47-2.15-1.42-5.4-2.69-7.69-2.14-12.58,3.05-17.77-7.62-25.36-13.4-4.52-3.44-1.13-12.95,4.63-17.08,3.28,3.32,5.81,7.23,9.4,9.22,7.91,4.39,16.36,7.83,24.6,11.59,.55,.25,1.55,.31,1.95,0,7.68-6.5,16.33-12.26,22.49-19.98,3.11-3.89,1.88-11.4,2.18-17.29,.13-2.61-.81-5.28-1.27-7.92l-.16,.26h.02Z" fill="#41463d"/><path d="M66.1,23.85c-2.03,4.06-4.05,8.14-6.86,13.78-6.32-2.39-13.78-5.24-21.96-8.33,.39-.53-.52,.69-1.44,1.92l-2.51-1.92c3.43-4.04,6.86-8.07,10.97-12.9,7.03,2.53,14.33,5.16,21.64,7.76,0-.02,.17-.29,.17-.29h-.01Z" fill="#41463d"/><path d="M112.97,0c-.56,1.39-1.13,2.8-1.68,4.19-7.48-.55-14.98-1.53-22.46-1.5-4.92,.02-9.83,1.54-15.78,1.4,2.03-1.28,4.01-3.57,6.07-3.65C90.39,0,101.68,.09,112.97,0Z" fill="#41463d"/><path d="M111.06,3.9l24.82,.25,.03,5.39c-4.21-.43-8.43-1.05-12.65-1.22-2.85-.12-5.73,.37-8.59,.68-1.8,.2-3.57,.56-5.35,.86l1.74-5.95h0Z" fill="#41463d"/></g></g></g></svg>