<?xml version="1.0" encoding="utf-8"?>
<!-- Generator: Adobe Illustrator 26.3.1, SVG Export Plug-In . SVG Version: 6.00 Build 0)  -->
<svg version="1.1" id="b" xmlns="http://www.w3.org/2000/svg" xmlns:xlink="http://www.w3.org/1999/xlink" x="0px" y="0px"
	 viewBox="0 0 168.3 103.8" style="enable-background:new 0 0 168.3 103.8;" xml:space="preserve">
<style type="text/css">
	.st0{fill:#E4D6A7;}
	.st1{fill:#41463D;}
</style>
<path class="st0" d="M7.2,59.4L0.8,27.7l13-7.3L80.2,0l29,18.6c10.7,19.8,24.4,34.4,45.1,36.9l13.9,24.2l-53.3,24L7.2,59.4z"/>
<g id="c">
	<g id="d">
		<g id="e">
			<g>
				<path class="st1" d="M95.4,74.7c5.6,1.7,11.2,3.4,17.1,5.2c-0.7-9.2-11-6.2-16.9-11.9c4.3,1,7.8,0.8,9.9,2.4
					c13.3,9.8,23-2.2,34-5.6c2.9-0.9,4.4-7,8.7-2.1c1.5-1.8,3.1-3.6,6.1-7.2c-0.4,11.1,1.7,20.3,13.9,24.2
					c-10.2,5-20.4,10-30.6,14.9c-4.8,2.3-9.5,4.7-14.4,6.6c-13.2,5-26,1.5-38.1-3.7C63.4,88.2,42,78,20.4,68.1L23.9,54
					c-4.5,4.9-7.6,8.3-12.4,13.5C8.4,61.7,5.1,55.6,1.4,48.8V35c13.3,5.2,26.9,10.4,40.5,15.7c2.6,0.3,5.3,0.7,7.9,1
					c1,0.5,2,1,3,1.5c1.2,1.8,2.3,3.7,3.5,5.5C68.2,66.8,80.4,74.2,95.4,74.7L95.4,74.7L95.4,74.7z M81,78.9
					c0.3,3.5-0.6,7.6,1.1,9.7c1.9,2.4,6,3.4,9.3,3.9c1.2,0.2,2.8-3.1,4.2-4.8c-2.4-1.8-4.7-3.8-7.2-5.4C86.6,81.2,84.5,80.5,81,78.9
					L81,78.9z"/>
				<path class="st1" d="M95.4,74.7c-15-0.4-27.2-7.9-39.1-15.9c-1.2-1.8-2.4-3.6-3.6-5.4c5.6,1.4,8.4-0.6,8.6-6.5
					c0.3-9.6,1-19.2,1.5-28.9c7.7-3.1,15.2-6.1,23.6-9.4c-2.1-2.8-3.6-4.8-6.3-8.4c9.4,6,17.5,11.2,29,18.6
					c2.2,6.2,0.8,20,12.5,24.5c-14.5,6.3-30.2,13-47.7,20.6C83.1,68.3,89.3,71.5,95.4,74.7L95.4,74.7L95.4,74.7z"/>
				<path class="st1" d="M0.8,27.7C-1.5,20.9,1,17.1,9.4,16.9c4.9-0.1,9.9,0,16.5,0l-4.8,16.8c-6.8-4.3,1.8-13.9-7.2-13.3
					C9.2,20.7,5,25.2,0.8,27.7C0.8,27.7,0.8,27.7,0.8,27.7z"/>
			</g>
		</g>
	</g>
</g>
</svg>
