<?xml version="1.0" encoding="UTF-8"?><svg id="b" xmlns="http://www.w3.org/2000/svg" viewBox="0 0 168.27 103.76"><g id="c"><g id="d"><g id="e"><g><path d="M95.44,74.68c5.62,1.72,11.25,3.42,17.08,5.2-.66-9.22-11.04-6.17-16.94-11.86,4.28,.96,7.76,.79,9.93,2.38,13.33,9.75,22.97-2.22,33.96-5.58,2.91-.89,4.35-7.01,8.74-2.1,1.54-1.81,3.07-3.61,6.12-7.21-.44,11.13,1.7,20.33,13.94,24.25-10.21,4.98-20.4,9.99-30.63,14.93-4.77,2.3-9.51,4.73-14.45,6.61-13.24,5.04-25.98,1.53-38.08-3.71-21.73-9.42-43.13-19.62-64.72-29.5l3.52-14.08c-4.55,4.94-7.64,8.3-12.41,13.47-3.11-5.78-6.38-11.83-10.08-18.72v-13.72c13.26,5.15,26.88,10.43,40.51,15.71,2.64,.32,5.26,.66,7.9,.98,1,.48,2,.98,3,1.46,1.16,1.84,2.34,3.68,3.51,5.53,11.89,8.07,24.06,15.48,39.08,15.93h.01Zm-14.44,4.21c.26,3.51-.61,7.63,1.06,9.73,1.88,2.36,5.97,3.44,9.28,3.93,1.15,.17,2.81-3.1,4.22-4.79-2.41-1.83-4.72-3.8-7.25-5.43-1.75-1.13-3.8-1.81-7.31-3.43Z" fill="#41463d"/><path d="M95.44,74.68c-15.01-.45-27.18-7.86-39.08-15.93-1.2-1.81-2.41-3.61-3.6-5.43,5.59,1.38,8.37-.63,8.58-6.55,.33-9.6,.97-19.19,1.48-28.93,7.67-3.06,15.2-6.08,23.64-9.45-2.11-2.8-3.64-4.83-6.31-8.38,9.44,6.04,17.46,11.18,29.03,18.58,2.24,6.25,.85,20.02,12.49,24.45-14.54,6.27-30.23,13.04-47.66,20.57,9.06,4.67,15.24,7.87,21.43,11.07h-.01Z" fill="#41463d"/><path d="M.82,27.69c-2.31-6.79,.16-10.58,8.55-10.77,4.93-.12,9.85-.02,16.51-.02l-4.83,16.78c-6.77-4.28,1.77-13.92-7.25-13.28-4.56,.32-8.82,4.82-12.99,7.29h.01Z" fill="#41463d"/></g></g></g></g></svg>