<?xml version="1.0" encoding="UTF-8"?><svg id="b" xmlns="http://www.w3.org/2000/svg" viewBox="0 0 186.74 93.24"><g id="c"><g id="d"><g id="e"><g><path d="M76.22,36.17c2.61-3.32,5.23-6.62,9.05-11.45-5.1-.3-7.78-.46-9.59-.56C88.58-.21,111.82,.46,135.42,0c-1.63,1.44-2.88,2.52-5.07,4.43,5.47,0,9.87-.03,14.26,0,5.71,.06,12.43-7.64,16.91,1.48,3.28,6.68,5.55,13.86,8.05,20.89,1.29,3.65,2.1,7.46,3.29,11.82-8.66,5.92-28.08,3.04-21.01,23.36,1.42-.98,3.23-2.24,5.07-3.51,.67,2.53,1.34,5.07,2.19,8.28,2.13-5.07,4.11-9.75,6.09-14.44l2.64,.78c-1.02,5.32-2.05,10.64-3.56,18.49,10.69-5.7,19.81-7.78,22.46,7.52-3.28-.48-6.63-.97-9.6-1.4-1.7,2.29-3.05,6.07-5.46,6.96-8.07,2.99-14.47,13.94-25.52,5.33-2.01-1.57-7.47,1.28-13.57,2.56,2.58-3.7,3.76-5.4,5.53-7.92-8.04-3-15.58-5.84-24.23-9.07,4.35-1.82,.53-10.58,9.81-8.35,3.93,.94,8.69-1.6,13.57-2.67-3.44-5-3.36-15.51-16.65-14.1,6.3-3.93,12.59-7.84,20.61-12.84h-17.01c1.46-9.24,5.48-18.26,3.45-25.6-3.1-11.21-15.98,.13-22.52-6.41,2.82,3.44,5.64,6.88,9.83,11.98h8.22l-5.23,4.67c1.21,2.89,4.33,6.91,3.34,8.89-1.2,2.42-5.92,4.48-8.99,4.33-11.01-.54-20.59,1.13-27.2,11.11-.7,1.07-3.2,.94-4.86,1.38-1.23-3.99-2.47-8.02-3.72-12.05l-.28,.26h-.03Zm91.33-4.86c-.38-1.02-.76-2.04-1.14-3.06l-7.47,2.12c2.27-3.81,4.04-6.77,6.15-10.31-12.31-.15-14.16,6.07-12.69,16.29,5.65-1.88,10.39-3.45,15.14-5.03h.01Z" fill="#41463d"/><path d="M79.95,56.44l7.15,7.97c-1.74,1.21-3.52,3.45-5.51,3.67-19.67,2.14-39.36,4.19-59.1,5.61-3.29,.24-6.7-3.25-10.27-4.06-7.1-1.63-13.51-5.25-12-12.66,1.12-5.43,6.24-10.69,10.8-14.6,5.3-4.54,11.93-7.53,18.2-11.32,3.51,13.65,21.43,17.22,47.54,11.5-1.98,2.45-3.96,4.9-7.09,8.79,3.35,1.7,6.95,3.53,10.56,5.36l-.28-.25h0Zm-42.79-7.95l.13-2.76c-5.01-.51-10.31-2.3-14.93-1.21-6.57,1.55-12.82,4.92-18.74,8.31-1.06,.61-.15,5.23,.52,7.82,.17,.69,2.79,.77,4.27,1.13-.43-2.51-.94-5-1.23-7.53-.06-.49,.75-1.08,1.16-1.62l.58,2.27c9.42-2.13,18.83-4.27,28.25-6.4Z" fill="#41463d"/><path d="M76.51,35.89c-11.12-2.89-22.25-5.77-33.37-8.66l.77-3.19c10.45,2.73,20.92,5.41,31.31,8.35,.63,.18,.68,2.46,1,3.76l.29-.26Z" fill="#41463d"/><path d="M80.23,56.71c5.91-11.07,16.42-4.36,24.24-8.05,.24,1.02,.48,2.05,.73,3.09-8.4,1.58-16.81,3.15-25.22,4.72l.26,.25h-.01Z" fill="#41463d"/></g></g></g></g></svg>