<?xml version="1.0" encoding="utf-8"?>
<!-- Generator: Adobe Illustrator 26.3.1, SVG Export Plug-In . SVG Version: 6.00 Build 0)  -->
<svg version="1.1" id="b" xmlns="http://www.w3.org/2000/svg" xmlns:xlink="http://www.w3.org/1999/xlink" x="0px" y="0px"
	 viewBox="0 0 280.9 153.9" style="enable-background:new 0 0 280.9 153.9;" xml:space="preserve">
<style type="text/css">
	.st0{fill:#E4D6A7;}
	.st1{fill:#41463D;}
</style>
<polygon class="st0" points="14.2,85.9 9.3,29.7 68.2,0 252.5,79.1 252.5,129.1 191,153.9 "/>
<g id="c">
	<g id="d">
		<g id="e">
			<g>
				<path class="st1" d="M232.4,68.7h16.1c2.3,7.3,5.9,13.2,5.5,18.8c-0.3,4.7-5.2,9.1-8.5,14.4c10.3,5.8,21.6,12.1,35.4,19.8
					c-16,7.1-29.7,13.3-43.4,19.3c-5.7,2.5-11.9,4.2-17.2,7.3c-16.9,10.1-34.2,3.8-50.9,0.7c-11.4-2.1-24.6-4.8-28.3-19.7
					c-0.3-1.1-3.4-2.2-5.2-2.2c-15.8,0.8-27.4-9.3-40.8-15C78.2,105,60.4,100.1,43,94.4c-9.7-3.1-19.5-5.8-28.8-8.5
					c4.3-9.2,8.2-17.7,11.9-25.7c-6.8-0.1-7.2,0.3-11.4,14.6L14,62.7c-4.5-1-9-2.1-13.5-3.1l-0.5-2l8.6-2.4L6.2,37.4
					c5.7,2.4,10.2,4.2,14.6,6.1l0.8-1.4c-1-1.2-2-2.3-3-3.5c8.2,0.3,17.1,2.1,21-10.4c-8.4,2.4-18.6-2.8-21,10l-9.3-8.6
					c12.9-9.1,25-16.4,42.3-10c-7.5,5.8-10.6,10.8-2.3,16.4l-4.8,2.5c2.7,1.8,5.2,3.5,8,5.5c1.8-9.7,3.5-19.3,5.4-29.5
					c-3.1-0.8-5.8-1.5-8.6-2.2l-0.9-2.7L68.2,0c3.6,10.2,10.9,12.3,18.5,12.7c4.9,0.2,10-2.9,14.9-2.7c5.2,0.2,10.5,1.9,15.2,4.2
					c13.3,6.5,26,14.5,39.6,20.4c15.8,6.8,32.3,12.1,48.5,18c5.1,1.9,10.3,3.5,15.2,5.8c1.7,0.8,2.6,3.2,3.8,4.9
					c-3.6-0.2-7.2-0.4-13.6-0.7c2.3,6,3.8,10,5.3,14C221.2,74,226.8,71.4,232.4,68.7L232.4,68.7L232.4,68.7z M70.7,27.7
					c-3.3-0.5-7-1.6-4.3,4.1c-4,2.7-10.2,4.3-6.9,9.1c3.9-0.5,6.7-0.8,9.5-1.2l0.1,1.3L62,43.3c13.3,6,24.2,10.9,33.4,15.1
					c2.7-9.4,5.7-20.3,9-31.9c0.9,0.5-0.3-0.4-1.7-1c-9.5-4.5-18.5-12.1-29.8-5C70.2,22,65.8,23.6,70.7,27.7L70.7,27.7z M165.6,85.3
					l6.1,4.2c2.5,2.2,5,4.4,5.2,4.6c4.6-13.5,9.3-27.5,14.2-41.8c-8.3-2-17.7-5-27.4-6.6c-9.2-1.5-22.8,16-18.4,24
					C149.4,77.5,154.3,86.1,165.6,85.3L165.6,85.3z M133.3,81.1c1.1-0.2,2.2-0.4,3.3-0.5c-2.3-6.4,8-16.2-6.8-19.5
					c2.7-0.1,5.3-0.2,7-0.3c3.6-7.2,6.8-13.8,10.6-21.6c-7-2.5-13.5-5.4-20.3-7.2c-13.7-3.6-20.4,0.6-23.1,14.9
					c-0.9,4.9-1.4,13.1,1.3,15c7.3,5,15.4,11.5,26,8.4L133.3,81.1L133.3,81.1z M49.2,52.7l-1.1,3.4C86.8,74,125.4,92,164,109.9
					c-2.9-4.1-6.1-7.7-10.2-9.5C126.3,87.6,98.6,75.2,71,62.7c-4.1-1.8-7.9-4.2-12-6.1C55.8,55.2,52.5,54,49.2,52.7L49.2,52.7z
					 M228.6,79.1c-9.1,6-11.7,14.2-7.6,24.5c-0.2-3.3-0.4-6.6-0.7-10l1.5-1.1c0.8,1.8,1.5,3.6,2.9,6.8
					C226.2,91.6,227.2,86.3,228.6,79.1L228.6,79.1L228.6,79.1z M44.9,72.8c-7.8,4.4-13.9,7.8-22,12.4c5.8,0.3,11.5,2.3,14.9,0.4
					C41.3,83.5,42.4,77.6,44.9,72.8L44.9,72.8z M236.6,86l-3.6-1.3c-3,7.7-5.9,15.3-8.3,21.6c1.5,0.5,4.4,1.4,7.3,2.4V98.5L236.6,86
					L236.6,86z M185.9,112.8c-4-10.4-10.5-12.3-21.8-7.4C173.1,108.5,179.5,110.6,185.9,112.8z M166.7,133.1
					c-6.6-3.7-11.8-6.6-17.9-10C153.2,135.1,157.2,137.4,166.7,133.1z"/>
				<path class="st1" d="M172,86.2c-2.2-0.2-4.4-0.5-6.6-0.7C167.6,85.8,169.8,86,172,86.2z"/>
			</g>
		</g>
	</g>
</g>
</svg>
