<?xml version="1.0" encoding="UTF-8"?><svg id="b" xmlns="http://www.w3.org/2000/svg" viewBox="0 0 280.88 153.88"><g id="c"><g id="d"><g id="e"><g><path d="M232.45,68.74h16.14c2.33,7.3,5.86,13.18,5.47,18.8-.32,4.72-5.21,9.13-8.54,14.41,10.27,5.76,21.57,12.1,35.36,19.83-16.02,7.14-29.67,13.27-43.36,19.3-5.72,2.52-11.93,4.17-17.24,7.32-16.92,10.05-34.24,3.76-50.93,.69-11.4-2.1-24.63-4.79-28.3-19.7-.28-1.12-3.42-2.24-5.17-2.16-15.84,.77-27.42-9.31-40.83-15.02-16.84-7.17-34.64-12.13-52.1-17.8-9.68-3.14-19.54-5.78-28.8-8.5,4.26-9.23,8.18-17.74,11.85-25.69-6.84-.13-7.25,.3-11.37,14.57l-.64-12.12c-4.47-1.04-8.97-2.08-13.47-3.12l-.51-2,8.56-2.43-2.33-17.69c5.72,2.38,10.18,4.24,14.64,6.09l.78-1.37c-1.01-1.16-2.04-2.33-3.04-3.48,8.21,.29,17.07,2.06,20.99-10.37-8.41,2.35-18.63-2.77-21.04,10.03l-9.31-8.61c12.89-9.14,25.04-16.43,42.33-10-7.52,5.76-10.56,10.76-2.35,16.4l-4.85,2.45c2.67,1.82,5.2,3.55,7.99,5.46,1.77-9.73,3.52-19.29,5.39-29.53-3.07-.81-5.82-1.52-8.56-2.23l-.92-2.72L68.19,0c3.58,10.2,10.95,12.32,18.5,12.67,4.9,.23,9.97-2.92,14.88-2.72,5.15,.22,10.53,1.95,15.21,4.25,13.32,6.53,25.98,14.49,39.55,20.38,15.79,6.84,32.3,12.06,48.5,18,5.1,1.86,10.31,3.5,15.22,5.79,1.67,.78,2.56,3.25,3.8,4.94-3.59-.18-7.18-.37-13.65-.7,2.28,6,3.8,10.03,5.33,14.04,5.64-2.64,11.28-5.27,16.91-7.91h.01ZM70.74,27.67c-3.28-.54-7.05-1.59-4.33,4.13-4.02,2.66-10.15,4.29-6.9,9.11,3.91-.48,6.69-.82,9.46-1.16l.14,1.32-7.07,2.21c13.3,6,24.24,10.94,33.36,15.06,2.66-9.44,5.72-20.32,8.99-31.9,.91,.55-.35-.38-1.73-1.04-9.46-4.5-18.49-12.05-29.83-5.02-2.62,1.62-7.03,3.26-2.11,7.29Zm94.82,57.68l6.09,4.17c2.5,2.22,5.01,4.45,5.2,4.64,4.57-13.48,9.31-27.46,14.19-41.83-8.27-2.04-17.74-5.04-27.44-6.57-9.2-1.45-22.75,16.04-18.4,23.99,4.22,7.72,9.07,16.32,20.35,15.61Zm-32.27-4.29c1.09-.17,2.2-.36,3.29-.53-2.3-6.38,8.01-16.19-6.77-19.45,2.66-.13,5.32-.25,7-.33,3.55-7.23,6.76-13.79,10.61-21.65-6.99-2.5-13.49-5.36-20.28-7.16-13.66-3.61-20.43,.61-23.1,14.9-.92,4.93-1.36,13.1,1.32,14.95,7.33,5.05,15.37,11.53,25.98,8.44l1.95,10.84ZM49.22,52.7l-1.09,3.42c38.62,17.91,77.23,35.84,115.85,53.75-2.85-4.1-6.12-7.67-10.18-9.53-27.52-12.73-55.22-25.1-82.84-37.63-4.08-1.85-7.94-4.17-12-6.07-3.18-1.48-6.49-2.64-9.75-3.94Zm179.33,26.44c-9.14,6-11.68,14.16-7.64,24.47-.23-3.32-.45-6.63-.68-9.96l1.52-1.11c.77,1.78,1.54,3.57,2.94,6.79,1.47-7.71,2.49-13.02,3.86-20.2h.01Zm-183.61-6.37c-7.79,4.39-13.89,7.82-21.99,12.37,5.81,.33,11.5,2.33,14.88,.37,3.43-1.98,4.59-7.87,7.1-12.74Zm191.68,13.25l-3.65-1.3c-2.96,7.66-5.93,15.32-8.33,21.56,1.52,.51,4.4,1.45,7.28,2.41v-10.18l4.71-12.49Zm-50.71,26.8c-3.98-10.42-10.52-12.34-21.78-7.39,8.94,3.03,15.37,5.2,21.78,7.39Zm-19.24,20.31c-6.65-3.73-11.78-6.61-17.89-10.03,4.44,12,8.4,14.35,17.89,10.03Z" fill="#41463d"/><path d="M172.04,86.24c-2.21-.23-4.41-.46-6.62-.7,2.21,.23,4.41,.46,6.62,.7Z" fill="#41463d"/></g></g></g></g></svg>