<?xml version="1.0" encoding="UTF-8"?><svg id="a" xmlns="http://www.w3.org/2000/svg" viewBox="0 0 789.57 775.15"><g id="b"><g><path d="M46.44,752.97c-14.65-15.84-22.96-33.76-22.61-56.09,.71-45.9,.2-91.83,.17-137.74,0-1.3-.19-2.6-.36-4.66-3.73,0-7.33,.04-10.92,0-6.91-.1-12.52-5.2-12.57-12.09-.17-22.43-.19-44.86-.08-67.29,.03-6.38,4.49-10.89,10.95-11.39,4.09-.31,8.22-.06,13-.06,0-12.95-.04-25.21,.01-37.47,.05-12.14-.79-24.37,.47-36.39,2.77-26.48,17.34-45.47,40.38-58.06,7.81-4.27,14.04-9.36,17.98-17.77,5.42-11.56,15.35-18,27.84-20.35,2.83-.53,4.46-1.45,4.22-4.77-.24-3.39,1.94-4.49,5.14-4.47,8.14,.06,16.29,.04,24.44-.13,3.75-.08,6.63,.77,8.7,4.31,1.25,2.15,3.5,3.71,5.31,5.54l1.37-1.04c-.97-2.32-1.88-4.66-2.93-6.94-1.45-3.15-.67-5.3,2.47-6.87,5.2-2.6,10.27-5.46,15.46-8.08,27.88-14.03,55.65-28.29,83.71-41.95,50.31-24.5,100.67-48.92,151.25-72.85,72.34-34.23,144.88-68.03,217.37-101.94,19.41-9.08,38.98-17.84,58.44-26.82,2.88-1.33,5.9-2.73,7.8,.82,2.04,3.81-1.38,5.26-3.97,6.67-70.32,38.35-140.4,77.16-211.09,114.84-47.62,25.38-96.01,49.33-144.23,73.59-41.4,20.83-83.04,41.2-124.58,61.77-.6,.29-1.36,.48-1.72,.96-.97,1.27-2.79,3.17-2.42,3.93,.66,1.37,2.65,2.9,4.11,2.94,10.03,.23,20.06,.06,30.1,.06,25.24,0,50.47,0,75.71,.03,21.67,.02,43.34,.1,65,.08,26.01-.03,52.03-.17,78.04-.19,21.83-.02,43.66,.06,65.48,.09,7.73,.01,15.45,0,23.31,0,.33-1.84,.52-2.94,.73-4.04,1.58-8.53,5.18-11.7,13.92-11.73,16.13-.05,32.27,.11,48.4,.12,10.31,0,20.63-.29,30.94-.06,3.5,.08,7.48,.54,10.3,2.33,2.35,1.49,4.01,5,4.7,7.92,.89,3.76,1.94,5.89,6.31,5.67,5.47-.27,11-.23,16.45,.24,16.34,1.41,27.71,9.19,33.82,25.1,1.82,4.74,6.73,9.2,11.33,11.82,21.81,12.41,36.21,30.16,40.52,55.03,1.51,8.69,.73,17.8,.86,26.71,.13,8.94,.09,17.88,.14,26.81,.07,12.08,.16,24.16,.22,36.25,.03,7.24,0,14.48,0,22.63,2.59,0,5.16-.03,7.73,0,8.37,.12,12.9,4.67,12.91,12.96,0,14.97-.02,29.94,.01,44.91,.02,9.29-4,13.38-13.28,13.33-2.31-.01-4.62-.21-7.83-.36,0,6.28-.02,12.48,0,18.68,.02,4.59,.23,9.18,.08,13.76-.12,3.61,.8,5.68,4.95,5.24,2.63-.28,5.32-.19,7.97-.01,6.6,.44,10.77,4.05,10.91,10.63,.35,16.27,.34,32.54,.19,48.81-.05,5-5.23,8.79-11.41,8.98-3.79,.12-7.59,.02-11.76,.02,0,8.07-.22,15.83,.04,23.57,.71,21.04-6.09,39.12-20.71,54.27-1.11,1.15-18.67,19.4-38.55,19.07-1.13-.02-33.03,.97-45.02,.5-11.47-.45-22.96-.2-34.44-.21-28.35-.04-56.71-.01-85.06-.1-51.54-.16-103.09-.51-154.63-.51-29.6,0-59.2,.68-88.8,.75-42.94,.1-85.88-.47-128.81,0-31.53,.35-63.05,2.08-94.57,2.87-10.62-2.31-28.17-20.94-29.31-22.18Zm51.69-437.59c23.57,0,45.94,.03,68.32,0,19.4-.04,38.8-.23,58.2-.22,30.47,.02,60.93,.26,91.4,.23,23.63-.02,47.25-.37,70.88-.39,1.54,0,3.72,1.14,4.46,2.42,.94,1.63,1.62,5.02,.8,5.71-1.77,1.48-4.58,2.36-6.97,2.36-46.08,.14-92.17,.12-138.25,.12-42.76,0-85.52,.18-128.28-.12-10.57-.07-18.79,2.19-23.34,12.81-.88,2.05-4.52,3.77-7.09,4.1-27.96,3.62-50.22,27.56-50.26,55.27-.15,99.54-.05,199.08-.12,298.62,0,9.29,1.19,18.31,5.34,26.63,8.32,16.67,20.69,28.55,40.01,30.79,6.87,.79,13.91,0,20.88,.01,43.86,.12,87.71,.36,131.57,.37,64.01,.01,128.01-.19,192.02-.21,44.19-.01,88.38,.17,132.58,.2,44.88,.03,89.77,.08,134.65-.12,7.57-.03,15.5-.1,22.63-2.25,18.88-5.71,32.72-25.21,33.01-46.04,.4-28.8,.18-57.61,.15-86.42-.03-23.36-.21-46.72-.24-70.09-.04-25.23,0-50.46,.04-75.69,.03-24.7,.52-49.41,.04-74.09-.54-27.57-17.53-50.75-46.48-56.14-4.59-.85-7.36-2.85-9.03-7.25-2.95-7.77-8.83-10.47-17.15-10.45-71.54,.2-143.09,.11-214.63,.11h-26.36v-10.54h258.79c-5.57-6.52-11.53-9.07-18.48-9.29-8.81-.28-17.64-.21-26.46-.2-48.76,.04-97.51,.14-146.27,.15-67.04,.01-134.09-.03-201.13-.06-43.09-.02-86.19-.11-129.28-.11-19.14,0-38.28,.1-57.42,.26-7.11,.06-13.23,2.43-18.49,9.52h-.04ZM462.63,146.94c-.21-.6-.42-1.2-.63-1.79-1.22,0-2.63-.41-3.63,.06-79.59,38.04-159.15,76.15-238.88,114.33,4.33,6.49,4.69,6.72,7.67,5.23,17.53-8.74,35.02-17.54,52.58-26.22,55.7-27.53,111.44-54.99,167.12-82.57,5.42-2.68,10.52-6.01,15.76-9.04h0Zm302.91,471.24c0,4.71,.02,9.32,0,13.93-.03,8.39,4.14,12.08,12.53,11.05,.14-.02,.27-.17,1.02-.66,0-4.33,.02-9.09,0-13.86-.05-11.86-.09-11.88-11.99-11.07-.31,.02-.61,.23-1.57,.61h0Zm.38-83.81h9.74c0-7.2,.15-14.13-.15-21.04-.05-1.13-1.95-2.76-3.28-3.12-1.95-.53-4.16-.14-6.32-.14v24.3h.01ZM192.38,292.5c.15-5.99-2.57-10.68-7.32-12.77-2.18-.96-6.08,1.83-9.14,3.06-1.35,.54-2.55,1.45-3.82,2.19,4.83,8.64,7.53,9.66,20.28,7.52h0Zm586.67,370.64c-.6-3.26-.46-7.72-1.7-8.15-3.21-1.11-7.28-1.16-10.49-.09-1.16,.39-.87,5.16-1.28,8.24h13.47Zm-4.04-106.72c1.71-10.85-.24-12.79-9.28-9.66v9.66h9.28ZM12.81,495.53v7.73h11.36v-7.73H12.81Zm.43-12.31h10.72v-7.92c-10.97-2.12-12.02-1.35-10.72,7.92Zm607.27-189.27c5.02,0,9.96,.14,14.89-.09,1.31-.06,2.58-1.25,3.86-1.92-1.21-1.11-2.32-3.01-3.64-3.17-3.92-.5-7.92-.3-11.89-.39-3.37-.08-4.49,1.49-3.22,5.58h0ZM23.62,543.27c.39-.51,.79-1.02,1.18-1.53-.68-2.29-.93-6.23-2.11-6.53-2.95-.75-6.36-.05-9.47,.62-.45,.1-.71,4.61-.25,4.78,3.43,1.22,7.07,1.85,10.65,2.66h0Zm584.42-249.35c.43-.41,.86-.81,1.3-1.22-.87-1.41-1.64-3.93-2.64-4.03-4.42-.43-8.92-.32-13.36,0-.91,.07-1.7,1.86-2.55,2.85,.98,.8,1.93,2.23,2.94,2.28,4.76,.24,9.54,.11,14.31,.11h0ZM13.23,515.77v7.41h10.92c.73-8.7,.44-8.89-10.92-7.41Zm568.37-221.97c-1.5-2.48-2.16-4.89-3.2-5.07-3.04-.51-6.25-.32-9.34,.05-.88,.1-2.13,1.71-2.18,2.68-.04,.73,1.51,2.16,2.43,2.23,3.43,.27,6.9,.11,12.29,.11h0Zm-431.28-.69c-2.75-3.88-10.65-5.92-13.26-4.02-.67,.49-1.15,1.64-1.16,2.5,0,.49,1.07,1.43,1.68,1.45,4.04,.13,8.08,.07,12.74,.07h0Z" fill="#444"/><path d="M719.32,0c6.01,2.78,11.14,6.23,12.6,13.43,1.67,8.27-2.89,16.16-11.09,18.53-8.63,2.49-16.7-1.79-19.78-10.5-2.73-7.72,.91-16.23,8.37-19.48,1.62-.71,3.27-1.33,4.91-1.99h4.99Zm3.03,15.33c-2.07-1.38-4.35-4.07-6.15-3.78-1.92,.31-4.44,3.33-4.67,5.39-.16,1.45,2.89,4.34,4.84,4.68,2.95,.52,5.23-1.55,5.98-6.29Z" fill="#444"/><path d="M98.13,315.38c5.26-7.09,11.38-9.46,18.49-9.52,19.14-.17,38.28-.26,57.42-.26,43.09,0,86.19,.09,129.28,.11,67.04,.04,134.09,.07,201.13,.06,48.76,0,97.51-.11,146.27-.15,8.82,0,17.65-.07,26.46,.2,6.94,.22,12.9,2.77,18.48,9.29H436.87v10.54h26.36c71.54,0,143.09,.09,214.63-.11,8.31-.02,14.2,2.67,17.15,10.45,1.67,4.4,4.44,6.4,9.03,7.25,28.95,5.39,45.94,28.57,46.48,56.14,.49,24.69,0,49.4-.04,74.09-.03,25.23-.08,50.46-.04,75.69,.03,23.36,.22,46.72,.24,70.09,.03,28.81,.25,57.62-.15,86.42-.29,20.83-14.13,40.33-33.01,46.04-7.13,2.16-15.06,2.22-22.63,2.25-44.88,.2-89.77,.15-134.65,.12-44.19-.03-88.38-.22-132.58-.2-64.01,.02-128.01,.22-192.02,.21-43.86,0-87.71-.25-131.57-.37-6.96-.02-14.01,.78-20.88-.01-19.32-2.23-31.69-14.11-40.01-30.79-4.15-8.32-5.34-17.34-5.34-26.63,.07-99.54-.03-199.08,.12-298.62,.04-27.71,22.3-51.65,50.26-55.27,2.57-.33,6.21-2.05,7.09-4.1,4.56-10.62,12.78-12.88,23.34-12.81,42.76,.3,85.52,.12,128.28,.12,46.08,0,92.17,.02,138.25-.12,2.39,0,5.2-.88,6.97-2.36,.83-.69,.14-4.09-.8-5.71-.74-1.27-2.92-2.42-4.46-2.42-23.63,.02-47.25,.36-70.88,.39-30.47,.03-60.93-.21-91.4-.23-19.4-.02-38.8,.18-58.2,.22-22.38,.04-44.75,0-68.32,0h.04Zm624.96,277.36c-9.54,0-18.28-.05-27.02,0-18.79,.12-37.58,.37-56.37,.42-22.06,.06-44.11-.07-66.17-.08-37.7-.01-75.39,.15-113.09-.1-9.07-.06-16.17,3.22-21.95,9.74-5.29,5.97-10.47,12.07-15.3,18.41-8.78,11.53-9.11,20.27-1.21,32.53,5.5,8.52,11.41,16.77,17.19,25.11,13.35,19.27,26.7,38.54,40.15,57.74,1.26,1.8,3.29,4.47,4.86,4.4,10.51-.43,21.19,2.35,31.56-1.54,1.38-.52,3.23-.04,4.81,.25,2.21,.41,4.37,1.55,6.56,1.56,58.91,.1,117.81,.09,176.72,.07,2.14,0,4.34-.17,6.41-.67,15.22-3.67,26.66-19.09,26.98-36.7,.33-18.6,.48-37.21,.55-55.82,.2-53.9,.33-107.8,.41-161.69,0-1.51-.85-3.02-1.32-4.53-.66-2.14-2.1-4.38-1.83-6.38,.55-3.96,2.96-7.77,3.01-11.66,.31-20.45,.42-40.92,.02-61.37-.3-14.85-4.96-28.39-17.24-37.59-7.19-5.38-15.19-10.96-25.27-5.63-.97,.51-2.76-.44-4.15-.8-1.83-.48-3.63-1.52-5.45-1.53-27.89-.19-55.79,.02-83.67-.47-11.67-.21-20.97,3.46-28.64,12.2-6.8,7.75-14.37,14.84-20.87,22.81-5.63,6.92-12.56,9.11-20.99,9.04-18.76-.16-37.53-.06-56.29-.06-88.68-.02-177.37-.05-266.05-.04-24.1,0-48.21-.28-72.29,.31-26,.63-39.96,15.61-39.88,41.52,.07,23.61,.27,47.23,.11,70.84-.11,16.41,10.74,31.43,29.44,31.68,1.83,.02,5.22-.6,5.24-1.08,.13-2.29-.07-4.99-1.23-6.87-1.82-2.92-4.53-5.28-6.83-7.9-1.78-2.03-2.96-3.88,.04-6.14,2.57-1.94,4.3-2.38,6.56,.49,1.92,2.44,4.78,4.13,6.77,6.53,1.9,2.28,3.8,4.87,4.67,7.64,1.95,6.21,2.75,7.15,9.88,7.17,61.72,.14,123.44,.34,185.16,.33,66.84-.01,133.68-.23,200.52-.38,6.47-.01,12.17,2.01,16.71,6.58,5.38,5.41,10.58,11.02,15.71,16.68,7.22,7.97,15.96,11.65,26.74,10.04,1.3-.19,2.64-.11,3.97-.11,30.9,.06,61.8,.14,92.7,.19,8.32,.01,16.64-.05,24.96-.06,2.46,0,4.78,.18,4.72,3.6-.07,3.46-.01,6.93-.01,11.3v.02ZM62.27,498.37c-.19-2.62-.5-5.08-.51-7.55-.04-7.63-.52-15.32,.22-22.89,.74-7.56-6.05-15.12,.13-22.55,.02-15.41,0-30.82,.06-46.23,.08-17.28,15.86-32.84,33.16-32.72,29.74,.21,59.48,.57,89.22,.68,48.24,.18,96.47,.26,144.71,.27,24.79,0,49.57-.31,74.36-.32,26.56-.01,53.12,.23,79.68,.17,3.45,0,8.5,.16,8.44-4.77-.06-4.95-4.75-5.07-8.71-5.06-27.9,.06-55.81,.16-83.71,.16-54.35,0-108.7,.03-163.05-.11-45.97-.12-91.93-.6-137.9-.6-10.25,0-20.61,.44-29.51,7.13-13.58,10.21-18.62,24.3-18.78,40.5-.2,21.07,.09,42.15,.09,63.22-.01,43.22-.1,86.44-.09,129.67,0,4.02-.18,7.99,3.35,11.38,1.23,1.18,1.09,5.7-.19,7.18-3.07,3.56-3.19,7.43-3.19,11.55-.03,16.62-.14,33.23,0,49.85,.08,9.3-.16,18.69,1.07,27.86,2.82,21,20.73,37.98,43.09,36.93,13.76-.65,27.56-.21,41.35-.22,46.87,0,93.74,.02,140.61,.02,51.8,0,103.6-.02,155.39-.03h34.78c-2.11-3.79-3.35-6.69-5.22-9.11-.98-1.26-3.06-2.35-4.65-2.35-11.66,0-23.33,.41-34.99,.45-35.99,.11-71.97,.14-107.96,.13-41.15,0-82.3-.11-123.45-.12-29.41,0-58.81,0-88.22,.15-8.19,.04-16.35,.4-23.65-4.25-10.69-6.81-15.95-16.84-16.23-29.23-.36-15.73-.1-31.48-.12-47.22-.03-17.53-.14-35.07-.13-52.6,.02-21.39,.13-42.78,.19-64.17,.02-8.91,0-17.82,0-27.27,2.62,.6,4.54,1.48,6.4,1.35,1.89-.13,3.71-1.25,5.56-1.93-1.15-1.67-1.95-3.91-3.53-4.86-2.16-1.29-4.91-1.59-8.08-2.51v.02Zm290.59,79.29c-2.93-4.01,1.66-10.04-6.37-10.01-33.2,.11-66.4,.01-99.6,.05-39.29,.04-78.59,.12-117.88,.2-14.75,.03-29.51,0-44.25,.25-1.85,.03-4.22,1.19-5.31,2.62-.74,.97-.25,3.99,.76,4.91,1.33,1.2,3.72,1.71,5.65,1.72,43.74,.16,87.48,.17,131.22,.29,13.79,.04,27.57,.44,41.36,.41,21.88-.03,43.75-.3,65.63-.43,9.09-.05,18.17,0,28.8,0h-.01Zm14.1-.58h185.91c-1.58-5-1.92-9.47-8.58-9.41-31.19,.26-62.38,.12-93.57,.11-19.36,0-38.73-.06-58.09-.08-8.58-.01-17.15,0-26.52,0,.34,3.74,.59,6.57,.85,9.38Zm36.81,116.79c.14-10.24-8.83-19.52-19.12-19.78-11.21-.28-20.78,8.39-20.61,19.75,.17,11.36,8.51,19.33,19.58,19.85,10.6,.49,19.99-8.91,20.14-19.83h.01Zm-42.27-72.13c.06,.87-.55,3.69,.56,5.38,1.53,2.33,4.35,3.8,6.62,5.65,1.04-2.03,2.57-3.96,3.01-6.12,.52-2.55-.02-5.3,.13-7.95,.44-7.73,5.3-13.01,11.74-12.93,5.85,.08,11.5,6.36,11.9,13.19,.12,2.15,.3,4.3,.45,6.45,.18,2.62,.65,5.71,3.99,4.8,1.97-.54,4.33-3.05,4.75-5.05,.73-3.48,.52-7.3-.03-10.87-1.72-11.26-11.02-18.94-22.23-18.74-12.4,.22-20.75,10.1-20.89,26.19h0Zm-234.94-3.96v-.14c9.15,0,18.31,.23,27.44-.18,2.07-.09,5.56-2.26,5.74-3.78,.41-3.4-2.77-4.37-5.86-4.42-.5,0-1-.02-1.5-.02-17.12-.03-34.24-.08-51.36-.07-1.98,0-4.24-.17-5.86,.69-1.46,.78-2.86,2.78-3.05,4.39-.11,.9,2.15,2.37,3.59,3.09,1.11,.55,2.6,.43,3.92,.43,8.98,.03,17.96,.02,26.93,.02h.01Zm176,87.13v.02c-10.11,0-20.24-.18-30.34,.17-1.74,.06-3.41,2.33-5.11,3.58,1.6,1.42,3.08,3.03,4.87,4.16,.84,.53,2.27,.15,3.43,.15,18.08,.03,36.15,.09,54.23,.03,1.92,0,3.97-.45,5.71-1.24,.97-.44,2.1-2.11,1.95-3.03-.19-1.21-1.36-2.69-2.5-3.22-1.42-.66-3.23-.6-4.87-.61-9.12-.05-18.24-.02-27.36-.02h-.01Zm-.19-95.68v-.08h-5.98c-8.15,.04-16.31-.1-24.44,.3-1.6,.08-3.1,2.27-4.65,3.48,1.43,1.54,2.73,3.23,4.34,4.55,.62,.51,1.93,.25,2.93,.25,18.8,0,37.59,0,56.39-.02,3.16,0,6.6-.42,6.53-4.36-.07-3.95-3.51-4.15-6.68-4.14-9.48,.04-18.96,.01-28.43,.01h0Zm.27,56.16v.03c9.64,0,19.29-.02,28.93,.01,2.87,.01,5.86-.42,6-3.75,.15-3.69-2.93-4.29-6.01-4.28-19.45,.04-38.91,.06-58.36,.07-2.81,0-5.83,.25-5.95,3.74-.14,3.79,2.84,4.22,5.95,4.2,9.81-.07,19.62-.03,29.43-.03h.01Zm-.83,31.7c9.98,0,19.96,.22,29.92-.18,2.04-.08,3.99-2.49,5.98-3.82-2.01-1.27-4.01-3.62-6.04-3.64-19.62-.26-39.24-.24-58.85,.07-1.98,.03-5.38,2.28-5.57,3.83-.44,3.44,2.81,3.77,5.64,3.76,9.64-.02,19.29,0,28.93-.01h-.01Zm-.07-15.78h29.38c3,0,6.19-.46,6.26-4.05,.08-3.84-3.3-3.94-6.21-3.93-19.42,.03-38.85-.02-58.27,.25-1.96,.03-5.34,1.84-5.53,3.17-.47,3.3,2.06,4.65,5.49,4.6,9.63-.14,19.25-.05,28.88-.05h0Zm-175.91,23.47v.17c-9.12,0-18.23,.02-27.35-.01-3-.01-6.08,.08-5.86,4.14,.21,3.74,3.18,4.1,6.19,4.09,17.91-.02,35.82,.01,53.72-.07,1.76,0,3.72-.31,5.22-1.14,1.05-.58,1.96-2.29,1.99-3.52,.02-.96-1.22-2.44-2.23-2.84-1.63-.64-3.54-.78-5.34-.8-8.78-.07-17.57-.03-26.35-.03h0Zm176.19-71.28v-.05c10.12,0,20.25,.17,30.36-.16,1.81-.06,3.56-2.15,5.33-3.31-1.56-1.37-3.06-2.83-4.72-4.06-.58-.43-1.6-.36-2.42-.36-19.25,.02-38.5,.04-57.75,.12-2.77,.01-5.75,.43-5.56,4.09,.18,3.52,3.02,3.76,5.88,3.74,9.62-.05,19.25-.02,28.87-.02h.01Zm-.27,16.23v-.05c9.82,0,19.63,.02,29.45,0,2.97,0,6.3-.46,6.25-4.09-.06-3.69-3.49-3.82-6.4-3.88-.5-.01-1-.04-1.5-.04-17.47-.02-34.93-.06-52.4-.04-2.15,0-4.39,0-6.42,.59-1.35,.39-3.53,2.1-3.37,2.71,.44,1.67,1.67,3.36,3.06,4.46,.85,.68,2.56,.34,3.89,.35,9.15,.02,18.3,.01,27.45,.01v-.02Zm-88.56-40.44v.06h-28.38c-2.88,0-5.69,.62-5.75,4.04-.07,3.49,2.8,4.1,5.65,4.12,18.92,.09,37.84,.19,56.76,.19,2.79,0,5.94-.91,5.25-4.32-.33-1.64-3.3-3.82-5.15-3.9-9.44-.39-18.92-.18-28.38-.18h0Zm-.82,72.03v-.04c9.63,0,19.26,.19,28.88-.17,1.88-.07,4.96-2.06,5.25-3.58,.64-3.43-2.45-4.09-5.3-4.22-.33-.02-.66,0-1,0-18.43,.02-36.86,.03-55.28,.05-2.76,0-5.89,.07-5.94,3.65-.06,3.65,2.89,4.32,6,4.31,9.13-.04,18.26-.01,27.39-.01h0Zm-86.42,7.99v.06h-27.91c-2.65,0-5.78-.41-5.92,3.49-.14,4,2.83,4.26,5.85,4.26,18.61,0,37.21,.01,55.82,.04,3.05,0,6.12-.47,6.04-4.2-.07-3.57-3.24-3.66-5.98-3.66-9.3-.02-18.61,0-27.91,0h0Zm-.3-31.86v.02c-9.13,0-18.26,.02-27.4-.01-2.92-.01-6.28-.11-6.26,3.77,.02,3.49,2.9,4.21,6.1,4.2,18.43-.07,36.86-.03,55.29,0,2.96,0,6.33-.14,6.29-3.87-.04-3.91-3.43-4.16-6.63-4.13-9.13,.07-18.26,.02-27.39,.02h0Zm.33,15.87v.09c-9.63,0-19.26-.18-28.87,.17-1.68,.06-4.4,2.1-4.67,3.58-.52,2.86,1.72,4.2,4.74,4.19,18.92-.04,37.83,0,56.75,.03,3.06,0,6.06-.57,5.89-4.35-.15-3.52-3.19-3.7-5.96-3.7h-27.88Zm86.95-7.94v.04c9.63,0,19.26,.18,28.88-.17,1.73-.06,3.39-2.3,5.08-3.53-1.68-1.44-3.16-3.53-5.11-4.15-2.26-.73-4.93-.19-7.42-.19-16.25,.03-32.51,0-48.76,.13-2.71,.02-6.37-.19-6.5,3.7-.14,4.13,3.27,4.2,6.44,4.18,9.13-.06,18.26-.02,27.39-.02h0Zm-.16,31.74v-.03c9.31,0,18.64,.22,27.94-.17,2.07-.09,5.48-2.08,5.78-3.67,.64-3.44-2.61-3.98-5.44-3.98-18.79,.02-37.59,.04-56.38,.11-2.74,.01-5.81,.33-5.73,3.96,.08,3.58,3.11,3.78,5.89,3.78,9.31,.01,18.63,0,27.94,0h0Zm-.12-63.59v.02c9.32,0,18.64,.01,27.95,0,2.94,0,6.43-.29,6.01-4.02-.17-1.52-3.74-3.77-5.78-3.79-18.8-.21-37.6-.04-56.4,.12-2.46,.02-5.43,.17-5.41,3.71,.02,3.67,2.83,3.97,5.67,3.96h27.96Zm-87.06-.05v.05h13.46c5.15,0,10.34,.33,15.44-.2,1.96-.2,3.72-2.38,5.57-3.66-1.82-1.35-3.62-2.73-5.49-4.01-.34-.24-.97-.06-1.47-.06-18.45,.02-36.89,.03-55.34,.08-2.7,0-5.75,.04-5.74,3.83,0,3.66,2.8,3.98,5.66,3.97,9.31-.02,18.61,0,27.92,0h-.01Zm87.3,16.11c9.64,0,19.3,.19,28.93-.17,1.72-.06,3.36-2.38,5.04-3.65-1.61-1.36-3.14-2.83-4.86-4.03-.57-.39-1.62-.1-2.45-.1-17.29,0-34.58-.02-51.86,.04-2.14,0-4.35,.22-6.37,.85-.99,.31-2.18,1.73-2.27,2.75-.1,1.04,.76,2.73,1.67,3.19,1.55,.77,3.48,1.08,5.25,1.1,8.98,.1,17.96,.05,26.94,.03h-.02Zm-86.99,.04v.07c8.65,0,17.3,.05,25.96-.03,3.36-.03,8.09,.82,7.85-4.28-.21-4.43-4.7-3.78-7.95-3.79-16.97-.03-33.93-.01-50.9,.04-1.98,0-4.12-.06-5.89,.64-1.24,.49-2.76,2.24-2.73,3.4,.03,1.22,1.53,2.92,2.79,3.45,1.59,.67,3.59,.46,5.42,.47,8.49,.04,16.97,.02,25.46,.02h0Zm87.44,55.35v.05c-9.45,0-18.91-.05-28.36,.03-2.66,.02-6.17,.2-5.52,3.82,.31,1.71,3.55,4.1,5.49,4.13,18.41,.29,36.82,.14,55.23,.12,3.05,0,6.16-.79,6.26-4.23,.11-3.86-3.34-3.9-6.22-3.91-8.96-.03-17.92-.01-26.88-.01h0Zm106.48-359.67v.08c5.13,0,10.29,.32,15.37-.18,1.67-.17,3.13-2.49,4.68-3.83-1.46-1.23-2.89-3.48-4.39-3.52-10.43-.33-20.87-.36-31.29-.06-1.5,.04-2.94,2.33-4.41,3.59,1.55,1.31,3.01,3.59,4.68,3.75,5.08,.5,10.23,.18,15.36,.18h0Zm44.08-7.76v-.04c-2.82,0-5.72-.41-8.43,.15-1.69,.35-3.07,2.16-4.6,3.31,1.33,1.46,2.57,4.06,4.01,4.18,6.26,.5,12.6,.53,18.87,.12,1.46-.1,2.75-2.64,4.12-4.05-1.34-1.22-2.55-3.25-4.06-3.5-3.23-.54-6.61-.17-9.92-.17h.01Zm-88.28,7.82v.05c2.31,0,4.74,.44,6.9-.13,1.87-.5,3.44-2.15,5.14-3.3-1.65-1.45-3.18-3.94-4.97-4.15-5.05-.58-10.23-.49-15.31-.06-1.61,.13-3.06,2.15-4.59,3.31,1.47,1.43,2.73,3.65,4.46,4.11,2.62,.7,5.56,.18,8.37,.18h0Zm-175.35,245.06c-2.33,.3-5.06,.3-7.51,1.13-1.2,.41-2.44,2.3-2.58,3.64-.11,1,1.46,3.08,2.37,3.13,5.35,.32,10.74,.37,16.08,.03,.91-.06,2.4-2.48,2.29-3.69-.11-1.22-1.69-2.91-2.96-3.3-2.31-.72-4.88-.64-7.68-.94h0Zm65.3-244.78v.12c1.82,0,3.64-.09,5.45,.02,2.84,.18,4.93-1.3,4.52-3.83-.27-1.63-2.6-3.87-4.28-4.14-3.69-.59-7.6-.43-11.33,.1-1.35,.19-3.37,2.33-3.37,3.57,0,1.39,1.7,3.4,3.13,3.99,1.69,.7,3.89,.16,5.87,.16h0Zm-68.71,57.09c1.19-1.56,3.69-3.59,4.43-6.12,.9-3.09-3.1-6.58-6.54-6.55-3.35,.03-6.7,3.18-6.29,6.32,.49,3.75,2.97,5.71,8.4,6.35h0Zm-16.66,7.11c-3.07,.5-5.72,2.15-5.65,5.88,.07,3.67,2.64,5.75,6.16,5.72,3.51-.03,6.11-2.17,6.01-5.81-.1-3.51-2.42-5.61-6.51-5.79h0Zm32.66-19.87c2.76-3.57,5.09-5.46,5.84-7.85,.85-2.7-3.51-6.41-6.58-5.89-3.24,.55-5.97,2.6-5.1,6.04,.59,2.34,3.08,4.21,5.84,7.7h0Zm-26.79,153.2c-1.01,1.44-3.55,3.5-3.82,5.83-.39,3.39,2.58,5.3,5.88,5.31,3.3,0,5.95-1.64,5.85-5.36-.1-3.77-2.58-5.5-7.9-5.78h-.01Zm427.85-174.93c2.58-3.46,4.94-5.28,5.34-7.45,.66-3.57-2.3-5.43-5.48-5.59-3.38-.17-6.16,2.08-5.66,5.38,.34,2.26,3.03,4.17,5.79,7.66h0Zm-90.48,352.39c2.27-3.23,4.99-5.55,4.57-6.86-.61-1.91-3.34-3.88-5.45-4.27-1.19-.22-4.36,2.92-4.15,4.13,.35,2.1,2.63,3.88,5.03,7Zm-33.69-70c-2.65-2.2-4.24-3.51-5.83-4.83-1.02,1.72-2.57,3.33-2.93,5.18-.47,2.42,0,5.6,3.34,5.18,1.62-.2,2.93-2.87,5.41-5.53h0Zm-258.31-56.07c-3.14-1.59-4.89-3.18-6.56-3.09-1.36,.07-2.61,2.14-3.92,3.32,1.51,1.19,2.93,3.15,4.56,3.35,1.38,.17,3-1.71,5.92-3.57h0ZM506.87,335.66c-1.86,2.55-3.81,4.08-3.82,5.62,0,1.18,2.57,3.42,3.8,3.29,1.61-.17,3.02-2.2,4.52-3.43-1.23-1.49-2.46-2.98-4.5-5.47h0Zm-86.62-10.18c1.72-1.89,3.91-3.29,3.78-4.42-.16-1.34-2.52-3.6-3.55-3.41-2.05,.38-3.84,2.16-5.74,3.36,1.63,1.32,3.27,2.64,5.52,4.47h-.01Zm128.09,10.19c-1.84,2.37-3.99,4.01-3.74,5.08,.38,1.61,2.45,2.82,3.8,4.21,1.37-1.39,3.45-2.62,3.84-4.25,.25-1.04-1.99-2.69-3.91-5.04h0Zm-407.52,2.17c-2.27,2.58-3.64,4.13-5,5.68,1.47,1.02,3.07,3.01,4.36,2.82,1.58-.23,3.38-2.06,4.09-3.65,.33-.72-1.72-2.51-3.45-4.85Zm390.88,2.76c-2.78-1.82-4.3-3.62-5.58-3.46-1.43,.18-2.64,2.13-3.94,3.31,1.27,1.27,2.4,3.3,3.85,3.56,1.24,.22,2.84-1.61,5.67-3.42h0ZM85.38,461.11c-2.78-1.79-4.17-3.31-5.69-3.44-1.06-.09-2.29,1.7-3.44,2.66,1.19,1.33,2.17,3.27,3.65,3.78,.98,.34,2.66-1.37,5.48-2.99h0Zm448.77-86.7c-1.65,2.28-3.63,3.93-3.33,4.85,.47,1.46,2.34,3.1,3.85,3.37,.97,.17,3.45-2.14,3.31-3.04-.24-1.55-1.99-2.87-3.82-5.18h0Z" fill="#d16666"/><path d="M462.63,146.94c-5.25,3.03-10.35,6.35-15.76,9.04-55.68,27.58-111.42,55.04-167.12,82.57-17.56,8.68-35.05,17.48-52.58,26.22-2.98,1.49-3.34,1.26-7.67-5.23,79.73-38.18,159.29-76.29,238.88-114.33,.99-.47,2.41-.06,3.63-.06,.21,.6,.42,1.2,.63,1.79h-.01Z" fill="#e4d6a7"/><path d="M765.54,618.19c.96-.38,1.26-.59,1.57-.61q11.9-.81,11.99,11.07c.02,4.76,0,9.53,0,13.86-.76,.5-.88,.65-1.02,.66-8.37,1.05-12.55-2.64-12.53-11.05,.02-4.61,0-9.22,0-13.93h0Z" fill="#e4d6a7"/><path d="M765.92,534.38v-24.3c2.16,0,4.37-.4,6.32,.14,1.33,.36,3.23,1.99,3.28,3.12,.3,6.91,.15,13.84,.15,21.04h-9.75Z" fill="#e4d6a7"/><path d="M192.38,292.5c-12.76,2.14-15.45,1.12-20.28-7.52,1.27-.74,2.47-1.65,3.82-2.19,3.06-1.23,6.96-4.02,9.14-3.06,4.76,2.1,7.47,6.79,7.32,12.77h0Z" fill="#e4d6a7"/><path d="M779.05,663.14h-13.47c.41-3.08,.12-7.85,1.28-8.24,3.21-1.07,7.28-1.02,10.49,.09,1.25,.43,1.1,4.89,1.7,8.15h0Z" fill="#e4d6a7"/><path d="M775,556.42h-9.28v-9.66c9.04-3.13,10.99-1.19,9.28,9.66Z" fill="#e4d6a7"/><path d="M12.81,495.53h11.36v7.73H12.81v-7.73Z" fill="#e4d6a7"/><path d="M13.24,483.22c-1.3-9.27-.25-10.04,10.72-7.92v7.92H13.24Z" fill="#e4d6a7"/><path d="M620.51,293.95c-1.27-4.09-.16-5.66,3.22-5.58,3.97,.1,7.97-.1,11.89,.39,1.33,.17,2.43,2.07,3.64,3.17-1.29,.67-2.55,1.86-3.86,1.92-4.92,.23-9.87,.09-14.89,.09h0Z" fill="#e4d6a7"/><path d="M23.62,543.27c-3.57-.81-7.21-1.44-10.65-2.66-.47-.17-.2-4.68,.25-4.78,3.11-.67,6.52-1.37,9.47-.62,1.18,.3,1.43,4.24,2.11,6.53-.39,.51-.79,1.02-1.18,1.53h0Z" fill="#e4d6a7"/><path d="M608.04,293.91c-4.77,0-9.55,.14-14.31-.11-1.02-.05-1.96-1.48-2.94-2.28,.85-1,1.63-2.79,2.55-2.85,4.44-.32,8.94-.43,13.36,0,1,.1,1.77,2.62,2.64,4.03-.43,.41-.86,.81-1.3,1.22h0Z" fill="#e4d6a7"/><path d="M13.23,515.77c11.35-1.48,11.64-1.29,10.92,7.41H13.23v-7.41Z" fill="#e4d6a7"/><path d="M581.59,293.79c-5.4,0-8.86,.16-12.29-.11-.92-.07-2.47-1.5-2.43-2.23,.05-.97,1.3-2.58,2.18-2.68,3.09-.36,6.3-.55,9.34-.05,1.04,.17,1.71,2.58,3.2,5.07h0Z" fill="#e4d6a7"/><path d="M150.31,293.1c-4.65,0-8.7,.06-12.74-.07-.61-.02-1.69-.95-1.68-1.45,.02-.86,.49-2.01,1.16-2.5,2.61-1.9,10.51,.14,13.26,4.02h0Z" fill="#e4d6a7"/><path d="M722.36,15.33c-.75,4.74-3.03,6.81-5.98,6.29-1.95-.34-5-3.23-4.84-4.68,.23-2.06,2.75-5.07,4.67-5.39,1.8-.29,4.08,2.4,6.15,3.78Z" fill="#e4d6a7"/><path d="M723.09,592.74c0-4.37-.05-7.84,.01-11.3,.07-3.42-2.26-3.6-4.72-3.6-8.32,0-16.64,.08-24.96,.06-30.9-.05-61.8-.13-92.7-.19-1.32,0-2.67-.08-3.97,.11-10.79,1.62-19.52-2.07-26.74-10.04-5.13-5.66-10.33-11.27-15.71-16.68-4.54-4.57-10.24-6.6-16.71-6.58-66.84,.15-133.68,.37-200.52,.38-61.72,.01-123.44-.19-185.16-.33-7.13-.02-7.93-.96-9.88-7.17-.87-2.77-2.77-5.36-4.67-7.64-1.99-2.4-4.86-4.09-6.77-6.53-2.26-2.88-3.99-2.43-6.56-.49-3,2.26-1.81,4.12-.04,6.14,2.3,2.63,5.01,4.98,6.83,7.9,1.17,1.88,1.36,4.58,1.23,6.87-.03,.47-3.41,1.1-5.24,1.08-18.7-.25-29.55-15.27-29.44-31.68,.16-23.61-.04-47.23-.11-70.84-.08-25.91,13.88-40.89,39.88-41.52,24.09-.59,48.19-.31,72.29-.31,88.68-.01,177.37,.02,266.05,.04,18.76,0,37.53-.1,56.29,.06,8.43,.07,15.36-2.13,20.99-9.04,6.5-7.98,14.07-15.07,20.87-22.81,7.66-8.73,16.96-12.4,28.64-12.2,27.88,.5,55.78,.28,83.67,.47,1.82,.01,3.62,1.05,5.45,1.53,1.39,.37,3.18,1.32,4.15,.8,10.08-5.33,18.09,.25,25.27,5.63,12.28,9.19,16.95,22.74,17.24,37.59,.41,20.45,.29,40.92-.02,61.37-.06,3.89-2.46,7.7-3.01,11.66-.28,2,1.17,4.24,1.83,6.38,.47,1.51,1.32,3.02,1.32,4.53-.08,53.9-.21,107.8-.41,161.69-.07,18.61-.21,37.22-.55,55.82-.32,17.61-11.75,33.03-26.98,36.7-2.07,.5-4.27,.67-6.41,.67-58.91,.03-117.81,.03-176.72-.07-2.18,0-4.35-1.15-6.56-1.56-1.58-.29-3.42-.77-4.81-.25-10.36,3.89-21.05,1.11-31.56,1.54-1.58,.06-3.61-2.6-4.86-4.4-13.45-19.2-26.8-38.47-40.15-57.74-5.78-8.34-11.69-16.59-17.19-25.11-7.91-12.26-7.57-21,1.21-32.53,4.83-6.34,10.01-12.44,15.3-18.41,5.77-6.52,12.88-9.8,21.95-9.74,37.69,.25,75.39,.08,113.09,.1,22.06,0,44.11,.14,66.17,.08,18.79-.05,37.58-.3,56.37-.42,8.74-.06,17.48,0,27.02,0v-.02Zm-126.42-85.21c1.15,1.6,1.63,2.49,2.3,3.18,9.93,10.26,22.36,13.91,36.23,13.28,6.53-.3,12.69-1.56,17.27-7.32,1.93-2.43,5.58-3.43,8.33-5.26,4.42-2.94,9.75-5.23,12.94-9.2,23.26-29.01,6.59-74.16-29.84-81.75-30-6.25-68.01,17.75-60.86,60.38,.85,5.04,2.82,9.9,4.42,15.37,1.76-1.15,2.47-1.55,3.1-2.05,11.52-9,22.9-18.18,34.62-26.92,3.03-2.26,7-3.73,10.74-4.39,1.78-.31,5.2,1.72,5.79,3.41,.68,1.96-.51,4.96-1.71,7.04-1.01,1.75-3.16,2.87-4.86,4.2-12.69,9.92-25.4,19.82-38.48,30.03h.01Zm-270.85-47.58h-25.13v-13.12c-6.64-.99-6.89-.79-6.94,5-.02,2,.22,4.04-.13,5.97-.18,.96-1.41,2.45-2.21,2.47-6.44,.2-12.9,.11-19.66,.11-.17-3.67-.4-6.81-.45-9.95-.03-2.44,.12-4.82-3.35-4.88-3.68-.07-4.3,2.07-4.1,5.18,.2,3.09,.04,6.19,.04,9.41h-23.15c0-2.24,.23-4.22-.05-6.13-.44-3.04,2.05-8.1-3.49-8.16-6.11-.07-3.1,5.32-3.69,8.41-.35,1.87-.07,3.86-.07,5.66h-24.49v-7.95c-.02-6.01-.18-6.13-7.38-4.86v12.89h-25.1c0-3.74-.07-7.05,.02-10.36,.08-2.93-1.48-3.75-4.07-3.63-2.61,.12-3.32,1.4-3.13,3.92,.25,3.39,.06,6.82,.06,10.12h-24.4v-13.18h-7.07v13.72h-14.56c-.67,8.08-.67,8.04,6.78,8.04,46.6-.02,93.2-.02,139.8-.02,1.58,0,3.16,.15,5.18,.25v59.49h7.19v-59.35h79.75v15.51c2.49-.15,4.4-.26,6.81-.4v-15.59h162.55v-7.68c-2.87-.29-5.3-.53-8.47-.85,0-3.44,.02-6.72,0-10.01-.02-2.23,.03-4.45-3.3-4.28-2.88,.15-3.63,1.73-3.57,4.27,.08,3.41,.02,6.83,.02,10.11h-23.49v-13.34h-7.29v13.3h-23.79c0-3.71-.1-7.02,.03-10.32,.11-2.66-.74-4.12-3.63-4.03-2.58,.08-4.02,.95-3.86,3.87,.19,3.43,.04,6.88,.04,10.87h-11.5c-7.05,.01-10.69-3.52-10.92-10.6-.01-.33,.15-.82,0-.97-1.25-1.14-2.4-2.75-3.88-3.19-2.4-.7-3.58,.64-3.45,3.31,.18,3.6,.05,7.22,.05,11.09h-23.01c0-3.89,.32-7.54-.17-11.08-.17-1.24-2.36-3.04-3.63-3.04-1.12,0-3.03,2.06-3.2,3.38-.45,3.54-.15,7.17-.15,10.76h-24.18v-13.28h-10.25v13.17h-26.78c0-3.77,.32-7.12-.15-10.35-.2-1.41-1.79-3.33-3.12-3.71-2.53-.72-3.98,.81-3.9,3.63,.1,3.32,.02,6.64,.02,10.4h-.03Zm249.66,37.75c-.59-1.76-1.08-3.14-1.52-4.53-7.43-23.63-4.59-45.84,12.06-64.43,16.77-18.72,38.66-24.54,63.11-18.99,43.57,9.89,61.47,64.13,33.17,100.48-3.34,4.29-.56,6.51,1.56,8.83,2.54,2.77,4.66,.57,6.5-1.62,15.1-17.97,19.52-38.81,14.76-61.24-9.03-42.58-44.61-66.38-87.05-58.44-45.34,8.48-67,55.66-55.97,92.14,2.88,9.53,3.51,9.94,13.38,7.81h0Zm19.74,167.42c-.69,14.53,6.9,26.93,19.33,36.97,11.44,9.24,24.71,11.67,38.82,10.05,13.85-1.59,24.46-10.21,32.64-20.09,11.39-13.75,13.34-30.65,7.23-47.57-8.65-23.96-32.41-36.15-59.29-31.2-22.85,4.21-39.01,24.99-38.74,51.83h0Zm-79.19-52.86c-26.99-.13-49.1,21.81-49.12,49.17-.01,16.15,6.09,29.15,19.26,39.45,9.71,7.6,20.09,11.7,31.97,11.39,30.61-.79,53.07-31.83,45.68-61.62-4.15-16.72-17.1-25.79-28.73-36.21-.34-.3-.91-.44-1.39-.48-5.89-.59-11.78-1.14-17.67-1.7Zm54.19-102.33c1.06,2.07,1.75,3.92,2.84,5.49,13.25,19.06,31.35,30.05,54.65,30.87,8.62,.3,17.38-1.72,25.98-3.21,1.74-.3,4.52-3.1,4.36-4.47-.57-5.07-4.18-6.85-9.17-5.61-23.68,5.9-44.6,.99-61.38-17.11-4.87-5.25-9.72-7.39-17.28-5.97h0Zm108.73,33.04c-4.71,3.24-4.82,4.08-1.06,7.91,1.51,1.53,2.84,3.69,4.67,4.33,2.32,.8,6.22,1.48,7.46,.24,7.46-7.49,14.44-15.48,21.31-23.53,.62-.73-.22-3.45-1.19-4.52-.62-.68-3.13-.53-4.08,.19-1.93,1.47-3.32,3.63-5.04,5.4-1.1,1.14-2.31,2.18-3.58,3.12-1.94,1.44-4.1,2.62-5.95,4.17-2.36,1.98-4.5,4.22-6.62,6.23-2.34-1.4-4.17-2.49-5.94-3.54h.02Zm-336.82-31.4c.19-3.56,1.7-7.26-3.47-7.34-13.43-.19-26.86-.24-40.28-.02-1.05,.02-2.89,2.48-2.86,3.78,.03,1.21,2,3.35,3.2,3.41,6.78,.33,13.59,.17,20.39,.17h23.02Zm85.46-.13c-.47-3.27,1.54-7.03-3.18-7.11-12.27-.2-24.54-.19-36.81,.02-1.01,.02-2.72,2.13-2.76,3.31-.04,1.23,1.53,3.6,2.43,3.62,13.22,.24,26.44,.16,40.32,.16Zm55.39,.18c11.05,0,21.8-.03,32.55,.01,6.46,.03,6.61-.1,5.45-7.19-1.67-.09-3.45-.27-5.22-.28-9.12-.04-18.25-.05-27.37-.04-6.02,0-6.19,.24-5.41,7.49h0Zm-224.59-.05c-.32-3.16,2.04-7.06-2.9-7.29-9.08-.43-18.2-.35-27.29-.15-1.01,.02-2.88,2.31-2.75,3.35,.18,1.46,1.82,3.88,2.9,3.91,9.87,.3,19.75,.18,30.05,.18h0Zm-49.59-.18c.25-3.55,.88-6.97-3.68-7.04-9.94-.16-19.88-.05-30.07-.05v7.09h33.75Zm470.91,17.18c-.21-.44-.56-1.76-1.35-2.72-2.22-2.69-4.6-5.24-6.95-7.82-2.47-2.71-5.25-3.63-8.2-.87-3.3,3.09-3.34,6.16,.09,9.22,2.97,2.64,6.13,5.13,9.48,7.25,3.02,1.91,6.89-.62,6.92-5.07h.01Zm-372.83-98.75c-.04-4.58-2.99-8.08-6.87-8.14-4.27-.07-7.38,3.7-7.32,8.88,.05,4.74,2.91,7.81,7.2,7.73,4.36-.08,7.03-3.31,6.99-8.47Zm359.81-51c8.16,0,16.06,.15,23.96-.13,1.55-.05,3.05-1.74,4.57-2.68-1.46-1.21-2.84-3.33-4.39-3.47-6.4-.55-12.86-.38-19.29-.7-4.64-.22-5.87,1.98-4.85,6.97h0Zm-175.11,50.89c.02,4.6,3.41,8.58,7.28,8.54,3.89-.03,6.92-3.64,6.92-8.23s-3.22-8.52-7.27-8.44c-4.03,.07-6.95,3.51-6.93,8.13Zm-267.29-8.07c-3.81-.07-6.99,3.5-7.19,8.08-.2,4.55,3.16,8.29,7.42,8.25,4.23-.04,7.32-3.37,7.26-7.84-.05-4.46-3.55-8.42-7.5-8.49h0Zm-65.27,8.4c-.02-4.66-3.39-8.6-7.25-8.46-3.8,.14-6.92,4.17-6.86,8.88,.06,4.53,3.21,7.95,7.19,7.8,3.83-.15,6.93-3.84,6.91-8.22h0Zm217.6,8.13c3.77-.06,6.97-3.79,7.03-8.19,.06-4.59-3.29-8.41-7.34-8.39-4.06,.03-7,3.72-6.89,8.67,.1,4.5,3.25,7.97,7.2,7.91Zm-231.78,73.36v.11c3.15,0,6.31-.12,9.45,.04,2.62,.13,3.51-.95,3.52-3.49,0-2.57-.56-4.07-3.57-4.01-6.31,.14-12.62,.11-18.93,.01-2.5-.04-3.58,.81-3.61,3.44-.03,2.71,.83,4.02,3.69,3.92,3.15-.12,6.3-.03,9.45-.03h0Zm489.34-132.92v.18c3.14,0,6.31,.25,9.4-.14,1.08-.13,2.67-1.81,2.73-2.85,.07-1.17-1.26-3.46-2.08-3.5-6.26-.35-12.56-.48-18.81-.12-1.16,.07-2.18,2.66-3.26,4.09,1.2,.78,2.34,2.08,3.61,2.24,2.76,.34,5.6,.11,8.41,.11h0Zm-179.68,133v.05c2.15,0,4.3-.09,6.44,.02,2.55,.14,4.18-.5,4.01-3.49-.14-2.46-.83-4.01-3.77-3.92-4.12,.12-8.26,.02-12.38-.22-3-.18-4.2,1.08-4.24,3.97-.04,3.21,1.76,3.84,4.48,3.62,1.81-.14,3.63-.03,5.45-.03h0Zm-243.83-79.75c.43-.9,2.26-2.93,1.87-4.36-.58-2.16-2.37-4.52-4.31-5.58-.96-.52-3.4,1.67-5.17,2.64,1.24,1.09,2.47,2.18,4.01,3.53-1.65,2.49-3.63,5.48-6.17,9.32h12.59c-.99-1.95-1.69-3.31-2.83-5.55h0Zm149.38-4.76c-2.28,3.61-4.17,6.58-6.54,10.34h12.78c-1.31-2.02-2.16-3.33-3.1-4.78,2.73-5.73,2.28-9.34-1.73-10.61-3.54-1.12-5.57,.55-6.35,4.28l4.94,.77h0Zm124.46,4.99c.49-1.25,2.08-3.29,1.71-4.87-.47-2.04-2.21-4.67-3.98-5.24-1.39-.45-3.67,1.85-5.55,2.92,1.32,1.28,2.64,2.56,4.13,4.01-1.56,2.21-3.44,4.88-5.97,8.47h12.07c-.84-1.85-1.46-3.22-2.4-5.29h-.01Zm174.31-52.98c.34-1.06,.52-1.36,.53-1.67,.04-2.15,.05-4.31,.05-6.46,.02-6.28-.08-6.36-6.76-5.19v12.97c2.17,.12,4.08,.23,6.18,.35Zm57.34,24.79c1.88-2.85,4.4-5.44,3.94-6.18-1.5-2.41-3.94-4.39-6.4-5.91-.44-.27-4.14,3.21-3.91,3.61,1.5,2.7,3.65,5.03,6.38,8.48h-.01Zm-577.06,33.54v-15.78c-.79-.51-1.57-1.02-2.36-1.53-.72,1.44-2.02,2.87-2.05,4.32-.08,4.26,.34,8.54,.57,12.99h3.84Zm148.42-16.56c-1.95,1.3-4.42,2.13-4.49,3.13-.29,3.93,.04,7.93,.5,11.86,.08,.7,1.84,1.6,2.86,1.64,.6,.03,1.83-1.44,1.82-2.23-.05-4.45-.4-8.9-.7-14.41h.01Zm76.52,82.14c-.94,1.4-2.41,2.7-2.7,4.22-.52,2.79,0,5.27,3.93,5.26,3.26-.01,4.28-1.47,4.44-4.53,.19-3.52-1.74-4.23-5.67-4.95h0Zm338.07-113.68c.75,.07,1.5,.15,2.25,.22,1.42-2.06,3.24-3.97,4.02-6.25,.25-.72-2.25-3.36-3.58-3.44-3.2-.19-5.34,2-5.18,5.28,.07,1.44,1.62,2.8,2.49,4.2h0Zm-29.22,178.76c2.14-2.77,4.29-5.5,6.33-8.32,.16-.23-.71-1.58-.79-1.55-2.41,.85-5.16,1.37-7.01,2.93-1.18,1-1.12,3.56-1.38,5.46-.03,.25,1.31,.7,2.86,1.48h-.01Zm38.68,47.14c2.19-2.47,3.37-3.8,4.54-5.12-1.46-1.26-2.77-3-4.46-3.54-.73-.23-3.09,1.97-3.19,3.19-.11,1.36,1.52,2.85,3.1,5.47h.01Zm-174.67-20.06c-1.79,2.51-3.52,3.87-3.41,5.08,.11,1.32,1.92,2.49,2.99,3.73,1.18-1.16,3.05-2.18,3.33-3.52,.23-1.15-1.37-2.67-2.9-5.29h-.01Z" fill="#41463d"/><path d="M62.27,498.37c3.17,.92,5.92,1.22,8.08,2.51,1.58,.94,2.38,3.19,3.53,4.86-1.85,.68-3.67,1.8-5.56,1.93-1.86,.13-3.79-.75-6.4-1.35,0,9.45,.02,18.36,0,27.27-.06,21.39-.17,42.78-.19,64.17-.01,17.53,.09,35.07,.13,52.6,.03,15.74-.24,31.49,.12,47.22,.28,12.4,5.54,22.42,16.23,29.23,7.3,4.65,15.46,4.29,23.65,4.25,29.41-.14,58.81-.15,88.22-.15,41.15,0,82.3,.11,123.45,.12,35.99,0,71.97-.03,107.96-.13,11.66-.03,23.33-.45,34.99-.45,1.58,0,3.67,1.09,4.65,2.35,1.87,2.41,3.11,5.31,5.22,9.11h-34.78c-51.8,0-103.6,.03-155.39,.03-46.87,0-93.74-.02-140.61-.02-13.78,0-27.59-.43-41.35,.22-22.35,1.05-40.27-15.93-43.09-36.93-1.23-9.17-.99-18.56-1.07-27.86-.14-16.62-.03-33.23,0-49.85,0-4.12,.12-7.99,3.19-11.55,1.28-1.48,1.42-6,.19-7.18-3.53-3.39-3.35-7.36-3.35-11.38-.01-43.22,.08-86.44,.09-129.67,0-21.07-.29-42.15-.09-63.22,.16-16.2,5.2-30.3,18.78-40.5,8.9-6.69,19.26-7.13,29.51-7.13,45.97,0,91.93,.48,137.9,.6,54.35,.14,108.7,.11,163.05,.11,27.9,0,55.81-.1,83.71-.16,3.96,0,8.65,.11,8.71,5.06,.06,4.93-4.99,4.76-8.44,4.77-26.56,.06-53.12-.18-79.68-.17-24.79,.01-49.57,.33-74.36,.32-48.24-.01-96.47-.09-144.71-.27-29.74-.11-59.48-.46-89.22-.68-17.31-.12-33.09,15.44-33.16,32.72-.07,15.41-.05,30.82-.06,46.23-6.18,7.43,.6,14.99-.13,22.55-.74,7.57-.26,15.25-.22,22.89,.01,2.46,.32,4.93,.51,7.55v-.02Z" fill="#444"/><path d="M352.85,577.66c-10.62,0-19.71-.04-28.8,0-21.88,.13-43.75,.39-65.63,.43-13.79,.02-27.57-.38-41.36-.41-43.74-.12-87.48-.13-131.22-.29-1.93,0-4.32-.51-5.65-1.72-1.01-.92-1.5-3.93-.76-4.91,1.09-1.43,3.46-2.59,5.31-2.62,14.75-.25,29.5-.22,44.25-.25,39.29-.08,78.59-.16,117.88-.2,33.2-.03,66.4,.07,99.6-.05,8.02-.03,3.44,6,6.37,10.01h0Z" fill="#444"/><path d="M366.94,577.09c-.25-2.81-.51-5.64-.85-9.38h26.52c19.36,.02,38.73,.07,58.09,.08,31.19,.01,62.38,.14,93.57-.11,6.66-.05,7,4.42,8.58,9.41h-185.91Z" fill="#444"/><path d="M403.75,693.88c-.15,10.92-9.54,20.32-20.14,19.83-11.07-.52-19.42-8.48-19.58-19.85-.17-11.37,9.4-20.03,20.61-19.75,10.29,.26,19.26,9.54,19.12,19.78h-.01Zm-11.07,.39c.18-4.3-3.82-8.51-8.4-8.85-4.54-.33-8.93,3.45-9.16,7.9-.22,4.33,4.27,8.87,8.86,8.95,4.07,.07,8.52-4.03,8.69-8.01h.01Z" fill="#444"/><path d="M361.47,621.74c.15-16.08,8.49-25.97,20.89-26.19,11.21-.2,20.51,7.48,22.23,18.74,.55,3.57,.76,7.4,.03,10.87-.42,2-2.78,4.52-4.75,5.05-3.34,.91-3.81-2.18-3.99-4.8-.15-2.15-.33-4.3-.45-6.45-.39-6.83-6.05-13.12-11.9-13.19-6.44-.09-11.29,5.2-11.74,12.93-.15,2.65,.39,5.4-.13,7.95-.44,2.15-1.96,4.09-3.01,6.12-2.27-1.84-5.1-3.32-6.62-5.65-1.11-1.69-.5-4.51-.56-5.38h0Z" fill="#444"/><path d="M126.53,617.78c-8.98,0-17.96,.01-26.93-.02-1.32,0-2.82,.12-3.92-.43-1.44-.72-3.7-2.19-3.59-3.09,.2-1.61,1.59-3.62,3.05-4.39,1.62-.86,3.88-.69,5.86-.69,17.12-.01,34.24,.04,51.36,.07,.5,0,1,.01,1.5,.02,3.09,.06,6.27,1.03,5.86,4.42-.18,1.53-3.67,3.69-5.74,3.78-9.13,.41-18.29,.18-27.44,.18v.14h0Z" fill="#444"/><path d="M302.54,704.92c9.12,0,18.24-.03,27.36,.02,1.64,0,3.45-.05,4.87,.61,1.14,.53,2.3,2.01,2.5,3.22,.15,.92-.98,2.59-1.95,3.03-1.74,.79-3.79,1.23-5.71,1.24-18.08,.06-36.15,0-54.23-.03-1.16,0-2.59,.38-3.43-.15-1.78-1.13-3.26-2.74-4.87-4.16,1.7-1.25,3.37-3.52,5.11-3.58,10.1-.34,20.22-.17,30.34-.17v-.02h.01Z" fill="#444"/><path d="M302.35,609.24c9.48,0,18.96,.03,28.43-.01,3.17-.01,6.61,.19,6.68,4.14,.07,3.94-3.37,4.36-6.53,4.36-18.8,.01-37.59,.02-56.39,.02-1,0-2.3,.26-2.93-.25-1.61-1.32-2.91-3.01-4.34-4.55,1.55-1.22,3.05-3.4,4.65-3.48,8.13-.4,16.29-.26,24.44-.3,1.99-.01,3.99,0,5.98,0v.08h0Z" fill="#444"/><path d="M302.62,665.38c-9.81,0-19.62-.04-29.43,.03-3.11,.02-6.09-.41-5.95-4.2,.13-3.49,3.14-3.74,5.95-3.74,19.45-.01,38.91-.04,58.36-.07,3.08,0,6.16,.59,6.01,4.28-.14,3.34-3.13,3.76-6,3.75-9.64-.04-19.29-.01-28.93-.01v-.03h-.01Z" fill="#444"/><path d="M301.79,697.07c-9.64,0-19.29-.01-28.93,0-2.83,0-6.08-.33-5.64-3.76,.2-1.55,3.6-3.8,5.57-3.83,19.61-.31,39.24-.33,58.85-.07,2.03,.03,4.03,2.37,6.04,3.64-1.99,1.33-3.94,3.74-5.98,3.82-9.96,.4-19.95,.18-29.92,.18v.02Z" fill="#444"/><path d="M301.72,681.29c-9.63,0-19.26-.09-28.88,.05-3.43,.05-5.95-1.3-5.49-4.6,.19-1.34,3.58-3.15,5.53-3.17,19.42-.27,38.84-.22,58.27-.25,2.91,0,6.29,.1,6.21,3.93-.07,3.59-3.26,4.05-6.26,4.05h-29.38Z" fill="#444"/><path d="M125.82,704.75c8.78,0,17.57-.04,26.35,.03,1.79,.01,3.7,.15,5.34,.8,1.01,.4,2.25,1.87,2.23,2.84-.03,1.23-.95,2.94-1.99,3.52-1.5,.83-3.46,1.13-5.22,1.14-17.91,.08-35.82,.05-53.72,.07-3.01,0-5.98-.35-6.19-4.09-.22-4.06,2.86-4.15,5.86-4.14,9.12,.03,18.23,.01,27.35,.01v-.17h0Z" fill="#444"/><path d="M302.01,633.47c-9.62,0-19.25-.03-28.87,.02-2.86,.02-5.7-.22-5.88-3.74-.19-3.66,2.79-4.08,5.56-4.09,19.25-.07,38.5-.1,57.75-.12,.82,0,1.83-.06,2.42,.36,1.67,1.22,3.16,2.69,4.72,4.06-1.78,1.15-3.52,3.25-5.33,3.31-10.11,.32-20.24,.16-30.36,.16v.05h-.01Z" fill="#444"/><path d="M301.74,649.69c-9.15,0-18.3,0-27.45-.01-1.32,0-3.03,.33-3.89-.35-1.38-1.1-2.62-2.79-3.06-4.46-.16-.61,2.02-2.32,3.37-2.71,2.03-.58,4.27-.58,6.42-.59,17.47-.02,34.93,.02,52.4,.04,.5,0,1,.03,1.5,.04,2.91,.06,6.35,.19,6.4,3.88,.05,3.63-3.28,4.09-6.25,4.09-9.82,.03-19.63,0-29.45,0v.07Z" fill="#444"/><path d="M213.19,609.25c9.46,0,18.93-.21,28.38,.18,1.85,.08,4.81,2.26,5.15,3.9,.69,3.41-2.47,4.32-5.25,4.32-18.92,0-37.84-.1-56.76-.19-2.85-.01-5.72-.62-5.65-4.12,.07-3.42,2.88-4.03,5.75-4.04h28.38v-.06h0Z" fill="#444"/><path d="M212.37,681.28c-9.13,0-18.26-.02-27.39,.01-3.11,.01-6.06-.66-6-4.31,.06-3.58,3.19-3.65,5.94-3.65,18.43-.02,36.86-.03,55.28-.05,.33,0,.66-.02,1,0,2.84,.13,5.94,.79,5.3,4.22-.29,1.52-3.37,3.51-5.25,3.58-9.61,.36-19.25,.17-28.88,.17v.04h0Z" fill="#444"/><path d="M125.95,689.27c9.3,0,18.61-.01,27.91,0,2.74,0,5.9,.1,5.98,3.66,.08,3.73-2.99,4.2-6.04,4.2-18.61-.03-37.21-.04-55.82-.04-3.02,0-6-.26-5.85-4.26,.14-3.91,3.27-3.49,5.92-3.49,9.3-.01,18.61,0,27.91,0v-.06h0Z" fill="#444"/><path d="M125.65,657.4c9.13,0,18.26,.05,27.39-.02,3.2-.02,6.59,.22,6.63,4.13,.04,3.73-3.33,3.88-6.29,3.87-18.43-.03-36.86-.08-55.29,0-3.2,.01-6.08-.7-6.1-4.2-.02-3.89,3.34-3.78,6.26-3.77,9.13,.03,18.26,.01,27.4,.01v-.02h0Z" fill="#444"/><path d="M125.97,673.27h27.88c2.77,0,5.81,.18,5.96,3.7,.17,3.78-2.83,4.36-5.89,4.35-18.92-.02-37.83-.07-56.75-.03-3.02,0-5.26-1.33-4.74-4.19,.27-1.48,2.99-3.52,4.67-3.58,9.61-.34,19.25-.17,28.87-.17v-.09h0Z" fill="#444"/><path d="M212.92,665.34c-9.13,0-18.26-.04-27.39,.02-3.16,.02-6.58-.05-6.44-4.18,.13-3.88,3.8-3.67,6.5-3.7,16.25-.13,32.51-.11,48.76-.13,2.49,0,5.16-.54,7.42,.19,1.95,.63,3.42,2.71,5.11,4.15-1.69,1.23-3.35,3.47-5.08,3.53-9.62,.35-19.25,.17-28.88,.17v-.04h0Z" fill="#444"/><path d="M212.76,697.07h-27.94c-2.77,0-5.8-.2-5.89-3.78-.09-3.63,2.99-3.95,5.73-3.96,18.79-.07,37.59-.09,56.38-.11,2.83,0,6.08,.54,5.44,3.98-.3,1.59-3.71,3.58-5.78,3.67-9.3,.4-18.62,.17-27.94,.17v.03h0Z" fill="#444"/><path d="M212.64,633.48h-27.95c-2.84,0-5.64-.3-5.67-3.96-.02-3.54,2.95-3.69,5.41-3.71,18.8-.16,37.6-.33,56.4-.12,2.04,.02,5.6,2.27,5.78,3.79,.43,3.72-3.07,4.01-6.01,4.02-9.32,.02-18.64,0-27.95,0v-.02h0Z" fill="#444"/><path d="M125.58,633.43c-9.31,0-18.61-.01-27.92,0-2.86,0-5.66-.31-5.66-3.97s3.04-3.82,5.74-3.83c18.45-.05,36.89-.06,55.34-.08,.5,0,1.13-.18,1.47,.06,1.87,1.28,3.67,2.66,5.49,4.01-1.85,1.28-3.61,3.46-5.57,3.66-5.1,.53-10.29,.19-15.44,.2h-13.46v-.05h.01Z" fill="#444"/><path d="M212.88,649.54c-8.98,0-17.96,.06-26.94-.04-1.77-.02-3.7-.33-5.25-1.1-.91-.46-1.77-2.14-1.67-3.19,.09-1.01,1.27-2.44,2.27-2.75,2.02-.63,4.24-.84,6.37-.85,17.29-.06,34.58-.04,51.86-.04,.83,0,1.88-.29,2.45,.1,1.72,1.2,3.26,2.67,4.86,4.03-1.68,1.28-3.31,3.59-5.04,3.65-9.63,.36-19.28,.17-28.93,.18h.02Z" fill="#444"/><path d="M125.89,649.58c-8.49,0-16.97,.02-25.46-.02-1.82,0-3.83,.2-5.42-.47-1.26-.53-2.76-2.24-2.79-3.45-.03-1.15,1.5-2.91,2.73-3.4,1.78-.7,3.91-.63,5.89-.64,16.97-.05,33.93-.07,50.9-.04,3.25,0,7.74-.64,7.95,3.79,.24,5.09-4.49,4.25-7.85,4.28-8.65,.08-17.3,.03-25.96,.03v-.07h.01Z" fill="#444"/><path d="M213.33,704.93c8.96,0,17.92-.02,26.88,.01,2.88,0,6.33,.05,6.22,3.91-.1,3.44-3.21,4.22-6.26,4.23-18.41,.03-36.82,.17-55.23-.12-1.94-.03-5.18-2.42-5.49-4.13-.65-3.62,2.86-3.8,5.52-3.82,9.45-.08,18.91-.03,28.36-.03v-.05h0Z" fill="#444"/><path d="M319.81,345.26c-5.13,0-10.28,.32-15.36-.18-1.67-.16-3.13-2.44-4.68-3.75,1.47-1.25,2.91-3.54,4.41-3.59,10.43-.3,20.87-.27,31.29,.06,1.5,.05,2.93,2.29,4.39,3.52-1.55,1.34-3.01,3.66-4.68,3.83-5.08,.51-10.24,.18-15.37,.18v-.08h0Z" fill="#444"/><path d="M363.89,337.52c3.32,0,6.7-.38,9.92,.17,1.51,.25,2.71,2.28,4.06,3.5-1.37,1.42-2.66,3.95-4.12,4.05-6.27,.42-12.61,.38-18.87-.12-1.44-.11-2.68-2.72-4.01-4.18,1.52-1.15,2.91-2.96,4.6-3.31,2.7-.56,5.61-.15,8.43-.15v.04h-.01Z" fill="#444"/><path d="M275.61,345.34c-2.81,0-5.75,.52-8.37-.18-1.73-.46-2.99-2.68-4.46-4.11,1.52-1.16,2.98-3.17,4.59-3.31,5.08-.42,10.26-.51,15.31,.06,1.79,.21,3.32,2.7,4.97,4.15-1.7,1.14-3.26,2.8-5.14,3.3-2.16,.58-4.59,.13-6.9,.13v-.05h0Z" fill="#444"/><path d="M100.26,590.41c2.8,.29,5.37,.21,7.68,.94,1.27,.4,2.85,2.08,2.96,3.3,.11,1.21-1.38,3.64-2.29,3.69-5.34,.34-10.73,.29-16.08-.03-.91-.05-2.48-2.14-2.37-3.13,.14-1.34,1.39-3.23,2.58-3.64,2.45-.83,5.18-.83,7.51-1.13h0Z" fill="#444"/><path d="M165.56,345.62c-1.98,0-4.18,.53-5.87-.16-1.43-.59-3.13-2.61-3.13-3.99,0-1.24,2.02-3.38,3.37-3.57,3.72-.53,7.63-.69,11.33-.1,1.68,.27,4.01,2.51,4.28,4.14,.41,2.53-1.68,4.01-4.52,3.83-1.81-.12-3.63-.02-5.45-.02v-.12h0Z" fill="#444"/><path d="M96.85,402.7c-5.43-.63-7.9-2.6-8.4-6.35-.41-3.14,2.93-6.29,6.29-6.32,3.44-.03,7.44,3.46,6.54,6.55-.74,2.53-3.23,4.55-4.43,6.12h0Z" fill="#444"/><path d="M80.18,409.81c4.09,.18,6.41,2.28,6.51,5.79,.1,3.64-2.5,5.78-6.01,5.81-3.52,.03-6.09-2.05-6.16-5.72-.07-3.73,2.58-5.38,5.65-5.88h0Z" fill="#444"/><path d="M112.85,389.94c-2.76-3.49-5.25-5.36-5.84-7.7-.87-3.45,1.86-5.5,5.1-6.04,3.07-.52,7.43,3.19,6.58,5.89-.75,2.39-3.08,4.28-5.84,7.85h0Z" fill="#444"/><path d="M86.05,543.14c5.32,.28,7.8,2.01,7.9,5.78,.1,3.72-2.55,5.36-5.85,5.36s-6.27-1.92-5.88-5.31c.27-2.32,2.81-4.38,3.82-5.83h.01Z" fill="#444"/><path d="M513.9,368.21c-2.77-3.49-5.45-5.4-5.79-7.66-.5-3.3,2.28-5.55,5.66-5.38,3.18,.16,6.14,2.02,5.48,5.59-.4,2.18-2.76,3.99-5.34,7.45h0Z" fill="#444"/><path d="M423.42,720.6c-2.4-3.12-4.68-4.9-5.03-7-.2-1.21,2.96-4.35,4.15-4.13,2.11,.39,4.83,2.37,5.45,4.27,.42,1.31-2.3,3.63-4.57,6.86Z" fill="#444"/><path d="M389.73,650.59c-2.49,2.66-3.79,5.33-5.41,5.53-3.34,.42-3.82-2.76-3.34-5.18,.36-1.85,1.91-3.46,2.93-5.18,1.59,1.31,3.18,2.63,5.83,4.83h0Z" fill="#444"/><path d="M131.42,594.52c-2.92,1.87-4.54,3.74-5.92,3.57-1.63-.2-3.05-2.15-4.56-3.35,1.3-1.18,2.56-3.25,3.92-3.32,1.67-.08,3.42,1.51,6.56,3.09h0Z" fill="#444"/><path d="M506.85,335.65c2.05,2.49,3.27,3.98,4.5,5.47-1.5,1.23-2.91,3.27-4.52,3.43-1.23,.13-3.81-2.11-3.8-3.29,0-1.54,1.97-3.07,3.82-5.62h0Z" fill="#444"/><path d="M420.23,325.48c-2.25-1.82-3.88-3.14-5.52-4.47,1.9-1.2,3.69-2.98,5.74-3.36,1.03-.19,3.4,2.07,3.55,3.41,.13,1.13-2.06,2.53-3.78,4.42h.01Z" fill="#444"/><path d="M548.32,335.67c1.92,2.35,4.16,4,3.91,5.04-.39,1.63-2.48,2.85-3.84,4.25-1.35-1.38-3.42-2.59-3.8-4.21-.25-1.07,1.9-2.71,3.74-5.08h0Z" fill="#444"/><path d="M140.8,337.84c1.73,2.33,3.78,4.12,3.45,4.85-.71,1.59-2.51,3.42-4.09,3.65-1.29,.19-2.9-1.8-4.36-2.82,1.36-1.55,2.73-3.1,5-5.68Z" fill="#444"/><path d="M531.68,340.6c-2.83,1.81-4.43,3.64-5.67,3.42-1.45-.25-2.58-2.29-3.85-3.56,1.3-1.18,2.51-3.13,3.94-3.31,1.28-.16,2.81,1.63,5.58,3.46h0Z" fill="#444"/><path d="M85.36,461.09c-2.82,1.63-4.51,3.33-5.48,2.99-1.48-.51-2.46-2.45-3.65-3.78,1.15-.95,2.38-2.75,3.44-2.66,1.51,.14,2.91,1.65,5.69,3.44h0Z" fill="#444"/><path d="M534.13,374.4c1.83,2.31,3.59,3.63,3.82,5.18,.14,.9-2.34,3.22-3.31,3.04-1.51-.27-3.38-1.91-3.85-3.37-.3-.92,1.68-2.57,3.33-4.85h0Z" fill="#444"/><path d="M596.66,507.53c13.08-10.21,25.79-20.11,38.48-30.03,1.7-1.33,3.85-2.45,4.86-4.2,1.2-2.08,2.39-5.09,1.71-7.04-.59-1.69-4.01-3.73-5.79-3.41-3.74,.66-7.71,2.13-10.74,4.39-11.72,8.74-23.1,17.92-34.62,26.92-.63,.5-1.35,.89-3.1,2.05-1.6-5.47-3.57-10.32-4.42-15.37-7.15-42.62,30.85-66.62,60.86-60.38,36.43,7.59,53.1,52.74,29.84,81.75-3.19,3.97-8.52,6.26-12.94,9.2-2.75,1.83-6.41,2.84-8.33,5.26-4.58,5.76-10.75,7.02-17.27,7.32-13.86,.63-26.3-3.02-36.23-13.28-.67-.7-1.16-1.58-2.3-3.18h-.01Zm60.43-60.52c-4.76,.13-11.6,5.02-12.49,8.26-.99,3.62-.36,6.47,4,7.55,4.13,1.02,10.87-1.66,12.83-6.09,.79-1.78,.65-4.59-.24-6.34-.89-1.74-3.25-2.72-4.1-3.38h0Zm-29.6-7.62c-.19-4.33-5.79-9.99-8.39-9.07-1.86,.66-4.21,2.8-4.45,4.54-.46,3.37,4.56,8.17,7.69,7.59,2.04-.38,3.81-2.22,5.15-3.06Zm-32.11,8.55c2.66,3.64,4.71,7.01,7.38,9.77,.95,.98,3.52,.85,5.18,.48,.64-.15,1.41-2.56,1.08-3.63-.83-2.7-9.42-6.94-13.64-6.62Zm66.01,41.55c-3.34-2.22-5.28-3.79-7.49-4.74-.44-.19-2.92,2.72-2.73,2.99,1.15,1.67,2.61,3.49,4.38,4.22,1.02,.42,2.84-1.12,5.84-2.47h0Zm-25,8.19c-1.73,2.36-3.67,4.17-3.35,4.76,.85,1.59,2.51,3.14,4.19,3.73,.69,.24,3.37-2.26,3.19-3.1-.35-1.62-2.08-2.95-4.03-5.39Z" fill="#e4d6a7"/><path d="M325.81,459.95c0-3.76,.07-7.08-.02-10.4-.08-2.82,1.37-4.35,3.9-3.63,1.33,.38,2.92,2.3,3.12,3.71,.46,3.23,.15,6.58,.15,10.35h26.78v-13.17h10.25v13.28h24.18c0-3.59-.3-7.22,.15-10.76,.17-1.33,2.08-3.38,3.2-3.38,1.27,0,3.46,1.8,3.63,3.04,.5,3.54,.17,7.19,.17,11.08h23.01c0-3.87,.14-7.48-.05-11.09-.14-2.67,1.04-4.01,3.45-3.31,1.48,.43,2.63,2.05,3.88,3.19,.16,.15,0,.64,0,.97,.23,7.09,3.87,10.62,10.92,10.6h11.5c0-3.99,.14-7.44-.04-10.87-.16-2.92,1.28-3.79,3.86-3.87,2.9-.09,3.74,1.37,3.63,4.03-.14,3.3-.03,6.61-.03,10.32h23.79v-13.3h7.29v13.34h23.49c0-3.28,.06-6.7-.02-10.11-.06-2.54,.69-4.13,3.57-4.27,3.32-.17,3.28,2.05,3.3,4.28,.03,3.28,0,6.57,0,10.01,3.16,.32,5.6,.56,8.47,.85v7.68h-162.55v15.59c-2.41,.14-4.32,.25-6.81,.4v-15.51h-79.75v59.35h-7.19v-59.49c-2.02-.1-3.6-.25-5.18-.25-46.6,0-93.2,0-139.8,.02-7.45,0-7.45,.04-6.78-8.04h14.56v-13.72h7.07v13.18h24.4c0-3.3,.19-6.72-.06-10.12-.18-2.52,.53-3.8,3.13-3.92,2.59-.12,4.15,.7,4.07,3.63-.09,3.31-.02,6.62-.02,10.36h25.1v-12.89c7.2-1.27,7.36-1.15,7.38,4.86v7.95h24.49c0-1.8-.29-3.79,.07-5.66,.59-3.09-2.42-8.48,3.69-8.41,5.54,.06,3.05,5.12,3.49,8.16,.28,1.91,.05,3.89,.05,6.13h23.15c0-3.21,.16-6.32-.04-9.41-.2-3.11,.42-5.24,4.1-5.18,3.47,.06,3.32,2.44,3.35,4.88,.04,3.14,.27,6.28,.45,9.95,6.76,0,13.22,.09,19.66-.11,.8-.02,2.03-1.51,2.21-2.47,.36-1.93,.11-3.98,.13-5.97,.05-5.8,.31-6,6.94-5v13.12h25.16Z" fill="#e4d6a7"/><path d="M575.47,497.69c-9.87,2.13-10.5,1.72-13.38-7.81-11.03-36.47,10.63-83.66,55.97-92.14,42.44-7.93,78.01,15.86,87.05,58.44,4.76,22.44,.34,43.28-14.76,61.24-1.84,2.19-3.96,4.39-6.5,1.62-2.12-2.31-4.9-4.54-1.56-8.83,28.31-36.35,10.4-90.58-33.17-100.48-24.45-5.55-46.34,.27-63.11,18.99-16.65,18.59-19.5,40.8-12.06,64.43,.44,1.39,.93,2.76,1.52,4.53h0Z" fill="#e4d6a7"/><path d="M595.21,665.12c-.27-26.85,15.89-47.62,38.74-51.83,26.88-4.95,50.64,7.24,59.29,31.2,6.11,16.92,4.15,33.82-7.23,47.57-8.19,9.88-18.79,18.5-32.64,20.09-14.11,1.62-27.38-.81-38.82-10.05-12.44-10.04-20.02-22.44-19.33-36.97h0Zm48.11,37.49c23.55,.52,42.09-15.98,41.66-38.15-.47-24.05-18.46-38.44-37.57-39.41-19.83-1.01-40.54,14.47-40.93,38.45-.35,21.54,15.75,38.64,36.84,39.11Z" fill="#e4d6a7"/><path d="M516.01,612.24c5.89,.56,11.78,1.12,17.67,1.7,.48,.05,1.05,.18,1.39,.48,11.63,10.42,24.59,19.48,28.73,36.21,7.39,29.8-15.07,60.83-45.68,61.62-11.88,.31-22.27-3.8-31.97-11.39-13.17-10.31-19.28-23.31-19.26-39.45,.02-27.37,22.13-49.3,49.12-49.18h0Zm-.83,13.12c-21.09,.24-37.01,17.64-36.71,40.15,.28,21.16,16.94,37.21,38.29,36.87,21.47-.34,37.66-17.16,37.51-38.97-.15-21.46-17.45-38.29-39.09-38.04h0Z" fill="#e4d6a7"/><path d="M570.2,509.91c7.56-1.42,12.42,.72,17.28,5.97,16.77,18.09,37.69,23.01,61.38,17.11,4.99-1.24,8.6,.54,9.17,5.61,.16,1.37-2.62,4.17-4.36,4.47-8.6,1.48-17.35,3.51-25.98,3.21-23.3-.81-41.4-11.8-54.65-30.87-1.09-1.57-1.79-3.42-2.84-5.49h0Z" fill="#e4d6a7"/><path d="M678.93,542.94c1.77,1.06,3.6,2.15,5.94,3.54,2.12-2.01,4.26-4.25,6.62-6.23,1.85-1.55,4-2.73,5.95-4.17,1.27-.94,2.48-1.98,3.58-3.12,1.71-1.78,3.11-3.93,5.04-5.4,.95-.72,3.46-.87,4.08-.19,.97,1.06,1.81,3.79,1.19,4.52-6.87,8.05-13.85,16.04-21.31,23.53-1.24,1.24-5.14,.56-7.46-.24-1.84-.64-3.17-2.8-4.67-4.33-3.76-3.82-3.65-4.66,1.06-7.91h-.02Z" fill="#e4d6a7"/><path d="M342.11,511.54h-23.03c-6.8,0-13.6,.17-20.39-.17-1.2-.06-3.17-2.2-3.2-3.41-.03-1.3,1.81-3.76,2.86-3.78,13.42-.21,26.85-.16,40.28,.02,5.18,.07,3.66,3.78,3.47,7.34h.01Z" fill="#e4d6a7"/><path d="M427.57,511.41c-13.88,0-27.1,.07-40.32-.16-.9-.02-2.47-2.39-2.43-3.62,.04-1.18,1.75-3.29,2.76-3.31,12.27-.21,24.54-.22,36.81-.02,4.72,.08,2.71,3.84,3.18,7.11Z" fill="#e4d6a7"/><path d="M482.96,511.59c-.78-7.26-.61-7.49,5.41-7.49,9.12,0,18.25,0,27.37,.04,1.78,0,3.55,.19,5.22,.28,1.16,7.09,1.01,7.22-5.45,7.19-10.75-.05-21.5-.01-32.55-.01h0Z" fill="#e4d6a7"/><path d="M258.36,511.53c-10.3,0-20.18,.12-30.05-.18-1.08-.03-2.72-2.45-2.9-3.91-.13-1.04,1.74-3.32,2.75-3.35,9.09-.2,18.21-.28,27.29,.15,4.94,.23,2.59,4.13,2.9,7.29h0Z" fill="#e4d6a7"/><path d="M208.77,511.35h-33.75v-7.09c10.19,0,20.13-.11,30.07,.05,4.56,.07,3.93,3.49,3.68,7.04Z" fill="#e4d6a7"/><path d="M679.68,528.53c-.03,4.45-3.9,6.97-6.92,5.07-3.35-2.12-6.51-4.61-9.48-7.25-3.43-3.05-3.4-6.13-.09-9.22,2.96-2.77,5.74-1.85,8.2,.87,2.35,2.58,4.73,5.13,6.95,7.82,.79,.96,1.14,2.28,1.35,2.72h-.01Z" fill="#e4d6a7"/><path d="M306.85,429.78c.04,5.15-2.63,8.39-6.99,8.47-4.3,.08-7.15-2.99-7.2-7.73-.05-5.17,3.06-8.94,7.32-8.88,3.88,.06,6.83,3.56,6.87,8.14Z" fill="#e4d6a7"/><path d="M666.66,378.78c-1.02-4.99,.21-7.19,4.85-6.97,6.43,.31,12.89,.15,19.29,.7,1.55,.13,2.93,2.26,4.39,3.47-1.52,.94-3.02,2.62-4.57,2.68-7.89,.28-15.8,.13-23.96,.13h0Z" fill="#e4d6a7"/><path d="M491.55,429.66c-.02-4.62,2.9-8.05,6.93-8.13,4.05-.08,7.27,3.66,7.27,8.44s-3.03,8.2-6.92,8.23c-3.87,.03-7.26-3.94-7.28-8.54Z" fill="#e4d6a7"/><path d="M224.26,421.59c3.95,.07,7.45,4.03,7.5,8.49,.05,4.47-3.03,7.8-7.26,7.84-4.26,.04-7.62-3.7-7.42-8.25,.2-4.58,3.38-8.15,7.19-8.08h0Z" fill="#e4d6a7"/><path d="M158.99,429.99c.02,4.39-3.08,8.08-6.91,8.22-3.98,.15-7.14-3.27-7.19-7.8-.06-4.72,3.05-8.75,6.86-8.88,3.85-.14,7.22,3.8,7.25,8.46h0Z" fill="#e4d6a7"/><path d="M376.59,438.12c-3.95,.06-7.1-3.4-7.2-7.91-.11-4.95,2.83-8.65,6.89-8.67,4.05-.03,7.4,3.8,7.34,8.39-.06,4.4-3.26,8.13-7.03,8.19Z" fill="#e4d6a7"/><path d="M144.81,511.49c-3.15,0-6.31-.09-9.45,.03-2.86,.11-3.72-1.2-3.69-3.92,.03-2.63,1.12-3.48,3.61-3.44,6.31,.09,12.62,.12,18.93-.01,3.01-.07,3.57,1.43,3.57,4.01s-.9,3.62-3.52,3.49c-3.14-.15-6.3-.04-9.45-.04v-.11h0Z" fill="#e4d6a7"/><path d="M634.15,378.55c-2.81,0-5.64,.24-8.41-.11-1.28-.16-2.41-1.46-3.61-2.24,1.08-1.43,2.1-4.02,3.26-4.09,6.25-.36,12.55-.23,18.81,.12,.82,.05,2.16,2.33,2.08,3.5-.06,1.05-1.65,2.72-2.73,2.85-3.09,.39-6.26,.14-9.4,.14v-.18h0Z" fill="#e4d6a7"/><path d="M454.47,511.57c-1.82,0-3.64-.12-5.45,.03-2.72,.21-4.52-.42-4.48-3.62,.03-2.89,1.24-4.14,4.24-3.97,4.12,.24,8.26,.33,12.38,.22,2.94-.08,3.63,1.46,3.77,3.92,.17,2.99-1.46,3.63-4.01,3.49-2.14-.12-4.29-.02-6.44-.02v-.05h0Z" fill="#e4d6a7"/><path d="M210.64,431.82c1.14,2.24,1.84,3.6,2.83,5.55h-12.59c2.54-3.84,4.52-6.82,6.17-9.32-1.54-1.36-2.78-2.44-4.01-3.53,1.77-.97,4.21-3.16,5.17-2.64,1.94,1.06,3.73,3.41,4.31,5.58,.38,1.43-1.44,3.46-1.87,4.36h-.01Z" fill="#e4d6a7"/><path d="M360.02,427.06l-4.94-.77c.77-3.73,2.81-5.39,6.35-4.28,4.01,1.26,4.46,4.87,1.73,10.61,.94,1.45,1.79,2.76,3.1,4.78h-12.78c2.38-3.76,4.26-6.73,6.54-10.34h0Z" fill="#e4d6a7"/><path d="M484.48,432.05c.94,2.07,1.56,3.44,2.4,5.29h-12.07c2.53-3.59,4.41-6.26,5.97-8.47-1.5-1.45-2.81-2.73-4.13-4.01,1.88-1.08,4.16-3.37,5.55-2.92,1.77,.57,3.51,3.2,3.98,5.24,.37,1.58-1.22,3.62-1.71,4.87h.01Z" fill="#e4d6a7"/><path d="M658.79,379.06c-2.09-.12-4-.23-6.18-.35v-12.97c6.68-1.17,6.78-1.1,6.76,5.19,0,2.15-.02,4.31-.05,6.46,0,.31-.19,.62-.53,1.67Z" fill="#e4d6a7"/><path d="M716.13,403.85c-2.73-3.45-4.88-5.78-6.38-8.48-.22-.4,3.47-3.88,3.91-3.61,2.46,1.52,4.9,3.5,6.4,5.91,.46,.74-2.05,3.33-3.94,6.18h.01Z" fill="#e4d6a7"/><path d="M139.07,437.4h-3.84c-.23-4.45-.66-8.73-.57-12.99,.03-1.45,1.33-2.88,2.05-4.32,.79,.51,1.57,1.02,2.36,1.53v15.78Z" fill="#e4d6a7"/><path d="M287.49,420.84c.3,5.51,.65,9.96,.7,14.41,0,.79-1.22,2.26-1.82,2.23-1.02-.05-2.78-.94-2.86-1.64-.46-3.93-.79-7.93-.5-11.86,.07-1,2.54-1.83,4.49-3.13h-.01Z" fill="#e4d6a7"/><path d="M364,502.97c3.94,.71,5.86,1.42,5.67,4.95-.16,3.06-1.19,4.52-4.44,4.53-3.92,.01-4.45-2.46-3.93-5.26,.28-1.52,1.76-2.82,2.7-4.22h0Z" fill="#e4d6a7"/><path d="M702.07,389.29c-.88-1.4-2.42-2.76-2.49-4.2-.16-3.27,1.98-5.46,5.18-5.28,1.34,.08,3.83,2.72,3.58,3.44-.78,2.28-2.6,4.19-4.02,6.25-.75-.07-1.5-.15-2.25-.22h0Z" fill="#e4d6a7"/><path d="M672.85,568.06c-1.55-.78-2.89-1.23-2.86-1.48,.26-1.89,.2-4.46,1.38-5.46,1.86-1.56,4.61-2.08,7.01-2.93,.08-.03,.95,1.32,.79,1.55-2.03,2.82-4.19,5.55-6.33,8.32h.01Z" fill="#e4d6a7"/><path d="M711.54,615.19c-1.59-2.62-3.21-4.12-3.1-5.47,.1-1.22,2.46-3.42,3.19-3.19,1.69,.54,3,2.28,4.46,3.54-1.18,1.33-2.36,2.66-4.54,5.12h-.01Z" fill="#e4d6a7"/><path d="M536.87,595.13c1.53,2.62,3.13,4.14,2.9,5.29-.27,1.34-2.15,2.36-3.33,3.52-1.07-1.24-2.88-2.41-2.99-3.73-.1-1.21,1.63-2.57,3.41-5.08h.01Z" fill="#e4d6a7"/><path d="M392.68,694.28c-.17,3.98-4.62,8.08-8.69,8.01-4.59-.08-9.08-4.63-8.86-8.95,.23-4.45,4.61-8.23,9.16-7.9,4.58,.33,8.58,4.55,8.4,8.85h-.01Z" fill="#e4d6a7"/><path d="M657.09,447.01c.85,.66,3.21,1.64,4.1,3.38,.89,1.74,1.03,4.55,.24,6.34-1.97,4.43-8.7,7.11-12.83,6.09-4.36-1.07-4.99-3.93-4-7.55,.89-3.24,7.73-8.14,12.49-8.26h0Z" fill="#444"/><path d="M627.49,439.4c-1.34,.84-3.11,2.68-5.15,3.06-3.13,.58-8.15-4.22-7.69-7.59,.24-1.74,2.59-3.89,4.45-4.54,2.59-.92,8.19,4.74,8.39,9.07Z" fill="#444"/><path d="M595.38,447.95c4.22-.31,12.81,3.93,13.64,6.62,.33,1.06-.44,3.48-1.08,3.63-1.66,.38-4.23,.51-5.18-.48-2.68-2.76-4.72-6.14-7.38-9.77Z" fill="#444"/><path d="M661.39,489.5c-2.99,1.35-4.82,2.89-5.84,2.47-1.78-.73-3.23-2.55-4.38-4.22-.19-.28,2.29-3.18,2.73-2.99,2.21,.94,4.14,2.52,7.49,4.74h0Z" fill="#444"/><path d="M636.4,497.7c1.95,2.44,3.68,3.77,4.03,5.39,.18,.84-2.5,3.34-3.19,3.1-1.68-.59-3.34-2.13-4.19-3.73-.32-.59,1.63-2.4,3.35-4.76Z" fill="#444"/><path d="M643.32,702.62c-21.09-.46-37.19-17.56-36.84-39.11,.39-23.98,21.09-39.46,40.93-38.45,19.11,.97,37.1,15.36,37.57,39.41,.43,22.17-18.11,38.67-41.66,38.15Zm2.68-65.56c-15.54-.79-28.07,11.54-28.2,27.15-.14,15.47,12.73,28.06,27.9,27.76,15.78-.31,27.98-13.2,27.58-29.15-.37-14.64-12.52-26.12-27.27-25.75h-.01Z" fill="#444"/><path d="M515.18,625.35c21.65-.25,38.95,16.59,39.09,38.04,.15,21.81-16.04,38.64-37.51,38.97-21.35,.34-38.02-15.71-38.29-36.87-.3-22.5,15.62-39.9,36.71-40.15h0Zm1.43,66.14c14.2,.03,25.84-12.5,25.85-27.85,.01-14.74-11.89-26.37-27.06-26.43-13.27-.05-25.45,12.02-25.62,25.37-.2,16.56,11.21,28.86,26.82,28.9h.01Z" fill="#444"/><path d="M645.99,637.06c14.74-.37,26.9,11.11,27.27,25.75,.4,15.95-11.79,28.84-27.58,29.15-15.17,.3-28.03-12.29-27.9-27.76,.14-15.6,12.67-27.93,28.2-27.15h.01Zm1.47,24.96h.04c0-1.16,.34-2.47-.08-3.45-.67-1.57-1.84-2.92-2.79-4.36-1.38,1.29-3.58,2.37-3.95,3.9-.64,2.66-.54,5.67,.02,8.38,.28,1.35,2.23,2.36,3.43,3.53,1.11-1.18,2.61-2.18,3.22-3.58,.55-1.25,.12-2.94,.12-4.43h0Z" fill="#e4d6a7"/><path d="M516.61,691.48c-15.61-.04-27.03-12.34-26.82-28.9,.16-13.36,12.35-25.42,25.62-25.37,15.16,.06,27.07,11.69,27.06,26.43-.01,15.35-11.65,27.88-25.85,27.85h-.01Zm3.92-28.24l-1.28-.68c0-1.49,.52-3.27-.12-4.39-.9-1.57-2.66-2.65-4.06-3.93-1.09,1.36-2.57,2.57-3.16,4.12-.48,1.25,.09,2.92,.25,4.39,.33,3.1-.8,7.66,4.18,7.17,1.6-.16,2.81-4.33,4.2-6.67h-.01Z" fill="#e4d6a7"/><path d="M647.46,662.01c0,1.49,.43,3.18-.12,4.43-.61,1.39-2.11,2.4-3.22,3.58-1.2-1.17-3.15-2.18-3.43-3.53-.55-2.71-.66-5.72-.02-8.38,.37-1.53,2.57-2.62,3.95-3.9,.96,1.44,2.13,2.79,2.79,4.36,.42,.98,.08,2.29,.08,3.45h-.03Z" fill="#444"/><path d="M520.54,663.25c-1.39,2.34-2.6,6.51-4.2,6.67-4.98,.49-3.85-4.07-4.18-7.17-.15-1.48-.72-3.14-.25-4.39,.59-1.55,2.07-2.76,3.16-4.12,1.39,1.29,3.16,2.36,4.06,3.93,.64,1.12,.12,2.91,.12,4.39l1.28,.68h.01Z" fill="#444"/></g></g></svg>