<?xml version="1.0" encoding="UTF-8"?><svg id="a" xmlns="http://www.w3.org/2000/svg" viewBox="0 0 789.43 1072.5"><g id="b"><g id="c"><g id="d"><g><g><path d="M721.25,912.49c0,27.42,.19,54.85-.18,82.28-.28,19.81-13.08,38.39-30.61,43.81-6.58,2-13.9,2.1-20.96,2.1-41.63,.19-83.93,.09-124.92,.09s-81.99-.19-122.98-.19c-59.36,0-118.72,.19-178.07,.19-40.71,0-81.34-.28-122.05-.38-6.49,0-12.99,.77-19.39,0-17.9-2.19-29.4-13.43-37.1-29.33-3.8-7.91-4.92-16.48-4.92-25.33,0-94.76-.09-189.61,.1-284.37,.1-26.38,20.68-49.23,46.65-52.66,2.41-.28,5.74-2,6.58-3.91,4.18-10.09,11.78-12.28,21.61-12.19,39.69,.28,79.29,.09,118.99,.09,42.66,0,85.42,0,128.16-.09,2.23,0,4.83-.86,6.5-2.28,.74-.67,.09-3.91-.75-5.43-.74-1.24-2.77-2.28-4.17-2.28-21.99,0-43.87,.37-65.76,.37-28.29,.1-56.48-.19-84.76-.19-17.99,0-35.99,.19-53.98,.19h-63.34c3.61-4.96,7.61-7.51,12.1-8.48,1.62-.35,3.31-.49,5.06-.46,17.46-.19,35.01-.29,52.45-.29,6.26,.83,12.55,.77,18.74,.01,33.99,.02,67.98,.09,101.96,.09,62.13,.09,124.37,.09,186.5,.09,45.26,0,90.43-.09,135.68-.09,4.86,0,9.68-.03,14.48,0,3.37,.02,6.74,.07,10.1,.19,6.49,.19,11.96,2.67,17.16,8.85h-240.02v10h24.48c66.32,0,132.72,.1,199.03-.09,7.79,0,13.16,2.57,15.95,10,1.49,4.1,4.08,6.01,8.34,6.86,26.9,5.05,42.67,27.15,43.13,53.43,.46,23.53,0,47.05,0,70.56v72.1c0,22.28,.18,44.48,.18,66.76Z" fill="#e24040"/><path d="M658.85,612.32c15.22,1.3,25.87,8.56,31.56,23.37,1.68,4.37,6.26,8.57,10.55,10.99,20.37,11.55,33.81,28.13,37.82,51.23,1.4,8.1,.66,16.58,.84,24.87,.1,8.28,.1,16.67,.1,24.96,.09,11.27,.18,22.54,.18,33.71v21.04h7.19c7.84,.1,12.05,4.38,12.05,12.12v41.81c0,8.66-3.74,12.48-12.42,12.39-2.15,0-4.29-.18-7.28-.37v17.42c0,4.28,.18,8.57,.09,12.85-.09,3.35,.75,5.31,4.68,4.85,2.42-.28,4.94-.19,7.47,0,6.16,.37,10.08,3.73,10.18,9.86,.28,15.19,.28,30.27,.18,45.45,0,4.65-4.85,8.19-10.64,8.38-3.55,.09-7.11,0-11.02,0,0,7.54-.19,14.71,0,21.98,.65,18.9-3.46,39.58-17.65,51.78-24.38,20.96-54.45,17.61-77.89,17.05-10.74-.47-23.26-.19-33.99-.28-26.43,0-52.95,0-79.47-.09-48.1-.19-96.29-.47-144.38-.47-27.64,0-55.29,.66-82.93,.75-40.06,.1-80.22-.46-120.28,0-21.02,.28-42.12,1.12-63.13,1.87-18.3,.65-36.24-5.68-50.05-17.7-.65-.46-1.5-1.21-2.33-1.96-13.73-14.71-21.48-31.47-21.11-52.24,.65-42.75,.19-85.5,.19-128.25,0-1.21-.19-2.42-.37-4.37h-10.18c-6.44-.1-11.68-4.85-11.77-11.28-.18-20.86-.18-41.81-.09-62.67,0-5.97,4.2-10.16,10.26-10.62,3.83-.28,7.66-.09,12.15-.09v-34.92c.1-11.27-.75-22.73,.46-33.9,2.62-24.68,16.16-42.38,37.73-54.11,7.29-4.01,13.08-8.75,16.81-16.58,4.94-10.58,13.99-16.51,25.24-18.85l.41,2.21c-4.48,.97-8.49,3.52-12.1,8.48h63.34c17.99,0,35.99-.19,53.98-.19,28.29,0,56.48,.29,84.76,.19,21.89,0,43.77-.37,65.76-.37,1.39,0,3.43,1.04,4.17,2.28,.84,1.52,1.49,4.77,.75,5.43-1.67,1.42-4.27,2.28-6.5,2.28-42.75,.09-85.5,.09-128.16,.09-39.7,0-79.3,.19-118.99-.09-9.83-.09-17.44,2.1-21.61,12.19-.84,1.91-4.17,3.62-6.58,3.91-25.97,3.43-46.56,26.28-46.65,52.66-.18,94.76-.1,189.61-.1,284.37,0,8.85,1.11,17.43,4.92,25.33,7.7,15.9,19.2,27.14,37.1,29.33,6.39,.77,12.9,0,19.39,0,40.71,.1,81.34,.38,122.05,.38,59.36,0,118.72-.19,178.07-.19,40.99,0,81.98,.19,122.98,.19s83.29,.1,124.92-.09c7.06,0,14.38-.1,20.96-2.1,17.53-5.42,30.33-24,30.61-43.81,.37-27.42,.18-54.85,.18-82.28,0-22.28-.18-44.48-.18-66.76v-72.1c0-23.51,.46-47.04,0-70.56-.46-26.28-16.23-48.38-43.13-53.43-4.26-.85-6.86-2.76-8.34-6.86-2.78-7.42-8.16-10-15.95-10-66.32,.19-132.72,.09-199.03,.09h-24.48v-10h240.02c-5.19-6.19-10.67-8.66-17.16-8.85-3.36-.12-6.73-.17-10.1-.19v-1.7c.18,0,.36,0,.55-.01,5.14-.27,10.27-.18,15.41,.19Zm88.56,322.07v-13.24c0-11.33-.1-11.33-11.13-10.57-.28,.19-.56,.38-1.39,.77v13.24c0,8,3.8,11.52,11.6,10.47,.09,0,.28-.19,.92-.67Zm-12.52,19.62l12.52,.1c-.56-3.15-.46-7.34-1.57-7.81-2.97-1.04-6.77-1.14-9.74-.09-1.11,.38-.84,4.95-1.21,7.8Zm9.37-122.47c0-6.86,.18-13.43-.19-20,0-1.04-1.85-2.67-3.05-2.95-1.86-.47-3.9-.09-5.85-.09l.1,23.04h9Zm-.56,20.95c1.57-10.28-.19-12.19-8.63-9.24v9.24h8.63Zm-696.88-12.47l1.11-1.43c-.65-2.19-.84-5.91-1.95-6.19-2.69-.76-5.93,0-8.8,.58-.47,.09-.65,4.38-.19,4.57,3.06,1.04,6.49,1.71,9.83,2.47Zm.46-19.14c.65-8.29,.37-8.48-10.1-7.05v7.05h10.1Zm0-19.05v-7.33h-10.48v7.33h10.48Zm-.18-19.04v-7.52c-10.2-2-11.13-1.33-9.92,7.52h9.92Z" fill="#e24040"/><path d="M559.59,597.33c6.14,.01,12.27,.04,18.41,.06-.94,.03-1.88,.09-2.82,.15-.84,.09-1.57,1.81-2.31,2.76,.92,.77,1.76,2.1,2.69,2.19,4.36,.1,8.8,0,13.26,0,.37-.37,.84-.76,1.21-1.14-.84-1.33-1.49-3.72-2.42-3.81-.64-.06-1.28-.11-1.92-.14,3.01,.01,6.01,.01,9.01,.01,2.43,0,4.85-.02,7.28-.04-1.37,.26-2.05,1.07-2.05,2.55,0,.73,.16,1.61,.49,2.67,4.64,0,9.28,.09,13.83-.1,1.2-.09,2.41-1.14,3.61-1.81-1.11-1.05-2.13-2.86-3.33-3.05-1.98-.26-3.99-.32-6.01-.33,5.02-.05,10.03-.08,15.05,.02,3.27,.09,7.01,.46,9.62,2.14,2.15,1.39,3.74,4.65,4.39,7.35,.81,3.38,1.69,5.32,5.35,5.32v1.7c-4.81-.03-9.63,0-14.49,0-45.25,0-90.42,.09-135.68,.09-62.13,0-124.37,0-186.5-.09-33.98,0-67.97-.07-101.96-.09,4.73-.58,9.41-1.55,13.97-2.87,.74,.57,1.59,.98,2.34,.98,9.34,.18,18.77,.09,28.1,.09h70.7c20.27,0,40.44,.09,60.7,.09,24.28,0,48.57-.18,72.85-.18,20.36,0,40.81,.09,61.16,.09h21.76c.29-1.68,.47-2.71,.66-3.73,1.49-7.92,4.85-10.89,12.98-10.89,1.89,0,3.78,0,5.67,.01-.82,.06-1.62,.13-2.43,.21-.84,.09-1.95,1.62-2.05,2.57,0,.67,1.39,2.09,2.23,2.09,3.15,.38,6.39,.19,11.41,.19-1.39-2.38-2.04-4.66-2.97-4.86-.58-.1-1.17-.17-1.77-.21Z" fill="#e24040"/><path d="M186.3,613.73c5.99,0,11.97,0,17.96,.01-6.19,.76-12.48,.82-18.74-.01h.78Z" fill="#e24040"/><path d="M173.62,611.95l.54-.38c-.07-.13-.12-.27-.17-.41,3.8,1.22,7.66,2.07,11.53,2.57-17.45,0-35,.1-52.45,.29-1.75-.03-3.44,.11-5.06,.46l-.41-2.21c.23-.06,.47-.1,.71-.15,2.62-.46,4.21-1.39,3.93-4.47-.18-3.16,1.78-4.19,4.76-4.19,7.57,.1,15.22,0,22.78-.09,3.55-.09,6.16,.75,8.12,4.01,1.12,1.95,3.27,3.44,4.95,5.12l.77-.55Z" fill="#e24040"/></g><path d="M789.17,915.25c-.1-6.6-4.3-10.2-10.9-10.6-2.7-.2-5.4-.3-8,0-4.2,.5-5.1-1.6-5-5.2,.1-4.6-.1-9.2-.1-13.8v-18.7c3.2,.2,5.5,.4,7.8,.4,9.3,.1,13.3-4,13.3-13.3v-44.9c0-8.3-4.5-12.9-12.9-13h-7.7v-22.6c0-12-.1-24.1-.2-36.2,0-8.9,0-17.9-.1-26.8-.2-8.9,.6-18-.9-26.7-4.3-24.8-18.7-42.6-40.5-55-4.6-2.6-9.5-7.1-11.3-11.8-6.1-15.9-17.5-23.7-33.8-25.1-5.5-.4-11-.5-16.5-.2-4.4,.2-5.4-1.9-6.3-5.7-.7-2.9-2.4-6.4-4.7-7.9-2.8-1.8-6.8-2.2-10.3-2.3-10.3-.2-20.6,.1-30.9,.1-16.1,0-32.3-.1-48.4-.1-8.7,0-12.3,3.2-13.9,11.7-.2,1.1-.4,2.2-.7,4h-23.3c-21.8,0-43.7-.1-65.5-.1-26,0-52,.2-78,.2-21.7,0-43.3-.1-65-.1h-75.7c-10,0-20.1,.1-30.1-.1-.8,0-1.72-.44-2.51-1.05-15.2,4.39-31.65,5.37-47.38,.31,.06,.15,.12,.3,.19,.44l-.58,.41-.82,.59c-1.8-1.8-4.1-3.4-5.3-5.5-2.1-3.5-4.9-4.4-8.7-4.3-8.1,.1-16.3,.2-24.4,.1-3.2,0-5.3,1.1-5.1,4.5,.3,3.3-1.4,4.3-4.2,4.8-12.4,2.4-22.4,8.8-27.8,20.4-4,8.4-10.2,13.5-18,17.8-23.1,12.6-37.6,31.6-40.4,58.1-1.3,12-.4,24.3-.5,36.4v37.5c-4.8,0-8.9-.2-13,.1-6.5,.5-11,5-11,11.4-.1,22.4-.1,44.9,.1,67.3,.1,6.9,5.7,12,12.6,12.1h10.9c.2,2.1,.4,3.4,.4,4.7,0,45.9,.5,91.8-.2,137.7-.4,22.3,7.9,40.3,22.6,56.1h0c.9,.8,1.8,1.6,2.5,2.1,14.8,12.9,34,19.7,53.6,19,22.5-.8,45.1-1.7,67.6-2,42.9-.5,85.9,.1,128.8,0,29.6-.1,59.2-.8,88.8-.8,51.5,0,103.1,.3,154.6,.5,28.4,.1,56.8,.1,85.1,.1,11.5,.1,24.9-.2,36.4,.3,25.1,.6,57.3,4.2,83.4-18.3,15.2-13.1,19.6-35.3,18.9-55.6-.2-7.8,0-15.5,0-23.6,4.2,0,8,.1,11.8,0,6.2-.2,11.4-4,11.4-9,.1-16.3,.1-32.5-.2-48.8h0Zm-17-106.6c1.3,.3,3.3,2,3.3,3.1,.4,6.9,.2,13.8,.2,21h-9.7l-.1-24.2c2.1,0,4.3-.4,6.3,.1h0Zm-6.4,36.4c9.1-3.1,11-1.1,9.3,9.7h-9.3v-9.7Zm-141.9-258.3c4,.1,8-.1,11.9,.4,1.3,.2,2.4,2.1,3.6,3.2-1.3,.7-2.6,1.8-3.9,1.9-4.9,.2-9.9,.1-14.9,.1h0c-1.3-4.1-.2-5.7,3.3-5.6h0Zm-30.5,.3c4.5-.3,9-.4,13.4,0,1,.1,1.7,2.6,2.6,4-.4,.4-.9,.8-1.3,1.2-4.8,0-9.6,.1-14.3,0-1-.1-1.9-1.5-2.9-2.3,.8-1,1.6-2.8,2.5-2.9Zm-24.2,0c3.1-.3,6.3-.5,9.3,0,1,.2,1.7,2.6,3.2,5.1-5.4,0-8.9,.2-12.3-.2-.9,0-2.4-1.5-2.4-2.2,.1-1,1.3-2.6,2.2-2.7h0Zm-432.1,.4c2.7-1.9,10.5,.1,13.3,4-4.7,0-8.7,.1-12.8,0-.6-.1-1.7-1-1.7-1.5,.1-.9,.5-2,1.2-2.5ZM24.17,793.85v7.7H12.87v-7.7h11.3Zm0,27.7H13.27v-7.4c11.3-1.5,11.6-1.3,10.9,7.4Zm-.2-47.9v7.9H13.27c-1.3-9.3-.3-10,10.7-7.9Zm-.3,68h0c-3.6-.8-7.3-1.5-10.6-2.6-.5-.2-.3-4.7,.2-4.8,3.1-.6,6.6-1.4,9.5-.6,1.2,.3,1.4,4.2,2.1,6.5l-1.2,1.5h0Zm727,162.5c-.3,20.8-14.1,40.3-33,46-7.1,2.1-15,2.2-22.6,2.2-44.9,.2-90.5,.1-134.7,.1s-88.4-.2-132.6-.2c-64,0-128,.2-192,.2-43.9,0-87.7-.3-131.6-.4-7,0-14,.8-20.9,0-19.3-2.3-31.7-14.1-40-30.8-4.1-8.3-5.3-17.3-5.3-26.6,0-99.5-.1-199.1,.1-298.6,.1-27.7,22.3-51.7,50.3-55.3,2.6-.3,6.2-2.1,7.1-4.1,4.5-10.6,12.7-12.9,23.3-12.8,42.8,.3,85.5,.1,128.3,.1,46,0,92.1,0,138.2-.1,2.4,0,5.2-.9,7-2.4,.8-.7,.1-4.1-.8-5.7-.8-1.3-3-2.4-4.5-2.4-23.7,0-47.3,.4-70.9,.4-30.5,.1-60.9-.2-91.4-.2-19.4,0-38.8,.2-58.2,.2H98.17c5.3-7.1,11.4-9.5,18.5-9.4,19.1-.2,38.3-.3,57.4-.3,43.1,0,86.2,.1,129.3,.1,67,.1,134.1,.1,201.1,.1,48.8,0,97.5-.1,146.3-.1,8.9,0,17.7-.1,26.5,.2,7,.2,12.9,2.8,18.5,9.3H436.97v10.5h26.4c71.5,0,143.1,.1,214.6-.1,8.4,0,14.2,2.7,17.2,10.5,1.6,4.3,4.4,6.3,9,7.2,29,5.3,46,28.5,46.5,56.1,.5,24.7,0,49.4,0,74.1v75.7c0,23.4,.2,46.7,.2,70.1,0,28.8,.2,57.6-.2,86.4h0Zm14.9-42.8c.4-3,.1-7.8,1.3-8.2,3.2-1.1,7.3-1,10.5,.1,1.2,.5,1.1,4.9,1.7,8.2l-13.5-.1Zm13.5-20.6c-.7,.5-.9,.7-1,.7-8.4,1.1-12.5-2.6-12.5-11v-13.9c.9-.4,1.2-.6,1.5-.8,11.9-.8,12-.8,12,11.1v13.9Z" fill="#444"/><path d="M182.25,597.74c-.79,.35-1.65,.56-2.38,.54-.81,.03-1.64-2.45-2.32-3.95-.3-.5-.1-1.3-.09-1.97,1.28-46.4,2.74-92.71,3.76-139.03,1.11-53.97,2.66-107.92,2.51-161.88-.2-80.12-1.64-160.23-2.64-240.33-.02-2.95,.25-6.66-4.05-6.67-3.98,.04-4.15,3.35-4.36,6.52-1.13,21.36-2.63,42.75-3.67,64.15-4.01,79.93-8.15,159.91-11.79,239.81-2.54,55.81-4.58,111.77-6.5,167.69-1.1,31.11-1.48,62.37-2.18,93.58-.14,5.81,.04,11.68-.1,17.49-.09,3.58,1.53,5.23,4.93,5.44,2.26,.14,4.63,.43,6.98,.63,11.84-11.53,18.67-26.52,21.92-42.01h-.02Zm-11.99-290.91c.03-1.12,1.04-2.17,1.6-3.23l1.87,.31c.26,6.13,.78,12.19,.6,18.09-1.7,62.14-3.49,124.23-5.29,186.33-.56,19.62-.98,39.21-1.49,58.75-.08,3.35-.44,3.61-8.2,4.37,3.71-88.35,7.2-176.48,10.91-264.61h0Zm-10.58,318.42c-.06-1.39-.38-2.92-.16-4.39,.26-3.26-.39-8.02,1.52-9.49,4.06-3.17,9.47-3.35,14.73-.45h0c-4.09,12.2-6.24,14.12-16.09,14.33Z" fill="#444"/><path d="M178.89,.1c6,2.8,11.1,6.2,12.6,13.4,1.7,8.3-2.9,16.2-11.1,18.5-8.6,2.5-16.7-1.8-19.8-10.5-2.7-7.7,.9-16.2,8.4-19.5,1.6-.7,3.3-1.3,4.9-2l5,.1h0Zm3,15.3c-2.1-1.4-4.3-4.1-6.2-3.8-1.9,.3-4.4,3.3-4.7,5.4-.2,1.5,2.9,4.3,4.8,4.7,3.1,.5,5.4-1.5,6.1-6.3h0Z" fill="#444"/><path d="M98.17,613.75c5.3-7.1,11.4-9.5,18.5-9.5,19.1-.2,38.3-.3,57.4-.3,43.1,0,86.2,.1,129.3,.1,67,0,134.1,.1,201.1,.1,48.8,0,97.5-.1,146.3-.1,8.8,0,17.7-.1,26.5,.2,6.9,.2,12.9,2.8,18.5,9.3H436.87v10.5h26.4c71.5,0,143.1,.1,214.6-.1,8.3,0,14.2,2.7,17.2,10.5,1.7,4.4,4.4,6.4,9,7.2,29,5.4,45.9,28.6,46.5,56.1,.5,24.7,0,49.4,0,74.1s-.1,50.5,0,75.7c0,23.4,.2,46.7,.2,70.1,0,28.8,.2,57.6-.2,86.4-.3,20.8-14.1,40.3-33,46-7.1,2.2-15.1,2.2-22.6,2.2-44.9,.2-89.8,.2-134.6,.1-44.2,0-88.4-.2-132.6-.2-64,0-128,.2-192,.2-43.9,0-87.7-.2-131.6-.4-7,0-14,.8-20.9,0-19.3-2.2-31.7-14.1-40-30.8-4.2-8.3-5.3-17.3-5.3-26.6,.1-99.5,0-199.1,.1-298.6,0-27.7,22.3-51.6,50.3-55.3,2.6-.3,6.2-2,7.1-4.1,4.6-10.6,12.8-12.9,23.3-12.8,42.8,.3,85.5,.1,128.3,.1,46.1,0,92.2,0,138.2-.1,2.4,0,5.2-.9,7-2.4,.8-.7,.1-4.1-.8-5.7-.7-1.3-2.9-2.4-4.5-2.4-23.6,0-47.2,.4-70.9,.4-30.5,0-60.9-.2-91.4-.2-19.4,0-38.8,.2-58.2,.2-22.4,.1-44.8,.1-68.3,.1h0Zm624.9,277.3h-27c-18.8,.1-37.6,.4-56.4,.4-22.1,.1-44.1-.1-66.2-.1-37.7,0-75.4,.2-113.1-.1-9.1-.1-16.2,3.2-22,9.7-5.3,6-10.5,12.1-15.3,18.4-8.8,11.5-9.1,20.3-1.2,32.5,5.5,8.5,11.4,16.8,17.2,25.1,13.4,19.3,26.7,38.5,40.2,57.7,1.3,1.8,3.3,4.5,4.9,4.4,10.5-.4,21.2,2.3,31.6-1.5,1.4-.5,3.2,0,4.8,.2,2.2,.4,4.4,1.5,6.6,1.6,58.9,.1,117.8,.1,176.7,.1,2.1,0,4.3-.2,6.4-.7,15.2-3.7,26.7-19.1,27-36.7,.3-18.6,.5-37.2,.5-55.8,.2-53.9,.3-107.8,.4-161.7,0-1.5-.8-3-1.3-4.5-.7-2.1-2.1-4.4-1.8-6.4,.5-4,3-7.8,3-11.7,.3-20.5,.4-40.9,0-61.4-.3-14.9-5-28.4-17.2-37.6-7.2-5.4-15.2-11-25.3-5.6-1,.5-2.8-.4-4.2-.8-1.8-.5-3.6-1.5-5.5-1.5-27.9-.2-55.8,0-83.7-.5-11.7-.2-21,3.5-28.6,12.2-6.8,7.8-14.4,14.8-20.9,22.8-5.6,6.9-12.6,9.1-21,9-18.8-.2-37.5-.1-56.3-.1H209.37c-24.1,0-48.2-.3-72.3,.3-26,.6-40,15.6-39.9,41.5,.1,23.6,.3,47.2,.1,70.8-.1,16.4,10.7,31.4,29.4,31.7,1.8,0,5.2-.6,5.2-1.1,.1-2.3-.1-5-1.2-6.9-1.8-2.9-4.5-5.3-6.8-7.9-1.8-2-3-3.9,0-6.1,2.6-1.9,4.3-2.4,6.6,.5,1.9,2.4,4.8,4.1,6.8,6.5,1.9,2.3,3.8,4.9,4.7,7.6,1.9,6.2,2.8,7.2,9.9,7.2,61.7,.1,123.4,.3,185.2,.3,66.8,0,133.7-.2,200.5-.4,6.5,0,12.2,2,16.7,6.6,5.4,5.4,10.6,11,15.7,16.7,7.2,8,16,11.7,26.7,10,1.3-.2,2.6-.1,4-.1,30.9,.1,61.8,.1,92.7,.2,8.3,0,16.6,0,25-.1,2.5,0,4.8,.2,4.7,3.6,0,3.9,.1,7.3,0,11.7h0ZM62.27,796.75c-.2-2.6-.5-5.1-.5-7.5,0-7.6-.5-15.3,.2-22.9s-6.1-15.1,.1-22.5c0-15.4,0-30.8,.1-46.2,.1-17.3,15.9-32.8,33.2-32.7,29.7,.2,59.5,.6,89.2,.7,48.2,.2,96.5,.3,144.7,.3,24.8,0,49.6-.3,74.4-.3,26.6,0,53.1,.2,79.7,.2,3.5,0,8.5,.2,8.4-4.8s-4.8-5.1-8.7-5.1c-27.9,.1-55.8,.2-83.7,.2-54.4,0-108.7,0-163.1-.1-46-.1-91.9-.6-137.9-.6-10.2,0-20.6,.4-29.5,7.1-13.6,10.2-18.6,24.3-18.8,40.5-.2,21.1,.1,42.1,.1,63.2,0,43.2-.1,86.4-.1,129.7,0,4-.2,8,3.3,11.4,1.2,1.2,1.1,5.7-.2,7.2-3.1,3.6-3.2,7.4-3.2,11.5,0,16.6-.1,33.2,0,49.8,.1,9.3-.2,18.7,1.1,27.9,2.8,21,20.7,38,43.1,36.9,13.8-.7,27.6-.2,41.4-.2H466.37c-2.1-3.8-3.4-6.7-5.2-9.1-1-1.3-3.1-2.3-4.6-2.3-11.7,0-23.3,.4-35,.5-36,.1-72,.1-108,.1-41.1,0-82.3-.1-123.4-.1-29.4,0-58.8,0-88.2,.2-8.2,0-16.4,.4-23.7-4.2-10.7-6.8-15.9-16.8-16.2-29.2-.4-15.7-.1-31.5-.1-47.2,0-17.5-.1-35.1-.1-52.6,0-21.4,.1-42.8,.2-64.2v-27.3c2.6,.6,4.5,1.5,6.4,1.4s3.7-1.2,5.6-1.9c-1.2-1.7-1.9-3.9-3.5-4.9-2.4-1.7-5.1-2-8.3-2.9h0Zm290.6,79.3c-2.9-4,1.7-10-6.4-10-33.2,.1-66.4,0-99.6,0-39.3,0-78.6,.1-117.9,.2-14.8,0-29.5,0-44.2,.2-1.9,0-4.2,1.2-5.3,2.6-.7,1-.2,4,.8,4.9,1.3,1.2,3.7,1.7,5.7,1.7,43.7,.2,87.5,.2,131.2,.3,13.8,0,27.6,.4,41.4,.4,21.9,0,43.8-.3,65.6-.4,9,0,18.1,.1,28.7,.1h0Zm14.1-.6h185.9c-1.6-5-1.9-9.5-8.6-9.4-31.2,.3-62.4,.1-93.6,.1-19.4,0-38.7-.1-58.1-.1h-26.5c.4,3.7,.6,6.6,.9,9.4h0Zm36.8,116.8c.1-10.2-8.8-19.5-19.1-19.8-11.2-.3-20.8,8.4-20.6,19.8s8.5,19.3,19.6,19.8c10.6,.5,20-8.9,20.1-19.8h0Zm-42.2-72.2c.1,.9-.5,3.7,.6,5.4,1.5,2.3,4.4,3.8,6.6,5.7,1-2,2.6-4,3-6.1,.5-2.5,0-5.3,.1-8,.4-7.7,5.3-13,11.7-12.9,5.9,.1,11.5,6.4,11.9,13.2,.1,2.2,.3,4.3,.5,6.5,.2,2.6,.6,5.7,4,4.8,2-.5,4.3-3,4.8-5,.7-3.5,.5-7.3,0-10.9-1.7-11.3-11-18.9-22.2-18.7-12.6,.1-20.9,9.9-21,26h0Zm-235-3.9v-.1c9.1,0,18.3,.2,27.4-.2,2.1-.1,5.6-2.3,5.7-3.8,.4-3.4-2.8-4.4-5.9-4.4h-1.5c-17.1,0-34.2-.1-51.4-.1-2,0-4.2-.2-5.9,.7-1.5,.8-2.9,2.8-3.1,4.4-.1,.9,2.1,2.4,3.6,3.1,1.1,.5,2.6,.4,3.9,.4h27.2Zm176,87.1h0c-10.1,0-20.2-.2-30.3,.2-1.7,.1-3.4,2.3-5.1,3.6,1.6,1.4,3.1,3,4.9,4.2,.8,.5,2.3,.2,3.4,.2,18.1,0,36.1,.1,54.2,0,1.9,0,4-.5,5.7-1.2,1-.4,2.1-2.1,2-3-.2-1.2-1.4-2.7-2.5-3.2-1.4-.7-3.2-.6-4.9-.6-9.1-.2-18.3-.2-27.4-.2h0Zm-.2-95.7h0l-6-.1c-8.1,0-16.3-.1-24.4,.3-1.6,.1-3.1,2.3-4.6,3.5,1.4,1.5,2.7,3.2,4.3,4.5,.6,.5,1.9,.2,2.9,.2h56.4c3.2,0,6.6-.4,6.5-4.4s-3.5-4.2-6.7-4.1c-9.4,.1-18.9,.1-28.4,.1h0Zm.3,56.2h28.9c2.9,0,5.9-.4,6-3.8,.1-3.7-2.9-4.3-6-4.3-19.5,0-38.9,.1-58.4,.1-2.8,0-5.8,.2-6,3.7-.1,3.8,2.8,4.2,6,4.2,9.9,0,19.7,.1,29.5,.1h0Zm-.8,31.7c10,0,20,.2,29.9-.2,2-.1,4-2.5,6-3.8-2-1.3-4-3.6-6-3.6-19.6-.3-39.2-.2-58.9,.1-2,0-5.4,2.3-5.6,3.8-.4,3.4,2.8,3.8,5.6,3.8,9.7-.1,19.3-.1,29-.1h0Zm-.1-15.8h29.4c3,0,6.2-.5,6.3-4,.1-3.8-3.3-3.9-6.2-3.9-19.4,0-38.9,0-58.3,.2-2,0-5.3,1.8-5.5,3.2-.5,3.3,2.1,4.7,5.5,4.6,9.5-.2,19.2-.1,28.8-.1h0Zm-175.9,23.5v.2h-27.4c-3,0-6.1,.1-5.9,4.1,.2,3.7,3.2,4.1,6.2,4.1,17.9,0,35.8,0,53.7-.1,1.8,0,3.7-.3,5.2-1.1,1.1-.6,2-2.3,2-3.5,0-1-1.2-2.4-2.2-2.8-1.6-.6-3.5-.8-5.3-.8-8.8-.2-17.5-.1-26.3-.1h0Zm176.2-71.3h0c10.1,0,20.2,.1,30.4-.2,1.8-.1,3.6-2.2,5.3-3.3-1.6-1.4-3.1-2.8-4.7-4.1-.6-.4-1.6-.4-2.4-.4-19.2,0-38.5,0-57.8,.1-2.8,0-5.8,.4-5.6,4.1,.2,3.5,3,3.8,5.9,3.7,9.6,.1,19.2,.1,28.9,.1h0Zm-.3,16.2h29.5c3,0,6.3-.5,6.2-4.1-.1-3.7-3.5-3.8-6.4-3.9h-1.5c-17.5,0-34.9-.1-52.4,0-2.1,0-4.4,0-6.4,.6-1.4,.4-3.5,2.1-3.4,2.7,.4,1.7,1.7,3.4,3.1,4.5,.9,.7,2.6,.3,3.9,.3,9.1,0,18.3-.1,27.4-.1h0Zm-88.6-40.4h0l-28.4,.1c-2.9,0-5.7,.6-5.8,4-.1,3.5,2.8,4.1,5.6,4.1,18.9,.1,37.8,.2,56.8,.2,2.8,0,5.9-.9,5.2-4.3-.3-1.6-3.3-3.8-5.1-3.9-9.3-.4-18.8-.2-28.3-.2h0Zm-.8,72h0c9.6,0,19.3,.2,28.9-.2,1.9-.1,5-2.1,5.2-3.6,.6-3.4-2.5-4.1-5.3-4.2h-56.3c-2.8,0-5.9,.1-5.9,3.7-.1,3.7,2.9,4.3,6,4.3h27.4Zm-86.4,8h0l-27.9,.1c-2.6,0-5.8-.4-5.9,3.5-.1,4,2.8,4.3,5.9,4.3h55.8c3.1,0,6.1-.5,6-4.2-.1-3.6-3.2-3.7-6-3.7h-27.9Zm-.3-31.9h-27.4c-2.9,0-6.3-.1-6.3,3.8,0,3.5,2.9,4.2,6.1,4.2,18.4-.1,36.9,0,55.3,0,3,0,6.3-.1,6.3-3.9s-3.4-4.2-6.6-4.1c-9.1,.1-18.3,0-27.4,0h0Zm.3,15.9h0c-9.6,.1-19.3-.1-28.9,.3-1.7,.1-4.4,2.1-4.7,3.6-.5,2.9,1.7,4.2,4.7,4.2h56.8c3.1,0,6.1-.6,5.9-4.3-.1-3.5-3.2-3.7-6-3.7l-27.8-.1h0Zm87-7.9h0c9.6,0,19.3,.2,28.9-.1,1.7-.1,3.4-2.3,5.1-3.5-1.7-1.4-3.2-3.5-5.1-4.2-2.3-.7-4.9-.2-7.4-.2-16.2,0-32.5,0-48.8,.1-2.7,0-6.4-.2-6.5,3.7-.1,4.1,3.3,4.2,6.4,4.2,9.1-.1,18.2,0,27.4,0h0Zm-.2,31.7h0c9.3,0,18.6,.2,27.9-.2,2.1-.1,5.5-2.1,5.8-3.7,.6-3.4-2.6-4-5.4-4-18.8,0-37.6,0-56.4,.1-2.7,0-5.8,.3-5.7,4,.1,3.6,3.1,3.8,5.9,3.8h27.9Zm-.1-63.6h28c2.9,0,6.4-.3,6-4-.2-1.5-3.7-3.8-5.8-3.8-18.8-.2-37.6,0-56.4,.1-2.5,0-5.4,.2-5.4,3.7,0,3.7,2.8,4,5.7,4h27.9Zm-87.1,0h13.5c5.1,0,10.3,.3,15.4-.2,2-.2,3.7-2.4,5.6-3.7-1.8-1.3-3.6-2.7-5.5-4-.3-.2-1-.1-1.5-.1-18.4,0-36.9,0-55.3,.1-2.7,0-5.8,0-5.7,3.8,0,3.7,2.8,4,5.7,4,9.2,.1,18.5,.1,27.8,.1h0Zm87.3,16.1c9.6,0,19.3,.2,28.9-.2,1.7-.1,3.4-2.4,5-3.7-1.6-1.4-3.1-2.8-4.9-4-.6-.4-1.6-.1-2.5-.1h-51.9c-2.1,0-4.4,.2-6.4,.8-1,.3-2.2,1.7-2.3,2.8-.1,1,.8,2.7,1.7,3.2,1.6,.8,3.5,1.1,5.2,1.1,9.3,.2,18.3,.1,27.2,.1h0Zm-86.9,0h0c8.6,.1,17.3,.1,26,0,3.4,0,8.1,.8,7.9-4.3-.2-4.4-4.7-3.8-7.9-3.8h-50.9c-2,0-4.1-.1-5.9,.6-1.2,.5-2.8,2.2-2.7,3.4,0,1.2,1.5,2.9,2.8,3.5,1.6,.7,3.6,.5,5.4,.5,8.3,.1,16.8,.1,25.3,.1h0Zm87.4,55.4h0c-9.4,0-18.9,0-28.4,.1-2.7,0-6.2,.2-5.5,3.8,.3,1.7,3.6,4.1,5.5,4.1,18.4,.3,36.8,.1,55.2,.1,3,0,6.2-.8,6.3-4.2,.1-3.9-3.3-3.9-6.2-3.9h-26.9Zm106.5-359.7h0c5.1,.1,10.3,.4,15.4-.1,1.7-.2,3.1-2.5,4.7-3.8-1.5-1.2-2.9-3.5-4.4-3.5-10.4-.3-20.9-.4-31.3-.1-1.5,0-2.9,2.3-4.4,3.6,1.5,1.3,3,3.6,4.7,3.8,5,.4,10.1,.1,15.3,.1h0Zm44.1-7.8h0c-2.8,0-5.7-.5-8.4,.1-1.7,.4-3.1,2.2-4.6,3.3,1.3,1.5,2.6,4.1,4,4.2,6.3,.5,12.6,.5,18.9,.1,1.5-.1,2.8-2.6,4.1-4-1.3-1.2-2.5-3.2-4.1-3.5-3.3-.5-6.6-.2-9.9-.2h0Zm-88.3,7.9h0c2.3,0,4.7,.5,6.9-.1,1.9-.5,3.4-2.1,5.1-3.3-1.6-1.5-3.2-3.9-5-4.1-5-.6-10.2-.5-15.3-.1-1.6,.1-3.1,2.1-4.6,3.3,1.5,1.4,2.7,3.6,4.5,4.1,2.6,.7,5.6,.2,8.4,.2h0Zm-175.4,245c-2.3,.3-5.1,.3-7.5,1.1-1.2,.4-2.4,2.3-2.6,3.6-.1,1,1.5,3.1,2.4,3.1,5.4,.3,10.7,.4,16.1,0,.9-.1,2.4-2.5,2.3-3.7s-1.7-2.9-3-3.3c-2.3-.6-4.9-.5-7.7-.8h0Zm65.3-244.8v.1c1.8,0,3.6-.1,5.4,0,2.8,.2,4.9-1.3,4.5-3.8-.3-1.6-2.6-3.9-4.3-4.1-3.7-.6-7.6-.4-11.3,.1-1.4,.2-3.4,2.3-3.4,3.6,0,1.4,1.7,3.4,3.1,4,1.8,.7,4,.1,6,.1h0Zm-68.7,57.1c1.2-1.6,3.7-3.6,4.4-6.1,.9-3.1-3.1-6.6-6.5-6.5-3.4,0-6.7,3.2-6.3,6.3,.5,3.7,3,5.7,8.4,6.3h0Zm-16.7,7.1c-3.1,.5-5.7,2.1-5.7,5.9,.1,3.7,2.6,5.8,6.2,5.7,3.5,0,6.1-2.2,6-5.8,0-3.5-2.4-5.6-6.5-5.8h0Zm32.7-19.8c2.8-3.6,5.1-5.5,5.8-7.9,.9-2.7-3.5-6.4-6.6-5.9-3.2,.5-6,2.6-5.1,6,.7,2.4,3.1,4.3,5.9,7.8h0Zm-26.8,153.2c-1,1.4-3.6,3.5-3.8,5.8-.4,3.4,2.6,5.3,5.9,5.3s5.9-1.6,5.9-5.4c-.2-3.7-2.7-5.4-8-5.7h0Zm427.9-175c2.6-3.5,4.9-5.3,5.3-7.5,.7-3.6-2.3-5.4-5.5-5.6-3.4-.2-6.2,2.1-5.7,5.4,.4,2.3,3.1,4.3,5.9,7.7h0Zm-90.5,352.4c2.3-3.2,5-5.5,4.6-6.9-.6-1.9-3.3-3.9-5.5-4.3-1.2-.2-4.4,2.9-4.1,4.1,.3,2.2,2.6,4,5,7.1h0Zm-33.7-70c-2.6-2.2-4.2-3.5-5.8-4.8-1,1.7-2.6,3.3-2.9,5.2-.5,2.4,0,5.6,3.3,5.2,1.6-.2,2.9-2.9,5.4-5.6h0Zm-258.3-56c-3.1-1.6-4.9-3.2-6.6-3.1-1.4,.1-2.6,2.1-3.9,3.3,1.5,1.2,2.9,3.2,4.6,3.3,1.4,.2,3-1.7,5.9-3.5h0Zm375.4-258.9c-1.9,2.5-3.8,4.1-3.8,5.6,0,1.2,2.6,3.4,3.8,3.3,1.6-.2,3-2.2,4.5-3.4-1.2-1.5-2.4-3-4.5-5.5h0Zm-86.6-10.2c1.7-1.9,3.9-3.3,3.8-4.4-.2-1.3-2.5-3.6-3.5-3.4-2,.4-3.8,2.2-5.7,3.4,1.5,1.3,3.2,2.6,5.4,4.4h0Zm128.1,10.2c-1.8,2.4-4,4-3.7,5.1,.4,1.6,2.5,2.8,3.8,4.2,1.4-1.4,3.5-2.6,3.8-4.2,.2-1.1-2-2.8-3.9-5.1h0Zm-407.5,2.2c-2.3,2.6-3.6,4.1-5,5.7,1.5,1,3.1,3,4.4,2.8,1.6-.2,3.4-2.1,4.1-3.6,.2-.8-1.8-2.6-3.5-4.9Zm390.8,2.7c-2.8-1.8-4.3-3.6-5.6-3.5-1.4,.2-2.6,2.1-3.9,3.3,1.3,1.3,2.4,3.3,3.8,3.6,1.3,.3,2.9-1.6,5.7-3.4h0Zm-446.3,120.5c-2.8-1.8-4.2-3.3-5.7-3.4-1.1-.1-2.3,1.7-3.4,2.7,1.2,1.3,2.2,3.3,3.7,3.8,.9,.3,2.6-1.4,5.4-3.1h0Zm448.8-86.7c-1.7,2.3-3.6,3.9-3.3,4.9,.5,1.5,2.3,3.1,3.8,3.4,1,.2,3.5-2.1,3.3-3-.2-1.6-2-3-3.8-5.3h0Z" fill="#e24040"/><path d="M173.73,303.92c.31,6.04,.75,12.08,.6,18.09-.86,62.39-6.23,225.63-6.53,245.34-.03,3.37-.36,3.53-8.45,4.1,2.43-88.63,6.39-168.93,8.95-257.37,0-1.12,1.47-11.2,2.11-11.07l3.31,.92h0Z" fill="#e4d6a7"/><path d="M765.57,916.55c1-.4,1.3-.6,1.6-.6,7.9-.5,11.9,3.2,12,11.1v13.9c-.8,.5-.9,.7-1,.7-8.4,1-12.5-2.6-12.5-11-.1-4.8-.1-9.4-.1-14.1h0Z" fill="#e4d6a7"/><path d="M765.97,832.75v-24.3c2.2,0,4.4-.4,6.3,.1,1.3,.4,3.2,2,3.3,3.1,.3,6.9,.2,13.8,.2,21h-9.8v.1h0Z" fill="#e4d6a7"/><path d="M779.07,961.45h-13.5c.4-3.1,.1-7.8,1.3-8.2,3.2-1.1,7.3-1,10.5,.1,1.3,.4,1.1,4.9,1.7,8.1h0Z" fill="#e4d6a7"/><path d="M774.97,854.75h-9.3v-9.7c9.1-3.1,11.1-1.1,9.3,9.7Z" fill="#e4d6a7"/><path d="M12.87,793.85h11.3v7.7H12.87c0,.1,0-7.7,0-7.7Z" fill="#e4d6a7"/><path d="M13.27,781.55c-1.3-9.3-.2-10,10.7-7.9v7.9H13.27Z" fill="#e4d6a7"/><path d="M620.57,592.35c-1.3-4.1-.2-5.7,3.2-5.6,4,.1,8-.1,11.9,.4,1.3,.2,2.4,2.1,3.6,3.2-1.3,.7-2.5,1.9-3.9,1.9-4.9,.2-9.8,0-14.8,.1h0Z" fill="#e4d6a7"/><path d="M23.67,841.65c-3.6-.8-7.2-1.4-10.7-2.7-.5-.2-.2-4.7,.2-4.8,3.1-.7,6.5-1.4,9.5-.6,1.2,.3,1.4,4.2,2.1,6.5-.3,.6-.7,1.1-1.1,1.6h0Z" fill="#e4d6a7"/><path d="M608.07,592.25c-4.8,0-9.5,.1-14.3-.1-1,0-2-1.5-2.9-2.3,.8-1,1.6-2.8,2.5-2.9,4.4-.3,8.9-.4,13.4,0,1,.1,1.8,2.6,2.6,4-.4,.5-.9,.9-1.3,1.3h0Z" fill="#e4d6a7"/><path d="M13.27,814.15c11.3-1.5,11.6-1.3,10.9,7.4H13.27v-7.4Z" fill="#e4d6a7"/><path d="M581.57,592.15c-5.4,0-8.9,.2-12.3-.1-.9-.1-2.5-1.5-2.4-2.2,0-1,1.3-2.6,2.2-2.7,3.1-.4,6.3-.5,9.3,0,1.1,.1,1.8,2.5,3.2,5h0Z" fill="#e4d6a7"/><path d="M150.37,591.45c-4.6,0-8.7,.1-12.7-.1-.6,0-1.7-1-1.7-1.5,0-.9,.5-2,1.2-2.5,2.5-1.8,10.4,.2,13.2,4.1h0Z" fill="#e4d6a7"/><path d="M181.89,15.4c-.8,4.7-3,6.8-6,6.3-2-.3-5-3.2-4.8-4.7,.2-2.1,2.8-5.1,4.7-5.4,1.8-.2,4,2.4,6.1,3.8Z" fill="#e4d6a7"/><path d="M723.07,891.05v-11.3c.1-3.4-2.3-3.6-4.7-3.6-8.3,0-16.6,.1-25,.1-30.9,0-61.8-.1-92.7-.2-1.3,0-2.7-.1-4,.1-10.8,1.6-19.5-2.1-26.7-10-5.1-5.7-10.3-11.3-15.7-16.7-4.5-4.6-10.2-6.6-16.7-6.6-66.8,.2-133.7,.4-200.5,.4-61.7,0-123.4-.2-185.2-.3-7.1,0-7.9-1-9.9-7.2-.9-2.8-2.8-5.4-4.7-7.6-2-2.4-4.9-4.1-6.8-6.5-2.3-2.9-4-2.4-6.6-.5-3,2.3-1.8,4.1,0,6.1,2.3,2.6,5,5,6.8,7.9,1.2,1.9,1.4,4.6,1.2,6.9,0,.5-3.4,1.1-5.2,1.1-18.7-.2-29.6-15.3-29.4-31.7,.2-23.6,0-47.2-.1-70.8-.1-25.9,13.9-40.9,39.9-41.5,24.1-.6,48.2-.3,72.3-.3H475.37c18.8,0,37.5-.1,56.3,.1,8.4,.1,15.4-2.1,21-9,6.5-8,14.1-15.1,20.9-22.8,7.7-8.7,17-12.4,28.6-12.2,27.9,.5,55.8,.3,83.7,.5,1.8,0,3.6,1,5.5,1.5,1.4,.4,3.2,1.3,4.2,.8,10.1-5.3,18.1,.2,25.3,5.6,12.3,9.2,17,22.7,17.2,37.6,.4,20.5,.3,40.9,0,61.4-.1,3.9-2.5,7.7-3,11.7-.3,2,1.2,4.2,1.8,6.4,.5,1.5,1.3,3,1.3,4.5-.1,53.9-.2,107.8-.4,161.7-.1,18.6-.2,37.2-.5,55.8-.3,17.6-11.8,33-27,36.7-2.1,.5-4.3,.7-6.4,.7-58.9,0-117.8,0-176.7-.1-2.2,0-4.3-1.2-6.6-1.6-1.6-.3-3.4-.8-4.8-.2-10.4,3.9-21,1.1-31.6,1.5-1.6,.1-3.6-2.6-4.9-4.4-13.5-19.2-26.8-38.5-40.1-57.7-5.8-8.3-11.7-16.6-17.2-25.1-7.9-12.3-7.6-21,1.2-32.5,4.8-6.3,10-12.4,15.3-18.4,5.8-6.5,12.9-9.8,22-9.7,37.7,.2,75.4,.1,113.1,.1,22.1,0,44.1,.1,66.2,.1,18.8,0,37.6-.3,56.4-.4,8.7-.4,17.4-.3,26.9-.4h0Zm-126.4-85.2c1.2,1.6,1.6,2.5,2.3,3.2,9.9,10.3,22.4,13.9,36.2,13.3,6.5-.3,12.7-1.6,17.3-7.3,1.9-2.4,5.6-3.4,8.3-5.3,4.4-2.9,9.8-5.2,12.9-9.2,23.3-29,6.6-74.2-29.8-81.8-30-6.2-68,17.8-60.9,60.4,.8,5,2.8,9.9,4.4,15.4,1.8-1.1,2.5-1.5,3.1-2,11.5-9,22.9-18.2,34.6-26.9,3-2.3,7-3.7,10.7-4.4,1.8-.3,5.2,1.7,5.8,3.4,.7,2-.5,5-1.7,7-1,1.8-3.2,2.9-4.9,4.2-12.5,9.9-25.2,19.8-38.3,30h0Zm-270.8-47.5h-25.1v-13.1c-6.6-1-6.9-.8-6.9,5,0,2,.2,4-.1,6-.2,1-1.4,2.5-2.2,2.5-6.4,.2-12.9,.1-19.7,.1-.2-3.7-.4-6.8-.5-10,0-2.4,.1-4.8-3.4-4.9-3.7-.1-4.3,2.1-4.1,5.2,.2,3.1,0,6.2,0,9.4h-23.1c0-2.2,.2-4.2,0-6.1-.4-3,2-8.1-3.5-8.2-6.1-.1-3.1,5.3-3.7,8.4-.4,1.9-.1,3.9-.1,5.7h-24.5v-8c0-6-.2-6.1-7.4-4.9v12.9h-25.1c0-3.7-.1-7,0-10.4,.1-2.9-1.5-3.8-4.1-3.6-2.6,.1-3.3,1.4-3.1,3.9,.2,3.4,.1,6.8,.1,10.1h-24.4v-13.2h-7.1v13.7h-14.6c-.7,8.1-.7,8,6.8,8h139.8c1.6,0,3.2,.1,5.2,.2v59.5h7.2v-59.2h79.8v15.5c2.5-.1,4.4-.3,6.8-.4v-15.6h162.5v-7.7c-2.9-.3-5.3-.5-8.5-.9v-10c0-2.2,0-4.5-3.3-4.3-2.9,.1-3.6,1.7-3.6,4.3,.1,3.4,0,6.8,0,10.1h-23.5v-13.3h-7.3v13.3h-23.8c0-3.7-.1-7,0-10.3,.1-2.7-.7-4.1-3.6-4-2.6,.1-4,1-3.9,3.9,.2,3.4,0,6.9,0,10.9h-11.5c-7,0-10.7-3.5-10.9-10.6,0-.3,.1-.8,0-1-1.2-1.1-2.4-2.8-3.9-3.2-2.4-.7-3.6,.6-3.5,3.3,.2,3.6,0,7.2,0,11.1h-23c0-3.9,.3-7.5-.2-11.1-.2-1.2-2.4-3-3.6-3-1.1,0-3,2.1-3.2,3.4-.5,3.5-.1,7.2-.1,10.8h-24.2v-13.3h-10.2v13.1h-26.8c0-3.8,.3-7.1-.1-10.4-.2-1.4-1.8-3.3-3.1-3.7-2.5-.7-4,.8-3.9,3.6,.3,3.4,.2,6.7,.2,10.5h0Zm249.6,37.7c-.6-1.8-1.1-3.1-1.5-4.5-7.4-23.6-4.6-45.8,12.1-64.4,16.8-18.7,38.7-24.5,63.1-19,43.6,9.9,61.5,64.1,33.2,100.5-3.3,4.3-.6,6.5,1.6,8.8,2.5,2.8,4.7,.6,6.5-1.6,15.1-18,19.5-38.8,14.8-61.2-9-42.6-44.6-66.4-87-58.4-45.3,8.5-67,55.7-56,92.1,2.7,9.4,3.4,9.8,13.2,7.7h0Zm19.8,167.4c-.7,14.5,6.9,26.9,19.3,37,11.4,9.2,24.7,11.7,38.8,10,13.8-1.6,24.5-10.2,32.6-20.1,11.4-13.8,13.3-30.7,7.2-47.6-8.7-24-32.4-36.2-59.3-31.2-22.7,4.3-38.9,25.1-38.6,51.9h0Zm-79.2-52.8c-27-.1-49.1,21.8-49.1,49.2,0,16.2,6.1,29.2,19.3,39.5,9.7,7.6,20.1,11.7,32,11.4,30.6-.8,53.1-31.8,45.7-61.6-4.2-16.7-17.1-25.8-28.7-36.2-.3-.3-.9-.4-1.4-.5-6-.7-11.9-1.3-17.8-1.8h0Zm54.2-102.4c1.1,2.1,1.8,3.9,2.8,5.5,13.2,19.1,31.3,30,54.7,30.9,8.6,.3,17.4-1.7,26-3.2,1.7-.3,4.5-3.1,4.4-4.5-.6-5.1-4.2-6.8-9.2-5.6-23.7,5.9-44.6,1-61.4-17.1-4.9-5.3-9.8-7.4-17.3-6h0Zm108.7,33.1c-4.7,3.2-4.8,4.1-1.1,7.9,1.5,1.5,2.8,3.7,4.7,4.3,2.3,.8,6.2,1.5,7.5,.2,7.5-7.5,14.4-15.5,21.3-23.5,.6-.7-.2-3.5-1.2-4.5-.6-.7-3.1-.5-4.1,.2-1.9,1.5-3.3,3.6-5,5.4-1.1,1.1-2.3,2.2-3.6,3.1-1.9,1.4-4.1,2.6-6,4.2-2.4,2-4.5,4.2-6.6,6.2-2.3-1.4-4.2-2.5-5.9-3.5h0Zm-336.8-31.4c.2-3.6,1.7-7.3-3.5-7.3-13.4-.2-26.9-.2-40.3,0-1,0-2.9,2.5-2.9,3.8,0,1.2,2,3.4,3.2,3.4,6.8,.3,13.6,.2,20.4,.2l23.1-.1h0Zm85.4-.2c-.5-3.3,1.5-7-3.2-7.1-12.3-.2-24.5-.2-36.8,0-1,0-2.7,2.1-2.8,3.3,0,1.2,1.5,3.6,2.4,3.6,13.3,.3,26.6,.2,40.4,.2Zm55.4,.2h32.5c6.5,0,6.6-.1,5.5-7.2-1.7-.1-3.5-.3-5.2-.3h-27.4c-6,0-6.2,.3-5.4,7.5h0Zm-224.6,0c-.3-3.2,2-7.1-2.9-7.3-9.1-.4-18.2-.4-27.3-.1-1,0-2.9,2.3-2.8,3.4,.2,1.5,1.8,3.9,2.9,3.9,10,.2,19.8,.1,30.1,.1h0Zm-49.6-.2c.2-3.5,.9-7-3.7-7-9.9-.2-19.9,0-30.1,0v7.1h33.8v-.1Zm471,17.2c-.2-.4-.6-1.8-1.3-2.7-2.2-2.7-4.6-5.2-7-7.8-2.5-2.7-5.2-3.6-8.2-.9-3.3,3.1-3.3,6.2,.1,9.2,3,2.6,6.1,5.1,9.5,7.2,2.9,1.9,6.8-.6,6.9-5h0Zm-372.9-98.8c0-4.6-3-8.1-6.9-8.1-4.3-.1-7.4,3.7-7.3,8.9,0,4.7,2.9,7.8,7.2,7.7,4.4-.1,7.1-3.3,7-8.5h0Zm359.8-51c8.2,0,16.1,.1,24-.1,1.5,0,3-1.7,4.6-2.7-1.5-1.2-2.8-3.3-4.4-3.5-6.4-.5-12.9-.4-19.3-.7-4.7-.2-5.9,2-4.9,7h0Zm-175.1,50.9c0,4.6,3.4,8.6,7.3,8.5,3.9,0,6.9-3.6,6.9-8.2s-3.2-8.5-7.3-8.4c-4,.1-6.9,3.5-6.9,8.1h0Zm-267.3-8.1c-3.8-.1-7,3.5-7.2,8.1-.2,4.5,3.2,8.3,7.4,8.2,4.2,0,7.3-3.4,7.3-7.8s-3.5-8.4-7.5-8.5h0Zm-65.2,8.4c0-4.7-3.4-8.6-7.2-8.5s-6.9,4.2-6.9,8.9c.1,4.5,3.2,8,7.2,7.8,3.8-.1,6.9-3.8,6.9-8.2h0Zm217.6,8.2c3.8-.1,7-3.8,7-8.2,.1-4.6-3.3-8.4-7.3-8.4s-7,3.7-6.9,8.7c.1,4.5,3.2,7.9,7.2,7.9h0Zm-231.8,73.3v.1c3.1,0,6.3-.1,9.4,0,2.6,.1,3.5-1,3.5-3.5s-.6-4.1-3.6-4c-6.3,.1-12.6,.1-18.9,0-2.5,0-3.6,.8-3.6,3.4s.8,4,3.7,3.9c3.2,0,6.3,.1,9.5,.1h0Zm489.3-132.9v.2c3.1,0,6.3,.2,9.4-.1,1.1-.1,2.7-1.8,2.7-2.9,.1-1.2-1.3-3.5-2.1-3.5-6.3-.4-12.6-.5-18.8-.1-1.2,.1-2.2,2.7-3.3,4.1,1.2,.8,2.3,2.1,3.6,2.2,2.9,.4,5.7,.1,8.5,.1h0Zm-179.7,133h0c2.1,0,4.3,0,6.4,.1,2.5,.1,4.2-.5,4-3.5-.1-2.5-.8-4-3.8-3.9-4.1,.1-8.3,0-12.4-.2-3-.2-4.2,1.1-4.2,4,0,3.2,1.8,3.8,4.5,3.6,1.9-.2,3.7-.1,5.5-.1h0Zm-243.8-79.7c.4-.9,2.3-2.9,1.9-4.4-.6-2.2-2.4-4.5-4.3-5.6-1-.5-3.4,1.7-5.2,2.6,1.2,1.1,2.5,2.2,4,3.5-1.6,2.5-3.6,5.5-6.2,9.3h12.6c-1-1.8-1.7-3.2-2.8-5.4h0Zm149.4-4.8c-2.3,3.6-4.2,6.6-6.5,10.3h12.8c-1.3-2-2.2-3.3-3.1-4.8,2.7-5.7,2.3-9.3-1.7-10.6-3.5-1.1-5.6,.5-6.4,4.3l4.9,.8h0Zm124.5,5c.5-1.2,2.1-3.3,1.7-4.9-.5-2-2.2-4.7-4-5.2-1.4-.5-3.7,1.9-5.5,2.9,1.3,1.3,2.6,2.6,4.1,4-1.6,2.2-3.4,4.9-6,8.5h12.1c-.9-1.9-1.5-3.2-2.4-5.3h0Zm174.3-53c.3-1.1,.5-1.4,.5-1.7v-6.5c0-6.3-.1-6.4-6.8-5.2v13c2.3,.2,4.2,.3,6.3,.4h0Zm57.3,24.8c1.9-2.9,4.4-5.4,3.9-6.2-1.5-2.4-3.9-4.4-6.4-5.9-.4-.3-4.1,3.2-3.9,3.6,1.5,2.7,3.7,5.1,6.4,8.5h0Zm-577.1,33.5v-15.8l-2.4-1.5c-.7,1.4-2,2.9-2.1,4.3-.1,4.3,.3,8.5,.6,13h3.9Zm148.5-16.5c-2,1.3-4.4,2.1-4.5,3.1-.3,3.9,0,7.9,.5,11.9,.1,.7,1.8,1.6,2.9,1.6,.6,0,1.8-1.4,1.8-2.2-.1-4.5-.4-8.9-.7-14.4h0Zm76.5,82.1c-.9,1.4-2.4,2.7-2.7,4.2-.5,2.8,0,5.3,3.9,5.3,3.3,0,4.3-1.5,4.4-4.5,.2-3.5-1.7-4.3-5.6-5h0Zm338.1-113.7c.8,.1,1.5,.1,2.2,.2,1.4-2.1,3.2-4,4-6.2,.2-.7-2.2-3.4-3.6-3.4-3.2-.2-5.3,2-5.2,5.3,.1,1.4,1.7,2.8,2.6,4.1h0Zm-29.3,178.8c2.1-2.8,4.3-5.5,6.3-8.3,.2-.2-.7-1.6-.8-1.5-2.4,.8-5.2,1.4-7,2.9-1.2,1-1.1,3.6-1.4,5.5,.1,.2,1.4,.6,2.9,1.4h0Zm38.7,47.1c2.2-2.5,3.4-3.8,4.5-5.1-1.5-1.3-2.8-3-4.5-3.5-.7-.2-3.1,2-3.2,3.2,0,1.3,1.6,2.8,3.2,5.4h0Zm-174.6-20c-1.8,2.5-3.5,3.9-3.4,5.1,.1,1.3,1.9,2.5,3,3.7,1.2-1.2,3-2.2,3.3-3.5,.2-1.2-1.4-2.7-2.9-5.3h0Z" fill="#41463d"/><path d="M62.36,797.13c3.2,.9,5.9,1.2,8.1,2.5,1.6,.9,2.4,3.2,3.5,4.9-1.8,.7-3.7,1.8-5.6,1.9s-3.8-.8-6.4-1.4v27.3c-.1,21.4-.2,42.8-.2,64.2,0,17.5,.1,35.1,.1,52.6,0,15.7-.2,31.5,.1,47.2,.3,12.4,5.5,22.4,16.2,29.2,7.3,4.7,15.5,4.3,23.6,4.2,29.4-.1,58.8-.2,88.2-.2,41.1,0,82.3,.1,123.5,.1,36,0,72,0,108-.1,11.7,0,23.3-.5,35-.5,1.6,0,3.7,1.1,4.6,2.3,1.9,2.4,3.1,5.3,5.2,9.1H135.46c-13.8,0-27.6-.4-41.3,.2-22.3,1-40.3-15.9-43.1-36.9-1.2-9.2-1-18.6-1.1-27.9-.1-16.6,0-33.2,0-49.8,0-4.1,.1-8,3.2-11.5,1.3-1.5,1.4-6,.2-7.2-3.5-3.4-3.3-7.4-3.3-11.4,0-43.2,.1-86.4,.1-129.7,0-21.1-.3-42.1-.1-63.2,.2-16.2,5.2-30.3,18.8-40.5,8.9-6.7,19.3-7.1,29.5-7.1,46,0,91.9,.5,137.9,.6,54.4,.1,108.7,.1,163.1,.1,27.9,0,55.8-.1,83.7-.2,4,0,8.7,.1,8.7,5.1,.1,4.9-5,4.8-8.4,4.8-26.6,.1-53.1-.2-79.7-.2-24.8,0-49.6,.3-74.4,.3-48.2,0-96.5-.1-144.7-.3-29.7-.1-59.5-.5-89.2-.7-17.3-.1-33.1,15.4-33.2,32.7-.1,15.4-.1,30.8-.1,46.2-6.2,7.4,.6,15-.1,22.5-.7,7.6-.3,15.2-.2,22.9,.1,2.8,.4,5.3,.6,7.9h0Z" fill="#444"/><path d="M352.87,876.05h-28.8c-21.9,.1-43.8,.4-65.6,.4-13.8,0-27.6-.4-41.4-.4-43.7-.1-87.5-.1-131.2-.3-1.9,0-4.3-.5-5.7-1.7-1-.9-1.5-3.9-.8-4.9,1.1-1.4,3.5-2.6,5.3-2.6,14.8-.2,29.5-.2,44.2-.2,39.3-.1,78.6-.2,117.9-.2,33.2,0,66.4,.1,99.6,0,8.1-.2,3.6,5.8,6.5,9.9h0Z" fill="#444"/><path d="M366.97,875.45c-.2-2.8-.5-5.6-.9-9.4h26.5c19.4,0,38.7,.1,58.1,.1,31.2,0,62.4,.1,93.6-.1,6.7,0,7,4.4,8.6,9.4h-185.9Z" fill="#444"/><path d="M403.77,992.25c-.1,10.9-9.5,20.3-20.1,19.8-11.1-.5-19.4-8.5-19.6-19.8-.2-11.4,9.4-20,20.6-19.8,10.3,.3,19.3,9.6,19.1,19.8h0Zm-11.1,.4c.2-4.3-3.8-8.5-8.4-8.8-4.5-.3-8.9,3.5-9.2,7.9-.2,4.3,4.3,8.9,8.9,9,4.1-.1,8.5-4.2,8.7-8.1h0Z" fill="#444"/><path d="M361.47,920.05c.1-16.1,8.5-26,20.9-26.2,11.2-.2,20.5,7.5,22.2,18.7,.5,3.6,.8,7.4,0,10.9-.4,2-2.8,4.5-4.8,5-3.3,.9-3.8-2.2-4-4.8-.1-2.2-.3-4.3-.5-6.5-.4-6.8-6-13.1-11.9-13.2-6.4-.1-11.3,5.2-11.7,12.9-.1,2.7,.4,5.4-.1,8-.4,2.2-2,4.1-3,6.1-2.3-1.8-5.1-3.3-6.6-5.7-1-1.5-.4-4.3-.5-5.2h0Z" fill="#444"/><path d="M126.57,916.15h-26.9c-1.3,0-2.8,.1-3.9-.4-1.4-.7-3.7-2.2-3.6-3.1,.2-1.6,1.6-3.6,3.1-4.4,1.6-.9,3.9-.7,5.9-.7,17.1,0,34.2,0,51.4,.1h1.5c3.1,.1,6.3,1,5.9,4.4-.2,1.5-3.7,3.7-5.7,3.8-9.1,.4-18.3,.2-27.4,.2l-.3,.1h0Z" fill="#444"/><path d="M302.57,1003.25h27.4c1.6,0,3.5,0,4.9,.6,1.1,.5,2.3,2,2.5,3.2,.1,.9-1,2.6-2,3-1.7,.8-3.8,1.2-5.7,1.2-18.1,.1-36.1,0-54.2,0-1.2,0-2.6,.4-3.4-.2-1.8-1.1-3.3-2.7-4.9-4.2,1.7-1.2,3.4-3.5,5.1-3.6,10-.1,20.2,0,30.3,0h0Z" fill="#444"/><path d="M302.37,907.55h28.4c3.2,0,6.6,.2,6.7,4.1,.1,3.9-3.4,4.4-6.5,4.4h-56.4c-1,0-2.3,.3-2.9-.2-1.6-1.3-2.9-3-4.3-4.5,1.5-1.2,3-3.4,4.6-3.5,8.1-.4,16.3-.3,24.4-.3h6Z" fill="#444"/><path d="M302.67,963.75h-29.4c-3.1,0-6.1-.4-6-4.2,.1-3.5,3.1-3.7,6-3.7,19.5,0,38.9,0,58.4-.1,3.1,0,6.2,.6,6,4.3-.1,3.3-3.1,3.8-6,3.8-9.7-.1-19.4-.1-29-.1h0Z" fill="#444"/><path d="M301.77,995.45h-28.9c-2.8,0-6.1-.3-5.6-3.8,.2-1.5,3.6-3.8,5.6-3.8,19.6-.3,39.2-.3,58.9-.1,2,0,4,2.4,6,3.6-2,1.3-3.9,3.7-6,3.8-10,.5-20,.2-30,.3h0Z" fill="#444"/><path d="M301.77,979.65c-9.6,0-19.3-.1-28.9,0-3.4,0-6-1.3-5.5-4.6,.2-1.3,3.6-3.2,5.5-3.2,19.4-.3,38.8-.2,58.3-.2,2.9,0,6.3,.1,6.2,3.9-.1,3.6-3.3,4-6.3,4l-29.3,.1h0Z" fill="#444"/><path d="M125.87,1003.15h26.4c1.8,0,3.7,.2,5.3,.8,1,.4,2.2,1.9,2.2,2.8,0,1.2-.9,2.9-2,3.5-1.5,.8-3.5,1.1-5.2,1.1-17.9,.1-35.8,0-53.7,.1-3,0-6-.3-6.2-4.1-.2-4.1,2.9-4.2,5.9-4.1h27.4l-.1-.1h0Z" fill="#444"/><path d="M302.07,931.85h-28.9c-2.9,0-5.7-.2-5.9-3.7-.2-3.7,2.8-4.1,5.6-4.1,19.2-.1,38.5-.1,57.8-.1,.8,0,1.8-.1,2.4,.4,1.7,1.2,3.2,2.7,4.7,4.1-1.8,1.2-3.5,3.2-5.3,3.3-10.2,.2-20.3,0-30.4,.1h0Z" fill="#444"/><path d="M301.77,948.05h-27.5c-1.3,0-3,.3-3.9-.3-1.4-1.1-2.6-2.8-3.1-4.5-.2-.6,2-2.3,3.4-2.7,2-.6,4.3-.6,6.4-.6h53.9c2.9,.1,6.4,.2,6.4,3.9s-3.3,4.1-6.2,4.1c-9.8,0-19.6,0-29.4,.1h0Z" fill="#444"/><path d="M213.17,907.55c9.5,0,18.9-.2,28.4,.2,1.9,.1,4.8,2.3,5.1,3.9,.7,3.4-2.5,4.3-5.2,4.3-18.9,0-37.8-.1-56.8-.2-2.9,0-5.7-.6-5.6-4.1,.1-3.4,2.9-4,5.8-4l28.3-.1h0Z" fill="#444"/><path d="M212.37,979.65h-27.4c-3.1,0-6.1-.7-6-4.3s3.2-3.7,5.9-3.7h56.3c2.8,.1,5.9,.8,5.3,4.2-.3,1.5-3.4,3.5-5.2,3.6-9.6,.3-19.3,.1-28.9,.2h0Z" fill="#444"/><path d="M125.97,987.65h27.9c2.7,0,5.9,.1,6,3.7,.1,3.7-3,4.2-6,4.2h-55.8c-3,0-6-.3-5.9-4.3,.1-3.9,3.3-3.5,5.9-3.5,9.3-.1,18.6-.1,27.9-.1h0Z" fill="#444"/><path d="M125.67,955.75h27.4c3.2,0,6.6,.2,6.6,4.1s-3.3,3.9-6.3,3.9c-18.4,0-36.9-.1-55.3,0-3.2,0-6.1-.7-6.1-4.2,0-3.9,3.3-3.8,6.3-3.8h27.4Z" fill="#444"/><path d="M125.97,971.65h27.9c2.8,0,5.8,.2,6,3.7,.2,3.8-2.8,4.4-5.9,4.3-18.9,0-37.8-.1-56.8,0-3,0-5.3-1.3-4.7-4.2,.3-1.5,3-3.5,4.7-3.6,9.6-.3,19.2-.2,28.8-.2h0Z" fill="#444"/><path d="M212.97,963.65h-27.4c-3.2,0-6.6,0-6.4-4.2,.1-3.9,3.8-3.7,6.5-3.7,16.2-.1,32.5-.1,48.8-.1,2.5,0,5.2-.5,7.4,.2,2,.6,3.4,2.7,5.1,4.2-1.7,1.2-3.4,3.5-5.1,3.5-9.7,.4-19.3,.2-28.9,.1h0Z" fill="#444"/><path d="M212.77,995.45h-27.9c-2.8,0-5.8-.2-5.9-3.8-.1-3.6,3-4,5.7-4,18.8-.1,37.6-.1,56.4-.1,2.8,0,6.1,.5,5.4,4-.3,1.6-3.7,3.6-5.8,3.7-9.3,.4-18.6,.1-27.9,.2h0Z" fill="#444"/><path d="M212.67,931.85h-27.9c-2.8,0-5.6-.3-5.7-4,0-3.5,2.9-3.7,5.4-3.7,18.8-.2,37.6-.3,56.4-.1,2,0,5.6,2.3,5.8,3.8,.4,3.7-3.1,4-6,4h-28Z" fill="#444"/><path d="M125.57,931.75h-27.9c-2.9,0-5.7-.3-5.7-4s3-3.8,5.7-3.8c18.4,0,36.9-.1,55.3-.1,.5,0,1.1-.2,1.5,.1,1.9,1.3,3.7,2.7,5.5,4-1.9,1.3-3.6,3.5-5.6,3.7-5.1,.5-10.3,.2-15.4,.2l-13.4-.1h0Z" fill="#444"/><path d="M212.87,947.85c-9,0-18,.1-26.9,0-1.8,0-3.7-.3-5.2-1.1-.9-.5-1.8-2.1-1.7-3.2,.1-1,1.3-2.4,2.3-2.8,2-.6,4.2-.8,6.4-.8,17.3-.1,34.6,0,51.9,0,.8,0,1.9-.3,2.5,.1,1.7,1.2,3.3,2.7,4.9,4-1.7,1.3-3.3,3.6-5,3.7-9.9,.3-19.5,.1-29.2,.1h0Z" fill="#444"/><path d="M125.87,947.95h-25.5c-1.8,0-3.8,.2-5.4-.5-1.3-.5-2.8-2.2-2.8-3.5,0-1.2,1.5-2.9,2.7-3.4,1.8-.7,3.9-.6,5.9-.6,17,0,33.9-.1,50.9,0,3.2,0,7.7-.6,7.9,3.8,.2,5.1-4.5,4.2-7.9,4.3-8.5,0-17.1,0-25.8-.1h0Z" fill="#444"/><path d="M213.37,1003.25h26.9c2.9,0,6.3,0,6.2,3.9-.1,3.4-3.2,4.2-6.3,4.2-18.4,0-36.8,.2-55.2-.1-1.9,0-5.2-2.4-5.5-4.1-.6-3.6,2.9-3.8,5.5-3.8,9.5-.1,18.9,0,28.4-.1h0Z" fill="#444"/><path d="M319.87,643.65c-5.1,0-10.3,.3-15.4-.2-1.7-.2-3.1-2.4-4.7-3.8,1.5-1.2,2.9-3.5,4.4-3.6,10.4-.3,20.9-.3,31.3,.1,1.5,0,2.9,2.3,4.4,3.5-1.5,1.3-3,3.7-4.7,3.8-5,.6-10.2,.2-15.3,.2h0Z" fill="#444"/><path d="M363.87,635.85c3.3,0,6.7-.4,9.9,.2,1.5,.2,2.7,2.3,4.1,3.5-1.4,1.4-2.7,4-4.1,4-6.3,.4-12.6,.4-18.9-.1-1.4-.1-2.7-2.7-4-4.2,1.5-1.1,2.9-3,4.6-3.3,2.7-.5,5.6-.1,8.4-.1h0Z" fill="#444"/><path d="M275.67,643.65c-2.8,0-5.8,.5-8.4-.2-1.7-.5-3-2.7-4.5-4.1,1.5-1.2,3-3.2,4.6-3.3,5.1-.4,10.3-.5,15.3,.1,1.8,.2,3.3,2.7,5,4.1-1.7,1.1-3.3,2.8-5.1,3.3-2.2,.6-4.6,.2-6.9,.1h0Z" fill="#444"/><path d="M100.27,888.75c2.8,.3,5.4,.2,7.7,.9,1.3,.4,2.9,2.1,3,3.3s-1.4,3.6-2.3,3.7c-5.3,.3-10.7,.3-16.1,0-.9,0-2.5-2.1-2.4-3.1,.1-1.3,1.4-3.2,2.6-3.6,2.4-.9,5.2-.9,7.5-1.2h0Z" fill="#444"/><path d="M165.57,643.95c-2,0-4.2,.5-5.9-.2-1.4-.6-3.1-2.6-3.1-4,0-1.2,2-3.4,3.4-3.6,3.7-.5,7.6-.7,11.3-.1,1.7,.3,4,2.5,4.3,4.1,.4,2.5-1.7,4-4.5,3.8-1.8-.1-3.6,0-5.4,0h-.1Z" fill="#444"/><path d="M96.87,701.05c-5.4-.6-7.9-2.6-8.4-6.4-.4-3.1,2.9-6.3,6.3-6.3s7.4,3.5,6.5,6.5c-.7,2.6-3.2,4.6-4.4,6.2h0Z" fill="#444"/><path d="M80.17,708.15c4.1,.2,6.4,2.3,6.5,5.8,.1,3.6-2.5,5.8-6,5.8s-6.1-2-6.2-5.7c0-3.7,2.6-5.4,5.7-5.9h0Z" fill="#444"/><path d="M112.87,688.25c-2.8-3.5-5.2-5.4-5.8-7.7-.9-3.5,1.9-5.5,5.1-6,3.1-.5,7.4,3.2,6.6,5.9-.8,2.4-3.1,4.3-5.9,7.8h0Z" fill="#444"/><path d="M86.07,841.45c5.3,.3,7.8,2,7.9,5.8,.1,3.7-2.6,5.4-5.9,5.4s-6.3-1.9-5.9-5.3c.3-2.3,2.9-4.4,3.9-5.9h0Z" fill="#444"/><path d="M513.97,666.55c-2.8-3.5-5.5-5.4-5.8-7.7-.5-3.3,2.3-5.5,5.7-5.4,3.2,.2,6.1,2,5.5,5.6-.5,2.2-2.9,4-5.4,7.5h0Z" fill="#444"/><path d="M423.47,1018.95c-2.4-3.1-4.7-4.9-5-7-.2-1.2,3-4.3,4.1-4.1,2.1,.4,4.8,2.4,5.5,4.3,.4,1.2-2.4,3.6-4.6,6.8Z" fill="#444"/><path d="M389.77,948.95c-2.5,2.7-3.8,5.3-5.4,5.5-3.3,.4-3.8-2.8-3.3-5.2,.4-1.8,1.9-3.5,2.9-5.2,1.5,1.4,3.1,2.7,5.8,4.9h0Z" fill="#444"/><path d="M131.47,892.85c-2.9,1.9-4.5,3.7-5.9,3.6-1.6-.2-3.1-2.2-4.6-3.3,1.3-1.2,2.6-3.2,3.9-3.3,1.7-.2,3.4,1.4,6.6,3h0Z" fill="#444"/><path d="M506.87,633.95c2,2.5,3.3,4,4.5,5.5-1.5,1.2-2.9,3.3-4.5,3.4-1.2,.1-3.8-2.1-3.8-3.3,0-1.5,1.9-3,3.8-5.6h0Z" fill="#444"/><path d="M420.27,623.85c-2.2-1.8-3.9-3.1-5.5-4.5,1.9-1.2,3.7-3,5.7-3.4,1-.2,3.4,2.1,3.5,3.4,.2,1.2-2,2.6-3.7,4.5h0Z" fill="#444"/><path d="M548.37,634.05c1.9,2.4,4.2,4,3.9,5-.4,1.6-2.5,2.9-3.8,4.2-1.3-1.4-3.4-2.6-3.8-4.2-.3-1,1.8-2.7,3.7-5h0Z" fill="#444"/><path d="M140.77,636.15c1.7,2.3,3.8,4.1,3.4,4.9-.7,1.6-2.5,3.4-4.1,3.6-1.3,.2-2.9-1.8-4.4-2.8,1.5-1.5,2.9-3.1,5.1-5.7Z" fill="#444"/><path d="M531.67,638.95c-2.8,1.8-4.4,3.6-5.7,3.4-1.5-.2-2.6-2.3-3.8-3.6,1.3-1.2,2.5-3.1,3.9-3.3,1.3-.1,2.9,1.7,5.6,3.5h0Z" fill="#444"/><path d="M85.37,759.45c-2.8,1.6-4.5,3.3-5.5,3-1.5-.5-2.5-2.5-3.7-3.8,1.2-1,2.4-2.8,3.4-2.7,1.6,.2,3,1.7,5.8,3.5h0Z" fill="#444"/><path d="M534.17,672.75c1.8,2.3,3.6,3.6,3.8,5.2,.1,.9-2.3,3.2-3.3,3-1.5-.3-3.4-1.9-3.8-3.4-.4-.9,1.6-2.5,3.3-4.8h0Z" fill="#444"/><circle cx="633.37" cy="765.15" r="58" fill="#41463d"/><path d="M597.57,733.45c10.2,13.1,20.1,25.8,30,38.5,1.3,1.7,2.5,3.9,4.2,4.9,2.1,1.2,5.1,2.4,7,1.7,1.7-.6,3.7-4,3.4-5.8-.7-3.7-2.1-7.7-4.4-10.7-8.7-11.7-17.9-23.1-26.9-34.6-.5-.6-.9-1.4-2-3.1,5.5-1.6,10.3-3.6,15.4-4.4,42.6-7.1,66.6,30.9,60.4,60.9-7.6,36.4-52.7,53.1-81.8,29.8-4-3.2-6.3-8.5-9.2-12.9-1.8-2.8-2.8-6.4-5.3-8.3-5.8-4.6-7-10.8-7.3-17.3-.6-13.9,3-26.3,13.3-36.2,.7-.8,1.6-1.3,3.2-2.5h0Zm60.5,60.4c-.1-4.8-5-11.6-8.3-12.5-3.6-1-6.5-.4-7.5,4-1,4.1,1.7,10.9,6.1,12.8,1.8,.8,4.6,.6,6.3-.2,1.8-.9,2.8-3.2,3.4-4.1h0Zm7.6-29.6c4.3-.2,10-5.8,9.1-8.4-.7-1.9-2.8-4.2-4.5-4.5-3.4-.5-8.2,4.6-7.6,7.7,.4,2.1,2.2,3.9,3,5.2h0Zm-8.5-32.1c-3.6,2.7-7,4.7-9.8,7.4-1,1-.8,3.5-.5,5.2,.2,.6,2.6,1.4,3.6,1.1,2.8-.9,7-9.5,6.7-13.7h0Zm-41.6,66c2.2-3.3,3.8-5.3,4.7-7.5,.2-.4-2.7-2.9-3-2.7-1.7,1.1-3.5,2.6-4.2,4.4-.3,1,1.2,2.8,2.5,5.8h0Zm-8.1-25c-2.4-1.7-4.2-3.7-4.8-3.4-1.6,.9-3.1,2.5-3.7,4.2-.2,.7,2.3,3.4,3.1,3.2,1.6-.3,2.9-2,5.4-4h0Z" fill="#e4d6a7"/><path d="M325.87,758.35c0-3.8,.1-7.1,0-10.4-.1-2.8,1.4-4.4,3.9-3.6,1.3,.4,2.9,2.3,3.1,3.7,.5,3.2,.1,6.6,.1,10.4h26.8v-13.2h10.2v13.3h24.2c0-3.6-.3-7.2,.1-10.8,.2-1.3,2.1-3.4,3.2-3.4,1.3,0,3.5,1.8,3.6,3,.5,3.5,.2,7.2,.2,11.1h23c0-3.9,.1-7.5,0-11.1-.1-2.7,1-4,3.5-3.3,1.5,.4,2.6,2,3.9,3.2,.2,.1,0,.6,0,1,.2,7.1,3.9,10.6,10.9,10.6h11.5c0-4,.1-7.4,0-10.9-.2-2.9,1.3-3.8,3.9-3.9,2.9-.1,3.7,1.4,3.6,4-.1,3.3,0,6.6,0,10.3h23.8v-13.3h7.3v13.3h23.5c0-3.3,.1-6.7,0-10.1-.1-2.5,.7-4.1,3.6-4.3,3.3-.2,3.3,2,3.3,4.3v10c3.2,.3,5.6,.6,8.5,.9v7.7h-162.8v15.6c-2.4,.1-4.3,.2-6.8,.4v-15.5h-79.8v59.4h-7.2v-59.5c-2-.1-3.6-.2-5.2-.2H129.97c-4.93,0-7.2-2.67-6.8-8h14.6v-13.7h7.1v13.2h24.4c0-3.3,.2-6.7-.1-10.1-.2-2.5,.5-3.8,3.1-3.9s4.1,.7,4.1,3.6c-.1,3.3,0,6.6,0,10.4h25.1v-12.9c7.2-1.3,7.4-1.1,7.4,4.9v8h24.5c0-1.8-.3-3.8,.1-5.7,.6-3.1-2.4-8.5,3.7-8.4,5.5,.1,3,5.1,3.5,8.2,.3,1.9,0,3.9,0,6.1h23.1c0-3.2,.2-6.3,0-9.4s.4-5.2,4.1-5.2c3.5,.1,3.3,2.4,3.4,4.9,0,3.1,.3,6.3,.5,10,6.8,0,13.2,.1,19.7-.1,.8,0,2-1.5,2.2-2.5,.4-1.9,.1-4,.1-6,0-5.8,.3-6,6.9-5v12.9h25.2Z" fill="#e4d6a7"/><path d="M575.47,796.05c-9.9,2.1-10.5,1.7-13.4-7.8-11-36.5,10.6-83.7,56-92.1,42.4-7.9,78,15.9,87,58.4,4.8,22.4,.3,43.3-14.8,61.2-1.8,2.2-4,4.4-6.5,1.6-2.1-2.3-4.9-4.5-1.6-8.8,28.3-36.4,10.4-90.6-33.2-100.5-24.5-5.5-46.3,.3-63.1,19-16.7,18.6-19.5,40.8-12.1,64.4,.6,1.4,1.1,2.8,1.7,4.6h0Z" fill="#19ff00"/><path d="M595.27,963.45c-.3-26.8,15.9-47.6,38.7-51.8,26.9-5,50.6,7.2,59.3,31.2,6.1,16.9,4.2,33.8-7.2,47.6-8.2,9.9-18.8,18.5-32.6,20.1-14.1,1.6-27.4-.8-38.8-10-12.5-10.1-20.1-22.5-19.4-37.1h0Zm48.1,37.5c23.5,.5,42.1-16,41.7-38.2-.5-24-18.5-38.4-37.6-39.4-19.8-1-40.5,14.5-40.9,38.5-.4,21.5,15.7,38.6,36.8,39.1h0Z" fill="#e4d6a7"/><path d="M516.07,910.55c5.9,.6,11.8,1.1,17.7,1.7,.5,0,1,.2,1.4,.5,11.6,10.4,24.6,19.5,28.7,36.2,7.4,29.8-15.1,60.8-45.7,61.6-11.9,.3-22.3-3.8-32-11.4-13.2-10.3-19.3-23.3-19.3-39.5,.1-27.3,22.2-49.2,49.2-49.1h0Zm-.9,13.2c-21.1,.2-37,17.6-36.7,40.2,.3,21.2,16.9,37.2,38.3,36.9,21.5-.3,37.7-17.2,37.5-39-.1-21.5-17.4-38.4-39.1-38.1h0Z" fill="#e4d6a7"/><path d="M570.17,808.25c7.6-1.4,12.4,.7,17.3,6,16.8,18.1,37.7,23,61.4,17.1,5-1.2,8.6,.5,9.2,5.6,.2,1.4-2.6,4.2-4.4,4.5-8.6,1.5-17.3,3.5-26,3.2-23.3-.8-41.4-11.8-54.7-30.9-1-1.6-1.7-3.4-2.8-5.5h0Z" fill="#19ff00"/><path d="M678.97,841.25c1.8,1.1,3.6,2.2,5.9,3.5,2.1-2,4.3-4.2,6.6-6.2,1.8-1.5,4-2.7,6-4.2,1.3-.9,2.5-2,3.6-3.1,1.7-1.8,3.1-3.9,5-5.4,1-.7,3.5-.9,4.1-.2,1,1.1,1.8,3.8,1.2,4.5-6.9,8-13.8,16-21.3,23.5-1.2,1.2-5.1,.6-7.5-.2-1.8-.6-3.2-2.8-4.7-4.3-3.7-3.8-3.6-4.6,1.1-7.9h0Z" fill="#e4d6a7"/><path d="M342.17,809.85h-23c-6.8,0-13.6,.2-20.4-.2-1.2-.1-3.2-2.2-3.2-3.4,0-1.3,1.8-3.8,2.9-3.8,13.4-.2,26.9-.2,40.3,0,5.1,.2,3.5,3.9,3.4,7.4h0Z" fill="#e4d6a7"/><path d="M427.57,809.75c-13.9,0-27.1,.1-40.3-.2-.9,0-2.5-2.4-2.4-3.6,0-1.2,1.8-3.3,2.8-3.3,12.3-.2,24.5-.2,36.8,0,4.7,.1,2.7,3.8,3.1,7.1Z" fill="#e4d6a7"/><path d="M482.97,809.95c-.8-7.3-.6-7.5,5.4-7.5h27.4c1.8,0,3.5,.2,5.2,.3,1.2,7.1,1,7.2-5.5,7.2h-32.5Z" fill="#e4d6a7"/><path d="M258.37,809.85c-10.3,0-20.2,.1-30-.2-1.1,0-2.7-2.5-2.9-3.9-.1-1,1.7-3.3,2.8-3.4,9.1-.2,18.2-.3,27.3,.1,4.8,.4,2.5,4.3,2.8,7.4h0Z" fill="#e4d6a7"/><path d="M208.77,809.75h-33.8v-7.1c10.2,0,20.1-.1,30.1,0,4.6,.1,4,3.5,3.7,7.1Z" fill="#e4d6a7"/><path d="M679.67,826.85c0,4.5-3.9,7-6.9,5.1-3.3-2.1-6.5-4.6-9.5-7.2-3.4-3-3.4-6.1-.1-9.2,3-2.8,5.7-1.8,8.2,.9,2.3,2.6,4.7,5.1,7,7.8,.8,.9,1.1,2.2,1.3,2.6h0Z" fill="#e4d6a7"/><path d="M306.87,728.15c0,5.1-2.6,8.4-7,8.5-4.3,.1-7.1-3-7.2-7.7,0-5.2,3.1-8.9,7.3-8.9,3.9,0,6.9,3.5,6.9,8.1h0Z" fill="#e4d6a7"/><path d="M666.67,677.15c-1-5,.2-7.2,4.8-7,6.4,.3,12.9,.1,19.3,.7,1.5,.1,2.9,2.3,4.4,3.5-1.5,.9-3,2.6-4.6,2.7-7.8,.2-15.7,.1-23.9,.1h0Z" fill="#e4d6a7"/><path d="M491.57,728.05c0-4.6,2.9-8,6.9-8.1s7.3,3.7,7.3,8.4-3,8.2-6.9,8.2-7.3-3.9-7.3-8.5h0Z" fill="#e4d6a7"/><path d="M224.27,719.95c4,.1,7.5,4,7.5,8.5s-3,7.8-7.3,7.8-7.6-3.7-7.4-8.2c.2-4.6,3.4-8.2,7.2-8.1h0Z" fill="#e4d6a7"/><path d="M158.97,728.35c0,4.4-3.1,8.1-6.9,8.2-4,.1-7.1-3.3-7.2-7.8-.1-4.7,3.1-8.8,6.9-8.9,3.8-.1,7.2,3.8,7.2,8.5h0Z" fill="#e4d6a7"/><path d="M376.57,736.45c-4,.1-7.1-3.4-7.2-7.9-.1-5,2.8-8.6,6.9-8.7,4,0,7.4,3.8,7.3,8.4,0,4.4-3.2,8.2-7,8.2h0Z" fill="#e4d6a7"/><path d="M144.87,809.85c-3.1,0-6.3-.1-9.4,0-2.9,.1-3.7-1.2-3.7-3.9s1.1-3.5,3.6-3.4c6.3,.1,12.6,.1,18.9,0,3-.1,3.6,1.4,3.6,4s-.9,3.6-3.5,3.5c-3.1-.1-6.3,0-9.4,0v-.2h-.1Z" fill="#e4d6a7"/><path d="M634.17,676.85c-2.8,0-5.6,.2-8.4-.1-1.3-.2-2.4-1.5-3.6-2.2,1.1-1.4,2.1-4,3.3-4.1,6.2-.4,12.5-.2,18.8,.1,.8,0,2.2,2.3,2.1,3.5-.1,1-1.7,2.7-2.7,2.9-3.1,.4-6.3,.1-9.4,.1l-.1-.2h0Z" fill="#e4d6a7"/><path d="M454.47,809.95c-1.8,0-3.6-.1-5.5,0-2.7,.2-4.5-.4-4.5-3.6,0-2.9,1.2-4.1,4.2-4,4.1,.2,8.3,.3,12.4,.2,2.9-.1,3.6,1.5,3.8,3.9,.2,3-1.5,3.6-4,3.5-2.1-.1-4.2,0-6.4,0h0Z" fill="#e4d6a7"/><path d="M210.67,730.15c1.1,2.2,1.8,3.6,2.8,5.5h-12.6c2.5-3.8,4.5-6.8,6.2-9.3-1.5-1.4-2.8-2.4-4-3.5,1.8-1,4.2-3.2,5.2-2.6,1.9,1.1,3.7,3.4,4.3,5.6,.4,1.4-1.5,3.4-1.9,4.3h0Z" fill="#e4d6a7"/><path d="M360.07,725.45l-4.9-.8c.8-3.7,2.8-5.4,6.4-4.3,4,1.3,4.5,4.9,1.7,10.6,.9,1.5,1.8,2.8,3.1,4.8h-12.8c2.3-3.8,4.2-6.7,6.5-10.3h0Z" fill="#e4d6a7"/><path d="M484.47,730.35c.9,2.1,1.6,3.4,2.4,5.3h-12.1c2.5-3.6,4.4-6.3,6-8.5-1.5-1.5-2.8-2.7-4.1-4,1.9-1.1,4.2-3.4,5.5-2.9,1.8,.6,3.5,3.2,4,5.2,.4,1.7-1.2,3.7-1.7,4.9h0Z" fill="#e4d6a7"/><path d="M658.77,677.45c-2.1-.1-4-.2-6.2-.4v-13c6.7-1.2,6.8-1.1,6.8,5.2v6.5c0,.3-.2,.6-.6,1.7h0Z" fill="#e4d6a7"/><path d="M716.17,702.25c-2.7-3.5-4.9-5.8-6.4-8.5-.2-.4,3.5-3.9,3.9-3.6,2.5,1.5,4.9,3.5,6.4,5.9,.5,.7-2,3.3-3.9,6.2h0Z" fill="#e4d6a7"/><path d="M139.07,735.75h-3.8c-.2-4.5-.7-8.7-.6-13,0-1.5,1.3-2.9,2.1-4.3l2.4,1.5v15.8h-.1Z" fill="#e4d6a7"/><path d="M287.47,719.15c.3,5.5,.6,10,.7,14.4,0,.8-1.2,2.3-1.8,2.2-1,0-2.8-.9-2.9-1.6-.5-3.9-.8-7.9-.5-11.9,.1-.9,2.6-1.7,4.5-3.1h0Z" fill="#e4d6a7"/><path d="M364.07,801.35c3.9,.7,5.9,1.4,5.7,5-.2,3.1-1.2,4.5-4.4,4.5-3.9,0-4.5-2.5-3.9-5.3,.1-1.5,1.6-2.8,2.6-4.2h0Z" fill="#e4d6a7"/><path d="M702.07,687.65c-.9-1.4-2.4-2.8-2.5-4.2-.2-3.3,2-5.5,5.2-5.3,1.3,.1,3.8,2.7,3.6,3.4-.8,2.3-2.6,4.2-4,6.2-.8,0-1.5,0-2.3-.1h0Z" fill="#e4d6a7"/><path d="M672.87,866.45c-1.5-.8-2.9-1.2-2.9-1.5,.3-1.9,.2-4.5,1.4-5.5,1.9-1.6,4.6-2.1,7-2.9,.1,0,1,1.3,.8,1.5-2,2.9-4.2,5.6-6.3,8.4h0Z" fill="#e4d6a7"/><path d="M711.57,913.55c-1.6-2.6-3.2-4.1-3.1-5.5,.1-1.2,2.5-3.4,3.2-3.2,1.7,.5,3,2.3,4.5,3.5-1.2,1.4-2.4,2.7-4.6,5.2h0Z" fill="#e4d6a7"/><path d="M536.87,893.45c1.5,2.6,3.1,4.1,2.9,5.3-.3,1.3-2.2,2.4-3.3,3.5-1.1-1.2-2.9-2.4-3-3.7-.1-1.2,1.6-2.6,3.4-5.1h0Z" fill="#e4d6a7"/><path d="M392.67,992.65c-.2,4-4.6,8.1-8.7,8-4.6-.1-9.1-4.6-8.9-9,.2-4.5,4.6-8.2,9.2-7.9,4.6,.4,8.6,4.6,8.4,8.9h0Z" fill="#19ff00"/><path d="M643.37,1000.95c-21.1-.5-37.2-17.6-36.8-39.1,.4-24,21.1-39.5,40.9-38.5,19.1,1,37.1,15.4,37.6,39.4,.4,22.2-18.2,38.7-41.7,38.2h0Zm2.6-65.5c-15.5-.8-28.1,11.5-28.2,27.2-.1,15.5,12.7,28.1,27.9,27.8,15.8-.3,28-13.2,27.6-29.2-.3-14.7-12.5-26.2-27.3-25.8h0Z" fill="#444"/><path d="M515.17,923.65c21.7-.2,39,16.6,39.1,38,.2,21.8-16,38.6-37.5,39-21.3,.3-38-15.7-38.3-36.9-.3-22.4,15.6-39.8,36.7-40.1h0Zm1.5,66.2c14.2,0,25.8-12.5,25.8-27.8s-11.9-26.4-27.1-26.4c-13.3,0-25.5,12-25.6,25.4-.2,16.4,11.2,28.7,26.9,28.8h0Z" fill="#444"/><path d="M645.97,935.45c14.7-.4,26.9,11.1,27.3,25.8,.4,16-11.8,28.8-27.6,29.2-15.2,.3-28-12.3-27.9-27.8,.2-15.7,12.7-28,28.2-27.2h0Zm1.5,24.9h0c0-1.2,.4-2.5,0-3.5-.7-1.6-1.8-2.9-2.8-4.4-1.4,1.3-3.6,2.4-4,3.9-.6,2.7-.5,5.7,0,8.4,.3,1.3,2.2,2.4,3.4,3.5,1.1-1.2,2.6-2.2,3.2-3.6,.6-1.1,.2-2.8,.2-4.3h0Z" fill="#e4d6a7"/><path d="M516.67,989.85c-15.6,0-27-12.3-26.8-28.9,.2-13.4,12.3-25.4,25.6-25.4,15.2,.1,27.1,11.7,27.1,26.4-.1,15.4-11.7,27.9-25.9,27.9h0Zm3.9-28.3l-1.3-.7c0-1.5,.5-3.3-.1-4.4-.9-1.6-2.7-2.7-4.1-3.9-1.1,1.4-2.6,2.6-3.2,4.1-.5,1.2,.1,2.9,.2,4.4,.3,3.1-.8,7.7,4.2,7.2,1.7-.1,2.9-4.3,4.3-6.7h0Z" fill="#e4d6a7"/><path d="M647.47,960.35c0,1.5,.4,3.2-.1,4.4-.6,1.4-2.1,2.4-3.2,3.6-1.2-1.2-3.2-2.2-3.4-3.5-.5-2.7-.7-5.7,0-8.4,.4-1.5,2.6-2.6,4-3.9,1,1.4,2.1,2.8,2.8,4.4,.3,.9-.1,2.3-.1,3.4h0Z" fill="#444"/><path d="M520.57,961.55c-1.4,2.3-2.6,6.5-4.2,6.7-5,.5-3.8-4.1-4.2-7.2-.2-1.5-.7-3.1-.2-4.4,.6-1.5,2.1-2.8,3.2-4.1,1.4,1.3,3.2,2.4,4.1,3.9,.6,1.1,.1,2.9,.1,4.4l1.2,.7h0Z" fill="#444"/></g></g></g></g></svg>