<?xml version="1.0" encoding="UTF-8"?><svg id="b" xmlns="http://www.w3.org/2000/svg" viewBox="0 0 980.65 497.18"><g id="c"><g id="d"><g id="e"><g><path d="M731.34,234.64c3.07,4.58,6.11,9.16,9.51,14.23-10.29-1.11-18.63-2-27.5-2.96-11.72,10.14-23.61,21.39-43.59,25.36,4.02-4.85,5.96-7.18,7.89-9.51-6.29-1.53-11.8-3.2-17.45-4.02-1.47-.22-4.38,1.89-4.76,3.38-.51,2.02,0,5.51,1.44,6.6,3.87,2.93,8.56,4.76,12.74,7.31,3.33,2.05,6.38,4.56,10.36,7.42,2.93-.82,6.8-1.91,10.69-3.02l.47,1.4c-3.11,2.45-6.22,4.89-9.91,7.78,9.09,3.6,16.74,6.6,24.39,9.63l.2,3.65,8.23-8.98,2.13,.4c-.91,6.4-1.82,12.83-2.96,20.76-.2-.11,2.11,.78,4.11,2.16,14.07,9.58,15.14,22.27,4.11,34.84-10.83,12.34-25.9,16.01-40.37,18.32-6.71,1.07-14.83-6.8-22.32-10.6l2.38-4.16c3.73,2.36,7.49,4.69,11.78,7.38,10.92-18.5,31.97-18.63,53.71-25.43-7.05-7.83-12.12-15.27-18.9-20.56-9.8-7.65-21.19-13.27-31.12-20.76-3.25-2.45-4.13-8.05-7.45-15.09-5.02,3.67-10.47,7.67-17.12,12.54-2.07-2.25-5.18-5.6-8.49-9.2-9.4,.42-7.85,8.36-9.49,14.32-.91,3.31-2.73,6.36-4.16,9.51-1.6-3.07-3.2-6.14-5.49-10.56-2.13,.91-5.6,2.51-9.18,3.82-2.62,.96-5.4,1.53-8.11,2.27,1.2-3.09,1.49-7.42,3.76-9.05,5.71-4.09,8.51-8,3.93-14.16-5.58,2.22-10.94,4.36-17.7,7.05-1.11-4.2-2.05-7.76-2.78-10.56,5.58-.44,10.6-.87,15.65-1.27-16.01-4.69-17.7-7.31-16.58-22.54,.78-10.58,.16-21.27,.16-34.28-2.05,6.6-2.87,11.14-4.98,14.96-.71,1.29-4.89,1.56-7.16,.96-13.69-3.56-19.3-.18-21.9,13.61-.29,1.53-1.38,2.91-2.8,5.78-2.93-5.6-2.33-18.18-11.92-5.34-1.18-2.91-2.02-5.02-2.76-6.87-5.87,.98-11.43,1.91-19.25,3.2v81.96c5.87-5.91,10.18-10.25,15.65-15.76-2.58,10.85-4.51,19.05-6.69,28.23-2.31-2.62-4.22-4.78-6.11-6.91l-2.69,.29v38.7c7.51-6.76,13.25-11.67,18.7-16.85,7.27-6.91,17.72-7.47,25.83-1.33,5.6,4.25,11.36,8.27,17.16,12.47,.93-11.14-.73-13.47-10.03-16.74-1.91-.67-3.29-3.38-4.49-5.4-2.49-4.18-4.71-8.54-6.91-12.56,11.4-3.4,10.65-3.02,16.61,9.18,3.09,6.34,9.25,11.23,14.36,16.47,2.82,2.89,6.29,5.16,10.69,8.67-2.25-13.72-4.4-26.88-6.56-40.04,1.93-.47,3.89-.93,5.82-1.4,3.47,12.05,6.91,24.1,10.38,36.15l3.53-1.09c-2.09-6.16-4.2-12.32-6.29-18.47l2.09-1.31c8.63,11.09,17.25,22.21,26.85,34.59,5.16-1.98,11.8-4.53,18.47-7.09l2.36,1.62c-1.76,2.18-3.22,5.96-5.29,6.31-11.14,1.89-22.43,2.96-33.66,4.27-2.89,.33-5.78,.56-8.67,.84-.07,1.07-.16,2.16-.22,3.22,3.67,1.2,7.34,2.38,10.98,3.58l-.24,2.07h-16.94c5.29,9.38,15.09,9.45,23.56,.18,5.22-5.74,9.98-6.82,15.63-2.56,3.96,3,6.98,7.25,11.09,11.67-8.67,4.13-16.41,9.83-24.85,11.18-7.18,1.16-15.16-2.65-23.32-4.38,1.76,2.65,3.49,5.2,5.25,7.85-9.98,4.16-11.6,2.78-10.89-7.49-4.29-.56-8.49-1.09-14.18-1.82l-3.4,5.22c-5.09-4.2-9.25-7.63-13.43-11.07l.49,3.76c-10.49,3.87-20.81,8.25-31.48,11.47-19.54,5.89-39.37,10.8-58.84,16.87-3.98,1.24-6.91,5.8-10.78,9.23-1.69-.2-6.18-2.05-7.85-.62-2.76,2.38-4.33,6.71-5.22,10.49-1.11,4.69-1.49,9.69-1.29,14.52,.27,6.42,3.78,9.8,10.69,9.67,12.52-.24,25.03-.07,37.1-.07-6.45,8.85-6.69,8.16-26.77,14.94-9.36,3.16-19.18,3.31-28.7,8.71-7.18,4.07-20.01-1.76-30.92-3.27,3.73-2.02,7.58-4.11,13.23-7.18-2.98-2.69-5.07-6-7.31-6.14-2.05-.11-4.31,3.22-5.62,4.33-2.05-1.89-4.31-5.62-7.49-6.67-17.94-5.94-36.12-11.23-54.2-16.78-2.78-.87-6.16-1.29-8.09-3.13-11.18-10.67-21.99-3.91-33.19-.24-3.67,1.2-8.8,1.24-11.96-.53-1.85-1.04-1.11-6.69-1.8-12.58,5.49,4.42,8.71,7.02,11.96,9.63l2.05-1.82-3.27-9.05c4.47-4.89,14.54-8.31,6.31-17.81-11.83,8.29-25.36,15.38-23.65,30.88-5.91-.51-12.16,.16-17.45-1.78-17.45-6.36-34.61-13.52-51.77-20.65-16.01-6.65-31.83-13.67-49.15-21.14,4.11-2.78,8.6-5.78,13.74-9.23-5.56-5.22-11.85-5.74-18.58-2.65-10.54,4.85-20.25,2.29-30.1-2.33-12.23-5.74-24.65-11.05-37.1-16.29-5.25-2.2-12.05-2.62-8.58-11.54,.36-.89-3.91-3.58-6.67-6.02,1.87-3.6,3.98-7.65,6.02-11.6,11.23,3.33,25.52,2.38,30.83-9.56,4.4,1.18,8.89,2.38,13.38,3.58l.07,2.18c-2.11,.62-4.25,1.2-6.36,1.85-2.4,.73-5.49,.84-7.09,2.42-10.78,10.65-10.69,10.74-24.72,12.45,6.47,4.05,11.43,7.56,16.76,10.4,11.05,5.91,22.05,12.03,33.55,16.98,6.2,2.69,13.32,3.58,20.12,4.31,1.09,.11,2.73-4.82,4.67-8.49h27.03v5.4l9.74-3.09v-3.4l-16.67-3.45c3.6-10.94,15.67-13.47,31.48-4.96-2.07-10.83-11.25-12.58-18.56-15.05-2.93-1-7.69,3.42-12.52,5.82l-9.2-6.34,7.4-6.74-.29,.31c10.76,1.8,21.52,3.6,34.9,5.85-3.11-2.96-4.13-4.82-5.49-5.09-9.76-2-19.61-3.69-29.41-5.47l.22,.33c6.14-9.45-6.09-15.58-2.09-24.65l-3.53-.27-5.2,9.98c-3.98,.4-8.23,.8-13.16,1.29l2.29-7.76-3-2.58c-3.69,3.53-7.36,7.09-11.05,10.63l.2-.31c-3.42,1.18-6,6.67-10.78,0-1.47-2.07-10.47,1.27-17.43,2.33l8.18-11.76c-20.36,9.47-43.73,12.83-60.29,7.47,11.34-4.2,19.67-5.49,30.81-4.8,14.98,.93,27.32-6.98,30.9-20.54l1.18,14.32c9.54-5.65,8.69-12.58,6.98-20.32-2.82-12.8-15.09-13.58-23.7-18.32-6.74-3.71-15.32-4.42-23.23-5.49-2.67-.36-6.85,1.51-8.31,3.71-1.38,2.09-.11,5.94,0,9,3.11-.27,6.87,.51,9.2-.98,7.65-4.87,11.92-1.2,15.38,3.38-18.27,2.4-36.66,4.8-56.38,7.38l3.45,4.25c-11.09,3.42-22.61,7-34.15,10.58l-.93,4.05-8.96-12.8,7.56-11.47H2.31c-.84-6.16-1.56-11.54-2.31-17.03,12.47,.93,4.71-5.85,3.38-8.56,6.89,1.82,13.89,3.67,22.61,5.98l-8.87,4.6c3.4,2.18,5.94,3.8,9.09,5.82l3.62-6.67c8.85,8.38,17.05,3.02,24.61-.82,2.16-1.11,3.11-7,2.6-10.4-.98-6.47-3.4-12.69-5.25-19.03l-.31,.27,6.82-3.02c1.69,2.38,2.85,5.49,5.11,6.96,5.18,3.36,9.98,3.71,10.83-4.42,.11-1.09,0-2.22,.13-3.31,1.71-15.38,3.45-30.77,5.16-46.17l2.8-.13v41.68l4.07,.42c3.31-16.38,6.65-32.77,9.96-49.15l2.29,.13-4.29,55.53,5.2,.44c2.67-16.87,6.69-33.68,7.49-50.64,.53-11.6-10.96-12.92-22.99-14.69-1.8-17.52-3.67-35.35-5.51-53.2l3.65-.36,2.13,38.93c10.03-14.38,10.34-43.88,1.69-54.35h25.79v92.32l3.2,.04V110.2l2.82-1.27c3.58,3.16,7.14,6.34,9.51,8.45-2.09,4.78-4.89,8.2-4.89,11.63-.13,30.5,.09,61,.49,91.48,.11,9.51,4.94,10.45,12.6,5.14,4.94,13.38-5.91,8.34-10.85,9.76-4.25,13.12-.27,16.43,19.67,13.83v-33.9l2.07,.07,4.33,16.14c5.29-33.9,2.31-66.8-10.31-98.73l2.69-2.2c2.2,2.58,5.54,4.82,6.4,7.8,2.85,9.85,4.78,19.96,7.07,29.97,.24,1.07,.22,2.89,.78,3.07,17.72,6.27,6.74,21.07,9.34,31.75,.93,3.8-.64,8.2,.04,12.12,.64,3.67,2.78,7.05,4.8,11.8-.71,6.16-1.62,14.12-2.65,22.96,3.82-1.2,6.82-2.13,9.83-3.07-1.67,2.85-3.38,5.67-5,8.54-4.62,8.16-2.33,12.03,7.05,12.8,3.05,.24,5.98,1.85,8.49,2.67-.84,5.34-1.49,9.54-1.76,11.23,20.45,8.71,39.39,16.76,58.55,24.92-4.58,5.74-7.94,9.89-11.43,14.25-3.2-1.87-6.42-3.73-10.31-5.98,5.65-2,9.78-3.45,13.92-4.91l-.56-4.94c-8.34,0-16.67,.38-24.99-.16-4.76-.31-13.14-1.33-13.56-3.33-3.22-15.76-23.5-12.09-27.59-26.43-.62,14.14,.87,27.1,5.09,39.48l3.33-.76-1.65-6.22c9.58,8.43,18.63,18.58,29.7,25.54,13.69,8.6,29.1,14.45,43.68,21.67,7.4,3.67,14.36,6.38,22.12,.31,5.76-4.49,11.56-8.34,19.94-3.07,2.89,1.8,9.31-2.02,14.12-3.29l-.73-2.42-6.58-.8-.4-3.65c3.78-.51,7.94-2.22,11.27-1.22,3.56,1.07,6.31,4.71,9.78,7.51v13.94l-13.61,10.29,.18-3.65c-2-.91-4.11-2.78-5.96-2.56-3.38,.44-6.51,2.53-9.89,3.2-6.4,1.24-12.92,1.98-19.36,2.91l.62,3.78c4.67-1.33,9.36-2.69,12.58-3.6,4.98,10.38,8.14,20.16,13.85,28.12,9.34,13,29.83,13.2,45.99,2.49,7.34-4.87,15.41-8.6,25.88-14.36,6.11-19.36,.18-42.39-1.76-65.25-.38-4.56-7.69-8.51-11.78-12.74-.49-.51-.93-1.09-1.82-2.13l3.87-5.76c-3.89-4.87-7.25-9.07-10.6-13.25l-.31,.27c4.16,2.02,8.47,3.8,12.45,6.14,7.54,4.47,14.92,8.71,19.27,3.45,4.05,2.16,7.74,4.11,11.74,6.25-4.62,3.36-9.29,6.76-14.58,10.6,3.13,5.74,5.82,10.65,8.43,15.43-1.31,3.51-4.07,7.49-4.11,11.52-.24,17.67,.22,35.37,.67,53.04,.04,1.96,1.24,5.14,2.6,5.6,9.49,3.13,19.21,5.56,28.77,8.51,6.56,2.02,13.32,3.91,19.27,7.18,1.69,.91,.6,6.49,1.2,9.85,1.31,7.36,5.58,9.67,14.05,6.8-6.07-38.13,.91-79.01-29.34-110.95,4.91-5.82,9.05-10.74,13.92-16.47-.89,4.51-2.69,7.83-1.8,10.05,3.69,9.2,8.23,18.05,12.38,27.05,1.27,2.71,2.33,5.54,3.49,8.29l3.33-.89c-.71-4.58-1.42-9.16-2-13,3.07-1.87,9.2-3.73,9.38-6.02,.6-8.51-.29-17.23-1.53-25.74-.84-5.82-3.2-11.4-5.18-18.07-11.23,.89-24.34-2.33-36.04-11-16.38-12.14-20.23-25.36-8.56-36.3,5.22-4.91,8.4-9.29,9-16.03,4-2.2,8-4.42,12.18-6.74l6.87,10.72c1.53-.82,3.05-1.65,4.58-2.47-2.62-4.94-5.25-9.87-8.58-16.12,.22-.29,1.65-2.2,2.09-2.78-4.45-10.98-8.6-21.25-13.34-32.95,3.36-2.47,8.03-5.91,12.69-9.34l-.89-2.07c-5.36,1.51-10.72,3-17.76,4.98v-29.63l3.96-1.93c4.4,5.67,8.83,11.34,14.43,18.56,1.09-3.58,3.96-7.96,3.25-11.65-2.05-10.54-5.78-20.76-8.43-31.21-2.93-11.63-5.4-23.39-8.05-35.08l3-.78c3.36,11.16,6.71,22.3,10.07,33.46l2.29-.31c.38-5.87,.73-11.76,1.11-17.63l2.8-.04v22.27c-7.27,5.38-5.05,13.47,3.36,17.14,.22,3.98-.73,8.05,.89,10.05,1.58,1.93,5.78,1.76,12.23,3.31-6.78-12.43-11.78-21.59-16.78-30.77,6.16,2.6,12.32,5.2,20.36,8.6-.18,2.16-.51,5.96-1.02,12.12l15.03,23.16c.29-6.14,.56-12.09,.84-18.03,3.58,5.51,7.14,11,10.69,16.49l2.4-.07c-.73-9.14-1.47-18.3-2.22-27.7-10-1.62-9.6,5.6-10.6,11.58-2.2-1.09-6.07-1.87-6.36-3.31-2.18-11.49-4.02-23.1-5.18-34.75-.31-3.18,2.05-6.62,3.2-9.94l-.31-.31,11.58,32.32,4.27-1.18c6.94-15.21,3.36-30.21-2.45-45.19,6.51,4.47,5.78-1,4.74-4.05-2.56-7.42-5.96-14.56-9.03-21.81l-.29,.22c5.69,1.98,6.69-1.31,7.56-5.98,2.22-12.2,4.89-24.34,7.56-36.46,.4-1.85,1.8-3.47,5.29-4.49-1.87,10.49-4.36,20.92-5.38,31.48-.58,5.94-.16,12.76,2.36,17.98,3.16,6.54,.89,12,.64,18.18-.62,15.92-1.53,32.1,5.22,47.42,.96,2.16-1.13,5.56-1.47,8.4-.29,2.36-.07,4.8-.07,7.18l3.09,.73c3.56-5.29,8.43-10.14,10.4-15.96,4.16-12.32,7.22-14.81,19.36-10.65-.16-2.56-.29-4.74-.4-6.89,2.73,1.4,5.45,2.78,6.54,3.33,6.14-7.91,11.96-14.63,16.85-21.94,5.96-8.91,11.25-18.34,5.45-29.79,7.42,7.16,8.49,16.74,5,24.56-5.47,12.25,.33,11.98,10.11,10.18-4.25,7.27-7.74,13.67-11.65,19.79-4.18,6.54-8.14,12.85-2.31,19.81,7.89-15.69,15.74-31.28,23.59-46.86l3.18,.31c.51,3.02,1.02,6.05,1.56,9.14,10.76,2.58,15.21-.87,15.29-11.94,.04-5.78-.04-11.56,.4-17.3,.07-.93,2.53-1.71,3.89-2.56l-.18-.24,6.07,35.04,3.42-.22V57.35l2.56-.11c1.69,13.23,3.38,26.48,5.09,39.7l1.89,.31c1.51-4.65,3-9.29,4.51-13.92l2.56,.29v22.3c11.09-5.67,20.87-10.67,31.41-16.07-3.45,7.11-6.4,13.2-9.34,19.3,15.36-12.47,19.25,10.36,31.03,7.2-.44,1.67-.89,3.31-1.36,4.98l-21.54-6.18c-1.38,6.2-12.8,10.14-23.39,5.85-5.34-2.18-10.07-5.91-15.01-9-5.34-3.33-9.83-7.47-16.18-.11-2.13,2.47-9.51,.4-15.03,.4,.56-3.18,.91-5.34,1.38-8.03-16.9,7.54-25.7,16.98-28.9,29.41-10.76-.6-21.12-1.73-31.43-1.53-6.65,.13-13.43,.33-15.96,9.96-1.2,4.62-8.49,7.65-11.34,9.98,1.09,7.65,2.76,13.92,2.69,20.16-.11,10.49-5.85,13.76-14.76,7.78-5.67-3.78-9.63-10.09-14.74-15.72,.69,3.87,1.56,8.51,2.49,13.72-10.14-5.51-18.65-10.16-27.94-15.21-5.96,2.76-14.21,5.36-20.87,10.14-3.6,2.58-4.49,8.94-6.69,13.81,17.01,6.47,32.15,9.76,44.64,20.16,5.42,4.51,14.18,5.05,21.47,7.29,4.87,1.49,9.8,2.78,17.54,4.98l-6.76-8.18c9.65,.04,14.14,4.65,12.18,12.49-2.49,9.98,3.53,10.87,9.25,12.47-.64-7.98-1.27-15.74-2.09-26.12-9.43-4.27-22.23-9.71-34.66-15.92-2.73-1.36-4.11-5.45-5.36-7.22,9.89,1.69,18.43,2.96,26.85,4.74,1.76,.38,2.96,2.91,4.74,3.82,3.71,1.93,9.47,5.89,11.12,4.65,3.25-2.42,4.53-7.74,6.14-12.05,.69-1.82,.11-4.11,.11-7.87,3.11,2.36,4.85,3.65,7.31,5.51-.49-4.96-2-9.14-.84-12.36,.89-2.47,5.14-3.73,9.29-6.42v20.43c9.18-3.09,7.11-18.9,18.38-15.41,7.45,2.31,13.54,9.07,21.01,14.38-6,12.47-12.03,25.01-18.47,38.46,9.83,1.38,16.45,.53,17.74-9.58,.13-1.09-.04-3.02,.42-3.18,17.58-6.34,5.65-20.34,7.54-30.5,2.33-12.56,2-25.61,2.82-38.44l4.6,.16c0,6.4-.07,12.83,0,19.23,.16,13.2-.18,26.45,1.18,39.53,.24,2.25,7.8,4.4,12.23,5.18,1.89,.33,4.89-2.58,6.49-4.69,1.13-1.51,.73-4.16,1.13-7.18,6.6,2.16,12.63,4.13,20.19,6.6,.73-11.87,3.47-22.9-4.09-32.35-6.4-8-13.94-15.14-21.65-23.39,5-2.49,9.74-4.45,14.05-7.07,5.74-3.49,9.54-1.62,10.72,4.18,1.44,7.07,5.29,11.6,11.83,8.71,3.27-1.44,6.71-9.23,5.49-12.27-1.36-3.36-8-4.58-12.34-6.74-.6-.31-1.18-.71-3.8-2.31,3.91-1.53,6.47-3.33,9.05-3.42,10.27-.33,20.67,.78,30.83-.38,9.51-1.09,18.76-4.38,30.01-7.18,2.33,4.98,5.29,11.34,8.27,17.7l-3.49,1.58c-.96-2.16-1.91-4.33-2.87-6.49l-2.47-.22c-1.2,6.34-2.4,12.69-3.6,19.03,1.42,.8,2.87,1.6,4.29,2.38,3.16-4.13,7.27-7.87,9.18-12.49,2.02-4.91,1.91-10.69,2.98-17.76,4.78,3.85,8.34,6.71,13.76,11.09-5.07-25.54-9.98-50.22-15.34-77.23,3.87,5.29,7.38,8.83,9.27,13.07,2,4.51,2.42,9.71,5.94,14.89,3.05-8.43,7.36-16.63,8.8-25.32,1.53-9.14,.33-18.74,.33-29.14,1.89,1.49,3.91,2.36,3.89,3.18-.27,15.72,.4,31.59-1.51,47.13-2.29,18.38-8.23,36.52,.44,54.71,1.07,2.25,2.4,4.36,3.65,6.6,3.76-3.02,7.25-5.4,10.14-8.38,1.33-1.38,2.69-4.98,2-5.74-8.16-9.05,1.85-16.7,1.87-25.03,0-.71,4.05-1.4,5.98-2.02,.36-6.38,.73-13.38,1.11-20.36l2.78,.11v18.7l3.05,.91,8.67-22.79,1.47,.33c-1.22,5.78-2.45,11.56-3.93,18.61l10.11-3.6c-6.71,8.56-14.38,16.47-19.76,25.72-5.42,9.31-10.74,19.61-3.56,33.19l-14.12-2.67c-2.16,3.2-4.51,6.69-6.87,10.18l1.02,2.25c8.89-2.91,17.78-5.82,26.65-8.71l1.04,3.29-6.36,3.27c-.91,8.98,3.05,14.54,10.98,19.03,7.67,4.33,10.85,12.07,8.71,21.21l.27-.29c-6.05-.33-12.12-.64-18.85-1.02,.38-9.45,8.49-5.14,14.43-6.49-10.49-3.07-15.92-16.16-29.48-12.23-12.98,3.76-26.12,7.09-39.37,9.6-8.94,1.69-18.18,1.91-27.3,2.25-14.05,.51-16.9,3.69-15.18,18.96h10.67c.18,.93,.36,1.85,.53,2.78-4.47,1.33-8.96,2.65-15.76,4.67,1.18-10.45,2.2-19.34,3.56-31.34-4.33,2.05-8.03,3.8-11.69,5.56-1.82,.73-3.65,1.44-5.45,2.13,4.05-13.34,13.92-12.78,24.5-11.83,12.94,1.16,14.01-.58,10.25-13.34-10.8-1.33-21.67-2.65-32.52-4.05-10.87-1.42-13,.49-12,11.74,.44,5.11,2.07,10.11,2.31,15.23,.24,5.45-.53,10.92-.98,18.56l13.65,8.16v-26.92c1.6,4.82,3.87,9.54,4.6,14.47,.8,5.36,.18,10.92,.18,17.16,5.45,.47,10.49,.89,15.54,1.31l-.96,4.33c-11.09-2.73-22.16-5.47-34.26-8.45,.78,8.49,1.24,18.52,2.98,28.32,.36,1.96,5.38,3.73,8.49,4.36,2.69,.53,5.76-.69,8.91-1.18,.22-6.45-.31-16.01,9.29-16.47,15.45-.76,8.58,12.38,10.49,20.83,6.05-5.58,11-10.2,6.02-19.41-2.96-5.47,1.56-7.25,6.45-5.89,4.42,1.22,8.65,3.16,12.96,4.78l1.89-2.4c-1.82-1.69-3.36-4.07-5.51-4.98-12.09-5.16-12.92-7.16-6.29-18.67,1.96-3.4,4.22-6.6,7.38-11.47-.73,8.87-1.31,16.05-2,24.34,5.85,3.71,12.4,7.89,18.96,12.07l-.29-.27h0l.02,.02Zm-234.69,33.66c-6.47-.53-13.18-1.71-16.18,6.42l.29-.29c-6.45,3.89-12.89,7.78-19.34,11.67l.49,2.02h16.16l.96,3.56c-6.76,1.65-13.54,3.29-21.56,5.27,12.76,14.72,11.67,30.5,3.73,44.17-8.98,15.49-8.47,30.86-7.83,43.88,8.6-7.94,18.07-16.63,27.14-24.99-.31-6.69-.71-14.94-1.11-23.16l3.27-.09c0,3.89-.36,7.85,.11,11.67,.4,3.38,1.71,6.67,2.6,10l2.71-.49,2.82-13.45,4.05,1.24c-2.13,7.31-4.29,14.63-6.62,22.63h12.6c-9.76,12.14-28.3,9.47-39.21,24.94-7.22,10.25-5.62,16.7-4.16,25.39l2.76,.22v-17.47c6,7.22,10.47,2.47,15.29-1.78v8.65c8.05-4.91,20.79-3.87,15.67-18.98-.56-1.65,5.56-7.89,8.67-7.96,9.89-.2,11.49-6.14,11.6-13.56,.13-8.4-.31-16.83-.56-25.23-.16-5.49-10.6-13.47-16.25-12.47-2.16,1.89-4.31,3.8-5.65,4.98v-24.76c-6.4,5.27-11.87,9.76-18.58,15.29-1.73-10.69,6.09-14.49,12.27-20.14l-12.63-2.67,.31-2.56h13.65c.47-3.45,.82-5.89,1.27-9.18,15.96,1.24,21.25,13.49,28.12,25.99,.44-8.14,1.09-15.09,1.04-22.03,0-2.91-.87-6.36-2.58-8.6-4.89-6.4-10.45-12.29-15.76-18.41,5.62,3.38,11.23,6.76,18.34,11.03,0-6.69,.38-11.05-.09-15.29-.84-7.8-10.49-13.03-17.14-8.6-6.4,4.27-11.92,6.07-19.01,1.78-2.02-1.22-5.56,.07-8.09,.18v10.63c9.36,2.38,17.61-9.18,26.37,.6l.04-.04h0Zm-68.25,206.56l1.69-5.11-27.14-9.16c6.02-1.18,12.16-2.36,18.27-3.53,1.69,1.36,4.91,4.96,5.74,4.47,5.98-3.53,11.49-7.89,17.56-12.29-6.51-4.05-11.96-7.45-18.05-11.23l-4.65,10.31c-1.53-7.96-1.93-16.72-13.29-9.87-1.44,.87-5.87-1.51-7.78-3.47-5.4-5.51-10.45-9.18-18.01-3.22-3.07,2.42-7.2,3.51-11.34,5.42-2.56-2-5.31-4.16-8.25-6.47,1.91-3.53,3.51-6.51,5.54-10.23h-19.12c-3.51,4.6-6.78,7.89-8.8,11.8-1.85,3.62-2.33,7.94-3.42,11.94,1.24,.29,2.49,.56,3.76,.84,.87-3.09,1.73-6.2,2.6-9.29l3.56,.6c-.49,3.98-.98,7.98-1.78,14.63,27.39,7.87,55.13,15.85,82.9,23.83h.02v.02Zm-136.94-47.97c3.33-2.58,6.34-4.89,10.36-8.03-5.05-3.33-10.05-5.76-13.83-9.43-2.6-2.51-5.87-8.58-4.82-9.89,5.45-6.94,.8-10.49-3.98-12.92-3.18-1.62-7.67-.69-10.31-.82,4.16,8.63,7.6,15.78,11.05,22.92-10.45-4.16-18.32-10.74-27.19-15.43-5.78-3.07-14.58-6.65-19.23-4.36-11.83,5.85-22.07,14.89-32.95,22.65l2.56,5.07,17.92-6.02c.6,2.93,.78,8.34,1.96,8.56,5.02,.96,10.34,.42,17.9,.42,11.23,7.94,22.41,6.76,33.59-3.53,5.42,3.45,10.92,6.91,17.03,10.8h-.04Zm241.16-188.29l4.78,1.71c5.22-10.69,10.45-21.39,15.94-32.66,2.13,1.09,5.22,2.69,8.98,4.6,4.8-6.14,9.56-12.25,14.34-18.36l-1.78-1.31c-6.85,3.27-13.69,6.56-20.52,9.83l-1.51-1.78c2.42-4.16,4.85-8.34,8.14-13.98-6.11,5.16-10.98,9.25-15.81,13.32-1.82-5.07-3.05-8.49-4.27-11.92l-4,1.18c.84,4.74,1.69,9.45,2.58,14.36-3.47-.33-6.4-.6-8.8-.84,.69,12.49,1.33,24.12,1.96,35.77v.09h-.02Zm75.41,22.23c2.02-.07,4.07-.13,6.09-.2,1.87-15.92,3.73-31.86,5.56-47.35-11.78-3.73-16.03-.96-15.34,8.96,.47,6.98-.38,14.07,.22,21.03,.51,5.91,2.27,11.72,3.49,17.56h-.02Zm16.78-6.05l1.47,.22c1.31-5.91,2.65-11.83,3.96-17.74l1.42,.42c.78,8.94,1.53,17.87,2.31,26.83l5.87-.13c0-14.87-.13-29.74,.04-44.62,.09-7.14,.33-7.14-7.63-7.07-2.51,6.16-6.16,11.98-7.16,18.25-1.24,7.78-.29,15.89-.29,23.88v-.04h0ZM96.64,143.94l.53,.13c0,4.02-.67,8.2,.2,12.05,.76,3.38,3.2,6.38,4.91,9.54,2.18-3.18,5.89-6.2,6.25-9.56,.93-8.98,.56-18.1,.4-27.17-.04-2.67-1.04-5.29-1.6-7.96-2.62,1.38-6.96,2.25-7.56,4.22-1.82,6-2.2,12.43-3.13,18.7v.04Zm375.09,101.75l3.38,3c5.22-3.73,14.92-7.69,14.76-11.18-.36-7.42-5.82-14.58-9.58-22.68-13.14,9.96-7.47,21.03-8.54,30.86h-.02Zm71.89,136.07c2.4-3.09,5.25-8.91,6.94-8.58,14.01,2.6,10.96-7.85,12.58-15.36-4.13-2.67-8.29-5.36-12.07-7.78-6.6,10.27-19.01,18.52-7.45,31.75h0v-.02ZM89.52,298.82l-1.89-14.01c-10.38,.78-21.92,1.67-35.08,2.65,2.18,6.14,3.53,10.03,4.91,13.92l2.62-.8-.64-6.65c10.34,1.67,20.47,3.31,30.08,4.87h0v.02Zm518.88,86.72c-.22-1.24-.44-2.47-.67-3.71-5.74-2-10.94-8.31-17.67-.49-3.89,4.51-8.87,8.11-13.36,12.12,.36,.76,.73,1.53,1.09,2.29,10.2-3.4,20.41-6.8,30.59-10.23h.02v.02ZM90.57,173.66c2.49,10.27,8.07,14.89,16.45,14.81,1.16,0,4.13-7.98,3-11.05-3.87-10.47-11.8-3.49-19.45-3.76Zm44.08,105.48c2.42-7.74,4.38-13.94,6.6-21.01-11.05,5-20.52,9.27-29.99,13.54l1,3.69c5.47-.84,10.92-1.69,17.74-2.73l4.67,6.49h-.02v.02Zm-45.73-12.89c-7.22-.31-11.58-1.8-14.32-.31-3.47,1.87-6.22,5.87-8.03,9.58-.62,1.29,2.93,6.49,3.76,6.31,3-.67,5.94-2.56,8.34-4.6,2.93-2.49,5.34-5.62,10.23-10.96h.02v-.02Zm374.09,142.63c.44,6.36,.76,10.8,1.13,16.58,6.69-5.42,19.61,2.09,20.14-11.2-7.2-1.82-13.67-3.45-21.27-5.38h0Zm-184.67-49.57c-11.76,7.42-22.52,8.63-33.01-1.4-1.93-1.85-5.98-1.44-9.98-2.27,8.65,15.38,31.68,17.36,42.99,3.67h0Zm8.8,74.05c-10.05,2.51-16.09-8.36-25.1-2.09,2.53,5.4,4.51,9.69,6.78,14.49,4.94-3.33,9.69-6.56,18.32-12.4Zm259.07-38.86c-5.14-7.29-9.85-13.96-14.98-21.23-5.58,7.85-5.98,13.36-1.16,16.54,.38-1.56,.56-2.93,1.07-4.2,.42-1.04,1.29-1.89,2.2-3.18,5.51,9.65,8.4,12.67,12.87,12.07h0ZM152.75,263.61c-3.31,6.11-14.38,10.18-5.78,19.96,15.87-2.25,3.31-13.56,5.78-19.96Zm168.97,185.07c7.25-.22,17.16-14.27,14.14-19.36-.64-1.09-5.38-1.4-5.65-.84-3.07,6.49-5.67,13.23-8.49,20.21h0Zm252.09-65.58l4.54-1.62c3.93-8.4-1.11-13.03-7.18-17.23l-3.91,1.49c2.18,5.78,4.36,11.58,6.56,17.36Zm-77.21-234.02l2.36,1.82c6.45-5.09,16.9-7.02,15.21-18.56-1.02-.78-2.02-1.58-3.05-2.36l-14.49,19.12h0l-.02-.02Zm213.3,9.51c-.6,1.44-1.2,2.89-1.82,4.33,6.78,2.98,13.54,5.94,20.32,8.91,.71-1.67,1.4-3.33,2.11-5-6.87-2.73-13.74-5.49-20.63-8.23h0l.02-.02Zm-244.02,64.8l-19.7,11.2c8.45,.89,13.94,1.47,20.36,2.13-.13-2.58-.33-6.67-.67-13.34Zm-30.12,258.03c10.85-14.34,10.63-19.67,0-22.03v22.03Zm8.03-210.12l-3.11-1.71c-4.36,1.76-8.69,3.51-13.05,5.27l-.87,2.6c3.51,.96,7.6,3.47,10.36,2.42,2.89-1.07,4.49-5.58,6.67-8.58h0Z" fill="#41463d"/><path d="M936.06,228.46c12.09,6.18,24.23,12.36,36.3,18.58,3.22,1.67,6.31,3.58,8.29,4.71-11.69,1.31-23.5,2.13-35.08,4.2-4.2,.76-7.6,5.67-11.83,6.51-5.87,1.18-12.14,.29-20.54,.29-1.6,2.58-4.45,7.16-7.18,11.56-2.47-2.31-5.6-7.58-8.67-7.54-3.58,.04-7.05,4.78-10.65,7.38-1.47,1.07-3.11,2.49-4.76,2.62-10.94,.93-21.92,1.58-35.81,4.02l10.58,3.78c-8.47,3-13.89,4.94-21.92,7.78,10.2,11.43,20.03,22.43,30.08,33.68-12.69,7.83-21.56,8.54-33.21,2.31,2.05,3.33,4.29,5.36,4.16,7.22-.18,2.53-1.62,5.69-3.58,7.14-1.6,1.18-5.67,1.27-7.09,.04-6.2-5.4-11.67-11.67-17.76-17.23-4.67-4.27-5.96-12.54-16.07-10.92-2.85,.47-7.29-8.96-12.2-13.12-.24,8.03,3.16,13.14,10.78,17.63,9.76,5.76,18.21,13.69,27.21,20.7-.8,1.6-1.62,3.2-2.42,4.8-4.33-1.11-10.14-.82-12.76-3.56-8.56-8.96-16.61-18.56-23.61-28.77-7.09-10.34-12.92-11.67-21.92-2.65,5.82,4.16,11.6,8.27,20.65,14.74-6.51-.36-10.49,.31-13.72-.93-6.47-2.51-12.34-6.54-18.81-9.03-5.89-2.29-12.34-3.11-18.36-5.16-2.71-.91-4.98-3.18-7.47-4.85,2.18-1.31,4.18-3.07,6.54-3.87,9.23-3.11,18.54-5.89,28.74-9.09-2.33-3.53-4.78-7.2-7.2-10.89,.58-.84,1.16-1.67,1.73-2.51,6.74,3.69,13.47,7.38,21.9,12,4.49-3.82,10-11.67,20.45-10.11,1.4,.2,3.56-4.6,5.89-7.83,.96,.69,3.11,2.2,5.89,4.16,2.67-6.56,5.16-12.63,7.29-17.9,5.87-1.2,11.03-2.25,16.94-3.47,.58,2.31,1.51,6.14,3.29,13.29,3.07-7.05,4.96-11.43,7.51-17.32,1.58,7.02,2.85,12.74,4.11,18.34,12.23-3.87,23.54-7.47,37.08-11.76-5.91-4.36-9.98-7.36-14.05-10.36l.96-1.96c4.56,1.58,9.11,3.16,14.72,5.09v-23.99c-7.11-6.45-14.43-13.32-22.1-19.74-1.44-1.2-5.56-1.62-6.49-.6-7.63,8.4-16.25,6.6-26.85,3.22l4.87-3.53c-11.83-14.07-2.89-29.83-2.91-44.79,.89,3.07,1.76,6.14,2.69,9.4,2.82-4.07,1.49-10.89-4.05-20.47,4.16,1.38,8.18,10.49,12.07,27.34,7.65-7.36,14.76-14.18,23.54-22.63-2.76,12.43-4.18,23.81,10.2,30.08-18.83-6.25-8.4,9.45-13.83,13.18,8.05,0,14.96-1.02,21.41,.29,6.4,1.31,12.34,4.94,18.38,7.51,3.82-13.29,7.63-26.59,11.45-39.86l2.62-.2c.58,2.36,1.69,4.71,1.62,7.05-.09,3.29-1.56,6.56-1.53,9.83,.09,13.47-5.22,29.32,16.74,33.86l-2.16,2.6c-4.91,.67-9.83,1.31-17.87,2.4,6.22,3.49,9.85,5.51,15.18,8.51-4.36-.29-6.98-.47-10.54-.69,.49,4.51,.98,8.83,1.53,14.05,8.31-5.45,15.14-9.91,21.99-14.41l-.33-.31-.07,.09h0Zm-45.59,3.82c-1.58,1.2-3.13,2.4-4.71,3.6,4.51,6,9.03,12,13.56,18.03l5.2-1.89c-.87-12.4-1.6-24.83-2.85-37.19-.09-.89-3.91-1.42-5.78-2.05,1.65,10.98,3.16,20.99,5.09,33.9-4.91-6.74-7.69-10.56-10.49-14.38h-.02v-.02Zm-8.45-26.41c4.18,7.05-3.73,19.61,10.03,22.05-.64-6.82-1.22-13.09-1.87-19.83l-8.16-2.22Zm-43.68-2.71c10.14-3.36,10.58-6.76,2.45-17.25-.8,5.71-1.56,10.96-2.45,17.25Z" fill="#41463d"/><path d="M416.2,226.04c-9.74-1.67-14.03,2.93-13.61,12.98-12.65-6.58-8.54-17.5-8.25-27.3h-23.7c-.87,13.49,20.34,3.76,16.47,19.7-12.16-2.16-24.39-4.33-36.61-6.51l2.09-3.02v-16.03c-5.58,6.07-9.11,9.96-13.29,14.52-3.45-3.96-5.96-6.94-8.58-9.83-4.78-5.27-8.89-11.12-16.67-2.56-1.8,1.98-8.98-.91-14.41-1.65-.24,3.05-.56,6.65-.84,10.23l-2.25,.53c-1.85-4-3.69-8-6.49-14.09-2.69,3.91-4.49,6.51-6.25,9.05,3.49,3.07,6.14,5.4,8.76,7.71-12.38-2.09-22.14,.67-32.21,6.29-6.87,3.82-15.74,3.89-23.1,7.05-17.38,7.45-34.39,15.74-51.8,23.81-2.07-2.91-4.54-6.4-7.02-9.91,6.91-9.47,13.81-18.94,22.19-30.43,.49,7.94,.91,15.18,1.44,23.7,11.92-4.22,23.05-5.87,21.3-21.25,6.94,1.76,12.8,3.25,20.41,5.16-2.02-10.16-3.93-19.74-6.07-30.46,5.8,4,10.36,7.14,15.63,10.76-3.6-9.69-8.27-17.32-8.85-25.23-.53-7.34,3.31-14.98,6.31-22.23,8.96,19.54,16.49,38.81,11.09,60.67,5.51-.8,9.98-1.47,14.52-2.13v-31.77c11.43,12.96,29.41,15.96,41.73,7.89,2.07-1.36,3.09-5.58,3.13-8.49,.24-25.7,.13-51.42,.13-77.12l3.96-.04c0,6.38-.04,12.78,0,19.16,.07,7.18,.78,13.94,10.78,12.27-.82,18.61-1.6,36.48-2.4,54.35h2.91c-.24-3.33-1.44-7-.49-9.96,1.2-3.69,4.22-6.78,6.45-10.14,1.6,3.18,3.25,6.34,4.76,9.56,.56,1.18,.8,2.51,1.18,3.78l3.51,.27c1.22-9.87,2.42-19.74,3.65-29.63l3.82,.6v23.76c2.2,0,4.02,.27,4.11-.04,2.38-6.91,5.56-13.74,6.6-20.9,2.18-14.92,3.22-29.99,4.91-46.86,5.85,2.67,8.65,3.96,11.43,5.22l-.29,1.82-8.25-1.16c2.02,12.49,3.96,24.45,5.96,36.84,8.91-4.51,17.38-1.02,25.41,10.45l-7.85,3.93v17.9c-10.54-9.18-24.28-9.16-30.32-.42-1.51,2.2-1.22,6.58-.13,9.31,.78,1.93,4.27,3.85,6.6,3.89,3.93,.07,7.91-1.33,12.76-2.29l10.25,12.56c4.98-2.67,8.09-4.36,11.18-6.02l1.31,1.22c-4.58,5.65-9.18,11.27-13.76,16.92l2.6,3.05c5.38-2.56,10.76-5.09,16.67-7.91-.84,2.78-1.71,5.65-2.58,8.51h.04v-.02Zm-41.02-83.9v30.59c6.94-2.98,8.05-14.89,0-30.59Zm-33.68,69.43l3.09-17.7c-11.45,4.78-13.69,9.69-3.09,17.7Z" fill="#41463d"/><path d="M786.51,226.55c2.8,5.22,7.63,11.52,9.6,18.61,1.87,6.74,.76,14.29,.96,21.5-7.27-1.31-14.72-2.02-21.76-4.13-3.87-1.18-7.05-4.71-10.18-6.94,3.67-2.56,6.45-4.51,11.03-7.71,1.71,4.2,3.42,8.38,5.54,13.54,1.89,.09,5.4,.24,9.18,.42-4-14.58-7.2-29.37-26.43-29.43-1.6-8.29,2.93-7.78,8.27-6.94,4.29,.69,8.67,.69,13.78,1.07h.02v.02Z" fill="#41463d"/><path d="M794.96,199.76c2.51-.22,5.05-.44,6.71-.6,.71-6.27,1.4-12.16,2.07-18.03h2.2c.8,7.6,1.6,15.18,2.53,24.12,7.76-12.52,5.29-25.41-6.38-31.92h10.98c-.56-3.62-1.07-7-1.71-11.29-3.45,.91-5.96,1.58-8.47,2.25l-1.2-1.44c5.51-3.73,11.05-7.45,16.25-10.98,0,14.45,.69,31.97-.53,49.37-.27,3.76-7.38,7.02-10.94,10.16-4.62-4.94-7.89-8.45-11.18-11.94l-.29,.29h-.04v.02Z" fill="#41463d"/><path d="M136.23,217.84c4.09-9.94,3.78-17.23-6.96-22.68-6.6-3.36-1.44-15.56,7.71-18.32-2.47-1.73-4.76-3.33-8.65-6.05,5.51-1.76,9.25-2.96,13.83-4.42l.58,11.96c-5.36,4.2-9.2,7.2-13.03,10.2,3.65,3.22,7.31,6.45,13,11.47-.58,3.6-1.73,10.67-2.89,17.72l-3.58,.09h0l-.02,.02Z" fill="#41463d"/><path d="M731.65,234.93c-1.78-4.74-3.56-9.49-5.34-14.21,10.96-6.78,13.49-5.8,14.81,5.58,3.51-2.29,7.02-4.6,10.52-6.91,.62,.64,1.24,1.27,1.87,1.91-2.38,5.65-4.78,11.27-8.29,19.58-1.04-4.91-1.51-7.02-1.96-9.16-4,.98-7.96,1.96-11.92,2.93l.31,.29h0v-.02Z" fill="#41463d"/><path d="M345.06,82.81c-1.13-1.29-2.33-.53-16.27,12.25l-2.56-1.53c3.71-6.16,6.11-14.07,11.45-17.98,5.96-4.38,14.56-5.11,22.74-7.65,.51,10.65,1.04,21.65,1.6,32.66l-2.29,.11c-.8-8.83-1.6-17.63-2.4-26.45l-3.2-1.6c-3.07,3.47-6.14,6.91-9.05,10.2h-.02Z" fill="#41463d"/><path d="M465.04,92.9c-1.13-16.07-2.29-32.12-3.31-46.37l7.83,6.42-.33-.27,4.85,17.12c-7.4,.31-5.2,5.31-4.56,9.45,.82,5.4,1.82,10.78,3,17.65-4.05-2.25-5.91-3.27-7.78-4.31l.31,.31Z" fill="#41463d"/><path d="M936.39,228.75l-1.18-10.27,3.65-.56c2.07,2.67,4.13,5.31,6.22,7.98l1.4-.84c-.67-1.85-1.76-3.69-1.85-5.58-.09-1.56,1-3.16,1.58-4.76,1.8,.73,4.76,1.04,5.18,2.27,1.91,5.38,3.09,11,4.89,17.87-8.07-2.58-14.16-4.51-20.23-6.45,.02,0,.36,.31,.36,.31h-.02v.02Z" fill="#41463d"/><path d="M121.16,368.16c8.05,.22,13.65-12.58,22.14-1.62-8.4,11.87-11.36,12.25-22.14,1.62Z" fill="#41463d"/><path d="M605.65,60.64c-2.47-20.12-4.91-40.24-7.38-60.36l2.76-.29c2.27,17.7,4.62,35.37,6.62,53.09,.27,2.29-1.47,4.82-2.22,7.27,.04,.04,.22,.29,.22,.29Z" fill="#41463d"/><path d="M469.57,52.95c-1.4-9.49-2.78-18.98-4.18-28.48,13.47,7.6,6.85,18.78,8.2,28.45l.29-.22h-4.65l.33,.24Z" fill="#41463d"/><path d="M640.35,344.37c2.31,5.14,5.02,10.14,6.69,15.47,.62,2-1.13,4.76-1.82,7.18-2.8-1.36-7.87-2.53-7.98-4.09-.44-6.11,.67-12.32,1.18-18.5l1.91-.07h.02Z" fill="#41463d"/><path d="M625.92,190.03c-1.13-5.36-2-10.78-3.49-16.03s-3.62-10.31-5.27-14.92c11.07,5.11,12.83,9.98,8.76,30.94Z" fill="#41463d"/><path d="M438.47,64.49c6.4,8.8,15.27,15.41,2.78,28.17-1.04-10.63-1.82-18.63-2.78-28.17Z" fill="#41463d"/><path d="M196.52,356.53c-11.87-5.91-23.74-11.83-35.59-17.74l-.2,.31c3.78,1.04,7.69,1.78,11.32,3.2,8.2,3.2,16.27,6.74,24.41,10.14l-.22-.33v4.71l.29-.31h0v.02Z" fill="#41463d"/><path d="M533.82,287.26c-8.38-1.82-9-5.82-2.87-24.85,.91,7.91,1.82,15.83,2.87,24.85Z" fill="#41463d"/><path d="M34.84,270.74l2.8,6.89,8.51-12.38,3.58,2.07c-2.4,4.07-4.31,8.58-7.42,11.98-1.27,1.4-6.16,1.49-7.65,.18-1.91-1.67-2.07-5.36-2.98-8.16l3.13-.58h.02Z" fill="#41463d"/><path d="M51.82,252.72c-1.33-2.62-4.07-5.45-3.73-7.87,.91-6.67,3.07-13.18,4.76-19.83,10.23,8.94,1.8,18.47-1.33,27.94l.29-.24h.02Z" fill="#41463d"/><path d="M477.93,186.51c-9.47-1.16-18.92-2.29-28.39-3.45,9.45-1.96,19.18-7.29,28.39,3.45Z" fill="#41463d"/><path d="M530.95,165.39c-7.94,3.27-14.87,7.14-19.32-3.16,7.51-8.25,12.6,.33,19.32,3.16Z" fill="#41463d"/><path d="M241.56,118.87l13.63,27.14-3.69,1.85c-4.38-8.91-8.74-17.83-13.12-26.77l3.18-2.25h0v.02Z" fill="#41463d"/><path d="M345.71,115.35v37.06l-1.65-.04v-36.88l1.65-.13Z" fill="#41463d"/><path d="M837.49,244.36c1.27-9.14,3.78-11.52,10.25-5.87,1.04-.58,1.78-.82,2.29-1.31,2.22-2.16,4.38-4.38,6.56-6.56,.91,1,2.67,2.82,2.6,2.89-2.42,2.49-4.69,5.54-7.69,7-3.67,1.8-8,2.29-13.98,3.85h-.02Z" fill="#41463d"/><path d="M527.22,194.85c-3.91-2.85-6.82-3.89-7.05-5.31-.58-3.96-.36-8.14,.33-12.09,.16-.93,3.42-1.31,5.25-1.96,.13,3.07,.2,6.16,.4,9.23,.16,2.42,.49,4.82,1.04,10.16h.02v-.02Z" fill="#41463d"/><path d="M449.85,94.63c1.53,5.2,3.09,10.4,5.56,18.76-5.14-2.49-9.38-3.29-9.8-5-1.04-4.27-.33-8.96-.33-13.47l4.58-.29Z" fill="#41463d"/><path d="M577.48,274.12c-2.67-6.94-12.67-9.54-12.6-18.07l3.65-2.18c3.96,6.18,7.94,12.34,11.89,18.52l-2.93,1.73Z" fill="#41463d"/><path d="M552.16,462.62c-2.91,1.53-5.85,4.31-8.74,4.27-2.65-.04-5.25-3.16-6.96-7.14h14.58l1.09,2.87h.02Z" fill="#41463d"/><path d="M179.38,205.65c1.11-8.05,2.22-16.09,3.31-24.14l3.13,.42c-1.09,8.07-2.16,16.16-3.25,24.23l-3.2-.53h0v.02Z" fill="#41463d"/><path d="M665.56,379.78c4.47,1.73,8.96,3.42,13.32,5.42,.11,.04-1.33,3.47-2.05,5.34-4.42-1.96-8.85-3.89-13.25-5.85l1.98-4.89h0v-.02Z" fill="#41463d"/><path d="M556.43,467.62c-.2-3.31-.62-5.09-.33-6.74,.58-3.53,1.53-6.98,2.33-10.47,1.42,.84,4.02,1.67,4.07,2.56,.13,4.02-.27,8.09-.93,12.07-.13,.8-2.31,1.22-5.11,2.6h-.02v-.02Z" fill="#41463d"/><path d="M349.51,290.2c-1.71,.07-4.96,.18-4.96,.22,.33,14.12-8.56,10.49-16.56,8.83-1.27-.27-2.73,.51-4.76,3.13,5.78,1.8,11.58,3.6,17.36,5.4l-.78,2.27c-2.36-.8-4.71-1.6-8.51-2.89,0,5.78-1.44,11.34,.44,15.38,1.58,3.42,7,5.07,11.34,7.89,.04-.22-.33,1.4-.73,3.02l1.65,1.85c5.87-4.49,11.74-9,17.61-13.52,1.27,5.16,11.16,10.54,1.42,19.32-1.44,1.29,1.78,7.74,3.4,14.01-11.78-5.2-25.12-19.96-32.92,4.89-1.8-5.56-3.05-9.34-4.33-13.32,2.45-.91,4.62-1.71,8.11-3.02-2.45-1.85-3.93-3.82-5-3.62-12.03,2.31-18.61-1.29-18.5-14.72,0-2.58-4.29-5.18-6.6-7.78-1.47,3.49-2.93,6.98-5.29,12.58-1.47,.31-5.29,1.71-9.14,1.8-3.22,.07-6.47-1.4-9.71-2.2,2.45-2.8,4.51-6.11,7.45-8.25,3.42-2.49,7.87-3.53,11.43-5.89,6.6-4.38,6.2-9.27-1-12.34-9.78-4.18-19.72-7.96-30.12-12.12-.4-4.58-.89-10.27-1.42-16.43,4.18-1.65,8.18-3.2,13.05-5.11l-5.14-6.74,1-1.82c2.73,1,5.42,2.29,8.25,2.91,3.62,.8,7.38,1.24,11.09,1.4,.58,.02,2.11-2.85,1.73-3.47-.78-1.27-2.47-2.27-3.98-2.73-3.29-1.02-6.71-1.65-10.07-2.42l.78-3.45c9.38-.51,18.85-.47,28.17-1.62,17.34-2.13,27.9,6.87,27.77,26.08,13.72-6.25,26.85-12.2,37.01-16.83-8.51,8.45-19.18,19.01-29.83,29.59l.31-.24v-.04h0Z" fill="#41463d"/><path d="M432.98,300.11c-4.45,1.8-8.89,3.62-13.34,5.42l-1.6-2.71c1.65-2.38,3.29-4.76,6.25-9-10.29,3.69-16.29,1.78-17.81-11.07-2.6,7.56-4.13,12.07-5.82,16.98-5.87-4.67-10.47-8.29-16.54-13.12,6.94-1.93,13.69-3.82,20.52-5.74,4.69,2.58,9.69,5.31,14.67,8.07,4.71,2.58,9.43,5.16,14.14,7.74l-.47,3.4h0v.02Z" fill="#41463d"/><path d="M224.55,277.28l3.33,6.82,3.18-.2c0-4.38,.44-8.8-.09-13.09-1.31-10.36,3.02-14.03,20.52-15.76l-7.18,9.87,11.74-2.4c-3.25,14.07-14.54-2.09-19.43,6.62,2.11,2.22,4.27,4.49,5.16,5.4-4.45,7.36-8.69,14.41-14.09,23.32-2.76-7.65-4.82-13.4-6.89-19.16l3.76-1.42h0Z" fill="#41463d"/><path d="M420.42,384.23v-26.41c-6.11,4.11-10.09,6.82-16.92,11.43,9.27-9.83,1.93-13.09-3.4-16.94,6.76-3.4,23.81,.29,23.99,5.09,.33,9.03-.82,18.1-1.36,27.17l-2.31-.31h0v-.02Z" fill="#41463d"/><path d="M388.39,258.65c-3.07-7.02-6.14-14.05-9.2-21.07l2.42-1.96c5.65,2.2,11.29,4.38,18.52,7.18-2.16,2.73-4.11,4.62-5.34,6.91-1.29,2.36-1.89,5.09-2.78,7.67l-3.6,1.29h-.02v-.02Z" fill="#41463d"/><path d="M394.28,376.58c10.07,5.71,18.23,12.8,19.41,24.94l-2.62,1.89-19.27-24.92,2.47-1.89h0l.02-.02Z" fill="#41463d"/><path d="M259.45,312.89c-2.76,5.62-4.51,9.23-7.2,14.69-1.09-.49-6.07-1.56-6.18-3-.27-3.47,.84-8,3.16-10.38,1.76-1.8,6.25-.93,10.2-1.31h.02Z" fill="#41463d"/><path d="M438.87,396.21c-6.34,5.51-10.47,9.11-15.72,13.67l-.89-15.03c4.33,.36,8.47,.69,16.61,1.36Z" fill="#41463d"/><path d="M307.8,230.95h16.98l.04,2.42c-3.76,.2-7.51,.42-12.45,.69,1.73,3.6,3,6.25,4.27,8.91l-2.33,1.69c-2.87-3.6-5.74-7.18-8.63-10.78l2.09-2.93h.02Z" fill="#41463d"/><path d="M480.47,274.72c4.74,.49,9.71,.33,14.03,1.96,1.13,.42,.18,6.42,.18,9.85l-3.13,.33-2.85-9.38-1.8,2.13c-2.05-1.73-4.09-3.45-6.14-5.18l-.29,.29h0Z" fill="#41463d"/><path d="M357.11,428.05c5.25,5.98,10.54,12.12,3.67,19.81-.87,.96-5.58,.24-5.6-.07-.8-6.54-1.2-13.12-1.67-19.7l3.62-.04h-.02Z" fill="#41463d"/></g></g></g></g></svg>