<?xml version="1.0" encoding="UTF-8"?><svg id="b" xmlns="http://www.w3.org/2000/svg" viewBox="0 0 1112.9 691.9"><g id="c"><g id="d"><g id="e"><g><path d="M810.45,471.33c-1.8-2.47-3.62-4.91-5.4-7.4-1.82-2.58-3.6-5.18-3.69-9,2.89,1.73,5.76,3.45,10,6,6.6-23.81-14.07-39.33-14.45-60.18,8.18,13.56,16.36,27.12,24.54,40.68,6.6-32.86-16.14-48.28-35.66-66.42,1.58,.38,3.42,.38,4.67,1.22,9.27,6.31,21.63,8.96,25.34,22.52,7.87-4.96,14.56-4.49,16.27,4.78,3.22,17.38,5.31,34.97,7.69,51.15l6.05-6.49c-.76,5.22-1.31,9-2.29,15.69,10.07-9.94,19.74-16.47,19.52-29.61-.62-40.17-1.22-80.34-1.93-120.51-.04-2.31-.2-6.02-1.56-6.74-15.76-8.31-27.5-23.72-46.55-26.3-5.05-.69-9.94-2.58-14.85-4.16-17.23-5.51-18.81-12.87-5.31-26.94,11.96,4.51,24.34,8.67,36.24,13.96,3.25,1.44,6.6,6.05,7.11,9.6,2,13.98,8.25,21.67,23.34,26.25,0-15.23,1.78-30.7-.49-45.55-2.45-16.12-13.56-27.14-29.74-31.7-12.72-3.58-25.45-7.38-38.44-9.56-6.6-1.11-13.78,1.82-20.67,1.67-8.09-.16-16.27-1.04-24.16-2.76-10.89-2.33-16.63,2.16-19.96,12.03-1.49,4.45-4.16,8.47-6.31,12.69l-2.85-1.22c3.62-8.38,7.27-16.76,11.4-26.34-7.94-2.42-15.09-5.34-22.52-6.62-5.78-1-11.67-2.76-9.56-8.76,1.42-4.07,8.6-9.43,12.4-8.87,20.34,3.02,40.7,6.74,60.53,12.16,19.3,5.29,37.79,13.49,56.95,19.34,17.3,5.29,29.08,16.49,40.08,31.39,.53-7.71,1.4-15.41,1.49-23.12,.11-10.69,.11-21.45-.91-32.08-.36-3.69-3.91-7.07-6-10.6l-5.38-.13c2.58-4.31,4.62-9.09,7.85-12.87,4.58-5.36,4.71-20.63-1.53-25.03-8.87-6.22-18.63-11.2-28.7-17.1,3.49-2.4,7.8-5.34,12.76-8.71,2.22,2.85,4.16,5.31,7.98,10.23,4.54-5.09,11.92-9.47,12.2-14.29,1.31-21.36,1.09-42.86,.27-64.27-.22-5.78-4.71-11.34-6.89-17.14-1.18-3.16-1.62-6.58-2.42-9.87l2.82-1.13,5.58,8.2,2.56-.76V5.09l17.32-5.09c.69,14.43,1.33,28.3,2.05,43.02,11.98-1.78,9.23,4.76,7.6,11.96-3.93,17.43-7.96,34.92-10.14,52.62-.84,6.91,3.13,14.43,4.91,21.65l3.73-.16c2.67-4.62,5.31-9.27,8.71-15.18,6.25,18.98,16.56,4,25.79,4,2.51,9.31-1.16,14.21-10.47,13.89-13.72-.47-22.59,8.83-28.94,17.74-4.05,5.67-.71,16.61-.69,25.19,3.51,0,7.69,1.16,10.34-.38,2.85-1.65,4.25-5.82,7.42-10.63,5.87,12.56,11.94,11.43,18.98,6.51,1.91-1.33,4.98-1.04,7.54-1.49-.38,2.71,.22,6.65-1.33,7.89-3.49,2.8-7.87,5.36-12.2,6.14-21.56,3.85-34.21,20.36-34.08,42.3,.31,49.89-.73,99.77-.36,149.63,.2,25.79,2.33,51.55,3.38,77.36,.42,10.56,.09,21.12,.44,31.68,.13,3.8,1.22,7.58,1.89,11.38l2.98-.31c.29-2.27,.6-4.56,1.31-10.03,3.56,11.32,6.22,19.81,9.71,30.94,0-5.47,1.16-9.25-.18-11.67-9.47-17.18-2-35.7-4.56-53.38-.42-2.98,.96-6.2,1.96-11.87,.56,9.91,.98,17.07,1.38,24.23l3.51,.04c1.38-8.49,2.76-16.98,4.11-25.48l1.02,.22v25.92l.89,.04c.4-5.25,.8-10.47,1.18-15.72l1.51-.42c3.09,8.91,6.18,17.85,9.27,26.77l1.82,.36v-26.94c5.47,15.43-.2,33.08,9.34,47.15,1.73-.13,3.47-.27,5.18-.42,1.76-12.32,3.51-24.63,5.67-39.77,3.69,16.52,6.87,18.81,15.49,13.76,4.96,3.16-3.69,17.9,11.56,13.34,.36,2.22,.8,5.02,1.73,11.03,1.27-5.76,1.89-8.6,2.33-10.56,3.16,5.67,6.47,11.63,9.78,17.56l2.27-.13v-31.39l2.91,.04c1.02,9.31,2,18.63,3.11,27.92,.4,3.27,.56,6.78,1.96,9.63,1.07,2.16,3.93,3.45,5.98,5.14,.89-2.18,2.29-4.29,2.51-6.51,.33-3.16-.22-6.38,1.2-9.76,2.65,7.89,5.27,15.76,8.38,25.05,2.31-3.8,5.4-8.83,7.74-12.65,2.51,2.82,6.42,7.2,11.23,12.6-9.71,3.4-19.21,6.74-27.08,9.49-4.4-3.62-7.85-8.34-9.98-7.83-3.96,.98-7,5.27-10.74,7.74-4.54,3-9.38,5.56-14.07,8.31-.73-1.04-1.44-2.09-2.18-3.16,2.02-3.13,4.07-6.27,6.09-9.38l-2.73-2.02c-2.76,3.89-5.51,7.78-8.76,12.36-1.56-1.96-3.76-4.69-6.27-7.83-1.27,.87-3.25,2.25-5.22,3.62-.73-.89-1.49-1.78-2.22-2.65,3.2-2.89,6.42-5.78,10.78-9.67-13.54,3.45-9.51-7.29-10.89-11.45-9.49,2-18.16,3.82-26.94,5.67-.67-5.22-1.2-9.27-1.73-13.32l-2.38-.11c-1.56,7.87-3.13,15.76-4.74,23.92-7.38-5.29-8.51-4.76-13.94,5.34-4.82-2.73-9.69-5.49-16.56-9.38-.51,9.05-1.47,16.21-1.16,23.3,.27,6.05,10.83,11.83,13.92,7.71,4.8-6.36,9.29-3.2,14.43-2.56,6.96,.87,13.98,1.13,20.99,2.62-20.34,4.36-41.55,2.45-61.18,10.31-.98-4.11-2.58-8.23-2.71-12.38-.38-10.83-.13-21.67-.13-32.5-2.22,12.83-2.47,25.63-1.98,38.39,.09,2.16,3.33,4.2,5.14,6.29-4.09,1.85-8.2,3.69-14.03,6.29,9.69-20.07,4.09-38.61,4.38-56.75,.29-18.3,.07-36.59-1.18-55.18-6.65,7.27-18.58,11.47-13,24.45,.84,1.96,4.33,2.78,8.71,5.38v40.99c-3.87-5.27-5.91-8.05-6.51-8.89-6.71,2.22-12.36,4.09-19.16,6.36v-51.82l-4.09-.18v31.97l-3.33,.29c-.78-5.47-1.56-10.94-2.49-17.45-11.63,6.42-3.85,16.83-8.67,24.3v-29.26l-2.38-.16c-2.36,7.31-4.74,14.65-7.09,21.96l-2.2-.27c-.29-6.71-.6-13.43-.89-20.14l-1.78-.13c-1.11,7.2-2.25,14.41-3.36,21.61l-1.69-.16v-23.12c-6.07,1.04-9.94,13.78-11.6,38.21,6.74,1.02,13.81,3.73,20.3,2.76,14.23-2.18,16.78,7.47,20.45,17.01,.53,1.38,3.58,1.58,4.67,2.96,2.29,2.85,4.36,5.98,5.69,9.34,.2,.49-4.07,3.76-6.51,4.11-26.1,3.8-51.49-.11-76.74-6.8-3.87-1.02-11.49,0-12.43,2.22-2.98,7.02-4.16,15.01-4.69,22.72-.09,1.27,6.62,4.18,10.25,4.27,8.18,.18,16.38-.96,24.88-1.58,0,.18,.24,3.56,.56,8.09-11.23-.93-22.34-1.87-34.63-2.91,1.31,6.51,2.33,11.6,3.25,16.12,9,.89,17.61,1.73,26.23,2.58-10.58,2.29-17.21,7.05-12.8,20.39-22.47,2.16-43.82,5.91-65.4,6.69l-.27-3.11c3.73-1.04,7.45-2.07,11.18-3.11-9.71-9.94-16.21,1.71-24.52,1.8-8.6,.09-17.18,2.4-26.43,3.82-.44,3.13-.93,6.67-1.65,11.74-8.25-4.4-15.96-8.51-20.81-11.09-8.03,4.6-13.98,8-19.94,11.43-.73-1.33-1.49-2.65-2.22-3.98,3.51-1.89,7.02-3.78,12.05-6.47-4.76-3.36-8.94-6.29-13.89-9.76,1.22-5.36,9.56-8.4,18.81-5.29,3.11,1.04,6.71,.62,10.11,.89l.36-4.16c-9.38-.93-18.74-1.89-24.99-2.51-.71-6.6-1.65-13-2-19.45-.33-6.38-.07-12.78-.07-19.47,3.98-2.62,9.43-6.2,14.85-9.78-.64-1.24-1.29-2.47-1.93-3.71-6.56,5.85-15.27,1.31-23.28,9.36-5.38,5.4-19.45,2.09-29.63,2.87-4.09,.31-8.18,1.76-12.23,1.58-6.14-.27-12.23-1.53-20.59-2.67-15.65,13.85-38.75,6.47-59.53,14.05,3.31,.89,6.6,1.78,13.12,3.53-5.58,0-8.07-.38-10.38,.11-2.42,.51-4.65,1.89-7.05,2.91,2.49,4.85,3.73,11.54,7.18,12.98,4.6,1.91,10.92-.24,15.65,1.09,4.65,1.22,9.29,2.42,14.94,3.89l1.11,10.52c-6.87-.87-15.21,5.62-17.38-4.13-4.33-1.13-7.47-2.2-10.72-2.71-3.29-.51-6.78-1.18-9.96-.58-8.94,1.69-18.52,7.05-23.48-6.45-.13-.36-7.36,1.91-11.27,2.93l.56,3.49h-26.17c-.11,1.96-.31,6.67-.42,6.65-10.85-.22-21.5,7.71-32.9-2.65-5.65-5.14-17.05-3.89-25.85-5.6-3.73-.73-7.45-1.65-11.14-4.87,3.42-.89,6.87-1.8,10.29-2.69l1.13-3.09c-3.31-1.51-6.47-3.58-9.96-4.42-7.42-1.8-14.96-3.47-22.54-4.31-10.58-1.2-21.25-1.62-33.75-2.51l-1.51-7.09c-5.31,.4-10.63,.78-15.76,1.16-3.2-23.19-26.63-19.36-39.7-33.86,9.87-10.76,20.54-22.41,31.54-34.39l-9.96-4.07,.84,2.13-38.77,11c1.47,10.56,6.98,8.43,12.32,6.94,4.89-1.38,9.8-2.6,15.54-1.56-6.4,2.6-12.8,5.18-19.72,7.98,.44,2.13,2.71,6.58,1.44,8.14-2.71,3.33-9.51,8.07-10.69,7.16-13.56-10.47-27.05-9.34-42.37-.13,.87-3.6,1.31-5.38,2.11-8.74-13.2,5.69-25.5,11-40.01,17.25-1.65-.49-6.07-1.85-13.38-4.09,7.6-2.6,12.18-4.16,18.18-6.18-2.56-3.71-4.29-6.25-6.54-9.49-1.67,3.91-2.89,6.78-4.25,9.98-4.4-3.22-7.96-5.82-11.49-8.43l-1.58,1.65,3.76,9.49c-7.65,0-13.34-.38-11.05-10.36,.87-3.8-.22-8.03-.4-12.07-.31-6.67-.6-13.34-.96-21.39,4.65,1.22,6.87,1.82,7.45,1.98,6.4-6.89,12-12.92,17.41-18.74,1.6,3-.42,8-6.05,14.96,6.36-1.38,12.69-2.76,20.01-4.33-3.02-11-6-21.34-8.6-31.79-.56-2.27,.24-4.89,1.4-7.71,1.24,11.47-1.78,25.32,18.36,25.25V217.66c-5.02-1.47-12.2-3.58-19.41-5.69v-3.27c6.69-1.65,13.38-3.29,22.27-5.47,0-6.6,2.98-17.01-.89-23.12-3.49-5.54-14.43-6.36-23.48-9.78,6.25-3,11.38-7,17.01-7.87,10.29-1.56,10.38-7.49,8.78-15.12-.76-3.58-1.6-7.16-2.53-11.34-4.02-.71-8.31-1.38-12.54-2.27-3.62-.76-7.2-1.73-10.8-2.62l.67-5.2h21.45c.58-6.45,1.58-14.56,1.93-22.72,.36-8.34,.09-16.72,2.56-25.1v30.63l1.82,.07c.64-8.23,.82-16.54,2.2-24.63,.51-3,3.85-5.54,5.89-8.29,2.56,2.82,7.02,5.45,7.34,8.49,1.27,13.18,1.02,26.5,2.05,39.7,.27,3.45,2.31,8.38,4.94,9.58,2.87,1.31,7.4-.78,11.14-1.65,2.45-.56,4.78-1.58,7.18-2.38,.58,2,2.22,4.82,1.47,5.82-1.33,1.73-4.02,2.76-6.34,3.36-4.85,1.22-9.85,1.78-14.69,3.05-1.51,.4-3.76,2.16-3.8,3.33-.31,9.34-.18,18.67-.18,30.81,4.71-3.31,7.18-6.2,10.11-6.8,3.76-.76,10.09-1.11,11.4,.91,3.18,4.85-1.11,5.34-5.58,6.96-13.52,4.87-17.67,12.45-15.49,27.39,.51,3.53,4.96,7.11,8.47,9.23,1.27,.78,5-2.73,7.74-4.05,2.05-.98,4.27-1.56,6.42-2.31l2.4,10.85c-2.25,1.22-2.87,1.85-3.53,1.89-14.81,1.36-22.21,9.4-22.23,24.19,0,21.43-1.38,42.99,.4,64.27,1.82,21.87-1.67,43.48-.51,65.27,1.18,22.39,.58,44.88,1.33,67.29,.31,9.05,2.11,18.05,3.25,27.19,1.18-2.11,2.31-4.18,3.96-7.16l3.53,7.11,3.8-8.23s.18,.09,.29,.36c.16,.33,.09,.78,.29,1.07,.53,.8,1.16,1.56,2.65,3.51,2.36-9.76,4.45-18.34,7.14-29.48,6.29,14.43-2.2,29.9,10.07,39.3,10.51-16.7,15.05-34.08,11.96-53.18,8.67,11.72,.93,27.97,9.91,39.21l5.38-.44c.6-11.87,1.2-23.72,1.71-33.72,2.56,9.96,5.6,21.81,8.65,33.68l3.51,.04c1.18-5.25,2.38-10.47,3.85-16.98,2.33,2.69,4.18,4.82,7.47,8.63-.67-10.18-1.2-18.41-1.73-26.65,1.44-.18,2.87-.36,4.31-.56,2.27,8.76,4.56,17.52,6.82,26.28l3.89-.64c-1.49-13.54-2.98-27.08-4.47-40.61l2.45-.4c2.18,5.65,4.38,11.29,7.14,18.43,3.98-6.14,7.4-11.4,10.83-16.7l1.58-.07-6.98,36.84,4.25,.93c.93-5.29,1.85-10.58,2.78-15.87l2.18-.24c.87,3.53,1.71,7.09,2.6,10.69,11.6-.36,10.98-9.11,11.65-16.94,.67-7.67,1.24-15.34,2.02-25.25,11.18,4.45,5.14,13.34,7.51,18.74,11.69-3.76,14.67-20.59,9.54-43.26,1.4,5.36,2.18,10.98,4.45,15.94,1.18,2.58,4.98,3.93,7.45,5.71-2.96,2.42-6,4.94-9.05,7.42l2.07,2.73c3.85-.4,7.69-.82,11.65-1.24,1.16-7.31,2.25-14.14,3.31-20.96h1.58v21.19c6.94-12.07,17.98-11.38,29.19-11.54-1.2-12.67-2.4-25.48-3.62-38.3,1.53-.53,3.07-1.09,4.6-1.62,5.65,9.16,11.27,18.32,18.01,29.23,.96-10.31,2.51-19.63,2.11-28.86-.09-2.18-6.62-5-10.56-5.94-11.49-2.73-14.83-15.98-13.63-23.9,.18-1.11,2.73-1.85,4.18-2.73l-.11-.13c1.78,4.74,3.56,9.45,5.45,14.49,5.69-2.6,12.76-3.76,13.43-6.49,2.11-8.6,2.38-17.81,2.09-26.72-.07-2.11-7.07-6.18-7.49-5.78-9.11,8.69-15.54,.93-23.28-4.78-.76,4.67-1.29,7.94-2.16,13.29-2.05-8.94-4.38-15.83-5-22.85-.62-7,13.67-15.74,21.27-12.69,11.18,4.49,22.12,9.76,32.66,15.58,2.89,1.6,5.38,6.31,5.65,9.78,2.05,25.39,3.49,50.84,5.16,76.98,1.67-.16,3.91-.33,3.25-.29,3.02,7.11,5.11,13.38,8.51,18.81,.56,.89,9.4-.93,10.07-2.96,3.56-10.63-4.53-15.32-9.25-17.58-.67-8.56-1.02-14.38-1.6-20.19-.8-7.89-1.76-15.76-2.65-23.65l4.96-.38c.58,9.14,1.18,18.3,1.87,29.32l3.69-5.56,5.38,3.42c1.53-10.49,2.78-20.01,4.42-29.46,.44-2.65,1.98-5.11,3.11-7.6,3.45-7.56-.58-16.96-8.67-18.5-8.67-1.65-14.27-4.18-8.85-14.27,.71-1.33,.09-3.38-2.09-6.07-2,3.27-4,6.54-6.34,10.36-1.22-3.45-2.13-6.45-3.33-9.34-6.62-15.85-6.6-15.76,6.71-27.54,1.76-1.56,2.42-4.29,3.8-6.34,3.2-4.71,6.56-9.36,9.85-14.03l3.65,1.65-2.47,29.5,3.16,.64c3.65-12.78,7.29-25.59,10.94-38.37l3.13-.07c1.62,3.36,3.27,6.71,4.47,9.23,13.85,1.67,28.23,.67,40.26,5.49,18.38,7.38,24.68,12.52,22.63,27.7h10.47c.36,1.78,.76,2.49,.6,3.07-5.85,23.1-26.05,14.63-40.19,16.7-12.07,1.78-25.01-2.58-37.61-3.85-6.87-.69-14.61-4.42-19.76,3.98,5.62,3,11,7.83,16.94,8.69,20.92,3.07,41.9,4.2,61.87-5.8,4.71-2.36,10.83-1.78,15.78-3.8,3-1.22,5-4.87,7.36-7.34,1.67,.51,4.87,1.47,9.34,2.82-10.38,5.29-11.78,14.45-7.96,22.56,1.56,3.31,10.45,3.18,16.34,4.71,.91-10.96,1.6-19.54,2.38-28.83-2.49,.62-4.29,1.07-8.56,2.13,16.87-13.76,1.2-28.5,4.82-42.02,11.09,35.59,8.38,72.12,6.18,108.62l3.13-.11c.44-5.25,.91-10.49,1.36-15.74l1.4-.07c2.11,19.18,4.25,38.37,6.36,57.55l1.2-.18c1.82-10.54,3.65-21.07,5.47-31.61l2.02-.33c4.38,11,8.76,22.01,13.12,33.01l1.93-.18,6.09-34.68c2.33,2.02,3.89,3.36,5.89,5.09l4.4-7.78c5.91,23.32-3.22,43.39-12.58,63.45-2.02,4.36-4.25,8.67-5.6,13.23-.53,1.76,1.09,4.16,1.71,6.25,1.87-1.42,4.85-2.51,5.38-4.33,1.58-5.38,2.18-11.07,3.18-16.63l2.89-.09c.8,3.87,1.62,7.74,2.36,11.25,4.16-23.81,8.36-47.86,12.18-69.67,1.44,2.18,6.47,6.58,7.07,11.52,.62,5.07-5.47,11.25-4.33,15.92,2.22,9.14,7.42,17.56,13.45,25.52-.13-10.31-19.54-20.43,.69-28.83,4.82-2,12.94,3.87,19.54,6.14-3.78,6.07-7.56,12.16-10.96,17.63,6.82-2.02,16.83-1.4,15.16-16.05-.51-4.42,4.94-9.54,8.31-15.52-.73,10.31-1.02,19.43-2.29,28.41-.31,2.27-3.45,4.71-5.85,6.02-15.41,8.29-22.59,23.19-31.48,36.72l2.05,1.76c1.85-2.25,3.89-4.36,5.51-6.76,9.87-14.63,21.67-26.77,38.24-34.23,6.29-2.85,10.67-9.91,19.14-8.14,.38,.07,1.51-3.58,2.96-7.11,.62,9.38,1.13,17.18,1.73,26.43,3.29-12.94,6.22-24.54,9.38-36.95,1.91,2.98,3.4,5.34,4.91,7.69l2.58-1.78-3.91,28.63,3.87,.8c2.76-11.14,5.54-22.27,8.29-33.41l2.02,.44-5.54,51.4,6.47,.76,3.69-44.24,2.29,.31c.73,15.29,1.49,30.59,2.22,45.86h1.53c4.2-15.43,8.38-30.83,12.58-46.24h2v43.84l2.49,.27c.96-2.4,1.89-4.82,3.51-8.98v22.1c4.36,1.93,9.27,4.13,14.94,6.67,.67-3.2,1.36-6.51,2.05-9.85-2.93,8.2,16.12,15.32,2.98,22.39,4.13,1.36,9.05,3.27,14.14,4.47,1.82,.42,4.05-.82,6.09-1.31,1.71,2.31,3.42,4.65,5.45,7.38,3.4-5.8,6.98-9.49,7.45-13.56,.31-2.82-3.67-6.11-5.65-9.09-3.2,6.67-5.36,11.14-7.49,15.61l.07,.18h0Zm-108.8,36.95c9.14,1.16,19.7-4.36,28.17,6.02,.69-5.49,1.65-12.96-1.09-14.74-7.96-5.2-21.41,.18-26.77,8.98-1.6,4.6-3.22,9.23-5.51,15.76,10.16-.84,17.65-1.47,25.16-2.11l.27-4.56c-7.31-2.09-19.5,4.6-20.23-9.38h0v.02Zm-75.54,72.23c-4.05-4.71-7.83-3-10.56,1.09-1.27,1.89-1.93,6.25-.91,7.09,1.89,1.56,7,2.53,7.65,1.62,1.96-2.85,2.45-6.71,3.51-10.18,.84,2.33,2.98,5.14,2.31,6.91-3.71,10,1.62,12.94,9.91,15.61,4.62,1.49,8.27,6,12.85,9.54-.36-2.73,.13-5.74-1.13-7.58-8.05-11.74-15.74-23.85-25.19-34.41-2.98-3.33-10.92-2.22-16.58-3.16l-.51,4.58c3.38,.22,7.22-.49,10,.91,3.36,1.71,5.78,5.22,8.63,7.96h.02v.02Zm-86.45-47.57c-.31,2.93-.6,5.89-.98,9.54-3.38-2.27-5.51-3.69-7.63-5.11l-2.67,2.73c2.96,2.82,5.91,8.05,8.83,8,11.32-.11,8.11-9.27,8.98-16.43l-6.94,1.6c-.24-3.09,.62-6.96-.91-9.11-5.71-8.05-12.23-15.54-19.05-24.03-1.49,1.62-3.58,3.89-5.67,6.16l.33-.22c-5.71-2.02-11.4-4.07-16.94-6.02,.31,23.85,2.13,25.16,25.48,19.83,2.47-.56,5.78,2.51,10.34,4.69-8.38,1.56-13.89,2.6-19.43,3.62l-.16,3.53c3.96,.56,7.89,1.42,11.85,1.58,4.82,.2,9.67-.22,14.54-.38h.02v.02Zm-282.97-27.99c3.82,8.94,9.07,2.98,14.74,2.29,19.05-2.36,38.37-2.67,57.44-4.8,10.25-1.16,21.99,4.71,31.5-7.83,9.96,27.1,29.57,28.7,51.09,22.25,3.89,13.72,17.23,5.36,25.19,13.76-2.07-7.16-4.07-11.18-4.27-15.32-.42-8.29-4.91-11.38-12.27-10.43-9.74,1.24-16.54-1.85-19.92-10.49,7.45,.96,15.29,1.96,25.94,3.31-9.36-7.78-15.83-13.18-22.56-18.78-2.73-1.07-6.98-2.69-12.6-4.87-.62,2.91-1.4,6.56-2.51,11.69-2.22-3.62-3.78-6.16-4.94-7.98-6.67,1.13-12.34,2.09-17.83,3.02l-2.71,8.76c-1.76-2.31-3.36-4.69-3.51-4.58-14.16,8.2-27.63,4.74-41.22-1.69-2.31-1.09-5.65-.82-8.29-.22-6.67,1.51-13.2,3.56-19.45,5.31-.18,2.27-.33,4.42-.56,7.42-10.96-10.29-25.08-5.85-33.28,9.2v-.04h.02Zm168.8,60.18c0-5.67,.24-12.43-.18-19.12-.11-1.69-2.27-3.22-3.49-4.85-1.38,1.76-2.98,3.38-4,5.34-.51,.98,0,2.51,.07,3.8l-3.09-.33c.44-4.13,.89-8.29,1.33-12.43-7.45-1.65-10.69-4.56-9.71-8.71-36.28-5.05-46.11-3.4-58.31,9.09,17.23,17.81,39.7,1.2,58.33,9.18,2.8,3.8,5.54,7.49,9.36,12.67-3.6-.93-6.74-.76-7.8-2.18-7.69-10.14-18.5-7.34-28.52-7.05-1.85,.04-3.6,3.16-5.38,4.85,2.36,.78,4.82,2.45,7,2.11,4.67-.67,9.18-2.36,13.74-3.62l.91,2.73c-5,2.36-10,4.71-18.12,8.51h47.86Zm257.92-35.35h1.8c-1-11.92,15.85-19.18,8.6-32.92-.51-.98,1.67-4.36,3.33-5.31,8.16-4.6,16.58-8.74,24.88-13.07,3.6-1.89,7.11-3.87,11.69-6.36,4.18,2.31,9.71,5.36,17.05,9.4-13.81-17.45-26.41-22.45-44.79-10.47,7.54-1.04,12.16-1.69,16.78-2.33-.07,1.65-.13,3.27-.2,4.91-10.76-1.65-21.5-3.6-32.32-4.8-4.87-.56-9.91,.38-14.89,.62-.07,1.16-.16,2.31-.22,3.47l12.78,5.54c-11.07,.91-22.52,1.87-36.35,3,10.69,9.85,19.99,18.38,29.1,26.77-.22,.11-1.71,.87-1.62,.82,1.58,7.45,3,14.25,4.38,20.76h0v-.02Zm-206.79-222.7c5.14,19.1-6.67,40.9,10.43,60.11,6.36,7.16,10.14,8.45,18.14,4.51-2.09-7.67,5.4-18.23-8.03-22.21-.38-.11,.6-8.11,2.58-11.49,1-1.73,5.62-1.33,9.56-2.09-3-10.07-6-20.07-9.36-31.32-6.36,.69-13.4,1.42-23.3,2.49h-.02Zm8.56-53.49l.04,1.82c-4.6,.64-9.47,2.53-13.72,1.62-6.74-1.47-8.98,1.24-10.25,6.89-.56,2.49-2.11,4.78-2.47,7.27-.36,2.49,.2,5.09,.36,7.65,2.09-1.31,5.2-2.13,6.09-4.02,4.56-9.67,12.27-13.87,21.32-8.78,8.74,4.91,16.92,1.65,25.19,1.49,3.2-.07,8.27-4.2,8.89-7.25,.62-2.98-2.42-8.65-5.38-10.11-13.47-6.78-27.54-3.6-41.44-2.82l-.33,3.62c3.89,.89,7.8,1.76,11.69,2.65h0v-.02Zm211.77,336.3c-4.13-16.09-8.14-19.47-21.01-18.83-2.65,.13-7.4,2.76-7.38,4.16,.11,5.14,.24,13.07,3.25,14.74,5.98,3.29,12.65,8.11,21.14,4.22,5.27-2.42,10.78-.51,15.43,4.25,3.96,4.07,9.27,6.8,12.63,.98-1.78-4.33-3.42-8.74-2.22-12.18,2.78-8.11,1.09-12.14-7.8-12.18h-11.69c-.73,4.65-1.31,8.31-2.33,14.85h0Zm-194.76-59.56c-3.85-5.54-6.14-12-10.6-14.34-4.42-2.33-11.05-.51-16.7-.51l-.07,1.96,5.71,1.76c-13.47,5.29-26.32,10.34-39.61,15.56,4.76,7.87,25.54,2.22,14.23,20.72,11.4-6.49,22.81-12.98,33.92-19.3-1.2-5.87-2.25-10.96-3.31-16.03l2.98-1.49c1.31,8.98,1.47,19.65,13.43,11.69h.02v-.02ZM157.3,246.45l-2.09-.18v231.8h2.09V246.45Zm14.03,244.29l-.87,3.2c5.11,3.93,10.29,7.78,15.32,11.83,10.78,8.67,16.16,9.65,27.72,.2,3.36-2.76,2.58-11.63,2.02-17.54-.22-2.31-5.4-6.34-7.69-5.94-12.29,2.13-24.36,5.4-36.52,8.27h0l.02-.02Zm107.08,55.42l-.62,4.09c19.03,3.18,38.08,6.38,56.38,9.45,1.6-5.76,2.53-9.09,3.85-13.74-21.5-9.67-44.44-9.69-66.87-12.69-.33,1.73-.64,3.45-.98,5.18,12.56,2.4,25.14,4.8,40.26,7.71h-32.01Zm153.66-148.81c-9.27,18.9,.82,31.17,12.65,43.02,6.54-6.36,8.69-13.45,7-22.83-1.51-8.38-4.62-17.81,4.45-25.14,1.65-1.33,.24-6.45,.24-9.8l-2.76,.22c-1.85,14.47-2.76,15.07-21.56,14.54h-.02Zm100.75,77.94c-2.49-6.56-3.16-13.03-6.76-16.16-2.49-2.16-9,.29-14.45,.73,3.71,8.34,12.07,17.45,25.1,27.34-10.6,.58-22.01-5.91-27.74,7.07h43.39l1.11-3.56c-4.78-2.85-9.56-5.69-15.45-9.2,3-1.04,5.67-1.96,8.96-3.09-5.91-1.31-11.09-2.45-14.14-3.13h-.02Zm89.41,76.9c7.22,7,11.92,11.63,16.7,16.16,2.38,2.27,6.69,6.51,7.16,6.14,3.69-2.96,7.09-6.51,9.71-10.45,2.13-3.22,3.09-7.22,4.54-10.83-1.91-.44-4.42-1.02-4.94-1.13,6.56-4.71,13.52-9.74,22.05-15.89-19.45,5.65-36.12,10.47-55.22,16.03h0v-.02Zm46.42,14.47c17.81,1.38,34.81,2.85,51.86,3.71,1.76,.09,4.38-3.25,5.22-5.51,.36-.96-2.6-4.42-4.4-4.74-16.54-2.82-33.15-5.18-50.35-7.78-.64,4.05-1.27,7.87-2.31,14.32h-.02Zm-312.8-133.69c-3.62,3.45-5.49,13.05-5.6,28.79,3.87-2.76,7.38-5.25,11-7.83,1.82,4.16,3.18,7.27,4.18,9.56,3.87-3.53,6.65-7.22,10.34-9.23,7.8-4.22,7.83-9.2,2.16-14.67-4.27-4.11-9.36-7.4-15.85-12.43-.8,9.05-1.36,15.41-1.96,22.01-3.67-2.38-5.89-3.8-8.36-5.42l4.09-10.78h0Zm105.31-129.76c1.29,19.56,2.2,37.19,3.8,54.75,.29,3.13,3.4,6,5.2,9l3.05-1.58v-61.18c-3.56-.29-6.67-.56-12.05-1Zm186.2,179.71c-.07-.96-.13-1.93-.2-2.89-18.63-.38-36.84-7.27-55.66-4.11,9.94,2.53,19.87,4.2,29.9,5.09,7.58,.69,10.14,5,10.18,11.69,.09,10.89,.02,21.76,.02,33.9,4-1.07,8-2.13,12.03-3.2-13.32-.78-9.05-10.67-7.63-15.56,1.31-4.49,6.58-9.89,11-10.89,4.8-1.07,10.63,2.49,16.03,4.02l1-1.85c-6.71-4.53-13.45-9.09-20.36-13.76-2.38,5.89-3.56,8.8-4.71,11.72l-2.58-.64c-.44-3.78-.89-7.58-1.33-11.38l12.34-2.11h-.02v-.02Zm-123.33-56.2l-1.69,.56c5.87,10.8,9.71,23.76,18.21,31.81,8.49,8.05,10.47,18.5,16.16,27.32,1.44,2.22-3.16,8.45-5.16,12.74-.96,2.05-2.36,3.91-3.85,6.29,7.16-.96,12.2-1.62,17.87-2.38,.84-5.89,1.73-12,2.31-15.94-3.56-3.07-6.76-4.67-8.09-7.22-3.18-6.09-4.42-13.36-8.31-18.83-8.54-11.89-18.23-22.96-27.45-34.35h0Zm-110.29,52.11c10.31,9.65,17.38,16.25,26.19,24.48,2.93-10.63,5.38-19.54,8.65-31.37-13.23,2.62-22.59,4.47-34.84,6.89Zm43.64,20.39c-4.98,1.44-8.98,2.6-12.98,3.76,.93,2.6,1.31,7,2.87,7.45,3.73,1.11,8.03,.36,13.16,.36-.16-.31,.73,1.58,2.89,6.2,.78-6.07,1.18-9.07,1.56-12.09l2.36-1.69c.8,2.67,1.62,5.31,2.42,7.98l2.27-1.96,.49-9.47c3.42-1.11,6.36-2.09,9.51-3.11-6.49-8.98-15.38-9.71-27.74-2.82,1.22,2.11,2.47,4.25,3.16,5.42h.04v-.02Zm229.91,43.37c2.02,1.85,4.62,6.22,7.02,6.11,8.23-.36,16.38-2.27,23.16-3.36v-12.45c-6.69,0-14.18-.29-21.63,.07-13.89,.64-17.21,5.58-10.49,16.83l1.93-7.18h0v-.02Zm-345.22-2.22c.89,7.58,2.47,12.83,1.87,17.81-.89,7.29,2.6,11.4,8.63,11.05,5.87-.36,11.54-3.82,17.32-5.91l-.6-3.96c-8.56-5.96-17.1-11.94-27.19-18.96h0l-.02-.02Zm156.06-95.95l-2.16,2.33c2.96,2.85,7.38,8.63,8.6,8,5.82-2.91,11-7.29,15.78-11.85,.84-.8-1.4-4.85-1.36-4.69-5.51,1.07-8.6,1.71-11.72,2.2-.13,0-.47-1.24-.91-2.45,1.91-1.62,3.96-3.38,5.56-4.76-2.78-4.96-5.2-9.25-8.43-15.01-1.36,.89-5.25,2.02-5.78,4.02-2.87,11.07,.42,20.05,10.63,26.45-3.4-1.42-6.8-2.85-10.23-4.27h0Zm-180.82,75.32c-.53,.78-2.51,3.36-3.91,6.22-.16,.31,2.76,2.58,4.51,3.31,3.82,1.58,7.8,2.73,11.72,4.09,3.22,1.11,6.45,2.22,8.05,2.78-3.11-5.69-8.71-11.23-8.63-16.7,.16-10.16-3.78-12.09-12.38-11.09-4.51,.51-9.11,.09-13.69,.09-.4,1.6-.8,3.2-1.2,4.82,5.29,2.22,10.58,4.42,15.54,6.51v-.04h0Zm-54.78-4.76l-.24,3.36c2.98,.24,6.07,.13,8.94,.87,3.38,.84,6.49,2.6,9.85,3.6,5.47,1.62,11.05,2.93,16.56,4.36l2.73-17.16c-14.69,1.93-26.25,3.47-37.84,5h0v-.02Zm312.85-5.09c-10.11,12.2-28.14,17.05-24.36,40.06,9.38-9.56,17.5-16.72,24.01-25.14,2.22-2.89,.36-8.94,.36-14.92Zm-390.81,8.38c-1.07-5.16-.82-7.69-1.98-8.83-5.54-5.47-11-11.25-17.41-15.52-3-2-8.09-.84-12.25-1.13,.49,3.65-.36,8.56,1.71,10.69,5.11,5.34,11.54,9.43,18.98,15.21l-1.04-9.91,11.98,9.49Zm321.65-34.72c-.31-.07-1.4-.42-2.49-.44-9.11-.09-19.32,1.8-19.67-12.52,0-1.07-4.42-2.82-6.78-2.85-2.71-.04-5.47,1.51-8.2,2.36l.6,1.62c3.62-.47,7.22-.96,12.27-1.6-2.49,5.49-4.11,9.03-4.62,10.16,6.14,13.67,17.25,13.87,27.08,14.49,.58-3.56,1.16-7.05,1.82-11.2h0v-.02Zm-137.25-68.11c1.78,2.58,4.82,7,7.87,11.4l4.16-2.38c-3.8-7-7.07-14.38-11.76-20.74-1.2-1.62-8.87-1.31-10.11,.49-3.82,5.51-6,12.2-8.8,18.43l2.51,1.36c5.27-2.8,10.54-5.6,16.14-8.58h0v.02Zm209.77,49.64c-12-10.05-21.32-17.85-30.63-25.65,.73,5.78,2.47,11.25,5.74,15.56,3.45,4.58,8.34,8.09,13.09,12.52-1.09,1.31-2.78,3.36-4.47,5.38,6.78-1.82,17.18,1.42,16.29-7.8h-.02Zm198.94,77.78c10.07,6.65,24.68-6.36,29.37,10.56,8.43-13.65-1.67-19.32-8.85-26.3-1.16,4.09-2.13,7.58-3.69,13.03-3.96-4.29-6.27-6.8-9.34-10.11-2.53,4.31-4.85,8.27-7.51,12.83h.02ZM371.11,277.28c-3.78,7.76-3.53,12.49,4.31,13.89,8.03,1.44,16.07,2.8,24.16,3.82,1.29,.16,4.16-1.96,4.02-2.51-.42-1.89-1.49-4.58-2.98-5.14-9.54-3.56-19.25-6.62-29.54-10.07h.02Zm176.04,35.86c-.64,5.74-1.56,10.43-1.62,15.16-.07,5.82,.09,11.74,1.2,17.41,.29,1.51,4.36,2.27,6.69,3.38,.82-2.53,2.78-7.02,2.29-7.31-9.94-5.82-2.69-12.14-.49-17.92,1.33-3.51,4.18-6.45,7.74-11.69-6.69,.42-11.14,.69-15.81,.98h0Zm-69.69,145.61c10.2-.16,16.98,6.34,20.34,19.45,3.31-.38,6.71-.78,8.54-1-1.85-6.49-3.53-12.43-5.69-19.99-1.56-.91-5.29-3.05-9.03-5.2-4.89,2.33-9.51,4.51-14.16,6.71h0v.02Zm-34.1-204.43l-4.36-1.24c-4.27,4.87-8.54,9.76-12.8,14.63,2.51,1.87,5.09,5.4,7.49,5.27,4.31-.2,11.25-1.67,12.14-4.29,1.38-4.05-1.42-9.51-2.47-14.36Zm24.32,192.54l2.93-.29v-47.17l-4.98,.07c-2.05,15.87,1.91,31.59,2.05,47.42h0v-.02Zm116.71,93.15c-.36-1.33-1.24-4.69-2.16-8.05l-5.16-4.16c-5.31,7.11-10.63,14.23-15.96,21.36,2.78,3.49,4.96,6.2,6.96,8.71,5.27-5.78,10.23-11.2,16.32-17.87h0Zm-143.94,55.49c-2.31-10.36-4.6-20.74-6.91-31.1-9.51,10.4-6.45,23.76,6.91,31.1Zm1.51-44.75l-2.85,.8c-2.29,16.83,4.62,31.26,11.43,45.71,.91-.22,1.85-.44,2.76-.69-3.78-15.27-7.56-30.54-11.36-45.82h.02Zm-332.08-20.87l1.16,3.36c8.38-2.45,16.76-4.87,24.45-7.11-1.49,4.51-2.82,8.54-4.25,12.92,5.8-1.58,9.23-2.51,12.49-3.4-.89-4.98-1.76-9.89-2.82-15.98-10.83,3.56-20.92,6.89-31.01,10.2h-.02v.02Zm391.74,5.94l-2.31,3.2c2.09,4.2,5.22,12.25,6.09,12,6.07-1.65,11.67-5.02,17.43-7.85-.24-1.24-.49-2.49-.71-3.73-6.82-1.22-13.65-2.42-20.5-3.65h0v.02Zm44.66-131.83c-1.07,11.72-12.45,21.32-8.49,33.79,4.78-10.96,17.5-20.25,8.49-33.79Zm-224.44,21.21c-2.02,7.47-17.32,4.71-11.09,17.23,.67,1.33,9.09,.76,12.12-1.44,4.78-3.49,9.91-8.96-1.02-15.78h0Zm169.48-11.43c-5.42-4.09-9.27-6.98-15.63-11.76,.96,11.54,1.62,19.54,2.53,30.37,5.4-7.65,9.16-12.98,13.12-18.61h-.02Zm268.74,114.38c1.36-1.73,2.69-3.47,4.05-5.18-3.27-3.51-5.98-8.49-10-10.11-3.4-1.38-8.49,.76-12.56,2.18-1.22,.42-1.49,3.6-2.71,6.87,2.98-1.8,4.6-2.78,3.6-2.18,7.09,3.38,12.36,5.91,17.65,8.45h-.02v-.02Zm-561.99,11.8c-10.38-15.07-27.1-11.52-41.53-14.89,13.85,4.96,27.68,9.91,41.53,14.89Zm152.21-123.73c-10.58-3.69-17.94-7.83-23.21,.6-1.33,2.13,2.22,7.34,3.58,11.23,6.98-4.2,11.92-7.18,19.63-11.83Zm426.6,64.78c-1.49,12.58-2.98,25.19-4.47,37.77,8.98-11.49,10.47-24.14,4.47-37.77Zm-370.07-105.79c-8.16,13.07-7.29,27.97,0,36.59v-36.59h0Zm-94.68,76.78c-5.05-.38-8.27-1.07-11.4-.73-3.96,.42-9.09,.49-11.34,2.91-1.8,1.93,0,7.16,.16,10.92l2.89,.27c2.85-3.13,5.69-6.27,7.8-8.58,3.8,1.24,6.62,2.18,9.45,3.09,.87-2.78,1.71-5.56,2.45-7.91v.04Zm-53.13,105.86l-.13,5.87c6.2-.53,12.45-.84,18.56-1.91,.84-.16,1.96-5.69,1.38-6-4.65-2.65-9.67-4.62-14.56-6.82l-1.24,2.67c2.2,1.93,4.4,3.87,8.18,7.2-5.49-.44-8.85-.73-12.2-1h.02Zm306.6-216.04l-4.89-.27v40.28l2.31,.22c.87-13.4,1.73-26.83,2.58-40.24Zm171.04,170.71l-2.62-.87c-3.87,9.38-7.74,18.76-12.12,29.39,19.76-4.47,10.18-19.34,14.74-28.5h0v-.02Zm131.45-180.18l-.91-.2v78.47h.91v-78.25h0v-.02Zm-488.45,36.04l-3.02,1.04c2.56,9.71,5.14,19.43,7.69,29.14l3.6-1.02c2.27-11.16-2.47-20.32-8.27-29.17Zm-46.31,79.65c-6.74,4.05-17.96-2.29-17.23,11.16,10.31,2.87,16.05-.87,17.23-11.16Zm-115.98,29.26c7.71,0,11.03,.27,14.25-.09,2.78-.31,5.49-1.24,8.11-2.22,.24-.09-.42-3.62-.56-3.62-2.69,.13-5.38,.56-5.89,.62-3.82-3.38-6.45-5.71-9.07-8.05-1.96,3.78-3.89,7.56-6.87,13.34h0l.02,.02Zm146.05,100.21c8.31,1.73,15.81,3.27,24.05,4.98-3-12.43-14.36-14.18-24.05-4.98h0Zm37.46-226.99l3.16,20.12c4.62-7.38,18.9-16.23-3.16-20.12Zm330.92,140.01c-13.09-6.71-28.19-1.42-29.28,8.69,9.45-2.8,19.65-5.82,29.28-8.69Zm-77.5-75.52c-16.29,1.11-24.03,7.25-23.79,17.5,7.42-5.47,16.09-11.85,23.79-17.5Zm-157.32,153.08l-8.31-10.67c-4.96,4.8-9.65,9.36-15.87,15.36,8.38-1.62,15.78-3.07,24.16-4.69h.02Zm-75.23,1.31c-7.36,1.69-12.18,2.8-17.03,3.89,3.31,3.85,6.65,7.67,11.29,13.05,2.22-6.56,3.42-10.14,5.74-16.94Zm40.59-99.44l-4.42-2.33c-2.71,2.53-5.4,5.05-8.36,7.83l4.47,1.29c-2.25,4.09-4.36,7.96-6.49,11.85l4.69,2.4c3.38-7,6.74-14.01,10.11-21.01h0v-.02Zm209.66,54.35l-2.05-.22-2.73-15.27-3.07,.64c1.13,5.58,1.87,11.29,3.65,16.65,.53,1.6,3.98,2.22,6.09,3.29,1.2-3.76,2.47-7.49,3.47-11.29,.11-.42-1.33-1.24-2.69-2.42-1.02,3.31-1.85,5.98-2.67,8.63h0Zm-116.89-6.29c2.62-2.33,6.02-5.36,11.23-9.98-11.03,1.8-19.9,3.25-28.79,4.67l-.16,1.58c5.91,1.24,11.8,2.49,17.72,3.71h0v.02Zm81.56,10.03c-6.4,3.49-11.25,5.07-14.36,8.34-1.27,1.36,1.24,6.29,2.05,9.6l2.51-.58c.33-3.22,.69-6.45,1.2-11.29,3.78,3.13,6.31,5.2,10.29,8.51-.58-4.98-.93-8.07-1.71-14.61h0l.02,.02Zm-384.56,4.51l-1.82-.93c-5.65,2.91-11.45,5.58-16.85,8.89-1.56,.96-2.02,3.76-2.98,5.69,1.91,.42,4.67,1.87,5.6,1.09,5.58-4.65,10.74-9.78,16.05-14.76h0v.02Zm430.03-111.26c2.69,2.05,5.56,3.16,6.4,5.11,1.22,2.85,.98,6.34,1.38,9.54l1.02-.38v-21.32l-2.45-.69c-2.18,2.65-4.33,5.27-6.38,7.74h.02Zm-351.09,87.59c4.69,7.6,8.31,13.52,12.18,19.27,.09,.13,3.69-1.18,4.11-2.36,1.53-4.27-7.78-15.41-16.29-16.92Zm-102.28-16.85l-.11,2.73c3.11,.42,7.8,2.31,9,1,2.33-2.56,3.65-6.91,3.56-10.49-.04-1.98-3.73-3.87-5.8-5.8l-2.2,2.02,2.71,7.94c-2.87,1.04-5.02,1.82-7.18,2.6h.02Zm345.06-105.75l3.65-.33c-.89-9.49-1.76-18.96-2.65-28.45l-3.42,.33c.82,9.49,1.62,18.98,2.45,28.48h-.02v-.02Zm38.66,141.07c-5.6-6.25-19.94-.4-19.27-15.01-2.93,14.98-2.29,15.49,19.27,15.01Zm-212.01-103.93l-4-2.22c-5.96,4.07-8.45,9.71-6.98,17.14l3.91,1.73,7.07-16.67h0v.02Zm59.56,4.31c-6.69,11.65-5.87,17.3,3.29,20.52-1.11-6.89-2.16-13.43-3.29-20.52Zm125.18,40.33c7.11-.33,13.34,.36,13.72-.82,1.29-3.98,.49-8.63,.49-13.03l-3.13-1.13c-2.96,3.98-5.89,7.98-11.07,14.98h0Zm-286.39,6.22l-2.11-3.29c-6.8,1.24-13.92,2.07-16.58,9.23l2.51,3.62c5.4-3.18,10.78-6.38,16.18-9.56Zm-34.06-15.52c-4.85,2.47-8.78,4.47-13.45,6.87,2.02,1.8,4.49,4,6.78,6.07l9.98-6.31c-1.09-2.2-2.22-4.42-3.31-6.6h0v-.02Zm401.44,9.87l3.58-.07v-16.81c-4.02,1.71-6.42,2.71-9.18,3.89,2.07,4.78,3.82,8.89,5.6,12.98h0Zm-330.19,10.25l3.05-.13c1.67-3.91,3.69-7.71,4.8-11.78,.4-1.44-.98-4.53-2.25-5.02-1.47-.56-5.27,.8-5.36,1.58-.49,5.07-.24,10.23-.24,15.36h0Z" fill="#41463d"/><path d="M411.93,639.88c17.01-.71,30.83-1.91,44.64-1.69,10.47,.18,21.65-5.4,31.59,3.22,1.42,1.22,5.74-.89,9.45-1.6,2.31,7.09,4.89,15.05,7.56,23.19l15.07-2.36c.38-2.78,.51-5.96,1.33-8.94,.64-2.33,2.16-4.45,3.29-6.65,1.58,2.53,4.67,5.22,4.42,7.58-.62,6.11-2.73,12.07-3.8,16.34,10.16,5.2,18.25,9.36,26.32,13.49l-.6,3.49c-18.63,8.03-39.1,6.34-58.04,3.98-17.27-2.13-33.66-11.38-48.2-16.67-7.14-.93-12.4-1.16-17.41-2.4-6.54-1.65-12.85-4.13-22.63-7.38,5.74-2.42,8.69-3.69,12.96-5.49-4.47-.53-7.49-.89-10.6-1.27,.36-1.24,9.54-3.45,15.12-3.89-1.58-2-2.76-3.49-3.96-4.98-1.33-1.65-2.67-3.27-6.49-7.96h0l-.02-.02Zm44.66,28.52c1.85,.29,3.69,.58,5.54,.84,1.82-4.82,4.13-9.54,5.22-14.54,.38-1.73-1.87-5.07-3.69-5.87-1.4-.62-5.67,1.29-5.87,2.56-.93,5.58-.89,11.32-1.2,17.01h0Zm-15.21-23.3l-2.45,4.22c3.38,2.6,6.76,5.2,10.11,7.8,1.31-2.71,2.65-5.45,3.96-8.16-3.87-1.29-7.76-2.58-11.63-3.85h0v-.02Z" fill="#41463d"/><path d="M1112.9,285.13c-30.23,11.52-58.44,16.94-87.92,13.92-1.96-.2-3.98-1.29-5.65-2.45-7.11-4.96-14.09-10.11-19.79-14.23,3.13-10,6.74-21.54,10.34-33.1l6.8,.67c-.53-2.82-1.27-5.62-1.53-8.47-.4-4.6-.49-9.23-.69-13.14,6.31,2.71,11.6,9.54,16.85,24.81,3.53,10.25,6.31,20.74,9.56,31.54,8.98-8.8-9.83-19.76,3.11-27.17,4.51,6.34,9,12.6,15.45,21.63,2.53-12.87,4.29-22.07,6.18-31.26,.53-2.6,1.56-5.11,2.33-7.67,2.76,1.13,5.49,2.27,9.07,3.76,1.13-2.27,2.65-5.34,4.16-8.38l1.6,.11v44.75c8.85,1.36,18.16,2.8,30.06,4.65h.07v.02Z" fill="#41463d"/><path d="M15.21,516.66c4.89,5.91,9.8,11.83,14.98,18.1,10.25-13.16,17.34,2.69,29.7,2.11-6.76,2.85-10.36,4.36-15.94,6.71,.27,.2-2.02-1.4-4.96-3.45l-1.76,7.83c-.4,0-1,.13-1.09,0-3.76-6.8-8.71-8.58-16.74-6.78-5.8,1.29-12.43-1.16-19.41-2.87,9.05-3.51,7.09-9.34,5.76-15.87-1.89-9.34-2.47-18.94-3.6-28.43l3.6-.42c1.51,12.67,3.02,25.34,4.54,38.04,.78,.11,1.56,.24,2.36,.36,.84-5.14,1.69-10.25,2.53-15.38v.07h.02Z" fill="#41463d"/><path d="M104.53,463.59c.71,9.2,4.09,18.1,1.02,22.19-3.42,4.58-12.69,4.78-19.34,6.87,1.27,7.16,2.22,13.61,3.6,19.99,1.38,6.36,3.18,12.63,3.71,19.27-8.71-16.25-22.63-30.46-18.03-51.46l1.31,9.38c16.23,0-.96-16.72,8.6-18.3,4.16,4.25,7.94,8.07,11.69,11.92,2.07-5.51,4.13-11.03,7.42-19.83h0v-.02Z" fill="#41463d"/><path d="M211.74,589.11c4.96,2.76,7.36,4.09,9.96,5.54,.89-.44,2-.73,2.76-1.42,6.4-5.94,17.98-6.89,24.54-1.31,4.54,3.87,6.71,10.38-1,11.36-10.51,1.36-21.52-.13-32.17-1.51-1.53-.2-2.25-6.65-4.07-12.65h-.02Z" fill="#41463d"/><path d="M545.51,609.89c-5.76,2.31-8.71,3.49-12.6,5.05l1.53-7.56c-8.49-1.62-15.61-7.6-21.36-17.96,7.36-1.18,12.8-6.16,19.27,4.4,3,4.89,4.49,12.25,13.18,16.05h0l-.02,.02Z" fill="#41463d"/><path d="M318.96,631.46c3.13,2.2,6.27,4.42,9.54,6.71-9.29,8.4-23.96,3.22-30.03-10.4,8.31-4.38,15.81-12.94,28.54-2.67-8.83,2.25-15.76,4.02-23.5,6,5.94,5.45,11.09,5.56,15.47,.38h0l-.02-.02Z" fill="#41463d"/><path d="M857.23,587.62c-15.76,2.18-31.52,4.38-47.26,6.56-.22-.87-.44-1.73-.67-2.6,6.76-1.78,16.27,1.2,17.9-10.09,.11-.78,15.72-1.69,16.5,.36,3.49,9.23,9.16,.27,13.54,5.78Z" fill="#41463d"/><path d="M555.58,630.63l9.74,6.18c-5.69,1.22-10.58,2.27-13.98,3-3.22-7.54-6.14-14.38-9.18-21.52,5.11,.33,10.51,.67,16.9,1.07-1.22,3.93-2.22,7.22-3.49,11.27h.02Z" fill="#41463d"/><path d="M409.86,644.22c-2.42,.58-4.85,1.13-7.71,1.82,.44,5.34,.89,10.74,1.47,17.58-4.05-.42-7.63-.8-14.56-1.53,5.07-3.33,7.18-4.74,8.16-5.38-1.09-4.71-4.07-11.49-2.62-12.6,3.78-2.93,9.47-3.38,14.38-4.82l.91,4.94h-.02Z" fill="#41463d"/><path d="M380.41,642.61l6.6,9.23c-9.2,9.58-13.52,9.89-20.52,.18,4.67-3.13,9.29-6.27,13.92-9.4h0Z" fill="#41463d"/><path d="M565.1,657.78c1.4-3.85,1.93-5.34,2.05-5.6-4.58-2.13-8.83-4.07-12.96-6.22-.13-.07,1.16-3.56,1.36-3.51,5.05,1.09,10.34,1.8,14.89,3.98,2.87,1.38,4.62,5.05,8.2,9.25-5.42,.84-8.71,1.36-13.56,2.11h.02Z" fill="#41463d"/><path d="M376.98,323.9c-1.49-5.34-2.96-10.67-4.45-16.01,5.87,4.98,22.41-.84,16.72,12.85-5.18,1.22-8.8,2.07-12.4,2.98,.04,.07,.13,.18,.13,.18Z" fill="#41463d"/><path d="M1041.27,243.67c-.69-10.98-1.38-21.94-2.07-32.92l3.96-.13c7.63,10.6-2.07,22.1-1.91,33.03h0l.02,.02Z" fill="#41463d"/><path d="M829.88,385.39c-1.98-4.96-4.98-12.38-8.38-20.87,2.33,.84,3.98,1.44,6.85,2.49,.38-5.67,.71-11.03,1.07-16.38h2.16c-.6,12.45-1.2,24.88-1.69,34.77Z" fill="#41463d"/><path d="M99.28,569.28c4.13,4.05,12.8-16.98,20.63,0h-20.63Z" fill="#41463d"/><path d="M15.18,516.55l-3.58-39.04,3.6-.22v39.26h-.02Z" fill="#41463d"/><path d="M513.63,506.28c2.8,.89,5.6,1.78,11.12,3.53-7.47,4.02-12.32,6.62-18.47,9.96l-5.51-9.05c3.16-.82,6.36-1.51,9.47-2.49,1.33-.42,2.49-1.42,3.73-2.18l-.31,.22h-.02Z" fill="#41463d"/></g></g></g></g></svg>