<?xml version="1.0" encoding="UTF-8"?><svg id="b" xmlns="http://www.w3.org/2000/svg" viewBox="0 0 367.31 197.67"><g id="c"><g id="d"><g id="e"><g><path d="M323.52,162.53c-9.83-.31-19.65-.44-29.46-1-10.74-.6-10.74-.78-11.67,9.69,2.93-2.45,5.38-4.45,7.8-6.47l8.74,5.58c-.84,1.51-1.96,3.53-3.49,6.34l11.14-2.8,1.16,3.4c-4.69,1.67-9.38,3.33-14.34,5.09,.62,3,1.22,5.85,1.96,9.36-6.4-3.05-15.03,.42-25.03,.33-7.74-.07-12.54,1.04-18.94,4.89-4.54,2.73-6.42-2.67-6.09-8.14,.2-3.27-2-7.71-4.58-9.89-5.56-4.71-9.4-1.38-9.09,4.71,.4,7.8-3.51,9.11-9.31,7.47-8.07-2.29-17.56,4.07-24.76-4-.16-.18-3.47,2.45-5.89,4.18l-5.65-7.14c-12.38-1.36-23.94-2.62-35.24-3.87,5.89-9.47,10.54-16.92,14.83-23.81-.38-.53,.98,1.38,1.53,2.18l12.23-11.78v9.94l1.62,.31,2.96-7.18,1.49,9.63,1.8,.2c.89-3.51,1.8-7,3.4-13.25l1.98,13.09,1.87-7.96,3.58,11.4,6.56-16.16v14.45c3.91-2,6.87-3.51,11.12-5.69-.91,8.94-1.71,16.9-2.51,24.83l2.6,.62c3.16-7.47,6.31-14.94,9.87-23.32,.91,6.27,1.8,12.34,2.69,18.41h3.13l1.65-26.61,1.91-.11c.22,4.82,.11,9.69,.78,14.47,.27,1.91,2.22,3.6,3.4,5.38,.82-1.82,2.33-3.62,2.38-5.47,.24-10,.11-20.01,.11-31.23l8,8.51c1.89-2.42,4.09-5.29,5.89-7.6-.8,7.85-1.65,16.27-2.51,24.68l3.76,.64c.49-3.76,1.18-7.49,1.4-11.25,.24-4,.04-8.05,.04-11.27,7.09-.69,12.25-1.18,17.3-1.67-1.56,3.11-3.29,6.6-5.05,10.07l1.58,1.67c2.4-2.69,5.96-4.98,7.02-8.11,3.76-11.14,9.54-15.29,22.96-12.67,1.44-7.51,2.29-15.27,4.65-22.54,1.16-3.58,5.11-6.25,7.78-9.34l4.09,2.56c-1.89,5.18-4.49,10.25-5.45,15.61-.93,5.25-.2,10.8-.2,16.63,4.13-3.18,7.76-5.96,11.36-8.74l1.62,1.38c-2.38,6.16-4.76,12.32-6.89,17.85,6.94-1.2,12.18-2.11,18.27-3.16-.69,2.85-1.18,4.85-1.16,4.74l5.2,6.34,.44-.38c-7.2,3.36-14.41,6.74-23.92,11.18l8.34,2.76c-.93,.64-1.87,1.31-2.8,1.96l.04,.09h0Zm-64.13,1.49c5.31,2.42,10.63,4.82,14.63,6.65l9.98-14.03c-12.34-13.76-15.38,7.78-24.61,7.38Z" fill="#41463d"/><path d="M206.54,80.47c-15.63-4.22-31.43-7.96-46.82-12.94-5.2-1.69-11.2-5.54-13.63-10.11-3.91-7.38-1.71-14.81,8.07-18.16l-2.02-2.91-6.02,2.47V0l1.82,.13c-.42,5.27-.82,10.54-1.31,16.67,2.71-4.56,4.07-9.91,7.29-11.45,3.42-1.65,8.6,.09,12.94,.8,2.87,.47,5.71,1.47,8.4,2.58,18.67,7.74,37.3,10.18,55.91-.18,.93-.51,2.09-.73,3.16-.82,.67-.07,1.38,.33,3.16,.82,0,9.14,.44,18.61-.29,27.99-.2,2.51-3.65,5.54-6.34,6.96-5.85,3.11-12.18,5.38-18.32,7.98l1.33,2.45c9.05-3.91,18.1-7.83,27.68-11.98v17.61l14.83,10.43c-16.18,8.63-31.34,18.41-50.2,10.25,7.94-3.89,8.76-18.92,2.25-27.83l-1.89,28.14v-.07Zm21.9-44.35l2.65-19.81c-15.56,1.91-11.18,13.05-12.54,22.14l9.89-2.36h0v.02Zm-61.96-10.09l6.54,9.03c-11.45,3.22-2.11,10.49-2.31,15.89l1.76-9.27,3.78,10.65,1.62-.4c-1-8.67-2.02-17.32-3-25.9h-8.38Z" fill="#41463d"/><path d="M26.23,90.66l-6.58-12.52,3.13-2.56,9.54,11.78,1.91-.82-3.67-18.63,1.73-.87,5.05,12.83,2.2-16.67,2.93,.24-1.62,28.28,7.54-9.45,1.67,9.4c3.45-5.78,7.2-12.12,10.96-18.43l1.96,1.38-7.34,23.36c15.92-8.74,17.74-8,27.99,9.36-5.14-.98-9.29-1.76-12.63-2.4-1.71,2.53-2.93,5.76-5.29,7.51-4.85,3.62-10.23,6.51-15.49,9.54-1.18,.67-2.93,.98-4.2,.64-3.98-1.09-7.8-3.36-11.78-3.65-3.69-.27-7.51,1.44-14.16,2.93l6.47-9.29c-9-3.29-17.43-6.36-26.54-9.69l5.27-10.05,20.92-2.22h.04v-.02Z" fill="#41463d"/><path d="M323.52,162.53c.93-.64,1.87-1.31,2.8-1.96,3.27-1.89,6.54-3.78,10.31-5.98l1.76,7.25h3.53v-15.21l-.44,.38c1.4,.18,3.73-.07,4.02,.6,5.09,11.2,9.83,7.96,16.12-.04l-.69,11.36,6.38,.78v2.82h-43.79Z" fill="#41463d"/></g></g></g></g></svg>