<?xml version="1.0" encoding="UTF-8"?><svg id="b" xmlns="http://www.w3.org/2000/svg" viewBox="0 0 73.63 103.41"><g id="c"><g id="d"><g id="e"><path d="M14.14,20.63l6.34,5.87c-3.73-7.18,.24-20.83-15.49-18.18C3.82,8.49,1.67,2.87,0,0,11.85,2.56,23.25,16.25,34.21,41.04c.42-2.29,.73-3.6,.91-4.94,.16-1.07,.18-2.13,1.18-3.38,1.07,11.72,2.16,23.43,3.22,35.15l4.27-.38c-1.73-15.54-3.45-31.08-5.18-46.64l2.53-.38c2.09,14.54,4.2,29.08,6.45,44.75,2.6-1.33,6.05-2,6.47-3.51,4.2-14.85,19.23-26.97,11.29-45.11-.87-1.96,2.91-5.94,5.47-10.76,1.11,8.96,1.96,15.83,2.8,22.7-7.89,23.54-19.56,47.02-16.29,74.56-7.69,1.24-10.45-1.31-12.69-8.36-6.11-19.25-13.29-38.19-20.9-56.93-2.31-5.67-7.42-10.18-11.25-15.23l1.67-2v.04h-.02Z" fill="#41463d"/></g></g></g></svg>