<?xml version="1.0" encoding="UTF-8"?><svg id="b" xmlns="http://www.w3.org/2000/svg" viewBox="0 0 112.51 71.83"><g id="c"><g id="d"><g id="e"><g><path d="M48.33,64.51c1.42-4,4.45-8.2,3.96-11.94-1-7.4-3.93-14.56-5.58-20.16l7.14-17.85s.44,2.36,1.09,5.89c3.87-7.42,7.27-13.94,10.67-20.45-6.58,18.94-9.49,37.79-3.73,60.8,8.18-9.98,14.61-17.83,21.87-26.72l-2.82,15.89c11.18,3.29,21.39,6.29,31.59,9.29l-1,3.49c-5.31-1.49-10.6-2.96-17.3-4.82l4.58,9.63c-8.05-1.02-16.03-2.05-21.79-2.78-5.91,1.31-11.32,.93-14.03,3.42-8,7.38-11.12,1.58-14.83-4.11l.18,.42Z" fill="#41463d"/><path d="M48.33,64.51l-.18-.42c-1.56,5.58-2.76,11.18-10.45,4.98-1.58-1.29-6.09-.49-8.34,.84-7.8,4.67-13-.2-18.76-4.02-2.85-1.89-6.02-3.27-10.6-5.71,5.02,1.22,8.69,1.96,12.25,3.02,2.87,.84,5.65,2.07,8.45,3.11l.96-12.78,16.52,5,2.27-7.58,7.89,13.56Z" fill="#41463d"/></g></g></g></g></svg>