<?xml version="1.0" encoding="UTF-8"?><svg id="b" xmlns="http://www.w3.org/2000/svg" viewBox="0 0 90.06 152.02"><g id="c"><g id="d"><g id="e"><g><path d="M31.23,139.01l-.53,8.96-20.36-18.85,1.29-3.4L.31,131.58c1-3.13,1.98-8.03,2.65-7.98,11.56,.78,6.67-6.98,6.65-12.2l-7.36,5.45-2.25-1.42,3.45-17.07,2.45-.47,3.56,7.11,4.02-9.31c3.93-.22,8.16,.67,9.25-.78,2.73-3.62,6.36-8.89,5.47-12.47-1.85-7.49,1.13-12.29,4.65-17.98,2.58-4.18,3.45-9.4,2.65-14.67-4.98,6.82-9.94,13.63-15.67,21.5-15.03-17.43-6.6-36.72-7.71-54.69,3.58,13.78-1.96,29.7,12.69,44.64,1.07-6.71,2.45-10.69,2.09-14.49-.42-4.47-1.38-7.4,2.4-12.03,2.87-3.51-.11-11.83,1.69-18.03v26.41l1.76,.09c1.27-14.38,2.53-28.79,3.8-43.17l1.8,.22-2.16,38.21,10.76-17.76c-1.51,8.63-5.65,17.1-3.31,23.08,2.31,5.98,11.09,9.47,18.58,15.25-.27,3.13-1.82,9.09-1.04,14.69,.98,7,3.73,13.78,6.02,20.56,.36,1.04,2.58,2.53,3.33,2.25,13.07-5.18,14.23,7.25,19.54,12.92-3.82,4.94-7.58,9.83-10.07,13.05-10.09-6.36-20.32-5.69-29.1-5.89l3.09,9.25c-3.85,1.4-8,2.29-11.47,4.36-4.09,2.42-7.58,5.87-11.32,8.87l.04-.04Z" fill="#41463d"/><path d="M31.23,139.01c3.76-3,7.22-6.45,11.32-8.87,3.47-2.07,7.63-2.93,11.47-4.36l-1.42,7.27c1.62,.2,4.09,1.18,4.69,.51,2.8-3.2,5.09-6.87,8.83-12.16l10.96,5.11c-5.78,2.78-9.74,3.8-12.45,6.2-3.09,2.76-5.05,6.76-7.49,10.23l10.2,4.51c-9.58,8.43-27.12,4.94-36.12-8.43h.02v-.02Z" fill="#41463d"/></g></g></g></g></svg>