<?xml version="1.0" encoding="UTF-8"?><svg id="b" xmlns="http://www.w3.org/2000/svg" viewBox="0 0 101.84 150.26"><g id="c"><g id="d"><g id="e"><g><path d="M47.77,59.51c-1.49,3.53-3.09,7.05-4.42,10.63-2.45,6.56-4.74,13.16-7.09,19.74l3.98,1.6c2.42-5.8,4.85-11.58,7.27-17.38-4.42,10.47,3.27,20.87-1.89,32.5-4.76,10.72-1,25.19-1,37.79,5.98-1.27,10-2.82,14.01-2.76,4.27,.07,8.51,1.65,13.87,2.8l-5.25-11.65c11.98-.47,23.5-6.67,34.03,.56l.56,5.45c-11.74,2.87-23.36,6.54-35.26,8.43-12.65,2-25.59,2.56-38.41,3.05-1.85,.07-5.38-3.65-5.49-5.76-1-18.34-.53-36.79-2.27-55.04-1.51-15.94-4.67-31.83-8.49-47.4-1.47-6-6.87-11.03-10.31-16.61-.82-1.33-1-3.09-1.6-5.05l11.2,4.8c2.98,6.82,6.07,13.98,9.18,21.12l1.16-1.16v15.03l2.13,.31,4.58-11.14v23.1l2.22,.07c1.6-22.79,3.2-45.57,4.62-65.8-.44-1.33,.07,.22,1.11,3.38L38.24,0l.89,.09c-1.53,25.36-3.07,50.75-4.56,75.34,4.16-4.76,8.85-10.11,13.52-15.47l-.29-.44h-.02Z" fill="#41463d"/><path d="M47.77,59.51l.29,.44c2.07-5.14,4.11-10.27,6.18-15.41l2.93,.56c-.84,5.47-1.69,10.94-2.51,16.41l-6.87-2h-.02Z" fill="#41463d"/></g></g></g></g></svg>