<?xml version="1.0" encoding="UTF-8"?><svg id="b" xmlns="http://www.w3.org/2000/svg" viewBox="0 0 97.97 167.48"><g id="c"><g id="d"><g id="e"><g><path d="M29.86,41.46c5.56-7.2,2.65-19.83-4.09-25.79l.91-15.67c.96,1.2,2.98,2.58,2.87,3.8-.96,12.2,10.63,16.87,15.85,25.19,3.2,5.07,10.85,1.53,16.27-4.16-4.09,9.27-8.16,18.56-12.25,27.83l-1.69-.44,1.51-9.65-1.96-1.93c-2.09,1.76-5.58,3.25-5.98,5.34-1.33,6.78,7.11,15.72,15.76,17.56,1.13-2.96,2.49-5.89,3.33-8.96,.76-2.67,.93-5.49,1.58-9.54l7.76,8.34,3.16-4.49,12.45,8.4c-14.52-2.71-18.05,5.65-21.1,15.85l14.25,6.31c-5.56,4.27-11.05,8.49-15.89,12.2,12.29,18.41,7.69,38.59,12.45,54.06h22.92c-4.6,6.67-8.18,11.85-13.23,19.16l12.72-1.38,.09,2.51H41.55l-.73-1.76c5.62-1.36,11.23-2.71,20.9-5.02l-10.09-9.78c-7.51,12.23-11.45,12.85-18.38,6.6l21.65-15.21,1.96,3.31,1.6-.56-2.22-12.52-3.98,5.58c-1.16-3.16-3.05-6.02-3-8.83,.04-2.42,2.36-4.76,3.62-7.18,.76-1.44,1.82-2.91,1.91-4.42,.07-.98-1.22-2.73-2.18-2.96-6.71-1.65-13.49-2.98-18.41-4.02l11.34-1,.11-3.25-8.91-2.18,11.27-3.07-19.94-14.29c7.8,1.96,17.03,1.2,20.3,11.96,2.62-5.74-3.09-26.41-7.8-31.12l-8.65-13.25-1.47-7.96-.53-3.65h-.04Z" fill="#41463d"/><path d="M31.88,53.06l8.65,13.25,1.51,11.78c-3.53-2.13-7.63-6.51-11.18-6.11-2.85,.31-5.07,6.42-7.56,9.96H5.27c3.82-2.53,7.34-4.65,10.47-7.22,.29-.24-1.89-3.45-3.09-5.62l8.4-7.25,7.98,5.49,2.38-1.98-9.43-12.29h9.89Z" fill="#41463d"/><path d="M5.85,164.31l10.09-6.2c-5.82-.76-9.91-1.29-15.94-2.07,6.2-1.62,10.65-3.87,14.89-3.53,3.42,.27,7.56,3,9.58,5.87,1.31,1.87-.6,6-1.07,9.11-3-.71-6-1.73-9.05-2-2.56-.22-5.18,.49-7.78,.8l-.71-1.98h-.02Z" fill="#41463d"/><path d="M29.86,41.46l.53,3.65c-2.65-.96-7.14-1.38-7.65-3-1.89-6.2-2.56-12.78-3.45-19.25-.02-.22,3-1.51,3.65-1.02,1.22,.91,2,2.69,2.49,4.25,1.58,5.09,2.96,10.25,4.4,15.38h.02Z" fill="#41463d"/></g></g></g></g></svg>