<?xml version="1.0" encoding="UTF-8"?><svg id="b" xmlns="http://www.w3.org/2000/svg" viewBox="0 0 142.33 178.79"><g id="c"><g id="d"><g id="e"><path d="M48.11,166.42c-4.89,3.13-8.85,5.38-14.94,.27-3.18-2.65-10.43-.47-15.85-.47,1.76-8.56,5.98-13.94,12.67-16.14H15.28l-.73,12.32c-16.45-3.53-17.74-7.27-9.87-23.05-10.45-12.56,3.85-20.01,4.6-30.39,2.47,3.82,4.4,6.82,6.34,9.83l1.47-.38c-.49-2.8-.98-5.6-1.71-9.78l6.27,4.16,1.58-11.03,4.87,10.03,6.09-9.2,2.89,.33-2.05,14.47,1.09,1.11,6.2-13.18c4.02,6.94,7.6,13.09,10.89,18.74,4.29-4.94,9.4-10.78,14.49-16.65l3.13-3.25c-9.09-7.69-18.32-15.25-27.14-23.23-1.47-1.31-1.18-4.56-1.69-6.91,2.38,.53,5.49,.29,7,1.71,8.29,7.87,16.21,16.16,24.7,24.76,5.34-11.34,13.47-21.16-3.51-29.61l4.07-1.85c3.2,2.96,6.4,5.91,10.49,9.69,1.36-8.83,5-17.61,3.29-25.19-2.33-10.29-12.54-13.92-22.65-15.92-3.38-.67-6.38-3.13-9.56-4.78l1.93-4.42c9.29,2.93,18.58,5.87,29.26,9.25-2.69-9.45-5.47-19.25-8.27-29.06l3.71-1.02c5.42,13.03,10.87,26.03,16.45,39.44,10.29-14.14,23.16-27.19,18.41-47.02,3.78,3.38,6.45,5.76,6.98,6.25-.76,7.56-1.11,13.92-2.13,20.14-.4,2.42-1.89,5.02-3.62,6.85-13.12,13.65-27.37,26.52-28.77,48.2,3.02-1.4,6.05-3.02,9.25-4.18,3.11-1.13,6.82-5.69,8.8,2.13,.51,2.07,7.34,2.53,13.38,4.38-6.82,.67-11.98,1.33-17.14,1.67-10.34,.67-12.98,4.29-11.96,14.56,.71,7.14,.13,14.38,.13,21.59l3.38,1.98c4-2.82,8-5.65,13.89-9.83,.6,4.62,1.18,9.05,2.09,15.94l11-4.18c1.56,2.93,3.71,6.96,5.85,10.96l7.98-11.38c1.49,4.02,3.31,8.96,5.89,15.89h-36.81c3.56,2.45,4.62,3.18,6.2,4.27-8.11-.8-15.56-1.53-23.01-2.27l-.04,1.4c6.89,1.93,13.78,3.87,20.7,5.8l.4,2.65-10.89,4.8c6.07,4.07,11.96,8,17.85,11.96-14.83-3.4-27.97-.93-41.46,5.94-13.4,6.8-23.08,2.6-26.92-8.6,4.8,1.96,9.58,3.91,13.23,5.4,2.25-6.58,4.05-11.8,6.71-19.63l-20.05,13.78-.11-.04Z" fill="#41463d"/></g></g></g></svg>