<?xml version="1.0" encoding="UTF-8"?><svg id="b" xmlns="http://www.w3.org/2000/svg" viewBox="0 0 119.74 169.65"><g id="c"><g id="d"><g id="e"><path d="M34.31,11.36L36.73,.98l1.85-.98,5.31,26.43,2.69-.33V13.74l10.38-1.62c-9.63,11.16-.56,23.05-3,33.81,3.31-7.65,6.65-15.29,11.03-25.41v30.86l2.53,.91,6.42-13.72c12.52,1.67,2.42-13.72,10.89-16.92v15.23l-13.45,16.05,1.73,2.07,15.94-6.65c.51,8.76-16.87,9.14-6.18,21.45-4.31-1.42-6.51-2.16-10.05-3.33-7.8,22.61-17.56,44.64-16.41,70.45,24.48-4.2,43.26,8.4,63.2,17.32l.11,3.85c-5.62,1.38-11.25,3.85-16.92,3.91-14.83,.16-29.21,.13-43.35,6.69-5.2,2.42-13.12-.33-19.63-1.58-8.43-1.62-16.74-3.82-24.96-6.31-3.58-1.09-7.18-3.05-9.98-5.49-2.33-2.05-5.56-6.4-4.78-7.94,1.58-3.11,5.58-4.98,8.58-7.38l1.78,2.62-7.4,5.58c14.47,5.38,24.99,1.67,34.7-12.74l6.07,8.2c3.49-29.43,7.07-53.8-29.94-66.58v-16.63l-2.42-.13-2.73,5.09h-2.18c-.96-7.67-1.93-15.34-2.87-22.81,5.25,4.67,10.27,9.14,15.32,13.61l1.71-1.87c-1.38-7.2-3.16-14.34-4.05-21.61-.98-7.89-1.13-15.87,.02-24.01,2,16.27,3.4,32.19,21.19,40.99l1.53-9.11,3.27,17.1,2.96-.04c-.64-8.34-.22-16.94-2.25-24.94-2-7.98-6.42-15.34-9.11-21.39v.04h.02Zm3.98,72.98c-1.31-15.72-3.22-17.63-21.5-20.5,7.89,7.54,14.09,13.45,21.5,20.5Zm14.09-11.18l3.13,.49,5.96-28.66c-11.8,8.78-7.42,19.14-9.09,28.19h0v-.02Z" fill="#41463d"/></g></g></g></svg>