<?xml version="1.0" encoding="UTF-8"?><svg id="b" xmlns="http://www.w3.org/2000/svg" viewBox="0 0 69.77 71.14"><g id="c"><g id="d"><g id="e"><g><path d="M33.78,71.14c-10.34-.98-18.27-1.73-28.03-2.65l10.83-10.05-1.78-1.93-6.4,4.45c-1.09-.89-2.05-1.24-2.13-1.78C3.97,47.26,.57,35.41,.02,23.43-.27,15.45,3.53,7.31,7.53,0V52.13l2.96,.64c1.09-1.89,3.07-3.76,3.11-5.67,.13-7.31-1.62-14.92-.27-21.92,1.62-8.36,5.74-16.25,10.54-23.81-1.22,6.47-1.65,13.23-3.85,19.34-4.49,12.45,6,20.34,8.36,30.63,1.4,6.07,3.27,12.05,5.4,19.74v.04Z" fill="#41463d"/><path d="M69.77,61.2c-4.6,1.33-8.36,2.42-12.72,3.69l-1.42-10.6c-1.76,4.54-2.49,9.43-3.93,9.65-3.27,.47-6.85-1.36-12.38-2.8,3.11-4.18,5.38-9.83,7.85-9.91,4.02-.13,8.18,3.38,12.29,5.31,3.13,1.47,6.34,2.87,10.31,4.67Z" fill="#41463d"/></g></g></g></g></svg>