<?xml version="1.0" encoding="UTF-8"?><svg id="b" xmlns="http://www.w3.org/2000/svg" viewBox="0 0 300.78 332.36"><g id="c"><g id="d"><g id="e"><g><path d="M300.76,281.21c-4.98,2.83-9.34,5.51-13.88,7.86-21.03,10.87-41.98,21.89-63.24,32.27-5.73,2.8-12.44,3.65-18.76,5.15-5.28,1.25-10.65,2.17-15.99,3.15-5.25,.97-10.51,1.84-15.58,2.72,.32-6.95,.82-13.28,.85-19.62,.15-24.42,.21-48.85,.19-73.27-.02-27.63-.24-55.26-.15-82.88,0-3.16,1.64-6.28,2.16-9.47,.35-2.16,.07-4.43,.07-7.42,2.06-1.19,4.66-2.69,7.26-4.2l.64,1c-1.52,.94-3.43,1.58-4.45,2.91-1.04,1.36-1.21,3.39-1.76,5.12,1.47-.1,3.1,.17,4.37-.38,3.6-1.55,7.05-3.43,11.44-5.62,.34,5.05,.64,9.38,.93,13.72l1.26,.05,.67-13.41,.63-.22c.32,1.14,.63,2.29,.95,3.43-.63-6.28,3.84-8.04,8.33-10.24,12.67-6.2,25.21-12.68,37.76-19.12,3.13-1.61,4-.89,4,2.63,.02,36.73,.19,73.47,.31,110.2,.03,8.27-.26,16.56,.18,24.8,.1,1.82,2.34,4.14,4.18,5.14,15.04,8.12,30.23,15.98,45.36,23.94,.54,.28,.98,.74,2.29,1.76h-.02Zm-76.5,3.79c4.74-2.42,8.38-4.01,11.69-6.12,1.02-.65,1.61-2.71,1.59-4.11-.07-6.94-.44-13.87-.64-20.8-.08-2.71,0-5.43,0-8.56-3.66,2.03-6.79,3.55-9.66,5.45-1.25,.83-2.81,2.4-2.84,3.67-.24,9.71-.13,19.43-.13,30.47h0Z" fill="#41463d"/><path d="M127.87,99.16c1.09,.67,2.18,1.34,4.33,2.66-4.54,3.62-8.43,6.92-12.53,9.94-4.07,2.99-9.09,5.05-12.3,8.73-2.59,2.98-5.43,6.66-6.69,10.28-2.44,7.02,1.89,13.03,8.35,16.75,5.83,3.36,10.82,8.24,11.02,15.86,.15,5.51,.03,11.02,.03,16.53l1.63,.33,3.96-6.24c.89,.98,1.63,1.8,3.02,3.33,.09-1.78,.46-2.81,.12-3.46-4.29-8.13-4.17-7.91,3.04-13.09,1.77-1.27,2.66-4.24,3.22-6.6,.75-3.15,1.26-5.48,4.87-2.23-1.1,.66-2.8,1.16-2.87,1.82-.1,1.03,.91,2.17,1.32,2.99,2.18-1.01,3.82-2.1,5.59-2.41,.62-.11,2.11,1.59,2.28,2.62,.36,2.19,.04,4.48,.15,6.71,.23,4.62,.57,9.24,.86,13.84-4.93,2.78-6.74,6.44-5.11,11.77,.52,1.7,2.59,2.91,3.88,4.41,1.21,1.41,2.31,2.91,3.46,4.37l-1.6,1.07c-.53-1.31-1.07-2.61-1.92-4.7-.7,1.43-1.28,2.28-1.54,3.22-.9,3.25-.12,7.07-4.06,9.26-.87,.48-.31,3.51-.44,5.82-2.84,.77-6.23,1.64-9.58,2.66-.49,.15-1.13,1.03-1.08,1.52,.5,5.22-2.18,8.9-5.52,12.55,1.44-.87,2.88-1.74,4.78-2.88,.22,4.12,.41,7.7,.65,12.25-10.33-3.28-19.37-6.8-24.31-16.86l-1.58,.87c.27,2.31,.55,4.61,.84,7.12-4.67-1.65-6.32-4.27-5.97-9.85,.87-14.07,.22-28.23,.92-42.32,.47-9.46,.21-19.55,8.97-26.96-1.76,.48-3.52,.96-4.91,1.34-.87-1.43-1.84-3.02-2.85-4.68,.4-.14,1.25-.43,2.18-.74-1.58-7.56-7.8-5.01-12.86-5.73,.81-1.57,1.43-2.75,2.5-4.8-3.03,1.05-5.18,1.8-7.04,2.45-.25-1.69-.3-3.45-.78-5.09-1.65-5.62-.73-7,5.21-7.68,.65-.07,1.21-.81,1.82-1.25-3.32-1.82-.59-6.05-3.35-9.34-1.57,6.36-3.43,11.35-9.98,12,3.06-4.73,.22-11.56,5.92-15.93,.43,1.85,.69,2.99,1.27,5.49,1.74-2.43,2.8-3.9,3.73-5.21-4.45-1.05-8.19-1.93-12.54-2.95v14.12l-1.73,.05c-.17-3.02-.71-6.07-.42-9.04,.38-3.96-.56-6.48-4.47-8.31-9-4.22-17.79-8.89-26.64-13.44-2.94-1.51-7.04-2.21-4.59-8.11l-1.68,.73-1.28,2.84c-8.63-3.48-17.26-6.96-26.29-10.6,1.22-.68,2.8-2.22,4.56-2.44,5.44-.7,9.8-3.96,14.65-5.93,3.97-1.61,7.07-5.35,11.01-8.51,.03,.02,.9,.62,1.72,1.19-.69-9.15-1.36-18.22-2.08-27.8l-2.72-.89c5.83-.7,11.22-1.35,17.57-2.12,0,5.42-.22,11.46,.06,17.47,.35,7.53,2.64,8.63,9.25,4.93,3.05-1.71,6.82,1.41,6.97,6.31,.17,5.62-.22,11.27-.36,16.9-.02,.75,0,1.51,0,2.26l1.71,.53c1.03-2.8,2.06-5.61,3.58-9.73,2.67,4.44,4.95,8.25,7.24,12.05l1.6-.39c.48-10.25,.96-20.49,1.46-31.04h-10.74l-.28-1.23c1.98-.39,3.97-1.17,5.93-1.11,4.49,.13,5.91-2.01,5.56-6.15-.2-2.43-.04-4.9-.04-7.35l1.27-.29c.32,1.15,.95,2.31,.91,3.45-.29,10.21-.71,20.42-1.06,30.64-.16,4.58-.37,9.03-1.19,13.67-1.36,7.73,.92,16.1,2.83,24.14,.26-2.86,.51-5.72,.77-8.58l1.78,.1c0,6.31-.08,12.62,.05,18.92,.04,1.72,.71,3.42,1.1,5.14,1.55-.61,3.23-1.01,4.63-1.87,8.61-5.3,17.28-10.53,25.64-16.21,1.77-1.2,6.33,.87,5.31-3.99l-.11,.14h.01Zm-6.49,103.99c1.24-1.43,2.52-2.26,2.8-3.34,1.12-4.37,1.25-9.14,3.1-13.13,1.39-2.99,4.85-5.03,7.75-7.84-6.27-2.3-10.17,4.6-15.42,4.73,.58,6.36,1.13,12.45,1.78,19.58h0Zm7.86-16.84c-.48,2.14-1.6,4.1-1.05,5.25,1.8,3.75,1.5,7.17,.07,10.88-.23,.6,1.74,2.93,2.37,2.81,3.04-.59,7.24-.86,8.65-2.89,2.21-3.17,.94-7.35-2.3-10.13-2.23-1.91-4.66-3.59-7.74-5.92h0Zm-32.86-56.95c-1.09,3.73-1.91,6.55-2.77,9.5,4.75-.08,5.72-2.82,2.77-9.5Z" fill="#41463d"/><path d="M106.36,293.74c-.54-2.23-.5-4.89-1.76-6.6-2.31-3.13-4.8-2.42-6.32,1.27-.41,1-.97,1.95-1.46,2.92-.46-.17-.93-.34-1.39-.51,1.44-3.59,2-8.07,4.53-10.55,3.48-3.42,1.9-5.53-.23-9.71-.62,2.18-.81,3.14-1.15,4.03-1.21,3.1-2.36,6.25-3.87,9.21-.23,.44-2.25-.03-3.44-.08,.2-.95,.18-2.06,.69-2.81,.39-.58,1.44-.71,2.2-1.04-.26-.69-.52-1.38-.78-2.08-2.31-.13-4.63-.25-7.44-.41,.98,2.53,1.52,3.93,2.18,5.62-3.05-.7-5.26-1.13-7.44-1.73-1.54-.42-3.02-1.06-4.53-1.6,1.37-1.45,2.54-3.82,4.14-4.16,3.17-.66,6.57-.2,9.88-.2,.11-.56,.21-1.13,.32-1.69-3.11-.76-6.29-1.34-9.32-2.34-1.39-.46-2.68-1.61-3.62-2.76-.21-.25,1.18-1.95,1.99-2.84,1.03-1.13,2.21-2.11,3.33-3.16-1.78,.1-3.57,.2-5.35,.31-.32,.02-.64,.06-.96,.08-1.16-1.05-2.32-2.1-4.18-3.78,.14,5.26-.28,8.08-6.48,7.08-3.95-.63-8.48,2.61-12.8,3.96-2.44,.76-4.62,4.18-7.78,1.1,1.5-2.8,5.06-5.31,.33-8.41,1.52-1.57,5.42-2.34,1.82-5.7-.86-.8,.66-3.85,.59-5.85-.41-10.36-.98-20.71-1.54-32.01,3.68,1.58,6.78,2.75,9.73,4.21,2.89,1.43,5.52,3.39,8.45,4.72,5.15,2.33,9.96,4.78,9.53,12.89,2.05-2.38,3.15-3.67,3.68-4.28,11.72,2.93,22.09,8.29,33.51,13.37-2.6,2.38-4.68,4.28-6.76,6.18,.12,.48,.25,.96,.37,1.44,3.26-.8,6.63-1.29,9.75-2.48,5.1-1.94,8.92-1.03,13.62,4.72h-6.97l-.86,1.01c.99,.82,1.9,1.81,3,2.43,1.27,.71,3.1,.77,3.93,1.76,.43,.52-.76,2.4-.85,2.65,.87,2.98,1.8,5.24,2.17,7.59,.85,5.39-.86,10.92,2.72,16.25,1.73,2.58,.58,7.11,.67,10.75,.06,2.45,0,4.9-.77,7.83-.7-1.56-1.72-3.06-2.05-4.7-.67-3.32-.84-6.74-1.51-10.06-.16-.79-1.47-1.34-2.25-2-.5,1.02-1.48,2.07-1.42,3.06,.15,2.48,.77,4.92,1.23,7.54h-1.85c.31-6.63-5.16-7.01-9.41-8.38-2.66-.86-3.09-2.25-3.01-4.75,.2-6.14,.11-12.28,.06-18.43-.01-1.53-.31-3.05-.47-4.58l-1.5-.1c-.22,1.06-.62,2.12-.62,3.17,0,6.3,.25,12.6,.06,18.89-.04,1.25-1.59,2.46-2.45,3.68l.08,.04,.03,.02h0Zm-40.13-41.34c-4.03-.83-6.95-.63-8.56-1.99-1.51-1.27-1.64-4.18-2.84-7.73-.51,3.46-.97,5.48-1.05,7.52-.09,2.25,.16,4.51,.27,6.77,1.77-.46,3.53-.97,5.32-1.34,.79-.16,1.79,.28,2.43-.06,1.34-.71,2.5-1.75,4.42-3.17h.01Zm-9.73,7.59c-.03,.98-.05,1.95-.08,2.93h13.98c-1.48-2.03-2.45-4.6-3.68-4.73-1.46-.15-3.14,1.8-4.16,2.47-2.24-.25-4.16-.46-6.07-.67h.01Zm47.18,5.54l1.32-1.02c-1.29-1.43-3.24-4.27-3.76-4.03-2.12,.97-5.94,.69-5.96,4.07,3.29,.38,5.85,.68,8.41,.98h0Z" fill="#41463d"/><path d="M80.71,205.4c.31,3.59,.63,7.18,.97,11.04-3.69-2.07-7.01-5.34-10.59-5.64-8.22-.7-12.06-7.93-18.61-10.72-4.55-1.93-5.19-4.44-3.66-8.76-1.18,1.91-2.35,3.82-3.64,5.9-1.51-3.81-.58-6.68,2-9.28,.83-.83,1.27-3.12,.72-4.08-4.13-7.17-2.24-14.94-2.52-22.46-.46-12.26-.63-24.54-.89-36.81-.04-1.76,.15-3.52,1.18-5.37,.13,1.34,.3,2.68,.39,4.02,.45,6.4,.73,12.82,1.45,19.18,.12,1.09,1.88,2.31,3.16,2.88,1.89,.84,4.3,.7,5.98,1.77,6.27,4.01,6.76,7.27,3.12,13.46,1.88,6.3,3.58,12.05,5.29,17.79l-1.38,.99c2.38-.13,4.77-.25,6.58-.35,1.72,5.94,3.41,11.78,5.1,17.62l1.9-.11c.46-2.34,.91-4.69,1.47-7.58,1.59,1.14,2.98,2.13,5.75,4.1-1.92,.46-3.26,.78-3.98,.96,.51,1.38,.52,1.6,.63,1.68,9.72,6.73,1.9,15.98,4.31,23.75l-1.52,.21c-.31-4.84-.62-9.69-.93-14.53-.75,.1-1.51,.2-2.26,.3l-.02,.04h0Z" fill="#41463d"/><path d="M92.42,35.07c-.67,.89-1.33,1.79-2,2.68l-1.13-.73c.66-1.05,1.22-2.19,2.01-3.14,.86-1.04,2.75-1.9,2.77-2.87,.22-8.54,.13-17.08,.13-25.72h-6.46c2.96-1.14,5.24-2.01,7.51-2.89l-2.35-2.4c2.41,.99,4.97,1.73,7.16,3.07,1.27,.78,2.71,2.5,2.77,3.86,.42,9.27,.33,18.57,.74,27.85,.18,4,1.18,7.95,1.81,11.93l-1.47,.32c-.31-1.23-.28-2.76-1.02-3.62-.93-1.07-2.42-1.81-3.81-2.24-.5-.16-1.41,1-2.13,1.56,1.02,.59,2.32,.96,2.98,1.82,.9,1.18,1.76,2.71,1.86,4.14,.41,6.15-.57,12.49,3.27,18.06,.39,.56-.32,2.04-.76,2.97-1.64,3.46,.73,10.79,2.72,13.7,1.7,2.49,1.49,6.28,2.12,9.49l-1.87,.42c-.76-2.34-1.51-4.68-2.27-7.02l-1.55,.34c-.65,6.87-1.7,13.79,3.64,20.14,1.99-.89,3.88-1.73,7.03-3.13-3.6,4.47-6.46,7.12-11.21,8.12-3.13,.66-5.81,3.4-9.28,5.58V35.42l-1.2-.36h-.01Z" fill="#41463d"/><path d="M30.77,163.38c-3.38-1-6.91-1.69-10.06-3.18-.92-.44-1.02-3.13-1.07-4.8-.12-3.66-.37-7.16-3.51-10.19v12.22c-5.01-4.72-1.23-9.02-1.76-12.85-.05-.35,2.3-1.04,4.77-2.1v-22.65l1.46-.46c.66,7.52,7.46,5.71,11.39,8.26,1.69,1.1,3.74,1.65,4.51,1.97-.75,3.29-1.67,5.59-1.73,7.92-.2,7.24-.07,14.48-.07,22-2.9-.24-5.08-.41-7.27-.59l-.33,1.03,4.07,2.49-.4,.94h0Z" fill="#41463d"/><path d="M152.93,229.54c10.77,3.34,10.63,11.93,10.61,20.36,0,4.67-2.33,6.33-6.62,4.48-4.2-1.81-8.25-4.07-12.08-6.58-1.26-.83-2.22-3.03-2.27-4.63-.24-7.09-.1-14.2-.1-21.41,7.25,2.4,13.77,4.46,20.17,6.82,.81,.3,1.01,2.23,1.75,4.05-4.04-1.63-7.23-2.93-10.43-4.22l-1.04,1.13h0Z" fill="#41463d"/><path d="M17.5,207.46c5.88,2.4,11.78,4.77,17.62,7.26,.6,.26,1.24,1.27,1.24,1.93,.08,10.18,.05,20.37-.36,31.24-1.1-8.53-7.44-6.57-12.75-7.17-.25,2.82-.49,5.64-.74,8.47h-1.47c-.19-1.98-.52-3.96-.54-5.94-.09-9.92,.07-19.85-.25-29.77-.07-2.04-1.79-4.03-2.75-6.04h-.01v.02h0Z" fill="#41463d"/><path d="M142.75,275.95v8.98l-1.17-.03v-19.36c5.71,3.25,11.62,6.46,17.32,10,1.04,.64,1.8,2.62,1.76,3.95-.14,3.96-.62,7.91-1.21,11.83-.28,1.88-1.1,3.69-1.99,6.54,.41,.55,1.62,2.2,2.83,3.84l-1.08,1.3c-4.44-2.59-8.98-5.05-13.26-7.88-.99-.66-1.62-2.6-1.59-3.93,.1-3.92,.75-7.82,.89-11.74,.04-1.23-.84-2.5-1.29-3.75l-1.21,.26h0Z" fill="#41463d"/><path d="M22.87,193.3c-2.58,.03-4.6-.21-2.57-3.61,.42-.71-.03-1.95-.14-4.23-3.02,3.78-5.21,6.52-7.4,9.25l-1.85-1.47c2.27-2.66,4.14-5.89,6.92-7.81,2.29-1.58,2.37-2.87,2.24-5.21-.28-5.05-.09-10.13-.09-15.48,4.28,2.33,8.04,4.67,12.04,6.47,3.66,1.65,5.1,4.16,4.96,8.06-.18,4.9-.04,9.81-.04,16.15-4.1-2.04-6.96-3.43-9.78-4.87-3.1-1.59-4.81-1.09-4.42,2.81-.02,0,.14-.07,.14-.07h0Z" fill="#41463d"/><path d="M19.13,92.27c5.65,2.73,10.28,4.86,14.79,7.22,.78,.41,1.48,1.78,1.5,2.73,.13,6.26,.07,12.52,.07,19.68-5.39-1.53-10.38-2.89-15.32-4.43-.51-.16-.98-1.34-.99-2.05-.07-7.41-.04-14.82-.04-23.15h0Z" fill="#41463d"/><path d="M153.71,198.44c2.09,1.77,3.91,3.32,5.1,4.32,.46,5.31,1.07,10.13,1.24,14.97,.18,5.23-1.42,6.36-6.23,4.8-2.77-.9-5.48-1.98-7.09-2.56,.38-4.51,.83-8.19,.98-11.87,.25-6.37,.17-6.37,6-9.66h0Z" fill="#41463d"/><path d="M165.11,113.91c6.45-4.55,9.54-4.07,17.84,4.36-3.45,1.06-6.37,1.96-9.28,2.85l.55,.53c-1.91,1.3-3.85,3.7-5.74,3.66-3.82-.07-3.38-3.62-3.38-6.4v-5.01h.01Z" fill="#41463d"/><path d="M70.96,111c-4.95,2.53-7.77,1.79-11.33-1.47-2.71-2.48-7.58-2.61-11.49-3.79,.02-.74,.03-1.49,.05-2.23,1.67-.21,3.6-1.08,4.97-.53,5.75,2.32,11.33,5.06,17.81,8.02h-.01Z" fill="#41463d"/><path d="M15.51,265.86c1.43-.78,2.85-1.56,5.11-2.79l1.74,5.12-.78,1.25c-4.97-5.56-6.91,1.54-10.34,2-.95-2.17-1.69-3.89-2.66-6.11,5.55,1.01,1.82-10.73,9.71-6.45-1.11,1.91-2.34,4.01-3.56,6.1l.78,.87h0Z" fill="#41463d"/><path d="M11.8,241.97c-1.53-.53-3.14-.92-4.58-1.65-.85-.43-1.43-1.4-2.12-2.13l1.84-1.2v-19.59l1.56-.2c.51,2.11,1.25,4.19,1.49,6.32,.68,6.17,1.15,12.35,1.71,18.53l.1-.08h0Z" fill="#41463d"/><path d="M154.54,157.03c-1.1,1.82-2.21,3.65-3.3,5.46,4.16,2.9,4.87,7.32,1.62,10.4-2.1,1.98-3.44,1.47-4.35-1.08-1.44-4.04,1.58-12.9,6.04-14.78h0Z" fill="#41463d"/><path d="M140.53,111.2c.88,7.39,2.64,11.66,5.28,12.83-3.4,4.14-6.85,4.08-10.94,.17,1.82-4.18,3.56-8.17,5.67-12.99h0Z" fill="#41463d"/><path d="M68.15,274.06c-.84-2.04-1.23-2.98-1.66-4.02h9.32c-3,2.3-5.29,4.06-8.21,6.3-.77-.35-2.7-1.13-4.56-2.06-3.84-1.92-7.46-3.21-9.74,2.15-.14,.33-1.55,.13-2.66,.19,3.23-5.67,10.55-6.97,17.52-2.55h0Z" fill="#41463d"/><path d="M156.17,142.03c.39,1.47,.77,2.95,1.5,5.72,1.55-2.24,2.59-3.73,3.85-5.54,3.49,1.96,7.34,4.13,11.54,6.5-1.68,.52-3.34,1.04-5.19,1.61-1.54-3.29-3.85-4.65-7.4-3.2-1.59,.65-3.31,.96-4.97,1.43-.38-2.12-.76-4.23-1.14-6.35l1.81-.17Z" fill="#41463d"/><path d="M163.65,148.47c1.51,2.48,1.68,4.14-.33,6.92-1.86,2.59-1.81,6.59-2.44,10-.34,1.87-.35,3.8-1.63,5.54-1.12-7.86-.96-15.53,4.39-22.47h.01Z" fill="#41463d"/><path d="M39.61,96.75c-8.47,.33-14.24-8.76-23.4-6.23-.03-3.9,.81-4.89,3.56-3.58,6.66,3.16,13.23,6.53,19.84,9.81Z" fill="#41463d"/><path d="M20.33,279.2l5.66,.72c-1.03,3.99-7.25,8.24-10.19,6.93-1.17-.52-2.62-2.13-2.58-3.19,.05-1.29,1.36-2.74,2.49-3.69,.73-.62,2.11-.47,3.19-.67-1.45,1.12-2.9,2.25-4.34,3.37,.29,.52,.57,1.03,.86,1.55,1.5-.26,3.02-.43,4.48-.81,3.78-.98,3.17-2.5,.44-4.2h-.01Z" fill="#41463d"/><path d="M94.69,169.36c.25-3.57,.46-7.15,.82-10.71,.03-.29,1.1-.72,1.64-.65,.51,.06,1.41,.75,1.37,1.04-.52,3.54-1.18,7.05-1.8,10.57l-2.02-.25h-.01Z" fill="#41463d"/><path d="M17.51,207.46c-.14-1.45-.26-2.89-.43-4.34-.54-4.71,.1-8.72,5.76-9.81,.02,0-.14,.07-.12,.06h3.81c-.45,1.7-.84,3.18-1.35,5.08-1.98-.87-3.8-1.67-6.34-2.79-.48,4.24-.91,8.03-1.34,11.81h.01Z" fill="#41463d"/><path d="M68.29,144.6c-4.46-2.9-4.04-9.19,0-12.28v12.28Z" fill="#41463d"/><path d="M127.98,99.02c-1.8,.05-3.72-.25-5.38,.25-1.54,.47-2.81,1.8-3.89,2.53v-6.69c3.51-1.06,7.92,.61,9.16,4.04l.11-.13Z" fill="#41463d"/><path d="M154.97,84.8c-5.53,4.16-8.8,3.48-10.61-1.05,3.2,.32,6.55,.65,10.61,1.05Z" fill="#41463d"/><path d="M91.06,73.06v14.87c-2.48-.92-2.61-2.84,0-14.87Z" fill="#41463d"/><path d="M106.28,293.7c.76,.84,1.41,1.82,2.29,2.51,2.34,1.83,4.78,3.54,6.73,6.01-3.7,.79-4.29-8.36-10.02,.11,.59-4.43,.87-6.49,1.11-8.56-.03-.02-.11-.06-.11-.06h0Z" fill="#41463d"/><path d="M141.38,309.53v-13.46h.89v13.41l-.89,.04h0Z" fill="#41463d"/><path d="M11.7,242.05c.71,1.65,1.43,3.29,2.21,5.11-4.59,.41-9.17,.83-13.75,1.24l-.16-1.43,10.24-1.45c.48-1.12,1-2.32,1.54-3.54,.02-.02-.08,.06-.08,.06h0Z" fill="#41463d"/><path d="M36.89,252.26c-.55,3.64,2.05,7.91-2.74,10.7,.5-3.62,.99-7.23,1.49-10.85l1.25,.15h0Z" fill="#41463d"/><path d="M163.28,315.92v-24.08h.42v24.28l-.42-.2Z" fill="#41463d"/><path d="M43.18,270.47c-2.52-1.17-5.03-2.33-7.63-3.54,1.87-2.59,2.79-2.4,8.35,1.77l-.72,1.76h0Z" fill="#41463d"/><path d="M133.36,194.46c5.02,.94,3.88,4.32,3.25,6.85-.19,.75-3.11,.82-5.07,.52,1.35-2.56,5.37-3.62,1.82-7.38h0Z" fill="#41463d"/></g></g></g></g></svg>