<?xml version="1.0" encoding="utf-8"?>
<!-- Generator: Adobe Illustrator 26.3.1, SVG Export Plug-In . SVG Version: 6.00 Build 0)  -->
<svg version="1.1" id="b" xmlns="http://www.w3.org/2000/svg" xmlns:xlink="http://www.w3.org/1999/xlink" x="0px" y="0px"
	 viewBox="0 0 373.5 305.8" style="enable-background:new 0 0 373.5 305.8;" xml:space="preserve">
<style type="text/css">
	.st0{fill:#E4D6A7;}
	.st1{fill:#41463D;}
</style>
<polygon class="st0" points="199.1,0.6 130.9,29.4 115.7,47.1 16.9,90.2 0,129 0,200.4 170.3,305.8 319.5,235.8 317.2,55.5 "/>
<g id="c">
	<g id="d">
		<g id="e">
			<g>
				<path class="st1" d="M179.6,254.1c7.5,4.8,14.9,9.8,22.5,14.4c2.3,1.4,5.1,1.9,7.7,2.9c1.4,0.5,3,0.9,4.1,1.8
					c4.7,4.1,4.2,6.2-1.6,8.2c-3.2,1.1-6.5,2.3-10.2,2.6c1-0.8,2-1.6,3-2.3l-0.4-1.2c-1.5,0.5-3,0.9-4.5,1.4
					c-1.9-4.5-8.9-8.2-14.9-7.6c-1.2,0.1-2.4,1.2-3.6,1.9c1.1,0.7,2.2,1.5,3.3,2.1c0.6,0.4,1.4,0.6,2.1,2.2c-1.6,0.1-4,1-4.5,0.3
					c-1.9-2.4-3.1-5.2-5.1-8.9c3.7-0.2,5.9-0.3,8.1-0.4l0.4-1c-3-1.9-6-3.7-7.9-4.9c-3.7-0.2-1.4,7.1-6.5,3
					c1.7,3.6,3.3,7.1,5.2,11.2c-5.3,0.8-9.5,2.8-14-2.2c-0.5,2.9-0.9,5.1-1.3,7.6c-2.7,0.7-5.9,2-9.3,2.4c-3.7,0.5-6.7-0.7-7.3-5.2
					c-0.2-1.3-1.4-2.5-1.9-3.8c-0.4-1.3-0.8-2.8-0.6-4c0.5-2.5,1.5-4.9,2.3-7.4c-6.2-2.5-10.5,1.1-15.4,2.8c-1.3,0.5-3,0.1-4.2,0.1
					c0.8-3.2,2.3-6.1,1.5-7c-2-2.2-5-3-7.9-0.6c-0.7,0.6-2.1,0.4-3.6-0.6c3.2-2.1,6.5-4.2,9.7-6.4c-0.4-0.6-0.7-1.3-1.1-1.9
					c-3.6,1.9-7.2,3.8-10.8,5.7c-1.3-1.8-2.9-4-5.2-7.1c3.2-1,6.1-1.9,9.5-2.9c-1.2-1.5-2.1-2.6-3.3-4c2.8-0.8,5.4-1.5,8.7-2.5
					c-1.8,3.7-3.1,6.4-4.3,9.2c5.6-3.1,10.8,1.6,9.6,8.1c3.3-1.2,6.4-2.3,9.1-3.2c0.9,1.6,1.8,3.3,2.6,5l1.7-0.8v-8.4
					c1.9-1,4.8-3.5,8-3.9c4.9-0.7,4.9-3.4,4.3-7c-0.6-3.9-2-7.8-1.6-11.5c0.7-5.6-3.9-9.3-4.2-14.4c-0.2-3.9-0.4-7.7-0.7-12.9
					c1.8,1.6,2.3,2.1,3.1,2.8c0.4-2.8,0.8-5.4,1.2-8.7c2.7,3.7,4.9,6.8,7.3,10.1c0.7-1,1.4-1.9,2.1-2.9c0.5,0.5,0.9,0.8,0.9,1
					c0.1,9.1,0,18.3,0.1,27.4c0,1.3,0.1,2.8,0.6,3.9c0.4,0.8,2.1,1.7,2.6,1.5c1-0.5,2.2-1.8,2.2-2.8c0.2-7.8,0.1-15.6,0.1-23.5
					c0-1.9,0.2-3.7,0.3-5.6c1.6,0.5,3.3,1.1,4.9,1.6c0.6,0.2,1.1,0.2,0.6,0.1c-0.7-4.3-2.1-8.6-2-12.8c0-4.5,2.1-8.4,6.3-9.1
					c-1.6-2.1-3.1-4.1-4.7-6.2l0.1,0.1c-1.6-4.1-3.1-8.2-8.9-7.6c-0.7,0.1-1.5-1.5-2.2-2.3c2-1.4,4-2.8,6.4-4.6
					c-2.2-1.8-3.4-2.9-4.4-3.7c-0.7,3.1-1.3,5.7-1.9,8.3c-1.2-0.2-2.4-0.4-4-0.6c0.4,1.6,0.8,3.1,1.2,4.6c-4.6,2.5-6.9-0.7-9.8-4.4
					c2.7-0.8,5.2-1.3,7.5-2.3c1.4-0.6,2.5-1.9,3.5-3c0.2-0.2-0.7-2-0.9-2c-1.5,0.3-3.2,0.5-4.3,1.4c-2.4,2-3.6,1.9-6.1-0.5
					c-3-2.9-6.2-5.9-11.6-5.7c-3.7,0.1-7.4-3.7-11.1-5.8c0.3-0.5,0.6-1,0.8-1.5c3.4,1.2,6.7,2.4,10.2,3.7c0.4-3.6,0-4.5-6.1-7.3
					c-3.1-1.4-6.8-1.8-11.2-2.9l3.1-2.7c-3-2.1-5.9-4.3-8.9-6.3c-0.9-0.6-2.1-1.3-3.1-1.2c-3.7,0.1-7.3,0.5-11.1,0.8l2.1,2.8
					c-1.4-0.1-2.7,0.1-3.9-0.3c-2-0.7-3.7-1.7-1.8-4.3c1.7-2.3,3.2-4.8,5.1-7.5c-1.4-0.3-1.9-0.5-2-0.4c-4.5,6.1-8.9,3.9-13.5,0.1
					c-4-3.3-8.2-6.3-12.8-9.7l5-3.4c-3.3-1.1-5.6-2-7.9-2.5c-1-0.2-2.1,0.8-3.2,1.2c-7.5,2.9-12.2-0.3-12.8-8.5
					c-0.2-2.1-1.5-4.1-1.6-6.2c-0.2-3.3-1.6-6.8,1.8-9.7c0.8-0.7,0.3-2.9,0.4-5.4c-2.4,1.2-3.9,1.9-5.3,2.7
					c-7.3,3.9-14.6,7.9-22,11.7c-2.1,1.1-9.5-2.4-10.6-4.7C23.6,87,30,82.7,37,80.8c6.7-1.8,11.8-5.5,17.5-8.8
					c4.5-2.6,10.5-3,14.3-6.2c4.5-3.7,9.3-4.8,14.5-5.6c3.6-0.5,7.3-0.2,11,0.1c1.2,0.1,2.4,0.9,3.6,1.4l-1.7,1.2
					c-2.9,2.6-7.3,4.7-8.2,7.9c-1.5,5-1,10.7-0.4,16c0.2,1.7,3.4,3,5.6,4.7l1.6-23.1c-1.2,7.8,4.2,10.5,9.1,12.5
					c1.5-2.3,3.1-4.4,4.3-6.7c0.7-1.4,1.1-3,1.2-4.6c0.2-3.4,0.1-6.8,0.1-10.7c1.7,0.6,2.9,1.1,4.5,1.7c0.6-4.8,1-9.1,1.7-13.5
					c0.7-4.9,1.3-5,5.7-2.8c1.5,0.7,3.6,0.1,6.5,0.1c0.4,7.8,0.8,16.4,1.3,25h2c0.2-6.5,0.7-13.1,0.7-19.6s-0.6-12.9-1-20.4
					c3.2,4.6,6.1,2.6,9.2,1c19.6-10,39.2-20,59-29.8c1.6-0.8,4.1-0.7,5.7,0c6,2.7,11.9,5.7,17.8,8.8c1.1,0.6,1.7,2.2,2.5,3.3
					c-1.1,0.5-2.3,1-3.4,1.5c-2,1-3.2,5-6.1,1.4c0.8-1.6,2.4-3.4,2.1-4.8c-0.4-1.3-2.6-2.3-4.1-3.2c-2-1.2-4-2.3-6.2-3.2
					c-1.4-0.5-2.9-0.6-4.4-0.8c0.2,1.6,0.3,3.1,0.7,4.6c0.2,0.7,1,1.3,2.4,3c-15.7,7.2-30.9,14.2-46.2,21.1l0.4,1.3
					c1.9-0.6,3.8-1.2,5.6-1.9c2.1-0.8,4.1-1.7,6.2-2.5l0.7,1.7c-3.9,1.5-7.9,2.9-11.7,4.7c-1.7,0.8-3.4,2-4.6,3.5
					c-2,2.4-4.1,2.3-6.7,1.2c-3.3-1.4-6.6-3-10-4.1c-4.6-1.5-6-0.3-6.1,4.4c-0.1,2.8-0.6,5.6-0.7,8.4c-0.2,9.2,5.2,15.3,14.5,16.2
					l-0.9,3.8l-2.7-2.1l-1.4,0.9c1.7,3.1,2.8,7.1,5.3,9.1c3.8,2.9,8.7,4.4,13,6.7c2.5,1.3,5.3,2.6,6.9,4.6c4,4.9,8.4,6.4,14.6,2.8
					c-0.4,1.7-0.6,2.7-0.9,4.1c2.3-0.5,4.3-1,7.4-1.7c-1.3,1.6-1.9,2.3-2.8,3.4c1.9,0.9,3.7,1.7,5.8,2.7l2.3-4.8
					c2.7,3.9,5.6,8,9.3,13.5c1.8-9.4,2-17.3-0.3-25.1c-0.3-0.9-2.7-1.2-4.7-2c0-3.8,0.2-8-0.1-12.2c-0.1-1.7-1.5-3.4-2.4-4.9
					c-2.2-3.5-4.5-6.9-6.1-10.8c7.3,0.1,11.5,4.6,15.2,9.3c5.5,6.8,10.6,14,15.9,21c0.4,0.6,0.5,1.4,1.2,3.1
					c-7.9-3.1-11.8-9.4-16.5-14.7l-1.6,0.9c0.5,1.9,0.6,4.3,1.8,5.8c1.6,1.9,1.7,3.1,1.3,5.5c-1,6.3-1.3,12.7-1.3,19.1
					c0,7.9,0.8,15.8,0.7,23.7c-0.2,9.8-1,19.6-1.4,29.4c-0.1,1.5,0.2,3,0.3,6c2.6-3.3,4-6.5,8.1-2.1l-0.4-2.2c-1.9-1.1-3.7-2.2-5-3
					v-41.9c7.3,0.5,8.8,2.3,9,8.6c0.2,6.4,1.2,12.8,1.7,19.2c0.2,1.9,0,3.8,0,5.7h-1.3v-14.8l-1.3,0.1c0.5,10.3-3.3,20.8,3.2,31
					c-0.1-1.8-0.3-3.6-0.3-5.4c-0.1-1.9,0-3.8,0.9-6c0.5,1.1,1.4,2.2,1.4,3.2c0.2,5.5,0.2,10.9,0.1,16.4c-0.2,6.8-0.5,13.6-0.9,20.5
					c-0.1,2,0.1,4.2-0.7,5.9c-2.2,4.8-0.2,9.4,0,14c0.5,9.1,1.6,18.1,2.1,27.1c0.3,5.3-0.2,10.7,0.1,16c0.1,1.7,1.4,3.4,2.2,5
					c1.4,3,2.9,5.9,4,9c0.3,0.8-0.9,2-1.5,3.1c-0.9-0.5-2-0.9-2.7-1.6c-1-1.1-1.8-2.4-2.6-3.6l-1.6,0.6c0.3,1.4,0.2,3.5,0.9,3.9
					c2.9,1.4,6,2.2,9.3,3.4c-2.3,2.9-5.3,6.7-8.4,10.6c-1.9-1.4-3.1-2.3-4.5-3.3c1.6-2.3,3.1-4.4,4.6-6.4
					c-17.7-9.6-32.8-22.8-50.6-31.1c-0.4,0.6-0.9,1.2-1.4,1.8c3.3,2.8,6.6,5.5,10,8.3c-1.3,0.1-2.6,0.1-3.9,0.2
					c0.3,1.4,0.4,2.8,1.1,4.1c0.5,1,1.6,1.7,2.6,2.3c4.6,3,9.1,6,13.8,8.9c3.2,2,6.5,4,9.7,5.9l1.2-1.5c-1-1.1-1.9-2.4-3.1-3.4
					C193.9,265.2,186.7,259.7,179.6,254.1L179.6,254.1L179.6,254.1z M91.6,96.1l1-2.1c-4.7-2.7-9.6-5.2-14.2-8.2
					c-4-2.6-7.7-1.2-9.7,1.6c-1.4,2,0.1,5.9,0.3,8.9l1.4,0.2l-4.8,3.3c0.3-3.3,0.8-6,0.7-8.7c0-0.8-2-2.2-2.5-2
					c-2.1,0.8-4.8,1.8-5.8,3.5c-1.3,2.3-1.2,5.4-1.7,8.2c1.9-0.1,3.9-0.2,5.8-0.2c0.3,0,0.6,0.2,1.1,0.4l0.4,7
					c3.9-1.8,7.3-3.4,10.7-5l-0.5-1.3c-2.5,0.8-5,1.7-7.4,2.6l-0.8-1.6c3.4-1.8,6.9-3.7,10.9-5.8c-1.8-1.2-2.9-2-4.2-2.8l6.2-4.9
					C83,91.7,87.3,93.9,91.6,96.1z M148.3,278.7c-0.4,1.6-1.4,3.7-0.9,4.1c1.1,0.9,2.9,1.6,4.4,1.5c4.2-0.3,7.5-2.1,7.8-6.9
					c0.3-5.9,3.6-7.6,7.6-7.1v-15.5l-2.6-0.4c-0.8,2.6-2.1,5.1-2.3,7.7c-0.3,4-3.4,7.6-7.4,8.9c-3.2,1-6,3.3-8.9,5
					c-0.3,0.2-0.3,0.9-0.5,1.5L148.3,278.7L148.3,278.7L148.3,278.7z M213.1,213.3c-1.3-0.7-2.9-2.1-4.6-2.3
					c-1.2-0.1-3.7,1.6-3.6,2.4c0.4,5.3,0.9,10.7,2.1,15.9c0.3,1.1,3.6,1.7,5.6,2.1c2.1,0.4,4.2,0.3,6.5,0.5v-13.4
					c-2.5,4.4-4.2,7.4-6.4,11.2l-4-4.7c1.2-0.7,2.6-1.3,3.6-2.3c1.3-1.3,2.2-2.9,2.9-3.9h-6.6C210,217.2,211.2,215.7,213.1,213.3
					L213.1,213.3z M193.9,154.1l-0.6,8.5l1.4,0.2c1.1-2.7,2.2-5.4,4-9.6c0.5,2.5,1.3,3.9,0.9,4.9c-0.7,2.2-1.8,4.3-3.1,6.2
					c-2.9,4.3-2.3,6.9,2.2,9.3c0.4-3.4-0.1-7.4,1.3-10.5c2.5-5.3,2.7-9.6-0.9-12.1c-0.6-3.9-1-6.3-1.4-8.8h-1.1
					c-0.7,2.3-1.4,4.6-1.7,5.4c-2.6,1-4.3,1.3-5.6,2.3c-0.6,0.4-0.6,2.9-0.3,3C190.4,153.6,192.1,153.7,193.9,154.1L193.9,154.1
					L193.9,154.1z M201.1,230.7c-0.4-1.7-1.4-3.6-1-5.2c1.9-6.8,1.3-8.3-5.4-10C192.2,225.6,193.3,228.3,201.1,230.7z M161.7,244.3
					l-1.9-0.3c-3.8,6-5.2,12.5-3.4,19.6c0.2,0.6,1.8,0.9,2.4,1.2C159.8,257.5,160.7,250.9,161.7,244.3L161.7,244.3z M170,228.6
					c-1.7,10.1-1,12.2,5.8,14.5C173.9,237.9,176.7,231.7,170,228.6z M65.2,75.2c-8.7,2.7-10.5,5.3-6.9,10
					C61.1,82.3,67.7,82.4,65.2,75.2z M93.3,109c0.9-3.3,1.2-5.5-2-7c-3.6-1.7-10.7-0.1-14,4c2.9-0.7,5.9-2.8,8.5-2.4
					S90.6,106.9,93.3,109z M189.1,193.4v19.3C193.9,204.1,193.4,196.1,189.1,193.4z M145.5,263.4c1.9,1.1,3.1,2.2,4.1,2.2
					c1.4-0.1,3.8-1.1,3.8-1.8c0.2-3.4-0.2-6.9-0.4-10.4C153,258.4,151,261.8,145.5,263.4L145.5,263.4L145.5,263.4z M175,158.2h8.7
					l-6.8-7.4l-1.5,0.2L175,158.2z M183.2,164.7c-2,3.3-3.6,6.5-1,11.1C185.4,171.6,185.2,168.2,183.2,164.7z M164,159l9.5,4.7
					C171,157.2,167.4,155.5,164,159z M185.8,149.1c-1-3.3-1.9-6.3-2.7-9C179,144.2,179.7,147.2,185.8,149.1z M213.1,267.5l1.5-0.7
					c-0.8-2.9-0.7-6.2-3.3-8.1c-0.6,0.3-1.2,0.6-1.8,0.9C210.8,262.2,212,264.8,213.1,267.5L213.1,267.5L213.1,267.5z M122.3,136.5
					l1.9,0.5c0.2-1.5,0.9-3.9,0.3-4.3c-1.4-0.9-3.3-0.8-5.1-0.9c-0.1,0-0.4,1-0.7,2c1.5-0.2,2.5-0.4,3.8-0.6
					C122.6,133.2,122.3,136.5,122.3,136.5L122.3,136.5z"/>
				<path class="st1" d="M373.5,206.9c-5.7,3.2-10.7,6.3-15.8,9c-15.2,8-30.5,16-45.8,23.9c-6.2,3.3-12.7,6.2-18.7,9.9
					c-3.3,2-5.8,5.3-8.9,8.2c-0.5-0.8-1.2-1.8-2-2.9c-0.9,0.6-2.4,1.7-2.5,1.6c-2.2-2.6-4-1.1-4,1.1c0,1.6,1.8,3.8,3.4,4.5
					c1.5,0.8,3.7,0,5.6,0c0.7,0,1.5,0.4,2.3,0.6c-3.8,6.6-7.2,7.1-13.1,3.1c-2.9-1.9-5.9-0.9-8.4,3c2.9,0.4,5.3,0.6,7.6,0.9v1.3
					c-3.8,0-8.1,1.1-11.3-0.3c-3.2-1.4-5.3-5.2-7.9-8c-0.4,0.3-0.8,0.7-1.1,1c1.3,1.7,2.8,3.3,4,5.1c1.5,2.2,1.8,4.1-1.9,4.1
					c-0.9,0-1.9,0.3-2.8,0.4c-3.3,0.5-6.3-2.2-5.7-5.2c1.1-6,2.2-12,3.4-18.4c-1.1,0.9-1.9,1.4-3.2,2.5c-0.6-3-1-5.4-1.6-8.4
					c-2.7,2.8-4.8,5-1.5,8.4c3.4,3.4,2.6,7.7,1.9,11.7c-0.5,2.9-1.6,5.6-2.8,9.4c-2.1-1.4-4.3-2.8-6.8-4.5l-2,2.6
					c-5.8-5-3.6-11.4-3.6-17.3c0.1-34.7,0.3-69.3,0.3-104c0-17.5-0.5-35,0.2-52.5c0.2-6.4-4.5-7.4-8.6-10.8c1.6-0.1,2.4-0.4,2.7-0.1
					c5.8,4.3,11.1,2.4,16.8-0.7c22.1-11.9,44.3-23.4,66.5-35c2.5-1.3,5-2.5,8.5-4.2c0.2,3.3,0.5,5.9,0.5,8.6
					c0.1,34.8,0.2,69.7,0.4,104.5c0,4.3-0.2,8.7,0.4,13c0.3,2.1,1.7,4.8,3.5,5.8C338.5,188.1,355.6,197.2,373.5,206.9L373.5,206.9
					L373.5,206.9z M261.7,150.8h-1.2v42.4h1.2V150.8z M292.6,136.4h-0.9v28.1h0.9V136.4L292.6,136.4z M309.5,203l-1.2,0.1v17.5h1.2
					V203L309.5,203z M291.5,232.1c1-1.3,2.5-2.5,2.4-3.5c-0.2-1.2-1.7-2.4-2.9-3.1c-1.6-1-3.4-1.6-6.1-2.7
					C287.2,226,289,228.5,291.5,232.1L291.5,232.1z M276.3,153.2h-0.6v31.7h0.6V153.2z M243.8,237.9h2.2V221l-0.9-0.1
					C244.7,226.5,244.2,232.2,243.8,237.9L243.8,237.9z M245.1,176.7h-0.3v23.4h0.3V176.7z"/>
				<path class="st1" d="M95.7,210.8c2.1,1.5,4.8,3.3,7.4,5.1c0.3-3,0.5-5.5,0.7-8.1l1.6-0.3c1.9,3.7,3.8,7.4,5.9,11
					c0.6,1.1,1.9,2.4,2.9,2.5c8.2,0.5,13.2,7.2,20.1,10.2c3.2,1.4,6.1,3.4,9.2,5.2l-1,2.1c-3.3-1.5-6.6-3-9.9-4.5l-0.8,1.1
					c2.1,1.3,4.4,2.5,6.4,4c2.2,1.5,4.3,3.3,7.1,5.4c-4.3,0.9-7.5,1.6-11.5,2.5c4.3-5.2,1-7.2-3-8.5c-4.8-1.6-2.5-4.9-2.1-8
					c-1.9-0.6-3.7-1.2-6.5-2.2c0.2,2.4,0.4,4.4,0.6,6.9c-2.8-0.8-5.5-1.6-8.2-2.4c-3.2,1.4-7,3-11.1,4.8c-1.1-2.3-1.7-3.7-1.8-3.9
					c-4.2-0.6-7.4-1.1-10.6-1.6l-0.3,1c2.9,1.6,5.8,3.2,8.6,4.8c-2.3,4.9-6.1,6.7-11.3,4.9c-0.6-0.2-1.6-0.7-1.6-1
					c0.2-5.2-6.4-8.8-3.2-14.8c0.6-1-1.2-3.3-2.1-5.4c2.5-1.6,5.1-3.2,7.6-5.1C91.3,215,93.4,212.9,95.7,210.8L95.7,210.8z"/>
				<path class="st1" d="M33.3,186.7c-3.7,2.6-7.5,5.3-11.2,7.9l-0.7-0.9c3.9-3.6,7.8-7.2,11.7-10.8c-0.5-3.7-7.2-6.1-1-10
					c4.2,4.9,8.5,9.8,12.8,14.7c1,1.1,2.4,1.7,3.4,2.7c0.7,0.6,1.6,1.7,1.4,2.2c-3.3,9.9-0.7,20.1-1.6,30.1c-0.3,3.6-2.3,3.4-5,2.6
					c0.9-5.7,1.9-11.1-2.6-15.9c-2.7-2.8-5.5-2.8-8.6-1.4c-2.5,1.1-3,3-1.3,5.2c1.3,1.6,2.7,3.1,4,4.7l-1,0.9c-1-1.1-1.9-2.4-3-3.2
					c-1.9-1.3-4-2.4-6-3.6c-0.9-0.5-1.7-1.1-2.6-1.7c0.7-0.8,1.2-1.8,2.1-2.4c5.4-3.7,10.8-7.4,15.7-11.9
					c-8.7,3.5-15.6,11.2-27.3,10.4c7.8-6.7,14.7-12.6,21.6-18.4L33.3,186.7L33.3,186.7L33.3,186.7z"/>
				<path class="st1" d="M64.8,229.1c-2.6,0.2-4.7,0.4-6.8,0.5c-2.6,0.1-7.2-5.1-7.3-8.1c-0.2-5-0.4-10-0.4-14.9
					c0-1.7,0.8-3.4,1.2-5.1c1.4,0.8,2.9,1.6,4.3,2.4c0.7,0.4,1.3,0.7,2,1l0.8-0.9c-2.6-2.5-5.1-5-8.6-8.4c8.5,0.2,9.4,6.3,12,10.5
					c0.5,0.8-1.3,3.3-0.8,4c1.3,1.8,3.4,3,5.9,5C66.6,219,65.7,223.9,64.8,229.1C64.8,229.1,64.8,229.1,64.8,229.1z"/>
				<path class="st1" d="M243.6,66.2c-1.3-0.9-3.4-2.3-6-4.2c10.1-7.6,19.6-14.6,29.1-21.7c5.6,3.4,5.5,7-0.2,10.8
					C259,55.9,251.7,60.8,243.6,66.2L243.6,66.2z"/>
				<path class="st1" d="M121.5,192c-0.9,1.7-1.8,3.4-2.7,5.1c-6.4-1.9-9-13.8-3.6-23.2c0.4,6.6,0.7,13.2,1.1,19.8
					c6.3-4.3,2-11.1,5.4-16.5c0.5,1.1,1.1,1.8,1.1,2.5c-0.1,3.7-1.3,7.9,4.6,8.4c0.1,0,0.3,0.2,0.4,0.3c3.3,2.9,2.4,15.4-1.2,18.2
					c-0.3-2.5-0.5-5.2-1.1-7.7s-1.7-4.8-2.6-7.2L121.5,192L121.5,192L121.5,192z"/>
				<path class="st1" d="M0,200.4V129h1.6c0.6,23.8,2.9,47.6,0.5,71.4L0,200.4L0,200.4z"/>
				<path class="st1" d="M34,138.8c-0.7,4.1-1.4,8.1-2.4,13.6c-4.3-2.9-10.7-5-11.3-8.3c-1-4.9-3-11.6,2.8-16.3
					c2.8,2.1,6.5,2.9,4,8.3c-1.4,3-0.2,7.2-0.2,10.8l1.4,0.7c1.8-3.1,3.5-6.3,5.3-9.4L34,138.8L34,138.8L34,138.8z"/>
				<path class="st1" d="M61.9,152.6c-0.5,3.2-0.1,6.3-1.5,7.9c-1.6,1.9-4.6,2.9-7.1,3.6c-0.6,0.1-2.6-2.7-2.8-4.3
					c-0.4-3.9-0.3-8,0.2-11.9c0.2-1.4,2.1-2.7,3.2-4c0.8,1.4,2.5,2.9,2.4,4.2C56.1,152.1,58.1,152.9,61.9,152.6
					C61.9,152.6,61.9,152.6,61.9,152.6z"/>
				<path class="st1" d="M99.1,171.8c1.2,2.3,2.8,4.4,3.5,6.8c0.7,2.4,0.5,5.1,1.8,7.7l3.2-17.3c0.7-0.1,1.3-0.2,2-0.3
					c1,2.9,2,5.9,3,8.9c-4.1,0.7-6.2,2.9-6.1,6.6c0,1.8-0.4,3.6-0.8,6.3c-3.5-1.9-7.8-2.8-8.4-4.8c-1.2-4-0.3-8.6-0.3-13L99.1,171.8
					C99.1,171.8,99.1,171.8,99.1,171.8z"/>
				<path class="st1" d="M81.6,236.3c-2.5-0.3-4-0.5-5.5-0.7v5.5c-2.5-0.1-5.1-0.3-8.9-0.5c1.5-2.4,2.4-3.8,3.9-6.2
					c-4.3,0.7-7.9,1.2-11.4,1.8l-0.3-1.1c3.2-1,6.3-2.6,9.5-2.9c7.3-0.7,7.3-0.4,9.8-7.4L81.6,236.3L81.6,236.3L81.6,236.3z"/>
				<path class="st1" d="M137.7,193c0.4-1.2,0.8-2.4,1.4-4.4c4.5,5.7,6.4,11.6,5.3,17.8c-0.4,2.1-4.1,3.6-6.9,5.9
					c-2.4-7.5-1.6-13.5,0.3-19.4c0.2,3.4-1.1,7.4,3.5,9.4C143.8,197.5,141.1,195.1,137.7,193L137.7,193z"/>
				<path class="st1" d="M131.9,284c-0.2-0.1-1.3-0.2-1.4-0.5c-1.8-5.9-5.2-4.1-9.1-2.3c-2.4,1.1-5.3,0.8-8.4,1.2
					c1.7-4.3,4.3-5.2,12.1-4.6c-0.4-1.1-0.8-2-1.6-4.1c4.1,1.1,7.3,1.9,10.6,2.8C133.3,279.2,132.6,281.5,131.9,284L131.9,284z"/>
				<path class="st1" d="M45.2,159c-4.3,0-6.3-1-5.6-5.6c0.7-4.4,0.2-9.1,0.2-13.5c1.7,1.1,3.4,2.2,6.2,4.1
					C45.8,147.9,45.5,153.2,45.2,159z"/>
				<path class="st1" d="M77.9,244.5c1.3,1.6,2.6,3.2,3.9,4.9c5.4-1.4,10.5,5.9,16.4-1.1v7.1c-6.7-1.5-13.6-2.8-20.3-4.8
					c-1.1-0.3-1.4-3.4-2.1-5.3L77.9,244.5L77.9,244.5L77.9,244.5z"/>
				<path class="st1" d="M72.7,174c0.3-7.6-5.3-14.1,0.3-21.5C76.7,162.6,76.7,167.9,72.7,174L72.7,174z"/>
				<path class="st1" d="M63.7,169.6c0.4-7.6-1.9-15.3,0.2-22.9h1.7v22.9C65,169.5,64.4,169.6,63.7,169.6z"/>
				<path class="st1" d="M26.4,178.6h-3.9c2.5-5.5-3.5-11.9,3-16.7L26.4,178.6L26.4,178.6z"/>
				<path class="st1" d="M79.8,161.5c5.9,5.9,6.4,7.9,4.5,14.7c-5,0.1-3.3-3.6-3.6-6.2C80.4,167.4,80.2,164.8,79.8,161.5L79.8,161.5
					z"/>
				<path class="st1" d="M183.9,76.4c3.6,1.2,5.6,1.8,8.2,2.6c-0.7,3.2-1.5,6.3-2.4,10.4c-0.8-2.2-4.8-2.3-2-6.4
					C188.2,82.3,185.8,79.5,183.9,76.4L183.9,76.4z"/>
				<path class="st1" d="M249.1,38.6c-2.3,2.7-4.6,5.4-7.1,8c-0.8,0.8-2,1.1-3,1.7c-0.1-1.2-0.6-2.5-0.3-3.6
					C240.6,39.7,244.8,37.4,249.1,38.6L249.1,38.6L249.1,38.6z"/>
				<path class="st1" d="M166.1,284.8c3.2,0.1,6.4,0.4,9.6,0.2c0.9,0,1.6-1.7,2.6-2.3c0.6-0.4,1.6-0.2,2.5-0.3
					c-0.2,0.8-0.2,2.2-0.7,2.4c-3.7,1.5-7.4,3.1-11.3,4.1c-0.8,0.2-2.1-1.8-3.2-2.7L166.1,284.8L166.1,284.8L166.1,284.8z"/>
				<path class="st1" d="M218.5,51.1c2.8,0.7,5.6,1.4,8.3,2.3c0.3,0.1,0.6,1.7,0.3,2.2c-0.5,0.7-1.7,1.5-2.3,1.3
					c-2.5-0.9-4.9-2.1-7.3-3.2C217.9,52.9,218.2,52,218.5,51.1z"/>
				<path class="st1" d="M184.7,285.7c3.6,1.5,6.9,2.9,11.3,4.8c-4.2,0-7.6,0.2-10.9-0.2C184.8,290.2,184.8,286.8,184.7,285.7
					L184.7,285.7L184.7,285.7z"/>
				<path class="st1" d="M295,52.8c-4.4,2.4-8.8,4.8-13.1,7.2l-0.7-1.2c4.3-2.6,8.6-5.2,12.9-7.9C294.3,51.5,294.6,52.1,295,52.8
					L295,52.8L295,52.8z"/>
				<path class="st1" d="M312,44.8c-4.2,1.7-7.9,3.2-11.6,4.7C303.3,44.2,309.5,42.1,312,44.8z"/>
				<path class="st1" d="M173,179.4c-3.8,1.6-5.5,4.5-5.2,8.7c-0.5-3.7-1-7.5-1.7-12.2C169.1,177.4,171.1,178.5,173,179.4L173,179.4
					z"/>
				<path class="st1" d="M5.3,202.4c4.4-2.5,9.3-5.2,15.1-8.4C15.9,200,9,203.3,5.3,202.4z"/>
				<path class="st1" d="M221.3,92.4c6.6,0.4,8.2,2.9,6.6,8.2C225.7,97.9,223.9,95.6,221.3,92.4z"/>
				<path class="st1" d="M170.3,305.8c4.8-4.6,6.7-4.6,10.1-0.9C177.3,305.2,174.5,305.5,170.3,305.8z"/>
				<path class="st1" d="M108.4,249.1l-6,3.8c-0.4-0.8-1.2-2.2-1-2.4c1.8-1.3,3.8-2.5,5.8-3.7L108.4,249.1L108.4,249.1L108.4,249.1z
					"/>
				<path class="st1" d="M158.3,17.5c-3.8,1.8-7.6,3.7-11.4,5.5l-0.7-1.4c3.8-1.9,7.6-3.8,11.4-5.7L158.3,17.5L158.3,17.5z"/>
				<path class="st1" d="M94,268.2c3.7,0.7,7.3,3.7,10.5-1.4c0.3,0.4,0.6,0.8,0.8,1.2c-0.6,1-1,2.3-1.9,2.8
					C100.6,272.4,96.9,271.4,94,268.2L94,268.2z"/>
				<path class="st1" d="M249.2,38.7l2-9.8l1.4,0.4c1.1,3.8,0.3,6.9-3.6,9.3C249.1,38.6,249.2,38.7,249.2,38.7L249.2,38.7
					L249.2,38.7z"/>
				<path class="st1" d="M47,91.5c1.2,1.9,2.2,3,2.7,4.4c0.1,0.3-2,2-2.2,1.9c-1.2-0.9-2.2-2.1-3-3.3C44.4,94.1,45.7,92.9,47,91.5
					L47,91.5z"/>
				<path class="st1" d="M172.2,88c-1-3.8-1.7-6.5-2.4-9.2C174.3,79.4,174.6,80.4,172.2,88z"/>
				<path class="st1" d="M253,25c-2.1-1-4.3-2-6.4-3c0.3-0.6,0.5-1.3,0.8-2c2.2,0.8,4.4,1.6,6.6,2.5C253.7,23.4,253.3,24.2,253,25
					L253,25L253,25z"/>
			</g>
		</g>
	</g>
</g>
</svg>
