<?xml version="1.0" encoding="UTF-8"?><svg id="b" xmlns="http://www.w3.org/2000/svg" viewBox="0 0 373.5 305.76"><g id="c"><g id="d"><g id="e"><g><path d="M179.6,254.06c7.5,4.8,14.9,9.8,22.5,14.4,2.3,1.4,5.1,1.9,7.7,2.9,1.4,.5,3,.9,4.1,1.8,4.7,4.1,4.2,6.2-1.6,8.2-3.2,1.1-6.5,2.3-10.2,2.6,1-.8,2-1.6,3-2.3l-.4-1.2c-1.5,.5-3,.9-4.5,1.4-1.9-4.5-8.9-8.2-14.9-7.6-1.2,.1-2.4,1.2-3.6,1.9,1.1,.7,2.2,1.5,3.3,2.1,.6,.4,1.4,.6,2.1,2.2-1.6,.1-4,1-4.5,.3-1.9-2.4-3.1-5.2-5.1-8.9,3.7-.2,5.9-.3,8.1-.4l.4-1c-3-1.9-6-3.7-7.9-4.9-3.7-.2-1.4,7.1-6.5,3,1.7,3.6,3.3,7.1,5.2,11.2-5.3,.8-9.5,2.8-14-2.2-.5,2.9-.9,5.1-1.3,7.6-2.7,.7-5.9,2-9.3,2.4-3.7,.5-6.7-.7-7.3-5.2-.2-1.3-1.4-2.5-1.9-3.8-.4-1.3-.8-2.8-.6-4,.5-2.5,1.5-4.9,2.3-7.4-6.2-2.5-10.5,1.1-15.4,2.8-1.3,.5-3,.1-4.2,.1,.8-3.2,2.3-6.1,1.5-7-2-2.2-5-3-7.9-.6-.7,.6-2.1,.4-3.6-.6,3.2-2.1,6.5-4.2,9.7-6.4-.4-.6-.7-1.3-1.1-1.9-3.6,1.9-7.2,3.8-10.8,5.7-1.3-1.8-2.9-4-5.2-7.1,3.2-1,6.1-1.9,9.5-2.9-1.2-1.5-2.1-2.6-3.3-4,2.8-.8,5.4-1.5,8.7-2.5-1.8,3.7-3.1,6.4-4.3,9.2,5.6-3.1,10.8,1.6,9.6,8.1,3.3-1.2,6.4-2.3,9.1-3.2,.9,1.6,1.8,3.3,2.6,5l1.7-.8v-8.4c1.9-1,4.8-3.5,8-3.9,4.9-.7,4.9-3.4,4.3-7-.6-3.9-2-7.8-1.6-11.5,.7-5.6-3.9-9.3-4.2-14.4-.2-3.9-.4-7.7-.7-12.9,1.8,1.6,2.3,2.1,3.1,2.8,.4-2.8,.8-5.4,1.2-8.7,2.7,3.7,4.9,6.8,7.3,10.1,.7-1,1.4-1.9,2.1-2.9,.5,.5,.9,.8,.9,1,.1,9.1,0,18.3,.1,27.4,0,1.3,.1,2.8,.6,3.9,.4,.8,2.1,1.7,2.6,1.5,1-.5,2.2-1.8,2.2-2.8,.2-7.8,.1-15.6,.1-23.5,0-1.9,.2-3.7,.3-5.6,1.6,.5,3.3,1.1,4.9,1.6,.6,.2,1.1,.2,.6,.1-.7-4.3-2.1-8.6-2-12.8,0-4.5,2.1-8.4,6.3-9.1-1.6-2.1-3.1-4.1-4.7-6.2l.1,.1c-1.6-4.1-3.1-8.2-8.9-7.6-.7,.1-1.5-1.5-2.2-2.3,2-1.4,4-2.8,6.4-4.6-2.2-1.8-3.4-2.9-4.4-3.7-.7,3.1-1.3,5.7-1.9,8.3-1.2-.2-2.4-.4-4-.6,.4,1.6,.8,3.1,1.2,4.6-4.6,2.5-6.9-.7-9.8-4.4,2.7-.8,5.2-1.3,7.5-2.3,1.4-.6,2.5-1.9,3.5-3,.2-.2-.7-2-.9-2-1.5,.3-3.2,.5-4.3,1.4-2.4,2-3.6,1.9-6.1-.5-3-2.9-6.2-5.9-11.6-5.7-3.7,.1-7.4-3.7-11.1-5.8,.3-.5,.6-1,.8-1.5,3.4,1.2,6.7,2.4,10.2,3.7,.4-3.6,0-4.5-6.1-7.3-3.1-1.4-6.8-1.8-11.2-2.9l3.1-2.7c-3-2.1-5.9-4.3-8.9-6.3-.9-.6-2.1-1.3-3.1-1.2-3.7,.1-7.3,.5-11.1,.8l2.1,2.8c-1.4-.1-2.7,.1-3.9-.3-2-.7-3.7-1.7-1.8-4.3,1.7-2.3,3.2-4.8,5.1-7.5-1.4-.3-1.9-.5-2-.4-4.5,6.1-8.9,3.9-13.5,.1-4-3.3-8.2-6.3-12.8-9.7l5-3.4c-3.3-1.1-5.6-2-7.9-2.5-1-.2-2.1,.8-3.2,1.2-7.5,2.9-12.2-.3-12.8-8.5-.2-2.1-1.5-4.1-1.6-6.2-.2-3.3-1.6-6.8,1.8-9.7,.8-.7,.3-2.9,.4-5.4-2.4,1.2-3.9,1.9-5.3,2.7-7.3,3.9-14.6,7.9-22,11.7-2.1,1.1-9.5-2.4-10.6-4.7,6.7-3.2,13.1-7.5,20.1-9.4,6.7-1.8,11.8-5.5,17.5-8.8,4.5-2.6,10.5-3,14.3-6.2,4.5-3.7,9.3-4.8,14.5-5.6,3.6-.5,7.3-.2,11,.1,1.2,.1,2.4,.9,3.6,1.4l-1.7,1.2c-2.9,2.6-7.3,4.7-8.2,7.9-1.5,5-1,10.7-.4,16,.2,1.7,3.4,3,5.6,4.7l1.6-23.1c-1.2,7.8,4.2,10.5,9.1,12.5,1.5-2.3,3.1-4.4,4.3-6.7,.7-1.4,1.1-3,1.2-4.6,.2-3.4,.1-6.8,.1-10.7,1.7,.6,2.9,1.1,4.5,1.7,.6-4.8,1-9.1,1.7-13.5,.7-4.9,1.3-5,5.7-2.8,1.5,.7,3.6,.1,6.5,.1,.4,7.8,.8,16.4,1.3,25h2c.2-6.5,.7-13.1,.7-19.6s-.6-12.9-1-20.4c3.2,4.6,6.1,2.6,9.2,1,19.6-10,39.2-20,59-29.8,1.6-.8,4.1-.7,5.7,0,6,2.7,11.9,5.7,17.8,8.8,1.1,.6,1.7,2.2,2.5,3.3-1.1,.5-2.3,1-3.4,1.5-2,1-3.2,5-6.1,1.4,.8-1.6,2.4-3.4,2.1-4.8-.4-1.3-2.6-2.3-4.1-3.2-2-1.2-4-2.3-6.2-3.2-1.4-.5-2.9-.6-4.4-.8,.2,1.6,.3,3.1,.7,4.6,.2,.7,1,1.3,2.4,3-15.7,7.2-30.9,14.2-46.2,21.1l.4,1.3c1.9-.6,3.8-1.2,5.6-1.9,2.1-.8,4.1-1.7,6.2-2.5l.7,1.7c-3.9,1.5-7.9,2.9-11.7,4.7-1.7,.8-3.4,2-4.6,3.5-2,2.4-4.1,2.3-6.7,1.2-3.3-1.4-6.6-3-10-4.1-4.6-1.5-6-.3-6.1,4.4-.1,2.8-.6,5.6-.7,8.4-.2,9.2,5.2,15.3,14.5,16.2l-.9,3.8-2.7-2.1-1.4,.9c1.7,3.1,2.8,7.1,5.3,9.1,3.8,2.9,8.7,4.4,13,6.7,2.5,1.3,5.3,2.6,6.9,4.6,4,4.9,8.4,6.4,14.6,2.8-.4,1.7-.6,2.7-.9,4.1,2.3-.5,4.3-1,7.4-1.7-1.3,1.6-1.9,2.3-2.8,3.4,1.9,.9,3.7,1.7,5.8,2.7l2.3-4.8c2.7,3.9,5.6,8,9.3,13.5,1.8-9.4,2-17.3-.3-25.1-.3-.9-2.7-1.2-4.7-2,0-3.8,.2-8-.1-12.2-.1-1.7-1.5-3.4-2.4-4.9-2.2-3.5-4.5-6.9-6.1-10.8,7.3,.1,11.5,4.6,15.2,9.3,5.5,6.8,10.6,14,15.9,21,.4,.6,.5,1.4,1.2,3.1-7.9-3.1-11.8-9.4-16.5-14.7l-1.6,.9c.5,1.9,.6,4.3,1.8,5.8,1.6,1.9,1.7,3.1,1.3,5.5-1,6.3-1.3,12.7-1.3,19.1,0,7.9,.8,15.8,.7,23.7-.2,9.8-1,19.6-1.4,29.4-.1,1.5,.2,3,.3,6,2.6-3.3,4-6.5,8.1-2.1l-.4-2.2c-1.9-1.1-3.7-2.2-5-3v-41.9c7.3,.5,8.8,2.3,9,8.6,.2,6.4,1.2,12.8,1.7,19.2,.2,1.9,0,3.8,0,5.7h-1.3v-14.8l-1.3,.1c.5,10.3-3.3,20.8,3.2,31-.1-1.8-.3-3.6-.3-5.4-.1-1.9,0-3.8,.9-6,.5,1.1,1.4,2.2,1.4,3.2,.2,5.5,.2,10.9,.1,16.4-.2,6.8-.5,13.6-.9,20.5-.1,2,.1,4.2-.7,5.9-2.2,4.8-.2,9.4,0,14,.5,9.1,1.6,18.1,2.1,27.1,.3,5.3-.2,10.7,.1,16,.1,1.7,1.4,3.4,2.2,5,1.4,3,2.9,5.9,4,9,.3,.8-.9,2-1.5,3.1-.9-.5-2-.9-2.7-1.6-1-1.1-1.8-2.4-2.6-3.6l-1.6,.6c.3,1.4,.2,3.5,.9,3.9,2.9,1.4,6,2.2,9.3,3.4-2.3,2.9-5.3,6.7-8.4,10.6-1.9-1.4-3.1-2.3-4.5-3.3,1.6-2.3,3.1-4.4,4.6-6.4-17.7-9.6-32.8-22.8-50.6-31.1-.4,.6-.9,1.2-1.4,1.8,3.3,2.8,6.6,5.5,10,8.3-1.3,.1-2.6,.1-3.9,.2,.3,1.4,.4,2.8,1.1,4.1,.5,1,1.6,1.7,2.6,2.3,4.6,3,9.1,6,13.8,8.9,3.2,2,6.5,4,9.7,5.9l1.2-1.5c-1-1.1-1.9-2.4-3.1-3.4-7.3-5.6-14.5-11.1-21.6-16.7h0ZM91.6,96.06l1-2.1c-4.7-2.7-9.6-5.2-14.2-8.2-4-2.6-7.7-1.2-9.7,1.6-1.4,2,.1,5.9,.3,8.9l1.4,.2-4.8,3.3c.3-3.3,.8-6,.7-8.7,0-.8-2-2.2-2.5-2-2.1,.8-4.8,1.8-5.8,3.5-1.3,2.3-1.2,5.4-1.7,8.2,1.9-.1,3.9-.2,5.8-.2,.3,0,.6,.2,1.1,.4l.4,7c3.9-1.8,7.3-3.4,10.7-5l-.5-1.3c-2.5,.8-5,1.7-7.4,2.6l-.8-1.6c3.4-1.8,6.9-3.7,10.9-5.8-1.8-1.2-2.9-2-4.2-2.8l6.2-4.9c4.5,2.5,8.8,4.7,13.1,6.9Zm56.7,182.6c-.4,1.6-1.4,3.7-.9,4.1,1.1,.9,2.9,1.6,4.4,1.5,4.2-.3,7.5-2.1,7.8-6.9,.3-5.9,3.6-7.6,7.6-7.1v-15.5l-2.6-.4c-.8,2.6-2.1,5.1-2.3,7.7-.3,4-3.4,7.6-7.4,8.9-3.2,1-6,3.3-8.9,5-.3,.2-.3,.9-.5,1.5l2.8,1.2h0Zm64.8-65.4c-1.3-.7-2.9-2.1-4.6-2.3-1.2-.1-3.7,1.6-3.6,2.4,.4,5.3,.9,10.7,2.1,15.9,.3,1.1,3.6,1.7,5.6,2.1,2.1,.4,4.2,.3,6.5,.5v-13.4c-2.5,4.4-4.2,7.4-6.4,11.2l-4-4.7c1.2-.7,2.6-1.3,3.6-2.3,1.3-1.3,2.2-2.9,2.9-3.9h-6.6c1.4-1.6,2.6-3.1,4.5-5.5h0Zm-19.2-59.2l-.6,8.5,1.4,.2c1.1-2.7,2.2-5.4,4-9.6,.5,2.5,1.3,3.9,.9,4.9-.7,2.2-1.8,4.3-3.1,6.2-2.9,4.3-2.3,6.9,2.2,9.3,.4-3.4-.1-7.4,1.3-10.5,2.5-5.3,2.7-9.6-.9-12.1-.6-3.9-1-6.3-1.4-8.8h-1.1c-.7,2.3-1.4,4.6-1.7,5.4-2.6,1-4.3,1.3-5.6,2.3-.6,.4-.6,2.9-.3,3,1.4,.7,3.1,.8,4.9,1.2h0Zm7.2,76.6c-.4-1.7-1.4-3.6-1-5.2,1.9-6.8,1.3-8.3-5.4-10-2.5,10.1-1.4,12.8,6.4,15.2Zm-39.4,13.6l-1.9-.3c-3.8,6-5.2,12.5-3.4,19.6,.2,.6,1.8,.9,2.4,1.2,1-7.3,1.9-13.9,2.9-20.5h0Zm8.3-15.7c-1.7,10.1-1,12.2,5.8,14.5-1.9-5.2,.9-11.4-5.8-14.5ZM65.2,75.16c-8.7,2.7-10.5,5.3-6.9,10,2.8-2.9,9.4-2.8,6.9-10Zm28.1,33.8c.9-3.3,1.2-5.5-2-7-3.6-1.7-10.7-.1-14,4,2.9-.7,5.9-2.8,8.5-2.4s4.8,3.3,7.5,5.4Zm95.8,84.4v19.3c4.8-8.6,4.3-16.6,0-19.3Zm-43.6,70c1.9,1.1,3.1,2.2,4.1,2.2,1.4-.1,3.8-1.1,3.8-1.8,.2-3.4-.2-6.9-.4-10.4,0,5-2,8.4-7.5,10h0Zm29.5-105.2h8.7l-6.8-7.4-1.5,.2-.4,7.2Zm8.2,6.5c-2,3.3-3.6,6.5-1,11.1,3.2-4.2,3-7.6,1-11.1Zm-19.2-5.7l9.5,4.7c-2.5-6.5-6.1-8.2-9.5-4.7Zm21.8-9.9c-1-3.3-1.9-6.3-2.7-9-4.1,4.1-3.4,7.1,2.7,9Zm27.3,118.4l1.5-.7c-.8-2.9-.7-6.2-3.3-8.1-.6,.3-1.2,.6-1.8,.9,1.3,2.6,2.5,5.2,3.6,7.9h0ZM122.3,136.46l1.9,.5c.2-1.5,.9-3.9,.3-4.3-1.4-.9-3.3-.8-5.1-.9-.1,0-.4,1-.7,2,1.5-.2,2.5-.4,3.8-.6,.1,0-.2,3.3-.2,3.3Z" fill="#41463d"/><path d="M373.5,206.86c-5.7,3.2-10.7,6.3-15.8,9-15.2,8-30.5,16-45.8,23.9-6.2,3.3-12.7,6.2-18.7,9.9-3.3,2-5.8,5.3-8.9,8.2-.5-.8-1.2-1.8-2-2.9-.9,.6-2.4,1.7-2.5,1.6-2.2-2.6-4-1.1-4,1.1,0,1.6,1.8,3.8,3.4,4.5,1.5,.8,3.7,0,5.6,0,.7,0,1.5,.4,2.3,.6-3.8,6.6-7.2,7.1-13.1,3.1-2.9-1.9-5.9-.9-8.4,3,2.9,.4,5.3,.6,7.6,.9v1.3c-3.8,0-8.1,1.1-11.3-.3-3.2-1.4-5.3-5.2-7.9-8-.4,.3-.8,.7-1.1,1,1.3,1.7,2.8,3.3,4,5.1,1.5,2.2,1.8,4.1-1.9,4.1-.9,0-1.9,.3-2.8,.4-3.3,.5-6.3-2.2-5.7-5.2,1.1-6,2.2-12,3.4-18.4-1.1,.9-1.9,1.4-3.2,2.5-.6-3-1-5.4-1.6-8.4-2.7,2.8-4.8,5-1.5,8.4,3.4,3.4,2.6,7.7,1.9,11.7-.5,2.9-1.6,5.6-2.8,9.4-2.1-1.4-4.3-2.8-6.8-4.5l-2,2.6c-5.8-5-3.6-11.4-3.6-17.3,.1-34.7,.3-69.3,.3-104,0-17.5-.5-35,.2-52.5,.2-6.4-4.5-7.4-8.6-10.8,1.6-.1,2.4-.4,2.7-.1,5.8,4.3,11.1,2.4,16.8-.7,22.1-11.9,44.3-23.4,66.5-35,2.5-1.3,5-2.5,8.5-4.2,.2,3.3,.5,5.9,.5,8.6,.1,34.8,.2,69.7,.4,104.5,0,4.3-.2,8.7,.4,13,.3,2.1,1.7,4.8,3.5,5.8,17,9.3,34.1,18.4,52,28.1h0Zm-111.8-56.1h-1.2v42.4h1.2v-42.4Zm30.9-14.4h-.9v28.1h.9v-28.1h0Zm16.9,66.6l-1.2,.1v17.5h1.2v-17.6h0Zm-18,29.1c1-1.3,2.5-2.5,2.4-3.5-.2-1.2-1.7-2.4-2.9-3.1-1.6-1-3.4-1.6-6.1-2.7,2.3,3.2,4.1,5.7,6.6,9.3h0Zm-15.2-78.9h-.6v31.7h.6v-31.7Zm-32.5,84.7h2.2v-16.9l-.9-.1c-.4,5.6-.9,11.3-1.3,17h0Zm1.3-61.2h-.3v23.4h.3v-23.4Z" fill="#41463d"/><path d="M95.7,210.76c2.1,1.5,4.8,3.3,7.4,5.1,.3-3,.5-5.5,.7-8.1l1.6-.3c1.9,3.7,3.8,7.4,5.9,11,.6,1.1,1.9,2.4,2.9,2.5,8.2,.5,13.2,7.2,20.1,10.2,3.2,1.4,6.1,3.4,9.2,5.2l-1,2.1c-3.3-1.5-6.6-3-9.9-4.5l-.8,1.1c2.1,1.3,4.4,2.5,6.4,4,2.2,1.5,4.3,3.3,7.1,5.4-4.3,.9-7.5,1.6-11.5,2.5,4.3-5.2,1-7.2-3-8.5-4.8-1.6-2.5-4.9-2.1-8-1.9-.6-3.7-1.2-6.5-2.2,.2,2.4,.4,4.4,.6,6.9-2.8-.8-5.5-1.6-8.2-2.4-3.2,1.4-7,3-11.1,4.8-1.1-2.3-1.7-3.7-1.8-3.9-4.2-.6-7.4-1.1-10.6-1.6l-.3,1c2.9,1.6,5.8,3.2,8.6,4.8-2.3,4.9-6.1,6.7-11.3,4.9-.6-.2-1.6-.7-1.6-1,.2-5.2-6.4-8.8-3.2-14.8,.6-1-1.2-3.3-2.1-5.4,2.5-1.6,5.1-3.2,7.6-5.1,2.5-1.5,4.6-3.6,6.9-5.7h0Z" fill="#41463d"/><path d="M33.3,186.66c-3.7,2.6-7.5,5.3-11.2,7.9l-.7-.9c3.9-3.6,7.8-7.2,11.7-10.8-.5-3.7-7.2-6.1-1-10,4.2,4.9,8.5,9.8,12.8,14.7,1,1.1,2.4,1.7,3.4,2.7,.7,.6,1.6,1.7,1.4,2.2-3.3,9.9-.7,20.1-1.6,30.1-.3,3.6-2.3,3.4-5,2.6,.9-5.7,1.9-11.1-2.6-15.9-2.7-2.8-5.5-2.8-8.6-1.4-2.5,1.1-3,3-1.3,5.2,1.3,1.6,2.7,3.1,4,4.7l-1,.9c-1-1.1-1.9-2.4-3-3.2-1.9-1.3-4-2.4-6-3.6-.9-.5-1.7-1.1-2.6-1.7,.7-.8,1.2-1.8,2.1-2.4,5.4-3.7,10.8-7.4,15.7-11.9-8.7,3.5-15.6,11.2-27.3,10.4,7.8-6.7,14.7-12.6,21.6-18.4l-.8-1.2h0Z" fill="#41463d"/><path d="M64.8,229.06c-2.6,.2-4.7,.4-6.8,.5-2.6,.1-7.2-5.1-7.3-8.1-.2-5-.4-10-.4-14.9,0-1.7,.8-3.4,1.2-5.1,1.4,.8,2.9,1.6,4.3,2.4,.7,.4,1.3,.7,2,1l.8-.9c-2.6-2.5-5.1-5-8.6-8.4,8.5,.2,9.4,6.3,12,10.5,.5,.8-1.3,3.3-.8,4,1.3,1.8,3.4,3,5.9,5-.5,3.9-1.4,8.8-2.3,14h0Z" fill="#41463d"/><path d="M243.6,66.16c-1.3-.9-3.4-2.3-6-4.2,10.1-7.6,19.6-14.6,29.1-21.7,5.6,3.4,5.5,7-.2,10.8-7.5,4.8-14.8,9.7-22.9,15.1h0Z" fill="#41463d"/><path d="M121.5,191.96c-.9,1.7-1.8,3.4-2.7,5.1-6.4-1.9-9-13.8-3.6-23.2,.4,6.6,.7,13.2,1.1,19.8,6.3-4.3,2-11.1,5.4-16.5,.5,1.1,1.1,1.8,1.1,2.5-.1,3.7-1.3,7.9,4.6,8.4,.1,0,.3,.2,.4,.3,3.3,2.9,2.4,15.4-1.2,18.2-.3-2.5-.5-5.2-1.1-7.7s-1.7-4.8-2.6-7.2l-1.4,.3h0Z" fill="#41463d"/><path d="M0,200.36v-71.4H1.6c.6,23.8,2.9,47.6,.5,71.4H0Z" fill="#41463d"/><path d="M34,138.76c-.7,4.1-1.4,8.1-2.4,13.6-4.3-2.9-10.7-5-11.3-8.3-1-4.9-3-11.6,2.8-16.3,2.8,2.1,6.5,2.9,4,8.3-1.4,3-.2,7.2-.2,10.8l1.4,.7c1.8-3.1,3.5-6.3,5.3-9.4l.4,.6h0Z" fill="#41463d"/><path d="M61.9,152.56c-.5,3.2-.1,6.3-1.5,7.9-1.6,1.9-4.6,2.9-7.1,3.6-.6,.1-2.6-2.7-2.8-4.3-.4-3.9-.3-8,.2-11.9,.2-1.4,2.1-2.7,3.2-4,.8,1.4,2.5,2.9,2.4,4.2-.2,4,1.8,4.8,5.6,4.5h0Z" fill="#41463d"/><path d="M99.1,171.76c1.2,2.3,2.8,4.4,3.5,6.8,.7,2.4,.5,5.1,1.8,7.7l3.2-17.3c.7-.1,1.3-.2,2-.3,1,2.9,2,5.9,3,8.9q-6.2,1.1-6.1,6.6c0,1.8-.4,3.6-.8,6.3-3.5-1.9-7.8-2.8-8.4-4.8-1.2-4-.3-8.6-.3-13l2.1-.9h0Z" fill="#41463d"/><path d="M81.6,236.26c-2.5-.3-4-.5-5.5-.7v5.5c-2.5-.1-5.1-.3-8.9-.5,1.5-2.4,2.4-3.8,3.9-6.2-4.3,.7-7.9,1.2-11.4,1.8l-.3-1.1c3.2-1,6.3-2.6,9.5-2.9,7.3-.7,7.3-.4,9.8-7.4l2.9,11.5h0Z" fill="#41463d"/><path d="M137.7,192.96c.4-1.2,.8-2.4,1.4-4.4,4.5,5.7,6.4,11.6,5.3,17.8-.4,2.1-4.1,3.6-6.9,5.9-2.4-7.5-1.6-13.5,.3-19.4,.2,3.4-1.1,7.4,3.5,9.4,2.5-4.8-.2-7.2-3.6-9.3h0Z" fill="#41463d"/><path d="M131.9,283.96c-.2-.1-1.3-.2-1.4-.5-1.8-5.9-5.2-4.1-9.1-2.3-2.4,1.1-5.3,.8-8.4,1.2,1.7-4.3,4.3-5.2,12.1-4.6-.4-1.1-.8-2-1.6-4.1,4.1,1.1,7.3,1.9,10.6,2.8-.8,2.7-1.5,5-2.2,7.5Z" fill="#41463d"/><path d="M45.2,158.96c-4.3,0-6.3-1-5.6-5.6,.7-4.4,.2-9.1,.2-13.5,1.7,1.1,3.4,2.2,6.2,4.1-.2,3.9-.5,9.2-.8,15Z" fill="#41463d"/><path d="M77.9,244.46c1.3,1.6,2.6,3.2,3.9,4.9,5.4-1.4,10.5,5.9,16.4-1.1v7.1c-6.7-1.5-13.6-2.8-20.3-4.8-1.1-.3-1.4-3.4-2.1-5.3l2.1-.8h0Z" fill="#41463d"/><path d="M72.7,173.96c.3-7.6-5.3-14.1,.3-21.5,3.7,10.1,3.7,15.4-.3,21.5h0Z" fill="#41463d"/><path d="M63.7,169.56c.4-7.6-1.9-15.3,.2-22.9h1.7v22.9c-.6-.1-1.2,0-1.9,0Z" fill="#41463d"/><path d="M26.4,178.56h-3.9c2.5-5.5-3.5-11.9,3-16.7l.9,16.7h0Z" fill="#41463d"/><path d="M79.8,161.46c5.9,5.9,6.4,7.9,4.5,14.7-5,.1-3.3-3.6-3.6-6.2-.3-2.6-.5-5.2-.9-8.5h0Z" fill="#41463d"/><path d="M183.9,76.36c3.6,1.2,5.6,1.8,8.2,2.6-.7,3.2-1.5,6.3-2.4,10.4-.8-2.2-4.8-2.3-2-6.4,.5-.7-1.9-3.5-3.8-6.6h0Z" fill="#41463d"/><path d="M249.1,38.56c-2.3,2.7-4.6,5.4-7.1,8-.8,.8-2,1.1-3,1.7-.1-1.2-.6-2.5-.3-3.6,1.9-5,6.1-7.3,10.4-6.1h0Z" fill="#41463d"/><path d="M166.1,284.76c3.2,.1,6.4,.4,9.6,.2,.9,0,1.6-1.7,2.6-2.3,.6-.4,1.6-.2,2.5-.3-.2,.8-.2,2.2-.7,2.4-3.7,1.5-7.4,3.1-11.3,4.1-.8,.2-2.1-1.8-3.2-2.7l.5-1.4h0Z" fill="#41463d"/><path d="M218.5,51.06c2.8,.7,5.6,1.4,8.3,2.3,.3,.1,.6,1.7,.3,2.2-.5,.7-1.7,1.5-2.3,1.3-2.5-.9-4.9-2.1-7.3-3.2,.4-.8,.7-1.7,1-2.6Z" fill="#41463d"/><path d="M184.7,285.66c3.6,1.5,6.9,2.9,11.3,4.8-4.2,0-7.6,.2-10.9-.2-.3-.1-.3-3.5-.4-4.6h0Z" fill="#41463d"/><path d="M295,52.76c-4.4,2.4-8.8,4.8-13.1,7.2l-.7-1.2c4.3-2.6,8.6-5.2,12.9-7.9,.2,.6,.5,1.2,.9,1.9h0Z" fill="#41463d"/><path d="M312,44.76c-4.2,1.7-7.9,3.2-11.6,4.7,2.9-5.3,9.1-7.4,11.6-4.7Z" fill="#41463d"/><path d="M173,179.36c-3.8,1.6-5.5,4.5-5.2,8.7-.5-3.7-1-7.5-1.7-12.2,3,1.5,5,2.6,6.9,3.5h0Z" fill="#41463d"/><path d="M5.3,202.36c4.4-2.5,9.3-5.2,15.1-8.4-4.5,6-11.4,9.3-15.1,8.4Z" fill="#41463d"/><path d="M221.3,92.36c6.6,.4,8.2,2.9,6.6,8.2-2.2-2.7-4-5-6.6-8.2Z" fill="#41463d"/><path d="M170.3,305.76c4.8-4.6,6.7-4.6,10.1-.9-3.1,.3-5.9,.6-10.1,.9Z" fill="#41463d"/><path d="M108.4,249.06l-6,3.8c-.4-.8-1.2-2.2-1-2.4,1.8-1.3,3.8-2.5,5.8-3.7l1.2,2.3h0Z" fill="#41463d"/><path d="M158.3,17.46c-3.8,1.8-7.6,3.7-11.4,5.5l-.7-1.4c3.8-1.9,7.6-3.8,11.4-5.7l.7,1.6h0Z" fill="#41463d"/><path d="M94,268.16c3.7,.7,7.3,3.7,10.5-1.4,.3,.4,.6,.8,.8,1.2-.6,1-1,2.3-1.9,2.8-2.8,1.6-6.5,.6-9.4-2.6h0Z" fill="#41463d"/><path d="M249.2,38.66l2-9.8,1.4,.4c1.1,3.8,.3,6.9-3.6,9.3,.1,0,.2,.1,.2,.1h0Z" fill="#41463d"/><path d="M47,91.46c1.2,1.9,2.2,3,2.7,4.4,.1,.3-2,2-2.2,1.9-1.2-.9-2.2-2.1-3-3.3-.1-.4,1.2-1.6,2.5-3h0Z" fill="#41463d"/><path d="M172.2,87.96c-1-3.8-1.7-6.5-2.4-9.2,4.5,.6,4.8,1.6,2.4,9.2Z" fill="#41463d"/><path d="M253,24.96c-2.1-1-4.3-2-6.4-3,.3-.6,.5-1.3,.8-2,2.2,.8,4.4,1.6,6.6,2.5-.3,.9-.7,1.7-1,2.5h0Z" fill="#41463d"/></g></g></g></g></svg>