<?xml version="1.0" encoding="utf-8"?>
<!-- Generator: Adobe Illustrator 26.3.1, SVG Export Plug-In . SVG Version: 6.00 Build 0)  -->
<svg version="1.1" id="b" xmlns="http://www.w3.org/2000/svg" xmlns:xlink="http://www.w3.org/1999/xlink" x="0px" y="0px"
	 viewBox="0 0 200 318.7" style="enable-background:new 0 0 200 318.7;" xml:space="preserve">
<style type="text/css">
	.st0{fill:#E4D6A7;}
	.st1{fill:#41463D;}
</style>
<polygon class="st0" points="99.8,1 17.5,29 20.1,150 -9,195.8 -9,271.3 89.9,318.7 162.4,251.3 122,126 129.8,25.3 "/>
<g id="c">
	<g id="d">
		<g id="e">
			<g>
				<path class="st1" d="M151.9,189.9c-8.5,4.4-17.1,8.7-25.6,13.1c-4.6,2.4-9.1,4.8-13.6,7.1c-0.9,0.5-2.2,0.9-3.1,0.6
					c-2.6-0.9-2.9,0.1-4.1,2.3c-1.2,2.3-4.5,3.5-6.9,5.2c0.7-1.2,2.1-2.6,1.9-3.7c-0.3-1.8-1.7-3.3-2.7-5l-7.8,5.4
					c-1.5-0.2-3.2-1-4.6-0.5c-4.7,1.6-9.3,3.6-14.4,5.6c0.1,0.1-0.9-0.6-2.8-1.6c0-11.8-0.1-24.4,0.1-37c0-1.5,1.6-3.4,2.9-4.4
					c2.4-1.8,5.3-2.8,7.7-4.5c1.5-1.1,2.5-2.9,3.7-4.3l-1.4-1.5c-4.6,2.6-9.1,5.2-13.7,7.9V68.6l6.1-1l-0.1-0.7
					c-1.8,0.3-3.6,0.5-6,0.9c0-5.3-0.2-10.1,0.1-14.9c0.1-1.2,1.6-2.7,2.8-3.4c13.3-7.5,26.7-14.7,40.1-22.2
					c1.5-0.8,2.5-2.5,3.7-3.7l-1-1c-12.3,6-24.6,12.1-37.4,18.4c0-8.1-0.2-15.9,0.2-23.8c0.1-1.5,2.1-3.4,3.6-4.4
					C86.2,8.7,93,4.9,99.8,1c4.6-2.6,10.4,0,12,5.2c2.1,6.9,9.9,12.2,17.5,11.3c0.2,2.6,0.5,5.1,0.5,7.7c0,29.7-0.1,59.5-0.1,89.2
					c0,6.2,1.7,9,7.6,11.1c3.3,1.2,4.5,2.7,4.4,6.4c-0.3,12.3,0,24.6-0.2,36.9c-0.1,5.1,2.3,7.8,6.7,9.8c3.4,1.5,7.7,2.1,9.3,6.4
					c-2.1,1.8-3.9,3.4-5.8,5L151.9,189.9L151.9,189.9L151.9,189.9z M81.6,169.3c0.7,0.5,1.3,1,2,1.5c3.1-2.6,6.3-5.1,9.4-7.8
					c3.1-2.7,5.9-5.8,9.2-8.3c6.6-5,6.7-4.9,6.2-9.6c-2.1,3.6-4.6,5.9-8.6,5.4c-0.4-0.1-1,0.7-1.5,1.1c-4.6,4.2-9.3,8.3-13.7,12.6
					C83.3,165.5,82.6,167.6,81.6,169.3L81.6,169.3L81.6,169.3z M116.8,184.6h0.5v-34.1h-0.5V184.6z"/>
				<path class="st1" d="M151.7,190c2.7-1.2,5.4-2.3,8.8-3.8c-0.2,3.4-0.6,6.1-0.6,8.9c-0.1,17.4-0.3,34.9-0.2,52.3
					c0,1.3,1.5,3.2,2.8,3.9c12.1,7.1,24.4,13.9,37.6,21.4c-8.5,4.6-16.2,8.8-23.9,12.9c-13.2,6.9-26.2,14.3-39.8,20.3
					c-8.5,3.7-18,5.2-27,7.6c-6.6,1.8-13.2,3.6-19.5,5.3c0-28.5,0.1-56.5-0.1-84.4c0-2.8,0.8-4.2,2.9-5.5c5.4-3.2,10.9-6.4,16.2-9.9
					c14.4-9.6,28.6-19.4,43-29.1L151.7,190L151.7,190L151.7,190z"/>
				<path class="st1" d="M32.3,233.2c9.5,3.8,13.9,14.1,10.9,21.6c-4.6-3.1-9.3-6.3-14.8-10.1l0.7,8.5l-1.2,0.2l-2.1-9.2
					c-0.5,0.1-1,0.2-1.4,0.2c-0.9,4.1-2.4,7.6-0.8,12.7c1.9,6.2,0.5,13.4,0.5,19.8c-7.4-4.9-9-12.5-7.9-21.2c0.2-1.9,1.6-5-4.7-3.4
					l1.5-1.9c1.3-1,2.9-1.7,3.9-2.9c1.2-1.6,2.5-3.6,2.5-5.4c0-1.4-1.9-2.7-2.9-4c4.2-3.4,0.2-9.1,2.3-13.9c2.2,1.1,4.7,2,6.8,3.5
					c1.3,1,2.5,2.8,2.8,4.4c0.5,2.7-0.1,5.6,0.3,8.4c0.2,1.6,1.3,3.1,2,4.7c0.6-0.1,1.2-0.3,1.8-0.5L32.3,233.2L32.3,233.2
					L32.3,233.2z"/>
				<path class="st1" d="M47.6,291.5c-4.7-0.2-9.7,1.9-11.4-4.8c-2.2,0.4-4,0.8-6.5,1.3v-25.5c3.2,1.6,6.1,3.1,9.2,4.6
					c1.2-1.1,2.5-2.2,4.3-3.8c-5.1-2.4-9.7-4.6-14.3-6.7l-0.1-1.2c3-0.8,5.9-1.8,9-2.3c0.4-0.1,1.2,2.5,2,4.2
					c3.7-0.1,5.4,2.2,4.7,6.5c4,0.3,5.5,0.4,3.8,5.5c-2,6-0.7,13-0.8,19.6C47.4,289.7,47.5,290.4,47.6,291.5L47.6,291.5L47.6,291.5z
					 M40.7,269.8c-0.5,5.7-2.5,11.4-0.3,16.9l1.5-0.1C41.5,281,41.1,275.4,40.7,269.8L40.7,269.8L40.7,269.8z"/>
				<path class="st1" d="M61.1,244.9c-7-1.3-8.1-2.4-8.1-8.3c-0.1-8.8-0.3-17.5-0.1-26.3c0.1-2.6,1.4-5.2,2.1-7.8l1.7-0.2
					c1.2,2.6,2.5,5.2,3.8,7.8c0.3-0.6,0.5-1.2,0.2-0.4l3.3,14.5l-1.7,0.3l-1-6c-0.8,1.8-1.3,2.9-1.7,3.6c-1.6-0.7-3.3-1.4-6.2-2.6
					c3.2,4.9,6.4,8.2,7.5,12.1C62,235.7,61.1,240.4,61.1,244.9L61.1,244.9L61.1,244.9z"/>
				<path class="st1" d="M31.4,155c-0.4-1.2-1.2-2.3-1.2-3.5c0-15.4,0-30.8,0-46.3c0-22.2,0-44.5,0-66.7c0-1.6,0.2-3.2,0.2-4.7
					l1.4-0.2c0.3,1.5,0.8,3,0.8,4.5C32.9,55.2,33,72.3,33,89.4c0,21.7,0,43.3,0,65L31.4,155L31.4,155L31.4,155z"/>
				<path class="st1" d="M81.4,279.9c-3.7-1.9-6.7-3.4-9.6-4.9c-0.2-0.1-0.4-0.2-0.4-0.2c-0.2-6.8-0.3-13.6-0.5-20.4
					c1,0.1,2.3-0.2,2.9,0.3c0.8,0.6,0.9,2.5,1.7,2.8c7.9,3,5.6,9.7,5.8,15.4C81.5,274.9,81.4,276.9,81.4,279.9L81.4,279.9
					L81.4,279.9z"/>
				<path class="st1" d="M81.4,304.9c-9.3-1.9-10.7-3.4-10.7-12V282c9.9,2.8,10.8,3.8,10.7,13C81.4,298.3,81.4,301.5,81.4,304.9
					L81.4,304.9L81.4,304.9z"/>
				<path class="st1" d="M60.7,291.2c0.5,1.6,1.2,3.8,2.2,7c-3.6-2-6.2-3.4-8.7-4.8c-3.4-7.3-0.5-14.7-1.5-22.1
					c10.4,6,11,7.1,9.7,17.5C62.3,289.7,61.3,290.4,60.7,291.2L60.7,291.2L60.7,291.2z"/>
				<path class="st1" d="M10.4,240.7c-6.4-2.2-9.6-6.7-9.7-13.3V218c6,0.1,8.4,4.6,9.4,8.9C11.2,231.2,10.4,236,10.4,240.7
					L10.4,240.7L10.4,240.7z"/>
				<path class="st1" d="M7.3,273.7c-2.1-1-3.7-1.8-6.6-3.3c2.3,0.2,3.2,0.2,4.9,0.4c-1.7-4.5-4-8.5-4.8-12.8
					c-0.8-4.6-0.2-9.4-0.2-14.3c6,1.2,8.4,4.4,7.9,10.1C8.1,260.3,7.8,266.7,7.3,273.7L7.3,273.7L7.3,273.7z"/>
				<path class="st1" d="M63.3,267.3c-3.4-1.5-6.8-3-10.4-4.6v-18.2c7.1,1.6,8.1,2.8,8.1,9.3c0,2.1,0.8,4.1,1.2,6.2
					C62.6,262.5,63,264.9,63.3,267.3z"/>
				<path class="st1" d="M20.2,202.3c0.7,1.5,1.3,3,2.1,4.4c1.2,1.9,2.5,3.8,3.9,5.8l1.5-1.7v15.4c-2.7-1.2-5.3-2.3-7.8-3.6
					c-0.8-0.4-1.7-1.4-1.7-2.1c0-5.8,0.1-11.5,0.4-17.3c0-0.3,1.2-0.5,1.9-0.7L20.2,202.3L20.2,202.3L20.2,202.3z"/>
				<path class="st1" d="M2,208.8c3.8-0.2,6.9,0.1,5.9,5.6c-2.3-0.9-4.5-1.8-6.8-2.7L0,191c3.6,0.5,7.2,1,11.2,1.5v8
					C8.1,199.3,5,198.2,2,197c3.9,2.7,7.9,5.2,5.1,11.8c-2-1.4-3.7-2.7-5.2-3.8L2,208.8L2,208.8L2,208.8z"/>
				<path class="st1" d="M40.1,181.1c2.6,1.8,2.9,2.9,1.9,11.4c-8.4-2.9-10.9-6.1-10.2-13c0.1-1.1,0.3-2.4,0.9-3.3
					c1.3-2.1,3-4.9,5.7-2.8C39.8,174.5,39.4,177.6,40.1,181.1L40.1,181.1L40.1,181.1z"/>
				<path class="st1" d="M73.2,233.1c0.7,0.6,1.4,1.6,2.2,1.9c4.2,1.4,5.3,4.4,5,8.4c-0.2,2.8,0,5.6,0,9.8c-3.6-2.4-8.7-4-9-6.4
					c-0.6-4.3-3.1-9.8,1.9-13.6L73.2,233.1L73.2,233.1L73.2,233.1z"/>
				<path class="st1" d="M40.3,216.3c-1.4-1.2-2.8-2.3-4.2-3.5c-3.8-3.1-5.7-12.6-3-16.6c0.5-0.7,2.9-0.7,3.9-0.1
					c5,2.7,4,7.7,4.3,12.2l-4.3,1.6c2.5,1.2,4.5,1.6,5.3,2.8c0.5,0.8-0.6,2.7-1,4.2L40.3,216.3L40.3,216.3L40.3,216.3z"/>
				<path class="st1" d="M20.4,202.4c-0.7-1-2-2-2-3.1c-0.2-4.9-0.1-9.8-0.1-15c8.9,3.9,10.5,6.5,9.2,15.5c-0.7,5.1-4.7,1.9-7.2,2.4
					C20.2,202.3,20.4,202.4,20.4,202.4L20.4,202.4L20.4,202.4z"/>
				<path class="st1" d="M27.9,184.4c-10-4-10.7-4.7-9.3-11.8c0.3-1.5,2.4-4,3.3-3.9c1.7,0.3,4.1,1.9,4.5,3.5
					C27.3,176,27.4,180,27.9,184.4L27.9,184.4L27.9,184.4z"/>
				<path class="st1" d="M37.8,25.2c3.5,2.3,6.3,4.9,7.3-0.9c0.1,0.3,0.3,0.5,0.3,0.8c-0.1,3.2-0.2,6.4-0.4,9.5
					c-3-0.6-6-1.1-8.9-1.7c-1.8-0.4-3.5-0.9-5.2-1.6c-1.3-0.5-2.6-1.3-3.9-2.5C31.9,31.6,35,28.9,37.8,25.2L37.8,25.2L37.8,25.2z"/>
				<path class="st1" d="M51.7,164.1c-3.4-1.6-6.8-3.2-9.6-4.5v-13.8h1.3v12.9h1.4v-11l2.1-0.2c0.2,2.3,0.3,4.6,0.5,6.9
					c0.2,2.4,0.3,4.8,0.4,7.2l1.9-0.1V151h1.8v13.3L51.7,164.1L51.7,164.1L51.7,164.1z"/>
				<path class="st1" d="M16.6,74.5V29.3l1-0.3l3.6,7l-3.5,0.2v38.2L16.6,74.5L16.6,74.5L16.6,74.5z"/>
				<path class="st1" d="M40.3,216.3l1,0.6c0.1,0.8,0.5,1.8,0.2,2.4c-0.9,2-2,3.9-3,5.9c-1.3-1.3-2.9-2.4-3.7-3.9
					c-1.1-2.1-1.6-4.4-2.5-7.5C35.2,214.8,37.8,215.5,40.3,216.3L40.3,216.3L40.3,216.3z"/>
				<path class="st1" d="M37,141.5v14.1h1.6v-12.2c2.5,2.8,2.8,8.7,1.2,14c-4.8,0-5,1.3-4.2-15.7L37,141.5L37,141.5L37,141.5z"/>
				<path class="st1" d="M93.5,217.5c1.7,0.2,3.4,0.3,5.1,0.5c-3.4,2.7-6.6,6.1-10.5,7.9c-1.8,0.9-5-1-7.9-1.8
					c2.2-1.1,3.7-1.9,5.2-2.7l0,0.1C88.2,220.2,90.9,218.9,93.5,217.5L93.5,217.5L93.5,217.5z"/>
				<path class="st1" d="M73.2,233.1l0.2,0.1c-0.8-3-1.6-6.1-2.8-10.2c2.7,1.8,4.6,2.7,5.9,4.1c1.3,1.4,2,3.3,3,5L73.2,233.1z"/>
				<path class="st1" d="M39.3,108.2c5.7,4.5,2.2,10.2,3.6,15.2C38.2,122.2,37.8,120.6,39.3,108.2z"/>
				<path class="st1" d="M46.7,92V60.6h0.9V92C47.6,92,46.7,92,46.7,92z"/>
				<path class="st1" d="M46.8,129.5v15C44.6,142.9,44,136.9,46.8,129.5z"/>
				<path class="st1" d="M55.2,165.6l1.3,0.2c0.4-3.6,0.8-7.3,1.1-10.8c1.6,0.6,2.2,6,2,16C57.7,168.5,56.5,167,55.2,165.6
					C55.3,165.5,55.2,165.6,55.2,165.6z"/>
				<path class="st1" d="M35.4,36.5c4.5,4,1.3,9.5,2,14.4C32.6,46.8,35.8,41.4,35.4,36.5z"/>
				<path class="st1" d="M37.3,68.1C33.2,64,35.7,59,35,54.4C40,58.3,36.2,63.6,37.3,68.1z"/>
				<path class="st1" d="M63.3,267.3c-0.4-2.4-0.8-4.9-1.1-7.3l1-6.9l1.6,0.1v16.4l-1,0.1L63.3,267.3L63.3,267.3L63.3,267.3z"/>
				<path class="st1" d="M44.1,72.3c-5-2.4-5.9-6.7-3-16v13.4l1.3-0.1V58.3h1.7V72.3z"/>
				<path class="st1" d="M51.7,164.2l2-11.6c1.9,3.7,2.1,7.4,1,11.3c-0.1,0.4,0.3,1.1,0.6,1.6c0,0,0-0.1,0-0.1
					c-1.2-0.5-2.3-0.9-3.5-1.4L51.7,164.2L51.7,164.2L51.7,164.2z"/>
				<path class="st1" d="M60.7,186.1c-5.6-0.9-3.6-5.4-3.1-9.4c1.6,2.8,3.2,5.5,4.8,8.3C61.9,185.4,61.3,185.8,60.7,186.1
					L60.7,186.1L60.7,186.1z"/>
				<path class="st1" d="M39.6,91.8l0.5,3.1c0,0,0.1,0,0.1-0.1c0.1-0.8,0.2-1.6,1-2.3v14.1C36.1,101.9,40.1,96.5,39.6,91.8z"/>
				<path class="st1" d="M54.7,114.3c-2.3-4.8-0.7-10-1.1-15l1.6-0.2l1,14.8L54.7,114.3C54.7,114.3,54.7,114.3,54.7,114.3z"/>
				<path class="st1" d="M55.6,96.5c0.6-4.2,1.1-8.3,1.7-12.5l0.3-0.1v12.6h1.2V85l0.8,0v14c-1.5-1.1-2.7-1.8-3.8-2.6L55.6,96.5
					L55.6,96.5L55.6,96.5z"/>
				<path class="st1" d="M53.9,149.8v-15.7l0.8-0.1v15.7L53.9,149.8L53.9,149.8L53.9,149.8z"/>
				<path class="st1" d="M46.1,109.4V94.8l0.8-0.1v14.7L46.1,109.4z"/>
				<path class="st1" d="M40.1,126v14.8l-0.6,0.1v-14.8C39.5,126.1,40.1,126,40.1,126z"/>
				<path class="st1" d="M50.3,147.4v-14.4h1v14.3L50.3,147.4L50.3,147.4L50.3,147.4z"/>
				<path class="st1" d="M55.7,96.3c-0.6-0.4-1.8-0.8-1.8-1.2c-0.1-4.5-0.1-9-0.1-13.5l1.8-0.1v14.9L55.7,96.3L55.7,96.3L55.7,96.3z
					"/>
				<path class="st1" d="M43.8,39.7l0.7,14.8l-1.3,0.1c-2.7-4.8-0.2-9.9-0.9-14.8L43.8,39.7L43.8,39.7L43.8,39.7z"/>
				<path class="st1" d="M34,223.8c1.7,2.8,2.8,4.7,4,6.7c-1.1,0.3-2.3,1.1-3.2,0.8C31.5,230.1,32,227.8,34,223.8z"/>
				<path class="st1" d="M35.7,103.4V89.9l0.8-0.1v13.5L35.7,103.4L35.7,103.4L35.7,103.4z"/>
				<path class="st1" d="M51,97.4v13.3l-0.9,0V97.3L51,97.4L51,97.4L51,97.4z"/>
				<path class="st1" d="M47,112.9v13.6l-0.8,0.1v-13.8L47,112.9z"/>
				<path class="st1" d="M55.1,117.3v13.4l-0.8,0.1v-13.4H55.1z"/>
				<path class="st1" d="M16.4,104.7V86.1h0.5v18.5H16.4z"/>
				<path class="st1" d="M44.2,76.8v13.1h-0.8V76.8H44.2z"/>
				<path class="st1" d="M39.2,88l0.6-13.8l1.8,0.1l-0.7,13.8L39.2,88L39.2,88L39.2,88z"/>
				<path class="st1" d="M53.9,76.8V63.7l0.9,0v13.1C54.8,76.8,53.9,76.8,53.9,76.8z"/>
				<path class="st1" d="M50.1,75.4V62.5l0.8,0v12.9C50.9,75.3,50.1,75.4,50.1,75.4z"/>
				<path class="st1" d="M43.4,128.6v14h-0.8v-14.3L43.4,128.6z"/>
				<path class="st1" d="M51.1,115.1v12.8h-0.9V115L51.1,115.1z"/>
				<path class="st1" d="M18.2,141.2l1.9,8.7c-1.7-0.7-3.5-1.4-5.6-2.3c1.8-1.8,5.8-2.8,1.5-6.4L18.2,141.2L18.2,141.2z"/>
				<path class="st1" d="M36.7,124.7v13.9l-1,0v-13.9L36.7,124.7L36.7,124.7L36.7,124.7z"/>
			</g>
		</g>
	</g>
</g>
</svg>
