<?xml version="1.0" encoding="UTF-8"?><svg id="b" xmlns="http://www.w3.org/2000/svg" viewBox="0 0 320.7 333.29"><g id="c"><g id="d"><g id="e"><g><path d="M121.8,144.86c1.07,1.11,2.16,2.2,3.2,3.32,1.12,1.21,2.2,2.45,3.52,3.93v-20.9c-1.56-.63-6.39,1.09-4.45-4.29,5.65-.17,6.43-1.71,5.18-7.21-.83-3.65,.06-7.66-.58-11.38-.35-2.06-1.83-4.71-3.57-5.6-7.44-3.83-14.97-9.3-22.84-9.99-8.15-.72-13.59-5.05-20.25-7.89-8.86-3.77-18.21-6.39-27.53-9.57,1.7-4.29-.48-5.64-3.47-5.25-6.85,.89-12.48-2.55-18.54-4.51-1.21-.39-2.55-.4-4.13-.64-.23,3.92-.43,7.5-.66,11.08-.04,.66,0,1.45-.34,1.95-5.04,7.48,1.68,8.18,5.92,10.28,.74,.37,1.54,.62,2.31,.93l-.99,1.08c-4.38-1.74-8.85-3.3-13.1-5.33-1.15-.55-1.93-2.45-2.32-3.89-.46-1.73-.37-3.61-.43-5.43-.05-1.41,.04-2.83,.07-4.25,1.35,.53,2.69,1.09,4.05,1.59,.28,.1,.63,.01,1.7,.01-.95-1.65-1.73-2.97-2.48-4.3-1.22-2.13-3.95-3.88-1.38-6.95,.39-.47-.93-2.36-2.05-4.96,2.32,1.6,3.65,2.77,5.18,3.5,1.42,.67,3.06,.87,4.6,1.27,.29-1.34,.79-2.67,.83-4.01,.07-2.2-.15-4.41-.25-6.62l1.66-.18,1.01,6.92c.57-7.45-2.34-11.73-8.73-12.84,1.79-10.44-3.09-16.78-13.75-19.1l.55-1.36c2.59-.16,5.24-.76,7.76-.41,5.35,.74,10.63,1.97,15.93,3.03,.47,.09,1.17,.68,1.32,.54,4.56-4.08,8.49,.7,13.34,.88l-3.13,2.99c6.57,.66,8.31-1.21,7.19-5.5l3.43-5.37,.07,.05c1.84-3.78,4.29-5.21,8.91-4.28,6.21,1.24,12.67,1.14,19.01,1.79,1.72,.18,3.35,1.36,5.06,1.45,4.35,.22,8.72,.07,13.53,.07-.46-1.13-.84-2.07-1.22-3,.26-.18,.49-.44,.77-.51,3.41-.87,6.9-1.5,10.24-2.61,4.01-1.33,8.06-2.72,11.77-4.69,4.87-2.59,9.42-5.78,14.11-8.7h2.99c-.13,2.74-.21,5.49-.4,8.23-.09,1.28-.53,2.56-.54,3.83-.02,7.47,0,14.94,.09,22.41,.04,3.71-1.07,5.8-5.26,4.12,.86,3.62,1.86,3.85,7.89,.92-.26,2.72-.86,4.72-.53,6.55,.42,2.35,1.18,4.84,2.52,6.78,1.89,2.72,4.44,4.99,6.85,7.6,4.76-5.93,7.72,4.78,12.41,2.65-.42,2.44-.79,4.62-1.36,7.94-5.02,1.97-2.12-4.1-2.65-4.76-5.69-2.27-10.17-4.05-15.08-6.01-1.14,.17-3.16,.95-5.02,.66-6.01-.95-8.44,2.42-9.79,7.63l2.48,1.68-.12,1.6c-2.74,0-5.5,.23-8.2-.06-4.01-.43-6.01,2.05-6.44,8.65l-13.28,2.48,.02,1.52,8.6,5.17-.58,1.07c-7.8-3.34-15.6-6.69-24.44-10.48,2.64,6.47,25.14,15.17,30.31,13.92,1.53,1.9,2.4,3.21,3.51,4.26,.55,.52,1.74,.36,2.29,.87,8.96,8.31,17.62,2.91,26.03-.83,13.24-5.88,26.28-12.24,39.38-18.44,2.01-.95,3.98-3.14,5.84-3,2.07,.15,4.94,1.86,5.8,3.68,1.77,3.73,5.72,7.37,2.48,12.22-2,2.99-1.67,10.59,1.24,11.91,1.64,.75,6.08-.68,6.55-2.06,1.29-3.76,1.14-8,1.58-12.2,.66,1.58,1.13,3.83,2.41,5.41,1.34,1.65,3.48,2.67,5.47,4.1,.13,1.63,.34,4.34,.55,7.04l1.64-.02c.25-1.27,.23-2.7,.83-3.77,.55-.97,1.78-1.55,3.47-1.68-.36,1.02-.72,2.04-1.06,3.02,3.98-.46,7.73-.89,11.47-1.32l.37,1.74c-4.91,1.33-9.87,2.53-14.7,4.11-.91,.3-1.92,2.11-1.88,3.18,.21,6.03,5.75,11.74,11.8,12.85,2.42,.44,4.72,1.5,7.94,2.55,1.2-2.14,3-5.34,4.8-8.54l.97,.19c-.35,2.28-1.19,4.6-.97,6.82,.78,7.95-6.39,12.71-7.63,19.7-1.05,5.95-1.4,12.02-2.07,18.16-7.19,1.87-9.73,5.31-9.52,13.31,.1,3.79,.49,7.42-3.16,10.35-1.39,1.12-2.4,4.93-1.58,6.09,1.51,2.13,4.45,3.31,6.91,4.67,1.22,.67,3.04,.49,4.03,1.34,8,6.85,17.97,9.85,27.26,14.18,13.55,6.31,27.14,12.51,40.66,18.87,6.35,2.98,12.57,6.22,19.69,9.77-9.83,5.12-18.76,9.83-27.74,14.42-6.12,3.12-12.46,5.81-18.45,9.17-3.12,1.75-5.45,4.9-8.55,6.73-5.12,3.02-10.56,5.52-15.91,8.16-.86,.42-2.41,.16-2.77,.74-1.66,2.7-3.78,3.75-6.96,3.22-.65-.11-1.55,1.24-1.65,1.33-1.92-.65-5.33-2.06-5.45-1.82-1.69,3.33-3.4,.7-3.72-.3-1.27-3.93-3.96-2.12-6.67-1.63,.98,1.1,1.95,2.19,2.77,3.11-1.15,.81-2.29,1.6-2.77,1.94-2-.45-3.77-1.46-5.13-1.06-6.2,1.81-12.25,4.13-18.42,6.06-5.75,1.8-11.57,1.58-17.58,.99-4.04-.4-5.27-1.71-4.93-5.79,5.56,.63,11.22,.81,15.93-3.99-9.97,1.15-16.84-5.42-24.49-10-.36,.42-.72,.85-1.08,1.27,1.77,2.76,3.28,5.73,5.36,8.23,3.05,3.67,2.09,7.73-3.56,9.9,1.19-1.46,1.85-2.29,2.52-3.12-.94-1.62-1.88-3.23-2.96-5.1-.41,1.24-.74,2.26-1.13,3.44-4.05-5.15-4.6-5.09-9.94,1.09,.89,.75,1.78,1.49,2.66,2.23-.28,.44-.5,.97-.62,.94-6.94-1.43-13.05,1.65-19.09,3.98-10.73,4.15-21.22,8.94-31.75,13.6-1.93,.85-3.6,2.32-4.32,2.8-2.96-3.26-4.63-5.92-7.02-7.47-1.89-1.22-4.12-.48-4.56,2.64-.22,1.56-1.36,2.97-2,4.48-1.25,2.96,2.41,6.59,6.1,6.26,2.26-.2,4.55-.04,6.81,.67l-26.33,8.78c-.48-3.7-1.08-8.37-1.86-14.45,2.08-.12,5.29-1.22,7.61-.25,4.63,1.94,5.52-.17,6.02-3.48-3.79-2.58-7.33-5-10.87-7.41l-.13,.14c.41-.95,1.38-2.57,1.15-2.76-5.54-4.64-11.21-9.13-17.04-13.79-3.62,4.38-6.71,8.11-10.21,12.35-1.27-.69-2.79-1.52-5.5-3,2.15-3.94,4.64-7.63,6.23-11.67,1.51-3.84,3.13-3.09,5.96-1.6,13.76,7.26,27.6,14.38,41.51,21.34,1.39,.7,3.67,.42,5.22-.19,2.11-.84,3.88-2.49,5.87-3.69,6.44-3.9,12.25-9.23,21.56-8.68-.47-10.26-1.07-20.02-1.31-29.79-.11-4.58,.65-9.17,.69-13.76,.15-16.26,.1-32.53,.27-48.8,.02-2.29,.87-4.56,1.32-6.77-.51-1.83-1.49-3.84-1.55-5.87-.21-7.8-.55-15.64,.02-23.4,.39-5.29-2.28-8.24-6.08-10.27-3.59-1.92-4.45-4.57-4.26-8.11l-.16,.17,.04,.07h0Zm102.61,106.63c1.39-1.55,2.77-3.11,4.25-4.76-3.52-1.35-6.66-2.56-9.8-3.77l-.96,1.03c2.22,2.46,4.44,4.92,6.66,7.38l-.2,3.92c2.41-1.65,4.26-2.73,5.89-4.07,4.7-3.86,9.37-7.77,13.93-11.8,.8-.71,.98-2.1,1.39-3.05-7.47,5.34-14.32,10.23-21.15,15.12h0Zm-34.82-128.86c-2.81,1.24-4.08,2.27-5.35,2.27-4.2,0-8.28,3.31-8.31,7.31-.09,13.25-.1,26.5-.14,39.75v9.16c1.56-.45,2.63-.75,3.69-1.07,6.38-1.94,10.88-4.41,10.35-12.91-.91-14.47-.25-29.04-.25-44.5h0Zm44.48,131.76c1.78,2.6,2.45,4.7,3.81,5.32,3.3,1.51,6.92,2.34,10.57,3.49-.14,1.26-.41,3.65-.72,6.49,3.8-1.83,7.08-3.42,10.61-5.12-6.85-6.24-11.59-8.89-14.21-7.95,1.5,.7,2.85,1.33,4.2,1.96-5.58,3.06-8.28-2.88-14.24-4.2h-.02Zm-59.99-19.06l2.07,2.01,1.89-4.6c4.13,.19,7.57,.49,11,.47,6.69-.04,10.08,3.05,10.18,9.41,.03,1.69,.41,3.38,.75,6.07,3.91-9.75,1.72-14.42-7.72-18.47-6.88-2.95-15.78-.45-18.17,5.11h0Zm81.64,17.29c5.67,4.17,10.61,7.81,15.55,11.45l.83-1.22c-4.92-3.75-8.1-10-16.38-10.23h0Zm-15.18-.83c3.97-1.01,6.35-1.61,9.79-2.49-3.04-2.24-5.13-3.79-7.23-5.34-.67,2.06-1.35,4.12-2.56,7.82h0ZM129.23,66.73c-2.29-1.13-3.78-2.54-4.79-2.25-3.75,1.08-6.84,3.23-8.22,7.86,4.3-1.86,8.04-3.47,13.01-5.61ZM60.15,286.76c-5.39-2.55-6.02,1.9-7.95,3.69-1.01,.94-1.19,2.77-1.74,4.21l1.57,.64c2.53-2.66,5.07-5.32,8.12-8.53h0Zm173.63-12.26c2.65,5.62,6.55,7.47,11.59,5.04-3.5-1.52-6.99-3.04-11.59-5.04Zm6.93-39.47c-3.4-.19-6.14-.34-8.88-.49,4.41,6.49,4.74,6.5,8.88,.49Zm22.7,36.55c0-.53-.02-1.05-.03-1.58-1.34-.46-2.83-1.51-3.99-1.22-1.24,.31-2.28,1.8-3.13,2.97-.14,.19,1.37,2.15,1.79,2.04,1.85-.49,3.58-1.44,5.35-2.22h0Zm-111.92-71.83l1.9,1.01c1.75-2.92,3.5-5.84,5.26-8.76l-1.72-1.03c-1.81,2.93-3.63,5.86-5.44,8.79h0Zm103.53,35.89l1.89-1.6c-.69-3.56-4.39-3.77-7.03-5.17l-.99,1.06c2.04,1.9,4.09,3.8,6.13,5.71Z" fill="#41463d"/><path d="M32.19,249.7l.7,4.26c6.09-1.75,7.23-3.5,6.87-12.13-.33-8.14-1.08-16.26-1.66-24.63l-3.55,1.96c2.81-4,.98-7.65,3.71-10.88,1.29-1.53-.71-5.83-1.21-8.83,2.45,.07,3.78-1.26,1.09-4.69,1.41-.31,2.46-.9,2.93-.6,3.36,2.16,7.07,4.08,9.67,6.97,1.21,1.35,.21,4.69,.21,7.5l-3.66-.58-.38,.72c1.47,1.07,2.94,2.14,5.04,3.67l1.61-7.15c4.85,.38,3.66-4.09,4.57-5.66,3.72-1.55,6.75-2.82,9.66-4.03,0,1.95-.22,4.77,.08,7.52,.18,1.62,1.19,3.15,1.83,4.72,1.69-1,3.44-1.91,5.05-3.02,.71-.49,1.15-1.39,2.41-3,.3,8.19,5.81,9.31,11.26,10.17,3.48,.55,5.27,2.23,5.89,5.66,1.24,6.94,3.82,12.46,11.37,15.39,3.06,1.19,4.64,6.27,6.79,9.65,1.4,2.19,2.62,4.49,3.38,6.89,.33,1.57,.13,3.9,1.09,4.58,4.97,3.48,3.27,7.94,2.98,13.66-8-6.54-13.98,.37-20.95,.56,3.3-1.76,6.61-3.53,10.22-5.46-3.81-1.89-13.58-.15-14.26,2.78-.5,2.17,.8,6.32,2.48,7.11,4.28,2.03,9.22,2.67,13.6,3.79-.25,.2-.95,.78-2.12,1.75,3.72,2.62,7.15,5.05,10.81,7.63-3.28,1.69-6.5,4.83-8.82,4.27-5.47-1.32-8.12,2.81-11.97,4.55l-.86-1.34c2.05-1.46,4.01-3.04,6.16-4.34,2.19-1.32,4.56-2.36,6.5-3.34-7.07-12.01-19.88-10.64-29.88-16.41,3.73,.32,7.46,.64,12.41,1.07-.54-2.37-.57-6.81-1.82-7.18-3.64-1.08-8.49-1.93-11.56-.35-6.53,3.36-12.24,8.32-18.7,12.93-.73-1.6-1.28-2.79-2.09-4.58-5.01,2.97-10.24,5.47-14.72,8.95-2.52,1.95-3.48,5.8-5.74,8.23-1.53,1.64-4.11,2.29-6.22,3.39l-.81-1.56c2.89-2.21,5.77-4.42,8.66-6.63l-.32-.33c-4.07,1.86-8.36,5.63-12.15,5.19-8.95-1.05-16.48-5.94-22.56-15.06,9.39,6.34,16.17,17.67,28.89,9.12-1.66-1.89-2.99-3.41-4.33-4.93l.62-1.21c2.63,.7,5.26,1.41,7.89,2.11l1.17,1.21c1.28-2.87,2.55-5.73,4.01-9.01,2.37,4.46,5.23,3.18,8.55,1.23,7.58-4.45,15.39-8.5,22.97-12.94,2.31-1.35,4.17-3.46,6.24-5.23l-1.1-1.78c-1.86,.97-3.73,1.93-5.81,3.01v-3.14c-3.35,.48-6.88-1.24-9.24,3-.48,.86-4.19-.07-6.68-.19-1.52,2.75-3.11,5.01-7.99,3.81-5.91-1.46-12.25-1.16-18.94-1.67v-7.15h.73v.02h0Z" fill="#41463d"/><path d="M60.35,107.42l-2.9,5.18c3.54,2.84,8.06,4.72,9.18,7.83,1.18,3.27-.85,7.72-1.54,11.64-.5,2.86-1.09,5.7-1.69,8.82-5.07-2.29-10.31-4.66-15.54-7.03l-.81,1.44c1.58,1.41,3.15,2.81,5.04,4.49l-2.84,1.44c3.65,4.88,13.57,3.2,12.82,12.8l2-3.95v16.54c-5.71-2.79-11.31-4.91-16.2-8.11-4.17-2.73-2.48-7.57-2.33-11.76,.13-3.58-.26-7.19-1.1-10.76-2.98,3.75,2.74,9.15-4.18,12.48v-4.38l.65,.09c-.59-2.25-1.61-4.48-1.7-6.75-.28-7.28-.15-14.58-.31-21.86-.14-6.09,4.89-7.91,9.24-11.82,1.03,3.58,3.16,6.85,2.38,9.14-1.78,5.23-6.07-1.48-9.6,1.76,0,3.89-.27,8.64,.15,13.33,.14,1.58,2.04,3,3.14,4.5l1.35-.44v-15.13c2.43,1.35,4,2.35,5.67,3.1,.97,.44,2.63,1.01,3.06,.59,.82-.81,1.43-2.32,1.35-3.48-.25-3.66-.86-7.3-1.52-12.42,3.22,1.41,4.88,2.14,6.23,2.74v-.02h0Zm1.02,19.14l-1.45-1c-.84,.79-1.67,1.57-2.39,2.24l-1.8-2.29-.92,.35,.99,7.17,1.92,.51,3.66-7v.02h-.01Z" fill="#41463d"/><path d="M121.96,144.7c-3.88,.53-6.21,2.31-5.77,6.66,.19,1.89,.03,3.81,.03,5.72l-1.51,.11c-.35-3.73-.71-7.46-1.06-11.19l-.54-.03c-.26,4.42-.52,8.84-.78,13.24-6.97-.42-13.61-4.32-13.63-7.8-.1-16.6,.02-16.91,7.28-17.48-.98,1.35-1.8,2.49-2.92,4.03h2.42c1.47,1.82,2.54,3.4,3.93,4.6,.22,.19,2.36-1.07,2.75-2.02,.4-.96,0-3.29-.49-3.43-4.37-1.26-2.92-4.46-2.87-7.51,1.02-.17,2.04-.17,2.9-.55,.8-.35,1.97-1.06,2-1.66,.04-.72-.79-1.84-1.53-2.2-4.4-2.15-8.88-4.11-13.32-6.16-7.8-3.6-15.5-7.46-23.43-10.75-4.16-1.72-4.74-4.69-4.59-8.6,1.28,.76,2.48,1.48,3.69,2.19l-.89,.76c1.16,1.5,2.01,3.69,3.54,4.4,7.17,3.29,14.6,6.02,21.8,9.26,5.31,2.39,10.41,5.25,15.59,7.91,.44,.23,1.21,.51,1.22,.79,.25,7.08,8.46,9,9.89,15-1.39,1.76-2.63,3.33-3.86,4.9l.16-.16v-.03h-.01Z" fill="#41463d"/><path d="M88.02,140.56c-1.4,2.44-2.81,4.87-4.45,7.72-2.85-1.18-6.06-2.39-9.13-3.87-.86-.41-1.83-1.6-1.89-2.5-.68-9.53-1.19-19.07-1.76-28.84,3.51-1.15,5.39,.88,6.16,3.74,1.47,5.42,6.29,7.44,9.93,10.72,1.98,1.78,3.46,4.1,5.37,5.97,.97,.94,2.41,1.41,3.89,2.23-.2,4.02-.41,8.3-.54,10.91-.43-1.66-1.26-4.85-2.08-8.03-1.88,.69-3.75,1.39-5.63,2.08,.02-2.66,3.09-5.74-1.39-8.35l-.51,5.02c-1.53-.09-2.83-.16-4.14-.23l-.29,1.33c2.15,.7,4.31,1.4,6.46,2.1h0Z" fill="#41463d"/><path d="M116.26,190.79c-2.11-1.2-4.07-2.33-6.05-3.42-2.91-1.62-5.91-3.1-8.72-4.88-1.1-.7-2.5-2.02-2.55-3.11-.26-5.4-.12-10.83-.12-17.51,6.46,2.7,11.82,4.94,17.44,7.29v21.63Z" fill="#41463d"/><path d="M78.24,303.03c-3.63,2.28-7.26,4.56-10.78,6.77-.57-.46-2.34-2.66-3.07-2.35-1.95,.81-3.68,2.53-4.97,4.27-.33,.45,1.3,2.31,1.98,3.55,.51,.92,1.36,1.89,1.34,2.81-.1,3.44-.49,6.88-.66,8.95-2.61,.36-5.1,.09-6.86,1.1-1.94,1.11-3.21,3.39-4.78,5.16-.57-.34-1.14-.67-1.71-1.01,.71-2.59,.64-5.97,2.3-7.6,3.53-3.47,4.12-7.07,3.24-11.55-.44-2.22,.3-3.66,2.58-5.46,3.52-2.78,8.66-5.29,7.85-11.62,6.05-.28,9.39,4.07,13.4,7.12l.14-.14h0Z" fill="#41463d"/><path d="M72.56,149.64c5.26,3.9,12.26,3.7,11.68,11.75,1.53-.3,2.68-.53,4.45-.87,0,4.8,.17,9.26-.07,13.7-.13,2.41-1.18,3.14-4,1.97-15.33-6.33-11.57-4.81-12.04-18.85-.07-2.1,0-4.21,0-7.7h-.02Z" fill="#41463d"/><path d="M20.39,225.82l1.89,3.77,1.12-.15v-10.5c-2.93,1.8-4.8,2.96-6.67,4.11l-.6-.92c1.65-1.36,3.27-2.74,4.95-4.07,1.58-1.25,3.21-2.44,4.66-3.54,2.41,2.11,4.54,3.97,7.24,6.34-2.05,.27-3.51,.47-5.79,.77v27.4l-1.02,.93c-3.98-9.33-9.85,1.07-14.51-1.92,3.3-1.75,6.74-2.89,9.28-5.08,4.24-3.66,3.75-8.47-.55-12.17-1.65-1.42-1.65-3.07,0-4.96h0Z" fill="#41463d"/><path d="M34.5,134.33l-8.29-.57,3.34,6.11-.52,.02,2.59,7.8-10.23-4.18,3.99-4.43v-22.35c4.39,5.26,.76,14.12,9.84,16.54l-.71,1.06h-.01Z" fill="#41463d"/><path d="M55.62,20.48c-1.79,.88-3.55,1.81-5.37,2.63-1.14,.51-2.37,1.21-3.55,1.19-4.61-.07-9.24-.17-13.82-.68-4.27-.47-8.47-1.48-12.7-3.09,1.52-.19,3.05-.55,4.57-.54,4.1,.03,8.23,1.17,12.22-1.04,.77-.43,2.3,.69,3.51,.84,3.07,.38,6.73,1.76,9.08,.58,2.58-1.29,4.08-.52,6.1,.15,.02,.02-.05-.04-.05-.04h.01Z" fill="#41463d"/><path d="M67.8,10.88l9.07-1.93,5.38,6.36h-13.68l-.77-4.44h0Z" fill="#41463d"/><path d="M67.48,104.3c-3.82-1.78-7.65-3.57-11.4-5.31l1.42-7.12,.59-.1,.6,5.05c1.65-.38,2.99-.69,3.5-.8,1.03,1.76,1.63,3.32,2.7,4.44,.96,1,2.44,1.51,3.7,2.24l-1.1,1.61h0Z" fill="#41463d"/><path d="M122.01,283.46c-1.31-2.3-2.84-4.43-3.74-6.8-.49-1.32,.09-3.04,.19-4.57,1.16,.12,2.91-.18,3.37,.45,.97,1.35,1.72,3.18,1.74,4.81,.02,1.82-.88,3.65-1.56,6.11Z" fill="#41463d"/><path d="M263.65,296.89c-6.59,2.86-11.09,2.63-14.41-1.32h14.42v1.32h-.01Z" fill="#41463d"/><path d="M24.53,165.07c-2.79-8.25-1.54-10.19,8.11-12.9-4.94,2.86-8.5,6.61-8.11,12.9Z" fill="#41463d"/><path d="M5.84,291.07c-2.28-.89-4.05-1.57-5.84-2.27l.71-5.21c2.45,1.92,7.2,1.88,5.13,7.48h0Z" fill="#41463d"/><path d="M16.83,265.51c3.43-3.01,7.68-2.36,12.74,1.95-4.1-1.45-7.81-5.43-12.74-1.95Z" fill="#41463d"/><path d="M23.73,205.77v-13.01l1.6,.03v13.16l-1.6-.18h0Z" fill="#41463d"/><path d="M81.16,330.45c3.34-1.93,6.68-3.85,10.02-5.78,.37,.68,.74,1.36,1.11,2.05-3.45,1.72-6.89,3.44-10.34,5.16l-.79-1.43Z" fill="#41463d"/><path d="M230.63,78.08c2.56,7.2,2.39,7.74-2.68,10.6,.79-3.14,1.73-6.84,2.68-10.6Z" fill="#41463d"/></g></g></g></g></svg>