<?xml version="1.0" encoding="UTF-8"?><svg id="b" xmlns="http://www.w3.org/2000/svg" viewBox="0 0 168.5 306.36"><g id="c"><g id="d"><g id="e"><g><path d="M61.3,298.47c.37-2.72,1.01-5.43,1.06-8.15,.14-7.61,.15-15.23-.05-22.83-.05-1.8-1.06-3.58-1.42-4.71,.84-1.84,2.33-3.59,2.32-5.32-.11-12.29-.45-24.58-.9-36.86-.13-3.44-1.16-6.86-1.2-10.28-.03-3.27,1-6.54,1.07-9.82,.25-10.8,.4-21.61,.32-32.41-.03-3.53-1.25-7.04-1.3-10.58-.15-10.61-.18-21.23,.21-31.84,.11-2.98,1.67-5.83-3.1-7.56,1.71-.73,2.65-1.14,3.39-1.46,.4-12.42,1.33-24.72-.49-37.22l-3.29,1.38-.81-.66c1.25-2.43,2.49-4.84,3.89-7.57-.97,.18-1.86,.35-1.76,.33-.47-2.15-.42-4.58-1.49-6.32-2.7-4.37-1-9.06,3.93-9.72-2.78-11.07,1.89-21.73,1.8-32.65-.02-1.96,.1-3.93,0-5.89-.11-2.61,.36-4.37,3.25-5.67,2.56-1.14,4.47-3.75,6.09-5.19,3.8,2.79,7.37,5.62,11.13,8.15,9.66,6.48,15.27,15.79,19.01,26.49,.66,1.89,.65,4.84,4.13,3.84,.46,1.95,1.44,3.94,1.28,5.84-.53,6.42-1.57,12.8-2.19,19.21-.39,4.07-.48,8.2-.55,12.3-.02,1.09,.49,2.19,.76,3.28,1.1-.49,2.2-.99,3.28-1.47,6.15,2.98,7.17,7.29,5.55,14.49-1.76,7.78-.39,16.27-.39,24.51,2.05,.4,3.51,.69,4.94,.97,1.47,3.66,1.43,6.72-2.3,9.07-.73,.46-.98,2.09-1.01,3.19-.18,8.97-.47,17.95-.2,26.9,.06,2.12,1.68,4.58,3.29,6.18,2.17,2.16,2.91,4.56,.63,6.2-4.42,3.19-3.72,7.69-3.85,11.89-.27,8.52-.44,17.07,.1,25.57,.24,3.77,2.42,7.39,3.43,11.15,.39,1.48,.65,3.68-.14,4.67-2.44,3.03-1.07,4.36,1.63,5.81,12.76,6.89,25.5,13.84,38.21,20.81,2.75,1.51,5.38,3.25,8.9,5.39-6.16,3.42-11.56,6.54-17.07,9.43-11.24,5.89-22.3,12.19-33.9,17.27-6.94,3.04-14.73,4.18-22.19,6.01-3.22,.79-6.62,.88-9.8,1.79-2.4,.69-4.4,1.45-6.49-.7-.43-.44-2.52-.12-2.99,.5-3.51,4.59-8.74,3.66-13.42,4.35-.31,.05-.85-1.38-1.28-2.12l-.05,.05v-.03h0Zm41.32-53.25c-2.83,1.62-4.17,2.7-5.69,3.2-5.92,1.95-9.58,4.69-8.44,12.15,1.03,6.75,.22,13.78,.22,21.62,4.34-1.87,7.46-2.95,10.31-4.53,1.46-.81,3.4-2.48,3.44-3.82,.3-9.21,.16-18.43,.16-28.62h0Zm-10.26-67.88l.96,.08v-27.17l-.96-.02v27.1Zm13.85,38.3h.59v-21.63h-.59v21.63Zm-32.23,54.3l-1.74-.07v14.44c.51-4.23,1.13-9.3,1.74-14.37Zm19.29-157.08l-.7-.1v18.95h.7v-18.84Z" fill="#41463d"/><path d="M61.35,298.42c-2.99-.93-6.09-1.61-8.94-2.87-3.29-1.44-6.39-3.31-9.48-5.15-1.07-.64-1.81-1.8-2.79-2.62-1.64-1.36-3.53-2.44-4.97-3.96-1.28-1.36-2.11-3.14-3.04-4.6-3.61-.38-7.72-.56-11.7-1.36-1.07-.22-1.76-2.32-1.88-2.49-6.68-2.77-12.62-5.21-18.55-7.66l.69-1.68c3.03,1.36,6.05,2.73,9.33,4.2l.7-8.82-.91-.39-2.09,2.21v-24.68c3.3,1.36,6.01,2.47,8.73,3.59l-.64,1.6-6.73-2.66-.58,.63c.68,.74,1.24,1.96,2.04,2.15,6.9,1.65,8.96,6.3,8.61,12.79v-8.47c2.1,1.46,3.45,2.4,4.81,3.34-2.43-.56-3.12,.33-3.07,2.84,.16,6.51-.08,13.02,0,19.53,.02,1.03,.98,2.04,1.5,3.06,.86-1.03,2.39-2.01,2.46-3.09,.29-4.38,.27-8.79,.08-13.18-.14-3.1-.74-6.19-1.14-9.28,3.12,1.03,6.24,2.05,9.5,3.12,.82-2.38,1.65-4.75,2.55-7.39,2.15,1.03,4.1,1.81,5.91,2.86,3.46,2.01,3.42,3.31,.5,6.08-.81,.78-1.2,2.37-1.21,3.59-.02,8.03-.21,16.09,.45,24.06,.17,2.05,2.96,4.24,5.01,5.72,4.33,3.13,8.96,5.84,13.48,8.7,.36,.22,.84,.24,1.29,.33,.03-.02,.07-.07,.07-.07v.02h0Z" fill="#41463d"/><path d="M18.59,158.33c.68,7.65,1.34,15.3-.15,22.99-1.42-2.33-2.61-4.28-4.08-6.68l-2.44,3.73c0-11.15,.25-22.07-.17-32.96-.1-2.66-2.38-5.23-3.66-7.84l-1.47,.47-1.39,3.55-2.77-7.1c4.88,1.6,9.38,2.6,13.41,4.54,3.81,1.83,7.05,4.82,10.72,6.98,1.96,1.15,4.35,1.56,6.45,2.53,.46,.21,.49,1.36,.81,2.41l2.12-.8,1.56,15.69h0c-4.24,2.27-4.79-1.99-6.73-3.84l-2.08,1.5c-.39-.55-.85-.9-.87-1.25-.09-3.17,.16-6.38-.26-9.5-.24-1.79-1.2-3.72-2.42-5.05-.96-1.05-2.81-1.28-4.27-1.89-.55,1.41-1.38,2.78-1.6,4.25-.42,2.74-.49,5.53-.71,8.3-4.22,.84-1.99-4.93-5.11-5.32v9.48c2.16-1.78,3.63-2.99,5.1-4.19h0Z" fill="#41463d"/><path d="M11.44,186.32c3.58,2.11,6.76,3.96,9.96,5.84-.79,1.03-1.81,1.75-1.87,2.54-.31,4.36-.39,8.73-.51,13.09-.03,.9-.14,1.93,.25,2.67,2.13,4.15,1.79,8.14-.81,12.33h-3.62l.75,2.37c-.24,.06-.54,.26-.71,.17-2.94-1.46-3.67-3.57-2.05-6.53,.32-.59,.11-1.48,.11-2.23,0-8.32,.06-16.64-.05-24.96-.02-1.43-.75-2.84-1.45-5.31h0Z" fill="#41463d"/><path d="M47.9,205.21c-.03,4.15,1.54,5.18,5.81,3.78v31.16c-6.78-.38-9.19-3.2-8.58-10.27,.27-3.22-.61-6.63,.08-9.72,.86-3.86-.3-7.37-.31-11.03,0-1.3,1.95-2.62,3.01-3.93h0Zm.76,29.63h1.25v-14.12h-1.25v14.12Z" fill="#41463d"/><path d="M29.52,220.54v-26.22c2.25,1.31,4.77,2.77,6.49,3.76v31.59c-2.96-1.16-4.94-1.95-7.46-2.94l1.71-5.92-.74-.27h0Z" fill="#41463d"/><path d="M46.24,260.09c3.94,1.67,7.22,3.05,10.53,4.44-4.59,7.55-.64,15.73-2.42,23.23-2.35-.85-4.83-1.74-8.1-2.92v-24.76h0Z" fill="#41463d"/><path d="M54.68,147.1c-5.34-3.83-9.5-6.9-9.07-13.28,.23-3.31-.16-6.68,0-10,.08-1.65,.81-3.26,1.25-4.88,1.41,.87,2.78,1.82,4.25,2.58,2.04,1.06,4.16,1.98,6.35,3.01-.36,1.33-3.75,.84-10.15-1.44,.73,1.35,.99,2.58,1.57,2.76,4.9,1.49,6.12,4.98,5.83,9.62-.21,3.45-.05,6.93-.05,11.61h.02Z" fill="#41463d"/><path d="M57.39,96.3c-.33-1.98-.77-4.61-1.2-7.23l-1.57,.12c0,3.14,.16,6.29-.05,9.42-.21,3.12-.79,6.22-1.32,10.25l-7.22-3.87c.37-3.87,.53-7.11,1.01-10.3,.44-2.99,1.21-5.92,1.39-9.35l-3.41,5.34,1.26-5.7c8.58-.98,11.53,2.27,11.1,11.33h0Z" fill="#41463d"/><path d="M39.2,99.72c-7.31-2.27-8.29-3.48-8.31-9.81-.02-4.21,0-8.43,0-12.67,6.06,.64,8.24,2.86,8.31,8.41,.05,4.62,0,9.26,0,14.07h0Z" fill="#41463d"/><path d="M31.2,110.78c3.11,1.67,4.96,2.66,6.01,3.21,0,4.91-.06,9.26,.03,13.61,.05,2.11,.7,4.24,.52,6.31-.13,1.49-1.17,2.9-1.8,4.34-1.96-1.61-5.52-3.15-5.59-4.83-.29-7.26,.45-14.57,.84-22.64Z" fill="#41463d"/><path d="M37.52,165.84c-.11,1.74-.27,3.48-.31,5.23-.11,4.2-.17,8.41-.24,12.6-.03,1.68,0,3.35,0,5.95-1.3-1.13-1.76-1.85-2.33-1.96-7.35-1.42-6.39-7.17-6.47-12.34-.05-3.23,0-6.46,0-9.01,2.62,1.28,4.86,2.39,7.3,3.59,.85-1.68,1.47-2.87,2.08-4.06h-.02Z" fill="#41463d"/><path d="M13.62,114.94l-1.62-7.44c2.15-.38,3.69-.64,5.24-.91l.33-1c-1.69-.93-3.39-1.87-5.09-2.8l.43-1c2.53,1.27,5.06,2.55,7.59,3.82l-1.46,.37,.94,14.19-.81-2.16-1.12,.05c.24,3.41,.57,6.8,.67,10.21,.05,1.48-.38,2.98-.69,5.11-5.07-6.52-8.6-12.25-4.43-18.44h0Z" fill="#41463d"/><path d="M46.31,174.22c2.6,1.31,4.94,2.33,7.08,3.64,.68,.42,1.28,1.69,1.2,2.5-.49,4.51-1.26,8.99-1.8,13.5-.08,.69,.54,1.47,1.07,2.79-2.69-.71-4.73-1.26-7.55-2.01v-20.43Z" fill="#41463d"/><path d="M56.14,164.94c-.26,3.29-.5,6.58-.81,10.59-3.34-1.46-7.24-2.01-8.96-4.23-1.74-2.25-2.39-6.47-1.6-9.29,1.47-5.27-1.4-6.56-5.08-7.94-.61-.23-1.1-.81-1.98-1.47,2-.36,3.49-.62,4.87-.88,2.23,2.94,4.4,5.81,6.57,8.66l-.9,.7c2.67,1.34,5.35,2.66,8.02,4l-.13-.13Z" fill="#41463d"/><path d="M18.53,70.36c.86,1.21,2.39,2.39,2.45,3.64,.27,5.25,.12,10.51,.12,15.78l-1.25,.71c-.91-1.21-2.53-2.38-2.6-3.64-.29-5.2-.13-10.43-.13-15.65l1.4-.84h0Z" fill="#41463d"/><path d="M62.08,0c2.21,3.19,4.41,6.36,6.66,9.61h-12.94c-1.57-5.48,8.1-2.39,4.7-8.45l1.58-1.15Z" fill="#41463d"/><path d="M7.28,83.03c1.14-.5,2.44-1.61,3.37-1.36,1.02,.28,2.25,1.75,2.39,2.82,.39,3.05,.16,6.17,.43,9.25,.05,.61,1.19,1.13,1.41,2.45-2.44-1.09-4.87-2.18-7.37-3.29l3.03-8.21-2.97-.68-.3-1h0Z" fill="#41463d"/><path d="M1.73,257.74v-23.34l1.15-.04v23.38H1.73Z" fill="#41463d"/><path d="M54.37,11.89c-5.48,1.52-11.34,3.14-17.14,4.74,6.37-6.64,11.65-7.89,17.14-4.74Z" fill="#41463d"/><path d="M25.16,73.77c2.88,3.09,3.05,15.89,0,19.06v-19.06Z" fill="#41463d"/><path d="M77.26,306.04l-.58-3.75-.6-.02-.77,2.88-.88-.11c.44-1.52,.73-3.09,1.36-4.52,.4-.93,1.28-1.65,2.01-2.55,1.81,.74,3.6,1.47,5.63,2.31l-2.47,5.17-.76-4.57c-.3,0-.6,0-.91,0-.28,1.82-.58,3.64-.86,5.47l-1.19-.33h0Z" fill="#41463d"/><path d="M56.26,165.08c-2.03-2.18-4.06-4.36-6.09-6.54l.27-.45c2.5,1.21,4.99,2.41,7.49,3.62-.6,1.07-1.22,2.14-1.81,3.23l.13,.14h0Z" fill="#41463d"/></g></g></g></g></svg>