<?xml version="1.0" encoding="utf-8"?>
<!-- Generator: Adobe Illustrator 26.3.1, SVG Export Plug-In . SVG Version: 6.00 Build 0)  -->
<svg version="1.1" id="b" xmlns="http://www.w3.org/2000/svg" xmlns:xlink="http://www.w3.org/1999/xlink" x="0px" y="0px"
	 viewBox="0 0 168.5 306.4" style="enable-background:new 0 0 168.5 306.4;" xml:space="preserve">
<style type="text/css">
	.st0{fill:#E4D6A7;}
	.st1{fill:#41463D;}
</style>
<path class="st0" d="M0,267.7L10.2,58.1c1-21.6,15.5-40.2,36.2-46.5l22.3-2l39.6,42.2l9.1,236.8l-56.2,9.9L0,267.7z"/>
<g id="c">
	<g id="d">
		<g id="e">
			<g>
				<path class="st1" d="M61.3,298.5c0.4-2.7,1-5.4,1.1-8.1c0.1-7.6,0.2-15.2,0-22.8c0-1.8-1.1-3.6-1.4-4.7c0.8-1.8,2.3-3.6,2.3-5.3
					c-0.1-12.3-0.5-24.6-0.9-36.9c-0.1-3.4-1.2-6.9-1.2-10.3c0-3.3,1-6.5,1.1-9.8c0.2-10.8,0.4-21.6,0.3-32.4c0-3.5-1.2-7-1.3-10.6
					c-0.2-10.6-0.2-21.2,0.2-31.8c0.1-3,1.7-5.8-3.1-7.6c1.7-0.7,2.7-1.1,3.4-1.5c0.4-12.4,1.3-24.7-0.5-37.2l-3.3,1.4l-0.8-0.7
					c1.2-2.4,2.5-4.8,3.9-7.6c-1,0.2-1.9,0.3-1.8,0.3c-0.5-2.2-0.4-4.6-1.5-6.3c-2.7-4.4-1-9.1,3.9-9.7c-2.8-11.1,1.9-21.7,1.8-32.7
					c0-2,0.1-3.9,0-5.9c-0.1-2.6,0.4-4.4,3.2-5.7c2.6-1.1,4.5-3.8,6.1-5.2c3.8,2.8,7.4,5.6,11.1,8.1c9.7,6.5,15.3,15.8,19,26.5
					c0.7,1.9,0.7,4.8,4.1,3.8c0.5,2,1.4,3.9,1.3,5.8c-0.5,6.4-1.6,12.8-2.2,19.2c-0.4,4.1-0.5,8.2-0.6,12.3c0,1.1,0.5,2.2,0.8,3.3
					c1.1-0.5,2.2-1,3.3-1.5c6.2,3,7.2,7.3,5.6,14.5c-1.8,7.8-0.4,16.3-0.4,24.5c2.1,0.4,3.5,0.7,4.9,1c1.5,3.7,1.4,6.7-2.3,9.1
					c-0.7,0.5-1,2.1-1,3.2c-0.2,9-0.5,17.9-0.2,26.9c0.1,2.1,1.7,4.6,3.3,6.2c2.2,2.2,2.9,4.6,0.6,6.2c-4.4,3.2-3.7,7.7-3.8,11.9
					c-0.3,8.5-0.4,17.1,0.1,25.6c0.2,3.8,2.4,7.4,3.4,11.1c0.4,1.5,0.7,3.7-0.1,4.7c-2.4,3-1.1,4.4,1.6,5.8
					c12.8,6.9,25.5,13.8,38.2,20.8c2.8,1.5,5.4,3.2,8.9,5.4c-6.2,3.4-11.6,6.5-17.1,9.4c-11.2,5.9-22.3,12.2-33.9,17.3
					c-6.9,3-14.7,4.2-22.2,6c-3.2,0.8-6.6,0.9-9.8,1.8c-2.4,0.7-4.4,1.5-6.5-0.7c-0.4-0.4-2.5-0.1-3,0.5c-3.5,4.6-8.7,3.7-13.4,4.4
					C62.3,300.6,61.7,299.2,61.3,298.5L61.3,298.5L61.3,298.5L61.3,298.5L61.3,298.5z M102.6,245.2c-2.8,1.6-4.2,2.7-5.7,3.2
					c-5.9,1.9-9.6,4.7-8.4,12.2c1,6.8,0.2,13.8,0.2,21.6c4.3-1.9,7.5-3,10.3-4.5c1.5-0.8,3.4-2.5,3.4-3.8
					C102.8,264.6,102.6,255.4,102.6,245.2L102.6,245.2z M92.4,177.3l1,0.1v-27.2l-1,0V177.3L92.4,177.3z M106.2,215.6h0.6V194h-0.6
					V215.6z M74,269.9l-1.7-0.1v14.4C72.8,280.1,73.4,275,74,269.9z M93.3,112.9l-0.7-0.1v19h0.7V112.9L93.3,112.9z"/>
				<path class="st1" d="M61.3,298.4c-3-0.9-6.1-1.6-8.9-2.9c-3.3-1.4-6.4-3.3-9.5-5.1c-1.1-0.6-1.8-1.8-2.8-2.6
					c-1.6-1.4-3.5-2.4-5-4c-1.3-1.4-2.1-3.1-3-4.6c-3.6-0.4-7.7-0.6-11.7-1.4c-1.1-0.2-1.8-2.3-1.9-2.5c-6.7-2.8-12.6-5.2-18.5-7.7
					l0.7-1.7c3,1.4,6.1,2.7,9.3,4.2l0.7-8.8L9.8,261l-2.1,2.2v-24.7c3.3,1.4,6,2.5,8.7,3.6l-0.6,1.6l-6.7-2.7l-0.6,0.6
					c0.7,0.7,1.2,2,2,2.1c6.9,1.6,9,6.3,8.6,12.8v-8.5c2.1,1.5,3.5,2.4,4.8,3.3c-2.4-0.6-3.1,0.3-3.1,2.8c0.2,6.5-0.1,13,0,19.5
					c0,1,1,2,1.5,3.1c0.9-1,2.4-2,2.5-3.1c0.3-4.4,0.3-8.8,0.1-13.2c-0.1-3.1-0.7-6.2-1.1-9.3c3.1,1,6.2,2.1,9.5,3.1
					c0.8-2.4,1.7-4.8,2.5-7.4c2.2,1,4.1,1.8,5.9,2.9c3.5,2,3.4,3.3,0.5,6.1c-0.8,0.8-1.2,2.4-1.2,3.6c0,8-0.2,16.1,0.5,24.1
					c0.2,2,3,4.2,5,5.7c4.3,3.1,9,5.8,13.5,8.7C60.3,298.4,60.8,298.4,61.3,298.4C61.3,298.5,61.3,298.4,61.3,298.4L61.3,298.4
					L61.3,298.4L61.3,298.4z"/>
				<path class="st1" d="M18.6,158.3c0.7,7.6,1.3,15.3-0.1,23c-1.4-2.3-2.6-4.3-4.1-6.7l-2.4,3.7c0-11.1,0.2-22.1-0.2-33
					c-0.1-2.7-2.4-5.2-3.7-7.8L6.6,138l-1.4,3.6l-2.8-7.1c4.9,1.6,9.4,2.6,13.4,4.5c3.8,1.8,7.1,4.8,10.7,7c2,1.1,4.4,1.6,6.5,2.5
					c0.5,0.2,0.5,1.4,0.8,2.4l2.1-0.8l1.6,15.7l0,0c-4.2,2.3-4.8-2-6.7-3.8l-2.1,1.5c-0.4-0.6-0.9-0.9-0.9-1.2
					c-0.1-3.2,0.2-6.4-0.3-9.5c-0.2-1.8-1.2-3.7-2.4-5.1c-1-1.1-2.8-1.3-4.3-1.9c-0.5,1.4-1.4,2.8-1.6,4.2
					C18.9,152.8,18.8,155.6,18.6,158.3c-4.2,0.9-2-4.9-5.1-5.3v9.5C15.6,160.7,17.1,159.5,18.6,158.3L18.6,158.3L18.6,158.3z"/>
				<path class="st1" d="M11.4,186.3c3.6,2.1,6.8,4,10,5.8c-0.8,1-1.8,1.8-1.9,2.5c-0.3,4.4-0.4,8.7-0.5,13.1c0,0.9-0.1,1.9,0.2,2.7
					c2.1,4.1,1.8,8.1-0.8,12.3h-3.6l0.8,2.4c-0.2,0.1-0.5,0.3-0.7,0.2c-2.9-1.5-3.7-3.6-2.1-6.5c0.3-0.6,0.1-1.5,0.1-2.2
					c0-8.3,0.1-16.6-0.1-25C12.9,190.2,12.1,188.8,11.4,186.3L11.4,186.3L11.4,186.3z"/>
				<path class="st1" d="M47.9,205.2c0,4.1,1.5,5.2,5.8,3.8v31.2c-6.8-0.4-9.2-3.2-8.6-10.3c0.3-3.2-0.6-6.6,0.1-9.7
					c0.9-3.9-0.3-7.4-0.3-11C44.9,207.8,46.9,206.5,47.9,205.2L47.9,205.2L47.9,205.2z M48.7,234.8h1.2v-14.1h-1.2V234.8z"/>
				<path class="st1" d="M29.5,220.5v-26.2c2.2,1.3,4.8,2.8,6.5,3.8v31.6c-3-1.2-4.9-1.9-7.5-2.9l1.7-5.9L29.5,220.5L29.5,220.5
					L29.5,220.5z"/>
				<path class="st1" d="M46.2,260.1c3.9,1.7,7.2,3,10.5,4.4c-4.6,7.5-0.6,15.7-2.4,23.2c-2.3-0.9-4.8-1.7-8.1-2.9L46.2,260.1
					L46.2,260.1L46.2,260.1z"/>
				<path class="st1" d="M54.7,147.1c-5.3-3.8-9.5-6.9-9.1-13.3c0.2-3.3-0.2-6.7,0-10c0.1-1.7,0.8-3.3,1.2-4.9
					c1.4,0.9,2.8,1.8,4.2,2.6c2,1.1,4.2,2,6.3,3c-0.4,1.3-3.8,0.8-10.2-1.4c0.7,1.3,1,2.6,1.6,2.8c4.9,1.5,6.1,5,5.8,9.6
					C54.5,138.9,54.7,142.4,54.7,147.1L54.7,147.1L54.7,147.1z"/>
				<path class="st1" d="M57.4,96.3c-0.3-2-0.8-4.6-1.2-7.2l-1.6,0.1c0,3.1,0.2,6.3,0,9.4c-0.2,3.1-0.8,6.2-1.3,10.2L46,105
					c0.4-3.9,0.5-7.1,1-10.3c0.4-3,1.2-5.9,1.4-9.3L45,90.7l1.3-5.7C54.9,84,57.8,87.2,57.4,96.3L57.4,96.3L57.4,96.3z"/>
				<path class="st1" d="M39.2,99.7c-7.3-2.3-8.3-3.5-8.3-9.8c0-4.2,0-8.4,0-12.7c6.1,0.6,8.2,2.9,8.3,8.4
					C39.2,90.3,39.2,94.9,39.2,99.7C39.2,99.7,39.2,99.7,39.2,99.7z"/>
				<path class="st1" d="M31.2,110.8c3.1,1.7,5,2.7,6,3.2c0,4.9-0.1,9.3,0,13.6c0,2.1,0.7,4.2,0.5,6.3c-0.1,1.5-1.2,2.9-1.8,4.3
					c-2-1.6-5.5-3.1-5.6-4.8C30.1,126.2,30.8,118.8,31.2,110.8L31.2,110.8z"/>
				<path class="st1" d="M37.5,165.8c-0.1,1.7-0.3,3.5-0.3,5.2c-0.1,4.2-0.2,8.4-0.2,12.6c0,1.7,0,3.4,0,5.9c-1.3-1.1-1.8-1.9-2.3-2
					c-7.4-1.4-6.4-7.2-6.5-12.3c0-3.2,0-6.5,0-9c2.6,1.3,4.9,2.4,7.3,3.6C36.3,168.2,36.9,167,37.5,165.8L37.5,165.8L37.5,165.8z"/>
				<path class="st1" d="M13.6,114.9l-1.6-7.4c2.1-0.4,3.7-0.6,5.2-0.9l0.3-1c-1.7-0.9-3.4-1.9-5.1-2.8l0.4-1
					c2.5,1.3,5.1,2.6,7.6,3.8L19,106l0.9,14.2l-0.8-2.2l-1.1,0.1c0.2,3.4,0.6,6.8,0.7,10.2c0,1.5-0.4,3-0.7,5.1
					C13,126.9,9.4,121.1,13.6,114.9L13.6,114.9L13.6,114.9z"/>
				<path class="st1" d="M46.3,174.2c2.6,1.3,4.9,2.3,7.1,3.6c0.7,0.4,1.3,1.7,1.2,2.5c-0.5,4.5-1.3,9-1.8,13.5
					c-0.1,0.7,0.5,1.5,1.1,2.8c-2.7-0.7-4.7-1.3-7.5-2V174.2L46.3,174.2z"/>
				<path class="st1" d="M56.1,164.9c-0.3,3.3-0.5,6.6-0.8,10.6c-3.3-1.5-7.2-2-9-4.2c-1.7-2.2-2.4-6.5-1.6-9.3
					c1.5-5.3-1.4-6.6-5.1-7.9c-0.6-0.2-1.1-0.8-2-1.5c2-0.4,3.5-0.6,4.9-0.9c2.2,2.9,4.4,5.8,6.6,8.7l-0.9,0.7c2.7,1.3,5.3,2.7,8,4
					L56.1,164.9L56.1,164.9z"/>
				<path class="st1" d="M18.5,70.4c0.9,1.2,2.4,2.4,2.5,3.6c0.3,5.2,0.1,10.5,0.1,15.8l-1.2,0.7c-0.9-1.2-2.5-2.4-2.6-3.6
					c-0.3-5.2-0.1-10.4-0.1-15.7L18.5,70.4L18.5,70.4L18.5,70.4z"/>
				<path class="st1" d="M62.1,0c2.2,3.2,4.4,6.4,6.7,9.6H55.8c-1.6-5.5,8.1-2.4,4.7-8.4L62.1,0L62.1,0z"/>
				<path class="st1" d="M7.3,83c1.1-0.5,2.4-1.6,3.4-1.4c1,0.3,2.2,1.8,2.4,2.8c0.4,3.1,0.2,6.2,0.4,9.2c0.1,0.6,1.2,1.1,1.4,2.4
					c-2.4-1.1-4.9-2.2-7.4-3.3l3-8.2l-3-0.7L7.3,83L7.3,83L7.3,83z"/>
				<path class="st1" d="M1.7,257.7v-23.3l1.2,0v23.4H1.7z"/>
				<path class="st1" d="M54.4,11.9C48.9,13.4,43,15,37.2,16.6C43.6,10,48.9,8.7,54.4,11.9z"/>
				<path class="st1" d="M25.2,73.8c2.9,3.1,3,15.9,0,19.1V73.8z"/>
				<path class="st1" d="M77.3,306l-0.6-3.8l-0.6,0l-0.8,2.9l-0.9-0.1c0.4-1.5,0.7-3.1,1.4-4.5c0.4-0.9,1.3-1.6,2-2.5
					c1.8,0.7,3.6,1.5,5.6,2.3l-2.5,5.2l-0.8-4.6c-0.3,0-0.6,0-0.9,0c-0.3,1.8-0.6,3.6-0.9,5.5L77.3,306L77.3,306L77.3,306z"/>
				<path class="st1" d="M56.3,165.1c-2-2.2-4.1-4.4-6.1-6.5l0.3-0.4c2.5,1.2,5,2.4,7.5,3.6c-0.6,1.1-1.2,2.1-1.8,3.2L56.3,165.1
					L56.3,165.1L56.3,165.1z"/>
			</g>
		</g>
	</g>
</g>
</svg>
