<?xml version="1.0" encoding="utf-8"?>
<!-- Generator: Adobe Illustrator 26.3.1, SVG Export Plug-In . SVG Version: 6.00 Build 0)  -->
<svg version="1.1" id="b" xmlns="http://www.w3.org/2000/svg" xmlns:xlink="http://www.w3.org/1999/xlink" x="0px" y="0px"
	 viewBox="0 0 300.8 332.4" style="enable-background:new 0 0 300.8 332.4;" xml:space="preserve">
<style type="text/css">
	.st0{fill:#E4D6A7;}
	.st1{fill:#41463D;}
</style>
<polygon class="st0" points="100.1,3.1 36.4,32.6 39.5,60.1 13.8,74.5 0.2,248.4 173.3,332.4 254,293.7 244.5,112.7 105.1,66.8 "/>
<g id="c">
	<g id="d">
		<g id="e">
			<g>
				<path class="st1" d="M300.8,281.2c-5,2.8-9.3,5.5-13.9,7.9c-21,10.9-42,21.9-63.2,32.3c-5.7,2.8-12.4,3.6-18.8,5.1
					c-5.3,1.2-10.6,2.2-16,3.1c-5.2,1-10.5,1.8-15.6,2.7c0.3-7,0.8-13.3,0.9-19.6c0.1-24.4,0.2-48.9,0.2-73.3
					c0-27.6-0.2-55.3-0.1-82.9c0-3.2,1.6-6.3,2.2-9.5c0.4-2.2,0.1-4.4,0.1-7.4c2.1-1.2,4.7-2.7,7.3-4.2l0.6,1
					c-1.5,0.9-3.4,1.6-4.4,2.9c-1,1.4-1.2,3.4-1.8,5.1c1.5-0.1,3.1,0.2,4.4-0.4c3.6-1.6,7.1-3.4,11.4-5.6c0.3,5.1,0.6,9.4,0.9,13.7
					l1.3,0.1l0.7-13.4l0.6-0.2c0.3,1.1,0.6,2.3,0.9,3.4c-0.6-6.3,3.8-8,8.3-10.2c12.7-6.2,25.2-12.7,37.8-19.1c3.1-1.6,4-0.9,4,2.6
					c0,36.7,0.2,73.5,0.3,110.2c0,8.3-0.3,16.6,0.2,24.8c0.1,1.8,2.3,4.1,4.2,5.1c15,8.1,30.2,16,45.4,23.9
					C299,279.7,299.5,280.2,300.8,281.2L300.8,281.2L300.8,281.2z M224.3,285c4.7-2.4,8.4-4,11.7-6.1c1-0.6,1.6-2.7,1.6-4.1
					c-0.1-6.9-0.4-13.9-0.6-20.8c-0.1-2.7,0-5.4,0-8.6c-3.7,2-6.8,3.6-9.7,5.4c-1.2,0.8-2.8,2.4-2.8,3.7
					C224.2,264.2,224.3,274,224.3,285L224.3,285L224.3,285z"/>
				<path class="st1" d="M127.9,99.2c1.1,0.7,2.2,1.3,4.3,2.7c-4.5,3.6-8.4,6.9-12.5,9.9c-4.1,3-9.1,5.1-12.3,8.7
					c-2.6,3-5.4,6.7-6.7,10.3c-2.4,7,1.9,13,8.3,16.8c5.8,3.4,10.8,8.2,11,15.9c0.2,5.5,0,11,0,16.5l1.6,0.3l4-6.2
					c0.9,1,1.6,1.8,3,3.3c0.1-1.8,0.5-2.8,0.1-3.5c-4.3-8.1-4.2-7.9,3-13.1c1.8-1.3,2.7-4.2,3.2-6.6c0.8-3.1,1.3-5.5,4.9-2.2
					c-1.1,0.7-2.8,1.2-2.9,1.8c-0.1,1,0.9,2.2,1.3,3c2.2-1,3.8-2.1,5.6-2.4c0.6-0.1,2.1,1.6,2.3,2.6c0.4,2.2,0,4.5,0.1,6.7
					c0.2,4.6,0.6,9.2,0.9,13.8c-4.9,2.8-6.7,6.4-5.1,11.8c0.5,1.7,2.6,2.9,3.9,4.4c1.2,1.4,2.3,2.9,3.5,4.4l-1.6,1.1
					c-0.5-1.3-1.1-2.6-1.9-4.7c-0.7,1.4-1.3,2.3-1.5,3.2c-0.9,3.2-0.1,7.1-4.1,9.3c-0.9,0.5-0.3,3.5-0.4,5.8
					c-2.8,0.8-6.2,1.6-9.6,2.7c-0.5,0.1-1.1,1-1.1,1.5c0.5,5.2-2.2,8.9-5.5,12.6c1.4-0.9,2.9-1.7,4.8-2.9c0.2,4.1,0.4,7.7,0.6,12.2
					c-10.3-3.3-19.4-6.8-24.3-16.9l-1.6,0.9c0.3,2.3,0.6,4.6,0.8,7.1c-4.7-1.6-6.3-4.3-6-9.9c0.9-14.1,0.2-28.2,0.9-42.3
					c0.5-9.5,0.2-19.6,9-27c-1.8,0.5-3.5,1-4.9,1.3c-0.9-1.4-1.8-3-2.8-4.7c0.4-0.1,1.2-0.4,2.2-0.7c-1.6-7.6-7.8-5-12.9-5.7
					c0.8-1.6,1.4-2.8,2.5-4.8c-3,1.1-5.2,1.8-7,2.4c-0.2-1.7-0.3-3.4-0.8-5.1c-1.7-5.6-0.7-7,5.2-7.7c0.7-0.1,1.2-0.8,1.8-1.2
					c-3.3-1.8-0.6-6.1-3.3-9.3c-1.6,6.4-3.4,11.3-10,12c3.1-4.7,0.2-11.6,5.9-15.9c0.4,1.8,0.7,3,1.3,5.5c1.7-2.4,2.8-3.9,3.7-5.2
					c-4.4-1.1-8.2-1.9-12.5-2.9v14.1l-1.7,0.1c-0.2-3-0.7-6.1-0.4-9c0.4-4-0.6-6.5-4.5-8.3c-9-4.2-17.8-8.9-26.6-13.4
					c-2.9-1.5-7-2.2-4.6-8.1l-1.7,0.7l-1.3,2.8c-8.6-3.5-17.3-7-26.3-10.6c1.2-0.7,2.8-2.2,4.6-2.4c5.4-0.7,9.8-4,14.6-5.9
					c4-1.6,7.1-5.3,11-8.5c0,0,0.9,0.6,1.7,1.2c-0.7-9.1-1.4-18.2-2.1-27.8l-2.7-0.9c5.8-0.7,11.2-1.4,17.6-2.1
					c0,5.4-0.2,11.5,0.1,17.5c0.3,7.5,2.6,8.6,9.2,4.9c3-1.7,6.8,1.4,7,6.3c0.2,5.6-0.2,11.3-0.4,16.9c0,0.8,0,1.5,0,2.3l1.7,0.5
					c1-2.8,2.1-5.6,3.6-9.7c2.7,4.4,4.9,8.2,7.2,12.1l1.6-0.4c0.5-10.2,1-20.5,1.5-31H74.8l-0.3-1.2c2-0.4,4-1.2,5.9-1.1
					c4.5,0.1,5.9-2,5.6-6.2c-0.2-2.4,0-4.9,0-7.3l1.3-0.3c0.3,1.2,0.9,2.3,0.9,3.5c-0.3,10.2-0.7,20.4-1.1,30.6
					c-0.2,4.6-0.4,9-1.2,13.7c-1.4,7.7,0.9,16.1,2.8,24.1c0.3-2.9,0.5-5.7,0.8-8.6l1.8,0.1c0,6.3-0.1,12.6,0.1,18.9
					c0,1.7,0.7,3.4,1.1,5.1c1.6-0.6,3.2-1,4.6-1.9c8.6-5.3,17.3-10.5,25.6-16.2c1.8-1.2,6.3,0.9,5.3-4L127.9,99.2L127.9,99.2
					L127.9,99.2z M121.4,203.1c1.2-1.4,2.5-2.3,2.8-3.3c1.1-4.4,1.2-9.1,3.1-13.1c1.4-3,4.8-5,7.7-7.8c-6.3-2.3-10.2,4.6-15.4,4.7
					C120.2,189.9,120.7,196,121.4,203.1L121.4,203.1L121.4,203.1z M129.2,186.3c-0.5,2.1-1.6,4.1-1.1,5.2c1.8,3.8,1.5,7.2,0.1,10.9
					c-0.2,0.6,1.7,2.9,2.4,2.8c3-0.6,7.2-0.9,8.6-2.9c2.2-3.2,0.9-7.4-2.3-10.1C134.8,190.3,132.3,188.6,129.2,186.3L129.2,186.3
					L129.2,186.3z M96.4,129.4c-1.1,3.7-1.9,6.6-2.8,9.5C98.4,138.8,99.3,136,96.4,129.4z"/>
				<path class="st1" d="M106.4,293.7c-0.5-2.2-0.5-4.9-1.8-6.6c-2.3-3.1-4.8-2.4-6.3,1.3c-0.4,1-1,2-1.5,2.9
					c-0.5-0.2-0.9-0.3-1.4-0.5c1.4-3.6,2-8.1,4.5-10.5c3.5-3.4,1.9-5.5-0.2-9.7c-0.6,2.2-0.8,3.1-1.2,4c-1.2,3.1-2.4,6.2-3.9,9.2
					c-0.2,0.4-2.2,0-3.4-0.1c0.2-1,0.2-2.1,0.7-2.8c0.4-0.6,1.4-0.7,2.2-1c-0.3-0.7-0.5-1.4-0.8-2.1c-2.3-0.1-4.6-0.2-7.4-0.4
					c1,2.5,1.5,3.9,2.2,5.6c-3.1-0.7-5.3-1.1-7.4-1.7c-1.5-0.4-3-1.1-4.5-1.6c1.4-1.5,2.5-3.8,4.1-4.2c3.2-0.7,6.6-0.2,9.9-0.2
					c0.1-0.6,0.2-1.1,0.3-1.7c-3.1-0.8-6.3-1.3-9.3-2.3c-1.4-0.5-2.7-1.6-3.6-2.8c-0.2-0.2,1.2-2,2-2.8c1-1.1,2.2-2.1,3.3-3.2
					c-1.8,0.1-3.6,0.2-5.3,0.3c-0.3,0-0.6,0.1-1,0.1c-1.2-1-2.3-2.1-4.2-3.8c0.1,5.3-0.3,8.1-6.5,7.1c-4-0.6-8.5,2.6-12.8,4
					c-2.4,0.8-4.6,4.2-7.8,1.1c1.5-2.8,5.1-5.3,0.3-8.4c1.5-1.6,5.4-2.3,1.8-5.7c-0.9-0.8,0.7-3.9,0.6-5.9c-0.4-10.4-1-20.7-1.5-32
					c3.7,1.6,6.8,2.8,9.7,4.2c2.9,1.4,5.5,3.4,8.5,4.7c5.2,2.3,10,4.8,9.5,12.9c2.1-2.4,3.2-3.7,3.7-4.3
					c11.7,2.9,22.1,8.3,33.5,13.4c-2.6,2.4-4.7,4.3-6.8,6.2c0.1,0.5,0.2,1,0.4,1.4c3.3-0.8,6.6-1.3,9.8-2.5c5.1-1.9,8.9-1,13.6,4.7
					h-7l-0.9,1c1,0.8,1.9,1.8,3,2.4c1.3,0.7,3.1,0.8,3.9,1.8c0.4,0.5-0.8,2.4-0.8,2.6c0.9,3,1.8,5.2,2.2,7.6
					c0.9,5.4-0.9,10.9,2.7,16.2c1.7,2.6,0.6,7.1,0.7,10.8c0.1,2.5,0,4.9-0.8,7.8c-0.7-1.6-1.7-3.1-2.1-4.7
					c-0.7-3.3-0.8-6.7-1.5-10.1c-0.2-0.8-1.5-1.3-2.2-2c-0.5,1-1.5,2.1-1.4,3.1c0.2,2.5,0.8,4.9,1.2,7.5h-1.8c0.3-6.6-5.2-7-9.4-8.4
					c-2.7-0.9-3.1-2.2-3-4.8c0.2-6.1,0.1-12.3,0.1-18.4c0-1.5-0.3-3-0.5-4.6l-1.5-0.1c-0.2,1.1-0.6,2.1-0.6,3.2
					c0,6.3,0.2,12.6,0.1,18.9c0,1.2-1.6,2.5-2.4,3.7L106.4,293.7L106.4,293.7L106.4,293.7L106.4,293.7z M66.2,252.4
					c-4-0.8-7-0.6-8.6-2c-1.5-1.3-1.6-4.2-2.8-7.7c-0.5,3.5-1,5.5-1,7.5c-0.1,2.2,0.2,4.5,0.3,6.8c1.8-0.5,3.5-1,5.3-1.3
					c0.8-0.2,1.8,0.3,2.4-0.1C63.1,254.9,64.3,253.8,66.2,252.4L66.2,252.4L66.2,252.4z M56.5,260c0,1,0,2-0.1,2.9h14
					c-1.5-2-2.4-4.6-3.7-4.7c-1.5-0.1-3.1,1.8-4.2,2.5C60.3,260.4,58.4,260.2,56.5,260L56.5,260L56.5,260z M103.7,265.5l1.3-1
					c-1.3-1.4-3.2-4.3-3.8-4c-2.1,1-5.9,0.7-6,4.1C98.6,264.9,101.1,265.2,103.7,265.5L103.7,265.5L103.7,265.5z"/>
				<path class="st1" d="M80.7,205.4c0.3,3.6,0.6,7.2,1,11c-3.7-2.1-7-5.3-10.6-5.6c-8.2-0.7-12.1-7.9-18.6-10.7
					c-4.5-1.9-5.2-4.4-3.7-8.8c-1.2,1.9-2.3,3.8-3.6,5.9c-1.5-3.8-0.6-6.7,2-9.3c0.8-0.8,1.3-3.1,0.7-4.1
					c-4.1-7.2-2.2-14.9-2.5-22.5c-0.5-12.3-0.6-24.5-0.9-36.8c0-1.8,0.2-3.5,1.2-5.4c0.1,1.3,0.3,2.7,0.4,4
					c0.5,6.4,0.7,12.8,1.5,19.2c0.1,1.1,1.9,2.3,3.2,2.9c1.9,0.8,4.3,0.7,6,1.8c6.3,4,6.8,7.3,3.1,13.5c1.9,6.3,3.6,12.1,5.3,17.8
					l-1.4,1c2.4-0.1,4.8-0.2,6.6-0.4c1.7,5.9,3.4,11.8,5.1,17.6l1.9-0.1c0.5-2.3,0.9-4.7,1.5-7.6c1.6,1.1,3,2.1,5.8,4.1
					c-1.9,0.5-3.3,0.8-4,1c0.5,1.4,0.5,1.6,0.6,1.7c9.7,6.7,1.9,16,4.3,23.8l-1.5,0.2c-0.3-4.8-0.6-9.7-0.9-14.5
					C82.2,205.2,81.5,205.3,80.7,205.4L80.7,205.4L80.7,205.4L80.7,205.4z"/>
				<path class="st1" d="M92.4,35.1c-0.7,0.9-1.3,1.8-2,2.7L89.3,37c0.7-1,1.2-2.2,2-3.1c0.9-1,2.8-1.9,2.8-2.9
					c0.2-8.5,0.1-17.1,0.1-25.7h-6.5c3-1.1,5.2-2,7.5-2.9L92.9,0c2.4,1,5,1.7,7.2,3.1c1.3,0.8,2.7,2.5,2.8,3.9
					c0.4,9.3,0.3,18.6,0.7,27.9c0.2,4,1.2,8,1.8,11.9l-1.5,0.3c-0.3-1.2-0.3-2.8-1-3.6c-0.9-1.1-2.4-1.8-3.8-2.2
					c-0.5-0.2-1.4,1-2.1,1.6c1,0.6,2.3,1,3,1.8c0.9,1.2,1.8,2.7,1.9,4.1c0.4,6.2-0.6,12.5,3.3,18.1c0.4,0.6-0.3,2-0.8,3
					c-1.6,3.5,0.7,10.8,2.7,13.7c1.7,2.5,1.5,6.3,2.1,9.5l-1.9,0.4c-0.8-2.3-1.5-4.7-2.3-7l-1.6,0.3c-0.7,6.9-1.7,13.8,3.6,20.1
					c2-0.9,3.9-1.7,7-3.1c-3.6,4.5-6.5,7.1-11.2,8.1c-3.1,0.7-5.8,3.4-9.3,5.6V35.4L92.4,35.1L92.4,35.1L92.4,35.1z"/>
				<path class="st1" d="M30.8,163.4c-3.4-1-6.9-1.7-10.1-3.2c-0.9-0.4-1-3.1-1.1-4.8c-0.1-3.7-0.4-7.2-3.5-10.2v12.2
					c-5-4.7-1.2-9-1.8-12.9c-0.1-0.4,2.3-1,4.8-2.1v-22.7l1.5-0.5c0.7,7.5,7.5,5.7,11.4,8.3c1.7,1.1,3.7,1.7,4.5,2
					c-0.8,3.3-1.7,5.6-1.7,7.9c-0.2,7.2-0.1,14.5-0.1,22c-2.9-0.2-5.1-0.4-7.3-0.6l-0.3,1l4.1,2.5L30.8,163.4L30.8,163.4L30.8,163.4
					z"/>
				<path class="st1" d="M152.9,229.5c10.8,3.3,10.6,11.9,10.6,20.4c0,4.7-2.3,6.3-6.6,4.5c-4.2-1.8-8.2-4.1-12.1-6.6
					c-1.3-0.8-2.2-3-2.3-4.6c-0.2-7.1-0.1-14.2-0.1-21.4c7.2,2.4,13.8,4.5,20.2,6.8c0.8,0.3,1,2.2,1.8,4.1c-4-1.6-7.2-2.9-10.4-4.2
					L152.9,229.5L152.9,229.5L152.9,229.5z"/>
				<path class="st1" d="M17.5,207.5c5.9,2.4,11.8,4.8,17.6,7.3c0.6,0.3,1.2,1.3,1.2,1.9c0.1,10.2,0,20.4-0.4,31.2
					c-1.1-8.5-7.4-6.6-12.8-7.2c-0.2,2.8-0.5,5.6-0.7,8.5H21c-0.2-2-0.5-4-0.5-5.9c-0.1-9.9,0.1-19.9-0.2-29.8
					C20.2,211.4,18.5,209.4,17.5,207.5L17.5,207.5L17.5,207.5L17.5,207.5L17.5,207.5z"/>
				<path class="st1" d="M142.8,276v9l-1.2,0v-19.4c5.7,3.2,11.6,6.5,17.3,10c1,0.6,1.8,2.6,1.8,4c-0.1,4-0.6,7.9-1.2,11.8
					c-0.3,1.9-1.1,3.7-2,6.5c0.4,0.5,1.6,2.2,2.8,3.8l-1.1,1.3c-4.4-2.6-9-5-13.3-7.9c-1-0.7-1.6-2.6-1.6-3.9
					c0.1-3.9,0.8-7.8,0.9-11.7c0-1.2-0.8-2.5-1.3-3.8L142.8,276L142.8,276L142.8,276z"/>
				<path class="st1" d="M22.9,193.3c-2.6,0-4.6-0.2-2.6-3.6c0.4-0.7,0-1.9-0.1-4.2c-3,3.8-5.2,6.5-7.4,9.2l-1.9-1.5
					c2.3-2.7,4.1-5.9,6.9-7.8c2.3-1.6,2.4-2.9,2.2-5.2c-0.3-5.1-0.1-10.1-0.1-15.5c4.3,2.3,8,4.7,12,6.5c3.7,1.6,5.1,4.2,5,8.1
					c-0.2,4.9,0,9.8,0,16.1c-4.1-2-7-3.4-9.8-4.9c-3.1-1.6-4.8-1.1-4.4,2.8C22.7,193.4,22.9,193.3,22.9,193.3L22.9,193.3L22.9,193.3
					z"/>
				<path class="st1" d="M19.1,92.3c5.6,2.7,10.3,4.9,14.8,7.2c0.8,0.4,1.5,1.8,1.5,2.7c0.1,6.3,0.1,12.5,0.1,19.7
					c-5.4-1.5-10.4-2.9-15.3-4.4c-0.5-0.2-1-1.3-1-2.1C19.1,108,19.1,100.6,19.1,92.3L19.1,92.3L19.1,92.3z"/>
				<path class="st1" d="M153.7,198.4c2.1,1.8,3.9,3.3,5.1,4.3c0.5,5.3,1.1,10.1,1.2,15c0.2,5.2-1.4,6.4-6.2,4.8
					c-2.8-0.9-5.5-2-7.1-2.6c0.4-4.5,0.8-8.2,1-11.9C148,201.7,147.9,201.7,153.7,198.4L153.7,198.4L153.7,198.4z"/>
				<path class="st1" d="M165.1,113.9c6.4-4.6,9.5-4.1,17.8,4.4c-3.4,1.1-6.4,2-9.3,2.8l0.6,0.5c-1.9,1.3-3.9,3.7-5.7,3.7
					c-3.8-0.1-3.4-3.6-3.4-6.4L165.1,113.9L165.1,113.9L165.1,113.9z"/>
				<path class="st1" d="M71,111c-4.9,2.5-7.8,1.8-11.3-1.5c-2.7-2.5-7.6-2.6-11.5-3.8c0-0.7,0-1.5,0-2.2c1.7-0.2,3.6-1.1,5-0.5
					C58.9,105.3,64.5,108,71,111L71,111z"/>
				<path class="st1" d="M15.5,265.9c1.4-0.8,2.9-1.6,5.1-2.8l1.7,5.1l-0.8,1.2c-5-5.6-6.9,1.5-10.3,2c-0.9-2.2-1.7-3.9-2.7-6.1
					c5.6,1,1.8-10.7,9.7-6.5c-1.1,1.9-2.3,4-3.6,6.1L15.5,265.9L15.5,265.9L15.5,265.9z"/>
				<path class="st1" d="M11.8,242c-1.5-0.5-3.1-0.9-4.6-1.6c-0.8-0.4-1.4-1.4-2.1-2.1l1.8-1.2v-19.6l1.6-0.2
					c0.5,2.1,1.2,4.2,1.5,6.3c0.7,6.2,1.1,12.4,1.7,18.5L11.8,242L11.8,242L11.8,242z"/>
				<path class="st1" d="M154.5,157c-1.1,1.8-2.2,3.6-3.3,5.5c4.2,2.9,4.9,7.3,1.6,10.4c-2.1,2-3.4,1.5-4.4-1.1
					C147.1,167.8,150.1,158.9,154.5,157L154.5,157L154.5,157z"/>
				<path class="st1" d="M140.5,111.2c0.9,7.4,2.6,11.7,5.3,12.8c-3.4,4.1-6.9,4.1-10.9,0.2C136.7,120,138.4,116,140.5,111.2
					L140.5,111.2L140.5,111.2z"/>
				<path class="st1" d="M68.2,274.1c-0.8-2-1.2-3-1.7-4h9.3c-3,2.3-5.3,4.1-8.2,6.3c-0.8-0.4-2.7-1.1-4.6-2.1
					c-3.8-1.9-7.5-3.2-9.7,2.1c-0.1,0.3-1.5,0.1-2.7,0.2C53.9,270.9,61.2,269.6,68.2,274.1L68.2,274.1L68.2,274.1z"/>
				<path class="st1" d="M156.2,142c0.4,1.5,0.8,2.9,1.5,5.7c1.6-2.2,2.6-3.7,3.9-5.5c3.5,2,7.3,4.1,11.5,6.5
					c-1.7,0.5-3.3,1-5.2,1.6c-1.5-3.3-3.9-4.6-7.4-3.2c-1.6,0.6-3.3,1-5,1.4c-0.4-2.1-0.8-4.2-1.1-6.4L156.2,142z"/>
				<path class="st1" d="M163.6,148.5c1.5,2.5,1.7,4.1-0.3,6.9c-1.9,2.6-1.8,6.6-2.4,10c-0.3,1.9-0.4,3.8-1.6,5.5
					C158.1,163.1,158.3,155.4,163.6,148.5L163.6,148.5L163.6,148.5z"/>
				<path class="st1" d="M39.6,96.8c-8.5,0.3-14.2-8.8-23.4-6.2c0-3.9,0.8-4.9,3.6-3.6C26.4,90.1,33,93.5,39.6,96.8z"/>
				<path class="st1" d="M20.3,279.2l5.7,0.7c-1,4-7.2,8.2-10.2,6.9c-1.2-0.5-2.6-2.1-2.6-3.2c0.1-1.3,1.4-2.7,2.5-3.7
					c0.7-0.6,2.1-0.5,3.2-0.7c-1.5,1.1-2.9,2.2-4.3,3.4c0.3,0.5,0.6,1,0.9,1.5c1.5-0.3,3-0.4,4.5-0.8
					C23.7,282.4,23.1,280.9,20.3,279.2L20.3,279.2L20.3,279.2z"/>
				<path class="st1" d="M94.7,169.4c0.2-3.6,0.5-7.1,0.8-10.7c0-0.3,1.1-0.7,1.6-0.6c0.5,0.1,1.4,0.8,1.4,1
					c-0.5,3.5-1.2,7.1-1.8,10.6L94.7,169.4L94.7,169.4L94.7,169.4z"/>
				<path class="st1" d="M17.5,207.5c-0.1-1.4-0.3-2.9-0.4-4.3c-0.5-4.7,0.1-8.7,5.8-9.8c0,0-0.1,0.1-0.1,0.1h3.8
					c-0.5,1.7-0.8,3.2-1.4,5.1c-2-0.9-3.8-1.7-6.3-2.8C18.4,199.9,17.9,203.7,17.5,207.5L17.5,207.5L17.5,207.5z"/>
				<path class="st1" d="M68.3,144.6c-4.5-2.9-4-9.2,0-12.3V144.6z"/>
				<path class="st1" d="M128,99c-1.8,0.1-3.7-0.2-5.4,0.2c-1.5,0.5-2.8,1.8-3.9,2.5v-6.7c3.5-1.1,7.9,0.6,9.2,4
					C127.9,99.1,128,99,128,99z"/>
				<path class="st1" d="M155,84.8c-5.5,4.2-8.8,3.5-10.6-1.1C147.6,84.1,150.9,84.4,155,84.8z"/>
				<path class="st1" d="M91.1,73.1v14.9C88.6,87,88.4,85.1,91.1,73.1z"/>
				<path class="st1" d="M106.3,293.7c0.8,0.8,1.4,1.8,2.3,2.5c2.3,1.8,4.8,3.5,6.7,6c-3.7,0.8-4.3-8.4-10,0.1
					c0.6-4.4,0.9-6.5,1.1-8.6C106.4,293.8,106.3,293.7,106.3,293.7L106.3,293.7L106.3,293.7z"/>
				<path class="st1" d="M141.4,309.5v-13.5h0.9v13.4L141.4,309.5L141.4,309.5L141.4,309.5z"/>
				<path class="st1" d="M11.7,242.1c0.7,1.6,1.4,3.3,2.2,5.1c-4.6,0.4-9.2,0.8-13.8,1.2L0,247l10.2-1.4
					C10.7,244.4,11.2,243.2,11.7,242.1C11.8,242,11.7,242,11.7,242.1L11.7,242.1L11.7,242.1z"/>
				<path class="st1" d="M36.9,252.3c-0.5,3.6,2,7.9-2.7,10.7c0.5-3.6,1-7.2,1.5-10.9L36.9,252.3L36.9,252.3L36.9,252.3z"/>
				<path class="st1" d="M163.3,315.9v-24.1h0.4v24.3L163.3,315.9z"/>
				<path class="st1" d="M43.2,270.5c-2.5-1.2-5-2.3-7.6-3.5c1.9-2.6,2.8-2.4,8.4,1.8L43.2,270.5L43.2,270.5L43.2,270.5z"/>
				<path class="st1" d="M133.4,194.5c5,0.9,3.9,4.3,3.2,6.9c-0.2,0.8-3.1,0.8-5.1,0.5C132.9,199.3,136.9,198.2,133.4,194.5
					L133.4,194.5L133.4,194.5z"/>
			</g>
		</g>
	</g>
</g>
</svg>
