<?xml version="1.0" encoding="utf-8"?>
<!-- Generator: Adobe Illustrator 26.3.1, SVG Export Plug-In . SVG Version: 6.00 Build 0)  -->
<svg version="1.1" id="b" xmlns="http://www.w3.org/2000/svg" xmlns:xlink="http://www.w3.org/1999/xlink" x="0px" y="0px"
	 viewBox="0 0 320.7 333.3" style="enable-background:new 0 0 320.7 333.3;" xml:space="preserve">
<style type="text/css">
	.st0{fill:#E4D6A7;}
	.st1{fill:#41463D;}
</style>
<polygon class="st0" points="20.2,20.5 16.8,265.5 96.8,319.1 256.9,234 222.2,193.8 189.5,80 139.7,60.9 137.8,0 "/>
<g id="c">
	<g id="d">
		<g id="e">
			<g>
				<path class="st1" d="M121.8,144.9c1.1,1.1,2.2,2.2,3.2,3.3c1.1,1.2,2.2,2.4,3.5,3.9v-20.9c-1.6-0.6-6.4,1.1-4.4-4.3
					c5.6-0.2,6.4-1.7,5.2-7.2c-0.8-3.7,0.1-7.7-0.6-11.4c-0.4-2.1-1.8-4.7-3.6-5.6c-7.4-3.8-15-9.3-22.8-10
					C94.1,92,88.7,87.7,82,84.9c-8.9-3.8-18.2-6.4-27.5-9.6C56.2,71,54,69.6,51,70c-6.8,0.9-12.5-2.6-18.5-4.5
					c-1.2-0.4-2.5-0.4-4.1-0.6c-0.2,3.9-0.4,7.5-0.7,11.1c0,0.7,0,1.4-0.3,1.9c-5,7.5,1.7,8.2,5.9,10.3c0.7,0.4,1.5,0.6,2.3,0.9
					l-1,1.1c-4.4-1.7-8.9-3.3-13.1-5.3c-1.1-0.6-1.9-2.4-2.3-3.9c-0.5-1.7-0.4-3.6-0.4-5.4c0-1.4,0-2.8,0.1-4.2
					c1.4,0.5,2.7,1.1,4.1,1.6c0.3,0.1,0.6,0,1.7,0c-1-1.7-1.7-3-2.5-4.3c-1.2-2.1-4-3.9-1.4-7c0.4-0.5-0.9-2.4-2-5
					c2.3,1.6,3.6,2.8,5.2,3.5c1.4,0.7,3.1,0.9,4.6,1.3c0.3-1.3,0.8-2.7,0.8-4c0.1-2.2-0.1-4.4-0.2-6.6l1.7-0.2l1,6.9
					c0.6-7.5-2.3-11.7-8.7-12.8C24.7,34.3,19.8,28,9.2,25.6l0.6-1.4c2.6-0.2,5.2-0.8,7.8-0.4c5.4,0.7,10.6,2,15.9,3
					c0.5,0.1,1.2,0.7,1.3,0.5c4.6-4.1,8.5,0.7,13.3,0.9l-3.1,3c6.6,0.7,8.3-1.2,7.2-5.5l3.4-5.4l0.1,0c1.8-3.8,4.3-5.2,8.9-4.3
					c6.2,1.2,12.7,1.1,19,1.8c1.7,0.2,3.3,1.4,5.1,1.5c4.3,0.2,8.7,0.1,13.5,0.1c-0.5-1.1-0.8-2.1-1.2-3c0.3-0.2,0.5-0.4,0.8-0.5
					c3.4-0.9,6.9-1.5,10.2-2.6c4-1.3,8.1-2.7,11.8-4.7c4.9-2.6,9.4-5.8,14.1-8.7h3c-0.1,2.7-0.2,5.5-0.4,8.2
					c-0.1,1.3-0.5,2.6-0.5,3.8c0,7.5,0,14.9,0.1,22.4c0,3.7-1.1,5.8-5.3,4.1c0.9,3.6,1.9,3.8,7.9,0.9c-0.3,2.7-0.9,4.7-0.5,6.5
					c0.4,2.3,1.2,4.8,2.5,6.8c1.9,2.7,4.4,5,6.9,7.6c4.8-5.9,7.7,4.8,12.4,2.7c-0.4,2.4-0.8,4.6-1.4,7.9c-5,2-2.1-4.1-2.6-4.8
					c-5.7-2.3-10.2-4-15.1-6c-1.1,0.2-3.2,1-5,0.7c-6-1-8.4,2.4-9.8,7.6l2.5,1.7l-0.1,1.6c-2.7,0-5.5,0.2-8.2-0.1
					c-4-0.4-6,2.1-6.4,8.7l-13.3,2.5l0,1.5l8.6,5.2l-0.6,1.1C104.6,87.3,96.8,84,88,80.2c2.6,6.5,25.1,15.2,30.3,13.9
					c1.5,1.9,2.4,3.2,3.5,4.3c0.6,0.5,1.7,0.4,2.3,0.9c9,8.3,17.6,2.9,26-0.8c13.2-5.9,26.3-12.2,39.4-18.4c2-0.9,4-3.1,5.8-3
					c2.1,0.2,4.9,1.9,5.8,3.7c1.8,3.7,5.7,7.4,2.5,12.2c-2,3-1.7,10.6,1.2,11.9c1.6,0.8,6.1-0.7,6.6-2.1c1.3-3.8,1.1-8,1.6-12.2
					c0.7,1.6,1.1,3.8,2.4,5.4c1.3,1.7,3.5,2.7,5.5,4.1c0.1,1.6,0.3,4.3,0.6,7l1.6,0c0.2-1.3,0.2-2.7,0.8-3.8c0.6-1,1.8-1.6,3.5-1.7
					c-0.4,1-0.7,2-1.1,3c4-0.5,7.7-0.9,11.5-1.3l0.4,1.7c-4.9,1.3-9.9,2.5-14.7,4.1c-0.9,0.3-1.9,2.1-1.9,3.2
					c0.2,6,5.8,11.7,11.8,12.8c2.4,0.4,4.7,1.5,7.9,2.6c1.2-2.1,3-5.3,4.8-8.5l1,0.2c-0.4,2.3-1.2,4.6-1,6.8
					c0.8,7.9-6.4,12.7-7.6,19.7c-1.1,5.9-1.4,12-2.1,18.2c-7.2,1.9-9.7,5.3-9.5,13.3c0.1,3.8,0.5,7.4-3.2,10.4
					c-1.4,1.1-2.4,4.9-1.6,6.1c1.5,2.1,4.4,3.3,6.9,4.7c1.2,0.7,3,0.5,4,1.3c8,6.9,18,9.9,27.3,14.2c13.5,6.3,27.1,12.5,40.7,18.9
					c6.4,3,12.6,6.2,19.7,9.8c-9.8,5.1-18.8,9.8-27.7,14.4c-6.1,3.1-12.5,5.8-18.5,9.2c-3.1,1.8-5.5,4.9-8.5,6.7
					c-5.1,3-10.6,5.5-15.9,8.2c-0.9,0.4-2.4,0.2-2.8,0.7c-1.7,2.7-3.8,3.8-7,3.2c-0.6-0.1-1.6,1.2-1.6,1.3c-1.9-0.6-5.3-2.1-5.4-1.8
					c-1.7,3.3-3.4,0.7-3.7-0.3c-1.3-3.9-4-2.1-6.7-1.6c1,1.1,1.9,2.2,2.8,3.1c-1.1,0.8-2.3,1.6-2.8,1.9c-2-0.5-3.8-1.5-5.1-1.1
					c-6.2,1.8-12.2,4.1-18.4,6.1c-5.8,1.8-11.6,1.6-17.6,1c-4-0.4-5.3-1.7-4.9-5.8c5.6,0.6,11.2,0.8,15.9-4
					c-10,1.1-16.8-5.4-24.5-10c-0.4,0.4-0.7,0.9-1.1,1.3c1.8,2.8,3.3,5.7,5.4,8.2c3.1,3.7,2.1,7.7-3.6,9.9c1.2-1.5,1.9-2.3,2.5-3.1
					c-0.9-1.6-1.9-3.2-3-5.1c-0.4,1.2-0.7,2.3-1.1,3.4c-4.1-5.1-4.6-5.1-9.9,1.1c0.9,0.8,1.8,1.5,2.7,2.2c-0.3,0.4-0.5,1-0.6,0.9
					c-6.9-1.4-13.1,1.6-19.1,4c-10.7,4.1-21.2,8.9-31.8,13.6c-1.9,0.9-3.6,2.3-4.3,2.8c-3-3.3-4.6-5.9-7-7.5
					c-1.9-1.2-4.1-0.5-4.6,2.6c-0.2,1.6-1.4,3-2,4.5c-1.2,3,2.4,6.6,6.1,6.3c2.3-0.2,4.6,0,6.8,0.7l-26.3,8.8
					c-0.5-3.7-1.1-8.4-1.9-14.5c2.1-0.1,5.3-1.2,7.6-0.2c4.6,1.9,5.5-0.2,6-3.5c-3.8-2.6-7.3-5-10.9-7.4l-0.1,0.1
					c0.4-1,1.4-2.6,1.2-2.8c-5.5-4.6-11.2-9.1-17-13.8c-3.6,4.4-6.7,8.1-10.2,12.4c-1.3-0.7-2.8-1.5-5.5-3c2.2-3.9,4.6-7.6,6.2-11.7
					c1.5-3.8,3.1-3.1,6-1.6c13.8,7.3,27.6,14.4,41.5,21.3c1.4,0.7,3.7,0.4,5.2-0.2c2.1-0.8,3.9-2.5,5.9-3.7
					c6.4-3.9,12.2-9.2,21.6-8.7c-0.5-10.3-1.1-20-1.3-29.8c-0.1-4.6,0.6-9.2,0.7-13.8c0.1-16.3,0.1-32.5,0.3-48.8
					c0-2.3,0.9-4.6,1.3-6.8c-0.5-1.8-1.5-3.8-1.6-5.9c-0.2-7.8-0.6-15.6,0-23.4c0.4-5.3-2.3-8.2-6.1-10.3c-3.6-1.9-4.4-4.6-4.3-8.1
					L121.8,144.9L121.8,144.9L121.8,144.9L121.8,144.9z M224.4,251.5c1.4-1.6,2.8-3.1,4.2-4.8c-3.5-1.4-6.7-2.6-9.8-3.8l-1,1
					c2.2,2.5,4.4,4.9,6.7,7.4l-0.2,3.9c2.4-1.6,4.3-2.7,5.9-4.1c4.7-3.9,9.4-7.8,13.9-11.8c0.8-0.7,1-2.1,1.4-3.1
					C238.1,241.7,231.2,246.6,224.4,251.5L224.4,251.5L224.4,251.5z M189.6,122.6c-2.8,1.2-4.1,2.3-5.4,2.3c-4.2,0-8.3,3.3-8.3,7.3
					c-0.1,13.2-0.1,26.5-0.1,39.8v9.2c1.6-0.4,2.6-0.8,3.7-1.1c6.4-1.9,10.9-4.4,10.4-12.9C188.9,152.7,189.6,138.1,189.6,122.6
					L189.6,122.6L189.6,122.6z M234.1,254.4c1.8,2.6,2.4,4.7,3.8,5.3c3.3,1.5,6.9,2.3,10.6,3.5c-0.1,1.3-0.4,3.6-0.7,6.5
					c3.8-1.8,7.1-3.4,10.6-5.1c-6.9-6.2-11.6-8.9-14.2-8c1.5,0.7,2.9,1.3,4.2,2C242.7,261.6,240,255.7,234.1,254.4L234.1,254.4
					L234.1,254.4z M174.1,235.3l2.1,2l1.9-4.6c4.1,0.2,7.6,0.5,11,0.5c6.7,0,10.1,3.1,10.2,9.4c0,1.7,0.4,3.4,0.8,6.1
					c3.9-9.8,1.7-14.4-7.7-18.5C185.4,227.3,176.5,229.8,174.1,235.3L174.1,235.3L174.1,235.3z M255.7,252.6
					c5.7,4.2,10.6,7.8,15.6,11.5l0.8-1.2C267.2,259.1,264,252.9,255.7,252.6L255.7,252.6L255.7,252.6z M240.5,251.8
					c4-1,6.4-1.6,9.8-2.5c-3-2.2-5.1-3.8-7.2-5.3C242.4,246,241.7,248.1,240.5,251.8L240.5,251.8L240.5,251.8z M129.2,66.7
					c-2.3-1.1-3.8-2.5-4.8-2.2c-3.8,1.1-6.8,3.2-8.2,7.9C120.5,70.5,124.3,68.9,129.2,66.7z M60.2,286.8c-5.4-2.5-6,1.9-8,3.7
					c-1,0.9-1.2,2.8-1.7,4.2l1.6,0.6C54.6,292.6,57.1,290,60.2,286.8L60.2,286.8L60.2,286.8z M233.8,274.5c2.6,5.6,6.6,7.5,11.6,5
					C241.9,278,238.4,276.5,233.8,274.5z M240.7,235c-3.4-0.2-6.1-0.3-8.9-0.5C236.2,241,236.6,241,240.7,235z M263.4,271.6
					c0-0.5,0-1,0-1.6c-1.3-0.5-2.8-1.5-4-1.2c-1.2,0.3-2.3,1.8-3.1,3c-0.1,0.2,1.4,2.1,1.8,2C259.9,273.3,261.6,272.4,263.4,271.6
					L263.4,271.6L263.4,271.6z M151.5,199.7l1.9,1c1.8-2.9,3.5-5.8,5.3-8.8l-1.7-1C155.1,193.9,153.3,196.8,151.5,199.7L151.5,199.7
					L151.5,199.7z M255,235.6l1.9-1.6c-0.7-3.6-4.4-3.8-7-5.2l-1,1.1C250.9,231.8,253,233.7,255,235.6z"/>
				<path class="st1" d="M32.2,249.7l0.7,4.3c6.1-1.8,7.2-3.5,6.9-12.1c-0.3-8.1-1.1-16.3-1.7-24.6l-3.5,2c2.8-4,1-7.6,3.7-10.9
					c1.3-1.5-0.7-5.8-1.2-8.8c2.5,0.1,3.8-1.3,1.1-4.7c1.4-0.3,2.5-0.9,2.9-0.6c3.4,2.2,7.1,4.1,9.7,7c1.2,1.4,0.2,4.7,0.2,7.5
					l-3.7-0.6l-0.4,0.7c1.5,1.1,2.9,2.1,5,3.7l1.6-7.1c4.8,0.4,3.7-4.1,4.6-5.7c3.7-1.6,6.8-2.8,9.7-4c0,1.9-0.2,4.8,0.1,7.5
					c0.2,1.6,1.2,3.1,1.8,4.7c1.7-1,3.4-1.9,5.1-3c0.7-0.5,1.2-1.4,2.4-3c0.3,8.2,5.8,9.3,11.3,10.2c3.5,0.6,5.3,2.2,5.9,5.7
					c1.2,6.9,3.8,12.5,11.4,15.4c3.1,1.2,4.6,6.3,6.8,9.6c1.4,2.2,2.6,4.5,3.4,6.9c0.3,1.6,0.1,3.9,1.1,4.6c5,3.5,3.3,7.9,3,13.7
					c-8-6.5-14,0.4-21,0.6c3.3-1.8,6.6-3.5,10.2-5.5c-3.8-1.9-13.6-0.1-14.3,2.8c-0.5,2.2,0.8,6.3,2.5,7.1c4.3,2,9.2,2.7,13.6,3.8
					c-0.2,0.2-0.9,0.8-2.1,1.8c3.7,2.6,7.2,5,10.8,7.6c-3.3,1.7-6.5,4.8-8.8,4.3c-5.5-1.3-8.1,2.8-12,4.5l-0.9-1.3
					c2.1-1.5,4-3,6.2-4.3c2.2-1.3,4.6-2.4,6.5-3.3c-7.1-12-19.9-10.6-29.9-16.4c3.7,0.3,7.5,0.6,12.4,1.1c-0.5-2.4-0.6-6.8-1.8-7.2
					c-3.6-1.1-8.5-1.9-11.6-0.4c-6.5,3.4-12.2,8.3-18.7,12.9c-0.7-1.6-1.3-2.8-2.1-4.6c-5,3-10.2,5.5-14.7,9c-2.5,2-3.5,5.8-5.7,8.2
					c-1.5,1.6-4.1,2.3-6.2,3.4l-0.8-1.6c2.9-2.2,5.8-4.4,8.7-6.6l-0.3-0.3c-4.1,1.9-8.4,5.6-12.1,5.2c-8.9-1-16.5-5.9-22.6-15.1
					c9.4,6.3,16.2,17.7,28.9,9.1c-1.7-1.9-3-3.4-4.3-4.9l0.6-1.2c2.6,0.7,5.3,1.4,7.9,2.1l1.2,1.2c1.3-2.9,2.5-5.7,4-9
					c2.4,4.5,5.2,3.2,8.5,1.2c7.6-4.5,15.4-8.5,23-12.9c2.3-1.4,4.2-3.5,6.2-5.2l-1.1-1.8c-1.9,1-3.7,1.9-5.8,3v-3.1
					c-3.3,0.5-6.9-1.2-9.2,3c-0.5,0.9-4.2-0.1-6.7-0.2c-1.5,2.7-3.1,5-8,3.8c-5.9-1.5-12.2-1.2-18.9-1.7v-7.1L32.2,249.7L32.2,249.7
					L32.2,249.7L32.2,249.7z"/>
				<path class="st1" d="M60.3,107.4l-2.9,5.2c3.5,2.8,8.1,4.7,9.2,7.8c1.2,3.3-0.8,7.7-1.5,11.6c-0.5,2.9-1.1,5.7-1.7,8.8
					c-5.1-2.3-10.3-4.7-15.5-7l-0.8,1.4c1.6,1.4,3.2,2.8,5,4.5l-2.8,1.4c3.7,4.9,13.6,3.2,12.8,12.8l2-3.9v16.5
					c-5.7-2.8-11.3-4.9-16.2-8.1c-4.2-2.7-2.5-7.6-2.3-11.8c0.1-3.6-0.3-7.2-1.1-10.8c-3,3.8,2.7,9.1-4.2,12.5v-4.4l0.7,0.1
					c-0.6-2.2-1.6-4.5-1.7-6.8c-0.3-7.3-0.2-14.6-0.3-21.9c-0.1-6.1,4.9-7.9,9.2-11.8c1,3.6,3.2,6.8,2.4,9.1
					c-1.8,5.2-6.1-1.5-9.6,1.8c0,3.9-0.3,8.6,0.2,13.3c0.1,1.6,2,3,3.1,4.5l1.3-0.4v-15.1c2.4,1.3,4,2.3,5.7,3.1
					c1,0.4,2.6,1,3.1,0.6c0.8-0.8,1.4-2.3,1.3-3.5c-0.2-3.7-0.9-7.3-1.5-12.4C57.3,106.1,59,106.8,60.3,107.4L60.3,107.4L60.3,107.4
					L60.3,107.4z M61.4,126.6l-1.5-1c-0.8,0.8-1.7,1.6-2.4,2.2l-1.8-2.3l-0.9,0.3l1,7.2l1.9,0.5L61.4,126.6L61.4,126.6
					C61.4,126.6,61.4,126.6,61.4,126.6z"/>
				<path class="st1" d="M122,144.7c-3.9,0.5-6.2,2.3-5.8,6.7c0.2,1.9,0,3.8,0,5.7l-1.5,0.1c-0.3-3.7-0.7-7.5-1.1-11.2l-0.5,0
					c-0.3,4.4-0.5,8.8-0.8,13.2c-7-0.4-13.6-4.3-13.6-7.8c-0.1-16.6,0-16.9,7.3-17.5c-1,1.4-1.8,2.5-2.9,4h2.4
					c1.5,1.8,2.5,3.4,3.9,4.6c0.2,0.2,2.4-1.1,2.8-2c0.4-1,0-3.3-0.5-3.4c-4.4-1.3-2.9-4.5-2.9-7.5c1-0.2,2-0.2,2.9-0.6
					c0.8-0.4,2-1.1,2-1.7c0-0.7-0.8-1.8-1.5-2.2c-4.4-2.2-8.9-4.1-13.3-6.2c-7.8-3.6-15.5-7.5-23.4-10.8c-4.2-1.7-4.7-4.7-4.6-8.6
					c1.3,0.8,2.5,1.5,3.7,2.2l-0.9,0.8c1.2,1.5,2,3.7,3.5,4.4c7.2,3.3,14.6,6,21.8,9.3c5.3,2.4,10.4,5.2,15.6,7.9
					c0.4,0.2,1.2,0.5,1.2,0.8c0.2,7.1,8.5,9,9.9,15c-1.4,1.8-2.6,3.3-3.9,4.9L122,144.7L122,144.7L122,144.7L122,144.7z"/>
				<path class="st1" d="M88,140.6c-1.4,2.4-2.8,4.9-4.4,7.7c-2.8-1.2-6.1-2.4-9.1-3.9c-0.9-0.4-1.8-1.6-1.9-2.5
					c-0.7-9.5-1.2-19.1-1.8-28.8c3.5-1.2,5.4,0.9,6.2,3.7c1.5,5.4,6.3,7.4,9.9,10.7c2,1.8,3.5,4.1,5.4,6c1,0.9,2.4,1.4,3.9,2.2
					c-0.2,4-0.4,8.3-0.5,10.9c-0.4-1.7-1.3-4.9-2.1-8c-1.9,0.7-3.8,1.4-5.6,2.1c0-2.7,3.1-5.7-1.4-8.4l-0.5,5
					c-1.5-0.1-2.8-0.2-4.1-0.2l-0.3,1.3C83.7,139.2,85.9,139.9,88,140.6L88,140.6L88,140.6z"/>
				<path class="st1" d="M116.3,190.8c-2.1-1.2-4.1-2.3-6.1-3.4c-2.9-1.6-5.9-3.1-8.7-4.9c-1.1-0.7-2.5-2-2.6-3.1
					c-0.3-5.4-0.1-10.8-0.1-17.5c6.5,2.7,11.8,4.9,17.4,7.3C116.3,169.2,116.3,190.8,116.3,190.8z"/>
				<path class="st1" d="M78.2,303c-3.6,2.3-7.3,4.6-10.8,6.8c-0.6-0.5-2.3-2.7-3.1-2.4c-2,0.8-3.7,2.5-5,4.3
					c-0.3,0.5,1.3,2.3,2,3.5c0.5,0.9,1.4,1.9,1.3,2.8c-0.1,3.4-0.5,6.9-0.7,9c-2.6,0.4-5.1,0.1-6.9,1.1c-1.9,1.1-3.2,3.4-4.8,5.2
					c-0.6-0.3-1.1-0.7-1.7-1c0.7-2.6,0.6-6,2.3-7.6c3.5-3.5,4.1-7.1,3.2-11.5c-0.4-2.2,0.3-3.7,2.6-5.5c3.5-2.8,8.7-5.3,7.8-11.6
					c6.1-0.3,9.4,4.1,13.4,7.1L78.2,303L78.2,303L78.2,303z"/>
				<path class="st1" d="M72.6,149.6c5.3,3.9,12.3,3.7,11.7,11.8c1.5-0.3,2.7-0.5,4.4-0.9c0,4.8,0.2,9.3-0.1,13.7
					c-0.1,2.4-1.2,3.1-4,2c-15.3-6.3-11.6-4.8-12-18.9C72.5,155.2,72.6,153.1,72.6,149.6L72.6,149.6z"/>
				<path class="st1" d="M20.4,225.8l1.9,3.8l1.1-0.1v-10.5c-2.9,1.8-4.8,3-6.7,4.1l-0.6-0.9c1.6-1.4,3.3-2.7,4.9-4.1
					c1.6-1.2,3.2-2.4,4.7-3.5c2.4,2.1,4.5,4,7.2,6.3c-2,0.3-3.5,0.5-5.8,0.8V249l-1,0.9c-4-9.3-9.9,1.1-14.5-1.9
					c3.3-1.8,6.7-2.9,9.3-5.1c4.2-3.7,3.8-8.5-0.5-12.2C18.7,229.4,18.7,227.7,20.4,225.8L20.4,225.8L20.4,225.8z"/>
				<path class="st1" d="M34.5,134.3l-8.3-0.6l3.3,6.1l-0.5,0l2.6,7.8l-10.2-4.2l4-4.4v-22.3c4.4,5.3,0.8,14.1,9.8,16.5L34.5,134.3
					L34.5,134.3L34.5,134.3z"/>
				<path class="st1" d="M55.6,20.5c-1.8,0.9-3.5,1.8-5.4,2.6c-1.1,0.5-2.4,1.2-3.5,1.2c-4.6-0.1-9.2-0.2-13.8-0.7
					c-4.3-0.5-8.5-1.5-12.7-3.1c1.5-0.2,3-0.5,4.6-0.5c4.1,0,8.2,1.2,12.2-1c0.8-0.4,2.3,0.7,3.5,0.8c3.1,0.4,6.7,1.8,9.1,0.6
					C52.1,19.1,53.6,19.9,55.6,20.5C55.7,20.5,55.6,20.5,55.6,20.5C55.6,20.5,55.6,20.5,55.6,20.5z"/>
				<path class="st1" d="M67.8,10.9l9.1-1.9l5.4,6.4H68.6L67.8,10.9L67.8,10.9L67.8,10.9z"/>
				<path class="st1" d="M67.5,104.3c-3.8-1.8-7.7-3.6-11.4-5.3l1.4-7.1l0.6-0.1l0.6,5.1c1.7-0.4,3-0.7,3.5-0.8
					c1,1.8,1.6,3.3,2.7,4.4c1,1,2.4,1.5,3.7,2.2L67.5,104.3L67.5,104.3L67.5,104.3z"/>
				<path class="st1" d="M122,283.5c-1.3-2.3-2.8-4.4-3.7-6.8c-0.5-1.3,0.1-3,0.2-4.6c1.2,0.1,2.9-0.2,3.4,0.5
					c1,1.4,1.7,3.2,1.7,4.8C123.6,279.2,122.7,281,122,283.5z"/>
				<path class="st1" d="M263.6,296.9c-6.6,2.9-11.1,2.6-14.4-1.3h14.4L263.6,296.9L263.6,296.9z"/>
				<path class="st1" d="M24.5,165.1c-2.8-8.2-1.5-10.2,8.1-12.9C27.7,155,24.1,158.8,24.5,165.1z"/>
				<path class="st1" d="M5.8,291.1c-2.3-0.9-4.1-1.6-5.8-2.3l0.7-5.2C3.2,285.5,7.9,285.5,5.8,291.1L5.8,291.1L5.8,291.1z"/>
				<path class="st1" d="M16.8,265.5c3.4-3,7.7-2.4,12.7,2C25.5,266,21.8,262,16.8,265.5z"/>
				<path class="st1" d="M23.7,205.8v-13l1.6,0V206L23.7,205.8L23.7,205.8L23.7,205.8z"/>
				<path class="st1" d="M81.2,330.5c3.3-1.9,6.7-3.9,10-5.8c0.4,0.7,0.7,1.4,1.1,2c-3.4,1.7-6.9,3.4-10.3,5.2
					C82,331.9,81.2,330.5,81.2,330.5z"/>
				<path class="st1" d="M230.6,78.1c2.6,7.2,2.4,7.7-2.7,10.6C228.7,85.5,229.7,81.8,230.6,78.1z"/>
			</g>
		</g>
	</g>
</g>
</svg>
