<?xml version="1.0" encoding="UTF-8"?><svg id="b" xmlns="http://www.w3.org/2000/svg" viewBox="0 0 200 318.74"><g id="c"><g id="d"><g id="e"><g><path d="M151.85,189.85c-8.52,4.35-17.05,8.69-25.55,13.07-4.56,2.35-9.06,4.82-13.64,7.12-.93,.47-2.25,.87-3.14,.56-2.56-.89-2.92,.12-4.11,2.34-1.24,2.32-4.54,3.53-6.94,5.23,.7-1.25,2.14-2.63,1.94-3.71-.33-1.77-1.72-3.34-2.67-4.99l-7.77,5.45c-1.53-.21-3.24-.97-4.56-.53-4.71,1.57-9.28,3.55-14.36,5.56,.11,.06-.93-.55-2.79-1.64,0-11.77-.1-24.38,.13-36.98,.03-1.53,1.55-3.42,2.91-4.44,2.37-1.77,5.3-2.77,7.7-4.5,1.49-1.07,2.46-2.87,3.66-4.34l-1.42-1.54c-4.56,2.61-9.12,5.22-13.74,7.87V68.61l6.12-1.02-.11-.69c-1.8,.26-3.6,.53-5.98,.88,0-5.34-.19-10.14,.13-14.9,.08-1.22,1.56-2.73,2.79-3.41,13.32-7.46,26.74-14.74,40.06-22.2,1.48-.83,2.5-2.45,3.74-3.71l-1.04-1.02c-12.31,6.04-24.61,12.09-37.44,18.38,0-8.08-.2-15.94,.17-23.78,.07-1.53,2.05-3.39,3.61-4.35,6.65-4.08,13.45-7.92,20.25-11.76,4.63-2.61,10.4-.04,11.96,5.22,2.06,6.91,9.86,12.21,17.5,11.31,.18,2.58,.52,5.14,.52,7.7,0,29.74-.06,59.47-.1,89.21,0,6.24,1.68,9.03,7.6,11.13,3.33,1.18,4.51,2.71,4.41,6.43-.34,12.29,0,24.59-.22,36.88-.09,5.07,2.28,7.78,6.66,9.76,3.39,1.53,7.71,2.1,9.29,6.36-2.08,1.79-3.92,3.38-5.77,4.97l.17-.16h.03Zm-70.21-20.57c.67,.51,1.35,1.02,2.02,1.53,3.13-2.59,6.31-5.13,9.38-7.8,3.12-2.72,5.94-5.82,9.21-8.32,6.57-5.03,6.66-4.9,6.22-9.64-2.11,3.56-4.58,5.87-8.64,5.38-.44-.05-1,.7-1.46,1.13-4.59,4.17-9.26,8.26-13.69,12.6-1.37,1.34-2.05,3.39-3.04,5.12h0Zm35.13,15.35h.53v-34.12h-.53v34.12Z" fill="#41463d"/><path d="M151.68,190.01c2.67-1.17,5.35-2.34,8.75-3.84-.23,3.39-.55,6.12-.57,8.85-.14,17.44-.29,34.87-.2,52.31,0,1.34,1.49,3.18,2.78,3.94,12.15,7.06,24.41,13.94,37.56,21.39-8.54,4.61-16.16,8.82-23.87,12.85-13.19,6.9-26.16,14.33-39.76,20.31-8.49,3.73-17.97,5.19-27,7.65-6.58,1.79-13.16,3.56-19.48,5.27,0-28.49,.08-56.47-.12-84.45-.02-2.8,.79-4.21,2.94-5.49,5.42-3.22,10.92-6.35,16.16-9.85,14.38-9.61,28.65-19.39,42.97-29.11l-.16,.16h0Z" fill="#41463d"/><path d="M32.27,233.17c9.49,3.75,13.88,14.08,10.88,21.61-4.57-3.1-9.32-6.32-14.84-10.05l.67,8.47-1.17,.2-2.09-9.17c-.48,.08-.95,.16-1.43,.24-.88,4.14-2.36,7.59-.79,12.69,1.9,6.18,.45,13.4,.45,19.81-7.42-4.94-9-12.53-7.91-21.24,.24-1.92,1.65-5.04-4.73-3.39l1.5-1.91c1.31-.96,2.92-1.69,3.85-2.92,1.18-1.57,2.45-3.55,2.48-5.36,.02-1.35-1.88-2.73-2.86-4,4.22-3.41,.17-9.09,2.32-13.91,2.21,1.11,4.71,1.99,6.75,3.51,1.33,.99,2.54,2.79,2.82,4.4,.47,2.72-.06,5.61,.28,8.37,.2,1.63,1.29,3.15,1.97,4.72,.61-.15,1.23-.31,1.84-.46v-11.61h.01Z" fill="#41463d"/><path d="M47.56,291.55c-4.66-.2-9.73,1.92-11.37-4.76-2.15,.42-4.05,.8-6.48,1.27v-25.49c3.23,1.61,6.14,3.06,9.22,4.59,1.25-1.13,2.45-2.2,4.27-3.84-5.09-2.39-9.72-4.57-14.34-6.74l-.15-1.24c2.98-.84,5.93-1.84,8.96-2.32,.42-.07,1.25,2.51,2.05,4.23,3.65-.08,5.43,2.18,4.69,6.52,3.99,.26,5.45,.43,3.79,5.49-1.97,5.99-.69,13.05-.8,19.64,0,.76,.09,1.52,.17,2.65h-.01Zm-6.82-21.73c-.52,5.66-2.54,11.43-.33,16.9l1.49-.11c-.39-5.6-.78-11.2-1.17-16.8h0Z" fill="#41463d"/><path d="M61.11,244.86c-6.99-1.28-8.06-2.4-8.13-8.28-.1-8.76-.32-17.51-.12-26.26,.06-2.62,1.37-5.21,2.1-7.81l1.72-.23c1.25,2.58,2.5,5.16,3.79,7.81,.26-.61,.49-1.17,.15-.37l3.35,14.53-1.69,.31-1.03-6.04c-.83,1.81-1.35,2.92-1.66,3.6-1.63-.67-3.27-1.35-6.25-2.58,3.18,4.91,6.42,8.2,7.51,12.08,1.15,4.09,.26,8.76,.26,13.24h0Z" fill="#41463d"/><path d="M31.41,155.01c-.41-1.17-1.17-2.33-1.17-3.5-.05-15.43,.01-30.85,.02-46.28,.01-22.24,0-44.47,0-66.71,0-1.58,.16-3.16,.25-4.74l1.4-.17c.3,1.51,.84,3.01,.85,4.52,.13,17.09,.2,34.18,.23,51.27,.03,21.65,0,43.31,0,64.96l-1.6,.64h.02Z" fill="#41463d"/><path d="M81.42,279.85c-3.74-1.91-6.65-3.4-9.56-4.9-.15-.08-.41-.16-.41-.24-.17-6.79-.33-13.57-.48-20.36,1,.08,2.28-.19,2.94,.32,.82,.64,.89,2.54,1.69,2.84,7.91,2.97,5.56,9.69,5.82,15.44,.09,1.97,.01,3.96,.01,6.9h-.01Z" fill="#41463d"/><path d="M81.42,304.86c-9.35-1.85-10.72-3.43-10.74-12.02v-10.82c9.93,2.78,10.77,3.84,10.74,12.98-.01,3.26,0,6.52,0,9.85h0Z" fill="#41463d"/><path d="M60.69,291.21c.5,1.57,1.2,3.79,2.23,7.02-3.62-1.99-6.17-3.39-8.71-4.79-3.44-7.27-.54-14.7-1.45-22.1,10.43,5.96,11.05,7.06,9.66,17.51-.11,.83-1.1,1.55-1.73,2.37h0Z" fill="#41463d"/><path d="M10.39,240.74c-6.42-2.25-9.65-6.67-9.68-13.27v-9.47c6.04,.13,8.4,4.58,9.45,8.88,1.05,4.33,.23,9.12,.23,13.87h0Z" fill="#41463d"/><path d="M7.34,273.73c-2.11-1.05-3.67-1.82-6.6-3.27,2.33,.17,3.15,.23,4.91,.35-1.74-4.5-4.02-8.52-4.77-12.81-.81-4.6-.18-9.45-.18-14.28,5.96,1.18,8.44,4.43,7.94,10.15-.56,6.4-.85,12.83-1.3,19.86h0Z" fill="#41463d"/><path d="M63.34,267.33c-3.4-1.49-6.8-2.98-10.42-4.57v-18.23c7.13,1.55,8.08,2.82,8.13,9.33,.02,2.07,.75,4.14,1.15,6.2,.38,2.42,.76,4.84,1.14,7.27Z" fill="#41463d"/><path d="M20.24,202.33c.69,1.49,1.27,3.04,2.1,4.44,1.16,1.95,2.51,3.79,3.85,5.77l1.53-1.66v15.39c-2.69-1.23-5.32-2.32-7.83-3.64-.77-.4-1.71-1.41-1.72-2.15-.03-5.77,.12-11.54,.35-17.3,.01-.27,1.23-.49,1.89-.73l-.16-.12h-.01Z" fill="#41463d"/><path d="M1.98,208.77c3.8-.25,6.87,.14,5.86,5.57-2.35-.93-4.48-1.77-6.84-2.7l-1-20.63c3.58,.48,7.22,.96,11.18,1.49v8.01c-3.13-1.19-6.14-2.34-9.15-3.49,3.88,2.72,7.92,5.18,5.14,11.79-1.96-1.44-3.72-2.73-5.2-3.82v3.77h0Z" fill="#41463d"/><path d="M40.12,181.11c2.56,1.76,2.88,2.94,1.91,11.45-8.37-2.91-10.89-6.1-10.18-13,.12-1.13,.34-2.36,.91-3.32,1.27-2.15,3-4.94,5.68-2.79,1.33,1.07,1.01,4.19,1.69,7.66h0Z" fill="#41463d"/><path d="M73.16,233.12c.73,.64,1.36,1.59,2.21,1.87,4.18,1.4,5.35,4.36,5.03,8.45-.22,2.77-.04,5.58-.04,9.75-3.55-2.37-8.66-4.04-8.97-6.36-.58-4.27-3.06-9.77,1.95-13.56l-.17-.15h0Z" fill="#41463d"/><path d="M40.26,216.3c-1.4-1.16-2.78-2.33-4.19-3.47-3.84-3.13-5.74-12.58-3-16.55,.46-.66,2.89-.67,3.93-.1,5,2.71,4,7.71,4.27,12.25l-4.34,1.55c2.48,1.19,4.47,1.58,5.34,2.78,.55,.75-.59,2.73-.97,4.16l-1.05-.61h0Z" fill="#41463d"/><path d="M20.4,202.45c-.72-1.02-2.01-2.02-2.05-3.08-.22-4.91-.1-9.83-.1-14.99,8.86,3.88,10.48,6.51,9.2,15.5-.73,5.08-4.72,1.86-7.22,2.43,.01,0,.18,.13,.18,.13h-.01Z" fill="#41463d"/><path d="M27.85,184.43c-9.99-3.96-10.66-4.66-9.27-11.78,.3-1.53,2.42-4.01,3.31-3.85,1.7,.3,4.07,1.94,4.47,3.47,.99,3.74,1.02,7.74,1.49,12.17h0Z" fill="#41463d"/><path d="M37.76,25.23c3.48,2.34,6.35,4.88,7.27-.85,.11,.27,.31,.54,.3,.81-.1,3.18-.24,6.37-.37,9.55-2.98-.57-5.97-1.08-8.92-1.74-1.76-.39-3.5-.93-5.18-1.58-1.34-.52-2.58-1.32-3.9-2.46,4.91,2.6,8.08-.05,10.79-3.72h0Z" fill="#41463d"/><path d="M51.74,164.1c-3.39-1.6-6.78-3.2-9.56-4.51v-13.83h1.34v12.86h1.41v-11.02l2.12-.22c.15,2.28,.3,4.56,.45,6.85,.15,2.41,.29,4.82,.44,7.24l1.86-.09v-10.42h1.85v13.28l.09-.13h0Z" fill="#41463d"/><path d="M16.56,74.46V29.32l.96-.32,3.61,6.97-3.49,.2v38.17l-1.08,.13h0Z" fill="#41463d"/><path d="M40.26,216.3l1.05,.61c.08,.81,.47,1.76,.19,2.42-.86,2.02-1.99,3.93-3.01,5.88-1.26-1.28-2.9-2.36-3.7-3.88-1.09-2.06-1.56-4.45-2.55-7.48,3.01,.92,5.51,1.69,8.01,2.46h0Z" fill="#41463d"/><path d="M37.05,141.51v14.07h1.56v-12.19c2.54,2.75,2.85,8.72,1.17,13.97-4.8,0-4.97,1.29-4.24-15.66l1.51-.2h0Z" fill="#41463d"/><path d="M93.54,217.49c1.71,.16,3.42,.32,5.13,.49-3.44,2.73-6.6,6.06-10.46,7.92-1.84,.88-5.03-1.04-7.9-1.77,2.15-1.09,3.7-1.87,5.25-2.66l-.02,.1c2.67-1.36,5.33-2.72,8-4.07h0Z" fill="#41463d"/><path d="M73.16,233.12l.17,.15c-.81-3.03-1.63-6.06-2.75-10.22,2.68,1.8,4.57,2.67,5.89,4.08,1.29,1.38,2,3.31,2.96,5l-6.27,.99Z" fill="#41463d"/><path d="M39.26,108.19c5.68,4.51,2.23,10.23,3.56,15.16-4.65-1.13-5.04-2.8-3.56-15.16Z" fill="#41463d"/><path d="M46.66,92.04v-31.44h.9v31.41l-.9,.03Z" fill="#41463d"/><path d="M46.78,129.52v15.02c-2.22-1.61-2.79-7.66,0-15.02Z" fill="#41463d"/><path d="M55.24,165.59l1.28,.18c.37-3.65,.75-7.31,1.1-10.81,1.56,.63,2.22,5.96,1.98,16-1.93-2.44-3.13-3.95-4.33-5.45l-.03,.08Z" fill="#41463d"/><path d="M35.4,36.47c4.51,4.05,1.3,9.52,2.01,14.37-4.78-3.99-1.66-9.42-2.01-14.37Z" fill="#41463d"/><path d="M37.34,68.09c-4.1-4.09-1.6-9.09-2.32-13.66,4.97,3.85,1.18,9.19,2.32,13.66Z" fill="#41463d"/><path d="M63.34,267.33c-.38-2.42-.76-4.85-1.14-7.27l1.05-6.93,1.56,.15v16.42l-.97,.1-.49-2.48h0Z" fill="#41463d"/><path d="M44.1,72.33c-4.99-2.41-5.89-6.71-3.05-16v13.37l1.32-.05v-11.38h1.73v14.06Z" fill="#41463d"/><path d="M51.65,164.23l1.98-11.55c1.92,3.69,2.09,7.45,1.04,11.33-.12,.45,.35,1.07,.56,1.6,0,0,.04-.08,.05-.09-1.17-.48-2.35-.95-3.53-1.41l-.09,.13h-.01Z" fill="#41463d"/><path d="M60.7,186.12c-5.62-.95-3.6-5.45-3.08-9.35,1.61,2.77,3.21,5.54,4.82,8.31-.58,.35-1.16,.69-1.73,1.04h-.01Z" fill="#41463d"/><path d="M39.64,91.78l.54,3.14s.07,0,.08-.05c.1-.79,.19-1.57,.98-2.35v14.14c-5.1-4.71-1.19-10.19-1.6-14.88Z" fill="#41463d"/><path d="M54.71,114.28c-2.28-4.85-.71-9.99-1.09-14.98l1.59-.15,1.03,14.85-1.54,.28h.01Z" fill="#41463d"/><path d="M55.56,96.48c.56-4.16,1.11-8.31,1.67-12.47l.32-.06v12.59h1.17v-11.56l.81,.02v13.96c-1.55-1.05-2.69-1.83-3.83-2.61l-.14,.14h0Z" fill="#41463d"/><path d="M53.86,149.76v-15.66l.85-.07v15.7l-.85,.04h0Z" fill="#41463d"/><path d="M46.08,109.41v-14.66l.76-.1v14.72l-.76,.04Z" fill="#41463d"/><path d="M40.14,126v14.75l-.64,.12v-14.79l.64-.08Z" fill="#41463d"/><path d="M50.29,147.35v-14.42h1.01v14.29l-1.01,.12h0Z" fill="#41463d"/><path d="M55.7,96.34c-.64-.4-1.82-.79-1.83-1.21-.13-4.48-.08-8.97-.08-13.46l1.78-.06v14.86l.14-.14h0Z" fill="#41463d"/><path d="M43.75,39.72l.73,14.82-1.35,.08c-2.73-4.77-.24-9.92-.86-14.85l1.48-.06h0Z" fill="#41463d"/><path d="M33.95,223.82c1.66,2.8,2.81,4.73,3.95,6.66-1.08,.3-2.35,1.13-3.2,.81-3.22-1.19-2.66-3.52-.75-7.47Z" fill="#41463d"/><path d="M35.66,103.42v-13.52l.75-.05v13.53l-.75,.05h0Z" fill="#41463d"/><path d="M50.98,97.37v13.35l-.88,.04v-13.43l.88,.05h0Z" fill="#41463d"/><path d="M46.97,112.89v13.61l-.8,.1v-13.78l.8,.07Z" fill="#41463d"/><path d="M55.11,117.28v13.36l-.85,.08v-13.44h.85Z" fill="#41463d"/><path d="M16.4,104.68v-18.54h.45v18.54h-.45Z" fill="#41463d"/><path d="M44.22,76.85v13.06h-.75v-13.06h.75Z" fill="#41463d"/><path d="M39.15,88.02l.62-13.81,1.82,.06-.71,13.83-1.73-.09h0Z" fill="#41463d"/><path d="M53.91,76.79v-13.08l.87-.02v13.08l-.87,.02Z" fill="#41463d"/><path d="M50.08,75.36v-12.86l.78-.02v12.86l-.78,.02Z" fill="#41463d"/><path d="M43.39,128.55v13.99h-.83v-14.3l.83,.31Z" fill="#41463d"/><path d="M51.09,115.08v12.85h-.86v-12.91l.86,.06Z" fill="#41463d"/><path d="M18.18,141.23l1.91,8.73c-1.74-.7-3.45-1.39-5.59-2.26,1.81-1.77,5.78-2.79,1.47-6.44l2.2-.03h.01Z" fill="#41463d"/><path d="M36.72,124.7v13.94l-.95,.04v-13.86l.95-.13h0Z" fill="#41463d"/></g></g></g></g></svg>