<?xml version="1.0" encoding="utf-8"?>
<!-- Generator: Adobe Illustrator 26.3.1, SVG Export Plug-In . SVG Version: 6.00 Build 0)  -->
<svg version="1.1" id="b" xmlns="http://www.w3.org/2000/svg" xmlns:xlink="http://www.w3.org/1999/xlink" x="0px" y="0px"
	 viewBox="0 0 29 24.3" style="enable-background:new 0 0 29 24.3;" xml:space="preserve">
<style type="text/css">
	.st0{fill:#E4D6A7;}
	.st1{fill:#41463D;}
</style>
<path class="st0" d="M0.3,10.4L0,7l5.5-1.9l5,3.5l1.1-5.2c0,0,3.9-0.5,4.5-0.3s-0.5,11.7-0.5,11.7L10,16.3L0.3,10.4z"/>
<g id="c">
	<g id="d">
		<g id="e">
			<g id="f">
				<g>
					<path class="st1" d="M8.2,9.3C10,8.8,10.3,7.6,10.1,6c-0.1-0.6,0-1.2,0-1.8c0-1.3,0.5-1.7,1.6-1.5L12.6,1l-0.1-0.1L12,1.2
						l-0.2-0.8C12.6,0.3,13.4,0,14.1,0c0.3,0,0.7,0.4,1,0.6c-0.2,0.3-0.5,0.6-0.7,0.9c-0.1,0.1-0.1,0.1-0.3,0.2L16,3l-1.9,0.6
						l0.1,0.2l2.4-0.7c-0.2,0.6-0.3,1-0.4,1.4c-0.2,0.6,0.4,1.3-0.5,1.8V4.1l-0.8,0.2v5c0.9-0.6,0.6-1.3,0.7-1.8
						c0.1-0.4-0.2-0.9,0.5-0.9c0,0.7-0.1,1.4-0.1,2.2c0.4-0.1,0.7-0.2,1-0.3c0.2-0.1,0.5-0.3,0.7-0.4c-0.2-0.2-0.4-0.4-0.6-0.6
						c-0.3-0.3-0.7-0.6-1-0.8c0.6,0.2,1.2,0.4,1.7,0.7c0.8,0.5,1.6,0.7,2.5,0.2C21,7,21.6,7.4,22.1,7.9c-0.7,0-1.6-0.2-1.7,1
						c0.3,0,0.5-0.1,0.8-0.1c0.3,0,0.5,0,0.8,0L22,7.9l0.4,1.3c0.3,0,0.8,0,1.2,0.1c0.1,0,0.2,0,0.2,0.1c0.2,1.4,1.5,1.8,2.5,2.6
						c0-1.5,0.2-3.2-0.1-4.8c-0.2-1.2,0-2.4,0-3.7l-2-0.3V3h2c-0.4-0.2-0.5-0.3-0.5-0.3L26.3,1l0.2,1.5h0.1l0.1-1.3
						c0.5,0.7-0.1,1.7,1.2,2.1c-0.7-0.2-1,0-1,0.6c0,2.3,0,4.7,0,7c0,0.6,0.1,1.2,0.1,1.8c0.3,0.4,1.6-0.4,1,0.9l-1-0.2v0.9l2,0.1
						v0.3l-3.1,0.3c0-1.1,0.3-2.2-1.2-2.8l0.4-0.2c-0.9,0.2-1.7,0.6-2.6,0.6c-0.8,0-1.6-0.3-2.1-0.4c-0.2-0.6-0.2-1-0.4-1.3
						c-0.1-0.2-0.6-0.2-0.9-0.2c-0.8,0.2-1.6,0.5-2.3,0.7c-0.3,0.1-0.5,0.3-0.7,0.4c0.2,0.2,0.4,0.5,0.7,0.6
						c0.7,0.4,1.5,0.8,2.5,1.3c-1.5,0.6-2.9,1.1-4.2,1.7c-0.3,0.1-0.5,0.5-0.8,0.7c-0.5,0.4-1,0.8-1.6,0.9c-1.1,0.2-2.2,0.4-3.3,0.4
						c-1.1,0-1.4-1-1.7-1.9l-0.6,0.3v-1.7c-0.7,0.2-1.4,0.4-2,0.7c-1.3,0.6-2,0.3-2.5-0.9c-0.1-0.3-0.4-0.7-0.6-0.7
						c-0.9,0-1-0.6-1.4-1.4C-0.3,10.5,0.3,8.8,0,7c0.6,0.2,1.1,0.4,1.5,0.7C1.7,7.8,1.9,8.2,2,8.5l0,0l-1.7-1v2.9l0.7,0
						c0.4,0.4,0.9,0.9,1.4,1.4c0,0,0,0-0.1,0.1c0,0,0,0.1,0,0.1c0.5,0.2,1.1,0.5,1.6,0.7l0.1-0.2L3.8,12l0.6,0.1v-2h0.2v2.2l0.3,0
						c-0.1-0.9,0.5-2-0.5-2.8l3.3-0.6l0,0.1l-1,0.4l0,0.2l1.1-0.1l-0.7,1c-0.3-0.1-0.6-0.1-1-0.2c0,0.9,0,1.7,0,2.5
						c0,0.2,0.2,0.4,0.3,0.5c0.3,0.3,0.6,0.5,1.1,0.9c0-1.3,0.4-2.5-0.4-3.7c0.6,0.3,0.8,0.7,0.7,1.4c-0.1,0.5-0.1,1.1,0,1.6
						c0,0.3,0.4,0.7,0.4,0.7c0.6-0.2,0.8,0.3,1,0.6c0.6,0.5,1.1,0.4,1.5,0.1l-0.3-2l-0.2,1.1c-1.8-0.4-2-1-1.2-2.8
						c1.7,1.1,3-0.5,4.5-0.8C11.8,9.4,10.1,8.9,8.2,9.3L8.2,9.3L8.2,9.3z M3.6,13.7L3.6,13.7l-0.3,0l0.5,0.4l0.1-0.2L3.6,13.7
						L3.6,13.7z M20.6,10.9l0.6,0.4l0.2-0.2v1l0.2-0.4l0.4,0.7l2-1.6C22.8,9.6,21.7,10.8,20.6,10.9L20.6,10.9z M13.1,9.6
						c0.3-0.1,0.6-0.1,0.6-0.2c0-1.6,0-3.2,0-4.8l-0.2-0.1c-0.1,0.2-0.4,0.4-0.4,0.7C13.1,6.6,13.1,8.1,13.1,9.6L13.1,9.6z
						 M16.6,9.5c-2.1,0.6-2.2,0.7-1.9,2.4c0.1-1.5,1.4-0.2,1.9-1.1V9.5L16.6,9.5z M12.2,4.4h-0.2v4.8h0.2V4.4
						C12.2,4.4,12.2,4.4,12.2,4.4z M10.9,8.7h0.2V4.8h-0.2V8.7z M11.6,3.3c0.8,0.9,1.7,1,2.3,0.4L11.6,3.3z M5.5,13.2
						c0.5-1.3,0.4-2.7,0-3.1V13.2z M10.6,3.8h-0.1v4.8h0.1V3.8z M14.1,9.9L14.1,9.9l0.1-4.9h-0.1V9.9L14.1,9.9z M19.3,9.7
						c-0.9-1.2-1.2,0-1.8,0.2L19.3,9.7z"/>
					<path class="st1" d="M7.9,22l1.6,1.1l-0.2,0.3L8,22.9L7.8,23l0.9,0.8c-0.6,0.2-1.2,0.4-1.8,0.4c-0.5,0.1-1.1,0-1.5,0l-0.8-1.2
						l-0.4,0.5c-0.7-0.4,1.3-1.3-0.3-1.4l0.7-1.5l0.4,1.4l0.2,0v-1.4C6,22,6.5,21.1,7.2,20.5l0.2,1.7l0.4-0.9l0.1,0L7.9,22
						C7.9,22,7.9,22,7.9,22z"/>
					<path class="st1" d="M2,8.5c0.6-1.1,1.3-2,2.5-2.6l0.2,0.3C4.4,6.5,4,6.7,3.7,7c-0.3,0.3-0.6,0.8-1,1.1C2.6,8.3,2.3,8.4,2,8.5
						L2,8.5L2,8.5z"/>
					<polygon class="st1" points="3,11.9 3,11.9 3,11.9 					"/>
					<path class="st1" d="M3.6,13.7C3.6,13.7,3.6,13.8,3.6,13.7C3.6,13.8,3.5,13.8,3.6,13.7C3.5,13.8,3.6,13.7,3.6,13.7L3.6,13.7
						L3.6,13.7L3.6,13.7z"/>
				</g>
			</g>
		</g>
	</g>
</g>
</svg>
