<?xml version="1.0" encoding="UTF-8"?><svg id="b" xmlns="http://www.w3.org/2000/svg" viewBox="0 0 170.49 95.12"><g id="c"><g id="d"><g id="e"><g><path d="M96.84,32.94l12.12,2.2,.27-1.47-5.52-.46-.11-.59,4.88-1.26-3.75-1.34V10.67l26.19,7.4c.19-3.38,.4-5.49,.38-7.59-.13-8.09,3.7-11.66,11.85-10.13,5.63,1.07,11.15,2.92,16.56,4.82,1.05,.38,1.96,2.49,2.04,3.86,.27,4.74-.29,9.6,.32,14.29,.29,2.22,2.41,4.24,3.86,6.25,1.42,1.98,3.03,3.83,4.58,5.79-5.71,1.37-11.58,1.58-16.06,4.21-3.81,2.22-6.57,2.49-10.37,1.26-1.77-.56-4.42-.51-5.84,.46-5.36,3.67-10.43,1.72-15.76,.16-6.03-1.74-12.2-2.98-18.23-4.61-2.65-.72-5.2-1.98-7.77-3l.38-.86h0v-.03Zm24.74-14.82l-12.95-3.67v5.71l5.01,1.45,1.45-3.46h1.31c.24,2.39,.38,4.74,.72,7.1,.35,2.36,.86,4.69,1.31,7.05l1.61-.16c0-1.96-.19-3.94,.05-5.87,.35-2.79,.99-5.52,1.53-8.28,.54,3.51,1.1,7.02,1.64,10.53,1.07,7.02,1.85,7.64,9.76,7.88V9.27c-1.85,11.28-3.78,12.81-11.45,8.85h0Zm17.56-11.98c.38,2.65,.19,5.66,1.42,7.85,.54,.96,5.58,.94,5.87,.24,1.15-2.73,1.23-5.92,1.74-9.14l-9.06,1.05h.03Zm.11,11.93l.43,7.29c2.01-1.47,2.98-2.41,4.1-3,1.39-.7,2.92-1.13,4.4-1.66l.62,2.25-6,.96,5.84,2.49,2.68-8.36h-12.06v.03Zm-30.77,4.18c-.48,6.11,.67,7.34,6.73,7.56,.38-5.84,.24-6-6.73-7.56Z" fill="#41463d"/><path d="M54.65,80.84c-3.59,.48-7.18,.94-10.75,1.5-3.83,.62-7.61,1.66-11.47,1.98-4.13,.32-8.34,.19-12.49-.08-2.49-.16-4.93-.96-7.42-1.47l1.77-3.35c-1.13-.38-2.25-1.05-3.38-1.07-1.69-.03-3.38,.35-5.04,.59-3.19,.48-6.14,.54-5.84-2.79,1.07-1.8,2.89-3.56,3.06-5.44,.43-5.31,.13-10.67,.48-16.03l1.29,13.59,1.15-.08,.99-14.18,1.26-.08,1.64,20.32,2.04-5.79c.86,1.5,1.29,2.81,2.2,3.65,.51,.46,2.14,.51,2.63,.05,1.1-.99,2.44-2.39,2.55-3.7,.32-4.26,.11-8.55,.11-12.33,1.39,.83,2.95,2.39,3.62,2.06,1.64-.78,3.97-2.36,4.02-3.7,.13-4.15-1.53-8.34,3.59-11.18,.99-.56,.13-4.48,.13-6.78l3.56,2.95-1.58,5.87,.88,.27,3.51-8.18-1.07,9.11c4.26-1.88,2.79-6.3,5.6-9.46-.67,3.62-1.29,6.19-1.61,8.76-.35,2.79-.4,5.63-.56,8.28,2.36,.83,4.07,1.53,5.87,2.04,3.75,1.02,5.49,2.63,2.65,6.46-.62,.86-.32,2.55-.13,3.78,.29,1.82,1.53,3.7,1.23,5.36-.8,4.64,1.1,7.05,5.84,7.85l-.35,1.26v-.05h.03Zm-9.65-19.16c-3.86-8.12-10.91-6.19-21.9-1.21l21.9,1.21Zm-13.43,15.04h-13.7c4.72,4.45,11.77,4.24,13.67,0h.03Zm6.67-7.88l-12.95-4.1,1.45-1.29-.64-.99-5.63,2.87,.67,1.45,9.94,.62c-1.02,.43-1.58,.67-2.14,.94-.05,.03,0,.29,0,.51h9.3Z" fill="#41463d"/><path d="M85.04,76.9l3.97,3.08-1.88-12.76,5.66,6.67,1.02-4.42,1.13,3.89,2.55-3.46,1.66,10.59c.72-1.74,1.15-3.38,2.04-4.72,.7-1.05,1.93-1.69,2.95-2.52,.59,1.15,1.39,2.25,1.66,3.48,.27,1.1-.05,2.33-.08,2.95l7.02-1.29,.4,4.18,1.23-1.42,3.62,12.09c-8.74,.7-17.8,2.17-26.8,1.82-4.15-.16-8.36-3.56-12.09-6.16-1.21-.83-1.74-4.37,1.55-4.8,2.28-.29,4.66,.35,8.5,.72l-6.38-6.25,2.33-1.66h-.05v-.03Z" fill="#41463d"/><path d="M124.07,32.89v-11.55c2.28,2.33,4.29,3.46,4.74,5.04,.91,3.22,0,6.03-4.74,6.54h0v-.03Z" fill="#41463d"/></g></g></g></g></svg>