<?xml version="1.0" encoding="UTF-8"?><svg id="b" xmlns="http://www.w3.org/2000/svg" viewBox="0 0 111.35 104.6"><g id="c"><g id="d"><g id="e"><g><path d="M80.42,85.48h-2.25c-5.06-.56-10.12-1.12-15.18-2.25,0-1.69,5.06-3.37,0-5.62l-1.12,1.69v-2.25h-1.12v4.5c-4.5-3.37-8.44,0-12.93,0h1.69l-1.69-1.12h2.81l5.06-2.81h-5.06s1.69-.56,2.81-1.12c1.69-1.12,2.81-2.25,4.5-2.81,0,0,1.12,0,2.25-.56v-1.12c-3.37-1.69-2.81,2.81-5.62,3.37v-2.81s2.25-1.12,1.69-2.25c5.06,1.69,1.69-2.81,2.81-3.94v2.25h1.69l-1.12-3.94h.56s3.37,1.69,5.06,2.25c1.69,0,3.37,1.69,5.06,.56v-10.12c-3.37,0-3.94,.56-4.5,5.62-2.25-1.12-4.5-2.25-6.19-3.37-3.37-2.25-3.94-2.25-6.75,1.69h3.94s2.81,1.12,5.06,2.81h-3.37c-1.12,4.5-5.62,3.94-7.87,6.19l-1.69-1.69,1.12,2.81-7.31,3.94h3.94v6.19c-3.94,0-4.5,1.12-5.06,3.94h-2.81v1.12h1.12c-3.37,3.94-7.31,2.25-11.25,1.69,1.69-3.37,3.37-7.31,5.62-10.68,0-1.12,2.25-1.12,3.37-1.69h3.94c1.69-2.81,5.06-2.25,6.75-4.5l-3.37-5.06,7.87,2.81,2.81-5.62-6.19-1.12v-1.69l7.31-3.94c-1.12-3.37,3.37-2.81,4.5-5.06-1.69-1.12-3.94-2.25-1.69-5.06h0s4.5-1.69,6.75,0h-3.37s6.75-1.12,4.5,4.5l3.37-1.69v-16.87h1.12v11.81h5.62l-1.12,3.94s3.37-2.81,5.62-3.94c1.69-1.12,3.94-2.81,5.62-3.94,1.69-1.12,2.81-1.12,5.06,0l-9,7.31s3.94-.56,5.62-1.12c1.69,0,2.81-1.69,4.5-2.25h2.25c-3.37,2.25-7.31,3.94-11.25,6.19l3.94,1.69h-2.25l1.12,2.81-3.94-2.25,1.12,3.94h1.69s-2.25,4.5,1.69,5.06v-2.25l1.12,2.25,1.12-4.5,3.94,5.06,1.12-2.25h0s-.56,4.5-1.69,6.75c-1.12,2.81-3.37,5.62-1.69,9h0l-3.37-2.81c3.37,0,3.37-3.94,3.94-5.62,1.12-2.25-1.12-3.37-3.37-4.5v5.62c0,2.81-1.69,1.69-2.81,1.12l1.12-2.25h-1.69l3.37-3.37-2.81-1.12-2.25,2.25,1.69,1.12h-2.81l3.37,2.81c-3.37,1.12-3.94-2.81-6.19-3.37l1.12-3.37-7.87-2.25h2.25s-1.12-1.12-1.12-1.69c0,0-.56,0-1.69-1.12,1.69,7.31,5.06,12.93,11.25,16.87l-3.94-2.25v3.37s-1.69-2.25-2.81-3.94c-2.25-3.37-2.81-3.94-5.62,0v-3.37h0l-1.69,3.37h-3.94l4.5,1.69h-3.94l3.37,1.69s-2.25,1.12-1.69,1.12c0,2.25,0,5.06,1.12,7.31h1.12c2.81,0,6.19,0,9,.56,1.69-3.37,1.12-3.94-2.81-4.5l1.69,2.25h0s-2.25,0-2.25-1.12c-1.12-1.69-1.69-3.37-4.5-1.69,0,0-1.12,0-1.69-.56h0l6.19-1.69h0l1.12,1.12,3.37-2.81s1.12,0,1.12,.56c1.12,1.69,2.25,3.37,3.37,5.62h-2.81l1.12,4.5h-3.37Zm-8.44-34.87l-1.69-1.12h-.56s2.25,2.25,2.25,2.81c0,2.81,2.25,4.5,3.94,6.19,2.25,2.25,5.06,2.25,7.31-.56-1.12-.56-1.69-1.12-2.81-1.69-2.25-1.12-5.06-1.69-6.75-4.5l2.81,1.12s1.12-2.81,.56-3.37c-1.69-2.25-2.25,0-2.81,1.12l-2.25-1.12h0v1.12Zm-11.25,1.69l2.25,1.12-1.69-2.81s-.56,3.37-1.12,5.06c0,.56,1.12,1.69,1.69,2.25h.56l-1.69-6.19v.56Z" fill="#41463d"/><path d="M90.54,74.23s1.69,.56,2.25-.56c1.69-3.37,3.37-6.75,5.06-10.12v-1.69c.56-.56,1.69-1.12,2.25-2.25,.56-1.12,1.12-2.81,2.25-3.94,0-.56,1.69-1.12,2.25-1.69,0,0,1.69,.56,1.69,1.12,0,1.12,0,2.25-.56,3.37-1.69,2.25-1.69,4.5,1.12,6.75h-5.06v1.12h-2.81l-1.12,2.25c4.5,3.37,7.31-1.69,11.25-1.69v-1.69l2.25,2.25-16.31,9h2.81s-2.81,1.12-.56,2.81l-5.62,1.12v2.25h0s-4.5,0-4.5-1.12c0-1.69,0-3.37-2.25-4.5,1.12,0,1.69,1.12,2.81,1.12s2.25,0,2.81-.56c.56-1.12,1.69-2.25,0-3.37h0Z" fill="#41463d"/><path d="M64.67,38.8l-3.37,1.69s-1.12-1.12,0-2.81c.56-1.69,0-4.5,0-6.19v-10.12h.56v15.75h.56V3.37h-.56v14.06h-1.12V7.31c0-2.81,0-5.62,2.81-7.31l3.94,1.69h0c-2.25,2.25-1.69,5.06-1.12,7.31,0,9.56,0,19.68,.56,29.8h-2.25s1.69-1.12,1.69-2.25V1.69h-.56V38.24h0l-1.12,.56Z" fill="#41463d"/><path d="M80.42,85.48h1.69s1.69,1.69,2.81,2.25c1.12,1.12,0,3.37-1.69,3.94h-15.18v1.69s-5.06,0-7.31-.56c0,0-1.12-.56-1.12-1.12l1.12-1.12,2.25-2.81h19.68s1.12-2.81-1.12-2.81h0l-1.12,.56Z" fill="#41463d"/><path d="M17.43,55.11v-2.81s3.94,1.12,5.62,1.69c2.81,.56,5.62,2.25,7.87,0h1.69s0,.56-.56,1.12v1.12c.56,1.69,0,2.25-1.69,2.81-1.69,0-1.69,1.12-1.69,3.37-3.37-1.12-6.75-.56-9.56-3.37h-2.25s1.12-.56,1.69-1.12h2.25c5.62,2.25,5.06,2.25,8.44-2.25l-10.68-2.81v1.69h-1.12v.56Z" fill="#41463d"/><path d="M25.87,70.29v-1.69l-2.25,2.25-2.25-2.25s-3.94,0-5.62,3.37c-1.12,2.25-2.81,2.25-5.62,1.12,0-1.12,.56-2.81,1.69-3.37h3.37c3.94-4.5,10.12-2.25,15.18-5.06l-4.5,5.62h0Z" fill="#41463d"/><path d="M36.55,43.3V25.31c0-.56,1.12-1.12,2.25-2.81v18c0,.56-.56,1.69-1.12,2.25h-1.12v.56Z" fill="#41463d"/><path d="M42.18,22.49s.56,2.25,.56,3.37c0,5.06,0,9.56,1.12,14.62,0,1.12,1.12,1.69,1.69,3.37l-2.25,2.25,2.25,1.12-5.62,1.69h-.56c4.5-1.69,3.37-4.5,2.81-6.75V23.62h0v-1.12Z" fill="#41463d"/><path d="M48.36,46.67s-1.12-5.06-1.12-7.31c0-1.12,.56-2.25,1.12-3.37h2.25v3.37h-.56v-2.81h-1.12l-1.12,6.19h.56v-1.12l4.5,4.5h-5.06l.56,.56Z" fill="#41463d"/><path d="M0,64.11c2.81-2.81,8.44-3.94,11.81-2.25l-11.81,2.81v-.56Z" fill="#41463d"/><path d="M57.92,44.43s-1.12,.56-1.69,1.12c-1.12,1.12-2.25,1.12-2.81-.56l2.25-1.12s-1.69-1.69-1.69-2.25c0,0,0-1.69,1.12-2.81v3.94h1.69v-3.37l3.37,2.81-1.69,2.81h0l-.56-.56Z" fill="#41463d"/><path d="M37.12,70.29v-2.81h0v2.25h6.19v1.12l-14.06,2.81h0l7.87-3.37h0Z" fill="#41463d"/><path d="M48.36,46.67s-1.69,2.25-2.25,3.37v1.69c1.69,2.81,1.69,2.25-1.69,3.37-.56-3.37,0-6.19,1.69-9l1.69,1.12h0l.56-.56Z" fill="#41463d"/><path d="M39.36,60.17s0,3.94,3.37,3.37v1.12h-4.5s0-2.81-.56-3.94c-.56-1.12-2.81-1.12-3.94-2.25h3.94l1.69,1.69h0Z" fill="#41463d"/><path d="M35.99,68.61l-7.87,2.25s1.69-2.81,2.25-3.94c.56-.56,2.25-.56,2.81,0,1.12,0,1.69,1.12,2.25,2.25l.56-.56Z" fill="#41463d"/><path d="M47.24,84.91l2.81-2.25v1.12l-1.69,1.69,5.06-1.12-3.37,4.5-3.37-3.94h.56Z" fill="#41463d"/><path d="M105.72,80.98l-3.94,1.12-2.25-3.37c3.37-2.25,4.5,1.12,6.19,1.69v.56Z" fill="#41463d"/><path d="M57.92,104.6s12.93-6.75,15.18-4.5c-2.25,0-5.06,1.12-7.87,1.69-2.81,.56-5.06,2.25-7.31,2.81h0Z" fill="#41463d"/><path d="M93.91,58.48s0-2.25-1.69-2.81c1.12-1.69,3.94-1.12,6.19,1.69l-3.94-1.69,1.12,3.94-1.69-1.12h0Z" fill="#41463d"/><path d="M46.67,84.91s1.69,3.37-1.12,3.94v-2.81l-3.94-2.25s2.25-1.69,3.37,0l1.69,1.69h0v-.56Z" fill="#41463d"/><path d="M50.61,55.67c-2.81-2.81,0-5.62-2.25-7.87,3.37,0,2.25,1.69,2.25,3.37v4.5h0Z" fill="#41463d"/><path d="M10.12,64.11s-4.5,3.37-7.31,1.12l7.31-1.12Z" fill="#41463d"/><path d="M71.98,32.05c-.56,2.81,2.81,5.62,.56,9h-.56v-9Z" fill="#41463d"/><path d="M39.36,60.17l5.62-2.81-1.12,3.37h-4.5v-.56Z" fill="#41463d"/><path d="M22.49,80.42l1.12-2.25s3.94-1.12,6.19,0l-7.31,1.69v.56Z" fill="#41463d"/><path d="M51.17,95.6l1.12-3.94-3.37,1.12h0s2.25-1.12,3.37-1.12c0,0,1.12,1.12,1.12,1.69,0,1.12-.56,2.25-1.12,2.81h-1.12v-.56Z" fill="#41463d"/><path d="M36.55,91.1h3.94v3.94h0v-3.94h-3.94Z" fill="#41463d"/><path d="M66.92,43.3l-4.5-2.25q4.5,0,4.5,2.25Z" fill="#41463d"/><path d="M61.86,87.73h-2.81c-1.12,0-1.69,0-3.37,1.12,2.25-2.25,3.94-2.25,5.62-2.25v1.12h.56Z" fill="#41463d"/><path d="M73.11,76.48s-1.12-1.12-1.12-1.69v-1.69h2.25c.56,1.12,1.69,2.25-.56,2.81h0l-.56,.56Z" fill="#41463d"/></g></g></g></g></svg>