<?xml version="1.0" encoding="UTF-8"?><svg id="b" xmlns="http://www.w3.org/2000/svg" viewBox="0 0 15.9 13.55"><g id="c"><g id="d"><g id="e"><g><path d="M1.33,11.46c-.07-.26,0-.35,.4-.51v.43c.23,0,.21-.01,.21-.21,0-.14,.06-.29,.11-.42,.04-.12,.1-.24,.17-.39-.25,.08-.52,.24-.58-.23l.24,.25c.14-.03,.28-.07,.46-.11,0-.15,0-.31,0-.46,0-.27,.18-.41,.44-.32-.05,.04-.09,.07-.15,.12l.35,.18,.15-.25-.36-.05c.03-.21,.06-.41,.08-.61,.01-.12,0-.25,0-.37,.15-.01,.27-.02,.39-.03-.09,.07-.17,.13-.32,.24,.03,.1,.06,.25,.09,.35-.03,.08-.1,.17-.08,.21,.07,.1,.17,.18,.25,.27l.13-.06c-.03-.34-.05-.67-.08-1.01,.03-.09,.08-.18,.08-.27,.01-.42,0-.84,0-1.26,0-.32,0-.64-.4-.75-.04-.01-.06-.07-.12-.13,1.26,.5,2.48,.99,3.7,1.48,.09,.03,.18,.08,.27,.08,.06,0,.12-.07,.17-.1-1.49-.58-2.93-1.15-4.42-1.73,.26-.33,.49-.63,.73-.92,.32-.39,.66-.76,.98-1.15,.2-.24,.39-.48,.56-.73,.3-.45,.73-.68,1.21-.9,1.37-.62,2.72-1.27,4.07-1.91,.45-.21,.44-.22,.68,.19,.51,.89,1.03,1.77,1.54,2.66,.22,.39,.43,.78,.65,1.16,.03,.06,.11,.09,.21,.17l.19,.61h.07l.03-.59h.05v1.73h-.08v-.93c-.39,0-.4,.02-.4,.34,0,.76,.02,1.52,.03,2.29,0,.06,0,.12,.02,.18,.03,.14,.07,.28,.1,.42l-.08,.04,.31,.13,.06-.25,.33,.27-.02,.02-.28-.16c.03,.35,.38,.41,.47,.72-.2-.1-.37-.19-.53-.27l-.06,.04c.06,.11,.12,.23,.19,.33,.08,.12,.18,.23,.28,.34,.05,.05,.15,.11,.17,.1,.07-.04,.14-.13,.15-.2,.02-.17,0-.35,0-.47l.7,.47c-.17-.07-.33-.13-.51-.2,0,.07,0,.1,0,.12,.15,.15,.31,.3,.45,.46,.04,.05,.06,.18,.03,.2-.07,.06-.17,.11-.27,.12-.26,.02-.52,.01-.78,.03-.05,0-.15,.07-.15,.11,0,.2,0,.2-.08,.38-.07,0-.15-.01-.22,0-.09,.02-.24,.07-.24,.12-.06,.42-.36,.28-.62,.26,.06-.01,.12-.03,.17-.04,.06-.01,.13-.02,.19-.03v-.08h-.64l.11-.12h-1.11l.19,.29c-.15-.06-.28-.16-.4-.15-.14,0-.27,.1-.42,.17,.06,.1,.14,.16,.14,.23,0,.15-.06,.27-.24,.29-.14,.02-.31,.05-.39,.15-.14,.18-.22,.12-.33,0-.04-.05-.1-.09-.17-.14,.05-.04,.1-.06,.13-.1,.1-.1,.26-.13,.18-.37-.05-.15,.08-.36,.13-.54,0-.03,0-.07-.04-.13-.13,.31-.26,.63-.37,.91-.12,.06-.25,.15-.38,.17-.1,.01-.21-.06-.34-.11-.08,.04-.19,.13-.32,.17-.19,.06-.22,.21-.15,.34,.03,.07,.18,.1,.27,.14,.07,.03,.15,.04,.22,.06,.15,.04,.31,.06,.46,.12,.17,.06,.33,.15,.53,.24-.01,.04-.03,.16-.07,.17-.27,.09-.55,.17-.83,.21-.08,.01-.18-.11-.26-.18-.1-.08-.18-.18-.27-.26,.07,.04,.15,.07,.22,.11l.02-.05-.17-.19,.12-.13c-.38,.13-.49-.16-.62-.39-.19,.12-.18,.21-.01,.3,.11,.06,.21,.14,.31,.22-.19-.08-.37-.18-.57-.25-.08-.03-.17-.01-.26-.02v.08c.4,.27,.81,.55,1.27,.85-.32,.17-.63,.44-.99,.51-.36,.07-.76-.07-1.15-.12v-.17c-.52,.12-1.02,.09-1.52-.02v-.09c.09,.01,.18,.01,.25,.04,.36,.16,.5,.09,.55-.3,.01-.09,0-.19,.02-.28,.02-.09,.06-.18,.1-.31-.16-.2-.24-.2-.51,.12-.06-.05-.11-.1-.17-.14-.05-.04-.1-.07-.17-.11l-.3,.88c-.14-.21,.16-1,.42-1.16l.27,.28,.06-.04v-.36c-.27-.08-.55-.18-.83-.25-.07-.02-.17,.03-.25,.04-.05,0-.11,0-.16,0h-.32v.07l.14,.05v.03c-.08-.01-.2,0-.24-.04-.17-.21-.39-.19-.62-.19-.07,0-.14-.08-.21-.11-.2-.07-.4-.12-.67-.21l.2,.43c-.16,.24-.32,.18-.5-.04l.21,.04c-.1-.17-.18-.25-.36-.19-.15,.05-.34,.15-.48-.06-.1,0,.13,.25-.11,.15l-.07-.05h0Zm5.01,1.49l.3,.16,.12-.3-.08-.07c-.11,.08-.22,.15-.32,.23l-.21-.06c0,.13,0,.24,.03,.34,0,.02,.14,0,.21,0l-.04-.29Zm-1.52-7.24h-.01c.29,.03,.59,.05,.88,.07-.07-.12-.17-.21-.29-.26-.22-.08-.45-.16-.68-.21-.19-.04-.4-.12-.58,.06h0l-.36,.09c-.08,.2-.14,.37-.22,.57,.11,.01,.22,0,.32,.03,.07,.02,.12,.11,.19,.14,.3,.13,.6,.24,.91,.36,.06,.02,.14,.06,.19,.05,.05,0,.1-.08,.12-.13,.02-.04,0-.1-.02-.15,0-.01-.07-.02-.09,0-.02,.02-.02,.07-.03,.1l-.17-.06,.09-.25c-.26,.07-.43-.02-.58-.2l.4,.14-.1-.36h0Zm-.89,4.46l-.39,.16c.14,.11,.23,.19,.33,.26-.12-.05-.23-.1-.41-.19,.05,.11,.07,.14,.06,.13-.19,.15-.39,.28-.56,.45-.03,.03,.03,.25,.09,.28,.12,.06,.29,0,.41,.06,.31,.12,.47,0,.58-.27,.04-.1,.11-.2,.16-.29l-.21-.2c.06,.02,.13,.07,.19,.07,.07,0,.14-.05,.21-.08-.04-.05-.08-.11-.13-.15-.06-.05-.13-.09-.2-.14,.1,.03,.21,.08,.31,.09,.05,0,.1-.09,.15-.14-.14-.1-.26-.22-.41-.28-.06-.02-.29,.04-.19,.25h0Zm2.1,.06l.21,.1v-.6c-.11-.05-.09-.13,.02-.2l-.12-.45c-.04,.13-.03,.26-.04,.39-.02,.26-.05,.51-.07,.77,0-.41,0-.82-.03-1.23-.01-.15-.14-.29-.22-.43l-.07,.04c.02,.5-.05,1.01,.06,1.51h.08c0-.17,.01-.34,.02-.51,.06,.11,.04,.23,.06,.33,.01,.1,.06,.19,.09,.28h0Zm-.32,.79c.63,.19,.6,.26,.78,.02-.06-.02-.12-.03-.17-.06-.41-.18-.89-.18-1.23-.52-.01-.01-.06-.01-.09,0-.14,.06-.27,.12-.41,.18l.39,.18c-.08-.01-.17-.03-.25-.04l-.23-.04v.04c.47,.17,.94,.33,1.4,.5l-.02,.07c-.5-.15-.98-.4-1.51-.47-.01,.22,.08,.31,.25,.36,.26,.08,.51,.19,.77,.28,.4,.15,.5,.11,.75-.26-.14-.08-.28-.17-.42-.25h0Zm.75-4.4c-.06-.08-.1-.18-.17-.24-.05-.04-.15-.02-.23-.03,0,.06-.02,.16,.01,.18,.12,.07,.24,.24,.41,.08-.11,.11-.42,.15-.49,.03-.14-.25-.39-.04-.56-.18,.07,.15,.15,.3,.27,.36,.37,.18,.77,.31,1.12,.45,.33-.16,.65-.31,.98-.47-.04-.03-.05-.05-.06-.05-.32,.09-.63,.11-.93-.1-.08-.06-.23-.03-.34-.04h0Zm1.33,6.6l.45-.06v-.08l-.68-.49,.03-.04c.11,.06,.23,.11,.34,.17l.04-.05c-.07-.07-.14-.19-.22-.21-.21-.03-.43,0-.65,0-.02-.24-.07-.26-.31-.18-.17,.06-.35,.09-.56,.15l-.03,.47c.24-.11,.43-.21,.68-.32,.29,.21,.61,.44,.93,.67-.39,.06-.66-.16-.92-.45-.1,.5-.09,.57,.2,.64,.24,.06,.49,.06,.8,.1-.09-.07-.12-.09-.14-.11l.15-.07-.09-.11h0Zm.42-8.47c-.19-.34-.38-.67-.57-1.01l.42-.37c-.24,0-.35,.13-.5,.23-.18,.12-.46,.09-.71,.12,.28,.46,.57,.92,.85,1.39,.28,.57,.57,1.15,.85,1.72l.06-.02-.1-.32h.03l.19,.26,.47-.21c-.08-.2-.15-.39-.25-.57-.13-.24-.28-.47-.43-.7-.11-.17-.22-.34-.32-.51h0Zm1.91-1.04c-.11-.19-.23-.37-.33-.56-.09-.19-.19-.23-.33-.06,.07,.16,.14,.31,.22,.46l-.07,.03s-.06-.09-.1-.13c-.08-.1-.16-.2-.25-.3,.01,.14-.01,.3,.05,.41,.41,.64,.82,1.28,1.26,1.9,.24,.34,.43,.34,.8,.07-.48-.8-.96-1.6-1.44-2.41,0,.1,.03,.19,.06,.28,.04,.1,.08,.2,.11,.31h0Zm-4.19-.06c.18-.48-.3-.69-.46-1.04-.03,.07-.05,.16-.02,.21,.15,.28,.32,.55,.48,.83,.02,.02,.04,.03,.05,.05,.44,.67,.88,1.34,1.32,2.02,.02,.02,.01,.06,.02,.09,.05,.15,.08,.32,.17,.45,.12,.19,.29,.35,.43,.54,.21,.28,.21,.28,.56,.04-.46-.84-.94-1.68-1.4-2.53-.23-.43-.56-.77-.93-1.07-.04-.03-.06-.09-.1-.14l.03-.02,.49,.27c-.12-.22-.21-.41-.33-.58-.08-.12-.25-.32-.28-.31-.19,.1,.02,.18,.05,.28v.05l-.25,.03c.11,.25,.22,.5,.34,.77l.22-.1c-.09,.24-.27,.15-.41,.17Zm4.41-1.75c.04,.08,.07,.17,.12,.25,.35,.59,.71,1.17,1.06,1.76,.1,.17,.2,.34,.28,.49,.21,0,.35-.28,.61-.11-.14,.1-.25,.18-.35,.27-.04,.04-.1,.13-.08,.16,.06,.11,.13,.22,.22,.31,.04,.04,.14,.08,.19,.07,.23-.07,.44-.16,.7-.25-.08-.14-.14-.35-.22-.36-.3-.03-.33-.35-.56-.45l.2,.09,.04-.04c-.66-1.05-1.31-2.1-1.96-3.13l-.42,.13,.23,.16v.05h-.36l.3,.61h0Zm-.67-.73s-.08-.09-.12-.13c-.19-.21-.35-.2-.58,.04,.14,.27,.28,.56,.43,.84,.1,.19,.21,.37,.31,.55-.3-.42-.59-.85-.89-1.27-.11,.14,.14,.82,.41,1.06l-.1-.23,.06-.03c.16,.28,.32,.56,.5,.88v-.42s.11,.05,.13,.09c.09,.19,.15,.39,.25,.57,.36,.62,.72,1.24,1.1,1.86,.32,.53,.21,.65,.95,.22,0,0,0-.01,.03-.05-.12-.17-.26-.34-.37-.53-.41-.69-.77-1.41-1.21-2.08-.24-.36-.34-.81-.71-1.1-.03-.02-.03-.08-.04-.12,.04-.02,.09-.03,.11-.06,.1-.24-.07-.39-.19-.56-.19,.13-.16,.29-.08,.45h0Zm-.39,8.86l.33,.38,.05-.03-.07-.19,.06,.05c.15-.15,.38-.27,.43-.45,.1-.36,.15-.75,.15-1.12,0-.57-.04-1.14-.07-1.71,0-.09-.02-.17-.04-.28-.22,.11-.5,.11-.51,.38-.01,.61-.04,1.24,.04,1.84,.03,.25-.04,.28-.19,.36-.32,.15-.63,.3-.94,.46-.12,.06-.23,.14-.19,.31,.04,.18,.08,.36,.12,.54,.37-.05,.71-.1,.83-.54h0Zm.52-4.01c-.58-.84-.94-1.8-1.66-2.53-.05,.03-.12,.06-.12,.09-.02,.21-.12,.42,.04,.63,.21,.3,.39,.63,.57,.94,.21,.36,.42,.73,.64,1.09,.04,.06,.15,.13,.21,.12,.3-.04,.46-.21,.48-.48,.11,.12,.2,.3,.41,.06l-.55-.39v.46h0Zm-4.62-1.78c.17,.05,.32,.06,.42,.14,.2,.16,.2,.44,.04,.66-.13,.17-.11,.39,.07,.45,.2,.07,.42,.09,.6,.13,0,.08-.02,.19,.02,.23,.21,.24,.42,.47,.64,.7,.12,.12,.26,.2,.39,.09-.15-.3-.26-.59-.43-.85-.38-.59-.77-1.17-1.17-1.75-.23-.33-.54-.34-.87-.06,.47-.08,.6-.04,.8,.25l-.52-.17v.19h0Zm5.48,4.14c.02-.06,.04-.13,.06-.2,0-.04-.01-.11,0-.12,.3-.14,.27-.42,.33-.68,0-.03,0-.07,0-.1,0-.02,.02-.05,.05-.12-.01,.4,.01,.64,.08,.71,.04-.56,.08-1.09,.11-1.62h-.08l-.06,.45-.08-.51c-.28,.08-.53,.18-.54,.52l-.02-.28-.28,.12c.09,.63-.18,1.31,.41,1.82h0Zm-5.76,1.48c.05-.16,.15-.34,.17-.53,.03-.46,.02-.92,.02-1.39v-.34c-.1,.26-.12,.52-.18,.78-.02,.1-.1,.24-.18,.26-.16,.03-.34,0-.51-.02-.06,0-.13-.05-.17-.1-.18-.22-.33-.44-.32-.75,.01-.24-.03-.48-.04-.72h-.1c0,.49,0,.97,0,1.45,0,.14,.03,.29,.09,.41,.03,.07,.14,.13,.23,.15,.05,.01,.13-.05,.19-.1,.08-.08,.15-.17,.23-.26l.07,.05c-.08,.13-.21,.26-.22,.39,0,.09-.1,.33,.17,.33l.1-.21c.15,.19,.28,.37,.45,.59h0Zm3.14-.08c-.05-.05-.09-.09-.13-.11-.08-.04-.18-.07-.26-.11-.03,.08-.09,.15-.08,.23,.03,.29,.08,.58,.12,.87,.01,.1,.04,.2,.06,.34,.11-.1,.19-.17,.26-.23l.03,.03-.07,.19h.09l.03-.42-.29,.13-.03-.06c.13-.09,.26-.17,.42-.28,0-.8,0-1.65,0-2.51,0-.08-.03-.17-.05-.25h-.1v2.2h0Zm-.97-.13c.04-.08,.12-.17,.1-.21-.07-.15-.18-.29-.27-.43v1.92l.36-.32,.25,.09c-.02-.41-.04-.79-.07-1.19l-.38,.14h0Zm2.55-5.16c.09-.4-.25-.57-.37-.83h-.09c-.03,.14-.07,.3-.1,.46-.03-.01-.11-.03-.11-.06-.02-.26-.03-.51-.04-.8l-.42,.22,.77,1.32c.02-.15,.04-.27,.06-.41l.29,.1h0Zm-3.06,6.45l.08-.11c-.08-.07-.15-.18-.25-.21-.3-.11-.61-.2-.93-.29-.15-.04-.19-.12-.19-.27,.01-.62,0-1.25,0-1.87v-.74h-.09v3.02l1.37,.48h0Zm-1.47-6.91c-.45,.16-.56,.51-.56,.91,0,.05,.03,.12,.07,.15,.19,.16,.63,.17,.89,.01-.71-.15-.42-.65-.39-1.08Zm1.7-1.94c-.13,.04-.27,.06-.37,.13-.08,.06-.19,.21-.16,.28,.1,.26,.25,.51,.4,.78,.29-.55,.32-.82,.13-1.19h0Zm-.2,8.52l.07-.03v-2.64s-.07,.06-.07,.07c-.04,.79-.08,1.59-.1,2.39,0,.07,.07,.15,.1,.22h0ZM5.59,2.38l.03,.08c1.62-.77,3.23-1.55,4.85-2.32l-.03-.07c-1.61,.77-3.23,1.54-4.85,2.31h0Zm-1.6,7.5l-.09-.09c-.63,.18-1.15,.53-1.65,.93-.06,.05-.06,.18-.09,.27l.07,.04c.42-.48,.98-.75,1.54-1.02,.08-.04,.14-.08,.22-.12h0Zm-.28-4.67l.02,.07c.18-.05,.37-.09,.55-.16,.07-.03,.15-.13,.17-.21,.05-.24,.07-.49,.11-.72l-.84,1.03h0Zm1.59-2.5l-.08-.08-2.17,2.64,.06,.04c.73-.87,1.47-1.74,2.2-2.61h0Zm6.19,7.82v.08c.2,.03,.4,.08,.59,.07,.15,0,.31-.06,.43-.15,.1-.07,.15-.22,.24-.37-.42,.07-.83,.26-1.25,.36h0Zm-.21-1.18h-.11c-.04,.14-.09,.28-.12,.43,0,.05,.05,.15,.08,.15,.19,.02,.38,.03,.56,0,.15-.02,.2-.14,.13-.29-.22-.02-.48,.04-.55-.29h0Zm-.68-.61c-.39,.26-.26,.68-.39,1.07,.4-.2,.58-.8,.39-1.07Zm-7.2,.24h.08v-2.48h-.08v2.48Zm9.4-2.35c.05,.37-.35,.72-.05,1.1,0,.01-.01,.04-.01,.06-.03,.23-.06,.46-.1,.73,.23-.14,.28-.8,.17-1.89h0ZM6.74,3.48l.08,.02c.09-.19,.16-.39,.28-.57,.15-.23,.17-.43,.02-.67-.05-.08,0-.22,0-.34l-.25,.09c.37,.53-.1,.98-.13,1.46h0Zm6.47,6.7c-.07,.03-.19,.06-.27,.13-.07,.07-.09,.19-.14,.28,.12-.02,.24-.02,.36-.06,.09-.03,.18-.08,.26-.13,.04-.02,.09-.06,.09-.09,0-.04-.05-.08-.08-.1-.05-.02-.12-.02-.22-.04ZM11.49,1.91c-.09,.19,.48,1.15,.81,1.41-.28-.48-.53-.93-.81-1.41Zm-.97,9.28c-.27,.14-.54,.28-.8,.42l.02,.1c.08,0,.16,0,.22-.03,.09-.03,.17-.12,.26-.13,.25-.02,.35-.12,.29-.36ZM7.9,1.75l.25,.05,.03-.08-.33-.13c0,.11-.04,.21-.02,.32,.03,.27,.28,.22,.51,.32-.17-.19-.29-.32-.43-.48Zm2.46,9.24c.24-.08,.41-.14,.65-.22-.23-.1-.4-.17-.58-.25-.02,.14-.04,.26-.08,.48h0Zm2.71-1.74h.11c.03-.2,.06-.41,.09-.64l-.32-.08v.37l.19,.05-.08,.31h0ZM6.95,3.49l.07,.06c.14-.12,.28-.25,.42-.37l-.19-.34-.3,.65Zm2.81,1.86c-.08-.25-.08-.54-.32-.77-.08,.45-.04,.57,.32,.77Zm-.82-3.23c-.21-.48-.39-.71-.51-.68,.21,.21,.21,.56,.51,.68Zm.39,8.29l-.09-.03c-.04,.25-.07,.5-.11,.76l.48-.37-.03-.05-.26,.12v-.43h0Zm-6.95,.08c.14-.1,.25-.13,.3-.21,.05-.07,.07-.18,.05-.27,0-.04-.11-.07-.18-.1-.03,.07-.08,.14-.1,.22-.03,.09-.04,.19-.08,.36h0Zm2.27-2.14c-.1,.01-.16,0-.22,.03-.24,.06-.35-.03-.37-.27-.02-.2-.08-.4-.12-.6-.02,.23,.02,.44,.06,.66,.06,.36,.32,.44,.65,.19h0Zm-1.09,1.3c.17-.09,.33-.17,.48-.26,.02-.01,.04-.08,.03-.11-.01-.03-.06-.06-.09-.06-.29-.04-.45,.13-.41,.43h0Zm6.16,2.92c-.33-.16-.59-.05-.63,.23,.28,.14,.39-.18,.63-.23Zm-1.19-3.14l.57-.35c-.18-.23-.39-.11-.57,.35Zm-.13,2.11l.13-.59c-.26,.07-.3,.27-.13,.59Zm3.69-1.37v-.09c-.07-.03-.15-.09-.19-.08-.11,.05-.2,.13-.29,.2,.06,.04,.13,.14,.17,.13,.11-.03,.21-.1,.31-.16Zm-1.88-4.8c-.16-.2-.33-.4-.49-.6,.08,.47,.14,.54,.49,.6Zm-.88,3.64c.18-.13,.19-.18,.08-.6-.25,.09-.28,.18-.17,.64,0-.17-.01-.29,0-.41,0-.05,.07-.09,.1-.13,.01,.05,.03,.1,.03,.15,0,.11-.02,.21-.04,.35h0Zm-.78-6.72c.17-.14,.11-.33-.24-.62,.08,.2,.15,.4,.24,.62Zm2.26,3.48c-.14-.11-.27-.21-.4-.3l.12,.29-.04,.02c-.11-.09-.22-.19-.32-.28l-.04,.05,.38,.35,.31-.13h0Zm.76,3.51l.34,.21c.05-.17,.09-.3,.13-.46l-.47,.26h0ZM10.67,.67l-.06,.04c.19,.31,.38,.63,.57,.94l.08-.05c-.19-.31-.39-.63-.58-.94h0ZM4.12,7.52c.14-.43,.1-.64-.1-.68,.03,.23,.07,.46,.1,.68Zm8.49-1.18h.04v-.76h-.04v.76h0Zm1.58,3.56v.07c.22,.11,.41,.1,.57-.02l-.57-.05h0Zm-5.35,2.95c.1-.15,.15-.24,.21-.32-.14-.2-.23-.23-.43-.08l.24,.06-.02,.34Zm-.67-.97c.26-.35-.33-.28-.22-.56-.11,.26,.11,.38,.22,.56Zm-3.61-1.77l.09-.04-.09-.39-.28,.26,.28,.17Zm5.31,.34l-.08-.03c-.21,.13-.12,.35-.08,.56,.06-.18,.11-.35,.17-.53Zm.45-.41v.07c.14,.02,.27,.03,.39,.05-.03-.08-.09-.16-.17-.18-.06-.02-.15,.03-.22,.06h0Zm-1.32,.83c-.07,.14-.2,.31,0,.47v-.47Z" fill="#41463d"/><path d="M1.33,11.46l.07,.05c-.15,.05-.3,.14-.46,.13-.09,0-.17-.15-.26-.24l-.39,.28-.28-.31H.37l.09-.25,.38,.3,.21-.3c.03,.16,.02,.37,.28,.35h0Z" fill="#41463d"/><path d="M14.99,7.51l.53,.08c.14,.17,.24,.29,.38,.46-.3,.02-.56,.04-.82,.04-.04,0-.11-.1-.11-.16-.01-.12,.01-.25,.02-.42Zm.12,.39h.4c0-.17-.14-.26-.4-.26v.26Z" fill="#41463d"/><path d="M10.67,11.72l-.03,.15,.38,.23c-.15,.39-.17,.4-.45,.25,.05-.03,.09-.06,.13-.08,.04-.02,.09-.05,.14-.07-.23-.2-.49-.19-.61,.01-.06-.18,.03-.26,.19-.32,.08-.03,.14-.1,.25-.18h0Z" fill="#41463d"/><path d="M.71,8.37c-.28,.21-.44-.1-.68-.14l.43-.09v-.09l-.37-.1v-.06l.62,.05v.42h0Z" fill="#41463d"/><path d="M4.86,12.55c-.24,.21-.38,.03-.51-.03-.19-.08-.36-.18-.57,.03-.02-.1-.05-.17-.03-.21,.02-.03,.1-.05,.15-.04,.3,.07,.6,.15,.95,.24h0Z" fill="#41463d"/><path d="M13.71,3.35c-.08-.12-.17-.25-.24-.38-.02-.03,0-.12,0-.12,.29-.03,.1-.26,.21-.39l.1,.86-.08,.02h0Z" fill="#41463d"/><path d="M1.5,7.93l.03,.09c-.21,.08-.43,.17-.64,.24,0,0-.05-.06-.04-.08,.02-.04,.06-.09,.09-.1,.18-.06,.37-.1,.56-.15Z" fill="#41463d"/><path d="M1.01,12.04l.47,.2v.05c-.13,0-.27,.01-.4-.01-.03,0-.04-.14-.07-.24h0Z" fill="#41463d"/><path d="M.92,7.82l-.27,.03-.06-.25,.34,.14v.08h-.01Z" fill="#41463d"/><path d="M4.13,5.38c.17-.03,.32-.04,.44,.13,.04,.06,.18,.06,.28,.09l-.05,.11h.01c-.11-.07-.23-.21-.31,0-.03,.06,0,.15,0,.23l-.38-.15,.29-.18c-.1-.09-.2-.17-.29-.25h0Z" fill="#41463d"/><path d="M10.35,1.91s.1-.05,.11-.03c.25,.31,.5,.63,.7,.98-.27-.32-.54-.64-.81-.96h0Z" fill="#41463d"/><path d="M10.12,3.71c.16,.28,.31,.56,.48,.83,.14,.23,.28,.45,.4,.63-.23-.07-.72-.85-.87-1.46h0Z" fill="#41463d"/><path d="M7.69,5.1l-.05-.28,.36-.2,.21,.11s-.06,.08-.08,.08c-.12,0-.24-.02-.36-.03v.09l.13,.11-.21,.12h0Z" fill="#41463d"/></g></g></g></g></svg>