<?xml version="1.0" encoding="UTF-8"?><svg id="b" xmlns="http://www.w3.org/2000/svg" viewBox="0 0 67.33 53.76"><g id="c"><g id="d"><g id="e"><g><path d="M1.69,44.6c-.31-.85-.87-1.69-.88-2.54-.05-8.52,0-17.04-.04-25.56,0-1.16-.5-2.32-.72-3.49-.37-2,1.37-2.01,2.64-2.42L.49,12.27c.73,.68,1.3,1.5,2.08,1.87,1.99,.95,4.03,1.85,6.13,2.51,2.2,.69,3.89-.77,3.21-2.67-.6-1.68-2.28-1.26-3.46-1.14-1.06,.11-2.06,1.36-3.07,1.35-1.12-.01-2.24-.88-3.36-1.38,.29-.53,.46-1.37,.89-1.54,1.78-.71,3.64-1.22,5.46-1.81l-1.15-1.52c3.01-1.07,5.77-2.01,8.51-3.02,3.51-1.29,7.01-2.63,10.5-3.97,.07-.03-.06-.45,0-.65,.04-.14,.28-.32,.4-.3,.25,.04,.64,.15,.69,.32,.83,3.02,3.56,2.92,5.82,3.58,.53,.15,1.1,.19,1.65,.27l.52,.33,2.59,1v12.8c0,3.18,.02,6.37-.07,9.55-.03,1.09,.44,1.53,1.33,1.97,3.98,1.96,7.93,3.99,11.89,6.01,.55,.28,1.07,.6,1.43,.81-.96,.35-1.94,.69-2.9,1.07-1.54,.61-3.02,1.41-4.6,1.83-1.34,.35-1.19,.97-.55,2.14-1.21-1-2.15-1.72-3.3-.49-.99,1.07-.08,1.59,.54,2.22,.36,.36,1.11,.77,1.06,1.05-.14,.85-.36,2.07-.96,2.38-2.2,1.16-4.56,1.38-6.92,.23-.95-.46-2.04-.66-2.93-1.2-.7-.43-1.19-1.19-1.78-1.82-.83,.33-2.07,.77-3.26,1.33-.91,.43-1.74,1.02-2.77,1.64l-.42-.79c-1.96,.4-4.01,.53-5.84,1.24-4.23,1.63-8.18,1.66-12.07-.9-1.25-.82-2.71-1.33-4.08-1.98v-2.75l2.92,1.55v-12.31h.42v12.29h.4v-10.8c.22,3.35,.33,6.7,.63,10.04,.06,.67,.89,1.26,1.37,1.89l-.03-.04c.21-.22,.61-.43,.61-.66,.06-1.46,.03-2.92,.03-4.38,.31,1.06,.42,2.14,.29,3.19-.25,1.99,.39,3.23,2.55,3.44V18.36l-3.17-.6,.76,15.51c-.72-.52-1.65-.87-1.67-1.26-.07-1.51-.2-3.17,.33-4.51,1.32-3.34,.19-6.64,.61-9.93l-.5-.02v4.1c-.37-5.12-.73-5.55-6.04-6.75,0,5.07-.06,10.09,.02,15.1,.08,4.87,.3,9.74,.45,14.62v-.02h0ZM18.66,23.73c-.2,.14-.53,.26-.56,.43-.17,1.04-.29,2.09-.39,3.13-.2,2.03,.16,2.42,2.24,2.47,1.18,.03,2.36,0,3.81,0-.23-1.6-.59-2.88-.54-4.14,.06-1.55-.56-2.06-1.98-1.93l-1.73-1.43c-.11-1.81-.71-2.41-1.78-1.78l.93,3.23v.02ZM33.97,7.32c-5.59-1.93-10.96-1.83-12.34-.77,1.69,.82,3.39,1.6,5.05,2.46,2.12,1.11,5.82,.32,7.29-1.7h0Zm-11.15,2.41c-.63-.36-1.2-.79-1.83-1.01-.63-.23-1.51-.56-1.98-.31-1.62,.87-3.11,1.97-4.7,3.02,2.77,.99,5.47,3.05,8.52,1.29l-1.55-2.1,1.54-.9h0Zm4.85,15.34c5.23,.85,6.11,.77,7.5-.75-2.15-2.08-4.87-1.43-7.5-1.84v2.59Zm-6.99-6.54l-.33-3.96-3.57-.51v3.84c.71,.17,1.32,.34,1.94,.45,.56,.09,1.13,.11,1.96,.18Zm6.86-2.57c2.77-.64,2.79-.68,2.13-4.8h-2.84l.71,4.8Zm-10.99,17.73l2.44,1.16c.04-.54,.17-1.22,.12-1.88-.04-.5-.31-.99-.48-1.48-.62,.24-1.4,.33-1.81,.76-.33,.34-.21,1.1-.26,1.45h-.01ZM9.48,12.27l.8-4.78-.6-.24c-.22,1.79-.28,3.69-2.71,4.1l.37,.57,2.14,.35Zm29.59,27.2l-2,.75,.43,2.22,2.09-1.3-.52-1.67Zm-6.78-19.33l-4.54-1.66-.37,1.23c1.29,1.26,3.12,.35,4.91,.43Zm2.29,2.51l.04-.58h-5.89l5.85,.58ZM2.39,44.43l3.27,1.23c-.35-.76-.42-1.29-.7-1.45-.67-.38-1.44-.59-2.22-.9l-.35,1.11h0ZM37.15,19.39l.33-.07-.62-5.38-.7,.11,.98,5.34h0Z" fill="#41463d"/><path d="M37.97,53.76c-.25-1.01-.79-.91-1.68-1.01-.8-.09-1.8-.98-2.13-1.77-.33-.77,.08-1.85,.16-2.79,3.88,.06,4.27,.41,3.84,3.7l-2.22-.93-.17,.27c.5,.31,1.04,.58,1.5,.95,.43,.35,.78,.8,1.17,1.21l-.46,.36h0Z" fill="#41463d"/><path d="M61.24,40.57c.92,.69,1.76,1.55,2.78,2.01,.97,.44,2.12,.48,3.31,.72-1.7,1.47-5.07,.8-6.09-2.74h0Z" fill="#41463d"/><path d="M52.27,43.35l1.71-.9c.53,.74,.94,1.89,1.66,2.15,.58,.2,1.54-.69,2.47-1.17-.27,.51-.5,1.57-.94,1.66-.96,.21-2.18,.21-3.01-.22-.64-.34-.85-1.48-1.26-2.26l-.63,.75h0Z" fill="#41463d"/><path d="M39.18,51.63c.18-1.43-.96-3.25,1.64-3.45,.8,1.73-.36,2.51-1.64,3.45Z" fill="#41463d"/><path d="M44.05,50.53c-.79,.24-1.43,.43-2.06,.62v-3.27l.32-.02,.34,2.52,.45-.02,.13-1.98,.82,2.16h0Z" fill="#41463d"/><path d="M33.48,51.08l-2.08-.1c1.92-1.3,.4-1.89-.13-2.7,1.15,.04,1.89,.97,2.2,2.79h0Z" fill="#41463d"/><path d="M7.44,44.5v-9.47h-.04v9.42l.03,.05h0Z" fill="#41463d"/></g></g></g></g></svg>