<?xml version="1.0" encoding="UTF-8"?><svg id="b" xmlns="http://www.w3.org/2000/svg" viewBox="0 0 60.64 26.76"><g id="c"><g id="d"><g id="e"><g><path d="M25.64,19.75l-2.45-.17,1.11,3.4-4.47-.25,.75-2.09-5,1.99,1.79,.2c-.16,.09-.23,.18-.32,.18-.5,.05-1.05-.04-1.5,.13-3.37,1.19-6.19-.13-8.99-1.79-1.24-.74-2.68-1.15-3.88-1.94-1.05-.69-1.89-1.69-2.68-2.77,1.67,.99,1.7-.79,2.48-1.28l.64,1.16,.9-3.09,.91,.99,.86-.97,.61,1.57,.71-1.45,.94,1.62v-3.75c.46,.15,.79,.19,1.01,.36,.43,.32,.81,.72,1.21,1.09l.87-1.7,.76,3.93,.48-1.99,.39,1.18,.2-.03-.19-3.35,.64,.9c2.2-2.56,3.58-.39,5.1,1.06,.9-4.82,.25-4.02,3.58-7.72l-1.21-.22,.82-.98-.18-.32-1.56,.47,.43-2.12c1.19-.95,3.56,1.39,4.42-1.46,5.17-.84,6.53-.72,6.6,.53-.63-.15-1.28-.38-1.94-.43-.73-.05-1.48,.08-2.25,.14-.36,1.66,.65,2.14,2.09,2.13,1.57,0,2.21,.61,1.9,2.22-.12,.65-.05,1.41,.18,2.02,.21,.57,.67,1.16,1.19,1.46,.21,.12,1.15-.48,1.24-.86,.13-.58-.06-1.35-.37-1.89-.32-.55-.96-.92-1.4-1.32,.38-1.05,3.28,.01,1.55-2.26,3.52-1.25,3.07-1.85,3.33,3.02,1.49-.05,2.97-.3,3.95,1.37,.7,1.19,1.55,2.61,2.69,3.13,1.52,.68,1.95,1.42,1.62,2.9,0,.04,.73,.25,1.31,.45l-2.51-8.98,.92-.27,1.57,5.78,.45-.03,.19-3.37,.54-.16c.28,.98,.61,1.95,.83,2.94,.23,1.04,.36,2.11,.73,3.15v-2.87l.19-.06c.43,1.62,.86,3.24,1.29,4.85l.42-.04-.17-3.9,.59-.06,.23,3.78,.86-2.66,.69,2.8,.41-.03v-5.34h.36l-.31,5.28,.29,.04,.97-3.36,.38-.02,.59,4.07,.3,.04,.47-1.77,.46,.56,1.94,.13-.33,2.34,1.78,2.11-3.52,1.19-.68-1.32-1.16,.97c-.79-2.16-2.47,.19-3.63-.71l.97-1.25c-2.01,.37-3.99,.06-4.95,2.35-1.31-1.11-2.46-.68-3.44,.63l2.14,.13-3.01,1.37-.21-.88,.67,.65-1.15,1.26-.7-1.02,4.9,2.32c-2.46,.58-4.46,1.03-6.44,1.55-.79,.21-1.86-.24-2.25,1.17-.08,.3-2.09,.11-3.2,.08-.34,0-.69-.38-1.02-.36-2.84,.15-5.68,.35-8.52,.53l-.11-.66,2.19-.7-1.12-.76,.66-1.62-.36-.41c-.41,.33-1.13,.62-1.18,.99-.14,1.18-.62,1.52-1.9,1.08l2.56-3.04c-.1-.34-.34-1.17-.59-2.01,1.01-.23,2.03-.46,3.04-.69l-.08-.47-3.13,.33,.39-2.53c-1.39,1.45-1,2.46-.15,3.45l-.02,.03Zm4.57,1.52l-1.39-2.62v5.44c1.4,.05,1.78-.62,1.36-2.82,.67-.01,1.69,.23,1.93-.1,.47-.64,.49-1.59,.73-2.54-2.77,.27-3.22,.79-2.63,2.64Zm-6.15-9.05l.02-.06-1.38,1.33,.36,.36,2.06-.16,.86-4.77-2.97,.77,1.05,2.52h0ZM6.93,20.35c2.54,1.3,5.16,.27,7.81,.88,1.91,.44,3.99-1.41,5.61-3.13,1.26-1.34,.17-2.99,1.05-3.94l-1.76-2.96c-.13,1.58-.57,3.08-.29,4.42,.3,1.46,.33,2.45-1.04,2.76-2.51,.57-5.08,.93-7.62,1.37-1.25,.21-2.5,.4-3.75,.61h0Zm30.2,3.8c.71-.73,1.9-1.38,2.03-2.2,.34-2.09,1.84-2.61,3.4-2.98,.86-.21,1.81-.15,1.64-1.25-.11-.7-.79-1.3-1.21-1.95l-.28,.32,.21,1.62c-.97-.34-1.73,.25-2.57,.54-.78,.27-1.79,.24-2.33,.74-1.6,1.48-1.19,3.41-.88,5.17h-.01Zm.2-13.25l3.58-1.18-3.16-.25v-.38h3.38c-.5-2.22-2.28-2.82-4.68-1.79l.7,.84-2.23-.31-.41,.54,2.81,2.54h0Zm-22.83,7.24l3.55-.28v-4.05l-2.98,.55,1.11,.57c-2.35,.31-2.42,.43-1.68,3.2h0Zm17.76,4.8l-.4,.22,1.58,2.92,.92-5.19,2.37-.26v-2.37l-1.2,.81-1.7-1.34-1.02,5.64-.55-.44h0Zm-6.4-8.97h3.09v-3.61c-1.85,.26-2.88,1.46-3.09,3.61Zm9.61-3.36c-2.86-1.66-4.55-1.72-5.51-.18,1.84,.01,3.56,2.48,5.51,.18Zm-15.55,.15l4.23-3.41c-2.47-.45-3.9,.74-4.23,3.41Zm11.54,1.24c-1.49,3.45-1.46,3.69,.46,4.06-.16-1.32,1.5-2.72-.46-4.06Zm-8.89,4.79c-.92,1.34-1.58,2.21-2.11,3.15-.13,.24,.19,.73,.31,1.11,.37-.16,.86-.23,1.07-.51,.42-.54,.69-1.21,1.03-1.82l.43,.13-.74-2.06h.01ZM47.68,7.84c.24,1.73-1.51,3.75,.85,5.17l-.85-5.17ZM28.81,15.92l-2.45,1.33c.22,.25,.45,.72,.67,.72,.9,0,1.79-.16,2.74-.26l-.96-1.79Zm-24.41,3.02c1.99,1.59,3.04,1.43,3.39-.32l-3.39,.32Zm43.72-4.42c-2.36-1.18-.86,2.28-2.56,1.9l1.42,.83,1.13-2.73h.01Z" fill="#41463d"/><path d="M7,3.08l1.02,6.55-.34,.08-1.3-6.44,.62-.19Z" fill="#41463d"/><polygon points="24.06 12.22 24.13 12.27 24.08 12.16 24.06 12.22" fill="#41463d"/></g></g></g></g></svg>