<?xml version="1.0" encoding="utf-8"?>
<!-- Generator: Adobe Illustrator 26.3.1, SVG Export Plug-In . SVG Version: 6.00 Build 0)  -->
<svg version="1.1" xmlns="http://www.w3.org/2000/svg" xmlns:xlink="http://www.w3.org/1999/xlink" x="0px" y="0px"
	 viewBox="0 0 69.5 64.3" style="enable-background:new 0 0 69.5 64.3;" xml:space="preserve">
<style type="text/css">
	.st0{fill:#E4D6A7;}
	.st1{fill:#41463D;}
</style>
<g id="Layer_2">
	<polygon class="st0" points="6.8,16.7 6.3,31.4 7.7,32 8,46.8 22.8,51 57.6,39.7 57.6,15.6 51,5.4 31.4,0 11.8,9.2 	"/>
</g>
<g id="b">
	<g id="c">
		<g id="d">
			<g id="e">
				<g>
					<path class="st1" d="M8.7,47.6l-2.4,0.2l0-0.2l1-0.3l-1.9-0.2v-0.8L6.8,47l0.1-0.3c-1.2-1-2.7-1.2-4.3-1.3L2,42.5l0.4,0
						c0.3,0.7-0.1,1.7,1.1,2.1l0.4-1.9l0.4,0.8l0.2,0v-4.7c0.8,1.5,0.1,3,0.3,4.4c0.8-0.2,0.9-0.3,0.8-1.4l0.3,0.9L7,42.3l-0.5-4.5
						c0.1-0.4,0.4-1,0.5-1.5c0.1-1,0-2.1,0.1-3.1c0.1-0.8-0.1-1.5-0.9-1.8c0.6,0,1.1,0.1,1.7,0.1c-0.3-1.2,0.7-0.3,1.1-0.7v-0.7
						l0.3,0.4l0.9-0.6l-1.1,1.4c1.5,0.5,3,1.1,4.4,1.5c0.3-0.4,0.4-0.7,0.6-0.9c0.8-0.8,1-3.1,0.4-4.1c0.7-1.5,0.4-3.6-0.4-3.8
						c1.1,1,0.3,2.2,0.6,3.4l-2.8-0.9l-0.1,0.4l2.8,0.9v2.4c-1.4-0.4-2.7-0.8-4-1.1v-1.4h0.1l0.1,1.1c0-1.6-0.1-3.1-0.2-4.7
						c0-0.3,0.1-0.6,0-0.9c-0.1-0.3-0.4-0.5-0.5-0.8l-0.3,0.1v5.4c0,0.7-0.2,1.6,1.1,1.5c0.2,0,0.5,0.3,0.9,0.5
						c-0.6-0.1-1.1-0.2-1.5-0.2c-0.3-0.3-0.5-0.7-0.8-1S8.8,28.3,8.5,28l-0.6,0.9l-1.5-0.3c0.1,0.8,0.2,1.4,0.2,2.1
						c-0.2,0-0.5,0-0.7,0.1l0.3,0.6c-0.7-0.1-0.9-0.6-0.5-0.9c0.9-0.9,0.6-2,0.6-2.9c0.2-2,0.1-4,0-6c0-1.2-0.1-2.4-0.2-3.6
						c0-0.2-0.2-0.4-0.3-0.5c-0.4-0.3-0.8-0.6-1.2-0.9C5.2,16,5.6,15.7,6,15.4c1.2-0.9,1.7-2.1,2.2-3.4c0.2-0.6,0.5-1.4,1.5-1.1
						c0.2,0.1,0.5-0.3,0.7-0.6c0.8-1.1,1.6-2.2,2.4-3.4C14,7.5,15,8.2,16.1,8.7c0.4,0.2,1-0.1,1.5-0.2c0.2,0,0.4,0.1,0.5,0.1v0
						l-0.7,0.7l0.1,0.1l3-1.1l0,0c1.2-0.3,2.4-0.7,3.5-1C24,7.1,24,6.9,24,6.8l0,0c0.6-0.5,0.6-0.9-0.3-1.1c-1-0.3-2-0.7-3-1
						l-1.1,1.2l-0.2-0.2c0.2-0.3,0.4-0.6,0.6-0.9c0.1-0.2,0.3-0.5,0.5-0.9l12.2,4.2l0.1-0.2c-1.9-0.7-3.8-1.6-5.7-2.2
						c-1.9-0.7-3.9-1.2-5.9-1.8l0.1-0.2c1,0.3,2.1,0.6,3.1,1c0.9,0.4,1.7,0.5,2.3-0.6C26.8,4,27,3.9,27.1,3.9l-0.7,1.3
						C27.3,5.3,28.3,6,29.2,5c-0.1,0.3-0.2,0.6-0.3,0.9l2.2,1L31.5,7c1.3,0.9,1.4,0.9,2.4-0.1l1.4-1l0,0l0.5,1.4
						c-0.3,0.1-0.7,0.2-1,0.3c-0.3,0.1-0.6,0.1-1.1,0.2c1.4,0.8,4.1,0.2,5.3-0.9l-2-2.3l2.4,2c-0.1-0.9-0.2-1.9-0.3-2.9l-0.4,0.6
						l-0.1-0.1l0.2-1.2c-0.6,0.1-1.1,0-1.5,0.2c-0.5,0.2-0.9,0.6-0.5,1.2c-0.5-0.5-0.8-0.4-1.2,0.1c-0.5,0.7-1,1.2-1.6,1.8
						c0.8-1.4,1.7-2.7,2.6-4.1c-1.2-0.6-2.5-1.1-3.6-1.7c-0.3-0.1-0.5-0.4-0.7-0.6c0.8,0.2,1.6,0.5,2.5,0.7c0.6,0.2,1.2,0.3,1.8,0.5
						c0.7,0.2,1.6,0.1,1.9,1.1c0.1,0.2,0.5,0.4,0.8,0.6C40.1,3.6,41,4.4,41.9,5c0.2,0.2,0.7,0.2,0.9,0c1-0.5,1.9-1.1,2.8-1.7
						c0.1-0.1,0.3-0.2,0.5-0.4c0.4,0.6,0.9,1.2,1.3,1.8c0.5,0.9,0.9,1,1.8,0.6c0.6-0.3,1.2-0.5,1.8-0.7c2.6,3.9,5.1,7.7,7.8,11.7
						c-1.4,1.4-1.1,3.5-1,5.6c0.7,0,1.3,0.1,1.9,0.1c0.1,0,0.2,0,0.3,0c1.1,1.1,2.7,1,4,1.5c0.2,0.1,0.5,0.4,0.5,0.6
						c-0.1,2-0.2,3.9-0.2,5.8c0,1.3,0.1,2.6,0.2,4.1c0.2-0.2,0.5-0.3,0.5-0.5c0-0.9,0.3-1.6,1-2.2c0.3-0.2,0.2-0.8,0.3-1.2l1.4-0.8
						c-1,2-3,3.6-1.4,5.9v-1.4h0.3v2.1l0.3,0l0.4-0.5c0.2,0.4,0.3,1,0.7,1.3c0.4,0.4,1.1,0.5,1.7,0.8c-1.2,0.5-2.3,1.5-3.7,0.4
						c-0.8,0.9-1.6,1.7-2.9,0.9l-0.5,1.6h-2.4l0.2,0.5l-1.4,0.5l0,0.1h2.4c-1.4,1.6-3.2,1.3-4.9,1.9l1.4,1.2
						c-0.8,0.9-4.2,1.4-4.7,0.7l-0.4,0.7h-2.4l-0.5,1.7c-0.6,0.2-1.1,0.3-1.7,0.5c-0.1,0-0.3,0.2-0.3,0.2c0.1,1.1-0.8,1.1-1.4,1.2
						c-0.7,0.1-1.3,0.1-2,0c-0.9-0.2-2.1,0.2-2.5,0.8l0,0l-0.2,1.3c-0.5,0.2-1.2,0.4-2,0.6l-0.3-0.9l-1,0.4l0.4,0.6
						c-0.4,0.6-1.8,0.6-2.3,0.1c-0.1-0.1-0.5-0.1-0.7-0.1c0.4,0,0.8,0,1.1-0.1c0.2,0,0.3-0.3,0.3-0.5c-0.1-0.4-0.2-0.8-0.4-1.3
						l-0.1,1c-0.4,0.3-1.3-0.1-0.9,0.9c-0.2,0-0.4,0-0.5-0.1c-0.2-0.8-0.6-0.8-1.2-0.5c-0.7,0.3-1.3,0.6-2,0.8
						c1.1-0.9,1.5-2.2,1.9-3.5L32.8,51l-0.1-0.1l1-1.9c-1.7,0.6-1.9,2.6-3.4,3.5l0.1-1.9c-0.3,0-0.5,0-0.7,0.1
						c-0.4,0.2-0.8,0.5-1.1,0.7c-0.1,0.1-0.4,0-0.4,0c-0.1-0.2-0.1-0.4,0-0.5c0.7-0.9,1.4-1.7,2-2.6c0.3-0.5,0.4-1.2,0.5-1.8
						l-0.3-0.2L29.4,47l-0.8-0.5c-0.1,0.6-0.5,1.2,0.7,1c-0.2,0.3-0.3,0.7-0.5,0.8c-1.2,0.5-1.2,0.5-1.7,1.7l0.6,0.5
						c0.3,0.5-1.3,0.3-0.2,1c-1,0-2,0.8-2.7-0.4c0.3,0.1,0.5,0.2,0.8,0.3c0.7,0.4,1.1,0.1,1.1-0.9l-1.9,0.6c-1.3,0.2-2.6,0.4-4,0.6
						l-0.1-1.2l-0.2,0l-0.1,0.8c-2.6,0.9-3.2,1-3.9-0.4c0.6-0.6,0.6-1-0.1-1.4c-0.4-0.2-1-0.4-1.5-0.5c-0.7-0.2-1.4-0.4-2.1-0.5
						c-0.6,1.5-1.3,1.3-3.9,0.3C8.7,48.3,8.7,47.9,8.7,47.6c0.6,0.2,1.2,0.3,1.7,0.5c0.9,0.4,1.6,0.3,2.3-0.5
						c-1.2-0.3-2.4-0.5-3.6-0.8L9.2,47l0.4,0.3L8.7,47.6L8.7,47.6L8.7,47.6z M9.9,42l-1.5-1l-0.1,0.2l0.6,0.4L8.5,42l1.4,0.9L9.9,42
						c0.1,0.2,0.2,0.5,0.3,0.8c0,0.5,0,1.1,0,1.7h0.4c0-0.7,0-1.5,0-2.2C10.5,42.2,10.1,42.1,9.9,42L9.9,42L9.9,42z M25.5,31.7h-0.8
						V26h-0.3v6.4C24.8,32.1,25.1,31.9,25.5,31.7c1.8-0.2,2.1-0.5,2.1-1.6c-0.2,0.2-0.5,0.5-0.9,0.8C26.3,31.2,25.9,31.4,25.5,31.7
						C25.5,31.7,25.5,31.7,25.5,31.7z M21.3,17l0.6,0.3l-0.9-2.1c0.2,0,0.4,0.1,0.5,0.1c0.5-0.4,0.5-1.5,0.1-2.2
						c-0.5-0.8-1-0.1-1.6,0l0.4,0.8l-1.4-0.7L19,13.4l0.4,0.7L18.9,14c1.7,2.8,3.4,5.5,5,8.1c0-0.4-0.2-0.8-0.4-1.2
						C22.8,19.6,22.1,18.3,21.3,17L21.3,17L21.3,17z M55.6,16.1l0.9,0.2l-0.5-1l1.6,0.4l0-0.1c-0.9-0.5-1.8-1-2.7-1.5
						c0.2-0.5,0.4-0.9,0.5-1.3c0.1-0.3,0.1-0.7-0.1-0.9c-1.1-1.7-2.2-3.4-3.3-5.1c-0.9-1.4-1.4-1.6-2.9-0.9
						c-1.3,0.6-2.7,1.1-4.1,1.7c-0.1,0.1-0.2,0.4-0.3,0.5L44,8C44,8.3,44,8.5,44.1,8.7c0.3,0.6,0.7,1.3,1.1,1.9
						c0.4,0.5,0.9,1,1.3,1.5c0.3,0.3,0.7,0.9,1,1c0.8,0.1,1.7-0.1,2.5-0.3v-0.3L49.5,12l0,0h1c0.4,0.4,0.7,0.7,1,0.8
						c0.8,0.4,1.7,0.7,2.6,1.2c0.7,0.4,1.3,0.8,1.9,1.3l-5.1-2.4l-0.1,0.2l1.9,1.3h-0.5c0.9,0.7,1.8,1.2,2.8,1.7
						C55.1,16.3,55.3,16.2,55.6,16.1L55.6,16.1L55.6,16.1z M19.5,10.3l-0.8-0.5c0.1,0.4,0.4,0.7,0.5,1.1c0.2,0.4,0.2,0.8,0.4,1.2
						s1,0.5,1.3,0.2c1.4,0,1.8-0.3,1.5-1.3c0.6,0.9,0.7,1.4-0.1,1.6c-0.7,0.2-0.7,0.5-0.4,0.9c0.7,0.7,1.4,1.3,2.1,1.9l0.2-0.5
						l1.5,2l-0.3,0.1l0.3,1.4l-0.8-0.6l-0.4,0.6c-0.8-1.3-2.3-2.6-2.7-2.6c-0.1,1.9,1.1,2.9,2.8,3.7l-1.4,0.3l1.1,2.3
						c0.8-0.3,1.5-0.6,2.3-0.9c0.2-0.1,0.3-0.3,0.4-0.5h1.1c-0.1-1.4-0.2-2.6-0.2-3.8c0-1.4,0-2.9,0-4.3c0-1.3,0.1-2.6,0-3.9
						c0-0.4-0.2-0.8-0.3-1.2L28.2,7c-0.2-0.2-0.5-0.4-0.6-0.4c-0.7,0.1-1.3,0.3-2,0.5c-1.5,0.4-3,0.9-4.4,1.3
						c-0.1,0-0.1,0.4-0.2,0.7c-0.3-0.1-0.6-0.3-1-0.3c-0.6-0.1,0.4,0.9-0.5,0.8L19.5,10.3L19.5,10.3L19.5,10.3z M34.5,33.8
						c0.1,0.2,0.2,0.5,0.4,0.8c0.1,0.2,0.2,0.5,0.4,0.6c0.6,0.2,1.2,0.4,1.9,0.6l0.4-2l-0.3-0.1c-0.1,0.2-0.1,0.4-0.1,0.3l-2.1-0.6
						c-0.1-0.2-0.1-0.5-0.2-0.6c-0.8-0.2-0.6-0.9-0.6-1.5c0-1.2,0-2.4,0-3.5c0-0.3-0.2-0.7-0.3-1l-0.2,0.1v5.4h-1.2
						c-0.1-0.7-0.9-1.1-1.8-1c0,0.5,0,1,0,1.5c0,0.2,0.1,0.6,0.3,0.7c1.2,0.5,2.4,0.9,3.7,1.3L34.5,33.8L34.5,33.8L34.5,33.8z
						 M41,36.9c-1.2,0.4-2.4,0.9-3.5,1.2c-0.2-0.3-0.3-0.6-0.5-0.8c-0.2-0.1-0.6-0.1-0.8-0.1c-0.2,0-0.4,0.1-0.7,0.1v-0.2l0.4-0.2
						c-0.3-0.2-0.5-0.4-0.8-0.4c-0.4,0-0.9-1.1-1.4,0c0,0-0.7-0.2-1.1-0.3c0,0,0-0.1,0-0.2l0.7,0l0-0.3l-2.8-0.5
						c0.1,0.6,0.1,1.2,0.3,1.3c0.5,0.2,1,0.8,1.6,0.3c0.1,0,0.3,0,0.4,0.1c0.2,0.3,0.4,0.5,0.6,0.8l-2.6-0.6l-0.1,0.3l2.5,1l0.1-0.7
						c0.3,0.1,0.6,0.2,0.9,0.3c1.2,0.2,2.2,2,3.8,0.5c0.5-0.5,1.5-0.4,2.2-0.6C41,38,41.2,37.5,41,36.9l0.4,0.7c2-0.6,3-1.3,3-1.9
						C43.2,36.1,42.1,36.5,41,36.9L41,36.9L41,36.9z M41,10.3l4.2,1.6l0.2-0.2c-0.5-0.7-1.1-1.5-1.7-2.1c-0.9-1-0.9-1.5,0.3-2.2
						l-0.5-0.6c0.2,0.1,0.5,0.4,0.7,0.3c0.6-0.1,1.2-0.3,1.8-0.4c-0.2-0.4-0.3-1.1-0.6-1.2c-0.5-0.1-1.1,0.1-1.5,0.3
						c-0.2,0.1-0.2,0.7-0.3,1c-0.6-0.8-2.3-1-2.9-0.1c-0.3,0.4-0.2,1-0.3,1.6C40,8,39.7,7.6,39.5,7.7c-1.1,0.2-2.1,0.6-3.1,0.9
						l0,0.2L41,10.3L41,10.3L41,10.3z M30.1,25.9c0-0.4,0.1-0.9-0.1-1.2c-0.1-0.3-0.5-0.5-0.7-0.8l-0.2,0.2l0.1,0.7
						c-0.7,0-1,0.4-1,1c0,2,0,4,0.1,6c0,1.2,0.7,1.6,2,1.3L30,30.5l0.1,0l0.1,0.5l0.1,0l-0.2-4.8l0,0C30.2,26.1,30.1,26,30.1,25.9
						c2.2,0.5,4.5,1.1,6.7,1.6c0.3-1.2,0.2-1.5-1.2-2c-0.7-0.3-1.5-0.4-2.2-0.6c-1-0.4-1.9-0.8-3-1.3c0,0.9,0,1.5,0,2.2
						C30.4,25.8,30.2,25.9,30.1,25.9L30.1,25.9L30.1,25.9z M15.9,10.9l-0.5-0.8l1.4-0.8l-0.1-0.2l-4.9,1.8l3,4.8l1.8-1.5
						c0.3-0.1,0.5-0.3,0.8-0.4c0.5-0.3,1-0.6,1.6-1c-0.6-0.9-1.2-2-2.1-3.3L15.9,10.9L15.9,10.9z M14,21c0.2-0.1,0.4-0.1,0.5-0.2
						c0.9-1.3,0.3-2.5-0.6-3.9v3.3l-2.8-1L10.6,15c-1.5,0.4-2.5,1.1-2.2,2.8c0,0.3-0.1,0.9-0.3,1c-1.4,0.5-1.4,1.6-1.2,2.9l2.8,0.9
						c-0.1-0.9-0.1-1.6-0.1-2.2c0-0.8,0.3-1,1-0.7c0.8,0.3,1.5,0.6,2.3,0.9c0.3,0.1,0.6,0,1,0C13.8,20.6,13.9,20.8,14,21l-4.4-1.1
						c0.2,0.8,0.1,1.8,0.4,1.9c1.7,0.8,3.6,1.3,5.5,2v-2.1L14,21L14,21L14,21z M16.1,31.2c0.4,0,0.9-0.2,1.2-0.1
						c0.7,0.3,1,0,1.1-0.6c0-2,0-4,0-6.1l4.8,1.6v7.3h0.3c0-0.3,0.1-0.6,0.1-0.9c0-2.2,0-4.5,0-6.7c0-0.6-0.3-1.1-0.5-1.7
						c-0.3-0.7-0.6-1.4-0.9-2.1c-0.4-1.2-0.7-2.5-2.1-3.1c-0.5-0.2-0.8-0.5-1.3-0.8l1-0.5l-1.3-2.2c-0.2,0.2-0.5,0.4-0.8,0.6
						c-1,0.8-1,1.2,0.1,1.9L17.3,19l0.2,0.1l0.7-0.6l0.2,2.8l0.3-0.6l0.1,0.1l-0.8,1.8L16,22.1c0,2.5,0,4.9,0,7.3
						C16,30,16.1,30.6,16.1,31.2l0,0.8l0.6,0.3l-0.4,0.2l0,0.3l3.4,0.2c0.3-0.8,0.1-1.1-0.9-1.4C18,31.7,17,31.5,16.1,31.2
						L16.1,31.2z M34.3,13.1c-0.4,0.7-0.7,1.4-1.1,1.9c-0.7,0.9-1.4,1.9-2.2,2.7c-0.2,0.2-0.6,0.2-1,0.3c-1.1,0.1-1.3,0.3-1.3,1.4
						c0,0.8-0.1,1.6,1.1,1.6c0.1,0,0.3,0.1,0.5,0.2c1.8,0.6,3.6,1.3,5.4,1.8c0.4,0.1,1.1,0,1.4-0.3c0.8-0.6,1.5-1.3,2.2-2
						c1.4-1.4,2.8-2.8,4.2-4.2c0.9-0.9,1.6-1.9,2.5-3C40.2,11.4,34.3,9.2,28.4,7c0.2,3.7,0.3,7.3,0.5,11.2l1.5-2.2l-0.2-0.2l-1,0.6
						c1.2-0.7,1.7-2.1,3.2-2.5c0.4-0.1,0.7-0.6,1-0.9l-0.2-0.2L34.3,13.1L34.3,13.1L34.3,13.1z M44.4,17.7c-0.3,1.1,0.3,2.4-0.2,3.5
						l-0.3,0v-3l-0.4-0.1c-0.2,0.9-0.6,1.8-0.7,2.7c-0.1,2.2-0.1,2.2-2.1,2.9c-0.1,0-0.3,0.1-0.3,0.1l-0.4,1l-0.2-0.1v-2.2
						c-0.5,0.5-1,0.9-1.2,1.2l0.7,1c-0.6-0.3-1,0-1.1,1.1L37.8,25c-0.1,0.3-0.2,0.5-0.2,0.6c-0.3,1.4-0.1,1.5,1.2,1.1
						s2.7-0.9,4.1-1.3c0,0.5,0,0.9,0,1.3c0.1,2.4-0.4,4.8,0.5,7.4l1-1.3l0.2,0.7l3.2-0.9l-0.1-0.3l-3,0.5v-9.1l-0.7-0.1
						c0.2-0.3,0.5-0.5,0.5-0.8C44.4,21.2,44.4,19.5,44.4,17.7L44.4,17.7L44.4,17.7L44.4,17.7z M52.7,20.1l0-0.1
						c-0.3-0.1-0.7-0.1-1-0.3c-1.1-0.7-2.2-1.4-3.4-2.2c0,1.6-0.3,2.9,1.1,3.7l0.2-1c0.1,0.2,0.2,0.3,0.2,0.4c0.1,0.7,0.1,1.4,0.5,2
						c0.5,0.8,1.2,0,1.9,0c0,0,0.1,0,0.1,0c0.3,0.3,0.8,0.6,0.8,1c0,1.6-0.1,3.2-0.1,4.9c0,0.1,0.1,0.2,0.2,0.4l0.2,0v-3.4
						c0.1,0.9,0.4,1.3,1,1.4V21L50,21.5v-0.2l2.4-0.5l-0.1-0.4L50,20.8l0-0.2L52.7,20.1L52.7,20.1L52.7,20.1z M28.5,36.8
						c0,3.8-0.4,4.3,1.3,5.8c0.1-0.8,0.3-1.4,0.3-2c0-1.4,0-2.8,0-4.2c0-1.4-0.5-1.7-1.6-1l0.6,1.5L28.5,36.8L28.5,36.8L28.5,36.8z
						 M54.7,29.5c0.6-0.3,1-0.5,1.4-0.7c0.3-0.2,0.5-0.5,0.6-0.8c0.1-0.8,0-1.6,0-2.4c0-0.6-0.4-0.9-1-0.9c-0.3,0-0.7,0-1,0
						L54.7,29.5L54.7,29.5L54.7,29.5z M43.8,43.2c1,0.1,1.1-0.5,1.2-1.2c0-1.2,0.1-2.5,0-3.7c0-0.3-0.3-0.6-0.5-0.9
						c-0.3,0.2-0.8,0.4-0.8,0.7C43.3,39.8,43.1,41.5,43.8,43.2L43.8,43.2L43.8,43.2z M33.4,43.8l0.4-1l-1.2-0.3l-0.5-0.6L31.9,42
						l-0.1,1.1l-1.2,0.2c-0.1,0.9,0.4,1.5,1.6,1.7L30.7,46c1.6,0.8,2.6,0.1,2.7-1.3c0-0.3,0.1-0.5,0.2-0.8
						C33.5,43.9,33.4,43.8,33.4,43.8L33.4,43.8L33.4,43.8z M50.1,31v-6.3c-1.7,1.1-1.9,2.4-0.8,3.8L48.7,28v3.1l1.1-0.7L50.1,31
						C50.1,31,50.1,31,50.1,31z M37.7,45.3l-2.2-0.8l-0.2,0.8l-0.5-1.1c-0.2,0.1-0.4,0.2-0.5,0.3c-0.2,0.2-0.4,0.5-0.5,0.8
						c0.5,0.3,0.9,0.7,1.4,0.7c1.2,0,1.2,0,1.2,1.1c0,0.4,0.2,0.8,0.3,1.1l0.3,0C37.2,47.1,37.5,46.2,37.7,45.3L37.7,45.3L37.7,45.3
						z M38.5,32.8c-0.1-0.7-0.5-1.5-0.3-2.2c0.3-1.2,0.3-2.2-0.6-3.1c-0.9,1.9-0.1,3.8-0.3,5.7c0,0,0.1,0.1,0.2,0.2L38.5,32.8
						L38.5,32.8z M53.7,34.6l-0.2-0.2c-0.3,0.4-0.9,0.7-0.9,1.1c-0.1,1.3,0,2.7,0,4c1.1-0.1,1.1-0.1,1.2-1.1
						C53.8,37.1,53.7,35.9,53.7,34.6C53.7,34.6,53.7,34.6,53.7,34.6z M53.2,29.8c-1.4,0.1-2.6,0.5-2.8,2c0.4,0.1,0.8,0.1,1.3,0.2
						c0.3,0.1,0.7,0.4,0.8,0.3c0.3-0.2,0.6-0.6,0.7-1C53.3,30.9,53.3,30.3,53.2,29.8L53.2,29.8L53.2,29.8z M15.6,34.6l-0.4,0
						c-0.1,0.1-0.1,0.2-0.1,0.2c0,1.7,0,3.4,0.1,5.2c0,0.5,0.1,1.1,0,1.7c-0.2,0.9-0.3,0.9,0.4,1V34.6L15.6,34.6L15.6,34.6z
						 M54.9,22.1c1.8-0.9,2-1.3,1.7-3.1C54.7,19.3,55,19.2,54.9,22.1z M11.1,44.7L15,46l0.2-0.2c-0.7-0.3-0.9-0.6-0.1-0.9
						C12.3,43.6,11.9,43.6,11.1,44.7L11.1,44.7L11.1,44.7z M38.2,44.9h0.3v-5.1C37.6,40.3,37.3,43.4,38.2,44.9z M40.9,45.5
						c1.9,0,3.7-0.7,3.9-1.3l-1.1,0.2l-0.1-0.2l0.8-0.5l-0.1-0.2C43.4,44.4,41.7,44.2,40.9,45.5z M49,42.4c1.5-0.7,1.5-0.8,1.3-3.4
						L49,39.2V42.4z M51,33.7c-0.9,0.2-1.6,0.4-2.4,0.6c-1,0.3-1.1,0.5-0.4,1.4C49.2,35.1,50.8,35.6,51,33.7L51,33.7z M21.5,44.4
						l0.2,0v-9h-0.2V44.4z M61.6,27c0.4,0.9,0.7,1.7,1.1,2.6l0.4-0.1v-3.8c-0.2,0.4-0.3,0.7-0.5,0.8C62.3,26.7,62,26.8,61.6,27
						L61.6,27z M8.9,32.4v5.1c0.4-0.8,0.6-1.7,0.8-2.6c0.1-0.5,0-1.1,0.1-1.7C9.8,32.6,9.5,32.4,8.9,32.4L8.9,32.4z M15.9,46.6
						L15.7,47c1.9,1,4,1.3,6,2.1l0.1-0.4C19.8,48,17.9,47.3,15.9,46.6L15.9,46.6z M7.9,32H7.7v8.1h0.3V32z M58.5,41v-0.3
						c-1.3-0.4-2.5-0.9-3.8-1.3c-0.1,0-0.3,0.1-0.5,0.2c0.1,0.1,0.2,0.3,0.3,0.4c1,0.4,1.9,0.8,2.9,1C57.8,41.2,58.2,41,58.5,41
						L58.5,41L58.5,41z M19,30.6l-0.2,0.1c0.1,0.2,0.2,0.5,0.4,0.6c1.2,0.5,2.3,0.9,3.5,1.4c0.3-0.6,0.1-0.9-0.5-1.1
						C21.1,31.3,20.1,31,19,30.6L19,30.6L19,30.6z M10.6,45.2l-0.1,0.3c1.4,0.5,2.7,1,4.3,1.5c-0.1-0.4-0.2-0.8-0.3-0.8
						C13.2,46,12,45,10.6,45.2z M32.8,47.3c1.2,0.8,1.4,0.7,2.9-0.5C34.2,46,34,46,32.8,47.3z M45.2,36.8l1.8-0.4l0.2-1.3
						C45.2,35.1,44.9,35.4,45.2,36.8L45.2,36.8z M7.1,27.8v-5.6H6.9v6.3l0.9,0.4L8,28.5L7.1,27.8L7.1,27.8L7.1,27.8z M38,46.6
						c2.5-0.4,2.7-0.6,2.5-1.6C38.5,45.2,38.1,45.5,38,46.6z M10.2,33.7c0.1,1.2,0.1,2.4,0.4,3.5c0.2-1.3,0.2-2.5,0.2-3.8
						c0-0.2-0.1-0.3-0.3-0.4c-0.1,0-0.4,0.1-0.4,0.2c-0.1,0.8-0.1,1.7-0.2,2.5h0.3V33.7C10.2,33.7,10.2,33.7,10.2,33.7z M21.2,47.6
						c0-0.5,0.1-0.9,0-1.3c-0.1-0.3-0.5-0.5-0.7-0.7c-0.2,0.2-0.6,0.4-0.7,0.7C19.6,47,19.9,47.3,21.2,47.6z M42.2,26.4l-0.1,0
						c-0.2,0.9-0.3,1.8-0.4,2.6L41.5,29c0.2,1,0.3,2,0.5,3l0.2,0V26.4L42.2,26.4L42.2,26.4z M15.9,44c-0.4,1.9-0.4,2,1.1,2.3v-1.8
						l-0.2,0l-0.2,0.5L15.9,44L15.9,44z M20.4,35.1l0.1-0.4c-2.1-0.7-4.2-1.4-6.3-2.2l-0.1,0.2C16.3,33.6,18.3,34.3,20.4,35.1z
						 M8.5,31.5l-0.1,0.4l5.9,1.9l0.1-0.3C12.5,32.8,10.5,32.1,8.5,31.5L8.5,31.5z M18.6,41.2c-0.6,0.5-0.5,0.9,0.2,1.2
						c0.4,0.1,0.9,0.2,1.3,0.4c0.3,0.1,0.7,0.2,1,0.4l0.3-1.3C20.1,42.5,19.3,42.3,18.6,41.2L18.6,41.2L18.6,41.2z M44.4,49.3
						c1.2,0,1.7-0.3,2-1.3C45,47.6,44.5,48,44.4,49.3z M36.8,28.6h-0.4c0.2,1.6-0.2,3.2,0.1,4.8h0.3C36.8,33.4,36.8,28.6,36.8,28.6z
						 M50.3,36.7c-1.7,0.2-2,0.7-1.3,2.2L50.3,36.7z M14.6,41.9L12.8,43l1.8,0.9V41.9L14.6,41.9z M37.4,39.8h-0.2v4.9h0.2V39.8z
						 M18,45.1h0.2c0,0.4,0,0.9,0,1.3c0,0.1,0.1,0.3,0.3,0.3c0.1,0,0.2-0.1,0.3-0.1c0.4-0.7-0.2-1.8-1-1.8v1.9H18L18,45.1L18,45.1
						L18,45.1z M20.4,26.2c-0.1,1.1-0.1,1.2,1.8,1.3C22.2,26.3,21.1,26.5,20.4,26.2z M39.7,10.2l-0.1,0.2c2,0.7,4,1.5,6,2.2l0.1-0.3
						C45.7,12.4,39.7,10.2,39.7,10.2z M61.5,30.7l0.5,0.7c0.2-1.4-1-0.9-1.5-1.3l-0.3,0.2c0.2,0.5,0.5,1,0.8,1.6
						C61,31.9,61.5,30.7,61.5,30.7z M33.6,23.3l0.1-0.3c-1.8-0.7-3.5-1.3-5.2-2l-0.1,0.3L33.6,23.3L33.6,23.3L33.6,23.3z M8.9,45.9
						l0.3-0.1c0.1-2.7,0.2-2.5-1-2.6L8.9,45.9L8.9,45.9L8.9,45.9z M61.1,27.9l-0.8,1.5l1.9,0.8C61.8,29.3,61.5,28.7,61.1,27.9z
						 M47.9,32.7l1.9-0.5l-0.4-1C48.8,31.6,47.9,31.5,47.9,32.7C47.9,32.7,47.9,32.7,47.9,32.7z M55,44.2c-0.1-0.7-1.1-1.6-1.5-1.5
						c-0.1,0-0.3,0.3-0.3,0.4C53.2,43.7,54.2,44.3,55,44.2C55,44.2,55,44.2,55,44.2z M30.2,42.9l-1.6-0.4c-0.3,1.5,1.2,0.8,1.6,1.4
						V42.9L30.2,42.9L30.2,42.9z M36.7,40.3L36.7,40.3l-0.1,4.2h0.1V40.3L36.7,40.3L36.7,40.3z M64.6,36.7c-1,0.2-1.2,0.8-0.7,1.8
						l0.2-0.8l0.2,1l0.2,0L64.6,36.7L64.6,36.7L64.6,36.7z M52.6,45.2l-1-0.7L50.9,45l0.5,1L52.6,45.2L52.6,45.2z M54.4,29.1
						c-1.5,0.3-0.6,1.2-0.9,1.8L54,31L54.4,29.1C54.4,29.1,54.4,29.1,54.4,29.1z M40.1,52.4c0.5-0.5,0.9-0.8,1.3-1.2
						c-0.3,0-0.7-0.2-1.1-0.1C39.8,51.2,39.4,51.5,40.1,52.4L40.1,52.4L40.1,52.4z M19.6,43.5c-0.3-0.8-2.4-1.5-3.1-1
						C17.6,42.8,18.6,43.1,19.6,43.5z M18.7,30.1h0.2c0-0.4,0.1-0.8,0.1-1.2c0-1.1,0-2.1,0-3.2c0-0.2,0.2-0.4,0.5-0.9
						c-0.4,0.4-0.7,0.6-0.7,0.8C18.6,27,18.7,28.6,18.7,30.1C18.7,30.1,18.7,30.1,18.7,30.1z M19.1,37.6l-0.3-0.1
						c-0.5,1.3-1,2.6-1.6,3.9l0.2,0.1L19.1,37.6L19.1,37.6L19.1,37.6z M47.8,5.9l-1.4-2C46.3,5,47,5.9,47.8,5.9z M10.1,11
						c-1.1,0.3-1.6,0.9-1.4,1.7L10.1,11z M39.7,47.1c-1,0.1-1,0.2-0.7,1.9l0.1-1.5h0.1c0,0.5,0.1,1,0.2,1.4l0.2,0L39.7,47.1
						C39.7,47.1,39.7,47.1,39.7,47.1z M15.2,24.8l-0.1,0v6.2h0.1C15.2,31.1,15.2,24.8,15.2,24.8z M13.2,36.7l-0.3,0
						c0.2,1-0.2,2.1,0.3,3.4V36.7z M64.3,34.9l-0.3,0l-0.3,1.7C64.8,36.1,64.8,35.8,64.3,34.9z M30.5,41.3c0.2,0.9,0.5,1.4,0.9,1.5
						v-1.5L30.5,41.3L30.5,41.3z M8.9,39.2l-0.1,0.2l2.1,0.9L10.4,39C10.4,39,8.9,39.2,8.9,39.2z M14.9,43.2l-0.1,0.3l4,1l0.1-0.2
						L14.9,43.2L14.9,43.2L14.9,43.2z M46.9,31.3L46.9,31.3c-0.1-0.3-0.4-0.6-0.4-0.9c0-1.4,0-2.7,0-4.1c0,1.4-0.1,2.8,0,4.2
						C46.4,30.7,46.7,31,46.9,31.3L46.9,31.3L46.9,31.3z M41.2,34.4c0.9-0.3,1.4-0.6,1.5-1.1C41.3,33.6,41.2,33.6,41.2,34.4z
						 M11.3,36.5l-0.3,0v2.7h0.3V36.5z M54.7,35.1l-0.4,0.2l0.4,1.3c0.2-0.2,0.6-0.4,0.6-0.5C55.1,35.8,54.9,35.5,54.7,35.1
						L54.7,35.1L54.7,35.1z M53.7,33.9l-0.2-0.3c-0.6,0.1-1.4,0.1-1.3,1.2L53.7,33.9L53.7,33.9L53.7,33.9z M63.8,31.9v-4.1
						c-0.2,0.5-0.2,1-0.2,1.5c0,0.4,0.5,1.1-0.3,1.1L63.8,31.9C63.8,31.9,63.8,31.9,63.8,31.9z M32.1,47.3c0.1,0.6,0.2,1.1,0.3,1.1
						c0.4,0,0.8-0.1,1.3-0.2l0-0.3L32.1,47.3L32.1,47.3z M19.2,50.5c-0.8,0-1-1.3-1.9-0.6C18,49.8,17.7,51.9,19.2,50.5z M34.5,40.1
						l-0.3,0c-0.1,1.1-0.1,2.2-0.2,3.3l0.3,0L34.5,40.1L34.5,40.1L34.5,40.1z M66.3,36.8c0.6,1,1.1,1.6,2.2,1.1L66.3,36.8z
						 M15.1,8.9c-0.7-0.2-1.1-1-2-0.8C13.8,8.5,14.2,9.4,15.1,8.9z M37.1,36.5l0.1-0.3l-2.5-0.8l-0.1,0.4L37.1,36.5L37.1,36.5z
						 M47.5,23.2l-0.3,0.2c-0.3,1.2-0.3,1.3,0.9,1.1L47.5,23.2L47.5,23.2L47.5,23.2z M52.4,15.5c0.9,0.9,2.1,1.4,2.8,1.2L52.4,15.5z
						 M8.8,22.8H8.6V27h0.1L8.8,22.8L8.8,22.8z M12.4,9.2c0.7,0.1,1.2,0.8,1.7,0C13.6,9,13.1,8.2,12.4,9.2z M60.2,34
						c0,1.1,0.5,0.7,0.9,0.6c0.2,0,0.2-0.3,0.4-0.4L60.2,34L60.2,34z M55.1,40.7c0,0.1-0.1,0.2-0.1,0.2c0.7,0.4,1.4,0.8,2,1.1
						l0.2-0.3L55.1,40.7L55.1,40.7L55.1,40.7z M49.9,36.3l-0.2-0.4l-1.9,0.8l0.1,0.2L49.9,36.3L49.9,36.3L49.9,36.3z M24.6,17.1
						C24.6,17.1,24.7,17.1,24.6,17.1c0.1-0.1,0-0.1,0-0.1V17.1L24.6,17.1L24.6,17.1z"/>
					<path class="st1" d="M41.2,61c1,0.1,0.6,1.1,0.8,1.7c0.8-0.8,0.7-1.5-0.3-1.9c-0.5-0.2-0.9-0.5-1.3-0.8l0-0.3
						c0.3,0,0.6,0,0.8,0.2c0.9,0.5,1.8,1.2,2.8,0.5c0.3-0.2,0.5-0.4,0.8-0.6c-0.2-0.2-0.4-0.6-0.7-0.7c-0.5-0.1-1-0.1-1.5-0.2
						l0.3-0.6c1.2,0.5,2.4,1,3.6,1.4l0.1-0.3L46,59c1.4-0.2,0.6-1.8,1.7-2.5c-1.2-0.3-2-0.5-3-0.7l-0.4,0.8l-0.3-0.3
						c0.4-0.6,0.8-1.2,1.8-0.7s2,0.7,2.9,1.2c0.3,0.2,0.4,0.8,0.7,1.3L47.9,58l0,0.4c0.7,0,1.3,0.1,2,0c0.4,0,0.7-0.1,0.7,0.5
						c0,0.7,0,1.5-0.1,2.2c-0.1,1.1-1.6,2.1-2.8,1.8c-0.6-0.1-1.3-0.3-1.9-0.3c-0.2,0-0.6,0-0.7,0.1c-0.8,1-2,0.9-3.1,1.3
						c-0.7,0.3-1.5,0.7-2.3,0.1l1.5-0.5l0-0.3c-0.9-0.3-1.7-0.7-2.6-1l-0.2,0.3l1.3,0.8L38,63.2l1.2,0.9c-0.6-0.1-1.1-0.2-1.7-0.4
						c-0.3-0.1-0.5-0.3-0.7-0.4c-0.2-0.1-0.3-0.3-0.5-0.5l-0.5,0.7c-0.4-0.7-0.4-0.7,1.3-0.9l0.4,0.6c0.7-0.8,1.5-1.5,2.2-2.3
						c-0.3,0.4-0.5,0.7-0.9,1.2l2.6,0.9C41.9,62.2,41.7,61.6,41.2,61L41.2,61L41.2,61z M48,58.7l-0.2,0.2l0.8,0.6
						c0,0.5-0.1,1-0.1,1.4c0,0.2,0.2,0.4,0.3,0.6c0.1-0.2,0.3-0.4,0.3-0.6c0-0.7,0-1.3,0-2L48,58.7L48,58.7L48,58.7z M48.1,61.1
						C48,60.3,48,59.9,48,59.3l-1.8,0.9C46.9,60.6,47.3,60.8,48.1,61.1z"/>
					<path class="st1" d="M32.8,55.4l-1.3,0.4c0.5,0.4,0.9,0.8,1.3,1.2c-0.9,0.3-1.5-1.2-2.5-0.2c-0.2-1.4-1-0.3-1.6-0.4l0.8,0.3
						c-1,0.2-1,0.2-1.1-0.1c-0.1-0.6,0.1-1,0.7-1.3C30.4,54.4,31.5,54.9,32.8,55.4L32.8,55.4L32.8,55.4z M29.1,55.5
						c0.9,0.2,1.6,0.4,2.4,0.5C31.2,54.9,30.7,54.8,29.1,55.5z"/>
					<path class="st1" d="M1.8,21.1L0,20.7c0.8-0.9,0.9-1.8,0.2-2.6l0.2-0.1l0.9,1.3l0.4-0.1c-0.1,0.4-0.2,0.6-0.3,0.9
						c-0.2,0.5-0.2,0.9,0.5,0.9c0,0,0,0,0.1,0.1L1.8,21.1L1.8,21.1L1.8,21.1z"/>
					<path class="st1" d="M24,6.8L24,6.8l-3.7,1.4l0,0L18,8.5v0c1.2-0.4,2.4-0.9,3.6-1.2C22.4,7,23.2,6.9,24,6.8L24,6.8L24,6.8z"/>
					<path class="st1" d="M24.6,52.1l-2.8,0.7l0.1-0.7c1-0.1,1.8-0.2,2.7-0.3L24.6,52.1L24.6,52.1z"/>
					<path class="st1" d="M41.8,50.8c0.3,0,0.6,0,0.9,0c0.2,0,0.5,0,0.9-0.1l0.4,0.5C43.7,51.5,42.1,51.2,41.8,50.8L41.8,50.8
						L41.8,50.8L41.8,50.8z"/>
					<path class="st1" d="M28.5,2.8C28.4,2.9,28.3,3,28.2,3C28.3,3,28.4,2.9,28.5,2.8z"/>
					<path class="st1" d="M29.1,5l1.4-0.9c0.5,0.3,1,0.7,1.4,1c0.8,0.6,0.6,1.4-0.4,1.8c-0.2,0-0.3,0-0.5-0.1l-0.5-1
						c-0.3,0-0.6,0.1-0.6,0.1C29.6,5.6,29.4,5.3,29.1,5L29.1,5z"/>
					<path class="st1" d="M31.4,0.7l0.1,0.1L31.4,0.7C31.4,0.7,31.4,0.7,31.4,0.7z"/>
					<path class="st1" d="M38.4,21l-1.5,0.5L36.2,21c1.5-1.3,3.1-2.5,4.6-3.7c0.3,1.3-0.9,2-1.6,2.8c0,0-0.2,0-0.2,0
						C38.2,20.1,38.1,20.2,38.4,21L38.4,21L38.4,21z"/>
					<path class="st1" d="M36.8,14.9c-0.3,0.6-0.5,1.2-0.9,1.5c-0.2,0.2-0.8,0.2-1.2,0.3c-0.2,0-0.5-0.1-0.7-0.2
						C34.7,15.7,35.5,14.9,36.8,14.9L36.8,14.9L36.8,14.9z"/>
					<path class="st1" d="M49.5,12.1c-0.6-0.3-1.2-0.5-1.7-0.9c-0.2-0.1-0.6-0.6-0.5-0.7c0.2-0.4,0.3-1,1-1.1
						c0.8-0.1,1.6-0.5,2.4-0.8c0.6-0.2,0.9-0.1,1.2,0.4c0.2,0.4,0.5,0.6,0.7,1c0.1,0.3,0.2,0.6,0.2,0.7l-3.7,0.6
						C49.2,11.7,49.3,11.9,49.5,12.1L49.5,12.1L49.5,12.1L49.5,12.1z"/>
					<path class="st1" d="M46.2,10.5c-0.5-0.7-1-1.3-1.5-2C45.6,8.9,46,9.6,46.2,10.5z"/>
					<path class="st1" d="M30.2,26.2v2.5l-0.4,0c0-0.8,0-1.5,0-2.3C29.8,26.3,30.1,26.3,30.2,26.2L30.2,26.2L30.2,26.2L30.2,26.2z"
						/>
					<path class="st1" d="M35.3,5.8l0.6-1L37.2,6l-0.6,0.8C36.1,6.4,35.7,6.1,35.3,5.8L35.3,5.8L35.3,5.8L35.3,5.8z"/>
				</g>
			</g>
		</g>
	</g>
</g>
</svg>
