<?xml version="1.0" encoding="UTF-8"?><svg id="b" xmlns="http://www.w3.org/2000/svg" viewBox="0 0 99.44 127.79"><g id="c"><g id="d"><g id="e"><g><path d="M54.4,5.32c1.8-.46,3.25-1.17,3.1-3.45-.07-1.08,1.83-2.12,3.25-1.82,1.36,.28,2.73,.62,4.04,1.07,.46,.16,.88,.65,1.15,1.09,3.38,5.54,6.7,11.11,10.11,16.63,.35,.57,1.14,.98,1.82,1.23,2.09,.77,4.22,1.41,6.32,2.14,1.52,.53,1.86,1.57,1.12,2.96-.31,.58-.61,1.25-.61,1.87-.02,7.21,0,14.41,.05,21.62,.01,1.79,.7,3.64-.63,5.26,1.45,1.62,.53,3.53,.56,5.29,.08,6.5-.02,13.01,.07,19.51,.01,.84,.86,1.64,1.06,2.51,.18,.8,.1,1.7-.05,2.52-.13,.68-.78,1.3-.78,1.95-.03,4.08-.03,8.16,.14,12.24,.05,1.22,.68,2.42,1.04,3.63l.52-.09v-3.34l.54-.02,.23,3.56,1.57-.7,1.24,3.28,2.7-1.58c.22,.82,.51,1.87,.78,2.92,.67,.37,1.35,.75,2.04,1.13l-.99,1.44,.1,.55c1.01-.8,2.39,.53,3.25-1.14l-.04,.05,1.34,.8-.09,.47-3.37,.58c-.14,.63-.09,1.44-.47,1.93-.46,.6-1.36,1.41-1.92,1.3-1.54-.29-2.52,.1-3.37,1.36-.21,.32-.91,.58-1.28,.48-1.62-.43-2.65,.09-3.2,1.65l-1.12-1.11,.8-1.29-1.17-.54c.66-1.13-.57-.57-.81-.9l-.74,1.17-2.16-1.16,.09-.54,1.89-.31-1.98-2.54-.81-2.22-.24,1.91-.17-.04v-6.83c-1.68,1.36-1.99,4.88-.98,6.52,.16,.26,.06,.67,.08,1.01l-.51,.03c-.68-1.66,.37-4.12-2.12-4.95,.22-.35,.71-.81,.72-1.28,0-.35-.63-.7-1.05-1.13-1.06,2.22-1.19,6.42-.4,9.01,.54,1.78,1.64,2.18,3.33,1.13l.65,1.71c.27-.51,.33-1.06,.09-1.37-.92-1.16-.58-1.92,.59-2.59,.35-.2,.58-.62,.86-.94-.08,.7-.09,1.41-.26,2.08-.54,2.22-.56,2.22,1.42,3l.16,1.5,.57,.38,.41-1.01,.92,1.54c-.36,1.72-1.25,2.81-3.16,2.46-1.13-2.25-2.56-.04-3.83-.05,.88-.92,2.37-1.61,1.26-3.49l-2.17,2.57c-2.31-1.03-2.42-.94-2.21,1.72l3.17-.84c-.24,1.24-.33,1.12-1.52,1.15-.71,.02-1.4,.72-2.34,1.24-.06-.74-.11-1.37-.16-1.99-2.25,.13-3.15,1.03-3.17,3.26-2.18,.68-4.39,1.37-6.54,2.05l-.71-2.28c-.7,.61-1.26,1.1-1.87,1.64l.77,2.63-4.85,.57c-.23-.94-.18-1.96-.64-2.3-.81-.61-1.8-.45-2.31,.71-.09,.21-.35,.42-.58,.48-1.6,.39-3.21,.76-4.82,1.11-1.15,.25-2.31,.46-3.58,.71,0-.47,.06-1.12,0-1.14-1.88-.4-2.54-1.74-2.35-3.55l.77-1.35-4.26-.6-.2,.37,1.44,1.03c-1.55,.24-2.85,.68-3.9-.95-.95-1.48-5.19-2.42-6.81-1.78-.47,.18-1.08,.09-1.61,.03-.94-.12-1.95-.86-2.66,.49-.09,.17-.78,.23-1.03,.07-2.37-1.43-5-1.48-7.63-1.68-.99-.07-1.95-.64-3.17-1.07,.2-.38,.57-1.08,.94-1.79,.01-.03-.06-.13-.1-.14-.11-.03-.23-.03-.34-.04,.09-.35,.18-.7,.37-1.45l-3.97,.37-.57-1.11-.59,.24,.67,1.94c-2.22,.49-4.44,.9-6.96-.37,1.29,.08,2.22,.12,3.15,.19,1.52,.11,1.8-.32,1.26-1.8-.12-.32,.12-.77,.19-1.16,0-.51,.19-1.35-.03-1.48-.96-.54-.74-1.28-.68-2.11,.05-.69-.14-1.4-.17-1.6l-1.09,.39-.94-.5v-5.98c1.74,.54,3.39,1.04,5.02,1.57,.63,.21,1.33,.64,1.03-.63l-.05,.04c.11-.29,.33-.58,.33-.87-.09-4.31-.2-8.62-.37-12.93-.01-.37-.52-.72-1.01-1.35-.3,3.11-.61,5.74-.78,8.39-.13,1.99-.07,3.99-.1,5.99l.02-.05c-1.35-.24-2.71-.49-3.88-.7,.12-1.07,.4-2.41,.41-3.75,.06-11.47,.07-22.94,.06-34.42,0-.7-.47-1.39-.57-2.11-.11-.78-.37-1.8,0-2.34,1.78-2.68,3.75-5.24,5.66-7.85,.17,.43,.34,.85,.55,1.39l5.09-8.1-.42-.26c-.75,1.16-1.43,2.37-2.26,3.47-.92,1.22-1.98,2.34-2.98,3.5,1.72-2.81,3.43-5.63,5.21-8.4,.18-.29,.89-.52,1.21-.4,3.16,1.13,6.3,2.34,9.45,3.54-1.43-.38-2.89-.72-4.31-1.17-1.8-.56-3.57-1.21-5.35-1.82l-.14,.45,10.62,3.85,.15-.38-1.04-.98c.93,.27,1.38,.07,1.36-1.05-.05-4.01,0-8.03-.05-12.04,0-.66-.17-1.51-.59-1.93-1.15-1.14-.73-2.14-.04-3.21,4.05-6.32,8.05-12.67,12.2-18.92,.61-.92,1.98-1.34,3-2l.26,.44-1.89,1.05,.18,.31,3.11-1.75,.15,2.9,5.23-1.23-2.58,1.39c2.73-.72,5.36-1.71,7.96-2.76,.18-.07,.18-.57,.27-.87v.05h.01Zm-17.38,110.99l2.01,.14,1.76-1.48c-2.39-.77-4.26-1.43-6.17-1.97-.87-.25-1.8-.26-2.7-.37,.21,.76,.42,1.51,.62,2.27-.87,.21-1.74,.42-2.88,.7,.89,.25,1.67,.43,2.42,.68,1.67,.56,3.32,1.17,4.99,1.71,.24,.08,.59-.17,.89-.26-.11-.25-.19-.51-.34-.74-.17-.25-.4-.46-.6-.68h0Zm-15.75-10.69l-2.59-2.09c0,2.18-1.15,3.69-.49,5.31l.58,.06,.58-3.71c.37,1.32,.62,2.65,.31,3.84-.41,1.6-.59,1.55,.69,1.72,.31-1.72,.61-3.43,.92-5.13,.26-2.29,.45-4.56-.95-6.63-.25,.13-.41,.16-.47,.26-.08,.14-.11,.32-.13,.49-.2,2.15,.49,4.06,1.54,5.89h0Zm31.04-3.94c.47,1.63,.93,3.26,1.41,4.94l1.38-.24c-2.25,1.22-1.39,3.31-1.44,5.15l-1.75-.85c.53,2.19-.57,4.12,.68,5.67l.68-.05,.34-4.82,1.52-1.4-.37,3.79,6.11-2.32-.26-.63c-1.65,.65-3.3,1.3-5.1,2.01,0-1.01,.06-1.77,0-2.52-.12-1.32-.31-2.64-.47-3.96,.05-1.56,.14-3.11,.12-4.66-.02-1.09-.6-1.44-1.59-.84-.41,.25-.81,.52-1.21,.8l-.39,5.8,1.06-.04-.72-5.82h0Zm15.46,16.58c.34-.77,.99-1.55,.96-2.31-.04-1.15-.55-2.29-.98-3.86-.54,.57-1.32,1.03-1.3,1.43,.12,1.67-1.02,3.78,1.38,4.8-.11,1.07-.33,2.14-.27,3.2,.02,.27,.9,.5,1.38,.74l.52-.46c-.57-1.18-1.14-2.36-1.7-3.54h.01Zm3.73-56.9l1.53-3.15,.18-3.88c-2.72,1.15-3.43,3.5-2.42,7.91l.76-.93c-.06,.55-.08,1.11-.17,1.65-.37,2.12-.76,4.23-1.15,6.41,2.12,.08,2.88-.7,2.89-2.24,0-1.01-.17-2.06,.06-3.02,.38-1.59-.34-2.3-1.67-2.75h-.01Zm-48.47-10.69c-.26,.7-.61,1.38-.75,2.1-.07,.36,.26,.8,.42,1.2,1.34-.79,2.9-1.38,3.92-2.46,.52-.55,.09-2.01,.09-3.13l-2.03,.85,.21-1.81c-3.71-1.67-5.03-.98-5.66,2.75,1.14,1.23,2.31,2.18,3.79,.5h.01Zm30.93,17.04l1.76,3.26,4.55-1.66-.17-.54c-1.32,.4-2.65,.8-3.97,1.2,1.17-.8,2.77-1.07,3.56-2.02,.75-.9,.64-2.5,.95-4.02l-5.13,1.71-1.16-1.71c.36-.42,1.02-.84,1.03-1.27,.09-3.31,.05-6.62,.05-9.93l-.58-.19c-.54,1.01-1.19,1.97-1.6,3.03-.48,1.24,.19,2.46-.5,4.03-1.1,2.47-.71,5.63-.79,8.51-.1,3.2-.02,6.41-.02,9.61l-.54,.04c-.12-.32-.36-.65-.35-.97,.08-2.48,.18-4.96,.34-7.43,.21-3.16,.54-6.3,.68-9.46,.04-.93-.43-1.87-.64-2.82-.08-.36-.17-.74-.13-1.1,.31-2.57,.66-5.13,1-7.69l-.59-.06-.12,2.21c-.16-1.37-.12-2.75-.17-4.12-.05-1.32-.18-2.64-.27-3.97h-.54l-.89,1.93c-1.3-3.18-3.94-3.78-6.76-4.44l-.41,4.45,5.17,1.45v15.8h-.67l-.1-1.7-4.11-.99c0-3.74-.03-7.18,.03-10.62,0-.64,.35-1.27,.56-1.97l-.94-.44c0,4.09-.06,7.91,.05,11.73,.02,.81,.71,1.6,1.08,2.4-1.14-.16-1.53-.77-1.51-1.95,.05-3.44-.03-6.88-.05-10.33,0-2.07,.05-4.14,.03-6.21,0-.41-.23-.81-.36-1.22l-.48,.09c-.26,3.38,.45,6.81,.23,10.08-.23,3.42-.32,6.76-.29,10.32l2.43-.82c.73,.45,1.49,.87,2.18,1.38,.43,.32,.74,.78,1.06,1.12l-4.18-1.66c-.1,1.07-.15,1.89-.26,2.69-.13,.97-.32,1.93-.49,2.89l-.28-.04v-2.81l-.45,.02v10.68h.14l.43-1.86c1.28,.38,2.28,.73,3.31,.98,1.45,.35,2.53,1.84,2.51,3.46-.03,2.59,0,5.17,0,7.63h-6.6v2.06l1.38-.89,1.27,2.74-.43,.19-.58-1.7c-.43,.41-.31,.91-.5,1.08-1.95,1.69-.3,2.27,.9,2.94,1.54,.86,3.12,1.67,4.68,2.5l-9.97-3.41c.38,.07,.76,.22,1.13,.2,.63-.04,1.25-.2,1.87-.31-.18-.63-.34-1.27-.55-1.89-.1-.31-.46-.6-.43-.87,.13-1.31,.35-2.61,.57-4.18,1.63-.21,1.42-1.82,1.46-3.37,0-.54,.34-1.07,.54-1.66l-1.12-2.24h-.29v5.5c-.42-3.04-.41-6.07-.43-9.09-.03-4.76-.07-9.52-.11-14.28,0-1.2-.46-1.56-1.49-.74,1.53-.5,1.75-1.62,1.64-3.06-.13-1.71,0-3.44-.04-5.15,0-.43-.29-.86-.45-1.28l-1.29,.67-.49-1.44c-3.09,2.87,.82,5.99-.16,8.92l-2.85-.52-.17,.68,3.85,1.15-.91,7.59-3.54-.18-.65-4.03s.41-.2,.42-.48c.1-2.43,.2-4.86,.11-7.28-.04-1.01-.16-1.65,1.15-1.35,.34,.08,.71,0,1.14,0,.08-.82,.3-1.54,.17-2.2-.12-.62-.45-1.42-.94-1.71-1.37-.8-1.53-1.5-.38-3.03-.07,.3-.16,.6-.2,.91-.13,.94-.1,1.98,1.15,1.8,.5-.07,.87-1.05,1.29-1.61l-.52-.43-1.34,.88-.45-1.56c.96-.19,2.54,1.12,2.68-1.11,.02,.78-.2,1.63,.08,2.26,.28,.64,1.04,1.08,1.59,1.61,.26-.28,.75-.56,.76-.85,.07-2.27,.05-4.55,0-6.82,0-.18-.42-.36-.62-.55,.39-.22,.84-.7,1.16-.63,1.93,.45,3.84,1.02,5.75,1.55l1.31-1.53c-6.82-2.35-13.49-4.64-20.24-6.96v2.2c3.11,1.08,6.23,2.07,9.26,3.28,1.04,.41,1.86,1.37,2.79,2.08-.22,.39-.54,1.14-.63,1.11-.87-.27-2.02-.43-2.5-1.06-1.4-1.89-3.24-2.04-5.39-1.98-.05,1.13-.15,2.14-.14,3.15,.13,9.98,.33,19.96,.38,29.93,.02,4.07-.3,8.15-.44,12.22-.04,1.15-.29,2.52,1.7,2.03l.19,3.72,.59,.18c.24-.58,.63-1.14,.68-1.74,.12-1.26,.12-2.55,.07-3.82-.06-1.45-.28-2.9-.33-4.35,0-.32,.42-.66,.64-.98h0c-.61,1.33,.57,1.56,1.3,1.98,.56,.33,1.23,.47,1.7,.64l-.89,2.73,1.48-1.32c-.13,2.21-.23,4.01-.34,5.82-.06,.95-.13,1.91-.19,2.87-2.21-.65-4.43-1.27-6.62-1.97-.74-.24-1.42-.69-2.12-1.04,.4-.86,1.13-1.71,1.14-2.57,.15-8.54,.22-17.08,.22-25.62,0-2.58,.2-5.29-1.69-7.48l1.56,.67v-4.95c.02-2.99,.2-6-.02-8.98-.06-.84-1.28-1.6-1.96-2.39-.24,.69-.67,1.38-.69,2.07-.09,3.88-.02,7.77-.14,11.65-.03,1.1,.41,1.61,1.3,1.97-.36,.04-.88-.06-1.04,.14-.64,.78-.06,3.82,.38,4.2-.24,1.81-.59,3.3-.58,4.78,.01,2.58,.39,5.17,.35,7.75-.05,3.4-.49,6.8-.5,10.21,0,2.85,.36,5.71,.57,8.56h-1.31v.2l24.61,8.36,.22-.6-3.7-1.65,3.84,.44c-.13-2.78-.26-5.55-.39-8.47,1.43-.37,2.94-.77,4.44-1.15l-3.06,2.37c1.08,0,2.09,.28,2.4-.07,.47-.53,.45-1.49,.64-2.27v-11.13l-.59-.23c-.61,.65-1.22,1.3-1.83,1.96,.2-.72,.29-1.5,.62-2.16,.8-1.61,.97-3.18,.13-4.81h-.05Zm-8.89-33.31c-.22-.26-.38-.65-.66-.76-3.22-1.32-3.23-1.31-3.21-4.34-.86,.16-1.97,.05-2.51,.55-1.01,.94-1.92,.47-2.46-.11-.38-.41-.07-1.46-.07-2.44l-3.1-1.24c-.15,2.77-.15,2.74-2.68,2.67-.46-.01-.93,.23-1.4,.36l-1.92,.32c.3,.63,.55,.82,.84,.92,4.41,1.6,8.82,3.17,13.22,4.79,2.61,.96,5.2,2,7.81,3.01-1.3,1.73-.87,2.34,2.2,3.15,.66-1.14,.33-1.84-.9-2.28-.5-.18-.91-.62-1.36-.94l3.01,.91c-.7-1.11-.97-2.05-1.56-2.36-1.67-.88-3.48-1.51-5.23-2.23l-.02,.02Zm34.61,14.93c.74-.15,1.49-.28,2.23-.44,1.54-.35,2.54-.88,2.4-2.9-.24-3.68-.08-7.39-.09-11.09v-3.59c-1.61,.52-3.77,3-3.56,3.85l1.27,.31-.27,3.82-.64-.08,.16-2.37-1.42,1.49-.41-1.25-.54,.08c0,3.04,.01,6.08,0,9.12-.01,2.3-.71,3.01-3.39,3.31-.2-3.09-.44-6.17-.57-9.25-.05-1.19-.18-2.56,.32-3.55,.77-1.52-.1-1.68-1.01-2.09v17.33c2.04-.99,3.78-1.84,5.52-2.69h0Zm-29.52,67.05c.29,1.96,.62,3.92,.85,5.88,.1,.86,.02,1.75,.02,2.63h.47v-8.94l-1.41,.5c.47-.82,1.33-1.62,1.35-2.45,.13-4.89,.06-9.79,.06-14.64-2.13-.72-3.22-1.45-3.28-2.19l2.81,1.27,.52-.52c-.38-.47-.68-1.21-1.17-1.38-7.64-2.67-15.31-5.28-22.97-7.87-1.46-.49-2.08-1.5-1.22-2.8,.91-1.39,.14-1.74-.88-1.96-1.55-.34-2.06-1.24-1.97-2.75,.09-1.58,.02-3.17,.02-4.75h-.43v6.42h-.39v-7.1h-.48v9.27c-.5-.65-1.06-1.09-.99-1.33,.72-2.45-.44-4.95,.33-7.46,.46-1.49,.08-3.24,.08-5.05l4.66,1.6c.76-2.7,.69-2.83-1.6-3.64-4.28-1.53-8.55-3.11-12.85-4.6-1.99-.69-4.03-1.22-6.13-1.85v14.19l2.65,.27v-10.95c3.21,1.12,5.98,2.1,8.76,3.07l-.1,.28c-2.43-.77-4.86-1.54-7.35-2.33v6.98h.47v-6.23l4.28,1.4,.74,12.1c-2.04-1.98-6.24-.95-5.2-5.18l.84,2.23c.76-1.92,.47-3.43,.15-4.94l-.58,.04v2.15l-.67,.17-.63-2.41h-.21v6.07c-.53-.07-1.08-.26-1.59-.18-.49,.08-.93,.44-1.39,.68l.68,1.05c-.31,.31-.9,.63-.9,.94-.09,5.66-.14,11.33-.11,16.99,0,.49,.58,.97,.88,1.46l.27-.3v-16.08c3.11,1.96,7.12,1.93,9.87,4.49l-2.27-.6c.4,1.18,.88,2.02,.96,2.9,.23,2.58,.21,5.19,.48,7.76,.22,2.09,.71,4.15,1.08,6.23l.57-.07v-19.81l1.47,.8c-1.75,1.86-1.05,8.9-.27,12.49,.21-1.89,.32-3.79,.17-5.67-.1-1.2,.24-1.92,1.29-2.38,.27,.35,.47,.89,.82,1.02,1.53,.57,2.17,1.55,2.09,3.2-.06,1.19,.17,2.39,.31,4.04,2.1-4.28,.63-7.51-3.27-8.2l-1.41-.43c2.53-.06,4.89,.37,6.67,2.41l.44-1.92,.76,1.83,.52-.2v-2.81c1.67,.89,4.2,.16,4.26,3.07,0,.07,.64,.13,.98,.19l-1.39,.14c.09-2.13-1.52-2.12-3.21-2.47,0,4.76,.09,9.4-.04,14.03-.06,2.03,.94,2.49,2.57,2.59v-12.53l.47-.2,.99,2.13,.82-.56c-.18,1.76-.35,3.53-.54,5.29-.25,2.32-.51,4.63-.77,6.95-.14,1.23-.27,2.46,2.05,2.48,.05-2.74,.11-5.43,.15-8.13,0-.06-.03-.12-.05-.18-.28-1.05,.59-2.23,1.67-2.25,2.17-.04,3.58,1.62,3.61,3.95,.02,1.89,.29,3.78,.47,5.82l-1.7,.99,6.42,1.96c0-3.79-.1-7.29,.06-10.78,.05-1.18,.79-2.33,1.21-3.49-.63,1.67-.21,2.01,3.08,2.44l-.46-.65c.26,.52,.74,1.04,.75,1.56,.08,2.58,.04,5.15,.04,7.82l1.58-.24-2.44,2.18,1.17,.64-.15,.53c-1.42-.3-2.85-.6-4.32-.9-.11,2.16,2.26,1.27,3.05,2.55-1.87-.52-3.73-1.04-5.81-1.61,.41,2.28,2.44,1.65,3.6,2.7l-2.5-.32c1.45,.71,2.91,1.4,4.44,1.68,1.03,.19,2.27,.92,3.28-.21h0Zm13.6-64.56h1.41c0-2.82,.08-5.47-.05-8.1-.03-.67-.74-1.32-1.35-2.34,.16-1.73,.63-2.73,1.4-3.02v3.2l.27,.02,.16-1.75c.23,1.77,1.69,2.19,2.94,2.11,1.5-.09,1.12-1.58,1.15-2.62,.06-2.1,.2-4.21,.05-6.29-.21-2.92,.67-6.12-2.29-8.72-.33,1.18-.6,2.34-.99,3.47-.09,.27-.54,.42-.82,.63,1.2-1.93,1.06-2.82-1.17-5.96-.77,2.74-1.5,5.37-2.09,7.51-.56,.6-.96,.85-1.06,1.18-.2,.66-.06,1.48-.38,2.05-.62,1.1-.84,1.96,.13,3.02,.35,.39,.8,1.42-.49,1.79-.17,.05-.04,1.86,.02,1.86,1.95,.14,1.48,1.54,1.51,2.7,.08,3.19-.77,6.55,1.72,9.32-.36,.39-.96,.74-1.03,1.17-.4,2.45-.68,4.93-1.06,7.89l3.16-1.66,.19,.32-1.8,1.29,3.8,4.56c-.2-2.55-.33-4.76-.59-6.97-.05-.47-.51-.95-.9-1.3-.53-.48-1.18-.83-1.64-1.14l2.06-3.07-2.26-1.16h0Zm10.55,33.63c2.68-1.26,5.38-2.44,7.98-3.81,.5-.27,.86-1.26,.88-1.92,.13-5.07,.22-10.15,.19-15.23-.01-2.07-.36-4.13-.59-6.49l-3.99,1.47c.64,.68,1.13,1.08,1.46,1.58,.52,.82,1.33,1.71,1.33,2.56-.02,4.95-.26,9.9-.37,14.84-.03,1.28-.34,2.25-1.6,2.78-1.47,.61-2.89,1.34-4.38,1.89-1.11,.42-1.55,1-.9,2.32h-.01Zm-12.27,.76c1-.73,1.92-1.33,2.76-2.03,.29-.25,.55-.72,.56-1.09,.04-3.09,.02-6.19,.02-9.48l-3.34,.81v11.8h0Zm10.84-13.53c-1.69,.28-2.54,.56-2.13,2.02,.13,.45-.13,.99-.14,1.48-.01,3.46,0,6.91,0,10.5,1.14-.34,2.56-.07,2.53-1.79-.06-3.97-.17-7.95-.26-12.21Zm-16.22-31.13c-3.19,.84-3.78,1.42-3.9,4.28-.11,2.56-.02,5.12-.02,8.08,.6-.71,.86-1.33,1.23-1.4,1.64-.28,1.39-1.49,1.54-2.61,.18-1.34,.54-2.66,.76-3.68l.4-4.67h0Zm11.08,53.94c1.46,1.39,2.08,3.19,1.03,4.38-1.39,1.57-.42,2.98-.42,4.41,0,1.23,.6,2.45,.79,3.7,.09,.61-.15,1.27-.2,1.65h2.25c-.29-.6-.65-1.29-.62-1.31,1.99-1.18,.09-2.81,.37-4.16l-.21,2.59h-.17l-.56-12-2.27,.75h0Zm5.36-5.71c-2.47,.23-3.62,.81-2.58,3.69l1.7,.33c-.35,.38-.74,.73-1.02,1.16-.27,.4-.63,.88-.61,1.32,.05,1.67,.24,3.33,.37,4.99l.66,.05c2.32-3.54,1.32-7.62,1.47-11.54h0Zm-5.65-9.26c1.12-.95,2.41-1.53,2.45-2.19,.18-2.55-.03-5.12-.1-7.72-1.92-.03-2.28,1.03-2.32,2.11-.1,2.4-.03,4.81-.03,7.8Zm-.98-38.46c-2.07,2.79-1.37,4.64,2.65,7.01,.57-4.39,.12-5.59-2.65-7.01ZM4.77,59.07l-.23,.74c7.34,2.59,14.68,5.18,22.02,7.77l.27-.75c-7.35-2.59-14.71-5.17-22.06-7.76Zm61.76,62.82c-.4-1.49-.36-3.47-1.27-4.13-1.02-.73-1.1-1.14-.94-2.13,.13-.78,.03-1.6,.03-2.65l-1.69,.82c.67,7.35,1.35,8.18,3.87,8.08h0Zm1.9-62.4c-1.22,.83-1.32,2-.39,6.82,.13,.65,.8,1.2,1.22,1.79l.48-.3v-8.09h-.24l-.43,1.5-.65-1.71h0Zm-6.14,30.24l.41,.27c2.08-1.64,6.07-.63,6.44-5.15-1.13,.47-2.04,.85-2.96,1.22-.96,.38-1.94,.73-3.26,1.23l-.63,2.44h0Zm19.51,3.07c2.55-.73,3.27-3.78,1.93-7.16-1.16,.91-3.37,.59-3.14,3.08l2.13-.57-.87,3.12h1.72l-1.76,1.53h0Zm-7.65-27.52c2.48-.7,4.65-3.54,4.19-5.5-4.31,1.24-4.73,1.8-4.19,5.5Zm-2.41-29.35l-.03-.26,1.77-1.08-1.04-1.19c-.78,1.16-1.79,2.19-2.25,3.43-.66,1.77,1.53,2.13,2.08,3.24l-1.07,1.37,.57,.25c2.82-1.4,.58-4.07,1.36-6.07l-1.39,.32h0ZM18.05,109.54l-.43,.07v7.77c1-1,1.7-1.78,2.48-2.47,.64-.56,.72-.92,.25-2.98l-.2,1.39-2.11-3.78h.01Zm38.07-16.95c-.35-2.45-1.55-3.97-3.73-5v5.91l3.73-.91Zm4.31-20.93l-.47-.05c-.06,.62-.17,1.25-.17,1.87-.02,3.5-.08,7.01,.02,10.51,.04,1.33-.39,1.98-1.68,2.27-.79,.18-1.52,.63-2.27,.96,2.31,.39,4.5-.61,4.54-1.97,.1-4.53,.04-9.07,.04-13.61v.02h-.01Zm8.71-13.49h.53c0-1.97-.05-3.94,.02-5.9,.06-1.65-.52-2.27-2.4-1.5,.17,1.29,.23,2.68,.56,4,.29,1.17,.86,2.27,1.31,3.41h-.02ZM23.68,108.91c1.37-5.41,1.04-8.78-.83-9.57,.04,3.27-.32,6.49,.83,9.57ZM39.4,9.31l-.49-.31c-4.16,6.38-8.33,12.77-12.49,19.15l.51,.33c4.16-6.39,8.32-12.78,12.47-19.16h0Zm16.55,80.04c1.22,2.28,2.83,2.71,4.44,1.21,.47-.44,.44-1.42,.64-2.16-.61-.12-1.27-.46-1.82-.32-1.09,.27-2.11,.81-3.26,1.27Zm4.92-45.29l-1.76-3.58-.34,.23-.18-3.39h-.51c-.27,2.45-.54,4.9-.81,7.38l3.59-.64h0Zm5.36-34.86l-1.95,.54-.12-.2,1.43-.81c-.88-.37-1.65-.19-1.97-.49-1.34-1.24-1.29-1.29-3.1-.23l1.68,.52-.6,.91,4.31,2.32,.32-2.57h0ZM23.85,115.91c-.61,0-1.34-.01-2.06,0-1.15,.02-1.82,.37-1.32,1.72,.39,1.07,3.27,2.31,4.15,2l-.76-3.72h-.01Zm37.65-20.82c-.39-1.02-2.13-1.29-3.31-.3-.79,.67-1.62,1.33-2.52,1.84-1.46,.82-1.59,1.84-.87,3.29,2.09-2,3.26-5.08,6.7-4.83Zm27.53,11.79l.08,.46-2.77,.73c1.05,1.2,2.32,.84,4.79-1.37-1.12-.61-2.08-1.17-3.08-1.65-.11-.06-.64,.37-.61,.45,.11,.31,.36,.57,.51,.77l-2.04,.66,.13,.35,2.99-.41h0Zm-1.61,2.75c1.49,1.06,2.57,2.64,4.2,1.9v-3.63l-4.2,1.73ZM17.89,53.03l-.67-.46-2.24,3.63-.77-.87-.34,1.43,.32,.52,2.71-1.26,1.48,1.57,.65-.4c-.24-.43-.37-1.03-.74-1.26-1.31-.81-1.59-1.7-.4-2.9Zm-1.74,57.29l.32-.14-.88-2.19-.79,.19-.31,5.47,.62,.04,.27-1.13,.17,.02v3.81h.49l-.3-6.95,.19,.02,.22,.87h0Zm27.12,11.84c.25,2.7,2.83,1.59,4.01,2.74l-1.51,.44c1.88,1.05,2.02,.95,2.84-1.62-1.71-.5-3.42-1-5.33-1.56h0Zm-28.58-17.66c1.31-1.94-.04-2.62-1.41-3.28-.34-.16-.71-.43-1.04-.39-.18,.02-.35,.57-.42,.91-.48,2.42,1.82,1.88,2.87,2.77h0Zm21.08-15.81c1.1-.88,1.34-3.67,.49-5.61-1.22,.65-1.48,3.62-.49,5.61Zm24.48,37.37l-.09-.63c-.85-.79-1.68-1.6-2.57-2.35-.19-.16-.64-.17-.87-.06-.22,.11-.5,.56-.43,.72,.36,.82,.64,1.92,1.31,2.31,.66,.38,1.75,.04,2.65,0h0Zm7.23-23.42h-.5l-.52,8.42,.63,.04c.09-.97-.13-2.16,.34-2.88,1.29-1.98,.23-3.73,.04-5.58h.01Zm-6.49-1.38l-.49-.03c.36,3.22-.5,6.56,.61,9.71l.51-.04-.63-9.63h0ZM47.39,26.45l.48-.34c-1.55-3.37-3.1-6.75-4.65-10.12l-.61,.29,4.78,10.16h0Zm35.31,25.96c-1.24-2.08-1.8,1.42-3.16,.14-.12-.11-1.78,1.41-2.76,2.21,1.81-.55,3.62-1.12,5.44-1.64,1.06-.31,1.44-.96,1.16-2.01-.03-.13-.22-.22-.42-.4l-.26,1.7Zm-21.66-25.87l-.32-.34c-.61,.63-1.77,1.29-1.74,1.89,.11,2.09-.57,3.29-2.69,3.6-.24,.03-.45,.3-.67,.46l.22,.42c1.27-.6,2.89-.91,3.71-1.89,.88-1.05,1.02-2.73,1.48-4.14h0Zm4.43,80.41c-1.38,.62-1.5,2.37,0,5.26v-5.26Zm-43.53,1.02c-1.2,5.02-1.09,6.02,.72,6.74l-.72-6.74Zm42.54-12.47c2.24-.36,2.61-1.59,1.91-3.39-2.42,.44-2.62,.79-1.91,3.39Zm-10.17-53.79c2.6-.72,2.83-1.13,1.71-2.98l-2.76,1.13,1.05,1.84h0Zm11.18,28.82l-.59-.48-2.97,1.58,.13,.72c.9,.06,1.88,.35,2.68,.09,.41-.13,.51-1.24,.75-1.9h0Zm-5.74-44.76c2.57-.25,2.63-2.3,3.44-4.34-2.65,.67-2.24,3.11-3.44,4.34Zm16.26,40.77c-2.05,.81-1.44,2.54-2.07,3.99,2.47-.53,2.21-2.14,2.07-3.99ZM27.34,106.44c-.41,2.72,1.53,2.18,2.79,2.75,.41-2.39-1.51-1.99-2.79-2.75ZM7.55,87.06l-.22-.06v13.17h.22v-13.11Zm57.79,3.41l-.23-.54-7.5,3.06,.15,.37,7.57-2.89h.01Zm3.94,23.24c.75-.42,1.46-.78,2.12-1.2,.22-.14,.52-.54,.46-.67-.13-.27-.46-.6-.73-.63-1.58-.15-2.27,.94-1.84,2.5h-.01Zm-6.12-20.42l-.88-.04c-.05,.96-.15,1.91-.12,2.87,0,.23,.45,.45,.7,.68,.22-.26,.62-.52,.62-.77-.03-.91-.2-1.82-.32-2.74Zm-8.97,21.98l.23,.46c2.44-.77,4.88-1.53,7.33-2.3l-.25-.73c-2.44,.86-4.87,1.71-7.31,2.57Zm-8.47,4.74l.71-.11c-.2-.95-.37-1.91-.64-2.84-.02-.08-.95-.06-.98,.04-.22,.82-.33,1.66-.47,2.5l.5,.07,.61-1.37,.26,1.71h.01Zm21.73-30.94l.2,.56c2.17-.89,4.34-1.78,6.52-2.68-2,.33-3.88,.99-5.75,1.67-.33,.12-.64,.3-.96,.45h0ZM10.06,111.27l.27-4.41c-1.44,.78-1.67,2.52-.27,4.41Zm19.91,4.91l-.19,.52c.96,.45,1.9,.94,2.87,1.34,.99,.41,2.01,.72,3.02,1.08l.21-.6-5.91-2.34Zm30.29-18.34l-1.35-1.58-2.48,2.7,.14,.25c1.11-.41,2.21-.83,3.68-1.38h0ZM9.49,55.66c-.58,.98-.15,1.45,.87,1.64,.82,.16,1.62,.35,2.44,.5,.58,.11,1.17,.19,1.75,.29l.04-.35-5.09-2.08h0Zm26.51,54.39c-.88-.17-1.64-.32-3-.58l2.53,2.93,.46-.34v-2.02h.01ZM48.53,28.85l-.45,.22,3.22,6.6,.4-.19-3.17-6.63Zm26.7,61.72l.35,.64,3.69-2.07-.34-.6-3.7,2.04h0ZM7.9,103.38l.2,2.26,.51,.17,1.87-2.43h-2.58Zm72.55-19.81l.34,.64,4.04-1.91-.3-.64c-1.36,.64-2.72,1.27-4.08,1.91Zm3.47-3.7l.03,.03v-6.69l-.36,.03,.32,6.64h.01Zm-23.4-17.01l-.27-.71-4.15,1.54,.22,.6,4.19-1.43h.01Zm19.27,21.76l-.36-.73-4.21,2.12,.26,.51,4.31-1.91h0Zm-5.76-4.01l.23,.53,5.77-2.64-.23-.5-5.77,2.61Zm-12.67-1.01l-.37-.06v6.2h.37v-6.14Zm9.33-37.89l-.92-.15-.41,2.07,1.33,.25v-2.17ZM19.4,95.72l.75,.84,1.71-1.12-.93-1.13-1.52,1.41h-.01Zm20.8,17.92l.57-.46c-.33-.42-.6-1.12-.99-1.2-.59-.12-1.26,.2-1.9,.33l.08,.54,2.24,.79Zm41.49-10.77l.88,.18,.38-3.7-.54-.08-.72,3.59h0Z" fill="#41463d"/><path d="M95.77,106.75c-.68-.38-1.37-.76-2.04-1.13-.05-.09-.2-.26-.18-.27,.85-.88,1.71-1.74,2.68-2.71-1.14,2.28,1.01,3.38,1.86,5.02l.04-.05-2.36-.86Z" fill="#41463d"/><path d="M5.2,107.79l-1.92,1.76,.34,.36-2.21,.22c.63-1.25,1.26-2.5,1.95-3.85,.36,.41,.63,.71,.9,1.01l.94,.5Z" fill="#41463d"/><path d="M10.31,102.26c-.65-.26-1.31-.52-1.96-.78l-.02,.05c.11-1.3,.24-2.59,.34-3.89,.11-1.35,.2-2.71,.29-4.06l.5,.04c-.08,1.13-.19,2.25-.22,3.38-.03,1.14-.07,2.3,.1,3.42,.1,.66,.6,1.26,.92,1.88l.05-.04Z" fill="#41463d"/><path d="M1.13,110.67c-.47,1.08,.4,.92,.96,1.02,1.71,.32,3.42,.62,5.13,.93-2.26-.17-4.52-.35-7.22-.56l1.13-1.4h0Z" fill="#41463d"/><path d="M9.45,115.65h3.48l-1.24,1.98c-.68-.6-1.45-1.29-2.23-1.98h-.01Z" fill="#41463d"/><path d="M37.01,116.31c-1.51-.48-3.02-.95-4.54-1.43,.66-.53,1.21-.61,2.08-.14,1.4,.75,2.97,1.16,4.47,1.71l-2.01-.14Z" fill="#41463d"/><path d="M40.57,97.45c.14,.28,.41,.56,.41,.85,.03,1.94,0,3.88,0,5.82v5.84l-.63,.02-.17-12.52h.39Z" fill="#41463d"/><path d="M48.28,97.31c-1.24-.42-2.44-.47-3.52,.43v-1.48c-.46,.08-.9,.15-1.35,.24-.83,.17-1.66,.36-2.5,.54l-.35-2.74,.55-.04-.04,.93,.89-.71,.64,1.92c1.52-1.08,3.37-.81,5.68,.9h0Z" fill="#41463d"/><path d="M33.19,94.23l.37-.81,2.21-.9,3.07,2.86c-.75-.43-1.46-1.11-2.26-1.24-1.1-.18-2.27,.04-3.4,.09h.01Z" fill="#41463d"/><path d="M54.01,67.82c-.38,.09-1.11,.18-1.11,.26,.07,2.2,.21,4.39,.34,6.59l-.8,9.31h-.08v-19.84h.23l.23,2.91,1.56-3.12-.37,3.91v-.02Z" fill="#41463d"/><path d="M49.39,67.96c-1.42-.72-3.48-.34-2.98-2.77l2.98,.51v2.26Z" fill="#41463d"/><path d="M34.73,77.24c-.64-1.04,.13-3.1-2.23-2.84l.18-1.69,1.02,1.3c1.27-.75-.44-3.33,2.14-2.73,2.41,.56,2.63,.99,2.06,3.76l-2.89-1.22c-.1,1.19-.2,2.31-.29,3.42h0Z" fill="#41463d"/><path d="M61.79,39.02c.13-2.26,.27-4.52,.4-6.78h.15v6.76l-.55,.02Z" fill="#41463d"/></g></g></g></g></svg>