<?xml version="1.0" encoding="UTF-8"?><svg id="b" xmlns="http://www.w3.org/2000/svg" viewBox="0 0 63.47 34.13"><g id="c"><g id="d"><g id="e"><g><path d="M55.9,28.05c-1.7-.05-3.39-.08-5.09-.17-1.86-.11-1.85-.14-2.02,1.67l1.35-1.12,1.51,.96-.6,1.09,1.93-.48,.2,.59-2.48,.88,.34,1.62c-1.11-.52-2.6,.07-4.32,.06-1.34,0-2.17,.18-3.27,.85-.78,.47-1.11-.46-1.05-1.4,.04-.56-.35-1.33-.79-1.71-.96-.81-1.62-.24-1.57,.81,.07,1.35-.61,1.58-1.61,1.29-1.4-.4-3.03,.7-4.28-.69-.03-.03-.6,.42-1.02,.72l-.97-1.23-6.09-.67,2.56-4.11c-.07-.09,.17,.24,.27,.38l2.11-2.03v1.72l.28,.06,.51-1.24,.26,1.66,.31,.04,.59-2.29,.34,2.26,.32-1.37,.62,1.97,1.13-2.79v2.49l1.92-.98-.44,4.29,.45,.11,1.71-4.03,.46,3.17h.54l.28-4.59,.33-.02c.04,.83,.02,1.68,.14,2.5,.05,.33,.38,.62,.59,.93,.14-.31,.4-.63,.41-.94,.04-1.73,.02-3.45,.02-5.39l1.38,1.47,1.02-1.31-.43,4.26,.65,.11c.08-.65,.2-1.29,.24-1.94,.04-.69,0-1.39,0-1.95l2.99-.29-.87,1.74,.27,.29c.42-.46,1.03-.86,1.21-1.4,.65-1.92,1.65-2.64,3.97-2.19,.25-1.3,.39-2.64,.8-3.89,.2-.63,.89-1.09,1.36-1.63l.69,.46c-.33,.9-.78,1.77-.94,2.69-.16,.91-.04,1.86-.04,2.87l1.96-1.51,.28,.24-1.19,3.08,3.16-.55c-.12,.49-.2,.84-.2,.82l.9,1.09,.08-.06-4.13,1.93,1.44,.48-.48,.34v-.02Zm-6.83-1.05c-2.24-2.24-2.68,1.31-4.28,1.26l2.57,1.23,1.71-2.49Z" fill="#41463d"/><path d="M35.69,13.89c-2.7-.73-5.43-1.37-8.09-2.23-.9-.29-1.71-1.04-2.4-1.73-.65-.65,.06-2.3,1.09-3.65l-1.04,.43V0l.32,.02-.23,2.88c.47-.79,.7-1.71,1.26-1.98,.59-.28,1.49,.02,2.24,.14,.5,.08,.99,.25,1.45,.44,3.23,1.33,6.44,1.75,9.66-.03,.25-.14,.58-.11,1.09-.2,0,1.77,.08,3.41-.05,5.02-.03,.44-.63,.95-1.09,1.2-1.01,.54-2.1,.93-3.16,1.38l.23,.42,4.78-2.07v3.04l2.56,1.8c-2.8,1.49-5.42,3.18-8.67,1.77,1.37-.67,1.51-3.26,.39-4.8l-.33,4.86h0Zm3.78-7.66l.46-3.42c-2.69,.33-1.93,2.25-2.17,3.82l1.71-.41h0Zm-9.05,2.77l.33-.04-.54-4.52h-.73c-.32,.01-.64,.04-.59,.03l.93,1.62c-1.91,.62-.35,1.75-.28,2.66l.26-1.65,.62,1.89h0Z" fill="#41463d"/><path d="M5.94,14.93l-.64-3.27,.4-.13,.74,2.31,.39-2.92,.51,.03-.21,4.4,.38,.07,.81-1.28,.37,1.65,1.87-3.13,.35,.22-1.27,4c2.78-1.43,2.97-1.36,4.87,1.66l-2.16-.39c-.35,.48-.62,1.06-1.07,1.4-.79,.59-1.68,1.03-2.54,1.51-.21,.11-.51,.19-.72,.13-.69-.19-1.35-.6-2.04-.64-.69-.04-1.4,.25-2.62,.5l1.32-1.56-4.68-1.71,.99-1.74,3.55-.37-1.1-2.16,.53-.45,1.59,2.06,.4-.17-.02-.02Z" fill="#41463d"/><path d="M55.9,28.05l.48-.34,1.78-1.03,.31,1.25h.61v-2.62l-.08,.06c.24,.03,.64-.01,.7,.1,.88,1.93,1.7,1.37,2.79,0l-.12,1.96,1.1,.14v.49h-7.57Z" fill="#41463d"/></g></g></g></g></svg>