<?xml version="1.0" encoding="UTF-8"?><svg id="b" xmlns="http://www.w3.org/2000/svg" viewBox="0 0 44.27 37.73"><g id="c"><g id="d"><g id="e"><g><path d="M30.39,36.65c-.12,.22-.2,.47-.35,.65-.14,.16-.37,.23-.56,.34l-.1-.17,.28-.25-.05-.17c-.32,.06-.67,.07-.97,.19-.34,.13-.61,.23-.7-.3,.43-.04,.86-.08,1.33-.12-.36-.51-.64-1.07-1.08-1.43-.19-.15-.75,.1-1.11,.24-.17,.07-.28,.32-.41,.49,.32,.19,.65,.38,.98,.57l-.07,.08c-.55-.09-1.1-.17-1.66-.26-1.01-.16-1.33,.08-1.48,1.16-.32-.28-.62-.55-.93-.83-.41,.3-.81,.58-1.22,.88-.27-.72,.28-1.17,1.76-1.51-.35-.21-.58-.57-.97-.12-.34,.39-.97,.29-1.36-.26,.64,.13,.93-.13,.97-.81l.54,.68,.28-3.01c.58-.73,.58-.86-.29-1.57-.18,.46-.42,.86-.46,1.28-.04,.51,.09,1.03,.16,1.54,.09,.7-.3,1.05-.98,.85-.06-.02-.12-.04-.18-.05-.32-.04-.65-.08-1.04-.13,.29,.62,.55,1.17,.81,1.73l-.16,.08c-.61-.74-1.04-1.57-1.29-2.51-.17-.62-.48-.74-1.26-.45-.53,.2-.48,.55-.23,.96,.2,.32,.36,.66,.55,.98l.26-.15-.47-.9,.77,.47,.22-.31c.61,.88,.71,2.08,1.83,2.52-.44-.07-.88-.12-1.32-.22-.14-.03-.25-.2-.35-.32-.42-.52-.94-.56-1.44-.12-.1,.09-.29,.08-.44,.12l-.05-.16,1.08-.65c-.43-.27-.77-.45-1.08-.69-.1-.07-.07-.34-.16-.38-.3-.14-.63-.21-.95-.3l1.43-1.45c.73,.68,1.48,.52,1.71-.32,.24-.87,.44-1.75,.6-2.63,.04-.2-.08-.54-.23-.62-.15-.08-.5,.02-.64,.16-.84,.86-1.63,1.76-2.44,2.64-.4,.43-.77,.89-1.2,1.28-.39,.35-.28,.64-.04,.98,.09,.13,.1,.31,.15,.47l-.15,.08,.41,.26c-1.05,1.43-1.33,1.64-2.04,1.56l.82-.36c-.26-.21-.71-.25-1.38-.11,.33-.15,.65-.33,.99-.44,.32-.1,.67-.13,1.05-.2l-.15-.66c-.62,.23-1.19,.45-1.76,.67l-.07-.16,.85-.42-.06-.19-.66,.16,.43-1.19c-.54-.19-.97-.38-1.43-.46-.17-.03-.56,.24-.55,.35,.05,.53,.21,1.05,.35,1.69-.3,.27-.3,.32,.31,.81-.18,.07-.35,.21-.47,.17-.74-.19-1.5-.34-2.2-.65-.66-.29-.63-.37-.15-.99l-.68-.31v1.09c-.14-.12-.23-.15-.24-.21-.17-.64-.44-.66-1.09-.49-.84,.22-1.55,.68-2.36,.92-.03,0-.08-.02-.13-.04,.03-.47,.04-.94,.11-1.41,.05-.33,.18-.56,.6-.28,.16,.11,.47-.02,.72-.05l.12-.21,.31,.73,.16-.17c-.21-.69-.42-.75-1.03-.63-.38,.07-.83-.08-1.23-.19-1.11-.31-2.21-.65-3.31-.99-.1-.03-.2-.12-.28-.2-.26-.26-.26-.27-.64,.21,.31,.07,.6,.1,.85,.21,.4,.17,.79,.36,1.14,.61,.07,.05-.08,.4-.14,.69l-.58-.97-.66,1.17c-.16-.53-.25-1.02-1.02-.82l.54,.44-.07,.13-1.61-.7,.09-.22,.83,.31,.15-.53c-.19-.09-.37-.15-.52-.25-.17-.12-.47-.29-.45-.4,.04-.22,.21-.55,.39-.59,.88-.23,1.62-.89,2.69-.57,1.06,.32,2.2,.35,3.35,.52-.8-.31-1.59-.62-2.3-.89,.41-.29,.78-.61,1.2-.82,.6-.29,1.23-.51,1.87-.71,.14-.04,.35,.17,.61,.31v-1.07c.55,.17,.68,.05,.67-.51-.03-2.68-.04-5.37-.06-8.05,0-.44,.05-.9-.05-1.33-.1-.39-.36-.75-.58-1.17l.51-.73-.84,.28c-.07-.26-.19-.58-.24-.9-.03-.17,0-.45,.11-.52,1.03-.66,1.37-1.85,2.1-2.73,.77-.92,1.54-1.84,2.26-2.8,.26-.33,.58-.78,.54-1.14-.12-1.12,.52-1.52,1.4-1.83,1.18-.41,2.34-.88,3.52-1.29,.44-.15,.57-.4,.56-.85-.05-1.46-.06-2.92-.08-4.37,0-.43,.34-.56,.94-.44,.64,1.5,.18,3.01,.3,4.65,.62-.16,1.21-.32,1.8-.47,1.09-.28,1.83,0,2.48,.92,.42,.6,.86,1.2,1.28,1.81,.27,.39,.55,.48,1.02,.28,1.87-.77,3.76-1.47,5.62-2.24,.59-.24,.98-.15,1.24,.42,.15,.33,.23,.7,.38,1.04,.06,.12,.28,.16,.36,.28,.41,.64,.84,1.27,1.18,1.94,.15,.3,.12,.69,.16,.99l.21-.25c.56,.94,1.09,1.86,1.64,2.76,.53,.88,1.06,1.77,1.64,2.61,.24,.34,.82,.52,.92,.87,.21,.73,.26,1.52,.26,2.28,0,.71-.24,1.4-.26,2.11-.04,1.84-.01,3.69-.01,5.61,.5-.05,.99-.08,1.47-.17,.83-.16,1.58-.15,1.95,.78,.26,.65,.8,.59,1.33,.64,.21,.02,.42,.1,.63,.16l-.03,.21c-.37,0-.74,.02-1.1,0-.32-.02-.62-.13-.66,.39-.04,.54,.31,.57,.65,.65,.1,.02,.23-.06,.45,0l-.54,.66c.14,.56,1.32-.21,.98,.9-.74,.19-1.44,.79-2.29,.2-.2,.94-.31,1.02-1.24,.85-1.35-.25-2.61,.15-3.87,.51-.15,.04-.26,.26-.39,.4l-1.05-.13c.04,.27,.08,.42,.09,.58,.03,.44,.08,.86-.49,1.08-.25,.09-.4,.41-.61,.61-.71,.72-1.24,.78-2.14,.23-.46,.38-.93,.77-1.42,1.17,.92,.7,1.79,.64,2.85,.04l1.04-.07,.17,.3s-.05,.05-.08,.06c-.67,.16-1.34,.33-2.01,.47-.79,.16-1.48-.08-2.16-.48-.45-.27-.78,.09-1.08,.34-.08,.07,.06,.38,.1,.58l.2-.03-.03-.38,.81,.47v-.02h-.03Zm5.78-7.96c.52-.19,1.06-.37,1.57-.58,.4-.17,.67-.45,.63-1.01-1,.33-1.93,.64-2.99,.99,.28,.27,.46,.43,.63,.6h.15ZM21.66,11.7c-.18-.28-.38-.54-.54-.83-.36-.62-.64-.66-1.18-.13,.2,.39,.37,.8,.59,1.17,.1,.18,.3,.29,.46,.44,.12-.32,.8-.1,.65-.67,.23,.02,.45,.04,.68,.03,.02,0,.07-.22,.04-.32-.13-.4-.28-.79-.42-1.18,.11,.1,.26,.19,.33,.31,.4,.66,.96,.85,1.69,.59,.03-.01,.05-.06,.13-.15-.15-.28-.3-.6-.49-.89-.14-.2-.41-.54-.51-.51-.41,.14-1.05-.04-1.13,.66-.34-.2-.62-.16-.82,.17l.52,1.3h0Zm-9.5,6.63c.07,.08,.12,.2,.2,.23,1.2,.44,2.4,.88,3.61,1.29,.63,.21,1.28,.36,1.92,.54l.07-.16c-.17-.1-.33-.24-.51-.3-.96-.35-1.93-.72-2.91-1.01-.79-.24-1.6-.37-2.4-.56-.18-.15-.34-.38-.55-.44-.79-.23-1.6-.4-2.4-.6-.12-.03-.23-.07-.34-.11l-.05,.16c.83,.28,1.65,.56,2.48,.82,.28,.09,.59,.1,.88,.14h0Zm-2.21,2.18l-.11,.17c.65,.02,.71,.5,.71,.9,0,1.07-.03,2.14-.1,3.2-.03,.46,.2,.64,.57,.75,.68,.21,1.35,.45,2.03,.61,.49,.12,.31,.34,.24,.57-1.54-.56-3.03-1.1-4.54-1.65v3.35c.14-.32,.2-.64,.21-.96,.02-.35,0-.7,0-1.05,.09,.19,.1,.37,.09,.56,0,.46,.07,.7,.62,.42,.38-.19,.83-.22,1.25-.29,.09-.01,.2,.11,.3,.17,.38,.28,.75,.55,1.21,.89l.27,1.06,.26,.03,.66-1.18-.92-.49,.64-.34c.17,.2,.28,.45,.44,.48,.13,.03,.38-.18,.44-.34,.04-.1-.2-.29-.3-.43,.69-.39,.71-.67,.03-1.23-.07-.06-.14-.17-.14-.26,0-1,0-2.01,0-3.09l1.32,.2,.04-.14-5.21-1.94h0Zm-1.29-2.18c0,.49-.04,.84,.02,1.16,.02,.16,.18,.37,.33,.42,2.4,.84,4.81,1.65,7.21,2.49,.48,.17,.93,.42,1.4,.64,.03,.01,.02,.09,.03,.1l-.42-.06c0,1.23,.03,2.41,0,3.58-.02,.59,.22,.79,.86,.72,0-1.88,.01-3.74-.02-5.59,0-.2-.24-.5-.44-.57-.98-.38-1.98-.72-2.99-1.05-.14-.05-.3,0-.57,0l.28,.27c-.17-.02-.38-.05-.41-.15-.2-.65-.63-.61-1.15-.47-.14,.04-.33-.01-.47-.07-1.16-.44-2.31-.9-3.64-1.41h0Zm.23,11.43c1.13,.2,2.11,1.01,3.4,.92,.04-.28,.09-.55,.1-.82,0-.17-.02-.47-.09-.49-.76-.22-1.53-.46-2.31-.55-.53-.06-1.09,.11-1.66,.18-.18,.53,.25,.86,.65,1.25-.74-.41-1.3-.1-1.8,.37-.35,.33-.36,.72-.08,1.08,.3,.4,1.62,.69,2.08,.49-.21,.38-.4,.67-.9,.29-.25-.19-.65-.18-.99-.26l-.07,.2,.96,.56-.36,.33c.12,.14,.24,.25,.32,.38,.1,.15,.16,.32,.24,.49,.58-.36,.75-.77,.52-1.22,.71-.57,1.42-1.14,2.11-1.69-.75-.54-1.43-1.04-2.11-1.53h0Zm10.25-6.9v6.31h.2v-2.78c.87,.75,.26,1.75,.54,2.39,.68,.1,1.22,.17,1.82,.26v-5.05h-.13c-.06,.93-.12,1.87-.18,2.81h-.18v-4.03h-.21v3.71h-.23v-4.07h-.14l-.12,.89h-.12l-.09-.66h-.08v3.3h-.21c-.25-1.24-.09-2.53-.33-3.8v1.47h-.18v-1.84c-.48,.45-.87,.68-.83,1.27,.04,.47-.07,.95-.12,1.43l.18,.02c.2-.47-.2-1.09,.37-1.64h0Zm15.11,2.87c-.47,0-.73-.03-.42-.55,.2-.33,.6-.5,.58-1.04-.05-1.41,.03-2.82,.05-4.24,0-.55,0-1.09,0-1.64h-.29v2.47h-.23v-2.31l-.19-.06c-.14,.2-.38,.4-.39,.61-.05,1.29-.05,2.57-.07,3.86,0,.56,0,1.13,0,1.69h-.23v-1.79h-.16v3.75l.39-.22c.07,1.04-.57,2.03-.07,3.07,.65-.28,1.11-.56,1.03-1.34-.07-.73-.02-1.48-.02-2.27h0Zm-1.7,5.08c-.04-.62-.75-1.12-1.25-.85-1.36,.73-2.68,1.5-4.02,2.27-.04,.02-.06,.1-.11,.19l.45,.2c.31-.74,1.04-1.24,1.61-1.1-.18,.1-.36,.16-.5,.28-.19,.16-.45,.33-.49,.53-.04,.22,.08,.53,.23,.71,.33,.37,.6-.02,.86-.17,.48-.28,.94-.61,1.34-.87,.43,.27,.58,.91,1.09,.53,.5-.36,.91-.85,1.31-1.24l.15-.94-.68,.47h0Zm-11.87,1.12c-.06,.15-.13,.3-.19,.46-.26,.64,.22,1.85,.87,2.08,.25,.09,.54,.1,.81,.07,.13-.01,.28-.18,.33-.31,.03-.08-.1-.26-.2-.34-.21-.18-.45-.33-.65-.47,.2-.34,.48-.6,.46-.84-.06-.83,.81-1.24,.82-2.06,0-.4,.02-.81-.44-.87-.36-.05-.73-.09-1.13-.13-.14,.84-.69,1.65-.19,2.7l-.49-.29h0Zm2.9-10.35l.21-.18c-.43-.84-.82-1.69-1.29-2.51-.84-1.48-1.37-3.11-2.57-4.41-.75-.81-1.21-1.88-1.81-2.84l.25-.24c.12,.22,.21,.45,.35,.64,.14,.19,.33,.34,.49,.51-.01-.73-.85-1.35-1.76-1.5,.55,.91,1.13,1.8,1.64,2.73,1.36,2.43,2.69,4.87,4.05,7.3,.1,.18,.29,.31,.43,.47Zm6.27,7.09l-.08-.16c-.13,.04-.26,.07-.38,.13-1,.56-2,1.12-3.01,1.68-.35,.2-.34,.43-.03,.62s.38,.39,.28,.73c-.04,.13,.03,.29,.06,.47,2.3-1.18,3.23-1.97,3.51-3.01l-1.11,.38-.09-.21,.85-.62Zm1.83-15.63l-.13-.22c-.64,.11-1.32,.13-1.91,.37-.89,.37-.99,.92-.38,1.47,.18,.16,.43,.27,.67,.34,.48,.15,.97,.25,1.39,.34,.27-.84,.78,.26,1.08-.28-.51-.52-1.19-1.08-.71-2.03h0Zm8.14,13.44c.07,.9,.13,1.71,.2,2.54,.56,.15,1.12,.3,1.77,.47l.23-2.82-2.19-.2h0Zm-16.85,3.04l.15,.03c.03-.05,.09-.1,.09-.16-.02-2.11-.04-4.23-.07-6.34,0-.1-.15-.2-.23-.3l-.18,.04v3.34h-.26v-3.25h-.2c-.03,.25-.09,.49-.09,.74-.02,1.29-.03,2.58-.03,3.87,0,.19,.12,.37,.18,.56l.64-.22v1.7Zm-20.86,1.93c.25,.16,.36,.25,.49,.32,.18,.1,.53,.18,.54,.28,.03,.53,.46,.5,.78,.64,.48,.2,.97,.39,1.46,.57,.79,.29,.97,.21,1.42-.61-.62-.74-3.27-1.54-4.69-1.2h0Zm26.24,2.79c.73,.87,2.54,.85,3.19-.05,.06-.08,.13-.23,.1-.28-.21-.35-.39-.76-.7-.99-.32-.23-.79-.31-1.16,.02-.48,.43-.95,.86-1.43,1.3h0Zm.7-7.72h-.22v-5.87l-.25-.02c-.04,.2-.12,.39-.12,.59,0,1.73,.02,3.46,.03,5.19,0,.79,0,.79,.76,.78v-6.56h-.2v5.9Zm-11.81-14.84l-.19,.03v1.04c-.03,2.11-.07,4.21-.09,6.32,0,.21,.14,.42,.21,.63,.2-.12,.24-.18,.24-.23,0-2.43,0-4.85,0-7.27,0-.17-.12-.34-.18-.52Zm17.76,21.01c0-.75-.21-.94-.76-.78-.52,.15-1.04,.32-1.55,.53-.12,.05-.28,.29-.25,.38,.09,.29,.2,.67,.43,.8,.41,.23,.88,.21,1.27-.18,.16-.16,.35-.27,.52-.42,.15-.13,.28-.28,.34-.33h0Zm-12.72-12.22c-.32-.57-.54-1.03-.84-1.44-.11-.15-.4-.26-.59-.23-.45,.05-.91,.17-1.34,.32-.16,.06-.32,.29-.34,.46-.02,.14,.12,.4,.25,.45,1.01,.4,2.03,.77,3.06,1.15l.07-.17c-1.07-.46-2.13-.91-3.2-1.37l.1-.23c.89,.33,1.79,.67,2.84,1.05Zm1.52,2.58h-.21v.8c.02,1.88,.04,3.75,.08,5.63,0,.17,.17,.33,.26,.49,.07-.15,.21-.3,.21-.45,.04-1.47,.06-2.95,.07-4.43,0-.13-.08-.27-.12-.4l-.16,.03v2.82h-.14v-4.5h0Zm-6.21,8.13l.19,.02c.25-.31,.78-.47,.47-1.06-.04-.08,.09-.23,.11-.34,.06-.48,.1-.96,.15-1.44l-.27-.11c-.17,.22-.29,.53-.51,.65-.22,.11-.54,.02-.87,.02l-.05,.99h.09l.19-.59h.16l.33,1.86h0ZM33.76,13.4c.06,.45,.28,.94,.12,1.23-.16,.29-.69,.38-1.17,.62,.27,.16,.6,.52,.81,.46,.26-.08,.49-.47,.61-.77,.22-.55,.34-1.14,.5-1.71l.19,.04c-.12,.59-.24,1.17-.36,1.76l.19,.05c.13-.23,.26-.46,.39-.69,.28-.5,.1-.97-.22-1.33-.08-.09-.57,.17-.86,.27-.09,.03-.18,.07-.19,.07h0Zm-24.94,7.19c-.04,.11-.11,.2-.11,.29,0,1.18-.04,2.36,0,3.54,0,.22,.3,.42,.47,.64l.12-.1v-3.75h-.12l-.15,.38c-.64-.2,.62-.73-.23-.99Zm19.29,2.58l-.21-.03c-.03,.09-.08,.18-.08,.26,0,1.4-.02,2.79-.02,4.18,0,.77-.28,1.02-1.06,1.01-.4,0-.81,.03-1.22,.05v.2c.21,0,.4-.03,.59,0,.22,.04,.43,.13,.64,.21,.18,.07,.43,.29,.52,.23,.25-.16,.6-.42,.62-.66,.12-1.82,.16-3.65,.23-5.47h0Zm10.08,.96l-.15,.02c0,.1-.03,.2-.03,.29,.02,.96,.02,.97-.93,.98-.85,0-1.32,.54-1.07,1.28,.58-.25,1.16-.47,1.72-.75,.9-.43,1.08-.91,.71-2.07l-.07,.91h-.05l-.13-.67h0Zm-25.12,5.35l.08,.23c.37-.08,.89-.03,1.07-.25,.57-.71,1.01-1.52,1.5-2.29-1.37,.29-1.73,1.59-2.65,2.32h0Zm-6.62,1.7c.24-.31,.41-.58,.63-.8,.22-.21,.5-.36,.85-.6-1.41-.2-2.39-.03-2.84,.95,.45,.15,.9,.3,1.36,.45h0Zm6.2,4.83c-.1-.51-.16-1.18-.25-1.19-.58-.03-1.18,.07-1.76,.17-.11,.02-.18,.25-.27,.38,.13,.08,.26,.19,.39,.23,.55,.13,1.1,.24,1.88,.41h0Zm22.93-17.87l-.32-.17c-.02,.43-.04,.79-.06,1.15h-.13l-.04-.91h-.17v1.33c1.61-.37,2.04-.95,1.45-2.04l-.16,1.09h-.08v-.9l-.12-.05-.36,.51h0Zm-9.87,12.53c-.54,.38-.84,.8-.89,1.27,.32-.2,.61-.39,.98-.63l.04,.89-.53-.28-.05,1.15c1.21-.26,1.31-.78,.45-2.41h0Zm-15.5-9.24l-.26-.04c-.06,.19-.17,.37-.18,.55-.03,.67-.04,1.34-.04,2.01,0,.33,0,.67,.03,1,.01,.11,.17,.19,.26,.29,.06-.07,.18-.15,.18-.22,0-1.2,0-2.4,0-3.61h0Zm5.85,11.98l.74-1.06c-.88-1.01-1.64-1.32-2.12-.82l1.64,.46-.07,.25-1.48-.26-.05,.18c.36,.13,.73,.26,1.06,.37l.29,.87h0ZM31.68,5.5l-.1-.28c-1.91,.74-3.81,1.48-5.72,2.22l.08,.21,5.73-2.15h0Zm-5.27,28.62c.45-.09,.81-.11,1.12-.24,.14-.05,.23-.3,.27-.48,.02-.1-.11-.23-.17-.34l-.52,.34-.27-.87-1.05,1.21c.54-.25,.71-.08,.62,.38h0Zm-10.52-7.65h.32l.58-1.61-1.35-.23,.44,1.85h0Zm-2.01,5.85l-.63,.95c.31,.05,.69,.19,.74,.11,.29-.47,.55-.15,.83-.03,.35,.15,.72,.4,1.16-.1-.71-.31-1.38-.61-2.09-.93h0Zm24.57-6.25c-1.33,.48-2.45,.87-3.57,1.29-.1,.04-.23,.22-.21,.31,.02,.11,.21,.28,.28,.26,.26-.07,.5-.19,.73-.32,.32-.18,.61-.44,.94-.57,.5-.19,1.04-.27,1.55-.44,.11-.04,.15-.27,.28-.54h0Zm-.41-3.25h.15v-2.09h.18v2.07h.17v-3.76h-.11l-.09,.97h-.08l-.11-.63h-.12v3.43h0Zm-8.48-1.5c.17,.07,.35,.1,.47,.2,.32,.25,.49,.09,.53-.21,.05-.44,.01-.88,.01-1.33l-.2-.05-.4,.43-.41-.47v1.42Zm8.3,7.74l-.18,.19c.13,.17,.22,.44,.38,.49,.63,.22,1.29,.37,1.96,.55l.1-.46c-.78-.27-1.52-.52-2.27-.77h0ZM18.5,11.21c.29,.17,.55,.29,.78,.47,.23,.18,.41,.42,.64,.59,.1,.07,.28,.08,.4,.04,.06-.02,.1-.23,.07-.33-.25-1.07-.77-1.3-1.9-.76h0Zm-4.97,2.58c-.14,.77,.22,1.09,1.07,.94v-.94h-1.07Zm17.92,3.92l.1,.29c1.56-.61,3.13-1.22,4.69-1.84l-.06-.16c-1.58,.57-3.15,1.13-4.74,1.7h0Zm-6.69,9.43l-.25,.15,.37,1.01c.34-.15,.97-.28,.98-.44,.03-.79-.74-.44-1.1-.72Zm10.16-14.74c-.33-.26-.56-.55-.67-.51-.34,.13-.65,.36-.92,.6-.03,.03,.29,.56,.32,.55,.38-.15,.75-.36,1.27-.64h0ZM13.67,31.05l-.16-.23c-.37,.13-.86,.17-1.07,.42-.16,.19,.05,.68,.1,1.03l.28,.05,.85-1.27h0Zm-1.45,3.53l.11-.31c-.5-.45-1.16-.56-1.84-.77l-.15,.69,1.88,.38Zm.81-1.63c-.78-.08-1.52-.16-2.43-.25,.2,.26,.29,.49,.46,.58,.72,.37,1.36,.18,1.96-.33Zm12.04,2.7l.19,.21c.24-.19,.7-.4,.69-.57-.03-.46-.27-.9-.45-1.43-.47,.5-.45,1.04-.09,1.44l-.33,.36h0Zm-9.23-12.35l-.12-.24c-.57,.03-1.13,.06-1.7,.09l-.07,.25c.43,.16,.86,.38,1.31,.43,.17,.02,.38-.34,.58-.53h0Zm-4.99,4.47c-.36,.45-.13,.69,.29,.84,.17,.06,.37,.05,.56,.08,.15,.02,.3,.06,.45,.08-.08-.17-.13-.39-.26-.48-.3-.2-.65-.34-1.04-.53h0Zm21.06-4.61c-.26,.26-.3,3.16,0,3.82v-3.82Zm3.34-1.73c1.42-.2,1.52-.28,1.24-1.09-.41,.36-1.11,.33-1.24,1.09Zm-11.32,8.84c-.43,.5-.34,.84,.33,1.32,.62-.61,.55-.89-.33-1.32Zm10.71-4.14v.96c.97-.12,1.07-.22,.93-.87l-.93-.09h0Zm-1.61-7.46c-.47,.61-.44,1.81,0,2.26v-2.26Zm-2.66,5.9h-.17v3.04h.17v-3.04Zm7.82-6.34h.23l-.06-1.39c-.73,.22-.82,.49-.44,1.65l.16-1.29h.12v1.03Zm.77,7.87h2.89c-.32-.33-2.17-.35-2.89,0ZM25.26,8.51c-.48,.62,.13,1.01,.12,1.5l.68-.18-.8-1.32ZM9.21,28.31c.94,.17,1.11,.04,.93-.71-.76-.03-.97,.13-.93,.71ZM18.05,2.35l.13,.03,.3-.38v3.99h.11V1.82l-.17-.08-.37,.62Zm13.77,16.76c-.52,.44-.62,1.3-.2,1.9l.2-1.9Zm-7.24-10.19c-.28,.79,.07,1.57,.75,1.67l-.75-1.67Zm7.8,10.26l-.24-.03-.11,1.84c.43-.37,.5-.87,.34-1.81Zm-2.76,8.42c-.96,.29-1.25,.53-1.22,.96,.76-.19,1.2-.52,1.22-.96Zm1.38-8c-.41,.54-.42,1.34,0,1.81v-1.81Zm1.94,7.56l-.13-.23c-.57,.32-1.36,.2-1.72,.93,.62-.23,1.23-.47,1.85-.7Zm-15.43,1.61l.63-.9c-.52,.1-.9,.17-1.28,.24l-.04,.19,.68,.48Zm8.62-10.49c-.14-.16-.3-.4-.35-.38-.64,.25-.85-.24-1.13-.61-.17-.23-.29-.48-.44-.73,.31,.9,.66,1.78,1.92,1.72Zm-.62-4.87l.97,2.22c.16-1.06-.49-1.6-.97-2.22Zm1.09,14.7h.13v-2.11h-.13v2.11h0Zm-2.29-17.48l-.28-1.53c-.47,.45-.29,1.02,.28,1.53Zm-12.38,2.26l.21,.31,.74-.32-.3-.58-.65,.59h0Zm16.6,2.03c-.38,.82,.33,1.02,.59,1.63l.36-.68-.61-.09-.34-.86h0Zm-5.5,1.48l-.2,.11,1.1,1.91,.19-.11-1.09-1.92Zm1.03-2.48s.08-.06,.08-.1c-.05-.48-.11-.96-.2-1.44-.01-.08-.21-.13-.31-.19-.04,.14-.15,.3-.11,.41,.15,.44,.35,.86,.54,1.31ZM7.82,34.59c-.22-.11-.4-.28-.5-.24-.32,.13-.62,.34-.91,.53-.02,.01,.02,.21,.06,.22,.13,.03,.28,.05,.4,0,.28-.12,.54-.28,.96-.51h0ZM15.07,13.86l-.17,.2,.04,.69,.94-.42-.81-.46Zm10.81-5.51l-.18,.11,.98,1.59,.16-.1-.96-1.6Zm.61,8.74l-.14,.1,1.1,2.07,.18-.09-1.14-2.08Zm-.94,5.38l.53-.32-.04-.09-.88,.37,.2,.54,.75-.29-.56-.21h0Zm1.38-6.82l-.26,.15c.4,.54,.8,1.09,1.19,1.63l.08-.05-1.01-1.73h0Zm4-3.07l.22-.13-.81-1.47-.18,.09,.77,1.51ZM13.49,7.43c-.18,.37,.28,.95,1,1.2l-1-1.2Zm13.55,7.72c.94,.36,.98,.34,.91-.36l-.91,.36Zm6.2-1.4l-.29,.07c.05,.27,.1,.54,.17,.81,0,0,.25-.04,.37-.07l-.25-.82h0Zm-5.92-.64l-.22,.13,.64,1.24,.26-.14-.69-1.23Zm10.15,17.63l.11,.13,.83-.27,.02-.16c-.24-.06-.48-.18-.72-.16-.09,0-.16,.3-.24,.47h0Zm-6.15-2.11l-.85,.1v.2l1.18,.39-.33-.69ZM21.56,5.3l-.39,1.29c1.05-.23,.2-.93,.39-1.29Zm2.79,7.7l-.14,.07,.88,1.84,.14-.07c-.29-.61-.59-1.22-.89-1.84Zm2.47-5.05l-.17,.1,.71,1.29,.2-.12-.74-1.27h0Z" fill="#41463d"/><path d="M30.4,36.67l-.03-.6c.41,.78,1.04,1.11,1.87,1.01v-.55c.16,.08,.31,.18,.47,.25,.18,.07,.37,.11,.55,.26-.31,.05-.71,0-.91,.16-.61,.5-1.06,.67-1.43-.23-.06-.15-.35-.21-.53-.32h0v.02Z" fill="#41463d"/><path d="M5.01,33.75c.2,.08,.33,.15,.47,.18,.11,.03,.24,0,.35,0-.03,.53-.04,1.01-.09,1.48,0,.07-.2,.12-.33,.2l.14-1.29c-.76-.03,0,1.25-.91,.99l.38-1.57h0Z" fill="#41463d"/><path d="M2.82,34.56l.61,.15,.64-1.3,.43,.22c-.22,.32-.41,.56-.55,.83-.31,.6-.57,.64-1.13,.1h0Z" fill="#41463d"/><path d="M36.02,28.69c.07-.17,.09-.44,.22-.49,.42-.2,.88-.32,1.37-.36l-1.43,.85c-.05,0-.1,0-.15,0h0Z" fill="#41463d"/><path d="M27.14,30.56l.96-.59,.14,.05c-.09,.21-.14,.52-.29,.59-.2,.09-.48-.02-.82-.05h0Z" fill="#41463d"/></g></g></g></g></svg>