<?xml version="1.0" encoding="utf-8"?>
<!-- Generator: Adobe Illustrator 26.3.1, SVG Export Plug-In . SVG Version: 6.00 Build 0)  -->
<svg version="1.1" id="b" xmlns="http://www.w3.org/2000/svg" xmlns:xlink="http://www.w3.org/1999/xlink" x="0px" y="0px"
	 viewBox="0 0 15.9 13.6" style="enable-background:new 0 0 15.9 13.6;" xml:space="preserve">
<style type="text/css">
	.st0{fill:#E4D6A7;}
	.st1{fill:#41463D;}
</style>
<polygon class="st0" points="1.9,11.2 3.3,8.2 3.3,6.7 2.6,5.6 5.2,2.4 10.4,0.1 13.3,5 13.6,10.4 6.6,12.5 "/>
<g id="c">
	<g id="d">
		<g id="e">
			<g>
				<path class="st1" d="M1.3,11.5c-0.1-0.3,0-0.4,0.4-0.5v0.4c0.2,0,0.2,0,0.2-0.2C1.9,11,2,10.9,2,10.8c0-0.1,0.1-0.2,0.2-0.4
					c-0.2,0.1-0.5,0.2-0.6-0.2l0.2,0.2c0.1,0,0.3-0.1,0.5-0.1c0-0.1,0-0.3,0-0.5c0-0.3,0.2-0.4,0.4-0.3c0,0-0.1,0.1-0.2,0.1L3,9.8
					l0.2-0.2L2.8,9.5c0-0.2,0.1-0.4,0.1-0.6c0-0.1,0-0.2,0-0.4c0.2,0,0.3,0,0.4,0C3.1,8.6,3.1,8.6,2.9,8.7C2.9,8.8,3,9,3,9.1
					c0,0.1-0.1,0.2-0.1,0.2C3,9.4,3.1,9.5,3.2,9.6l0.1-0.1c0-0.3,0-0.7-0.1-1c0-0.1,0.1-0.2,0.1-0.3c0-0.4,0-0.8,0-1.3
					c0-0.3,0-0.6-0.4-0.8c0,0-0.1-0.1-0.1-0.1c1.3,0.5,2.5,1,3.7,1.5c0.1,0,0.2,0.1,0.3,0.1c0.1,0,0.1-0.1,0.2-0.1
					C5.4,7,4,6.4,2.5,5.8C2.8,5.5,3,5.2,3.2,4.9c0.3-0.4,0.7-0.8,1-1.2C4.4,3.5,4.6,3.3,4.8,3C5.1,2.6,5.5,2.3,6,2.1
					c1.4-0.6,2.7-1.3,4.1-1.9C10.5,0,10.5,0,10.7,0.4c0.5,0.9,1,1.8,1.5,2.7c0.2,0.4,0.4,0.8,0.6,1.2c0,0.1,0.1,0.1,0.2,0.2L13.3,5
					h0.1l0-0.6h0.1v1.7h-0.1V5.2c-0.4,0-0.4,0-0.4,0.3c0,0.8,0,1.5,0,2.3c0,0.1,0,0.1,0,0.2c0,0.1,0.1,0.3,0.1,0.4l-0.1,0l0.3,0.1
					l0.1-0.2l0.3,0.3l0,0l-0.3-0.2c0,0.4,0.4,0.4,0.5,0.7c-0.2-0.1-0.4-0.2-0.5-0.3l-0.1,0c0.1,0.1,0.1,0.2,0.2,0.3
					c0.1,0.1,0.2,0.2,0.3,0.3C13.9,9.7,14,9.7,14,9.7c0.1,0,0.1-0.1,0.1-0.2c0-0.2,0-0.4,0-0.5l0.7,0.5c-0.2-0.1-0.3-0.1-0.5-0.2
					c0,0.1,0,0.1,0,0.1c0.1,0.1,0.3,0.3,0.4,0.5c0,0.1,0.1,0.2,0,0.2c-0.1,0.1-0.2,0.1-0.3,0.1c-0.3,0-0.5,0-0.8,0
					c-0.1,0-0.1,0.1-0.1,0.1c0,0.2,0,0.2-0.1,0.4c-0.1,0-0.1,0-0.2,0c-0.1,0-0.2,0.1-0.2,0.1c-0.1,0.4-0.4,0.3-0.6,0.3
					c0.1,0,0.1,0,0.2,0c0.1,0,0.1,0,0.2,0V11h-0.6l0.1-0.1h-1.1l0.2,0.3C11.2,11.1,11.1,11,11,11c-0.1,0-0.3,0.1-0.4,0.2
					c0.1,0.1,0.1,0.2,0.1,0.2c0,0.1-0.1,0.3-0.2,0.3c-0.1,0-0.3,0.1-0.4,0.1c-0.1,0.2-0.2,0.1-0.3,0c0-0.1-0.1-0.1-0.2-0.1
					c0.1,0,0.1-0.1,0.1-0.1c0.1-0.1,0.3-0.1,0.2-0.4c-0.1-0.1,0.1-0.4,0.1-0.5c0,0,0-0.1,0-0.1c-0.1,0.3-0.3,0.6-0.4,0.9
					c-0.1,0.1-0.2,0.1-0.4,0.2c-0.1,0-0.2-0.1-0.3-0.1c-0.1,0-0.2,0.1-0.3,0.2c-0.2,0.1-0.2,0.2-0.1,0.3c0,0.1,0.2,0.1,0.3,0.1
					c0.1,0,0.1,0,0.2,0.1c0.1,0,0.3,0.1,0.5,0.1c0.2,0.1,0.3,0.1,0.5,0.2c0,0,0,0.2-0.1,0.2C9.5,12.9,9.2,12.9,9,13
					c-0.1,0-0.2-0.1-0.3-0.2c-0.1-0.1-0.2-0.2-0.3-0.3c0.1,0,0.1,0.1,0.2,0.1l0-0.1l-0.2-0.2l0.1-0.1c-0.4,0.1-0.5-0.2-0.6-0.4
					c-0.2,0.1-0.2,0.2,0,0.3c0.1,0.1,0.2,0.1,0.3,0.2c-0.2-0.1-0.4-0.2-0.6-0.2c-0.1,0-0.2,0-0.3,0v0.1c0.4,0.3,0.8,0.6,1.3,0.9
					c-0.3,0.2-0.6,0.4-1,0.5c-0.4,0.1-0.8-0.1-1.2-0.1v-0.2c-0.5,0.1-1,0.1-1.5,0v-0.1c0.1,0,0.2,0,0.2,0c0.4,0.2,0.5,0.1,0.6-0.3
					c0-0.1,0-0.2,0-0.3S6,12.5,6,12.3c-0.2-0.2-0.2-0.2-0.5,0.1c-0.1-0.1-0.1-0.1-0.2-0.1c-0.1,0-0.1-0.1-0.2-0.1l-0.3,0.9
					c-0.1-0.2,0.2-1,0.4-1.2l0.3,0.3l0.1,0v-0.4c-0.3-0.1-0.6-0.2-0.8-0.2c-0.1,0-0.2,0-0.2,0c-0.1,0-0.1,0-0.2,0H4v0.1l0.1,0.1v0
					c-0.1,0-0.2,0-0.2,0c-0.2-0.2-0.4-0.2-0.6-0.2c-0.1,0-0.1-0.1-0.2-0.1c-0.2-0.1-0.4-0.1-0.7-0.2l0.2,0.4c-0.2,0.2-0.3,0.2-0.5,0
					l0.2,0c-0.1-0.2-0.2-0.2-0.4-0.2c-0.1,0.1-0.3,0.1-0.5-0.1C1.4,11.4,1.6,11.6,1.3,11.5L1.3,11.5L1.3,11.5L1.3,11.5z M6.3,12.9
					l0.3,0.2l0.1-0.3l-0.1-0.1C6.6,12.8,6.5,12.9,6.3,12.9l-0.2,0c0,0.1,0,0.2,0,0.3c0,0,0.1,0,0.2,0L6.3,12.9L6.3,12.9z M4.8,5.7
					L4.8,5.7c0.3,0,0.6,0.1,0.9,0.1C5.6,5.7,5.5,5.6,5.4,5.5C5.2,5.4,5,5.4,4.7,5.3c-0.2,0-0.4-0.1-0.6,0.1l0,0L3.8,5.5
					C3.7,5.7,3.6,5.8,3.6,6c0.1,0,0.2,0,0.3,0C4,6.1,4,6.2,4.1,6.2C4.4,6.3,4.7,6.4,5,6.6c0.1,0,0.1,0.1,0.2,0.1
					c0.1,0,0.1-0.1,0.1-0.1c0,0,0-0.1,0-0.2c0,0-0.1,0-0.1,0s0,0.1,0,0.1L5,6.4l0.1-0.2c-0.3,0.1-0.4,0-0.6-0.2l0.4,0.1L4.8,5.7
					L4.8,5.7L4.8,5.7z M3.9,10.2l-0.4,0.2c0.1,0.1,0.2,0.2,0.3,0.3c-0.1-0.1-0.2-0.1-0.4-0.2c0,0.1,0.1,0.1,0.1,0.1
					C3.3,10.7,3.1,10.8,3,11c0,0,0,0.2,0.1,0.3c0.1,0.1,0.3,0,0.4,0.1c0.3,0.1,0.5,0,0.6-0.3c0-0.1,0.1-0.2,0.2-0.3L4,10.6
					c0.1,0,0.1,0.1,0.2,0.1c0.1,0,0.1-0.1,0.2-0.1c0-0.1-0.1-0.1-0.1-0.1c-0.1-0.1-0.1-0.1-0.2-0.1c0.1,0,0.2,0.1,0.3,0.1
					c0.1,0,0.1-0.1,0.2-0.1C4.4,10.1,4.3,10,4.1,9.9C4.1,9.9,3.8,10,3.9,10.2L3.9,10.2L3.9,10.2z M6,10.2l0.2,0.1V9.7
					c-0.1-0.1-0.1-0.1,0-0.2L6.1,9.1c0,0.1,0,0.3,0,0.4C6.1,9.7,6.1,10,6,10.2C6,9.8,6,9.4,6,9c0-0.1-0.1-0.3-0.2-0.4l-0.1,0
					c0,0.5-0.1,1,0.1,1.5h0.1c0-0.2,0-0.3,0-0.5c0.1,0.1,0,0.2,0.1,0.3C5.9,10.1,6,10.1,6,10.2L6,10.2L6,10.2z M5.7,11
					c0.6,0.2,0.6,0.3,0.8,0c-0.1,0-0.1,0-0.2-0.1c-0.4-0.2-0.9-0.2-1.2-0.5c0,0-0.1,0-0.1,0c-0.1,0.1-0.3,0.1-0.4,0.2L5,10.8
					c-0.1,0-0.2,0-0.2,0l-0.2,0v0C5,11,5.4,11.1,5.9,11.3l0,0.1c-0.5-0.1-1-0.4-1.5-0.5c0,0.2,0.1,0.3,0.2,0.4
					c0.3,0.1,0.5,0.2,0.8,0.3c0.4,0.1,0.5,0.1,0.8-0.3C6,11.2,5.9,11.1,5.7,11L5.7,11L5.7,11z M6.5,6.6C6.4,6.5,6.4,6.4,6.3,6.4
					c-0.1,0-0.2,0-0.2,0c0,0.1,0,0.2,0,0.2C6.2,6.6,6.3,6.8,6.5,6.6C6.4,6.7,6.1,6.8,6,6.6c-0.1-0.2-0.4,0-0.6-0.2
					c0.1,0.2,0.2,0.3,0.3,0.4C6.1,7,6.5,7.1,6.8,7.3c0.3-0.2,0.7-0.3,1-0.5c0,0-0.1-0.1-0.1-0.1C7.4,6.8,7.1,6.9,6.8,6.7
					C6.7,6.6,6.6,6.6,6.5,6.6L6.5,6.6L6.5,6.6z M7.8,13.2l0.4-0.1v-0.1l-0.7-0.5l0,0c0.1,0.1,0.2,0.1,0.3,0.2l0-0.1
					c-0.1-0.1-0.1-0.2-0.2-0.2c-0.2,0-0.4,0-0.7,0c0-0.2-0.1-0.3-0.3-0.2c-0.2,0.1-0.3,0.1-0.6,0.1l0,0.5c0.2-0.1,0.4-0.2,0.7-0.3
					C7.2,12.8,7.5,13,7.8,13.2c-0.4,0.1-0.6-0.1-0.9-0.4c-0.1,0.5-0.1,0.6,0.2,0.6c0.2,0.1,0.5,0.1,0.8,0.1
					c-0.1-0.1-0.1-0.1-0.1-0.1l0.2-0.1L7.8,13.2L7.8,13.2L7.8,13.2z M8.2,4.8C8,4.4,7.8,4.1,7.6,3.7l0.4-0.4c-0.2,0-0.3,0.1-0.5,0.2
					C7.4,3.7,7.1,3.7,6.8,3.7c0.3,0.5,0.6,0.9,0.8,1.4C8,5.7,8.3,6.3,8.5,6.8l0.1,0L8.5,6.5h0l0.2,0.3l0.5-0.2C9.1,6.3,9,6.2,8.9,6
					C8.8,5.7,8.7,5.5,8.5,5.3C8.4,5.1,8.3,4.9,8.2,4.8L8.2,4.8L8.2,4.8z M10.1,3.7C10,3.5,9.9,3.3,9.8,3.2C9.7,3,9.6,2.9,9.5,3.1
					c0.1,0.2,0.1,0.3,0.2,0.5l-0.1,0c0,0-0.1-0.1-0.1-0.1C9.4,3.4,9.4,3.3,9.3,3.2c0,0.1,0,0.3,0.1,0.4c0.4,0.6,0.8,1.3,1.3,1.9
					c0.2,0.3,0.4,0.3,0.8,0.1c-0.5-0.8-1-1.6-1.4-2.4c0,0.1,0,0.2,0.1,0.3C10,3.5,10.1,3.6,10.1,3.7L10.1,3.7L10.1,3.7z M5.9,3.7
					c0.2-0.5-0.3-0.7-0.5-1c0,0.1-0.1,0.2,0,0.2C5.6,3.1,5.8,3.4,5.9,3.7C5.9,3.7,6,3.7,5.9,3.7C6.4,4.4,6.9,5,7.3,5.7
					c0,0,0,0.1,0,0.1C7.4,6,7.4,6.1,7.5,6.3c0.1,0.2,0.3,0.3,0.4,0.5c0.2,0.3,0.2,0.3,0.6,0C8,6,7.5,5.2,7.1,4.3
					C6.9,3.9,6.5,3.5,6.2,3.2c0,0-0.1-0.1-0.1-0.1l0,0l0.5,0.3C6.5,3.1,6.4,2.9,6.2,2.8C6.2,2.7,6,2.5,6,2.5C5.8,2.6,6,2.6,6,2.7v0
					l-0.2,0C5.9,3.1,6,3.3,6.1,3.6l0.2-0.1C6.2,3.7,6.1,3.6,5.9,3.7L5.9,3.7z M10.3,1.9c0,0.1,0.1,0.2,0.1,0.2
					c0.4,0.6,0.7,1.2,1.1,1.8c0.1,0.2,0.2,0.3,0.3,0.5c0.2,0,0.4-0.3,0.6-0.1c-0.1,0.1-0.2,0.2-0.4,0.3c0,0-0.1,0.1-0.1,0.2
					C12,4.8,12.1,4.9,12.2,5c0,0,0.1,0.1,0.2,0.1c0.2-0.1,0.4-0.2,0.7-0.2c-0.1-0.1-0.1-0.3-0.2-0.4c-0.3,0-0.3-0.3-0.6-0.4l0.2,0.1
					l0,0c-0.7-1-1.3-2.1-2-3.1l-0.4,0.1l0.2,0.2v0H10L10.3,1.9L10.3,1.9L10.3,1.9z M9.7,1.2c0,0-0.1-0.1-0.1-0.1
					C9.4,0.8,9.2,0.8,9,1.1c0.1,0.3,0.3,0.6,0.4,0.8c0.1,0.2,0.2,0.4,0.3,0.5C9.4,2,9.1,1.6,8.8,1.2C8.7,1.3,9,2,9.2,2.3L9.1,2
					l0.1,0c0.2,0.3,0.3,0.6,0.5,0.9V2.5c0,0,0.1,0,0.1,0.1c0.1,0.2,0.1,0.4,0.2,0.6c0.4,0.6,0.7,1.2,1.1,1.9
					c0.3,0.5,0.2,0.7,0.9,0.2c0,0,0,0,0-0.1C12,5,11.9,4.8,11.8,4.6c-0.4-0.7-0.8-1.4-1.2-2.1c-0.2-0.4-0.3-0.8-0.7-1.1
					c0,0,0-0.1,0-0.1c0,0,0.1,0,0.1-0.1C10,1,9.9,0.9,9.7,0.7C9.6,0.8,9.6,1,9.7,1.2L9.7,1.2L9.7,1.2z M9.3,10l0.3,0.4l0.1,0
					l-0.1-0.2l0.1,0.1c0.1-0.1,0.4-0.3,0.4-0.4c0.1-0.4,0.1-0.8,0.1-1.1c0-0.6,0-1.1-0.1-1.7c0-0.1,0-0.2,0-0.3
					C9.9,6.8,9.6,6.8,9.6,7.1c0,0.6,0,1.2,0,1.8c0,0.2,0,0.3-0.2,0.4C9.1,9.4,8.8,9.6,8.5,9.7C8.4,9.8,8.3,9.9,8.3,10
					c0,0.2,0.1,0.4,0.1,0.5C8.8,10.5,9.2,10.5,9.3,10C9.3,10,9.3,10,9.3,10z M9.8,6C9.2,5.2,8.9,4.2,8.1,3.5C8.1,3.5,8,3.5,8,3.6
					c0,0.2-0.1,0.4,0,0.6c0.2,0.3,0.4,0.6,0.6,0.9C8.8,5.5,9,5.9,9.3,6.2c0,0.1,0.1,0.1,0.2,0.1c0.3,0,0.5-0.2,0.5-0.5
					c0.1,0.1,0.2,0.3,0.4,0.1L9.8,5.5L9.8,6L9.8,6L9.8,6z M5.2,4.2c0.2,0.1,0.3,0.1,0.4,0.1c0.2,0.2,0.2,0.4,0,0.7
					C5.5,5.2,5.5,5.4,5.7,5.5c0.2,0.1,0.4,0.1,0.6,0.1c0,0.1,0,0.2,0,0.2C6.5,6.1,6.7,6.3,7,6.5c0.1,0.1,0.3,0.2,0.4,0.1
					C7.2,6.3,7.1,6,6.9,5.8C6.5,5.2,6.2,4.6,5.8,4C5.5,3.7,5.2,3.7,4.9,4c0.5-0.1,0.6,0,0.8,0.2L5.2,4.1L5.2,4.2L5.2,4.2L5.2,4.2z
					 M10.7,8.4c0-0.1,0-0.1,0.1-0.2c0,0,0-0.1,0-0.1C11,7.9,11,7.6,11.1,7.4c0,0,0-0.1,0-0.1c0,0,0-0.1,0.1-0.1c0,0.4,0,0.6,0.1,0.7
					c0-0.6,0.1-1.1,0.1-1.6h-0.1l-0.1,0.4l-0.1-0.5c-0.3,0.1-0.5,0.2-0.5,0.5l0-0.3l-0.3,0.1C10.3,7.2,10,7.9,10.7,8.4L10.7,8.4
					L10.7,8.4z M4.9,9.9C4.9,9.7,5,9.5,5.1,9.3c0-0.5,0-0.9,0-1.4V7.6C5,7.9,5,8.1,4.9,8.4c0,0.1-0.1,0.2-0.2,0.3
					c-0.2,0-0.3,0-0.5,0c-0.1,0-0.1-0.1-0.2-0.1C3.9,8.3,3.7,8.1,3.7,7.8c0-0.2,0-0.5,0-0.7H3.6c0,0.5,0,1,0,1.4
					c0,0.1,0,0.3,0.1,0.4C3.7,9,3.8,9,3.9,9.1C4,9.1,4,9,4.1,9c0.1-0.1,0.2-0.2,0.2-0.3l0.1,0.1C4.3,8.9,4.2,9,4.2,9.1
					c0,0.1-0.1,0.3,0.2,0.3l0.1-0.2C4.6,9.4,4.7,9.6,4.9,9.9L4.9,9.9L4.9,9.9z M8,9.8C8,9.7,7.9,9.7,7.9,9.7c-0.1,0-0.2-0.1-0.3-0.1
					c0,0.1-0.1,0.1-0.1,0.2c0,0.3,0.1,0.6,0.1,0.9c0,0.1,0,0.2,0.1,0.3c0.1-0.1,0.2-0.2,0.3-0.2l0,0L8,11h0.1l0-0.4l-0.3,0.1l0-0.1
					c0.1-0.1,0.3-0.2,0.4-0.3c0-0.8,0-1.6,0-2.5c0-0.1,0-0.2-0.1-0.2H8L8,9.8L8,9.8L8,9.8z M7.1,9.6c0-0.1,0.1-0.2,0.1-0.2
					C7.1,9.3,7,9.1,6.9,9v1.9l0.4-0.3l0.2,0.1c0-0.4,0-0.8-0.1-1.2L7.1,9.6L7.1,9.6L7.1,9.6z M9.6,4.5c0.1-0.4-0.2-0.6-0.4-0.8H9.2
					c0,0.1-0.1,0.3-0.1,0.5c0,0-0.1,0-0.1-0.1c0-0.3,0-0.5,0-0.8L8.5,3.5l0.8,1.3c0-0.2,0-0.3,0.1-0.4L9.6,4.5L9.6,4.5L9.6,4.5z
					 M6.6,10.9l0.1-0.1c-0.1-0.1-0.2-0.2-0.2-0.2c-0.3-0.1-0.6-0.2-0.9-0.3c-0.2,0-0.2-0.1-0.2-0.3c0-0.6,0-1.2,0-1.9V7.4H5.2v3
					L6.6,10.9L6.6,10.9L6.6,10.9z M5.1,4C4.6,4.2,4.5,4.5,4.5,4.9c0,0.1,0,0.1,0.1,0.2c0.2,0.2,0.6,0.2,0.9,0C4.8,4.9,5.1,4.4,5.1,4
					L5.1,4z M6.8,2.1c-0.1,0-0.3,0.1-0.4,0.1C6.3,2.3,6.2,2.4,6.3,2.5C6.4,2.8,6.5,3,6.7,3.3C7,2.7,7,2.5,6.8,2.1
					C6.8,2.1,6.8,2.1,6.8,2.1z M6.6,10.6L6.6,10.6l0.1-2.7c0,0-0.1,0.1-0.1,0.1c0,0.8-0.1,1.6-0.1,2.4C6.5,10.5,6.6,10.5,6.6,10.6
					L6.6,10.6L6.6,10.6z M5.6,2.4L5.6,2.4c1.7-0.7,3.3-1.5,4.9-2.2l0-0.1C8.8,0.8,7.2,1.6,5.6,2.4C5.6,2.4,5.6,2.4,5.6,2.4z M4,9.9
					L4,9.9c-0.7,0.1-1.2,0.4-1.7,0.8c-0.1,0.1-0.1,0.2-0.1,0.3l0.1,0c0.4-0.5,1-0.8,1.5-1C3.9,10,3.9,9.9,4,9.9L4,9.9L4,9.9z
					 M3.7,5.2L3.7,5.2c0.2,0,0.4,0,0.6-0.1c0.1,0,0.2-0.1,0.2-0.2c0.1-0.2,0.1-0.5,0.1-0.7L3.7,5.2L3.7,5.2L3.7,5.2z M5.3,2.7
					L5.3,2.7L3.1,5.3l0.1,0C3.8,4.4,4.6,3.6,5.3,2.7L5.3,2.7L5.3,2.7z M11.5,10.5L11.5,10.5c0.2,0.1,0.4,0.2,0.6,0.1
					c0.1,0,0.3-0.1,0.4-0.1c0.1-0.1,0.1-0.2,0.2-0.4C12.3,10.2,11.9,10.4,11.5,10.5L11.5,10.5L11.5,10.5z M11.3,9.4h-0.1
					c0,0.1-0.1,0.3-0.1,0.4c0,0.1,0.1,0.1,0.1,0.1c0.2,0,0.4,0,0.6,0c0.1,0,0.2-0.1,0.1-0.3C11.6,9.6,11.3,9.7,11.3,9.4L11.3,9.4
					L11.3,9.4z M10.6,8.7c-0.4,0.3-0.3,0.7-0.4,1.1C10.6,9.6,10.8,9,10.6,8.7z M3.4,9L3.4,9l0.1-2.5H3.4V9z M12.8,6.6
					c0.1,0.4-0.4,0.7-0.1,1.1c0,0,0,0,0,0.1c0,0.2-0.1,0.5-0.1,0.7C12.9,8.4,12.9,7.7,12.8,6.6L12.8,6.6L12.8,6.6z M6.7,3.5L6.7,3.5
					C6.9,3.3,7,3.1,7.1,2.9c0.2-0.2,0.2-0.4,0-0.7c-0.1-0.1,0-0.2,0-0.3L6.9,2C7.2,2.5,6.8,3,6.7,3.5L6.7,3.5L6.7,3.5z M13.2,10.2
					c-0.1,0-0.2,0.1-0.3,0.1c-0.1,0.1-0.1,0.2-0.1,0.3c0.1,0,0.2,0,0.4-0.1c0.1,0,0.2-0.1,0.3-0.1c0,0,0.1-0.1,0.1-0.1
					c0,0-0.1-0.1-0.1-0.1C13.4,10.2,13.3,10.2,13.2,10.2L13.2,10.2z M11.5,1.9c-0.1,0.2,0.5,1.1,0.8,1.4C12,2.8,11.8,2.4,11.5,1.9z
					 M10.5,11.2c-0.3,0.1-0.5,0.3-0.8,0.4l0,0.1c0.1,0,0.2,0,0.2,0c0.1,0,0.2-0.1,0.3-0.1C10.5,11.5,10.6,11.4,10.5,11.2L10.5,11.2z
					 M7.9,1.8l0.2,0l0-0.1L7.8,1.6c0,0.1,0,0.2,0,0.3c0,0.3,0.3,0.2,0.5,0.3C8.2,2,8,1.9,7.9,1.8L7.9,1.8z M10.4,11
					c0.2-0.1,0.4-0.1,0.6-0.2c-0.2-0.1-0.4-0.2-0.6-0.2C10.4,10.7,10.4,10.8,10.4,11L10.4,11L10.4,11z M13.1,9.2h0.1
					c0-0.2,0.1-0.4,0.1-0.6L13,8.5v0.4l0.2,0.1L13.1,9.2L13.1,9.2L13.1,9.2z M6.9,3.5L6.9,3.5c0.2-0.1,0.4-0.2,0.5-0.3L7.2,2.8
					C7.2,2.8,6.9,3.5,6.9,3.5z M9.8,5.3C9.7,5.1,9.7,4.8,9.4,4.6C9.4,5,9.4,5.2,9.8,5.3z M8.9,2.1C8.7,1.6,8.6,1.4,8.4,1.4
					C8.6,1.6,8.6,2,8.9,2.1z M9.3,10.4L9.3,10.4c-0.1,0.2-0.2,0.5-0.2,0.7l0.5-0.4l0-0.1l-0.3,0.1L9.3,10.4L9.3,10.4L9.3,10.4z
					 M2.4,10.5c0.1-0.1,0.2-0.1,0.3-0.2c0-0.1,0.1-0.2,0-0.3c0,0-0.1-0.1-0.2-0.1c0,0.1-0.1,0.1-0.1,0.2C2.4,10.2,2.4,10.3,2.4,10.5
					L2.4,10.5L2.4,10.5z M4.7,8.3c-0.1,0-0.2,0-0.2,0c-0.2,0.1-0.3,0-0.4-0.3C4,7.9,4,7.7,3.9,7.5c0,0.2,0,0.4,0.1,0.7
					C4.1,8.5,4.3,8.6,4.7,8.3L4.7,8.3L4.7,8.3z M3.6,9.6C3.7,9.6,3.9,9.5,4,9.4c0,0,0-0.1,0-0.1c0,0-0.1-0.1-0.1-0.1
					C3.7,9.2,3.5,9.3,3.6,9.6L3.6,9.6L3.6,9.6z M9.7,12.6c-0.3-0.2-0.6-0.1-0.6,0.2C9.4,12.9,9.5,12.6,9.7,12.6z M8.5,9.4l0.6-0.4
					C8.9,8.8,8.7,9,8.5,9.4z M8.4,11.5l0.1-0.6C8.3,11,8.2,11.2,8.4,11.5z M12.1,10.2L12.1,10.2C12,10,11.9,10,11.9,10
					c-0.1,0.1-0.2,0.1-0.3,0.2c0.1,0,0.1,0.1,0.2,0.1C11.9,10.3,12,10.2,12.1,10.2z M10.2,5.4C10.1,5.2,9.9,5,9.7,4.8
					C9.8,5.2,9.9,5.3,10.2,5.4z M9.3,9c0.2-0.1,0.2-0.2,0.1-0.6C9.2,8.5,9.1,8.6,9.3,9C9.2,8.9,9.2,8.8,9.2,8.6
					c0-0.1,0.1-0.1,0.1-0.1c0,0.1,0,0.1,0,0.1C9.4,8.8,9.3,8.9,9.3,9L9.3,9z M8.6,2.3C8.7,2.1,8.7,2,8.3,1.7
					C8.4,1.9,8.5,2.1,8.6,2.3z M10.8,5.8c-0.1-0.1-0.3-0.2-0.4-0.3l0.1,0.3l0,0c-0.1-0.1-0.2-0.2-0.3-0.3l0,0.1l0.4,0.3L10.8,5.8
					L10.8,5.8L10.8,5.8z M11.6,9.3l0.3,0.2C12,9.3,12,9.2,12,9L11.6,9.3L11.6,9.3L11.6,9.3z M10.7,0.7L10.7,0.7
					c0.1,0.3,0.3,0.7,0.5,1l0.1,0C11.1,1.3,10.9,1,10.7,0.7L10.7,0.7L10.7,0.7z M4.1,7.5C4.3,7.1,4.2,6.9,4,6.8
					C4.1,7.1,4.1,7.3,4.1,7.5z M12.6,6.3L12.6,6.3l0-0.8h0V6.3L12.6,6.3z M14.2,9.9L14.2,9.9c0.2,0.2,0.4,0.2,0.6,0L14.2,9.9
					C14.2,9.9,14.2,9.9,14.2,9.9z M8.8,12.8c0.1-0.1,0.1-0.2,0.2-0.3c-0.1-0.2-0.2-0.2-0.4-0.1l0.2,0.1C8.9,12.5,8.8,12.9,8.8,12.8z
					 M8.2,11.9c0.3-0.4-0.3-0.3-0.2-0.6C7.8,11.6,8.1,11.7,8.2,11.9z M4.6,10.1L4.6,10.1V9.7L4.3,9.9L4.6,10.1z M9.9,10.4L9.9,10.4
					c-0.3,0.1-0.2,0.3-0.2,0.5C9.8,10.8,9.8,10.6,9.9,10.4L9.9,10.4z M10.3,10L10.3,10c0.1,0.1,0.3,0.1,0.4,0.1
					c0-0.1-0.1-0.2-0.2-0.2C10.5,10,10.4,10,10.3,10L10.3,10z M9,10.9c-0.1,0.1-0.2,0.3,0,0.5V10.9z"/>
				<path class="st1" d="M1.3,11.5L1.3,11.5c-0.1,0.1-0.2,0.2-0.4,0.2c-0.1,0-0.2-0.1-0.3-0.2l-0.4,0.3L0,11.4h0.4l0.1-0.2l0.4,0.3
					l0.2-0.3C1.1,11.3,1.1,11.5,1.3,11.5L1.3,11.5L1.3,11.5z"/>
				<path class="st1" d="M15,7.5l0.5,0.1c0.1,0.2,0.2,0.3,0.4,0.5c-0.3,0-0.6,0-0.8,0C15,8.1,15,8,15,7.9C15,7.8,15,7.7,15,7.5z
					 M15.1,7.9h0.4c0-0.2-0.1-0.3-0.4-0.3C15.1,7.6,15.1,7.9,15.1,7.9z"/>
				<path class="st1" d="M10.7,11.7l0,0.1l0.4,0.2c-0.1,0.4-0.2,0.4-0.4,0.2c0.1,0,0.1-0.1,0.1-0.1c0,0,0.1-0.1,0.1-0.1
					c-0.2-0.2-0.5-0.2-0.6,0c-0.1-0.2,0-0.3,0.2-0.3C10.5,11.9,10.6,11.8,10.7,11.7L10.7,11.7L10.7,11.7z"/>
				<path class="st1" d="M0.7,8.4C0.4,8.6,0.3,8.3,0,8.2l0.4-0.1V8L0.1,7.9V7.9l0.6,0.1V8.4L0.7,8.4L0.7,8.4z"/>
				<path class="st1" d="M4.9,12.6c-0.2,0.2-0.4,0-0.5,0c-0.2-0.1-0.4-0.2-0.6,0c0-0.1,0-0.2,0-0.2c0,0,0.1-0.1,0.2,0
					C4.2,12.4,4.5,12.4,4.9,12.6L4.9,12.6L4.9,12.6z"/>
				<path class="st1" d="M13.7,3.3c-0.1-0.1-0.2-0.2-0.2-0.4c0,0,0-0.1,0-0.1c0.3,0,0.1-0.3,0.2-0.4L13.7,3.3L13.7,3.3L13.7,3.3
					L13.7,3.3z"/>
				<path class="st1" d="M1.5,7.9L1.5,7.9C1.3,8.1,1.1,8.2,0.9,8.3c0,0-0.1-0.1,0-0.1c0,0,0.1-0.1,0.1-0.1C1.1,8,1.3,8,1.5,7.9z"/>
				<path class="st1" d="M1,12l0.5,0.2v0.1c-0.1,0-0.3,0-0.4,0C1.1,12.3,1,12.1,1,12L1,12z"/>
				<path class="st1" d="M0.9,7.8l-0.3,0L0.6,7.6L0.9,7.8L0.9,7.8C0.9,7.8,0.9,7.8,0.9,7.8z"/>
				<path class="st1" d="M4.1,5.4c0.2,0,0.3,0,0.4,0.1c0,0.1,0.2,0.1,0.3,0.1L4.8,5.7h0c-0.1-0.1-0.2-0.2-0.3,0c0,0.1,0,0.2,0,0.2
					L4.1,5.8l0.3-0.2C4.3,5.5,4.2,5.4,4.1,5.4L4.1,5.4L4.1,5.4z"/>
				<path class="st1" d="M10.4,1.9c0,0,0.1,0,0.1,0c0.2,0.3,0.5,0.6,0.7,1C10.9,2.5,10.6,2.2,10.4,1.9L10.4,1.9L10.4,1.9z"/>
				<path class="st1" d="M10.1,3.7c0.2,0.3,0.3,0.6,0.5,0.8C10.7,4.8,10.9,5,11,5.2C10.8,5.1,10.3,4.3,10.1,3.7L10.1,3.7L10.1,3.7z"
					/>
				<path class="st1" d="M7.7,5.1L7.6,4.8L8,4.6l0.2,0.1c0,0-0.1,0.1-0.1,0.1c-0.1,0-0.2,0-0.4,0v0.1L7.9,5L7.7,5.1L7.7,5.1z"/>
			</g>
		</g>
	</g>
</g>
</svg>
