<?xml version="1.0" encoding="UTF-8"?><svg xmlns="http://www.w3.org/2000/svg" viewBox="0 0 162.75 124.77"><g id="a"><polygon points="67.71 70.51 65.8 43.36 85.21 21.01 123.29 1.37 149.36 41.1 143.35 43.36 144.6 70.39 107.58 88.88 67.71 70.51" fill="#e4d6a7"/></g><g id="b"><g id="c"><g id="d"><g id="e"><g><path d="M62.81,74.75c.36-.58,.07-1.74,1.41-1.49,.16,.03,.63-.69,.68-1.11,.11-.8,.03-1.63,.03-2.52,.63-.18,1.2-.35,1.78-.52-.31,1-.62,2-.92,3,.87-.52,1.29-1.43,1.92-1.6,.7-.19,1.59,.28,2.39,.46l.17-.53-3.6-1.3c.07-3.36,.17-6.71,.2-10.07,.04-3.89,.05-7.78-.02-11.67-.01-.57-.53-1.14-.82-1.7l-.67,.24v21.16h-.27c-.19-2.46-.28-4.93-.63-7.37-.08-.54-1.1-.94-1.98-1.63-.03-.64,.64-.85,2.01-.63,.17-3.81,.41-7.6,.4-11.39,0-.55-1.27-1.09-2.03-1.71l1.64-1.96c-1.57-.02-1.88,2.55-3.84,1.29,1.34-1.17,2.52-2.13,3.62-3.18,4.18-3.99,8.43-7.92,12.47-12.05,2.47-2.52,4.43-5.54,6.96-7.99,1.23-1.2,3.23-1.62,4.87-2.38-1.23,.83-2.45,1.65-3.7,2.5,.11,.15,.29,.43,.33,.41,5.13-2.52,10.24-5.07,15.36-7.61-3.45,1.15-6.7,2.72-9.98,4.22-.63,.29-1.36,.34-2.04,.5,7.12-3.41,14.25-6.81,21.37-10.24,4.46-2.15,8.89-4.38,13.37-6.51,.47-.22,1.14-.03,1.8,.13-.95,.71,.26,2.5-1.56,2.84-.32,1.86,.35,3.6,1.55,5.22,.45,.61,.87,1.27,1.17,1.97,.93,2.15,2.41,3.39,5.09,3.12-1.58-2.24-3.09-4.4-4.73-6.72l-.2,1.46-.38,.11c-.65-1.3-1.31-2.61-2.04-4.07,1.11-1.15,3.57-1.81,1.94-4.26l2.04-1.17c-.17,1.31-.4,2.33-.41,3.35,0,.65,.17,1.39,.52,1.92,2.97,4.51,6.01,8.97,9.01,13.46,4.39,6.56,8.78,13.11,13.11,19.7,.68,1.03,.8,2.22-.84,2.67-2.84,.77-3.75,2.58-3.62,5.5,.24,5.41,.16,10.84,.15,16.26,0,1.5,1.08,1.84,2.1,2.38,.63,.34,1.17,.84,1.75,1.28-.47,.56-.85,1.24-1.42,1.67-1.56,1.18-1.64,1.91-.28,3.31l4.87-4.62,.49,.4c-.96,.99-1.83,2.09-2.9,2.95-1.37,1.1-1.59,1.8-.45,2.69-.83,.42-1.64,.83-2.46,1.24-.69-.18-1.49-.69-2.04-.5-1.53,.52-2.96,1.34-4.42,2.04,2.43,.44,4.39-.9,6.52-1.58l-.87,1.89,3.51-.32,.06,.48c-.89,.17-1.79,.3-2.66,.52-.85,.21-1.67,.54-2.51,.79-.96,.28-1.73,.95-2.73-.49-.58-.83-2.55-.71-3.89-1.01-.85,3.59-4.79,5.64-9.02,5.29-.54,1-1,1.84-1.6,2.95-.59-.09-1.47-.22-2.34-.35-.12-.35-.24-.7-.37-1.08l1.7-.41c-3.92-.51-5.14,.06-5.22,2.2l3.94-.77c-.36,.3-.68,.71-1.1,.88-2.05,.83-4.1,1.63-6.19,2.35-.55,.19-1.22,0-1.84,0h-3.17l-.81-.95-.86,1.75,.49,.38c-1.16,.55-2.32,1.09-3.47,1.66-1.14,.58-2.26,1.2-3.87,2.05l.87-1.54-4.78,.93,2.98-3c-.98-.73-1.9-1.57-2.97-2.11-.33-.17-1.08,.49-1.69,.8-.17-.88-.78-1.15-1.91-.45-.46,.28-1.16,.16-1.93,.24l.05,.79-1.99,.33-.23-.26,2.18-1.72c-1.59-1.11-4.01-1.05-5.33-.07-.47,.35-1.17,.39-1.77,.51-.02,0-.28-.76-.23-.78,.57-.28,1.16-.66,1.76-.68,1.2-.04,1.65-.46,1.17-1.95l-4.8,.57-.4-1.4h-1.96c-.61,1.14,1.98,1.1,.77,2.38l.05-.05c-.55-.22-1.42-.3-1.59-.69-.65-1.46-1.6-2.05-2.99-1.2-1.41,.86-2.61,.84-4.12,.28-.97-.36-2.19-.07-3.3-.07v-.7h5.87l-1.01-1.19,2.49-.92c-3.33-.09-6.69-1.87-10.05,.38l-.2-.65c1.08-.57,2.68-.88,3.13-1.77,.82-1.61,3.28-.25,3.58-2.38l-1.69-.7,.02,.6c-.97,.13-1.94,.26-2.91,.38,.21-.58,.42-1.16,.62-1.74-.82-.09-1.71-.39-2.44-.17-.39,.12-.5,1.15-.74,1.76-.36,0-.98-.13-1.05,.02-.64,1.23-1.67,1.44-2.89,1.25l1.46-1.54-.84-1.73-3.2,1.02v.04h-.01Zm63.6-2.33l1.02,2.78c.72-.69,1.37-1.3,2.4-2.28-4.3,.58,.09-1.54-1.55-1.9-.5,.4-1.16,.93-1.82,1.45-2.23,.16-2.55,.8-1.78,3.59,2.33-.38,1.2-2.4,1.73-3.64Zm-22.29-42.47l-2.26,1.06,.18,1.36-1.48-1.74,2.75-1.39c-2.2-2.61-4.27-5.12-6.44-7.55-.24-.27-1.03-.04-1.94-.04,5.01,8.52,9.77,16.61,14.75,25.09,.47-2.43,.74-4.29-.78-5.99-.7-.79-1.16-1.79-1.73-2.7l2.7,2.01c-.23-1.64,1.33-3.41-.63-4.66-.44-.28-1.31,.11-2.37,.24,.09,.03-.28-.11-1.04-.39l.84,2.33c-.47-.5-.96-1-1.41-1.52-1.1-1.25-2.19-2.51-3.27-3.75l4.31,1.87,.28-.53c-.83-1.24-1.65-2.49-2.46-3.73,.7,.25,1.4,.19,1.75,1.28,.55,1.68,1.88,2.35,3.04,2.07-1.25-1.61-1.97-3.97-4.79-3.35v.03h0Zm23.02-7.81l-.05-.05,2.42,1.99c1.08-.97,2.25-1.55,2.57-2.44,.38-1.05,.23-2.59-.82-3.3-.84-.57-2.09-.79-3.13-.71-1.01,.08-1.98,.69-2.94,1.15-.77,.36-1.48,.84-2.22,1.27,.68,.69,1.28,1.55,2.09,2.02,.52,.31,1.37,.07,2.07,.07h.01Zm-24.66,36.36c-1.93-.9-3.87-1.79-5.8-2.69l2.27,.16c-.72-1.49-1.28-2.64-1.91-3.95,1.7-.7,.95-1.77,.39-2.88-.53-1.05-.97-2.14-1.46-3.21l3.64,.81c-.4-3.46-1.3-5.48-3.5-7.22-.43-.34-1.46,.08-2.21,.15,.06,.49,.02,1.02,.18,1.48,.52,1.44,1.12,2.85,1.68,4.27-1.89-3.49-3.95-6.85-7.11-9.91v7.55c-2.1-.65-4.74,.91-5.9-1.88-.74,.2-1.46,.39-2.17,.58l-.4-6.32c-2.44,.09-3.26,1.88-2.27,4.68l2.72,1.6-.97,3.24-2.03-.49-.24,1.52c-.66-.21-1.24-.4-1.82-.58l1.33-.54c-.33-.78-.57-1.62-1.04-2.3-.1-.14-1.06,.25-1.57,.5-.1,.05,.01,.56,.03,.91l1.46-.54-.15,2.01-1.85-.42-.34,.66c.58,.42,1.1,.94,1.74,1.23,2.35,1.09,4.74,2.1,7.12,3.14l-.14,.27c-3.19-1.2-6.38-2.4-9.57-3.61l-.27,.58,2.32,1.49-1-.11c1.9,.75,1.78,2.32,1.78,3.83,0,6.04,.03,12.09,.02,18.13,0,.52-.15,1.04-.27,1.79l-2.39-1.29c.13,2.18,1.87,1.96,3.06,2.95,0-1.3-.13-2.26,.04-3.16,.17-.92,.88-1.8,.89-2.7,.08-5.46-.05-10.91,.05-16.37,.03-1.45-.25-2.44-1.64-2.97,.92,.22,1.83,.47,2.76,.66,1.91,.38,2.95,1.23,2.7,3.47-.24,2.14-.09,4.34-.01,6.51,.08,2.41,.27,4.81,.41,7.21l.64-.03v-15.96c4.05,.06,7.5,1.58,10.83,3.53l.81-1.9c-.33,2.51,1.81,2.21,2.78,3.12h-1.08c1.75,1.11,3.63,1.81,5.41,2.69,.57,.28,1.28,1.04,1.27,1.57-.08,4.6-.31,9.19-.49,13.6-1.91-.4-3.71-.69-5.45-1.19-.47-.14-.71-.98-1.14-1.41s-.99-.76-1.5-1.14c-.28,.51-.83,1.04-.79,1.51,.09,.89,.51,1.75,.8,2.62-.29,.02-.77-.06-.85,.08-1.05,1.91,.15,4.51,2.26,5.14,.13-.35,.29-.68,.38-1.03,.6-2.2,.11-3.53-1.48-4.15,1.59,.37,3.19,.71,4.77,1.12,1.45,.38,2.87,.83,4.31,1.25l.15-.51-6.2-2.12,.17-.49c1.97,.59,3.94,1.17,5.77,1.72v-16.37c.3,.7,.82,1.4,.86,2.11,.2,3.82,.25,7.65,.42,11.47,.06,1.34,.34,2.66,.51,3.99h.53c0-.71,.03-1.43,0-2.14-.25-4.5-.68-8.99-.72-13.49-.02-2.39-1.2-3.86-2.88-5.25,0,.72,.3,1.33,.6,1.93,.24,.48,.49,.96,.74,1.44v.05h.01Zm-4.95-20.77c-.43-.45-.97-.84-1.26-1.36-1.83-3.35-3.56-6.74-5.41-10.08-.38-.69-.37-2.29-1.78-1.59-1.56,.78-.19,1.84,.22,2.5,1.94,3.14,4.01,6.2,6.07,9.26,1.03,1.53,2.14,2.99,3.21,4.49l.25-.18-1.32-2.7c.18,.18,.32,.41,.54,.53,.63,.33,1.28,.61,1.92,.91-.06-.72,.02-1.49-.21-2.15-.62-1.75-2.16-3.33-.79-5.38,.13-.19,.19-.54,.1-.73-.86-1.84-1.61-3.76-2.71-5.45-.76-1.16-2.02-2-3.05-2.98l-.65,.56c1.78,2.73,3.56,5.46,5.34,8.19-.68-.01-1.41-.25-1.72-.74-1.3-2.05-2.46-4.18-3.69-6.26-.46-.78-.96-1.56-2.2-.32,2.37,4.48,4.75,8.97,7.13,13.47h.01Zm13.01-26.57c-.18,.07-.36,.14-.53,.22-.7,.29-1.41,.56-2.09,.9-.57,.28-1.1,.65-1.65,.98l-.61-1.77-1.05,.67c1.87,2.45,3.64,4.78,5.41,7.11l.41-.33-.78-1.22c.97,.43,2.01,.88,2.56,1.66,1.55,2.25,2.88,4.65,4.34,6.96,.39,.61,.96,1.11,1.55,1.78,.6-1.34,1.11-2.29,1.44-3.3,.35-1.07,1.03-2.41,.68-3.27-1.22-3.01-2.83-5.87-4.29-8.79l-.83,.39c.38,.76,.67,1.59,1.16,2.27,1.23,1.73,2.43,3.43,1.25,5.76,.48-2.94-1.61-4.74-2.99-6.8-.81-1.2-.93-1.81,.87-2.29l-.34-.48-4.54-.45h.03Zm11.52,44.65l-.68-.03c-.12,.71-.34,1.42-.35,2.14-.04,3.12,0,6.25-.03,9.37-.06,4.71,.8,3.59-3.58,5.43-.88,.37-1.79,.7-2.62,1.16-.39,.21-.79,.64-.91,1.05-.31,1.09-.62,2.23-.62,3.35,0,.8,.34,1.74,.86,2.34,.26,.3,1.33,.16,1.89-.1,1.6-.75,3.04-1.91,4.7-2.43,1.6-.5,1.63-1.42,1.63-2.71-.03-5.8,0-11.6-.02-17.4,0-.72-.18-1.44-.27-2.17Zm-23.45-34.96c.89,1.38,1.79,2.61,2.5,3.93,.67,1.24,1.41,1.59,2.89,1.36,2.56-.4,5.12-1.55,7.9-.31-1.47-2.98-2.87-5.8-4.25-8.61-3.13,1.26-6,2.41-9.03,3.62h-.01Zm23.18,8.24c-.92,1.2-1.67,2.1-2.32,3.07-.21,.31-.32,.91-.16,1.19,1.69,2.89,3.44,5.75,5.19,8.65l4.74-2.18c-2.01-3.78-3.95-7.41-5.89-11.05l-.39,.19,1.39,2.75-.28,.12-2.28-2.73h0Zm.43-7.37c-.1,4.28,4.48,13.43,7.19,14.51,0-3.4,0-6.86-.02-10.33,0-.23-.31-.55-.55-.68-2.21-1.19-4.44-2.36-6.61-3.5h0Zm-6.01-13.66c1.9,3.29,3.66,6.35,5.38,9.34l5.87-1.7-5.63-7.29c-1.81,1.69-1.91-.6-2.83-1.51l-2.79,1.16Zm-43.99,41.47c-.1,4.12-.24,7.88-.29,11.65-.05,3.52-.01,7.04-.01,10.56h.18l.52-1.69,1.73,1.07c.13-.47,.29-.75,.29-1.03,.03-4.49,.16-8.99,0-13.47-.08-2.35-.05-4.87-2.42-7.08h0Zm61.76,21.45c-.06-1.26,.33-2.83-.28-3.72-1.41-2.09-.92-4.27-.98-6.43-.08-3.06,.02-6.13,.03-9.19,0-.43-.12-.85-.18-1.28-1.58,7.17-1.99,14.34-1.72,21.78l3.14-1.16h-.01Zm-10.37-2.09l.42,.4c.61-.59,1.73-1.17,1.75-1.79,.15-4.55,.08-9.1,.08-13.66l-.57-.31c-.56,.69-1.58,1.36-1.6,2.06-.15,4.43-.08,8.86-.08,13.29h0Zm17.48-5.56c-1.98,.95-3.42,1.75-4.94,2.34-1.3,.5-2.12,1.47-1.38,2.54,.74,1.07,2.12,2.15,3.34,2.31,.89,.12,2.55-1.05,2.86-1.97,.49-1.46,.13-3.21,.13-5.22h0Zm-57.63,5.45c0,3.75-.07,7.18,.07,10.6,.02,.54,.94,1.05,1.44,1.57,.38-.52,1.08-1.03,1.09-1.56,.1-3.3,.05-6.6,.05-9.96l-2.66-.65h.01Zm20.87-18.94l4.31-1.38c-.48-1.14-.81-1.89-1.11-2.65-1.34-3.49-2.89-3.86-5.75-1.25,.8,1.67,1.62,3.36,2.55,5.28Zm6.97,9.14l-.6,.04v20.9l.6,.21c.23-.55,.64-1.1,.65-1.66,.06-3.88,.12-7.77,.01-11.65-.07-2.62-.43-5.23-.66-7.85h0Zm31.35,9.09c1.69-.32,2.32-1.28,2.3-3.15-.06-6.18,.09-12.36,.15-18.54,0-.3-.15-.61-.23-.92-.46,.48-.58,.93-.59,1.39-.05,4.52-.08,9.05-.11,13.57,0,1.04,0,1.98-1.47,2.2-.9,.13-1.82,.55-.94,1.98,.6,.97,.61,2.3,.89,3.45v.02Zm-9.28-30.44c3.02-1.62,5.86-3.14,8.96-4.81-1.4-1.58-2.62-2.96-4.21-4.75,0,1.79,.03,2.97,0,4.15-.04,1.33-1.84,2.75-3.14,2.62-.77-.08-1.56,.07-2.44,.12l.84,2.67h0Zm-24.68,25.06c-.65,6.42-.05,12.3-.21,18.44,1.65-1.18,1.81-15.81,.21-18.44Zm2.71-15.2c.61-.21,1.23-.38,1.83-.63,2.22-.93,4.43-1.9,6.66-2.81,2.3-.94,2.32-.96,1.04-3.22-4.06,.84-6.4,4.27-9.53,6.66Zm32.06-6.71l.36-.22-.38-2.42,.57-.16,.99,2.01,.95-.74-2.16-2.41c2.22,1.27,3.79,1.66,4.71,1.17-.8-1.13-1.58-2.25-2.4-3.42-.95,.46-1.77,.8-2.53,1.24-.75,.44-1.45,.98-2.18,1.49,.4,.68,.74,1.28,1.1,1.88,.32,.53,.65,1.05,.98,1.57h-.01Zm-17.42,9.14c-1.58-3.62-2.66-4.1-5.75-2.68,.13,.46,.14,1,.4,1.35,.73,1,1.4,2.38,2.41,2.73,.73,.26,1.95-.88,2.94-1.39h0Zm-39.6,12.41c-.28-1.85-.57-3.46-.75-5.09-.44-3.97-.42-3.97-1.41-4.33l-.69,10.9,2.84-1.48h.01Zm1.28,4.22c1.58-3.71,3.5-7.1,2.09-11.23,1.07,5.21-2.11,7.66-6.33,9.44l.2,.44c1.28,.43,2.56,.86,4.03,1.35h.01Zm30.85-32.5l-.62,.1c-.12,2.27-.24,4.55-.38,7.1l4.24-1.95-3.24-5.25Zm-13.05,26.2l.53,.46c1.26-.81,3.43-1.49,3.57-2.47,.19-1.31-1.19-2.84-1.89-4.28l-.8,.17c-.47,2.04-.94,4.08-1.41,6.12Zm-13.92,1.27l-.5,.02v6.45c.78-.74,1.32-1.18,1.77-1.69,1.23-1.38,2.41-2.81,3.68-4.15,.14-.15,.79,.17,1.31,.31-.1-1.96-1.93-1.35-2.48-1.79-1.05,1.51-2.02,2.91-3,4.32l-.47-.29-.32-3.18h.01Zm1.38-22.67l.47-.42c-2.35-3.62-4.71-7.24-7.13-10.97-.15,.91-.37,1.64-.36,2.37,0,.56,.14,1.26,.48,1.66,1.32,1.52,2.78,2.91,4.13,4.4,.85,.94,1.61,1.97,2.41,2.96Zm-23.23,30.43v-9.37l-.53-.23c-.46,.65-1.34,1.34-1.29,1.95,.21,2.59-1.02,5.61,1.82,7.65ZM111.48,19.76c-.06,1.26-.49,2.48-.07,3.2,1.06,1.77,2.5,3.3,3.82,4.97,.97-1.64-.6-5.1-3.75-8.16h0Zm5.32,35.65c-1.4-1.66-2.66-3.21-3.98-4.69-.18-.2-.68-.11-1.02-.16-.04,.35-.21,.76-.09,1.04,.75,1.75,1.57,3.46,2.4,5.28l2.7-1.46h-.01Zm3.26-2.79c-1.25-4.13-2.34-4.78-4.92-2.97,.96,1.3,1.93,2.59,2.95,3.98l1.97-1.01Zm-43.62,25.59c.61-.62,1.44-1.07,1.48-1.58,.24-3.09,.31-6.2,.39-9.3,0-.36-.29-.72-.64-1.55-.43,4.35-.8,8.09-1.22,12.42h-.01Zm62.95-6.64s.08,.28,.1,.52c.21,2.12,.39,2.15,2.35,1.17,.93-.47,2.05-.52,3.02-.91,.53-.21,.93-.75,1.39-1.13-.55-.3-1.15-.91-1.65-.84-1.68,.25-3.33,.74-5.21,1.19h0Zm-42.37,3.8c-.46,3.73-.32,3.95,2.84,4.63,.82-3.61,.49-4.17-2.84-4.63Zm27.1-29.94l3.2,3.86,2.1-1.17c-2.44-3.82-3.01-4.1-5.29-2.69h0Zm3.03-1.49c.73,.8,1.44,1.45,2,2.21,1.38,1.91,1.41,1.93,3.27,.35-2.37-4.07-2.5-4.13-5.26-2.56h0Zm11.49-.4l2.6-1.25c-1.95-2.71-3.68-3.54-5.18-2.47l2.57,3.72h0Zm-1.71,.63l-2.9-3.69-2.17,1.25,2.64,3.82,2.44-1.38h-.01Zm-37.6-25.14c1.77-.8,3.43-1.56,5.22-2.38l-.98-1.7c-4.55,1.53-5.4,2.33-4.24,4.07h0Zm43.56,42.1l.46-.03v-14.9h-.46v14.93Zm-40.39,23.16l.21-.56-10.72-4.96-.36,.78c3.36,2.15,7.25,3.17,10.87,4.74Zm-8.91-22.82l.49-.46c0-1.32,.13-2.67-.07-3.96-.07-.43-1.01-.73-1.55-1.08-.23,1.34-.64,2.69-.58,4.02,.02,.52,1.11,1,1.71,1.49h0Zm5.73-14.07l-.51,.4c1.56,2.47,3.12,4.94,4.68,7.41l.59-.3v-1.65c-.83-.77-1.79-1.27-1.76-1.69,.18-2.38-1.99-2.8-3-4.16h0Zm-8.65,28.27c0-2.25,.07-3.94-.02-5.63-.07-1.24-1.46-1.72-2.85-.95l2.12,.28c-.23,.68-.47,1.24-.61,1.82-.23,.95-.61,1.94-.52,2.88,.05,.48,.98,.87,1.88,1.6Zm10.47,.8c-.59,4.76-.44,5.34,1.5,5.56,.59-3.9,.22-5.27-1.5-5.56Zm28.84,4.17c2.17-.44,4.12-.23,3.98-3.26-1.2,.19-2.4,.13-3.3,.62-.47,.26-.41,1.48-.68,2.64Zm-17.32-8.17h.34v-11.74h-.34v11.74Zm14.48-14.54v7.56c.41-.28,.55-.33,.59-.42,.78-1.78-.63-3.89,.82-5.61,.05-.06-.78-.85-1.41-1.53ZM87.41,23.91l3.9-1.76-.74-1.7c-3.86,1.25-4.08,1.47-3.16,3.46Zm-18.01,34.67h.38v-10.83h-.38v10.83Zm71.06-3.49v-7.74c-1.68,1.47-1.65,2.23,0,7.74Zm-31.24-24.95l-.27,.46c1.75,2.88,2.48,2.33,5.65-.45l-3.29,1.21-2.08-1.22h-.01Zm-16.75-10.67c1.58,2.16,1.65,2.18,3.72,.82l-1.56-2.08-2.16,1.26Zm35.7,48.74c-4.71,1.28-5.81,3.25-4.35,8.18,.11-1.75-.45-3.79,.27-5.17,.71-1.37,2.72-2.06,4.09-3.01h0Zm4.9-52.46l.44-.29c-2.18-3.23-4.36-6.47-6.53-9.7l-.48,.32,6.57,9.67Zm-23.01,18.64l.29,.69,8.89-4.42-.24-.51-8.94,4.24Zm20.66-.12l.3,.02v-7.44h-.3v7.42Zm2.37,4.41l.19,.37,8.72-4.24-.26-.52-8.65,4.38h0Zm-16.22-26.35l-.56,.3c1.43,2.52,2.85,5.03,4.28,7.55l.59-.34-4.31-7.51Zm-12.72,72.23h.5v-7.08h-.5v7.08Zm-22.36-14.26l-.71,.11c.23,3.29,.46,6.58,.71,10.16v-10.27Zm24.33-6.33h-.16v10.82h.16v-10.82Zm27.97-37.73l1.93,3.05v-4.11l-1.93,1.06Zm-61.12,19.67c.48-3.09-2.76-.68-3.23-2.54l-.44,1.35,3.67,1.19Zm60.98,26.52l.03,.58c.85-.37,1.7-.74,2.55-1.1l-1.27-2.24-1.31,2.76Zm-27.42-45.25l4.14,1.76,.27-.62c-1.39-.19-1.61-2.9-4.4-1.13h0Zm30.04,22.46c-.32,3.02-.63,6.04-.95,9.06,1.79-2.88,.85-6.04,.95-9.06ZM103.58,12.27c1.18,2.7,2.14,3.79,2.89,3.27l-2.89-3.27Zm38.83,49.2l-.27-.53-3.8,1.7-.78-1.76c-.27,1.13-.56,2.57,1,2.35,1.34-.18,2.57-1.15,3.85-1.77h0Zm-13.56,17.09l2.01-1.77c-1.69-.49-2.94-.19-4.27,1.1l2.26,.67Zm-22.66-2.17l-.3,.02v6.81h.3v-6.82h0Zm26.96-.75l-.19,.95,2.54,.97c0-.53,.17-1.47,.02-1.53-.74-.26-1.57-.28-2.37-.39Zm-16.11-16.82h-.22v10.82h.22v-10.82Zm-2.85,13.55l.39,.75,5.44-2.34-.19-.44-5.65,2.04h.01Zm-4.39,9.08h-.49v4.6h.49v-4.6Zm-8.53-46.2l-.44,.16c.33,.94,.6,1.92,1.05,2.8,.09,.17,.91-.04,1.76-.1l-2.37-2.86Zm-12.9-5.95l.46-.25-2.78-4.89-.54,.3,2.87,4.84h-.01Zm15.07-2.2c.49,1.31,1.65,1.74,3.48,1.31l-3.48-1.31Z" fill="#41463d"/><path d="M91.73,101.88c3.07-1.2,6.14-2.4,9.21-3.59l.23,.5-5.78,3.5c1.61,.32,2.88,.77,4.16,.78,1.77,0,3.81,.15,4.14-2.47,.03-.23,.65-.38,1-.57l.38,1.2,2.11-.73,.04-.4-5.01-1.1v-.35c1.45,.21,2.9,.4,4.34,.62,.5,.08,1.03,.38,1.48,.29,2.98-.61,4.91,.88,6.67,3.02,2.37,2.9,5.77,4.53,9.22,5.02,2.07,.29,3.88,1.18,5.82,1.45,.87,2.11,1.74,4.2,2.72,6.56,1.47-1.95-1.64-3.89,.71-5.47,.27,1.44-1.08,3.25,1.38,4.12-.87,.99-1.48,1.98-2.35,2.63-3.99,3-7.68,6.55-12.85,7.56-.56,.11-1.2,.44-1.68,.28-2.4-.8-4.75-1.74-7.2-2.77,1.32,.14,2.15-.17,1.83-1.3,.2,.14,.53,.41,.9,.62,.71,.4,1.84,.61,2.08,1.19,.67,1.61,1.71,1.64,3.05,1.28,.46-2.99-.06-4.54-1.89-4.97-1.81-.42-3.68-.56-5.67-.85-.41,1.67-1.33,1.29-2.53,.84-5.91-2.18-11.83-4.31-17.8-6.31-1.43-.48-3.05-.33-4.56-.61-1.71-.32-1.72-1.74-1.47-2.98,.28-1.41,.59-2.98,1.42-4.07,.75-1,2.19-1.51,3.38-2.14,.6-.32,1.31-.44,1.97-.65-.4,.55-.8,1.09-1.2,1.64l.36,.4,4.41-1.53-.11-.64h-2.91Zm35.16,8.05h0c-1.45,.59-2.94,1.08-4.33,1.78-1.01,.51-1.75,.73-2.69-.2-1.14-1.14-2.22-.85-2.92,.53-1.67-.38-3.3-.74-4.93-1.11,1.65,1.02,3.36,1.66,5.09,2.29,1.32,.48,2.71,1.44,3.97,1.31,2.83-.3,5.38-1.57,7.68-3.87l-1.88-.73h.01Zm-24.52-.63c-.65,.18-1.35,.64-1.93,.51-3.22-.72-6.4-1.58-9.6-2.4l-.43,.25c.7,.89,1.21,2.19,2.13,2.61,4.48,2.07,9.07,3.9,13.62,5.82l.2-.43-1.7-1.1c1.51,.13,2.95,.7,3.78,.22,1.71-.98,3.25-.79,4.91-.28,1.8,.55,3.59,1.11,5.36,1.66,.16-2.14-8.99-5.61-13.13-4.67,.65-1.33-.1-1.2-1.01-1.28-.77-.07-1.51-.61-2.27-.95l.62-.82c-4.34-1.99-6.09-2.2-8.13-.7,1.54,.12,2.79,.08,3.97,.33,1.23,.26,2.4,.81,3.6,1.23h0Zm12.43-1.45c1.92,.55,3.19,3.3,5.62,1.4,.08,.64-.05,1.39,.24,1.61,.38,.29,1.14,.33,1.63,.16,1.05-.36,2.02-.92,3.33-1.53-2.27-.93-4.34-1.56-6.17-2.59-1.93-1.09-3.3-.69-4.63,.95h-.02Zm-11.4-4.6l2.16,2c1.03-.38,2.14-.78,3.25-1.18l.09,.23-1.63,1.35c2.33-.45,4.29-.83,6.37-1.24-.84-1.36-1.48-2.4-2.18-3.54-2.05,.35-4.38,.23-5.57,2.71,.65-.09,1.21-.4,1.8-.61,.44-.16,.92-.19,1.38-.28l.04,.56c-1.85,.61-3.75,.61-5.7-.01h-.01Zm11,5.85l.04-.6c-1.47-.22-2.93-.5-4.41-.65-.54-.05-1.11,.17-1.66,.3-.43,.11-.84,.28-1.25,.43l.57,.72,2.85-.41-1.71,1.42c2.38,1.39,3.81-.59,5.57-1.22h0Zm8.57,11.88c1.58-1.48,3.32-3.11,5.11-4.78-3.59,1.35-5.6,3.54-5.11,4.78Zm-29.15-13.46l.33-.44-.53-.66,2.5-.64-.18-.41-3.25-.92-1.33,1.98,2.46,1.09Zm-7.64-2.59l.16,.46,3.16,1.54v-2.61c-1.11,.2-2.21,.4-3.32,.6h0Zm25.87,1.53l-.22-.92c-1.77,.53-3.54,1.05-5.32,1.58l.23,.74c1.77-.46,3.54-.93,5.31-1.39h0Z" fill="#41463d"/><path d="M52.6,70.45c-2.81-.23-5.67-.18-8.4-.77-1.9-.41-3.3-.54-4.91,.8-1.21,1.01-2.87,1.48-4.54,1.84l3.55-2.26-.22-.38-7.84,4.35,.58,.47c-2.79-.57-6.22,.73-7.94-2.87-.35-.74-1.35-1.17-1.9-1.99l1.72,.77,.67-2.93,.55,.06c0,.71,.18,1.48-.04,2.12-.49,1.43-.31,2.46,1.13,3.15,1.57,.76,2.99,1.11,4.55-.24,2.3-1.98,4.77-3.77,7.19-5.65-.98-1.57-3.84-2.48-6.14-1.62l1.24-1.54-6.61,3.71-.16-.37,1.46-2.11c.55,1.31,1.58,.67,2.32-.16,1.36-1.55,2.66-2.09,4.39-.53,.41,.37,1.12,.42,1.7,.61l.54-.52-1.89-2.91,.17-.32c.83,.36,1.82,.55,2.45,1.13,1.34,1.23,1.68,.12,1.88-.77,.2-.9,.04-1.89,.25-2.87,.1,.71,.14,1.43,.33,2.12,.08,.3,.48,.51,.74,.76,.23-.25,.67-.5,.67-.76,.02-2.62,.07-5.25-.13-7.86-.04-.49-1.11-1.03-1.8-1.31-1.95-.79-3.94-1.46-6.09-2.24,2.07-.22,3.93-.3,5.74-.63,1.85-.34,3.66-.93,5.7-1.47l-.15,2.28c2.56,.27,2.9-.14,2.41-3.03l-2.16,.17,3.85-3.49-.08-.16-2.44,1.17c.72-.84,1.04-1.33,1.48-1.68,.55-.44,.84-2.47,1.95-.15,.5,1.04,2.32,.94,3.96-.37l-2.68,.27,.14-2.36,.29-.11,.72,1.82,1.01-1.44h.45c.19,6.85,.39,13.71,.58,20.76l2.14-1.71c.18,.64,.39,.99,.36,1.32-.13,1.23,.45,1.6,1.6,1.83,2.16,.43,3.19,1.76,2.92,3.45-.04,.27-.32,.51-.32,.51-.35-.22-.7-.43-1.05-.64-.51-1.07-.52-2.59-2.22-2.64,.13,.68,.14,1.31,.38,1.83,.36,.79,.69,1.98,1.89,.74,.3,2.18-1.62,2.67-2.86,3.57-.89,.64-2.08,.89-3.13,1.31,.22-.33,.43-.66,.57-.86l-5.72-.27-.05,.61c1.76,.16,3.51,.32,5.27,.49l-.02-.03h0Zm-4.78-5.12c-3.49-.13-6-2.93-9.29-1.84,.03,3.08,.39,3.48,4.48,4.88l.6-2.44-2.59-1.06,.16-.42c2.8,.64,5.61,1.28,8.5,1.95l.58-1.66c-.85-.52-1.73-.89-2.32-1.53-.17-.18,.47-1.12,.69-1.62-2.03-1.59-4.36,.05-7.2,1.04l6.37,2.69h.02Zm-2.5-14.81c-4.22,1.33-4.11,.44-3.57,5.04,.04,.36-.24,.8-.11,1.09,.26,.6,.58,1.44,1.08,1.61,1.71,.57,3.47-1.26,3.17-3.38l-3.14,.86-.38-.36c2.29-.88,4.29-1.92,2.96-4.86h0Zm6.74,18.6c.49-.22,1.28-.46,1.94-.9,.4-.27,.6-.84,.89-1.28-.5-.16-1.09-.56-1.5-.43-2.58,.84-5.05,.08-7.56-.28-.55-.08-1.18,.4-1.77,.62,.51,.5,.95,1.33,1.54,1.45,2.02,.39,4.08,.54,6.46,.82Zm-3.6-19.93c-2.55,.99-2.74,1.5-1.85,4.47l1.73-.31c-.31,.63-.9,.79-1.19,1.17-.3,.39-.41,.99-.41,1.51,0,.29,.32,.76,.6,.84,1.77,.55,3.93-1.71,3.49-3.7h-1.66l-.7-3.98h-.01Zm2.93,7.3c-1.49,.48-2.77,.82-3.97,1.34-.4,.17-.8,.82-.8,1.25,0,.4,.46,.93,.86,1.16,.87,.5,1.79,.97,2.76,1.2,.38,.09,1.32-.46,1.33-.75,.08-1.3-.09-2.62-.18-4.2Zm-.03-12.93c-.78,.31-1.49,.5-2.08,.87-.43,.27-.65,1.03-1.08,1.15-1.83,.52-1.95,1.72-1.48,3.52,1.06-.58,1.99-1.39,3.03-1.61,2.38-.49,1.93-2,1.61-3.93Zm.4,4.57c-3.1,.38-3.3,.85-1.84,4.06,2.61-.4,1.84-2.32,1.84-4.06Zm-7.87,10.61c-.84,1.59-3.35-1.36-3.36,1.67,0,1.64,1.29,.98,2.26,.92,1.75-.11,1.46-1.11,1.09-2.59h.01Zm10.89,6.97l.21-.42-3.2-1.77-1.19,2.81,4.18-.61h0Zm-14.14-9.01l.35-.02v-4.06h-.35v4.08Z" fill="#41463d"/><path d="M13.47,74.6c1.07-.14,2.01-.33,2.98,.69,.52,.54,1.91,.2,2.87,.41,.64,.14,1.22,.56,1.82,.85-.61,.26-1.2,.56-1.82,.76-.57,.18-1.35,.06-1.73,.41-1.5,1.36-3.22,.96-4.89,.75-2.9-.36-5.74-1.34-8.7,.01-1.11,.5-2.55,.28-4,.4,.7-1.64,.61-1.37,1.86-.96,.89,.29,2.15-.06,3.06-.5,.45-.21,.49-1.27,.87-2.43l-3.23,1.22-.23-.58c2.68-1.05,5.38-2.06,8.03-3.16,1.51-.62,2.3,.41,3.19,1.22,.15,.14-.02,.63-.04,.96-2.17-2-4.49-1.11-7.31-.56l3.23,2.07-.16,.23-3.59-1.41c1.22,1.7,4.35,2.63,8.02,2.69,.2-1.03,.43-2.01,1.71-.72,.34,.34,1.02,.33,1.54,.48l.24-.59-3.73-2.24h0Z" fill="#41463d"/><path d="M84.6,84.52l1.89,.28-2.82,3.13c.27,.84-.36,1.42-1.54,1.01-1.14-.39-2.14-1.15-3.15-1.84l-1.19-.62c-.91-.12-2.02,.74-3.01-.75-.13-.19-1.91,.71-2.93,1.1l.1,.67,1.99,.42c-.34,.48-.78,1.28-.89,1.24-.6-.23-1.32-.56-1.62-1.08-.32-.55-.22-1.34-.3-2.04,.27-.21,.63-.38,.84-.65,1.22-1.58,2.68-1.93,4.37-1.04,.21,.11,.49,.11,.73,.18,1.38,.38,2.77,.75,4.14,1.19,.09,.03,.01,.57,.01,.85,1.85,.47,3.11-.03,3.42-2.09l-.04,.04h0Z" fill="#41463d"/><path d="M59.48,98.27c.9-.21,1.81-.43,3.25-.77l-1.83-1.04c2.66-.63,5.05-1.2,7.64-1.81-1.48,4.88-5.39,4.06-8.76,4.37l-.3-.74h0Z" fill="#41463d"/><path d="M147.63,79.62h3.05l.21-2.05c2.69,.74,5.25,1.45,7.71,2.12-.9,1.28-7.35,1.5-10.97-.07h0Z" fill="#41463d"/><path d="M75.61,89.69l.65-.81,7.42,1.94c-2.94,1.43-5.21-1.38-8.02-.67l-.06-.46h0Z" fill="#41463d"/><path d="M29.88,56.22l.25,2.24c-2.2-1.26-4.75-.82-6.47,1.09,1.01-2.94,4.27-2.03,6.22-3.33Z" fill="#41463d"/><path d="M145.76,83.27c-.88,.44-1.61,.96-2.43,1.17-1.59,.41-2.99,.03-3.94-1.52l6.37,.35Z" fill="#41463d"/><path d="M158.24,72.02c-.29-1.6-1.68-1.27-2.71-1.45-.18-.03-.73,.72-.7,1.08,.05,.65,.4,1.28,.68,2.07l-1.42-.23c.51-4.13,1.56-4.68,5.53-2.74l-1.43,1.21,.05,.05h0Z" fill="#41463d"/><path d="M158.19,71.97c.38,.49,.69,1.29,1.15,1.39,.55,.12,1.5-.18,1.78-.61,.35-.54,.19-1.4,.26-2.23l1.37,.26c-.14,.45-.27,.83-.37,1.21-.51,2.02-2.78,2.77-4.34,1.44-.41-.35-.35-.82,.19-1.41l-.05-.04h.01Z" fill="#41463d"/><path d="M68.69,76.85l.97,1.86-1.12-.31,.41,1.56-1.59-.52,1.33-2.59Z" fill="#41463d"/><path d="M110.53,11.14c1.17,2.57,2.32,5.14,3.52,7.69,.15,.31,.55,.49,.81,.76,.95,.97,1.88,1.96,2.48,3.24-.98-.78-2.01-1.51-2.91-2.37-.58-.55-1.07-1.25-1.43-1.97-.85-1.69-1.66-3.41-2.35-5.17-.25-.65-.09-1.45-.11-2.19h0Z" fill="#41463d"/><path d="M127.16,22.14c.01-.55-.05-1.55,.04-1.57,.81-.12,1.65-.07,2.49-.07l-.07,.72-1.76-.57,.96,2.07c-.82-.31-1.26-.47-1.7-.63l.05,.05h0Z" fill="#41463d"/><path d="M126.89,109.93c0,.25,.07,.56-.04,.74-.86,1.31-5.3,2.88-7.06,2.43,2.81-.31,5.17-1.26,7.1-3.16v-.02h0Z" fill="#41463d"/></g></g></g></g></g></svg>