<?xml version="1.0" encoding="utf-8"?>
<!-- Generator: Adobe Illustrator 26.3.1, SVG Export Plug-In . SVG Version: 6.00 Build 0)  -->
<svg version="1.1" id="b" xmlns="http://www.w3.org/2000/svg" xmlns:xlink="http://www.w3.org/1999/xlink" x="0px" y="0px"
	 viewBox="0 0 143.9 132.6" style="enable-background:new 0 0 143.9 132.6;" xml:space="preserve">
<style type="text/css">
	.st0{fill:#E4D6A7;}
	.st1{fill:#41463D;}
</style>
<polygon class="st0" points="39.5,1.1 29.4,13.8 22.6,55.9 31.7,78 100.4,81.9 99.9,25.3 "/>
<g id="c">
	<g id="d">
		<g id="e">
			<g>
				<path class="st1" d="M84.1,83.7c-1.7,0.4-3.3,0.8-5,1.2c-0.2,0.1-0.4,0.8-0.3,0.9c0.4,0.4,0.9,0.6,1.6,1.1l-4.8,0.3l-0.2-1
					l-3.6,0.4l0,0c-0.8-0.6-1.7-1.2-2.3-1.9c-0.8-0.8-1.3-1.8-0.3-2.9l1.6,2l1.3-0.8l-2.3-3.8l0.3-3.5c1,0.5,2.1,1,3.2,1.6
					c-0.9-0.2-1.8-0.4-3-0.7c0.2,1.1,0.2,1.9,0.6,2.7c0.6,1.5,1.6,2.9,2.1,4.4c0.5,1.4,1.1,2.1,2.4,1.7L75,77.6l-1.7-0.2l0.8-0.1
					l0.1-0.7c-2.6-0.8-5.2-1.6-7.9-2.4l-0.5,1.6c-0.7-2.7-2.9-2.2-4.8-2.6c0,0.4,0,0.8-0.1,1.1s-0.1,0.6-0.2,0.9
					c-0.3-1.6-0.8-2.4-1.4-2.5l-0.6,2.4c-0.2-1,0.1-2.1-0.3-2.6c-0.4-0.6-1.5-0.7-2.4-1.1l-0.8,3.3l0.7,0.1l0.9-2.7l0.6,2.6
					l-2.4,1.9c3.6-0.9,4.4-0.6,5.3,2l5.2-0.9L68,80l-1.2,0.4c-0.5-0.5-1-1-1.6-1.6l-3.4,2.4l0.2,0.4l1.5-0.3l0.7,1.2l1.7-1.1
					c-0.5,1-0.9,2.1-1.4,3.1c-0.5-0.8-1-1.7-1.6-2.7c-1,0.9-2.6,1.3-1,2.8c-0.6-0.6-1.2-1.1-1.9-1.6c-0.3-0.2-0.7-0.2-1.1-0.3v-3.6
					L56.8,82l-1.7-1.1c-0.2,0.6-0.6,1.4-0.4,1.9c0.4,1.3,1.5,1.4,2.7,0.9c0.6-0.2,1.1-0.7,1.6-1c-1,0.6-2.1,1.9-3,1.8
					c-2.1-0.4-2.1-2.4-1.9-3.9c-2,0.2-4,0.2-5.9,0.5c-0.5,0.1-0.9,0.7-1.3,1c-1.2,1.1-2.5,0.9-3.1-0.6c-0.1-0.3-0.2-0.8-0.2-0.8
					c-2.6,0-4.8-2.2-7.6-1c-0.1,0.1-0.4,0-0.8-0.1l0.9-0.5v-0.4L31.7,78c-0.3-2.3-0.2-4.6,2-6.3l-0.2-0.6c-0.7,0-1.4-0.1-2.1-0.1
					c-2.1,0.2-3.8-0.8-5.6-1.8c-0.3-1.4,0.5-3.4-2.5-3.6l2.3-1.4c0,0,0-0.4,0.1-1.3c1.2,3.5,1.6,4,2.9,3.5l-1.9-3.2
					c0-0.6,2-1,0.2-1.9l1.1-3.5c-2.1,0-3.8,0-5.4,0c-0.4,0-0.9,0.4-1.3,0.6l-1.6-0.3l0.5-0.1l-0.5-1.8l-1,0.3l1.5,4l1.2-2l-0.2,4.8
					l0.5,0.1l0.8-2.8l2.5,0.8h-1.8v0.5l2.7,0.4c-1.6,0-3.1-0.3-3.7,1.8c-0.2,0.9-0.5,1.8-0.7,2.7c-0.2,1.3,1,2.9,2.3,3
					c0.4,1.4-0.9,1.6-1.6,1.5c-1.1-0.1-2.1-0.7-3.2-1.1c-0.8-0.3-1.7-0.4-2.5-0.8c-0.6-0.3-1.2-0.7-1.7-1.3c1.2,0.6,2.3,1.4,3.3,0.1
					c1.1-1.4,0.6-3.2-0.9-4.4l2.8,1.3l-0.6-5.8h-0.6L18.3,60c-0.1-0.2-0.2-0.2-0.3-0.3c-0.3-0.5-0.7-1.1-1-1.7
					c-0.7,0.9-1.6,1.8-2,2.8c-0.4,1.2-0.2,2.6-0.4,3.9c-0.1,0.5-0.7,0.9-1.1,1.4c-0.5,0.6-1,1.3-1.6,1.9c-1.7-1.3-1.1-2.1,0.1-3.1
					c0.5-0.4,0.7-1.3,1.1-2c-0.3,0-0.6-0.1-0.9-0.1c-0.1-1.1-0.1-2.3-0.2-2.9c-0.9,0.1-1.8,0.4-2,0.1c-0.5-0.5-0.5-1.4-0.8-2.1
					c-0.2-0.4-0.6-0.6-0.9-0.9C8.2,57.5,7.8,58,8,58.3c0.4,1.2,0.9,2.4,1.6,3.3c0.3,0.4,1.3,0.2,1.9,0.3c0.3,0.1,0.4,0.5,0.6,0.8
					c-2.3-1-2.4-0.9-4,2.5c-0.8-0.3-0.8-1,0-2.2c-1.5-0.2-2.5-0.6-1.2-2.3c0.4-0.5,0.1-1.5,0.2-2.2l-0.5-0.2l-1.7,3.3l-2-2.4h0
					l-0.4-1l0.8-0.9l3.2,0.6c0.2-2-0.1-3.9,0.7-5.1c0.8-1.3,2.5-2.3,4.8-1.3l0.5-6.8h0.2v4.1l2.8,0.5c0-3.2,0-6.4-0.1-9.6
					c0-0.4-0.7-0.9-1.1-1c-1.5-0.6-3.2-1-4.7-1.6c-0.4-0.2-0.8-0.7-1-1.1c-0.1-0.2,0.5-0.8,0.9-0.9c3.5-1.5,7-2.8,10.6-4.2
					c0.2-0.1,0.7,0.3,1.3,0.5L11.1,35c1.9,1.6,3.7,0.9,5.8,0c3.1-1.4,6.3-2.6,9.5-3.7c1.3-0.5,2-1,1.9-2.6c-0.2-2.6-0.1-5.1-0.2-7.7
					c0-0.4-0.2-0.8-0.4-1.2c-0.1-0.3-0.5-0.6-0.5-0.7c0.7-1.8,1-4,2.2-5.3c4-4.1,6.8-9,9.8-13.8h0.4c0.8,0.4,1.7,0.9,2.5,1.2
					c14.3,4.9,28.7,9.7,43,14.6c1.7,0.6,3.2,2,4.8,3.1c3.3,2.1,6.7,4.3,10,6.4c0.4,0.3,1.2,0.9,1.1,1.1c-0.2,0.6-0.7,1.4-1.2,1.5
					c-1.3,0.4-1.5,1.1-1.4,2.2c0.1,2.4,0,4.7,0,7.1c0,1.9-0.7,4.2,2.9,4.5l-2.1,1.7c-0.3,2-0.5,4-0.8,5.9c0,0.1-0.3,0.2-0.3,0.3
					c0.1,3.4,0.3,6.7,0.4,10.1c0,0.3,0.3,0.5,0.5,0.8l0.1,0c-1,1-0.6,1.4,0.6,1.8c2.1,0.7,4.2,1.5,6.2,2.3l0.1-1.2l0,0
					c0.2,1.1,0.6,2.3,0.6,3.4c0.1,2,0,3.9,0.2,5.9c0.7-3.2,1.3-6.4,1.9-9.6c1.1,0.3,1.6,1.4,1.5,3.4c0.5,0.5,0.8,0.9,1.1,1.3
					c-2.5,1.6-1.7,4.2-2.3,6.5c0.9-1.7,1.7-3.5,2.4-5.3c0.1-0.3-0.1-0.8-0.1-1.2c1.6-0.2,1.9-1.4,1.8-2.7c-0.1-1.1-0.4-2.2-0.6-3.5
					c1.4,1.1,1.6,4.2,0.7,5.8c-1,1.8-1.8,3.8-2.6,5.7c-0.6,1.6,0.1,2.5,1.4,2.5c0.1,1.8,0.2,3.6,0.2,5.3l-0.3,0
					c-0.2-0.4-0.3-1-0.6-1.1c-0.4-0.2-1-0.1-1.3,0.2c-0.2,0.2-0.4,0.8-0.2,1.1c0.7,1.5,0.8,1.5-0.9,1.7c-1.1,0.1-2.2,0.2-3.8,0.2
					l2.9,1l-4.8,2.3l-0.3-0.5l2.2-1.2l-5-1.9c-0.6,2-1,2.1-4.8,1.8l0.4,1.6L91.5,87l-0.6-1.9c-1.2,0.5-2.3,0.9-3.3,1.5
					c-0.4,0.2-0.7,1-0.7,1.5c0,0.4,0.4,1.1,0.8,1.2c0.8,0.2,1.7,0.2,2.6,0.3c-1.4,0.5-2.7,0.9-3.9-0.4c-0.2-0.2-0.8-0.2-1.2-0.2
					c-1.4-0.2-2.8-0.3-4.2-0.5l0.1-0.6c0.7,0.2,1.5,0.5,2.2,0.4c0.8-0.1,1.7-0.3,2.1-0.8c0.3-0.4,0.2-1.7-0.2-2
					c-0.6-0.4-1.5-0.2-2.6-0.3l0.9,2.3l-0.7,0.3l-1.6-3.5l3.1,0.3C84.3,84.3,84.2,84,84.1,83.7c0.4-0.6,0.8-1.5,1.2-1.5
					c1.5-0.1,1.9-1.4,2.8-2.2c-0.6-0.2-1.1-0.4-1.6-0.2c-0.8,0.3-1.6,0.8-2.3,1.2c-0.5,0.3-1,0.8-1.5,1.2L84.1,83.7L84.1,83.7
					L84.1,83.7L84.1,83.7z M78.1,19l0.4,1.1l2.3-1.2L80.4,18L78.1,19l-0.5-1.4l-2.3,1l0.3,1C75.6,19.6,78.1,19,78.1,19z M41.3,8.2
					l-0.1,0.9l0.3,0.3l1.9-1.7L46.9,7c-0.2-1.2-2.7-1-0.6-2.4c-1.4-0.5-2.6-1-3.8-1.3c-0.5-0.1-1.2,0.4-1.8,0.6c0,0,0.2,0.6,0.2,0.5
					l-2.1,1.7L39,6.5c0.7-0.1,1.5-0.2,2.2-0.4l-2.8,1.2l1.9,1.3l-0.4,0.9l0.4,0.2L41.3,8.2L41.3,8.2C41.3,8.2,41.3,8.2,41.3,8.2z
					 M51.6,13h-2.1l-0.1,0.6c0.5,0.6,0.9,1.3,1.5,1.8c0.7,0.6,1.3,0.5,1.4-0.5c1.3,0.4,1.5-0.3,1.5-1.4l2.7-1
					c0.1-2.2-2.6,0.3-3.1-1.3l0.2,1.3C52.6,11.4,52.1,11.5,51.6,13L51.6,13L51.6,13z M76.9,21c-0.7-0.4-1.5-1.3-1.9-1.1
					c-0.8,0.3-1.3,1.3-1.9,1.9l0.3,0.4L76.9,21L76,22.9l3.1,0.9C79.8,21.5,78.7,21,76.9,21C76.9,21,76.9,21,76.9,21z M34,39.7
					l0.1,0.2l0.2,0c0,0-0.1,0.1-0.1,0.2c0,0,0,0.1,0,0.1c0.3,0.2,0.7,0.3,1,0.5c12.7,4,25.3,8.1,38,12.1c0.5,0.2,1.1,0.1,1.6,0.2
					l0-0.4c-10.4-3.3-20.9-6.7-31.3-10c-0.1-0.2-0.1-0.5-0.2-0.5c-2.7-1-5.4-1.9-8.1-2.8C34.9,39.1,34.4,39.5,34,39.7L27.5,37
					l-0.3,0.8L34,39.7L34,39.7L34,39.7z M74.4,24.4c0.3-1.4-0.9-1.2-1.7-1.5c-0.3-0.1-0.7,0.3-1.1,0.5l0.9,1.2
					c-3.2-0.5-3.2,2.8-5.1,4c1.3,0.8,2.2,0.9,3.1-0.2c0.3-0.5,1-0.8,1.5-1.1l-0.7,1.5c1.1-0.3,1.9-1.1,2.8-1.4s2-0.1,3.1-0.1l0-0.5
					c-1.6-0.5-3.1-1.6-4.7,0.2l0.7-2.2L74.4,24.4c0.5,1.4,3.4,2.1,5.4,0.8C77.8,24.9,76.5,23,74.4,24.4L74.4,24.4L74.4,24.4z
					 M51.1,51l4,1.8l0.8-2.1c1.2-1.3,0.4-1.9-0.8-2.3c-2.8-1-5.6-2-8.5-2.9c-2.5-0.8-5-1.5-7.6-2.2c-0.3,2-0.3,2.1,1.3,2.6
					c0.8,0.3,1.7,0.5,2.5,0.8c2.7,1,5.4,2,8.1,3.1c-0.4,0.2-1,0.6-1.3,0.5c-1.3-0.5-2.6-1.1-3.9-1.6c-1.1-0.4-2.2-0.8-3.2-1.2
					l-0.2,0.7L51.1,51L51.1,51L51.1,51z M51.3,7.5v2.1c-1.2,0-1.8,0.9-1.6,3.2l3-2.4l4.4-1.6L57,8.2c-1.9-0.1-3.5-2-5.6-0.8
					c-0.3-0.5-0.5-1.2-1-1.4c-0.4-0.1-1.4,0.3-1.4,0.7c-0.2,1-0.1,2.1-0.1,3.5L51.3,7.5C51.3,7.5,51.3,7.5,51.3,7.5z M35.3,44.4
					l1.7-0.8l0.5,1.1l0.5-0.3c-0.4-0.5-0.7-1.3-1.3-1.6c-1.5-0.8-3-1.3-4.6-1.8c-0.5-0.2-1.1,0.2-1.6,0.4c0.3,0.5,0.5,1.1,0.9,1.4
					C32.7,43.3,34.1,43.9,35.3,44.4L30.6,43l-0.2,0.5l4.2,1.7l-4.5-0.9c0.3,4.8,0.5,9.3,0.8,14.2c2.2,0.2,4.3,0.4,6.4,0.6
					c0.3,0,0.6,0.5,1.3,1.1l-3.8-0.5l1.1,1.4l3-0.4c-0.2-0.8-0.5-1.6-0.5-2.5c-0.1-2.7-0.1-5.3-0.1-8c0-2-0.1-3.9-2.5-4.7l2.2,0.4
					l0.1-0.4L35.3,44.4L35.3,44.4L35.3,44.4z M70.9,56.6l3.7,0.9l0.4-0.4c-0.5-0.5-0.9-1.4-1.5-1.6c-2.5-0.8-5-1.5-7.5-2.2l-0.3,0.5
					c0.6,0.5,1.2,1.1,1.9,1.5C68.6,55.8,69.9,56.2,70.9,56.6l-4.3-0.9l-0.1,0.5c1.4,0.5,2.7,1.1,4.2,1.3
					C71.8,57.8,71.4,57.1,70.9,56.6L70.9,56.6L70.9,56.6z M37.7,14.6c1.8-1.5,5.2-1.4,5.4-5c-1.7,0.6-3.4,0.9-4.7,1.8
					c-0.8,0.5-2.9,0.6-2,2.6c-1.2-0.1-1.8,0.1-0.8,1.2c-0.8-0.2-1.4-1-1.6-2.4c-2.8,0.4-3.3,1-2.8,3.5l4.7,0.3l0.2,0.7L37.7,14.6
					L37.7,14.6L37.7,14.6z M59.3,11.9c-0.9,1.8-0.4,4.6,0.9,5.6c0.2-0.4,0.4-0.8,0.6-1.2c0.2-0.5,0.5-0.9,0.7-1.4l4-3.7L58.7,9
					L59.3,11.9C59.3,11.9,59.3,11.9,59.3,11.9z M27,49.6c1.5,0.2,2.3-0.5,2.3-2.1c0-0.5,0-0.9,0-1.3c0-2.5-0.1-2.7-2.8-3
					c0,1.6,0,3.2,0,4.7C26.5,48.5,26.8,49,27,49.6c-1.5,1.2-1.1,2.7-1,4.5c0.5-0.3,0.7-0.4,1-0.6C30.2,51.4,30.2,51.3,27,49.6
					L27,49.6L27,49.6z M100,80.3c2.8,1.7,5.9,1.8,9,1.6l1-3.4l-1.7,0.2l0.4,0.5l-0.7,1.7l-1.7-1.4l1.9-2.3c-0.4,0-1.1-0.2-1.4,0
					c-0.9,0.7-1.8,1.6-2.4,2.2l1.8,0.2c-1.6,1.9-1.9,1.9-3.7,0.7l1.1-2.7c-0.8-0.2-1.6-0.4-2.4-0.6l1.1-0.7
					c-0.1-0.4-0.1-0.9-0.2-1.3c-0.1-0.5-0.1-1-0.2-1.5l-0.6-0.3c-0.5,0.7-1.4,1.3-1.5,2c-0.1,0.7-0.2,2.1,1.4,1.9
					c-0.6,0.1-1.3,0.3-1.9,0.4c-1.4,0.2-1.9,0.7-1.6,1.6l-2.8-1.1l0.6,2.7c0.8-0.4,1.2-0.5,1.6-0.8c0.2-0.2,0.4-0.5,0.6-0.8
					c0.8,0.4,1.6,0.9,2.4,1.3l-3,0.4c0.2,0.3,0.4,0.9,0.8,0.9c0.8,0.2,1.6,0.2,2.5,0.2L100,80.3L100,80.3L100,80.3z M64.3,20.2
					c-0.1,0.4-0.2,0.8-0.1,1.1c0.1,0.5,0.3,0.9,0.5,1.4c0.5-0.2,1-0.2,1.4-0.5c0.3-0.2,0.4-0.7,0.7-1.3L64.3,20.2
					c0.4,0,0.9,0,1.3-0.2c0.6-0.3,1.6-0.8,1.7-1.3c0.4-2.1,0.5-4.2,0.8-6.6l-1.5-0.4c-0.2,0.5-0.4,0.9-0.6,1.3
					c-0.9,1.4-2.2,2.8-2.8,4.4C62.8,18.2,62.5,19.8,64.3,20.2C64.3,20.2,64.3,20.2,64.3,20.2z M68.5,71l-3.2-0.5
					c0.5,1.2,0.7,2.6,1.3,2.9c2.7,1.1,5.5,1.8,8.2,2.7V58.8l-2.6-0.2c0,4.1,0,8.2,0,12.2c0,0.3-0.7,1-0.9,0.9
					C70.3,71.6,69.4,71.2,68.5,71l2.8,0.2V59.8H71c-0.2,3.5-0.4,7-0.7,10.5l-2.9-0.7L67.3,70L68.5,71z M45.7,30.6c0,1.2,0,2.8,0,4.4
					c0,1.4-0.7,3.1,0,4c0.7,0.9,2.5,1.1,3.8,1.6c1.5,0.5,3,1.6,4.4,1.5c2-0.1,2.1,0.4,1.6,2C55,45.3,55.5,46,57,46h1.3
					c-0.1-0.6-0.2-1.2-0.2-1.8c0-3,0-6.1-0.1-9.2c0-1.4-0.3-2.8-2.2-2.8c-0.3,0.9-0.8,1.8-0.7,2.6c0.1,0.5,1.1,0.9,2.2,1.7
					c-2.2-1.2-2.3-0.2-2.4,1.1c-0.1,1.1-0.4,2.2-0.6,3.3L48,38.5c1.1-2.9,0.4-5.5,0.5-7.7L45.7,30.6L45.7,30.6L45.7,30.6z
					 M73.1,47.3c-1.3-0.7-1.4,0.5-1.7,1.6c-0.6-2.9-2.7-2.9-5.1-2.8l1.4,1.9c-1.4-0.4-2.6-0.7-3.8-1c-1.2-0.4-2.4-0.9-3.6-1.2
					c-0.4-0.1-0.8,0.3-1.3,0.5c0.3,0.2,0.5,0.6,0.9,0.7c1.5,0.5,3.1,1.1,4.7,1.5c3.4,1,6.9,2.1,10.4,3.1V36.5
					c-1.6,1-2.5,5.1-1.7,6.8c0.2,0.3,0.2,0.8,0.2,1.1C73.5,45.2,73.3,46,73.1,47.3L73.1,47.3L73.1,47.3z M56.6,54
					c-1,4.8-0.6,9.7-0.3,14.4l8.6,1.8c-0.1-0.5,0-1-0.1-1.1c-2-0.8-4.1-1.5-6.4-2.3c0-3.6,0-7.2,0-10.9C58.4,54.7,58,53.9,56.6,54
					L56.6,54L56.6,54z M47.4,60.9l0.2,0l0.1,1.6l0,0V51.7h-0.8c-0.3,3.5-0.7,7.1-1,10.4l-5.5-1.6L39.9,61l2.2,4.1l5.3,1.2V60.9z
					 M67.2,23.7c1.7-0.2,3.3,0,3.9-0.6c2.3-2.4,4.2-5,6.3-7.6c-1.2-0.4-2.4-0.8-3.5-1.1c-0.4-0.1-1.2-0.1-1.3,0.2
					C70.8,17.3,69.2,20.2,67.2,23.7z M46.7,67.4c-2.4-0.5-4.4-2.2-7-0.2c3,3.3,7.6,2.6,10.5,4.3l3.6-2.8c-3-1.2-5.6-1-8.6-0.5
					L46.7,67.4z M27.7,33.2l-9,4.3c0.4,0.3,0.7,0.6,1,0.7c2.1,0.7,4.2,1.3,7,2.2l-0.9-2.9C27.3,36.6,27.9,35.1,27.7,33.2
					C27.7,33.2,27.7,33.2,27.7,33.2z M35.4,34.2c1.1,0.6,2.3,0.6,2.8-0.6c0.3-0.8,0-1.9-0.1-2.9c-0.1-1.9-0.2-3.8-0.2-5.6
					c0-0.1,0.4-0.2,0.9-0.4l-3.4-1.4L35.4,34.2L35.4,34.2L35.4,34.2z M35.5,63.1l-0.3,4.2c-0.1-1.3,0-2.9-0.7-3.7
					c-0.7-0.8-2.3-0.7-3.8-1l0.4,3.8h0.4l0.2-1.1l0.9,1.8l0.8-1.8c0,1-0.1,2.2,0,3.4c0,0.6,0.3,1.1,0.5,1.7c0.4-0.4,0.9-0.7,1.2-1.2
					c1-1.7,1.9-3.5,2.8-5.4L35.5,63.1L35.5,63.1L35.5,63.1z M65.1,67c0-3.5,0-6.5,0-9.5c0-0.4-0.4-1.1-0.8-1.3
					c-1.6-0.6-3.2-1-4.8-1.5v12H60v-11c1.2,0.4,2.1,0.6,3,0.9c0.5,0.2,1.3,0.6,1.3,0.9c0,2.8-0.2,5.5-0.2,7.8L60.8,65l-0.2,0.9
					L65.1,67L65.1,67L65.1,67z M66.5,33.9c-1.7,1.1-1.7,9.4-0.1,10.5c0-1.5,0-2.7,0-3.9c0-2.3-0.5-4.7,1.1-6.8
					c0.6-0.8,0.4-1.9-0.9-2.1l-0.5,0.8c-0.4-0.5-0.7-1.1-1.2-1.3c-0.3-0.1-0.9,0.2-1,0.3L62.2,30l-0.7,1.9L66.5,33.9L66.5,33.9
					L66.5,33.9z M96.8,51.1c-1.2,0.9-1.7,13.5,0,15.3C96.8,66.4,96.8,51.1,96.8,51.1z M40.9,59.9l3.6,0.9V50.6l-0.6,0
					c0,1.2,0.1,2.4,0,3.6c0,0.5-0.5,1.3-0.7,1.3c-1.3,0-1.4,0.8-1.2,1.7c0.1,0.4,0.9,0.6,1.7,1c-0.6,0.2-1.2,0.5-1.5,0.4
					c-0.5-0.3-0.9-0.9-1-1.5c-0.2-1.1,0-2.2,0-3.4l-0.3,0L40.9,59.9C40.9,59.9,40.9,59.9,40.9,59.9z M28.8,34.2l0.7,0.2
					c0.3-0.8,0.8-1.7,0.9-2.5c0.1-3,0-6,0-9c0-1.2-0.5-1.5-1.5-1.4L28.8,34.2L28.8,34.2L28.8,34.2z M35.8,72.5c3,3,6.9,3.6,10.8,4.2
					c0.4,0.1,0.9-0.6,1.8-1.2C43.7,74.4,39.7,73.4,35.8,72.5C35.7,72.5,35.8,72.5,35.8,72.5z M53.7,30l0.1-0.4
					c-0.9-0.3-1.7-0.7-2.6-0.9c-1.6-0.3-2.2-1.2-2-2.9c0.1-1.1,0-2.3,0-3.9l-2.3,4.7l0.9-6.1l-0.3-0.1l-1.9,3.9l0.4,0.3l0.5-1.2
					l0.5,0.4l-1.1,2.5l-1.7-0.5c1.2,1.2,2.6,1.5,3.9,2.5C49.6,29.4,51.8,29.5,53.7,30z M18.4,56.5l0.4-0.5c-0.7-0.8-1.5-1.5-2.7-1.7
					c-0.9-0.2-2.2-0.3-2.5-0.9c-1.3-2.5-3.1-1.5-4.8-0.8c-1.7,0.7-1.8,2.4-0.2,3.7c-0.2-2.2,1-2.7,2.8-2.2c1.3,0.3,2.7,0.8,4,1.2
					C16.4,55.6,17.4,56.1,18.4,56.5z M46,78.4c-3.9-1.3-7.8-2.5-11.9-2.1C37.9,78.2,41.8,79.4,46,78.4z M38.7,69.3l-0.3,0.3
					c0.6,0.6,1.1,1.4,1.8,1.7c2.4,0.9,5,1.6,7.4,2.5c1.3,0.5,2,0.2,2.3-1.2C46.1,71.4,42.4,70.4,38.7,69.3L38.7,69.3L38.7,69.3z
					 M77.9,41l0.8-0.1l0.4,4.4h0.2v-7.1c-0.7,0.7-2.1,1.3-2.2,2.1c-0.4,3.1-0.4,6.3-0.6,9.4l0.4,0v-3.6h0.2l0.2,3.3l0.6,0L77.9,41
					C77.9,41,77.9,41,77.9,41z M45.1,13.4c3.8-0.5,4.5-1.9,2.5-5.3C44.6,9.9,44.3,10.4,45.1,13.4z M28.3,36.3l14,4.5
					C42,39.2,30.1,35.3,28.3,36.3z M45.3,36.1V29l7,1.7l0.1-0.4L44,28.1C43.4,33.3,43.7,35.5,45.3,36.1z M58.1,28
					c0.9-1.2,0-5.3-1.7-7.7l-2.2,0.8L54,21.6l2.7,1.2C55.7,24.5,56,25.6,58.1,28L58.1,28L58.1,28z M66.1,23.7
					c-1.9,2.7-1.6,3.9,0.9,4.5l3.1-4c-2.3-1-2.9-0.8-4.2,1.1L66.1,23.7L66.1,23.7L66.1,23.7z M87.9,44.6c1.3-0.3,1.9-0.8,1.9-1.6
					c0-2,0-4.1,0-6.1c0-1.2-0.1-2.3-0.2-3.5l-0.5,0V37h-0.3l-0.2-1c-0.2,2-0.2,2,0.5,4.3c0.1,0.5-0.1,1.1-0.3,1.6
					C88.5,42.7,88.2,43.5,87.9,44.6z M57.6,53.6c2.8,0.6,5.1,1.8,8,2c-1.2-2.4-2.2-2.9-5.7-3.3C59.2,52.3,58.6,53,57.6,53.6z
					 M61.1,32.7v10.1h2.3l0.7,0.9l0.6-0.4c-0.3-0.6-0.6-1.7-1-1.7c-2-0.2-2-1.5-2-3c0.1-1.3-0.1-2.6,0.1-3.8c0.1-0.5,0.6-1,0.9-1.6
					L61.1,32.7L61.1,32.7L61.1,32.7z M75.4,31.6l2.3-3.4c-2.5-0.6-4.5-0.8-5.6,2C72.1,30.2,75.4,31.5,75.4,31.6z M74.8,33.4
					c-1.4-0.5-2.5-0.8-3.7-1.2c-2.4,2.7-2.3,2.9,2.3,3.8C73.4,36,74.8,33.4,74.8,33.4z M26.1,42l0.2-0.8L10.1,36l-0.2,0.6
					C15.3,38.4,20.7,40.2,26.1,42z M34.5,22.9l-0.4,0L33.5,33l-1.8-1.8c-0.6,2.8,2,1.8,2.8,3.1L34.5,22.9L34.5,22.9L34.5,22.9z
					 M41.6,25.6L48,14.1l-0.7-0.4l-6.5,11.4L41.6,25.6z M50.4,17.4l-0.3,0.2c1.7,4,3.3,8.1,5.2,12.6c0.3-0.9,0.7-1.5,0.5-1.8
					C54.1,24.7,52.2,21.1,50.4,17.4z M61.8,25.9c-0.7-2.2-1.2-4-1.9-5.8c-0.1-0.3-1-0.3-1.5-0.5c-0.1,0.4-0.3,0.8-0.2,1.1
					c0.2,0.6,1,1.2,0.9,1.6C58.7,24.3,59.7,25.2,61.8,25.9L61.8,25.9L61.8,25.9z M49.1,52.4l-0.7,0c0.3,4.2,0.5,8.4,0.8,12.7l-0.4,0
					v-3.3c0.2,1.5-1,3.1,0.4,4.8V53.2C49.2,52.9,49.2,52.6,49.1,52.4L49.1,52.4L49.1,52.4z M91.6,41.4v-9.5l-0.5,0v10.4l2.6-0.9
					l-0.1-0.3L91.6,41.4L91.6,41.4L91.6,41.4z M62.3,22.8l0.9-0.4l-0.6-4.5l-2.8,0.6L62.3,22.8C62.2,22.8,62.3,22.8,62.3,22.8z
					 M51,42.2l0.2-0.5c-1-0.4-2-0.8-3-1.2c-2-0.6-3.9-1.2-3.6-3.9c0,0-0.2-0.1-0.4-0.1v5.1l0.3,0l0.7-1.3C45.1,40.4,51,42.2,51,42.2
					z M29.6,19.3c0,0-0.3,0.2-0.8,0.4c0.2,1.2,2,2.1,4.7,2c-0.4-0.9-0.5-1.9-1.1-2.4C31.9,19,30.9,19.3,29.6,19.3z M91.8,63.1
					c1.7-0.2,2.2-2.4,1.4-6.1C90.9,58.8,92.3,61.1,91.8,63.1z M65.9,58.7c-0.4,3.6-1,7.1,0.5,10.6C66.2,65.8,66.1,62.3,65.9,58.7z
					 M68.7,12.3l-0.9,5.5l0.5,0.1l2.8-4.7C71,13.3,68.7,12.3,68.7,12.3z M82.4,68h0.4V57.8h-0.4V68z M86.3,37.9
					c-0.3,2.8-0.6,5.3-0.9,8C87,45.2,87.4,40.7,86.3,37.9z M71.7,12.3l0.2-0.4L57,6.7l-0.2,0.4L71.7,12.3L71.7,12.3L71.7,12.3z
					 M57.3,14.3l-2,1l1.5,3.4l1.7-0.8L57.3,14.3L57.3,14.3L57.3,14.3z M19.1,52.7c2.1,1.5,3.7,1.7,4.9,0.6
					C22.6,51.6,21.2,51.4,19.1,52.7z M54,15.6c-2,2.1,0.7,3.2,0.3,5l2-0.8L54,15.6L54,15.6L54,15.6z M39.3,49.4l-0.4,0v9.4h0.4V49.4
					z M41.9,15.5l-0.7-1l-3.6,3.9l1.6,0.5L41.9,15.5L41.9,15.5L41.9,15.5z M33.4,73.2l0.5,0.3c2-3.2,4-6.4,6-9.6l-0.5-0.3L33.4,73.2
					L33.4,73.2L33.4,73.2z M90.7,28l1.1-2.3l-2.1-1.8l-0.9,2.9L90.7,28L90.7,28z M101.1,69.6c0.1,2.6,2.3,3.8,3.9,5.5
					c0.1,0.1,0.6-0.2,0.7-0.2C104.1,73,102.6,71.3,101.1,69.6z M68.2,29.9c-0.1,1.4-0.3,2.5-0.3,3.7c0,0.3,0.4,0.8,0.7,0.9
					c0.2,0.1,0.7-0.3,0.9-0.6C70.8,32.2,69.8,31.1,68.2,29.9C68.2,29.9,68.2,29.9,68.2,29.9z M10.8,59.2c1.7-1.6,0.5-2.8-0.2-4.1
					C9.1,55.9,9.2,57.8,10.8,59.2z M78.1,60.3l-0.2-0.1v14h0.2V60.3L78.1,60.3L78.1,60.3z M84.9,17l0.1-0.5l-11.2-3.9l-0.1,0.4
					L84.9,17L84.9,17L84.9,17z M45.5,41c0.2,1.3,3.5,2.7,5.7,2.1L45.5,41z M77.2,60.3h-0.3V75h0.3V60.3z M53.8,31.6h-0.5v8.2h0.5
					V31.6z M17.1,52.5h0.3v-9.9h-0.3V52.5z M95.6,81.9l-3.7-1.3L91.7,81l1.2,2.4C92.8,83.4,95.6,81.9,95.6,81.9z M67.5,36.1h-0.3
					v8.3h0.3C67.5,44.4,67.5,36.1,67.5,36.1z M49.2,4.7l0.1-0.4l-9.9-3.1l-0.1,0.4C39.3,1.5,49.2,4.7,49.2,4.7z M80.7,39.9l-0.4,0
					c0.2,2.8,0.4,5.5,0.6,8.3l0.6,0C81.4,48.1,80.7,39.9,80.7,39.9z M22.6,55.9l0.2-0.8L18,53.6l-0.3,0.9L22.6,55.9L22.6,55.9
					L22.6,55.9z M79.5,49.3c0.7-0.3,0.7-3.2,0-8.6V49.3z M71.6,45.5l-2.7-3.7C68.5,44.1,68.7,45.7,71.6,45.5z M39.1,35.8h-3.2
					c0.2,0.5,0.3,1.2,0.7,1.3C37.4,37.5,38.5,37.8,39.1,35.8z M42,35.1l0.3,0v-6.4H42V35.1z M81,58.5h-0.2v11.9H81V58.5z M89,28.7
					v3.7C90.6,31.2,90.5,29.5,89,28.7z M33,12.3c1.3-0.3,2.8,0.2,1.8-1.8c-0.2-0.4,0.3-1.1,0.6-1.6c0.2-0.5,0.6-0.9,0.8-1.4
					l-0.6-0.3C35.7,7.2,33,12.3,33,12.3z M46.3,14.4l-1.9,0.1l-1.7,3.4l0.3,0.4L46.3,14.4C46.3,14.4,46.3,14.4,46.3,14.4z
					 M79.9,66.6h0.3v-8h-0.3V66.6z M29.1,55.1l-4,1.2l0,0.4l3.7,0.4L29.1,55.1z M82.6,47l0.3,0v-8.9h-0.3V47z M71.3,59.1l0.2-0.7
					l-5.1-1.6l-0.2,0.8L71.3,59.1L71.3,59.1z M31.2,61.2l-0.1,0.5c2.5,0.4,5,0.9,7.6,1.3l0.1-0.4L31.2,61.2z M97.2,39.7l0.2,0V29.3
					h-0.2V39.7z M92,79.5l-2.8-2C89.1,80,89.7,80.4,92,79.5z M89.5,64.6l0.3,0v-9.7h-0.3V64.6z M78.9,69.2L78.9,69.2l0.1-9.5h-0.1
					V69.2z M96.8,30.4l-0.2,0.1v9.3h0.2V30.4z M86.2,73.8l-0.9-0.1l-0.4,3.8l1,0.1L86.2,73.8L86.2,73.8L86.2,73.8z M23.9,34
					l-0.2-0.4l-6.5,3.1l0.2,0.4L23.9,34L23.9,34L23.9,34z M39.5,36.5l-0.4,1c0.8,0.3,1.7,0.7,2.5,0.9c0,0,0.3-0.6,0.4-0.9L39.5,36.5
					z M64.2,72.5l0.2-0.6l-5.3-1.6L59,71L64.2,72.5L64.2,72.5L64.2,72.5z M43.4,36.3l-0.3,0V41h0.3C43.4,41,43.4,36.3,43.4,36.3z
					 M12.4,57.4l1.9-2.3l-2.4-0.4C11.8,54.7,12.4,57.4,12.4,57.4z M98.8,77.3l0.5-0.7c-1.3-0.7-2.6-1.4-3.9-2.2l-0.3,0.5
					C95.1,74.9,98.8,77.3,98.8,77.3z"/>
				<path class="st1" d="M71.8,86.8l-2.6,0.5l5.6,1v0.6l-1.4,0.5c0.8,5.3,0.6,10.7,2.6,15.7c-0.3-2.2-0.5-4.5-0.8-6.7l0.4,0
					l1.3,10.1l2.6-0.7l0.3,2.6l0.4,0.4l0.3-1.2l0.5,0.2c-1,2.2-1.5,4.3,1.6,6c-2.7,0.9-4.7,1.5-6.7,2.2c-0.3,0.1-0.7,0.2-0.9,0.1
					c-2.4-1.1-4.9-0.5-7.4-0.6c-3-0.1-6,0.3-9,0.5c-0.4,0-0.7-0.2-1.2-0.3v-8.7c3.1-0.6,3.2-0.8,3.4-3.9c0.1-1.6,0.3-3.1,0.8-4.7
					v4.5h0.2c0.2-2,0.5-4,0.5-6c0-2.3,0.3-4.5,1.2-6.6c0.2-0.5-0.1-1.3-0.2-2.3c0.8-0.3,1.8-0.6,2.7-1c0.8-0.3,1.9-0.5,2.3-1.1
					C69.2,86.4,70.5,86.6,71.8,86.8L71.8,86.8L71.8,86.8z M77.8,114.3c-2.1-0.3-4.5,0-6-2.6l-0.7,3.7l-1.3-0.5
					c-0.1,1.7,0.5,2.2,2,1.8c0.7-0.2,1.1-0.8,2.2-0.2s2.8-0.1,4.3-0.2l0.1-0.5c-2.2-0.3-4.3-0.6-6.5-0.9l0.1-0.6
					c2.2,0.3,4.4,0.6,6.5,0.9l0.1-0.4C78.3,114.7,78,114.5,77.8,114.3l1.8-0.6l-2-4.3L77.8,114.3L77.8,114.3L77.8,114.3z
					 M62.8,107.3c1.1-4.1,0.7-8.3,0.5-12.4h-0.5V107.3l-0.9,2.8h5.3l0,0.5l-0.9,0.4c0.5,0.1,0.9,0.2,1.3,0.3c0.1,0,0.2,0.1,0.4,0.1
					l0.2-0.8l5-1.1l-0.1-0.6l-2.8-1.2c0.4-0.7,1-1.4,1.1-2.1c0.2-1.1-0.1-2.2-0.1-3.4c0-2.8,0.1-5.6,0.2-8.4
					c0.1-0.6,0.2-1.8,0.4-1.8c1.5-0.2,0.8-1.1,0.7-1.9c-0.1-0.6-0.3-1.2-0.4-1.4l-2.6,1.1l-0.2-0.4l1.8-0.8L71,88.1l-2.2,0.4
					l-0.3,2.7c2.3-0.5,2.5,1.2,2.8,2.7c-0.6-0.3-1.1-1-1.6-1c-1.5,0-2.9,0.2-4.4,0.4c-0.5,0.1-1,0.5-1.5,0.8c0.5,0.2,1,0.6,1.6,0.6
					c1.3,0,2.6-0.1,3.9-0.2v0.5l-5,0.3l0,0.4l4.5-0.2v0.2l-4.5,0.6l0,0.3l2.2,0.2l-2.4,0.4l0,0.7c1.8,0.2,3.5,0.4,5.3,0.6l0,0.2
					l-4.6-0.3v0.5l1.4,0.1c-0.5,0.3-1.5,0.6-1.6,1.1c-0.2,1-0.1,2.1-0.1,3.2l1.5-0.9c0.9,0.5,1.9,0.9,2.8,1.4
					c-1.6,0.6-3.8-1.2-4.2,1.7c1.5-0.3,3-0.6,4.5-0.8c0.2,1,0.3,1.7,0.4,2.4c0.1,0.7,0.2,1.4,0.2,1.7c-0.6,0.7-1,1.3-1.4,1.9
					l0.3-2.9c-1.1-0.3-3.1,0.4-3.6-2.1l-0.4,0.5l-0.3,3l-0.3,0l-0.2-2.8C63.3,106.7,63,107,62.8,107.3L62.8,107.3L62.8,107.3z
					 M62,116.5c1.6,0,3.1,0.1,4.5,0c2.7-0.2,3.5-1.6,2.6-3.9l-2.3,0.5l0.4-1.5c-0.7,0.5-1.1,0.8-1.6,1c-0.4,0.2-1,0.2-1.8,0.4l1.3-2
					c-4.2-0.4-4.8-0.3-4.9,1.2l2.6,0.2v0.4h-2.9v4.1l1.7-0.3l0.1-2.6h0.3L62,116.5L62,116.5L62,116.5z M75.6,108.6
					c-1-5.8-1.9-10.9-2.8-16c-0.6,0.5-0.9,1.1-0.9,1.7c0,2.7-0.1,5.4,0.3,8c0.3,1.7-1.6,4.1,1.4,5.1C74.3,107.6,74.8,108,75.6,108.6
					L75.6,108.6L75.6,108.6z M57.9,109.7v4.8l0.5,0.1l0.8-5L57.9,109.7L57.9,109.7L57.9,109.7z M74.6,109.1l-1,0.4l1.3,3l0.6-0.2
					L74.6,109.1C74.6,109.1,74.6,109.1,74.6,109.1z"/>
				<path class="st1" d="M111.8,90.4c1.1-2,3-2,4.9-1.8l0-0.1l-3.3,1.6c1,0.5,1.6,0.9,2.3,1.2c0.8,0.3,1.6,0.4,2.4,0.7
					c1,0.4,1.8,1.3,2.9-0.1c0.6-0.7,1.7-1,2.6-1.4l0,0.1c1.2,0.2,2.5,0.3,3.8,0.5c1.3,0.2,2,0.9,2.1,2.3c0,1.3,0,2.4-1.5,2.9
					c-1.6,0.6-3.2,1.3-4.8,1.9c-0.6,0.2-1.2,0.2-1.9-0.2l3-1.7c-3.4,0.4-5.6,3.1-8.6,2.6l0.4-2.2l-0.4-0.1l-1.3,1.5l-0.5-1.8
					l-5.1-2.4l-0.3,0.3l0.6,0.9c-0.7-0.4-1.3-0.8-1.9-1.3c-0.2-0.2-0.1-0.9,0.1-1C108.7,92,110.3,91.2,111.8,90.4
					c-1,0.9-2.1,1.8-3.5,3l5.6,1.3l0.1-0.3l-3.2-1.3c1.8-1.8,3.6-0.4,5.3,0c-1.1-0.9-2.2-1.8-3.3-2.7
					C112.5,90.2,112.1,90.3,111.8,90.4L111.8,90.4L111.8,90.4L111.8,90.4z M127.4,93.2l-0.2-0.5c-0.5,0.2-1,0.3-1.5,0.4
					c-3.5,0.7-6.4,3.8-10.5,2.4c1.2,0.7,2.6,1.7,3.6,1.4C121.7,96,124.5,94.5,127.4,93.2L127.4,93.2L127.4,93.2z M120.5,93.3
					l0.3,0.7c0.9-0.2,1.8-0.4,2.7-0.8c0.2-0.1,0.3-0.7,0.4-1c-0.4-0.1-0.8-0.4-1.1-0.3C122,92.2,121.2,92.8,120.5,93.3z"/>
				<path class="st1" d="M65.7,131.1c-0.7,1.9-1.9,1.7-3.2,1.1c-5.8-2.5-11.7-5-17.5-7.6c-0.8-0.3-1.3-1.2-2.2-2.1l3.3-1l-2.5-2.5
					l0.1,1.1l-0.4,0.1c-1-4.7-2.1-9.4-3.1-14.3l3.6-0.7l4.1,18.3L65.7,131.1z M45.2,117.3l0.4-0.2L43,106.4l-0.5,0.1
					c-1.1,4.6,0.3,8.8,2.1,12.9l0.7-0.1l-1.4-3.3l0.5-0.2L45.2,117.3L45.2,117.3L45.2,117.3z"/>
				<path class="st1" d="M105.9,113.6c-0.1,0.2-0.1,0.4-0.3,0.5c-1.8,1.1-3.7,2.2-5.5,3.3l-0.4-2l-1,0.4c-0.8-0.5-1.5-1.1-2.3-1.5
					c-2.3-1-4.3,0.3-6.4,0.9c-1.7,0.5-3.3,1.4-5.2,0.5c-0.3-0.1-1.1,0.6-1.6,1c-0.1-0.4-0.3-0.9-0.2-1.3c0.1-0.4,0.3-1.1,0.6-1.2
					c1.5-0.2,2.3-0.9,2.3-2.4c0-1.2,0.3-1.9,1.6-2.2c0.6-0.2,1.2-0.5,1.7-0.9c1.5-1.2,1.4-1.2,3.5,0.1c-1,0.6-3.2-0.7-3.1,1.6
					l-2.3-0.4c-0.1,1.5-0.3,2.8-0.2,4.1c0,0.4,1.1,1.2,1.5,1.1c1.3-0.3,2.6-1,4.1-1.5c-1-0.8-2.5-1.3-1.9-2.8c0.2-0.5,1.1-0.8,2-0.9
					l-0.8,0.9c2.3,2.5,6.5,3.3,9.4,1.8c-0.3-0.2-0.5-0.3-0.8-0.4c-0.3-0.1-0.6-0.3-1.1-0.5c1.6,0.2,2.8,0.3,4.1,0.5
					c1.2,0.2,2.3,0.6,3.5,0.8l-0.2,0.7C106.6,113.6,106.2,113.6,105.9,113.6c-0.9,0-1.7-2-2.5,0.1c0,0.1-0.6,0.1-0.7,0
					c-1.4-1.5-1.8,0.2-2.9,0.9c0.8,0.3,1.4,0.7,1.8,0.6C103.1,114.8,104.5,114.1,105.9,113.6L105.9,113.6L105.9,113.6z"/>
				<path class="st1" d="M140.1,76.4c-1.4,0.2-2.7,0.4-4.1,0.5c-1.8,0.2-3.6,0.3-5.5,0.3c-0.6,0-1.3-0.4-2.3-0.8l1.3-0.4l-3-0.3
					l0.1-0.2h17.3l0,0.5C142.6,76.2,141.3,76.3,140.1,76.4c-2.2-0.2-4.4-0.5-6.6-0.7l-0.1,0.7L140.1,76.4L140.1,76.4z"/>
				<path class="st1" d="M134.3,81.3l3.7,1.4c0,0.2,0.1,0.9,0.1,1.6c0.1,0.5,0.1,0.9,0.2,1.4c-0.4-0.3-0.8-0.7-1.2-1
					c-1.1-0.6-2.3-1-3.8-1.7l2.8-0.2L134.3,81.3L134.3,81.3L134.3,81.3z"/>
				<path class="st1" d="M106,63.4L106,63.4c-0.1,0.1-0.3,0.3-0.4,0.3c-2.2-1-4.3-2.1-6.4-3.2l-0.1,0c1.1,0.2,2.2,0.4,3.5,0.6
					l-0.6-1.1c1.5,1.1,2.6,2.8,4.8,1.4L106,63.4L106,63.4L106,63.4z"/>
				<path class="st1" d="M83.1,121.2l-1.8-1.9l-2.6,0.3l-0.2-0.8c1.1-0.2,2.2-0.7,3.2-0.5c1,0.2,1.8,1,3,1.8L83.1,121.2L83.1,121.2
					L83.1,121.2L83.1,121.2z"/>
				<path class="st1" d="M126.8,80.8l4.3-2C130.3,81.2,128.9,81.9,126.8,80.8z"/>
				<path class="st1" d="M141.5,85.9c-3-0.5-1.7-3.3-3.2-4.4l0.6-0.3c0.4,0.8,0.9,1.5,1.4,2.2C140.6,84.2,141,85,141.5,85.9z"/>
				<path class="st1" d="M91.4,89.4c-0.7-1.5,0.9-1.8,1.5-1.9c1.3-0.3,2.7-0.1,4-0.1c-1.4,0.5-2.8,1.1-4.2,1.6
					C92.2,89.1,91.8,89.2,91.4,89.4C91.4,89.4,91.4,89.4,91.4,89.4z"/>
				<path class="st1" d="M116.9,82.9l-3.6,1.3c0.4-1.2,1.5-1.8,3.3-1.8L116.9,82.9L116.9,82.9L116.9,82.9z"/>
				<path class="st1" d="M83.1,121.2c-1.4,1.4-2.9,1-4.2,0.2l0-0.6L83.1,121.2L83.1,121.2L83.1,121.2L83.1,121.2z"/>
				<path class="st1" d="M2.9,59.2l0.8,1c-1.2,1-2.3,2.2-3.7,1.2C0.9,60.7,1.9,59.9,2.9,59.2L2.9,59.2L2.9,59.2z"/>
				<path class="st1" d="M116.8,88.6c0.8-0.7,1.6-0.7,2.6-0.1c1.3,0.8,2.9,1.4,4.3,2l0-0.1c-1-0.3-2.1-0.5-3.1-0.8
					C119.3,89.3,118,88.9,116.8,88.6C116.7,88.5,116.8,88.6,116.8,88.6z"/>
				<path class="st1" d="M32.4,57.8c0.1-2,0.3-4,0.3-6c0-1.5-0.1-2.9-0.1-4.4c0-0.4,0.1-1,0.4-1.1c1-0.6,4.2,1.3,4.2,2.5
					c0.1,2.3,0.2,4.7,0.2,7c0,1.1,0.2,2.6-1.5,2.7c-1.8,0.1-2.7-0.8-2.4-2.7c0-0.3,0-0.6-0.1-1.2l-0.3,3.2
					C33.1,57.9,32.4,57.8,32.4,57.8z M36.5,55c-1.7-0.3-1.4,0.9-1.3,1.8c0,0.4,0.4,0.8,0.6,1.1c0.3-0.6,0.6-1.2,0.8-1.8
					C36.7,55.7,36.5,55.3,36.5,55z"/>
				<path class="st1" d="M43.1,7.3l-0.5-1.4l-0.7,0.9l-0.8-0.6c1-1.4,2.1-2.2,4.1-0.7C43.4,5.1,42.7,5.8,43.1,7.3L43.1,7.3L43.1,7.3
					z"/>
				<path class="st1" d="M70.2,102.9v-7.6C70.8,100.5,70.8,102.3,70.2,102.9z"/>
			</g>
		</g>
	</g>
</g>
</svg>
