<?xml version="1.0" encoding="UTF-8"?><svg id="b" xmlns="http://www.w3.org/2000/svg" viewBox="0 0 155.55 125.69"><g id="c"><g id="d"><g id="e"><g><path d="M92.15,10.34c.57,.07,1.22-.02,1.68,.24,.55,.31,1.18,.87,1.32,1.43,.1,.4-.55,.99-1.08,1.84,.69,2.08,3.61,.37,5.01,2.36l1.27-2.62c3.33,1.21,6.82,2.48,10.32,3.74,.92,.33,1.92,.52,2.78,.97,3.03,1.57,6.06,3.16,9.01,4.87,5.35,3.11,10.64,6.33,15.95,9.49,2.06,1.22,2.15,2.57,.33,4.01-.32,.25-.53,.84-.53,1.27-.03,7.79,0,15.59-.04,23.38,0,1.22,.7,1.48,1.57,1.78,3.56,1.21,7.12,2.41,10.67,3.65,1.94,.68,1.67,.85,.62,2.47-1.05,1.64-2.81,2.9-2.54,5.49,.47,4.49,.28,9.05,.4,13.57,.07,2.49,.37,2.8,2.83,2.57,1.71-.16,2.69,.26,2.75,2.2,.02,.53,.72,1.04,1.08,1.53l-1.89,.17,1.23,1.18c-.96,1.68-2.7,2.03-4.35,2.13-1.55,.1-3.13-.32-4.77-.17l1.57,.79c-1.5,.18-3.08,.16-4.51,.61-1.71,.54-2.15,2.14-2.2,3.62l4.04,1.7c-1.38,1.19-1.58,2.13-.04,2.93-2.74,.83-5.27,1.56-7.78,2.38-1.64,.54-3.03,.23-4.27-.93,1.28-.02,2.66,.24,3.85-.11,1.98-.59,3.84-1.58,5.78-2.41-.15-1.52-1.13-1.79-2.43-1.6-.6,.09-1.24,.09-1.8,.29-2.17,.75-4.32,1.57-6.48,2.36l-.08,.67,1.23,.86c-.66-.2-1.32-.4-1.97-.61-1.01-.33-1.91-.77-2.98,.15-.57,.49-1.66,.38-2.5,.53l1.46-2.29c-.97-.47-1.63-.78-2.55-1.23,.07,1,.14,1.85,.19,2.63l-2.07,1.33-1.71-.52-.25,.42c1.22,.76,3.18,1.11,1.75,3.34l1.95-.32,.07,.24c-1.39,.66-2.79,1.33-4.33,2.06l.95,.49c-.35,.18-.47,.3-.55,.28-1.43-.46-4.2,.4-5.11,1.6-1.27,1.67-4.89,2.47-6.76,1.51-1.22-.63-2.46-1.21-3.99-1.97v-25.31l-1.98-.46v8.14l.58,.02,.28-.82c.04,.1,.11,.18,.1,.25-.23,1.52-.43,3.05-.74,4.56-.05,.23-.59,.35-.92,.53,2.19,1.76,.22,4.2,.74,6.31-2.8-.59-1.28-3.26-1.96-4.71-2.31,2.02-1.88,3.93-.09,5.93l.36-1.23,.89,1.13,.79-1.16,.31,2.35h.49v-7.56h.47v12.4l-.27,.02-.2-2.68-.44-.04-.28,1.83-.45,.17c-.2-.59-.35-1.21-.63-1.76-.27-.52-.69-.95-1.04-1.43-.23,.48-.55,.93-.68,1.44-.12,.48-.02,1-.45,1.5v-3.47h-.34l-.12,2.65c-.67,.26-1.25,.62-1.85,.67-.62,.05-1.66-.01-1.82-.35-.8-1.72-2.23-1.53-3.68-1.54-.82,0-1.63-.22-2.45-.34,1.08-.48,2.32-.66,2.73-1.34,.28-.46-.59-1.63-.9-2.37l1.07,.44,.32-.55c-2.89-1.77-5.77-3.55-9.19-5.65,.19,2.7,.33,4.76,.49,6.96l-1.66-.45c.26-.29,.76-.58,.75-.85-.07-1.86-.17-3.74-.46-5.57-.1-.61-.79-1.13-1.21-1.7-.51,2.83-1.16,5.47,.95,7.64,.09,.1,.02,.36,.03,.54-1.78-.14-3.6-.1-5.33-.49-1.2-.27-2.27-1.14-3.34-1.71,1.67-.8,1.08-1.91-.06-3.04,.53,.13,1.06,.25,1.71,.41,.11-1.41,.73-2.71-.47-3.86l-1.24,3.46c-1.2-.35-2.47-.56-3.58-1.1-.51-.25-.69-1.16-.97-1.69-1.15,1.78-.32,3.1,2.74,3.34-2.6,.59-4.79,1.08-6.98,1.58v.53l3.67,.29,.06,.44-6.75,.93-.12-.54c.19-.08,.38-.23,.57-.22,1.1,.04,2.15-.09,2.14-1.48,0-1.03-1.88-2.14-2.96-1.81-1.14,.35-2.25,.79-3.54,.83,.89-.48,1.78-.96,2.67-1.43,1.69-.89,2.03-2.26,1.01-4.12,.69-.58,1.38-1.16,2.27-1.91l-2.22-.76v2.72l-.44,1.54-1.93-3.47c-2.3,3.18-4.27,3.95-7.47,3.55,.21-.71,.45-1.45,.65-2.19,.26-.93,.57-1.86,.73-2.8,.16-.95,.16-1.93,.21-2.76l3.31-3.06-3.16-1.33c-.46,1.65-1.99,3.05-.99,5.17-.92,.09-1.89,.24-2.87,.26-2.75,.08-3.38-.59-3.4-3.35,0-1.2,.45-2.67-1.25-3.17-.29-.09-.74,.37-1.12,.58l.06-.05-1.66-2.14-1.58,1.72c-.22-1.77-.52-3.3-.52-4.84,0-.41,.88-.95,1.45-1.17,.43-.16,1.03,.09,2.03,.23-3.18-3.42-1.68-6.05,.72-8.52,.61,1.82-.95,2.54-2.29,3.67l2.5,1.49c.23-1.56,.51-2.72,.55-3.89,.06-1.4-.11-2.8-.14-4.2-.03-1.44-.61-2.36-2.13-2.63-.8-.14-1.55-.53-2.14-.74-.89-2.71,.56-3.96,2.68-4.74,1.36-.5,1.69-1.4,1.68-2.79-.05-5.35,.1-10.71,.04-16.06-.05-4.68-.27-9.36-.41-14.05,.89,.18,1.78,.36,2.81,.57,.02-.11,.02-.34,.12-.52,.39-.73,1.76-1.34,.53-2.3-1.26-.99-2.07,.12-2.78,.99-.3,.37-.42,.88-.62,1.33l-.61-1.86-1.24,.89-.41-.36c1.5-2.38,2.92-4.81,4.51-7.12,1.78-2.58,3.8-4.99,5.57-7.59,2.47-3.63,4.72-7.4,7.22-11.01,1.04-1.51,2.46-2.75,4.03-4.48-.36,1.16-.57,1.84-.78,2.53l.47,.24,1.47-2.09c1.34,.22,2.89,.45,4.41,.76,.33,.07,.59,.46,.88,.7,.39,.31,.75,.82,1.17,.89,1.58,.25,3.14,.45,4.04,2.01-1.51-.26-2.47,.61-3.69,1.47,2.33,1.33,2.69-.66,3.64-1.52,.91-.13,1.37,.08,1.38,.65,1.77,.27,3.5,.45,5.2,.81,1.71,.36,3.39,.86,3.47,3.47,.9-2.07,1.93-2.22,3.2-.97-1.19-.52-1.55,.28-1.57,1.16-.01,.9,.44,1.35,1.27,.5,.3,.69,.7,1.09,1.43,.47l1.92,3.55v-2.36l1.16,1.02,.47-.19c-.23-.92-.47-1.83-.7-2.75h0Zm2.13,18.16c-.79,.04-1.65-.1-2.33,.19-.27,.12-.13,1.18-.16,1.46l2.52-1.71,1.13,1.31c.74-.7,1.48-1.39,2.22-2.09l-.42-.75-1.96,.49c.54,1.16-.57,.8-1,1.09h0Zm-15.18-13.57c1.58,.96,2.87,.59,3.97-.84-1.97-.99-2.75-.8-3.92,.89l-1.75-.25v2.22c1.14-.33,2.36-.38,1.69-2.02h0Zm-23.5,4.68l2.49-3.27c-.92-.08-1.41,.09-1.86,.34-.44,.25-1.19,.57-1.19,.86,0,.68,.38,1.35,.61,2.03l-1.5,1.64c1.53,1.55,1.94,1.4,3.27-1.21-.64-.13-1.23-.25-1.83-.38h0Zm16.16,78.56v-2.45l-.52-.14c-.67,1.04-1.33,2.09-2,3.13l.32,.48,2.26-1.09c.31,.14,.7,.49,.91,.4,.75-.33,1.43-.81,2.16-1.24-.19-.36-.38-.66-.52-.98-.14-.33-.23-.68-.34-1.03-1.09,.51-1.85,1.49-2.26,2.92h-.01ZM99.02,31.94l-2.96-1.24,.22,2.49c.69-.31,1.39-.62,2.08-.93,.22-.1,.44-.21,.67-.32l-.69,1.85,1.54,.67c.47-.86,.94-1.59,1.27-2.39,.13-.31-.04-.75-.07-1.14-.44,.05-.92,0-1.3,.18-.31,.14-.51,.53-.76,.81v.02Zm2.75,7.76l1.47,.54c-.12-.49-.18-.76-.17-.71l2.47-1.49c-2.68-1.3-3.47-.83-3.7,1.74l-3.17,3.48,2.36,.94c.1-.85,.09-1.51,.29-2.11,.1-.31,.58-.49,.89-.74,.03,.04,.06,.1,.1,.12,.02,0,.08-.04,.26-.15l-.8-1.62Zm-9.39,67.05c-2.22-.3-3.62-1.51-3.87-3.96-1.23,3.61-.26,5.14,2.8,4.88,.36-.03,.68-.62,1-.96l.78-2.25-1.45,.17c-.18-1.01-.33-1.85-.51-2.9-2.32,1.83-2.32,2.82-.33,4.02,.53,.32,1.05,.67,1.58,1Zm6.51-69.79l2.29,1.62,1.25-1.86c-1.39-1.26-2.51-.66-3.6,.28l.54-1.56c-2.13-1-2.52-.77-2.87,1.53-.04,.24-.26,.48-.45,.65-.51,.45-1.06,.87-2.01,1.64l3.8-.24-.69-1.7c.66-.13,1.19-.23,1.74-.35h0Zm-25.87-5.26c-.25-.85-.49-1.71-.87-3l-1.04,1.53,1.35,3.05,.59-1.66c.55,2.7,1.1,5.41,1.65,8.11l.27-.11v-7.33c.61,.65,1.15,1.2,1.89,.05,.36-.55,1.09-.85,1.51-1.38,.68-.84,1.96-2.13,1.72-2.58-.51-.97-1.74-1.65-2.81-2.22-.72-.39-1.66-.39-2.66-.6-.06,.33-.21,.74-.18,1.13,.16,1.88,.37,3.76,.56,5.63l-.9-1.1c-.35,.14-.72,.3-1.1,.46l.02,.02h0Zm12.98-13.68l-1.4-.77c-.36,1.68-.67,3.12-1.04,4.85,.96,.17,1.88,.4,2.81,.42,.18,0,.38-.84,.57-1.3l-2.34-.88,1.82-1.36c-.16-.35-.32-.68-.48-1.02,1.04,.31,2.23,1.39,2.97-.77l-2.51-.96-.4,1.8h0Zm-22.37,75.94l-.69-3.38-2.67,2.03,1.31,.55-2.44,3.32,3.71,1.96-.2-.72,.7-1c2.05,.33,1.8-1.86,2.84-2.67,.23-.18-.11-1.1-.17-1.68-.05-.52-.3-1.2-.07-1.54,.52-.75,1.67-1.4,.68-2.3-.28-.25-1.6,.63-2.44,1-.11,.05-.2,.16-.3,.23-1.04,.78-.48,1.76,.22,1.93,1.01,.24,1.18,.85,.96,1.45-.14,.39-.96,.53-1.47,.77l.05,.04h-.02Zm56.82-43.67c1.12-1.01,.94-2.13,.41-3.28-1.72-.02-1.75,1.19-1.66,2.22,.03,.37,.85,.67,1.31,1.01-.38,.52-1.06,1.02-1.11,1.57-.25,3.06-.35,6.13-.5,9.32,1.49-.15,2.08-.75,2.07-2.01-.03-2.49,.02-4.98-.03-7.46,0-.46-.32-.91-.49-1.37Zm-35.28,28.48c.17,.15,.44,.45,.5,.41,1.99-1.25,3.95-2.53,6.03-3.88-3.87-1.78-6.73-1.41-8.75,1l-5.15,2.55,.16,.57c1.06,.38,2.13,.77,3.19,1.15,2.55,.9,2.72,.82,4.02-1.8Zm19.54,7.11l7.7-1.55c-.25-.7-.43-.88-.65-.99-1.97-.99-4-1.87-5.9-2.97-1.68-.98-3.2-2.24-4.85-3.27-.36-.22-.98-.02-1.48,0,.04,.45-.07,1.01,.15,1.35,1.03,1.58,2.18,3.1,3.24,4.66,.62,.91,1.17,1.86,1.75,2.79h.05v-.02h0Zm22.73-33.32v-3.54h-.97c0,1.03-.05,2.06,.05,3.07,.01,.16,.64,.27,.98,.41-1.38,1.46-1.36,2.87-.07,4.43,.76,.92,.74,1.83-.68,2.3-1.27,.41-2.52,.91-3.71,1.5-.45,.22-.71,.81-1.05,1.24,.58,.31,1.22,.95,1.73,.86,3.82-.69,5.9-3.03,6.06-7.06,.16-4.12,.04-8.25,.04-12.63l-3.41,1.75c.06,1.07-.33,2.76,.26,3.23,1.73,1.4,1.07,2.88,.79,4.44h-.02Zm6.91-16.54c.33,2.04,.88,4.07,.93,6.11,.07,2.72-.28,5.44-.39,8.17-.06,1.56-1.02,2.55-2.57,2.46-.49-.03-.98-.15-1.66-.26v7.15c2.13-.68,4.14-1.25,6.08-2.01,.41-.16,.79-1,.79-1.52-.05-3.64,1.18-7.58-2.48-10.45l2.49,.22v-9.35l-.73,1.25-.61-2.72c-.72,.4-1.25,.7-1.79,1l-4.16,.86v4.58c4.03-.93,4.35-1.34,4.15-5.12,0-.13-.03-.25-.04-.38h0Zm-31.46,30.58c.4-.76,1.12-1.52,1.15-2.29,.13-3.42,.05-6.86,.05-10.26l-.17,1.55h-.14l-.1-1.92h-1.77l-.28-.39c1.37-.82,3.25-1.28,2.73-3.38l.33,1.2c2.31-.6,2.6-1.39,1.67-4.95l-1.97,1.52c-.65,.03-1.29-.12-1.56,.13-.44,.4-.95,1.14-.86,1.61,.3,1.49-.45,2.35-1.62,2.54-1.57,.26-1.95,1.14-1.99,2.46,0,.09-.15,.17-.24,.27l-.79-.5v14.3h.27l.69-3,.39,.04v2.46l4.26-1.52c-1.33,.71-2.6,1.6-4.01,2.1-2.11,.74-2.19,2.1-1.59,4.08,2.3-1.06,4.5-2.08,6.98-3.22-.52-1.03-.97-1.92-1.42-2.82h-.01Zm-49.73-28.61l2.37,.73c-1.21-2.51-3.61-1.44-4.99-2.8-.64,2.17,1.11,1.57,1.81,2.07-.91-.02-2.28,.34-2.65-.11-1.12-1.36-1.59-.43-1.96-.08l-2.73-2.38c0,4.26-.09,7.98,.05,11.7,.06,1.46,1,2.52,2.9,2.73v-10.32c1.84,.55,3.39,1.15,4.98,1.46,1.31,.26,1.57,.92,1.56,2.11-.05,5.29-.02,10.58-.02,15.87l.36,.22,1.26-2.46,.19,1.17,1.21-1.12,1.49,1.58c-1.47,1.02-.05,1.21,.48,1.4,3.87,1.42,7.75,2.82,11.66,4.11,1.14,.37,2.4,.37,3.6,.54l.2-.65c-2.29,.05-2.97-1.07-2.92-3.18,.08-3.24-.12-6.49-.26-9.74-.02-.58-.33-1.14-.51-1.72l-.89,.16v13.28l-10.45-3.93c.28-.38,.79-.75,.81-1.15,.1-2.22,.09-4.45,.1-6.68v-6.53c6.17,2.01,12.09,3.89,17.96,5.93,.36,.13,.39,1.4,.44,2.16,.04,.58-.24,1.18-.18,1.76,.09,.85,.47,1.68,.51,2.53,.09,1.78-.03,3.57,.08,5.35,.05,.81,.45,1.59,.69,2.39,.61-.48,1.22-.96,1.84-1.43,.07-.05,.2,0,.44,0l-.85,1.6c1.09,1.09,1.99,1.14,2.89-.1,.36-.49,.91-.85,1.37-1.26l-4.43,5.64c1.34,.48,2.55,1.03,3.81,1.32,.53,.12,1.42-.1,1.74-.49,1.85-2.27,.82-4.88,.97-7.36l-.53-.05-.21,4.07c-.43-.85-.36-1.67-.48-2.46-.04-.24-.62-.4-.95-.6,.38-1.52,2.82-1.75,2.25-4.01-.38-1.49-.07-3.15-.07-4.74h-.56v6.01c-.42-2.2-.46-4.4-.36-6.59,0-.2,1.01-.6,1.44-.49,1.15,.31,2.21,1.07,3.36,1.24,1.86,.27,2.14,1.28,2.13,2.91-.01,1.72-.67,3.63,1.05,5.08,.33,.28,.45,1.48,.22,1.65-2.03,1.48-.82,3.55-1.04,5.32-.05,.41,.35,.88,.54,1.33,.6-.53,.83-.99,.85-1.45,.16-4.24,.26-8.48,.44-12.71,.07-1.74-.41-2.79-2.33-3.29-2.49-.64-4.86-1.71-7.29-2.59,.61-.26,1.07-.08,1.55,0,.15,.02,.4-.24,.49-.43,.06-.12-.04-.45-.15-.5-1.22-.49-2.44-1.02-3.7-1.39-1.59-.47-3.21-.81-5.03-1.26-.34,.05-1.33,.49-1.65,.19-2.67-2.44-5.44-3.49-9.46-3.39-.26,0-.57-.32-.79-.56-.42-.46-.69-1.21-1.19-1.4-2.04-.77-4.12-1.57-6.25-1.97-1.3-.25-2.72,.2-3.98,.32l-3.28-2.57,.05,.02h0Zm49.52,8.23c3.54-1.52,6.56-2.74,9.49-4.12,.52-.24,1.02-1.12,1.04-1.71,.1-3.11,.05-6.23,.05-9.27,2.09-.73,4.09-1.4,6.05-2.14,.33-.13,.7-.55,.78-.9,.75-3,.07-4.1-3.02-4.88l-.2,2.82-.92-1.17c-4.39,7.06-8.69,13.97-13.29,21.36h.02Zm17.96-21.7c0,1.53-.43,2.96,.09,3.54,1.25,1.39,.75,2.86,.8,4.3,.08,2.08,.02,4.17,.02,6.36,3.63-1.29,7.31-2.52,10.92-3.92,1.25-.48,1.07-1.76,.38-2.52-.65-.71-1.76-1.51-2.6-1.44-1.74,.14-2.48-.6-3.17-1.99-.37-.75-1.18-1.33-1.97-.19l-.63-1.09-.23,1.64c.96-3.18-2.32-2.84-3.61-4.68h0Zm-56.46,38.94l.21-.6c-.8-.38-1.62-.73-2.41-1.14-2.11-1.12-4.11-1.65-5.79,.75-.27,.39-.82,.59-1.25,.85-2.62,1.6-5.24,3.2-8.1,4.95,2.34,.95,4.38,1.82,6.46,2.57,.44,.16,1.17,.02,1.55-.27,2.67-2.06,5.29-4.19,8.04-6.39l-4.74-1.89,.17-.53,5.85,1.71h.01Zm39.37,8.35c4.71,2.56,9.29,4.82,13.61,7.5,2.5,1.55,4.44,1.01,6.88-.45-4.83-2.59-9.49-4.95-14-7.57-2.25-1.31-4.16-1.09-6.49,.51h0Zm-47.92-.11c2.14,.75,3.92,1.42,5.73,1.98,.49,.15,1.28,.19,1.61-.09,2.5-2.11,4.91-4.32,7.56-6.68-1.62-.61-2.91-.98-4.1-1.57-1.3-.63-2.38-.57-3.49,.37-2.33,1.96-4.7,3.86-7.3,5.99h-.01Zm89.44,1.14c-2.15,.95-4.02,1.72-5.83,2.61-.34,.17-.67,.74-.69,1.15-.08,1.84-.1,3.69-.02,5.53,.02,.45,.4,1.14,.78,1.28,1.84,.67,3.73,1.19,5.76,1.8v-12.37h0Zm-74.93,3.87c2.48-2.47,4.73-4.7,7.02-6.97-2.08-.96-4.02-1.85-5.59-2.57-2.65,2.35-5.25,4.66-8.02,7.12,2.42,.89,4.57,1.68,6.6,2.42h-.01Zm33.1,11.3l.41-.35c-1.71-3.04-3.45-6.07-5.11-9.13-.86-1.58-2.06-1.52-3.07-.48-1.7,1.74-3.17,3.69-4.81,5.63,4.32,1.49,8.45,2.91,12.58,4.34h0Zm-9.22,12.49c-4.11-1.11-6.17-3.66-6.17-7.66,0-.96,.07-1.92-.02-2.87-.07-.81-.33-1.61-.5-2.41l-.53,.07v10.09c-2.55-.93-4.79-1.81-7.08-2.54-1.05-.34-1.35-.88-1.32-1.94,.07-2.42,.02-4.85-.01-7.27,0-.64-.14-1.28-.25-2.25-.41,.46-.62,.58-.62,.71-.08,3.38-.16,6.75-.14,10.13,0,.32,.55,.78,.95,.93,5.07,1.92,10.15,3.79,15.23,5.67,.57,.21,1.18,.33,1.84,.51v-13.14c-1.99,3.83-.87,7.91-1.37,11.98h0Zm-45.91-27.94l-.68-.19c-.26,.6-.74,1.2-.74,1.8,0,3.93,.19,7.85,.16,11.78-.02,2.64-.32,5.28-.46,7.92-.02,.4,.18,.8,.29,1.21l.47-.06,.14-3c.52,.22,.67,.46,.78,.72,.14,.33,.25,.66,.4,1.06,.48-.59,.62-.69,.62-.78-.3-6.82,.85-13.72-.96-20.45h-.02Zm86.55,1.09c-4.88-2.29-9.59-4.41-14.2-6.73-1.59-.8-2.88-1.15-4.5,.47,4.45,2.27,8.88,4.34,13.11,6.77,2.02,1.16,3.59,1.13,5.58-.51h0Zm-24.61-4.44c3.74,.5,5.51,4.09,9.1,4.16,.32,0,.64,.37,.95,.59,1.43,1,2.86,2,4.28,3.02,1.84,1.33,3.41,.76,5.02-.72-.47-.25-.84-.47-1.23-.67-4.64-2.31-9.31-4.56-13.91-6.95-1.35-.7-2.48-.83-4.21,.56h0Zm-10.77,4.97c.53,.35,1.02,.74,1.55,1.03,4.27,2.39,8.57,4.74,12.83,7.15,1.51,.86,2.46,.03,3.51-.78-4.38-2.6-8.72-5.04-12.9-7.74-1.87-1.2-3.34-1.23-4.99,.33h0Zm26.19-10.63l-4.49,1.58c3.9,2.08,7.83,3.99,11.57,6.22,2.05,1.23,4.46,1.66,6.66,.41-3.84-2-7.67-3.96-11.45-6.02-.78-.42-1.33-1.25-2.3-2.2h0Zm-42.12,8.37c-1.68-.62-3.08-1.17-4.51-1.65-.24-.08-.67,0-.85,.18-1.59,1.46-3.16,2.94-4.69,4.46-.12,.12,.13,.61,.2,.92l-1.82,1.08c.91,.48,1.6,.99,2.37,1.2,.67,.19,1.68,.35,2.12,0,2.36-1.88,4.59-3.92,7.18-6.19Zm25.92-22.46c2.85-1.11,5.68-2.19,8.49-3.32,.27-.11,.56-.55,.58-.86,.07-1.18,.03-2.37,.03-3.79-1.15,.47-2.02,.81-2.89,1.17-1.05,.45-2.37,.67-3.06,1.45-.57,.65-.41,1.95-.57,2.99-.05-.88-.1-1.74-.15-2.62-2.87,.57-3.21,1.28-2.42,4.98h-.01Zm-53.58,11.09l-.61-.62c-4.63,2.02-9.25,4.04-14.28,6.24,2.6,1.25,4.64,2.17,6.97,.45,1.73-1.27,3.7-2.21,5.44-3.47,.95-.69,1.65-1.72,2.47-2.6h0Zm40.74,15.14c-.82-1.18-1.74-.8-2.75-.22-2.95,1.72-6.38,2.81-8.36,6.81,1.55,.05,3.11,.59,3.83,.04,2.58-2.01,4.88-4.38,7.28-6.62h0Zm23.36-30.29c1.93-.75,3.61-1.3,5.19-2.06,2.22-1.06,2.53-2.04,1.71-4.75-2.28,.9-4.56,1.79-6.9,2.71v4.1Zm-7.37,6.35c-3.11,.87-4.34,4.87-3.03,8.62l1.71-1.46,.8,1.85-2.8,1.77,.14,.17,3.19-.78v-10.17h-.01Zm-44.73-16.4c.19,1.83-.04,3.79,1.89,4.7,2.59,1.22,5.29,2.2,7.97,3.21,.32,.12,.82-.24,1.23-.38-2.32-.83-4.16-1.21-5.1-3.81-.84-2.31-3.07-3.66-5.99-3.71h0Zm-11.16,59.52c-2.07,1.07-4.49,1.85-2.82,5.08l1.01-.31-.64,1.89,.66,.25c.84-1.92,1.68-3.84,2.53-5.76,.57-1.28,1.16-2.55,1.9-4.18l-.41-2.54c-1.39,1.95-2.63,3.7-3.88,5.44l.36,.34,1.29-.21Zm31.7-63.15c-1.1-1.9-2.13-2.69-3.95-1.94-1.04,.43-2.26,.37-3.34,.74-1.05,.36-2.02,.97-3.02,1.47,3.1,.83,2.28,3.51,3.32,5.28,.47-.81,1.03-1.73,.86-2.5-.18-.81-1.04-1.47-1.55-2.14,1.28-.29,2.88,1.81,4.22-.11l-2.15-1.36,.19-.44,5.42,1Zm-33.31,3.29c3.36,1.14,6.59,2.24,9.85,3.35,.42-2.53-.27-3.95-1.67-3.59l-.64,1.2c-1.58-.46-3.28-.71-2.24-3.32-1.79,.5-3.29,.88-4.76,1.36-.24,.08-.34,.6-.54,1.01h0Zm92.3,58.89h.89c-1.07-3.61-.12-7.11,.05-10.66,.17-3.61,.04-7.24,.04-10.87h-.83c-.72,4.71-.1,9.48-.27,14.28l-1.72,1.4,1.84-.31v6.15h0Zm-22.57-11.42c-1.51,1.49-2,9.24-1.18,15.6,.49-.88,1.12-1.48,1.14-2.11,.09-4.38,.05-8.76,.05-13.49h-.01Zm-48.21,20.11c0,2.26,.24,3.79-.09,5.2-.2,.85-.7,1.4,.34,1.93,1.1,.55,2.14,.51,2.73-.61,.28-.54,.05-1.34,.05-2.02,.27-.81,.71-2.01,.31-2.47-.75-.85-2-1.26-3.33-2.02h-.01Zm-22.69-45.47c-2.29,1.41-3.66-1.19-5.6-1.14-3.14,.07-1.19-3.6-3.16-4.9,0,1.85-.03,3.42,.03,4.98,0,.3,.33,.75,.6,.85,2.47,.85,4.97,1.63,7.55,2.47l.58-2.26Zm87.68,13.59c-2.14-1.25-4.29-2.48-6.4-3.77-1.68-1.03-3.6-1.89-4.87-3.31-1.34-1.49-1.82-.65-2.59,.17,4.61,2.46,8.49,6.23,13.87,6.91h-.01Zm-68.63-4.63l-.14,.57c.02,.05,.04,.14,.08,.15,6.64,2.57,13.28,5.15,19.94,7.68,.32,.12,.78-.11,1.56-.24-7.46-2.84-14.45-5.5-21.44-8.16Zm-8.59,36.24c.64,.3,2.49-.37,3.05-1.42,.47-.88,1.12-1.67,1.58-2.56,.29-.57,.65-1.35,.47-1.85-.15-.4-1.07-.51-1.64-.75-.18,.58-.37,1.15-.52,1.74-.11,.44-.17,.9-.27,1.49l-1.77-.92c-.32,1.51-.59,2.84-.89,4.27h-.01Zm56.68-39.67c-2.72-1.22-4.63,.75-6.76,1.45-.36,.12-.39,1.24-.56,1.9,2.68-.89,5.57-.76,7.32-3.35ZM54.52,18.03l-4.6,2.15,1.06,.57-3.49,2.73,2.06,1.09,2.87-3.71c1.6,.36,1.84-.89,2.11-2.83h-.01Zm10.93,61.88c0,1.46-.02,2.92,0,4.39,.01,1.02-.25,1.53-1.37,2.04-2.88,1.3-2.87,1.14-2.26,2.74,4.68-2.25,5.99-5.16,3.62-9.17h.01Zm-7.19-63.81l3.71-3.58c-.16,.99-.39,1.54-.26,1.99,.06,.2,1.01,.41,1.25,.22,.44-.34,.65-.97,.96-1.49-.58-.29-1.13-.62-1.73-.85-2.69-1.05-4.29,.23-3.93,3.71Zm35.34,56.19c-.41-.65-.65-1.52-1.13-1.67-1.46-.47-3-.66-4.51-.96,0,.45-.14,1.24,0,1.29,2.48,.93,4.99,1.76,7.49,2.62l.21-.67-2.06-.6h0ZM56.61,11.7c.82,.13,1.5,.4,1.63,.23,1.43-1.86,2.78-3.78,4.19-5.75l-1.69-.46c-1.36,1.97-2.63,3.8-4.14,5.97h0Zm34.83,7.38l-.25,.53c-.4-.4-1.77-.25-4.12,.44l1.05,1.7c.91-.34,1.7-.71,2.54-.93,1.04-.27,2.11-.42,3.16-.62l-.1-.92-2.28-.2Zm1.26,37.77l-2.81-.44c1.84,3.91-.11,8.03,1.02,12.13,.03-.69,.07-1.13,.07-1.57-.01-2.54-.08-5.09-.02-7.63,.01-.47,.5-.94,.77-1.4,.05,.46,.1,.91,.16,1.37,.1,.8,.21,1.6,.32,2.4l.49-.06v-4.79h0Zm4.24,57.61c1.29-3.04-3.13-3.28-2.67-5.89-1.49,3.02-.4,5.28,2.67,5.89Zm.39-6.28c.53-2.72,.39-3-2.26-4.55-.35,4.29-.91,3.62,2.26,4.55Zm11.77,9.94l.31-.64c-.62-.86-1.11-1.87-1.91-2.51-.48-.38-1.43-.16-2.17-.21,.02,.67-.2,1.77,.1,1.94,1.13,.64,2.44,.97,3.68,1.42h0Zm32.29-24.2l2.19,.82v-4.87c-1.41,.46-2.14,1.81-2.19,4.05Zm-68.1,10.55c.19-3.19-2.86-2.07-4.22-3.46,.21,3.48,.63,3.81,4.22,3.46Zm-21.94-44.27c-1.47-.64-2.97-1.39-4.55-1.93-.45-.16-1.15,.2-1.65,.47-.13,.07-.07,.89,.16,1.11,1.05,1.03,4.98,1.14,6.04,.34h0Zm24.85,20.45l7.7,2.54,.13-.4c-2.94-.97-5.88-1.94-9.02-2.98,.41,2.31,.79,4.47,1.18,6.64l.29-.03c-.09-1.82-.17-3.64-.27-5.77h-.01Zm-8.65,21.87l-4.9,2.41,.18,.74,4.72-.62v-2.52h0Zm25.96-5.78l.37-.54c-.73-1.09-2.45-.16-3.31-.97,.77-1.95,.61-2.46-1.01-2.95v3.89l3.95,.58h0ZM47.92,32.54c1.83,.9,3.08,.36,3.65-.95,.21-.48-.81-1.49-1.52-2.67l-2.12,3.62h-.01ZM115.49,112.32c2.36,1.86,4.34,1.54,6.23-.88l-2.06-.61c-.63,2.21-2.57,1.19-4.16,1.49h-.01Zm-22.98-71.13c-.29-1.27-.5-2.19-.86-3.74-1.09,1.43-1.87,2.46-2.65,3.49l.23,.66,3.27-.41h.01Zm-5.9,31.89l-1.9-.72c-2.09,1.6-3.95,3.01-5.81,4.43l.08,.24,7.64-3.95h-.01Zm50.66-14.73l-4.05,1.19,4.05,2.19v-3.38ZM70.1,28.04l-.67-.4c-1.55,2.23-3.1,4.46-4.65,6.7l.86,.57,4.46-6.87Zm22.94,19.14l.14,.91h5.56c-.36-.38-.61-.85-.97-.96-.75-.23-1.57-.37-2.36-.36-.8,0-1.59,.26-2.38,.41h.01Zm17.7,66.71l.06,.94c1.09,.05,2.21,.24,3.26,.08,.33-.05,.52-1.06,.77-1.63-.53-.16-1.1-.54-1.57-.44-.88,.2-1.69,.68-2.53,1.05h.01Zm-27.07-76.61c-1.07,1.24-2.15,2.47-3.3,3.8,2.3,.97,3.51-.36,3.3-3.8Zm17.39-9.96c1.11,.63,1.67,1.11,2.32,1.27,.58,.15,1.26,.03,1.85-.14,.17-.05,.33-.93,.24-.98-.9-.5-1.81-1.05-2.8-1.27-.37-.09-.93,.63-1.61,1.12Zm-12.25,10.3c-1.71-.35-2.19,.03-3.09,2.58l1.64,.73,1.45-3.31Zm-19.19,13.47l-.49-.39c-2.19,1.39-4.39,2.78-6.58,4.17,2.15-.69,4.23-1.47,6.24-2.4,.41-.19,.57-.91,.84-1.38h0Zm9.18-9.96c1.4-1.35,1.67-2.68,.82-3.98l-3.32,2.82,3.26-.81-.76,1.96h0Zm-12.32-22.78l2.5-2.89c-.37-.24-.88-.77-1.09-.67-1.15,.57-2.53,1.11-1.41,3.56Zm-5.15,3.64l2.78-2.58c-1.44-.79-3.13-.54-3.52,.66-.15,.46,.42,1.14,.75,1.92h0Zm-5.95,68.9c1.18-2.89,.94-3.75-1.31-4.23,.36,1.48-.89,3.25,1.31,4.23Zm53.12-45.41c-2.29,1.28-1.1,3.13-1.49,4.74,1.99-.6,2.05-.79,1.49-4.74ZM57.67,23.33l-.71-.6c-.76,.65-1.59,1.23-2.24,1.97-.21,.24,.06,.89,.12,1.35,.41-.13,.97-.14,1.22-.42,.61-.7,1.08-1.53,1.61-2.31h0Zm20.9-4.94c-1.21,1.51-1.01,2.63,.55,3.55,1.2-1.73,1.07-2.61-.55-3.55Zm58.16,66.15l.88,.04c-.11-2.44-.22-4.87-.33-7.31h-.55v7.27ZM81.06,16.04c1.39,1.8,2.57,1.44,3.99-.54-1.86-2.4-2.18,1.24-3.99,.54Zm1.03,26.76c-1.76,1.65-2.52,2.86-2.28,3.62,.66-1.37,3.77-.87,2.28-3.62Zm-22.47-14.9c1.21-1.45,2.14-2.54,3.24-3.86-2.95,.52-3.25,.84-3.24,3.86Zm11.15,38.23l.28-.83-6.06-2.01-.25,.72,6.02,2.13h.01Zm18.66-30.89c-.87-.7-1.61-1.65-2.59-.46-.22,.26-.11,1.16,.17,1.4,1.1,.98,1.81,.3,2.42-.94Zm-12.78-19.03l.26-1.13-2.75-1.22c.02,.71-.21,1.83,.13,2.04,.6,.39,1.55,.23,2.36,.3h0Zm6.32,49.84c-1.86-1.81-2.59,.08-3.74,.9,1.67,1.2,2.86,.91,3.74-.9Zm11.63-29.8h.75l1.82-2.35h-2.71l.14,2.35Zm-29.99-9.51c-1.71,.12-2.41,1.7-3.53,2.69,2.35,.81,2.31-1.86,3.53-2.69Zm-2.35-4.23l4.26-2.06-.36-.66c-2.05-.32-2.93,1.41-3.9,2.72Zm26.69,14.91l3.05-.44c-.18-.46-.24-1.13-.58-1.36-1.39-.91-1.66,.31-2.47,1.79h0Zm2.86-9.06l1.07-2.97-.47-.43c-.67,.59-1.38,1.13-1.94,1.81-.07,.08,.71,.85,1.34,1.6h0Zm-41.13,5.25l3.72,1.26-.53-2.97-3.19,1.7h0Zm47.6-9.63l3.69-1.16c-1.81-1.48-2.92-1.16-3.69,1.16Zm-30.48,3.65l-3.21,3.65c1.38,.36,2.99-1.27,3.21-3.65Zm41.32,73.29h-.21v7.52h.21v-7.52ZM50.26,42.52h-.16v11.19h.16v-11.19ZM87.01,11.94l-.57-.3-2.78,2.02c1.01,.24,1.89,.68,2.1,.46,.57-.57,.85-1.43,1.24-2.18h.01Zm8.58,18.82c-2.03-.86-2.06-.85-2.83,1.02l1.91,.7,.92-1.72Zm14.52,59.49l-.22,.09v10.51h.22v-10.6ZM50.51,24.74c2.19,1.76,2.77,.03,3.63-.94l-.22-.54-3.41,1.49h0Zm5.73,4.07c-2.56-1.6-2.72-1.54-2.79,.84l2.79-.84Zm53.5-5.25c-1.07-1.25-1.93-1.23-2.59,.46,1.08,.98,1.96,1.11,2.59-.46ZM67.38,4.9c-1.67-1.36-2.67-.89-3.19,1.34l3.19-1.34Zm6.5,7.39c1.55,.22,2.5-.06,2.85-.83-1.08-.19-2.24-1.15-2.85,.83Zm27.37,13.48l-.46-.45-2.44,1.17,.17,.51,1.97,.46,.75-1.7h.01Zm18.25,57.51l-4.03,1.74,3.35,.46,.68-2.2Zm-33.36-37.17l.41-.35-1.05-2.02-1.81,1.68,2.45,.68h0ZM63.4,9.78c-1.73-1.27-2.22,.85-3.55,.85,1.7,1.42,2.58,.4,3.55-.85Zm19.32,2.83l.27,.48c.72-.39,1.48-.73,2.13-1.22,.21-.16,.15-.7,.21-1.06-.38,.03-.87-.08-1.11,.12-.57,.48-1.01,1.11-1.51,1.68h.01Zm-.08,76.96l1.64,3.46,.52-.08c-.18-.95-.26-1.95-.6-2.84-.12-.3-.93-.34-1.56-.54Zm11.68-56.86l-3.67,1.35c2.34,1.96,2.72,.35,3.67-1.35Zm-27.21,59.46l.24,.32,3.12-1.25v-1.6l-3.37,2.53h.01Zm-15.63-39.53l.49,.13-.39-6.89-.41,.02c.1,2.25,.21,4.49,.31,6.74Zm43-29.57c-1.47-1.08-1.97-.13-2.5,1.12l1.79,.71,.71-1.83Zm26.9,37.47h.23v-9.64h-.23v9.64Zm-18.99-43.19c-1.81-1.91-2.01-1.9-2.86,0h2.86Zm-9.52-.11l-3.25-2.31c.06,1.84,.94,2.51,3.25,2.31Zm16.74,48.57c2.39-.11,3.22-.93,2.62-2.87l-2.62,2.87ZM73.53,13.41l-.6-.51c-.47,.45-1.13,.83-1.35,1.38-.13,.33,.43,.93,.93,1.91l1.02-2.78Zm-1.04,86.17l.22,.95,3-.8-.26-.98c-.99,.28-1.97,.55-2.96,.83Zm13.99,4.19l.69-.07,.59-3.37c-.47,.1-1.22,.16-1.23,.28-.09,1.04-.05,2.1-.05,3.15h0Zm9.07-81.2l-.14-2.03-2.25,.27,.08,.46,2.31,1.31h0Zm50.51,61.63l.08-.05v-8.34h-.08v8.4h0Zm-48.96-39.92l-2.62,.84,.07,.61,1.94,.69,.61-2.13h0ZM74.04,11.01l-.44-.96c-.61,.22-1.29,.36-1.8,.73-.15,.11,.15,.85,.25,1.31l1.98-1.08h.01Zm18.39,26.98c1.68,1.35,2.14,.33,2.55-1.01l-1.65-.65-.9,1.67h0Zm21.16,48.46l-2.64,1.15,.12,.37,1.68-.08,.84,2.43v-3.86h0ZM71.41,10.36l-.04-.58c-.75-.11-1.52-.37-2.23-.26-.26,.04-.36,1-.71,2.09l2.98-1.26h0Zm-1.42-3.63c-1.81-.83-1.96-.8-2.63,.56,.95,.41,1.91,1.2,2.63-.56Zm32.85,14.53l.18,.86c.99,.44,2,.98,2.58-1.4l-2.77,.54h0Zm-29.61,30.08l.32,1.75,2.51-.78-.08-.55-2.75-.42Zm-3.78-36.8l2.42-1.52c-1.95-1.14-2.33-.92-2.42,1.52Zm27.18,26.16l-.66,.49,1.68,2.28,.82-1.83-1.84-.94Zm-6.42-16.7l-3.53,1.07,.13,.46,1.9,.49,1.51-2.02h-.01Zm16.77,1.15c-1.04-.4-2.17-1.43-2.48,.72,1.11,.5,1.93,.26,2.48-.72Zm-28.54,41.43l.2-.7c-1.03,.32-1.25-2.43-3.05-.21l2.85,.91Zm13.34-52.32l-.25,1.02,1.96,.49,.27-1.11-1.98-.4Zm9.02,6.29l.78,.78c.5-.57,1.02-1.11,1.46-1.72,.05-.07-.37-.48-.57-.73l-1.67,1.68h0Zm-39.11,25.53h-.06v7.62h.06v-7.62Zm35.17-21.17l-.2-1.03-1.86,.19,.34,1.36,1.72-.52ZM68.02,4.99c1.77,.85,2.05,.62,2.27-2.05l-2.27,2.05Zm-21.32,65.12l.12-.37-6.14-2.08-.16,.48,6.18,1.97Z" fill="#41463d"/><path d="M4.6,82.56c1.69-1.22,3.33-2.51,5.07-3.63,1.77-1.14,3.71-2.01,5.46-3.18,1.79-1.19,3.34-2.76,5.18-3.86,2.06-1.23,4.23-2.62,6.51-3.02,1.76-.3,4.07,.4,5.57,1.46,1.01,.71,1.56,2.88,1.4,4.28-.42,3.55,1.84,4.89,4.3,6.26-.46,.15-.91,.3-1.37,.45-.42-1.41-3.18-2.21-4.87-1.32l2.73,2.04-1.91,2.09c1.9-.81,3.59-1.87,5.28-2.95,.07-.05,.06-.24,.08-.36l2.1,1.41c-1.23,.58-2.08,1.04-2.98,1.39-1.7,.65-3.4,1.38-5.16,1.8-2.26,.54-4.7,.32-6.74,1.75-.1,.07-.49-.04-.52-.14-.45-1.33-1.78-1.45-2.68-1.35-1.34,.15-2.59,.95-3.91,1.4-.67,.23-1.38,.31-2.08,.46l-.14-.61,1.66-.37c-1.58-1.82-3.33-1.61-4.17,.49-.57,1.41-2.35,1.98-3.87,1.18-1.16-.61-2.23-1.45-3.45-1.88-.7-.24-1.62,.13-2.44,.24-.69,.09-1.38,.19-2.04,.02,1.14-.52,2.43-.86,3.34-1.64,.33-.28-.22-1.61-.37-2.46l-.02,.02,.04,.03Zm27.86-10.74c-2.98-1.78-5.94-1.84-8.53-.67-3.15,1.42-5.97,3.58-8.9,5.47-.27,.17-.36,.63-.66,1.18,.76,0,1.27-.14,1.63,.03,.62,.3,1.14,.79,1.71,1.21-.52,.38-1.01,.85-1.58,1.12-.48,.22-1.07,.21-2.05,.38l3.87,.62,4.04-3.07,1.31,2.65,3.71-2.72-.51-.71-3.37,2.44c.79-1.44,1.41-2.72,2.19-3.89,.22-.34,.91-.36,1.37-.54,.31-.12,.61-.28,.91-.43-.2-.29-.33-.73-.61-.84-.93-.38-1.91-.64-3.15-1.03,1.55-.26,2.78-.42,3.99-.69,.65-.14,1.26-.46,1.89-.69l.48,2.12,2.25-1.95h.01Zm-9.2,12.27c.94,.67,1.76,1.69,2.32,1.56,2.04-.46,4-1.3,6.06-2.02-2.93-2.68-2.54-2.88-8.38,.46Zm-14.61-3.47l.05,.47,3.66,.45,.19-3.05-3.89,2.14h0Zm.62,3.84l-3.05-.73c.15,1.72,.76,2.94,2.48,3.47l.57-2.74Zm8.11-5.86c-1.4-.16-2.38-.32-3.37-.35-.26,0-.57,.36-.77,.62-.06,.07,.19,.55,.33,.57,1.17,.18,2.41,.68,3.81-.84Z" fill="#41463d"/><path d="M123.23,115.42c.65-.97,1.25-1.86,1.97-2.93,1.02,0,2.32-.14,3.57,.06,.72,.12,1.5,.67,1.96,1.26,.21,.27-.24,1.56-.47,1.58-1.46,.14-2.95,.05-4.42,.04h-2.61Z" fill="#41463d"/><path d="M151.2,102.61c-.1,.6-.16,.94-.22,1.27,.09,.08,.16,.18,.27,.23,.76,.34,1.52,.67,2.28,1.01-.57,.51-1.06,1.18-1.72,1.51-1.64,.81-3.35,1.47-5.04,2.19l-.21-.49,1.83-.94-.12-.38-.9,.21,3.82-4.61h0Z" fill="#41463d"/><path d="M98.44,122c-2.16,.44-3.51,.71-4.99,1.01-.67-2.33,2.52-1.5,2.31-3.29l.49-.16,2.19,2.44Z" fill="#41463d"/><path d="M118.17,122.16v-3.49c1.86,1.96,2.11,2,4.38,.91,.32,1.15-1.14,2.01-4.38,2.57h0Z" fill="#41463d"/><path d="M43.34,90.17l1.63,.85c-2.86,2.01-4.37,2.11-5.61,.32,1.24,0,2.33-.03,3.43,0,1.17,.04,.79-.64,.6-1.23l-.06,.05h.01Z" fill="#41463d"/><path d="M89.49,112.26c.32-1.42,.23-2.44-1.57-2.72-.61-.1-1.11-.91-1.53-1.5,2.46,.47,3.49,1.87,3.1,4.21h0Z" fill="#41463d"/><path d="M4.62,82.55c-.24,.07-.51,.26-.72,.2-2.51-.67-2.96-.42-3.35,1.94-1.12-1.43-.68-1.91,2.81-3.28,.47,.46,.84,.81,1.22,1.16,.01,0,.03-.03,.03-.03h0Z" fill="#41463d"/><path d="M112.49,124.68c1.08-.16,2.15-.33,3.51-.53-.98,2.07-2.14,1.85-3.51,.53Z" fill="#41463d"/><path d="M62.63,97.74c-1.85-2.2-1.67-2.88,.99-3.77l-.05-.03c-.08,.94-.16,1.87-.24,2.8l-.7,1Z" fill="#41463d"/><polygon points="104.65 85.88 104.71 85.81 104.7 85.87 104.65 85.88" fill="#41463d"/><path d="M99.51,82.83l-1.14,.73c-1.18-.94-2.15-1.72-3.57-2.86l4.72,2.13h-.01Z" fill="#41463d"/></g></g></g></g></svg>