<?xml version="1.0" encoding="utf-8"?>
<!-- Generator: Adobe Illustrator 26.3.1, SVG Export Plug-In . SVG Version: 6.00 Build 0)  -->
<svg version="1.1" id="b" xmlns="http://www.w3.org/2000/svg" xmlns:xlink="http://www.w3.org/1999/xlink" x="0px" y="0px"
	 viewBox="0 0 67.3 53.8" style="enable-background:new 0 0 67.3 53.8;" xml:space="preserve">
<style type="text/css">
	.st0{fill:#E4D6A7;}
	.st1{fill:#41463D;}
</style>
<path class="st0" d="M2.4,44.4L0.5,12.3l26.8-12l10.6,5.2c-1.7,16.1-0.3,29.2,4.8,39C26.8,47.8,11.4,50.3,2.4,44.4z"/>
<g id="c">
	<g id="d">
		<g id="e">
			<g>
				<path class="st1" d="M1.7,44.6c-0.3-0.8-0.9-1.7-0.9-2.5c-0.1-8.5,0-17,0-25.6c0-1.2-0.5-2.3-0.7-3.5c-0.4-2,1.4-2,2.6-2.4
					l-2.2,1.7c0.7,0.7,1.3,1.5,2.1,1.9c2,0.9,4,1.9,6.1,2.5c2.2,0.7,3.9-0.8,3.2-2.7c-0.6-1.7-2.3-1.3-3.5-1.1
					c-1.1,0.1-2.1,1.4-3.1,1.4c-1.1,0-2.2-0.9-3.4-1.4c0.3-0.5,0.5-1.4,0.9-1.5c1.8-0.7,3.6-1.2,5.5-1.8L7.2,7.9c3-1.1,5.8-2,8.5-3
					c3.5-1.3,7-2.6,10.5-4c0.1,0-0.1-0.4,0-0.6c0-0.1,0.3-0.3,0.4-0.3c0.2,0,0.6,0.2,0.7,0.3c0.8,3,3.6,2.9,5.8,3.6
					c0.5,0.2,1.1,0.2,1.7,0.3l0.5,0.3l2.6,1v12.8c0,3.2,0,6.4-0.1,9.5c0,1.1,0.4,1.5,1.3,2c4,2,7.9,4,11.9,6
					c0.5,0.3,1.1,0.6,1.4,0.8c-1,0.3-1.9,0.7-2.9,1.1c-1.5,0.6-3,1.4-4.6,1.8c-1.3,0.3-1.2,1-0.5,2.1c-1.2-1-2.2-1.7-3.3-0.5
					c-1,1.1-0.1,1.6,0.5,2.2c0.4,0.4,1.1,0.8,1.1,1c-0.1,0.8-0.4,2.1-1,2.4c-2.2,1.2-4.6,1.4-6.9,0.2c-1-0.5-2-0.7-2.9-1.2
					c-0.7-0.4-1.2-1.2-1.8-1.8c-0.8,0.3-2.1,0.8-3.3,1.3c-0.9,0.4-1.7,1-2.8,1.6l-0.4-0.8c-2,0.4-4,0.5-5.8,1.2
					c-4.2,1.6-8.2,1.7-12.1-0.9C4.5,45.8,3.1,45.2,1.7,44.6l0-2.8l2.9,1.5V31.1H5v12.3h0.4V32.6c0.2,3.3,0.3,6.7,0.6,10
					c0.1,0.7,0.9,1.3,1.4,1.9l0,0C7.6,44.2,8,44,8,43.8c0.1-1.5,0-2.9,0-4.4c0.3,1.1,0.4,2.1,0.3,3.2c-0.2,2,0.4,3.2,2.6,3.4V18.4
					l-3.2-0.6l0.8,15.5c-0.7-0.5-1.7-0.9-1.7-1.3c-0.1-1.5-0.2-3.2,0.3-4.5c1.3-3.3,0.2-6.6,0.6-9.9l-0.5,0v4.1
					c-0.4-5.1-0.7-5.5-6-6.8C1.2,20,1.2,25,1.2,30C1.3,34.9,1.5,39.7,1.7,44.6L1.7,44.6L1.7,44.6L1.7,44.6z M18.7,23.7
					c-0.2,0.1-0.5,0.3-0.6,0.4c-0.2,1-0.3,2.1-0.4,3.1c-0.2,2,0.2,2.4,2.2,2.5c1.2,0,2.4,0,3.8,0c-0.2-1.6-0.6-2.9-0.5-4.1
					c0.1-1.5-0.6-2.1-2-1.9l-1.7-1.4c-0.1-1.8-0.7-2.4-1.8-1.8L18.7,23.7L18.7,23.7z M34,7.3c-5.6-1.9-11-1.8-12.3-0.8
					c1.7,0.8,3.4,1.6,5,2.5C28.8,10.1,32.5,9.3,34,7.3L34,7.3L34,7.3z M22.8,9.7c-0.6-0.4-1.2-0.8-1.8-1c-0.6-0.2-1.5-0.6-2-0.3
					c-1.6,0.9-3.1,2-4.7,3c2.8,1,5.5,3.1,8.5,1.3l-1.5-2.1L22.8,9.7L22.8,9.7L22.8,9.7z M27.7,25.1c5.2,0.9,6.1,0.8,7.5-0.8
					c-2.2-2.1-4.9-1.4-7.5-1.8V25.1z M20.7,18.5l-0.3-4l-3.6-0.5v3.8c0.7,0.2,1.3,0.3,1.9,0.5C19.3,18.4,19.9,18.5,20.7,18.5z
					 M27.5,16c2.8-0.6,2.8-0.7,2.1-4.8h-2.8C26.8,11.2,27.5,16,27.5,16z M16.6,33.7l2.4,1.2c0-0.5,0.2-1.2,0.1-1.9
					c0-0.5-0.3-1-0.5-1.5c-0.6,0.2-1.4,0.3-1.8,0.8C16.5,32.6,16.6,33.3,16.6,33.7L16.6,33.7L16.6,33.7z M9.5,12.3l0.8-4.8L9.7,7.3
					C9.5,9,9.4,10.9,7,11.4l0.4,0.6L9.5,12.3z M39.1,39.5l-2,0.8l0.4,2.2l2.1-1.3C39.6,41.1,39.1,39.5,39.1,39.5z M32.3,20.1
					l-4.5-1.7l-0.4,1.2C28.7,21,30.5,20.1,32.3,20.1z M34.6,22.7l0-0.6h-5.9L34.6,22.7z M2.4,44.4l3.3,1.2c-0.3-0.8-0.4-1.3-0.7-1.5
					c-0.7-0.4-1.4-0.6-2.2-0.9L2.4,44.4L2.4,44.4L2.4,44.4z M37.2,19.4l0.3-0.1l-0.6-5.4L36.2,14L37.2,19.4L37.2,19.4L37.2,19.4z"/>
				<path class="st1" d="M38,53.8c-0.2-1-0.8-0.9-1.7-1c-0.8-0.1-1.8-1-2.1-1.8c-0.3-0.8,0.1-1.8,0.2-2.8c3.9,0.1,4.3,0.4,3.8,3.7
					L35.9,51l-0.2,0.3c0.5,0.3,1,0.6,1.5,1c0.4,0.3,0.8,0.8,1.2,1.2L38,53.8L38,53.8L38,53.8z"/>
				<path class="st1" d="M61.2,40.6c0.9,0.7,1.8,1.5,2.8,2c1,0.4,2.1,0.5,3.3,0.7C65.6,44.8,62.3,44.1,61.2,40.6L61.2,40.6
					L61.2,40.6z"/>
				<path class="st1" d="M52.3,43.3l1.7-0.9c0.5,0.7,0.9,1.9,1.7,2.2c0.6,0.2,1.5-0.7,2.5-1.2c-0.3,0.5-0.5,1.6-0.9,1.7
					c-1,0.2-2.2,0.2-3-0.2c-0.6-0.3-0.8-1.5-1.3-2.3L52.3,43.3L52.3,43.3L52.3,43.3z"/>
				<path class="st1" d="M39.2,51.6c0.2-1.4-1-3.2,1.6-3.5C41.6,49.9,40.5,50.7,39.2,51.6z"/>
				<path class="st1" d="M44,50.5c-0.8,0.2-1.4,0.4-2.1,0.6v-3.3l0.3,0l0.3,2.5l0.5,0l0.1-2L44,50.5L44,50.5L44,50.5z"/>
				<path class="st1" d="M33.5,51.1L31.4,51c1.9-1.3,0.4-1.9-0.1-2.7C32.4,48.3,33.2,49.3,33.5,51.1L33.5,51.1L33.5,51.1z"/>
				<path class="st1" d="M7.4,44.5V35h0L7.4,44.5L7.4,44.5L7.4,44.5L7.4,44.5z"/>
			</g>
		</g>
	</g>
</g>
</svg>
