<?xml version="1.0" encoding="UTF-8"?><svg id="b" xmlns="http://www.w3.org/2000/svg" viewBox="0 0 52.38 20.36"><g id="c"><g id="d"><g id="e"><g><path d="M17.17,17.6l-.62,1.72c-1.36-.75-2.06-1.58-2.1-2.47l-3.07-.73,.06-.33,1.68,.12-3.25-1.78,.16,1.41c-3.16-1.25-6.99,.76-10.03-2.57l3.91-1.46-.49-1.67c1.6-.7,1.11-1.99,.81-3.19-.3-1.21-.67-2.4-1-3.59l.51-.49c.91,.67,1.97,1.22,2.69,2.05,.81,.94,1.32,2.14,2.16,3.56-.3-3.31,.13-3.74,2.81-3.19l-.21-1.58,.27-.06,1.64,5.13c1.67-.27,3.75-4.13,4.66,.63l-.99-.38-.29,.42,1.67,1.14c-.11,1,.6,1.63,2.21,1.58,.43-.01,.87,.28,1.3,.43l.06-.04-5.51,2.68c.56,.96,2.2,1.32,.89,2.73l.05-.05,.02-.02Z" fill="#41463d"/><path d="M37.88,7.31c.49,.21,1.11,.3,1.44,.65,.33,.35,.36,.96,.53,1.46-.43-.01-.86,.02-1.28-.04-1.61-.26-3.21-.55-5.01-.86l1.2,1.05-4.26-.62c1.6-.09,3.41-1.99,3.39-3.36-.6,.24-1.19,.42-1.73,.7-.5,.26-.93,.64-1.35,.94-.75,.29-1.66-2.12-2.21,.24l-1.44-.69c.78-.58,1.44-1.03,2.04-1.55,.55-.48,1.23-.95,1.49-1.57,.78-1.9,1.99-2.85,4.21-2.27,.06-1.83,1.04-1.55,2.03-.88,.87,.59,1.65,1.32,2.77,2.22l-1.17,.8,.05-.05-1.65,.46,.02,.5,2.19,.46,.22,1.73c-1.13-1.99-2.97-1.4-4.8-1.33l.18,1.35,3.14,.68v-.02Z" fill="#41463d"/><path d="M21.68,12.29c2.28-.38,4.39-.05,6.3,1.35,.13,.09,.61-.29,.96-.47l.62,1.23,1.18-.87,.68,.94-3.74,1.02-.38,1.17,4.2,.36,.09,.5c-1.48,.25-2.98,.41-4.43,.77-1.38,.34-2.71,.87-4.05,1.33-1.02,.36-2.06,1.56-3-.18-.08-.15-.81,.12-1.21,.04-1.03-.19-2.02-.47-1.72-1.89l-.05,.05c3.8,1.24,6.08-1.92,9.56-3.11l-4.94-2.29-.06,.04h-.01Z" fill="#41463d"/><path d="M38.51,3.52c3.22-.2,5.2,1.6,6.53,4.23l1.37-.94c.17,.37,.41,.72,.51,1.1,.18,.72,.27,1.46,.44,2.41l4.26-1.48,.76,.71c-.92,.25-2.01,.41-2.96,.84-1.15,.53-2.16,1.35-3.29,1.93-.53,.27-1.24,.44-1.8,.33-1.46-.29-2.89-.75-4.21-1.11l.71-.08c-.09-1.27-.18-2.52-.27-3.77,.31-.43,.62-.87,.98-1.37l-1.47-.34,2.79-.66-4.3-1.84-.05,.05h0Zm4.42,5.08l-.63,.78,1.43,.57-.26,.26h-2.49c2.18,1.53,3.28,1.5,4.28-.03l-2.33-1.57h0Z" fill="#41463d"/><path d="M25.94,10.37c.83-1.42,2.13-.88,3.28-.71,.75,.12,1.45,.49,2.17,.75-.6,.93-3.57,.87-5.4-.1l-.05,.06Z" fill="#41463d"/><path d="M25.99,10.32l-6.7-.53,.06-.4c1.91-.1,3.82-.26,5.73-.25,.29,0,.57,.8,.85,1.23l.05-.06h.01Z" fill="#41463d"/></g></g></g></g></svg>