<?xml version="1.0" encoding="utf-8"?>
<!-- Generator: Adobe Illustrator 26.3.1, SVG Export Plug-In . SVG Version: 6.00 Build 0)  -->
<svg version="1.1" xmlns="http://www.w3.org/2000/svg" xmlns:xlink="http://www.w3.org/1999/xlink" x="0px" y="0px"
	 viewBox="0 0 62.6 43.1" style="enable-background:new 0 0 62.6 43.1;" xml:space="preserve">
<style type="text/css">
	.st0{fill:#E4D6A7;}
	.st1{fill:#41463D;}
</style>
<g id="Layer_2">
	<polygon class="st0" points="1.4,32.2 0.4,15.5 34.3,1.5 50.4,11.9 50.8,29.3 18.8,38.5 	"/>
</g>
<g id="b">
	<g id="c">
		<g id="d">
			<g id="e">
				<g>
					<path class="st1" d="M28.1,21.3l2.7-1.4c0.2-0.4-1.4-1.7,0.4-2.1l0.8,2.4l8.5-4.1c-1.2-1.4-2.5-2.5-3.5-3.8
						c-1.5-1.8-4.1-2.7-4.3-5.6c0-0.3-0.8-0.6-1.3-0.9c-0.4-0.2-0.9-0.5-1.3-0.6C29.5,5,29,4.9,28.4,4.8L28.5,4l-2.3-2.5l2.5-0.2
						L28,2.2C30.2,2,31.9-0.3,34.3,1l0.1,0.5c-1.2,0.8-3.7,0.7-2.6,3.4l3.7,0.4l-0.3-3.4L35,1.9c0.4,0.6,0.7,1.3,1.1,1.9
						c0.7,0.8,1.5,2.2,2.1,2.1c2-0.1,2.5,0.9,3,2.5L39,10.3l0.3,0.4c1.1-0.2,2.6,0.3,2.9-1.6l2.5,1.9l-5.5,1.9l2,2.6l7.8-3.2l-1-2
						l2.9,1.6h-0.5c0,2.5-0.2,4.9,0.1,7.4c0.1,0.6,1.6,1.1,2.5,1.6c1,0.6,2.1,1.2,3.1,1.8l0.7-1.4l0.3,0.1l0.2,1.6l0.3,0.3l0.1-1.4
						l0.6,0.5l0.3,1.5l0.5-1.5l0.4,0l0.7,3.1l0.3-1.6c0.6,0.3,0.6,2.4,2,0.9c0.4,1.2,0.2,1.8-1.3,1.7c-2.4-0.1-3.2,0.7-3,3
						c-2,0.2-0.9-1.5-1.4-2.2c-0.6-0.2,0.1,2.1-1.2,0.7c-1.2,1.5-2.9,1.9-4.7,1.5c-1.2,2.8-4.2,2.9-6.4,4.3
						c-1.3,0.9-3.2,1.1-4.8,1.4c-0.5,0.1-1.2-0.3-1.8-0.6C36.8,37,27.3,40.1,24,38.9c-0.6,1-1.4,1.7-2.8,0.9c-0.7-0.4-1.8,0.1-2.8,0
						c-0.9,0-1.8-0.2-2.9-0.4c0.5-0.9,0.7-1.4,1-1.8c0.3-0.7,0.6-1.3,0.9-2l0.8,2.9l0.6-0.1c-1-4.8,1.2-9.8-1.2-14.5
						c-0.1-0.3,0-0.7,0-1.1c0.1,0,0.1,0,0.2,0l0,0l0.3,0.3c0.4,1.5,1.7,1.8,2.8,1.4C23.4,23.7,25.8,22.4,28.1,21.3
						C28.2,21.3,28.2,21.3,28.1,21.3z M28.1,24.2l-3,1.2l0.2,2.4l2.9-1.4V24.2L28.1,24.2L28.1,24.2z M34.8,9.4l4.2-2.2l-0.2-0.5
						l-3.1,1.3l-0.5-1.6c-0.4,0.2-1.2,0.5-1.2,0.7C34.2,7.7,34.5,8.4,34.8,9.4L34.8,9.4L34.8,9.4z M36.1,21
						c-2.3,0.3-2.3,0.4-1.9,2.2C35.9,23.6,36.6,22.9,36.1,21z"/>
					<path class="st1" d="M20.2,16.7c-0.8-0.4-1.7-0.6-2.5-1.1c-1.2-0.7-2.2-1.3-3.7-0.3c-0.4,0.3-1.8-0.8-2.6-1.3
						c-0.6-0.4-1-0.9-1.8-1.1c1.8,3.4,4.2,6.2,7,8.7c-0.6-0.4-1.1-0.7-1.7-1.1c-0.6-0.4-1.2-0.7-1.9-1.1c-1.5-1.3-2.8-2.8-4.4-3.9
						c-2-1.4-6.3,0.3-7,2.7c-0.3,1.1-0.5,2.2,1,2.8c0.5,0.2,0.9,1,1.5,1.7c-3-0.5-3.2-0.9-3.1-3.1c0.1-1,1-2.4-0.9-2.8
						c0.1-0.5,0.1-1.3,0.3-1.4c2-1,4-1.9,6.1-2.7c1.5-0.5,3.1-0.6,4.7-0.9l-0.1-0.5l-1.7,0.3l-0.1-0.3l5.6-2.2l0.2,0.4l-2.6,1.8
						c1.5,0.5,3.2,0.9,4.7,1.6c1.7,0.8,3.4,0.6,4.5-0.9c1.6,0.7,1.6,1.7,0.2,3C20.7,15,20.2,15.5,20.2,16.7
						C20.2,16.7,20.2,16.7,20.2,16.7z"/>
					<path class="st1" d="M20.2,16.7c0-1.2,0.6-1.8,1.8-1.5l1.8,2.2c2.2-1.7,4.1-1.1,5.3,1.7c-1.3-1.3-2.1-0.7-2.8,0.4
						c-1.5-1-1.9-0.3-1.8,1.3l-1.5-0.6c-0.1-0.5-0.1-1.1-0.4-1.2c-0.8-0.4-1.6-0.6-2.6-1C19.9,17.9,20.2,16.7,20.2,16.7z"/>
					<path class="st1" d="M14.8,22.5c1.6,0.6,2.3,1.5,2.1,3.4c-0.4,3.9-0.2,7.9-0.3,11.9c-0.3-1.1-0.5-2.3-0.8-3.6
						c-2.6,0.2-0.9-2.2-1.7-3.3C16,29.9,16.3,26.2,14.8,22.5C14.8,22.4,14.8,22.4,14.8,22.5z"/>
					<path class="st1" d="M4,32c-0.1-1.8-0.1-3.6-0.2-5.4c0-0.3,0-0.6-0.1-1c0.5,0.4,1,0.8,1.5,1.3v-2.8l0.5,0l0.8,10.4l0,0
						c-1.1-0.6-2.8-0.1-3.3-1.8L4,32L4,32L4,32z M5,32.8l0.4-1.6l0.2,0v2l0.4,0L5.6,29L5,29L5,32.8L5,32.8L5,32.8z"/>
					<path class="st1" d="M26.3,4.5C25.8,5,25.4,5.6,24.8,6c-0.8,0.5-1.6,0.8-2.5,1.2l1.3,2c-2.1-2.1-2.5-2.2-4.5-1l0.5,3.1L19,11.4
						c-0.1-2-0.7-2.2-3.3-1.9C18.9,7.1,22.5,5.7,26.3,4.5C26.3,4.5,26.3,4.5,26.3,4.5z"/>
					<path class="st1" d="M30.7,41.5c-0.9,1.7-1.9,2-3.6,1c-0.5-0.3-1.3-0.2-2-0.4C27.1,42.6,28.3,38.2,30.7,41.5L30.7,41.5
						L30.7,41.5z"/>
					<path class="st1" d="M4,32l-0.7,0.7c-1.3-0.2-2.8-0.4-2.9-2.1c0-1,0.4-2.1,0.6-3.1c0.5,1.3,1,2.6,1.6,4.4l0.9-2.6L4,32L4,32
						L4,32z"/>
					<path class="st1" d="M9.5,35.8l1.4-1.7l0.2,1.4l1.6-0.3v-4.7h0.4c0,1,0.1,2,0,3c-0.1,1.1-0.2,2.2-0.4,3.6
						C11.5,36.7,10.5,36.2,9.5,35.8L9.5,35.8L9.5,35.8L9.5,35.8z"/>
					<path class="st1" d="M38.5,1.9c-1.2,0-2.3-1.6-3.5,0l0.1-0.1l-0.8-0.3L34.3,1C36.4-0.5,36.9-0.4,38.5,1.9z"/>
					<path class="st1" d="M6.6,34.6L8,32.2c0.5,1.2,1,2.4,1.4,3.5l-0.1,0c-0.3-0.5-0.7-1-1-1.4L8.1,35C7.6,34.8,7.1,34.7,6.6,34.6
						C6.6,34.6,6.6,34.6,6.6,34.6z"/>
					<path class="st1" d="M9.8,29.2c-1.9-1.2-1.9-1.7,0-2.9V29.2z"/>
					<path class="st1" d="M43.2,37l1.6,0.5l-0.7,0.8h1.5c0,0.2,0,0.4-0.1,0.5c-1.2,0.4-2.5,1.1-3-0.8L43.2,37
						C43.2,37,43.2,37,43.2,37z"/>
					<path class="st1" d="M53.4,32.2L51,32.4l0.2-2.3l0.4-0.2l0.8,2.7C52.4,32.5,53.4,32.2,53.4,32.2z"/>
					<path class="st1" d="M39.6,3l-0.3,0C39.3,3.1,39.5,3.1,39.6,3z"/>
					<path class="st1" d="M39.3,3l-0.4-0.4C38.9,2.7,39.3,3.1,39.3,3z"/>
					<path class="st1" d="M17.6,22.9l-0.1-0.4c0.1,0.1,0.2,0.3,0.4,0.4C17.8,22.9,17.7,22.9,17.6,22.9L17.6,22.9L17.6,22.9z"/>
					<path class="st1" d="M17.8,22.9l0.3,0.3L17.8,22.9z"/>
					<path class="st1" d="M17.1,22.1l-0.6-0.4L17.1,22.1z"/>
					<path class="st1" d="M17.5,22.5l-0.4-0.4L17.5,22.5z"/>
				</g>
			</g>
		</g>
	</g>
</g>
</svg>
