<?xml version="1.0" encoding="utf-8"?>
<!-- Generator: Adobe Illustrator 26.3.1, SVG Export Plug-In . SVG Version: 6.00 Build 0)  -->
<svg version="1.1" id="b" xmlns="http://www.w3.org/2000/svg" xmlns:xlink="http://www.w3.org/1999/xlink" x="0px" y="0px"
	 viewBox="0 0 155.6 125.7" style="enable-background:new 0 0 155.6 125.7;" xml:space="preserve">
<style type="text/css">
	.st0{fill:#E4D6A7;}
	.st1{fill:#41463D;}
</style>
<polygon class="st0" points="43.3,90.2 42,30.2 64.5,0.7 138.4,32.7 139.7,63.1 150.4,66.8 147.3,98.7 105.4,116.7 "/>
<g id="c">
	<g id="d">
		<g id="e">
			<g>
				<path class="st1" d="M92.2,10.3c0.6,0.1,1.2,0,1.7,0.2c0.6,0.3,1.2,0.9,1.3,1.4c0.1,0.4-0.6,1-1.1,1.8c0.7,2.1,3.6,0.4,5,2.4
					l1.3-2.6c3.3,1.2,6.8,2.5,10.3,3.7c0.9,0.3,1.9,0.5,2.8,1c3,1.6,6.1,3.2,9,4.9c5.3,3.1,10.6,6.3,16,9.5c2.1,1.2,2.1,2.6,0.3,4
					c-0.3,0.2-0.5,0.8-0.5,1.3c0,7.8,0,15.6,0,23.4c0,1.2,0.7,1.5,1.6,1.8c3.6,1.2,7.1,2.4,10.7,3.7c1.9,0.7,1.7,0.8,0.6,2.5
					c-1.1,1.6-2.8,2.9-2.5,5.5c0.5,4.5,0.3,9.1,0.4,13.6c0.1,2.5,0.4,2.8,2.8,2.6c1.7-0.2,2.7,0.3,2.8,2.2c0,0.5,0.7,1,1.1,1.5
					l-1.9,0.2l1.2,1.2c-1,1.7-2.7,2-4.4,2.1c-1.6,0.1-3.1-0.3-4.8-0.2l1.6,0.8c-1.5,0.2-3.1,0.2-4.5,0.6c-1.7,0.5-2.1,2.1-2.2,3.6
					l4,1.7c-1.4,1.2-1.6,2.1,0,2.9c-2.7,0.8-5.3,1.6-7.8,2.4c-1.6,0.5-3,0.2-4.3-0.9c1.3,0,2.7,0.2,3.9-0.1c2-0.6,3.8-1.6,5.8-2.4
					c-0.1-1.5-1.1-1.8-2.4-1.6c-0.6,0.1-1.2,0.1-1.8,0.3c-2.2,0.8-4.3,1.6-6.5,2.4l-0.1,0.7l1.2,0.9c-0.7-0.2-1.3-0.4-2-0.6
					c-1-0.3-1.9-0.8-3,0.2c-0.6,0.5-1.7,0.4-2.5,0.5l1.5-2.3c-1-0.5-1.6-0.8-2.6-1.2c0.1,1,0.1,1.8,0.2,2.6l-2.1,1.3l-1.7-0.5
					l-0.2,0.4c1.2,0.8,3.2,1.1,1.8,3.3l1.9-0.3l0.1,0.2c-1.4,0.7-2.8,1.3-4.3,2.1l0.9,0.5c-0.3,0.2-0.5,0.3-0.6,0.3
					c-1.4-0.5-4.2,0.4-5.1,1.6c-1.3,1.7-4.9,2.5-6.8,1.5c-1.2-0.6-2.5-1.2-4-2V91.4l-2-0.5v8.1l0.6,0l0.3-0.8c0,0.1,0.1,0.2,0.1,0.2
					c-0.2,1.5-0.4,3.1-0.7,4.6c-0.1,0.2-0.6,0.3-0.9,0.5c2.2,1.8,0.2,4.2,0.7,6.3c-2.8-0.6-1.3-3.3-2-4.7c-2.3,2-1.9,3.9-0.1,5.9
					l0.4-1.2l0.9,1.1l0.8-1.2l0.3,2.3h0.5v-7.6h0.5v12.4l-0.3,0l-0.2-2.7l-0.4,0l-0.3,1.8l-0.4,0.2c-0.2-0.6-0.3-1.2-0.6-1.8
					c-0.3-0.5-0.7-0.9-1-1.4c-0.2,0.5-0.6,0.9-0.7,1.4c-0.1,0.5,0,1-0.4,1.5v-3.5h-0.3l-0.1,2.7c-0.7,0.3-1.2,0.6-1.8,0.7
					c-0.6,0.1-1.7,0-1.8-0.3c-0.8-1.7-2.2-1.5-3.7-1.5c-0.8,0-1.6-0.2-2.4-0.3c1.1-0.5,2.3-0.7,2.7-1.3c0.3-0.5-0.6-1.6-0.9-2.4
					l1.1,0.4l0.3-0.6c-2.9-1.8-5.8-3.6-9.2-5.7c0.2,2.7,0.3,4.8,0.5,7l-1.7-0.4c0.3-0.3,0.8-0.6,0.8-0.8c-0.1-1.9-0.2-3.7-0.5-5.6
					c-0.1-0.6-0.8-1.1-1.2-1.7c-0.5,2.8-1.2,5.5,0.9,7.6c0.1,0.1,0,0.4,0,0.5c-1.8-0.1-3.6-0.1-5.3-0.5c-1.2-0.3-2.3-1.1-3.3-1.7
					c1.7-0.8,1.1-1.9-0.1-3c0.5,0.1,1.1,0.2,1.7,0.4c0.1-1.4,0.7-2.7-0.5-3.9l-1.2,3.5c-1.2-0.3-2.5-0.6-3.6-1.1
					c-0.5-0.2-0.7-1.2-1-1.7c-1.2,1.8-0.3,3.1,2.7,3.3c-2.6,0.6-4.8,1.1-7,1.6v0.5l3.7,0.3L68,109l-6.8,0.9l-0.1-0.5
					c0.2-0.1,0.4-0.2,0.6-0.2c1.1,0,2.2-0.1,2.1-1.5c0-1-1.9-2.1-3-1.8c-1.1,0.3-2.2,0.8-3.5,0.8c0.9-0.5,1.8-1,2.7-1.4
					c1.7-0.9,2-2.3,1-4.1c0.7-0.6,1.4-1.2,2.3-1.9l-2.2-0.8v2.7l-0.4,1.5l-1.9-3.5c-2.3,3.2-4.3,3.9-7.5,3.6
					c0.2-0.7,0.5-1.4,0.7-2.2c0.3-0.9,0.6-1.9,0.7-2.8c0.2-0.9,0.2-1.9,0.2-2.8l3.3-3.1L53,90.7c-0.5,1.7-2,3.1-1,5.2
					c-0.9,0.1-1.9,0.2-2.9,0.3c-2.8,0.1-3.4-0.6-3.4-3.3c0-1.2,0.5-2.7-1.2-3.2c-0.3-0.1-0.7,0.4-1.1,0.6l0.1-0.1L41.7,88l-1.6,1.7
					c-0.2-1.8-0.5-3.3-0.5-4.8c0-0.4,0.9-0.9,1.5-1.2c0.4-0.2,1,0.1,2,0.2c-3.2-3.4-1.7-6.1,0.7-8.5c0.6,1.8-1,2.5-2.3,3.7l2.5,1.5
					c0.2-1.6,0.5-2.7,0.5-3.9c0.1-1.4-0.1-2.8-0.1-4.2c0-1.4-0.6-2.4-2.1-2.6c-0.8-0.1-1.5-0.5-2.1-0.7c-0.9-2.7,0.6-4,2.7-4.7
					c1.4-0.5,1.7-1.4,1.7-2.8c0-5.3,0.1-10.7,0-16.1c0-4.7-0.3-9.4-0.4-14c0.9,0.2,1.8,0.4,2.8,0.6c0-0.1,0-0.3,0.1-0.5
					c0.4-0.7,1.8-1.3,0.5-2.3c-1.3-1-2.1,0.1-2.8,1c-0.3,0.4-0.4,0.9-0.6,1.3l-0.6-1.9l-1.2,0.9L42,30.2c1.5-2.4,2.9-4.8,4.5-7.1
					c1.8-2.6,3.8-5,5.6-7.6c2.5-3.6,4.7-7.4,7.2-11c1-1.5,2.5-2.8,4-4.5c-0.4,1.2-0.6,1.8-0.8,2.5L63,2.8l1.5-2.1
					c1.3,0.2,2.9,0.5,4.4,0.8c0.3,0.1,0.6,0.5,0.9,0.7C70.2,2.4,70.5,3,70.9,3c1.6,0.2,3.1,0.5,4,2c-1.5-0.3-2.5,0.6-3.7,1.5
					C73.6,7.8,74,5.8,74.9,5c0.9-0.1,1.4,0.1,1.4,0.7c1.8,0.3,3.5,0.4,5.2,0.8c1.7,0.4,3.4,0.9,3.5,3.5c0.9-2.1,1.9-2.2,3.2-1
					c-1.2-0.5-1.6,0.3-1.6,1.2c0,0.9,0.4,1.4,1.3,0.5c0.3,0.7,0.7,1.1,1.4,0.5l1.9,3.6v-2.4l1.2,1l0.5-0.2
					C92.6,12.2,92.4,11.3,92.2,10.3L92.2,10.3L92.2,10.3z M94.3,28.5c-0.8,0-1.7-0.1-2.3,0.2c-0.3,0.1-0.1,1.2-0.2,1.5L94.3,28.5
					l1.2,1.3c0.7-0.7,1.5-1.4,2.2-2.1l-0.4-0.8l-2,0.5C95.8,28.6,94.7,28.2,94.3,28.5L94.3,28.5L94.3,28.5z M79.1,14.9
					c1.6,1,2.9,0.6,4-0.8C81.1,13.1,80.3,13.3,79.1,14.9l-1.7-0.2V17C78.5,16.6,79.8,16.6,79.1,14.9L79.1,14.9L79.1,14.9z
					 M55.6,19.6l2.5-3.3c-0.9-0.1-1.4,0.1-1.9,0.3c-0.4,0.2-1.2,0.6-1.2,0.9C55,18.2,55.4,18.9,55.6,19.6l-1.4,1.6
					c1.5,1.5,1.9,1.4,3.3-1.2C56.8,19.9,56.2,19.8,55.6,19.6L55.6,19.6L55.6,19.6z M71.8,98.2v-2.4l-0.5-0.1c-0.7,1-1.3,2.1-2,3.1
					l0.3,0.5L71.8,98.2c0.4,0.1,0.8,0.4,1,0.3c0.8-0.3,1.4-0.8,2.2-1.2c-0.2-0.4-0.4-0.7-0.5-1c-0.1-0.3-0.2-0.7-0.3-1
					C72.9,95.8,72.2,96.7,71.8,98.2L71.8,98.2L71.8,98.2z M99,31.9l-3-1.2l0.2,2.5c0.7-0.3,1.4-0.6,2.1-0.9
					C98.6,32.2,98.8,32.1,99,31.9l-0.7,1.9l1.5,0.7c0.5-0.9,0.9-1.6,1.3-2.4c0.1-0.3,0-0.8-0.1-1.1c-0.4,0-0.9,0-1.3,0.2
					C99.5,31.2,99.3,31.6,99,31.9C99,31.9,99,31.9,99,31.9z M101.8,39.7l1.5,0.5c-0.1-0.5-0.2-0.8-0.2-0.7l2.5-1.5
					C102.9,36.7,102.1,37.2,101.8,39.7l-3.1,3.6l2.4,0.9c0.1-0.8,0.1-1.5,0.3-2.1c0.1-0.3,0.6-0.5,0.9-0.7c0,0,0.1,0.1,0.1,0.1
					c0,0,0.1,0,0.3-0.2C102.6,41.3,101.8,39.7,101.8,39.7z M92.4,106.8c-2.2-0.3-3.6-1.5-3.9-4c-1.2,3.6-0.3,5.1,2.8,4.9
					C91.7,107.6,92,107,92.4,106.8l0.7-2.3l-1.4,0.2c-0.2-1-0.3-1.8-0.5-2.9c-2.3,1.8-2.3,2.8-0.3,4
					C91.3,106.1,91.8,106.4,92.4,106.8z M98.9,37l2.3,1.6l1.2-1.9C101,35.5,99.9,36.1,98.9,37l0.5-1.5c-2.1-1-2.5-0.8-2.9,1.5
					c0,0.2-0.3,0.5-0.4,0.7c-0.5,0.5-1.1,0.9-2,1.6l3.8-0.2l-0.7-1.7C97.8,37.2,98.3,37.1,98.9,37L98.9,37L98.9,37z M73,31.7
					c-0.2-0.9-0.5-1.7-0.9-3l-1,1.5l1.3,3L73,31.7c0.6,2.6,1.1,5.3,1.7,8l0.3-0.1v-7.3c0.6,0.7,1.2,1.2,1.9,0
					c0.4-0.5,1.1-0.9,1.5-1.4c0.7-0.8,2-2.1,1.7-2.6c-0.5-1-1.7-1.6-2.8-2.2c-0.7-0.4-1.7-0.4-2.7-0.6c-0.1,0.3-0.2,0.7-0.2,1.1
					c0.2,1.9,0.4,3.8,0.6,5.6l-0.9-1.1C73.7,31.4,73.4,31.5,73,31.7L73,31.7L73,31.7L73,31.7z M86,18l-1.4-0.8
					c-0.4,1.7-0.7,3.1-1,4.9c1,0.2,1.9,0.4,2.8,0.4c0.2,0,0.4-0.8,0.6-1.3l-2.3-0.9l1.8-1.4C86.3,18.6,86.1,18.3,86,18
					c1,0.2,2.2,1.3,2.9-0.8l-2.5-1L86,18L86,18L86,18z M63.6,94l-0.7-3.4l-2.7,2l1.3,0.6l-2.4,3.3l3.7,2l-0.2-0.7l0.7-1
					c2.1,0.3,1.8-1.9,2.8-2.7c0.2-0.2-0.1-1.1-0.2-1.7c-0.1-0.5-0.3-1.2-0.1-1.5c0.5-0.8,1.7-1.4,0.7-2.3c-0.3-0.2-1.6,0.6-2.4,1
					c-0.1,0.1-0.2,0.2-0.3,0.2c-1,0.8-0.5,1.8,0.2,1.9c1,0.2,1.2,0.8,1,1.4C64.9,93.5,64.1,93.7,63.6,94L63.6,94L63.6,94L63.6,94z
					 M120.4,50.3c1.1-1,0.9-2.1,0.4-3.3c-1.7,0-1.8,1.2-1.7,2.2C119.2,49.6,120,49.9,120.4,50.3c-0.3,0.5-1,1-1.1,1.5
					c-0.2,3.1-0.3,6.1-0.5,9.3c1.5-0.2,2.1-0.8,2.1-2c0-2.5,0-5,0-7.5C120.9,51.2,120.6,50.8,120.4,50.3z M85.2,78.8
					c0.2,0.2,0.4,0.4,0.5,0.4c2-1.2,3.9-2.5,6-3.9c-3.9-1.8-6.7-1.4-8.8,1l-5.2,2.6l0.2,0.6c1.1,0.4,2.1,0.8,3.2,1.2
					C83.7,81.5,83.9,81.4,85.2,78.8z M104.7,85.9l7.7-1.6c-0.2-0.7-0.4-0.9-0.7-1c-2-1-4-1.9-5.9-3c-1.7-1-3.2-2.2-4.8-3.3
					c-0.4-0.2-1,0-1.5,0c0,0.4-0.1,1,0.2,1.3c1,1.6,2.2,3.1,3.2,4.7C103.5,84,104.1,85,104.7,85.9L104.7,85.9L104.7,85.9L104.7,85.9
					L104.7,85.9z M127.4,52.6V49h-1c0,1-0.1,2.1,0.1,3.1C126.5,52.3,127.2,52.4,127.4,52.6c-1.3,1.4-1.3,2.8,0,4.4
					c0.8,0.9,0.7,1.8-0.7,2.3c-1.3,0.4-2.5,0.9-3.7,1.5c-0.4,0.2-0.7,0.8-1.1,1.2c0.6,0.3,1.2,1,1.7,0.9c3.8-0.7,5.9-3,6.1-7.1
					c0.2-4.1,0-8.2,0-12.6l-3.4,1.8c0.1,1.1-0.3,2.8,0.3,3.2C128.4,49.5,127.7,51,127.4,52.6C127.5,52.6,127.4,52.6,127.4,52.6z
					 M134.4,36c0.3,2,0.9,4.1,0.9,6.1c0.1,2.7-0.3,5.4-0.4,8.2c-0.1,1.6-1,2.5-2.6,2.5c-0.5,0-1-0.2-1.7-0.3v7.2
					c2.1-0.7,4.1-1.2,6.1-2c0.4-0.2,0.8-1,0.8-1.5c-0.1-3.6,1.2-7.6-2.5-10.5l2.5,0.2v-9.3l-0.7,1.2l-0.6-2.7
					C135.5,35.5,134.9,35.8,134.4,36l-4.1,0.9v4.6c4-0.9,4.4-1.3,4.1-5.1C134.4,36.3,134.4,36.1,134.4,36L134.4,36L134.4,36z
					 M102.9,66.6c0.4-0.8,1.1-1.5,1.2-2.3c0.1-3.4,0.1-6.9,0.1-10.3l-0.2,1.5h-0.1l-0.1-1.9h-1.8l-0.3-0.4c1.4-0.8,3.2-1.3,2.7-3.4
					l0.3,1.2c2.3-0.6,2.6-1.4,1.7-5l-2,1.5c-0.7,0-1.3-0.1-1.6,0.1c-0.4,0.4-0.9,1.1-0.9,1.6c0.3,1.5-0.4,2.3-1.6,2.5
					c-1.6,0.3-1.9,1.1-2,2.5c0,0.1-0.2,0.2-0.2,0.3l-0.8-0.5v14.3h0.3l0.7-3l0.4,0V68l4.3-1.5c-1.3,0.7-2.6,1.6-4,2.1
					c-2.1,0.7-2.2,2.1-1.6,4.1c2.3-1.1,4.5-2.1,7-3.2C103.8,68.4,103.4,67.5,102.9,66.6L102.9,66.6L102.9,66.6z M53.2,38l2.4,0.7
					c-1.2-2.5-3.6-1.4-5-2.8c-0.6,2.2,1.1,1.6,1.8,2.1c-0.9,0-2.3,0.3-2.7-0.1c-1.1-1.4-1.6-0.4-2-0.1L45,35.4c0,4.3-0.1,8,0,11.7
					c0.1,1.5,1,2.5,2.9,2.7V39.5c1.8,0.5,3.4,1.2,5,1.5c1.3,0.3,1.6,0.9,1.6,2.1c0,5.3,0,10.6,0,15.9l0.4,0.2l1.3-2.5l0.2,1.2
					l1.2-1.1l1.5,1.6c-1.5,1,0,1.2,0.5,1.4c3.9,1.4,7.8,2.8,11.7,4.1c1.1,0.4,2.4,0.4,3.6,0.5l0.2-0.7c-2.3,0-3-1.1-2.9-3.2
					c0.1-3.2-0.1-6.5-0.3-9.7c0-0.6-0.3-1.1-0.5-1.7l-0.9,0.2v13.3l-10.5-3.9c0.3-0.4,0.8-0.8,0.8-1.2c0.1-2.2,0.1-4.5,0.1-6.7v-6.5
					c6.2,2,12.1,3.9,18,5.9c0.4,0.1,0.4,1.4,0.4,2.2c0,0.6-0.2,1.2-0.2,1.8c0.1,0.8,0.5,1.7,0.5,2.5c0.1,1.8,0,3.6,0.1,5.3
					c0.1,0.8,0.4,1.6,0.7,2.4c0.6-0.5,1.2-1,1.8-1.4c0.1,0,0.2,0,0.4,0l-0.8,1.6c1.1,1.1,2,1.1,2.9-0.1c0.4-0.5,0.9-0.8,1.4-1.3
					l-4.4,5.6c1.3,0.5,2.6,1,3.8,1.3c0.5,0.1,1.4-0.1,1.7-0.5c1.8-2.3,0.8-4.9,1-7.4l-0.5,0l-0.2,4.1c-0.4-0.8-0.4-1.7-0.5-2.5
					c0-0.2-0.6-0.4-0.9-0.6c0.4-1.5,2.8-1.8,2.2-4c-0.4-1.5-0.1-3.2-0.1-4.7h-0.6v6c-0.4-2.2-0.5-4.4-0.4-6.6c0-0.2,1-0.6,1.4-0.5
					c1.2,0.3,2.2,1.1,3.4,1.2c1.9,0.3,2.1,1.3,2.1,2.9c0,1.7-0.7,3.6,1.1,5.1c0.3,0.3,0.4,1.5,0.2,1.7c-2,1.5-0.8,3.6-1,5.3
					c-0.1,0.4,0.3,0.9,0.5,1.3c0.6-0.5,0.8-1,0.8-1.4c0.2-4.2,0.3-8.5,0.4-12.7c0.1-1.7-0.4-2.8-2.3-3.3c-2.5-0.6-4.9-1.7-7.3-2.6
					c0.6-0.3,1.1-0.1,1.6,0c0.2,0,0.4-0.2,0.5-0.4c0.1-0.1,0-0.5-0.2-0.5c-1.2-0.5-2.4-1-3.7-1.4c-1.6-0.5-3.2-0.8-5-1.3
					c-0.3,0-1.3,0.5-1.7,0.2c-2.7-2.4-5.4-3.5-9.5-3.4c-0.3,0-0.6-0.3-0.8-0.6c-0.4-0.5-0.7-1.2-1.2-1.4c-2-0.8-4.1-1.6-6.2-2
					c-1.3-0.2-2.7,0.2-4,0.3L53.2,38L53.2,38L53.2,38L53.2,38z M102.7,46.2c3.5-1.5,6.6-2.7,9.5-4.1c0.5-0.2,1-1.1,1-1.7
					c0.1-3.1,0.1-6.2,0.1-9.3c2.1-0.7,4.1-1.4,6.1-2.1c0.3-0.1,0.7-0.5,0.8-0.9c0.8-3,0.1-4.1-3-4.9l-0.2,2.8l-0.9-1.2
					C111.6,31.9,107.3,38.8,102.7,46.2L102.7,46.2L102.7,46.2z M120.6,24.5c0,1.5-0.4,3,0.1,3.5c1.2,1.4,0.8,2.9,0.8,4.3
					c0.1,2.1,0,4.2,0,6.4c3.6-1.3,7.3-2.5,10.9-3.9c1.2-0.5,1.1-1.8,0.4-2.5c-0.6-0.7-1.8-1.5-2.6-1.4c-1.7,0.1-2.5-0.6-3.2-2
					c-0.4-0.8-1.2-1.3-2-0.2l-0.6-1.1l-0.2,1.6C125.2,26,121.9,26.4,120.6,24.5L120.6,24.5L120.6,24.5z M64.2,63.5l0.2-0.6
					c-0.8-0.4-1.6-0.7-2.4-1.1c-2.1-1.1-4.1-1.7-5.8,0.8c-0.3,0.4-0.8,0.6-1.2,0.8c-2.6,1.6-5.2,3.2-8.1,5c2.3,0.9,4.4,1.8,6.5,2.6
					c0.4,0.2,1.2,0,1.5-0.3c2.7-2.1,5.3-4.2,8-6.4l-4.7-1.9l0.2-0.5L64.2,63.5L64.2,63.5L64.2,63.5z M103.6,71.8
					c4.7,2.6,9.3,4.8,13.6,7.5c2.5,1.6,4.4,1,6.9-0.4c-4.8-2.6-9.5-4.9-14-7.6C107.8,70,105.9,70.2,103.6,71.8L103.6,71.8
					L103.6,71.8z M55.6,71.7c2.1,0.8,3.9,1.4,5.7,2c0.5,0.2,1.3,0.2,1.6-0.1c2.5-2.1,4.9-4.3,7.6-6.7c-1.6-0.6-2.9-1-4.1-1.6
					c-1.3-0.6-2.4-0.6-3.5,0.4C60.6,67.7,58.2,69.6,55.6,71.7C55.6,71.7,55.6,71.7,55.6,71.7z M145.1,72.8c-2.1,0.9-4,1.7-5.8,2.6
					c-0.3,0.2-0.7,0.7-0.7,1.2c-0.1,1.8-0.1,3.7,0,5.5c0,0.4,0.4,1.1,0.8,1.3c1.8,0.7,3.7,1.2,5.8,1.8L145.1,72.8L145.1,72.8
					L145.1,72.8z M70.1,76.7c2.5-2.5,4.7-4.7,7-7c-2.1-1-4-1.8-5.6-2.6c-2.7,2.3-5.2,4.7-8,7.1C66,75.2,68.1,76,70.1,76.7L70.1,76.7
					z M103.2,88l0.4-0.3c-1.7-3-3.4-6.1-5.1-9.1c-0.9-1.6-2.1-1.5-3.1-0.5c-1.7,1.7-3.2,3.7-4.8,5.6C95,85.2,99.1,86.6,103.2,88
					L103.2,88L103.2,88z M94,100.5c-4.1-1.1-6.2-3.7-6.2-7.7c0-1,0.1-1.9,0-2.9c-0.1-0.8-0.3-1.6-0.5-2.4l-0.5,0.1v10.1
					c-2.6-0.9-4.8-1.8-7.1-2.5c-1.1-0.3-1.3-0.9-1.3-1.9c0.1-2.4,0-4.8,0-7.3c0-0.6-0.1-1.3-0.2-2.2c-0.4,0.5-0.6,0.6-0.6,0.7
					c-0.1,3.4-0.2,6.8-0.1,10.1c0,0.3,0.6,0.8,0.9,0.9c5.1,1.9,10.2,3.8,15.2,5.7c0.6,0.2,1.2,0.3,1.8,0.5V88.5
					C93.4,92.4,94.5,96.4,94,100.5L94,100.5L94,100.5z M48.1,72.6l-0.7-0.2c-0.3,0.6-0.7,1.2-0.7,1.8c0,3.9,0.2,7.8,0.2,11.8
					c0,2.6-0.3,5.3-0.5,7.9c0,0.4,0.2,0.8,0.3,1.2l0.5-0.1l0.1-3c0.5,0.2,0.7,0.5,0.8,0.7c0.1,0.3,0.2,0.7,0.4,1.1
					c0.5-0.6,0.6-0.7,0.6-0.8C48.8,86.2,49.9,79.3,48.1,72.6L48.1,72.6L48.1,72.6z M134.7,73.7c-4.9-2.3-9.6-4.4-14.2-6.7
					c-1.6-0.8-2.9-1.2-4.5,0.5c4.4,2.3,8.9,4.3,13.1,6.8C131.1,75.3,132.7,75.3,134.7,73.7L134.7,73.7L134.7,73.7z M110.1,69.2
					c3.7,0.5,5.5,4.1,9.1,4.2c0.3,0,0.6,0.4,0.9,0.6c1.4,1,2.9,2,4.3,3c1.8,1.3,3.4,0.8,5-0.7c-0.5-0.2-0.8-0.5-1.2-0.7
					c-4.6-2.3-9.3-4.6-13.9-6.9C112.9,67.9,111.8,67.8,110.1,69.2L110.1,69.2L110.1,69.2z M99.3,74.2c0.5,0.3,1,0.7,1.6,1
					c4.3,2.4,8.6,4.7,12.8,7.2c1.5,0.9,2.5,0,3.5-0.8c-4.4-2.6-8.7-5-12.9-7.7C102.4,72.6,100.9,72.6,99.3,74.2L99.3,74.2L99.3,74.2
					z M125.5,63.5l-4.5,1.6c3.9,2.1,7.8,4,11.6,6.2c2.1,1.2,4.5,1.7,6.7,0.4c-3.8-2-7.7-4-11.4-6C127,65.3,126.4,64.5,125.5,63.5
					L125.5,63.5L125.5,63.5z M83.4,71.9c-1.7-0.6-3.1-1.2-4.5-1.7c-0.2-0.1-0.7,0-0.8,0.2c-1.6,1.5-3.2,2.9-4.7,4.5
					c-0.1,0.1,0.1,0.6,0.2,0.9l-1.8,1.1c0.9,0.5,1.6,1,2.4,1.2c0.7,0.2,1.7,0.3,2.1,0C78.5,76.2,80.8,74.2,83.4,71.9z M109.3,49.5
					c2.8-1.1,5.7-2.2,8.5-3.3c0.3-0.1,0.6-0.5,0.6-0.9c0.1-1.2,0-2.4,0-3.8c-1.2,0.5-2,0.8-2.9,1.2c-1.1,0.5-2.4,0.7-3.1,1.5
					c-0.6,0.7-0.4,2-0.6,3c-0.1-0.9-0.1-1.7-0.2-2.6C108.8,45,108.5,45.8,109.3,49.5L109.3,49.5z M55.7,60.5l-0.6-0.6
					c-4.6,2-9.2,4-14.3,6.2c2.6,1.2,4.6,2.2,7,0.4c1.7-1.3,3.7-2.2,5.4-3.5C54.2,62.5,54.9,61.4,55.7,60.5L55.7,60.5L55.7,60.5z
					 M96.4,75.7c-0.8-1.2-1.7-0.8-2.8-0.2c-2.9,1.7-6.4,2.8-8.4,6.8c1.6,0.1,3.1,0.6,3.8,0C91.7,80.3,94,77.9,96.4,75.7L96.4,75.7
					L96.4,75.7z M119.8,45.4c1.9-0.8,3.6-1.3,5.2-2.1c2.2-1.1,2.5-2,1.7-4.8c-2.3,0.9-4.6,1.8-6.9,2.7
					C119.8,41.3,119.8,45.4,119.8,45.4z M112.4,51.8c-3.1,0.9-4.3,4.9-3,8.6l1.7-1.5l0.8,1.8l-2.8,1.8l0.1,0.2l3.2-0.8L112.4,51.8
					L112.4,51.8z M67.7,35.3c0.2,1.8,0,3.8,1.9,4.7c2.6,1.2,5.3,2.2,8,3.2c0.3,0.1,0.8-0.2,1.2-0.4c-2.3-0.8-4.2-1.2-5.1-3.8
					C72.8,36.8,70.6,35.4,67.7,35.3L67.7,35.3L67.7,35.3z M56.5,94.9c-2.1,1.1-4.5,1.8-2.8,5.1l1-0.3l-0.6,1.9l0.7,0.2
					c0.8-1.9,1.7-3.8,2.5-5.8c0.6-1.3,1.2-2.6,1.9-4.2l-0.4-2.5c-1.4,1.9-2.6,3.7-3.9,5.4l0.4,0.3L56.5,94.9z M88.2,31.7
					c-1.1-1.9-2.1-2.7-3.9-1.9c-1,0.4-2.3,0.4-3.3,0.7c-1.1,0.4-2,1-3,1.5c3.1,0.8,2.3,3.5,3.3,5.3c0.5-0.8,1-1.7,0.9-2.5
					c-0.2-0.8-1-1.5-1.6-2.1c1.3-0.3,2.9,1.8,4.2-0.1l-2.2-1.4l0.2-0.4C82.8,30.7,88.2,31.7,88.2,31.7z M54.9,35
					c3.4,1.1,6.6,2.2,9.9,3.3c0.4-2.5-0.3-4-1.7-3.6L62.5,36c-1.6-0.5-3.3-0.7-2.2-3.3c-1.8,0.5-3.3,0.9-4.8,1.4
					C55.2,34.1,55.1,34.6,54.9,35L54.9,35L54.9,35z M147.2,93.9h0.9c-1.1-3.6-0.1-7.1,0.1-10.7c0.2-3.6,0-7.2,0-10.9h-0.8
					c-0.7,4.7-0.1,9.5-0.3,14.3l-1.7,1.4l1.8-0.3L147.2,93.9L147.2,93.9L147.2,93.9z M124.7,82.5c-1.5,1.5-2,9.2-1.2,15.6
					c0.5-0.9,1.1-1.5,1.1-2.1C124.7,91.6,124.7,87.2,124.7,82.5L124.7,82.5z M76.4,102.6c0,2.3,0.2,3.8-0.1,5.2
					c-0.2,0.8-0.7,1.4,0.3,1.9c1.1,0.6,2.1,0.5,2.7-0.6c0.3-0.5,0.1-1.3,0.1-2c0.3-0.8,0.7-2,0.3-2.5
					C79,103.8,77.8,103.4,76.4,102.6L76.4,102.6L76.4,102.6z M53.8,57.1c-2.3,1.4-3.7-1.2-5.6-1.1C45,56,47,52.4,45,51.1
					c0,1.8,0,3.4,0,5c0,0.3,0.3,0.8,0.6,0.8c2.5,0.8,5,1.6,7.5,2.5L53.8,57.1z M141.4,70.7c-2.1-1.2-4.3-2.5-6.4-3.8
					c-1.7-1-3.6-1.9-4.9-3.3c-1.3-1.5-1.8-0.7-2.6,0.2C132.2,66.3,136.1,70,141.4,70.7L141.4,70.7L141.4,70.7z M72.8,66.1l-0.1,0.6
					c0,0.1,0,0.1,0.1,0.2c6.6,2.6,13.3,5.2,19.9,7.7c0.3,0.1,0.8-0.1,1.6-0.2C86.8,71.4,79.8,68.7,72.8,66.1z M64.2,102.3
					c0.6,0.3,2.5-0.4,3.1-1.4c0.5-0.9,1.1-1.7,1.6-2.6c0.3-0.6,0.7-1.3,0.5-1.8c-0.2-0.4-1.1-0.5-1.6-0.8c-0.2,0.6-0.4,1.2-0.5,1.7
					C67,97.9,67,98.4,66.9,99L65.1,98C64.8,99.6,64.5,100.9,64.2,102.3L64.2,102.3L64.2,102.3z M120.9,62.6
					c-2.7-1.2-4.6,0.8-6.8,1.4c-0.4,0.1-0.4,1.2-0.6,1.9C116.2,65.1,119.1,65.2,120.9,62.6z M54.5,18l-4.6,2.1l1.1,0.6l-3.5,2.7
					l2.1,1.1l2.9-3.7C54,21.2,54.3,20,54.5,18C54.5,18,54.5,18,54.5,18z M65.4,79.9c0,1.5,0,2.9,0,4.4c0,1-0.2,1.5-1.4,2
					c-2.9,1.3-2.9,1.1-2.3,2.7C66.5,86.8,67.8,83.9,65.4,79.9L65.4,79.9z M58.3,16.1l3.7-3.6c-0.2,1-0.4,1.5-0.3,2
					c0.1,0.2,1,0.4,1.2,0.2c0.4-0.3,0.7-1,1-1.5c-0.6-0.3-1.1-0.6-1.7-0.9C59.5,11.3,57.9,12.6,58.3,16.1z M93.6,72.3
					c-0.4-0.7-0.7-1.5-1.1-1.7c-1.5-0.5-3-0.7-4.5-1c0,0.4-0.1,1.2,0,1.3c2.5,0.9,5,1.8,7.5,2.6l0.2-0.7L93.6,72.3L93.6,72.3
					L93.6,72.3z M56.6,11.7c0.8,0.1,1.5,0.4,1.6,0.2c1.4-1.9,2.8-3.8,4.2-5.8l-1.7-0.5C59.4,7.7,58.1,9.5,56.6,11.7L56.6,11.7
					L56.6,11.7z M91.4,19.1l-0.2,0.5c-0.4-0.4-1.8-0.2-4.1,0.4l1.1,1.7c0.9-0.3,1.7-0.7,2.5-0.9c1-0.3,2.1-0.4,3.2-0.6l-0.1-0.9
					C93.7,19.3,91.4,19.1,91.4,19.1z M92.7,56.8l-2.8-0.4c1.8,3.9-0.1,8,1,12.1c0-0.7,0.1-1.1,0.1-1.6c0-2.5-0.1-5.1,0-7.6
					c0-0.5,0.5-0.9,0.8-1.4c0.1,0.5,0.1,0.9,0.2,1.4c0.1,0.8,0.2,1.6,0.3,2.4l0.5-0.1V56.8L92.7,56.8L92.7,56.8z M96.9,114.5
					c1.3-3-3.1-3.3-2.7-5.9C92.8,111.6,93.9,113.8,96.9,114.5z M97.3,108.2c0.5-2.7,0.4-3-2.3-4.6C94.7,107.9,94.2,107.2,97.3,108.2
					z M109.1,118.1l0.3-0.6c-0.6-0.9-1.1-1.9-1.9-2.5c-0.5-0.4-1.4-0.2-2.2-0.2c0,0.7-0.2,1.8,0.1,1.9
					C106.6,117.3,107.9,117.7,109.1,118.1L109.1,118.1L109.1,118.1z M141.4,93.9l2.2,0.8v-4.9C142.2,90.3,141.4,91.7,141.4,93.9z
					 M73.3,104.5c0.2-3.2-2.9-2.1-4.2-3.5C69.3,104.5,69.7,104.8,73.3,104.5z M51.4,60.2c-1.5-0.6-3-1.4-4.5-1.9
					c-0.5-0.2-1.2,0.2-1.7,0.5c-0.1,0.1-0.1,0.9,0.2,1.1C46.4,60.9,50.3,61,51.4,60.2L51.4,60.2L51.4,60.2z M76.2,80.7l7.7,2.5
					l0.1-0.4c-2.9-1-5.9-1.9-9-3c0.4,2.3,0.8,4.5,1.2,6.6l0.3,0C76.4,84.6,76.3,82.8,76.2,80.7L76.2,80.7z M67.6,102.5l-4.9,2.4
					l0.2,0.7l4.7-0.6V102.5L67.6,102.5L67.6,102.5z M93.5,96.7l0.4-0.5c-0.7-1.1-2.4-0.2-3.3-1c0.8-1.9,0.6-2.5-1-2.9v3.9L93.5,96.7
					L93.5,96.7L93.5,96.7z M47.9,32.5c1.8,0.9,3.1,0.4,3.7-1c0.2-0.5-0.8-1.5-1.5-2.7L47.9,32.5C47.9,32.5,47.9,32.5,47.9,32.5z
					 M115.5,112.3c2.4,1.9,4.3,1.5,6.2-0.9l-2.1-0.6C119,113,117.1,112,115.5,112.3L115.5,112.3z M92.5,41.2
					c-0.3-1.3-0.5-2.2-0.9-3.7c-1.1,1.4-1.9,2.5-2.7,3.5l0.2,0.7L92.5,41.2L92.5,41.2z M86.6,73.1l-1.9-0.7c-2.1,1.6-3.9,3-5.8,4.4
					L79,77L86.6,73.1L86.6,73.1z M137.3,58.4l-4.1,1.2l4.1,2.2C137.3,61.7,137.3,58.3,137.3,58.4z M70.1,28l-0.7-0.4
					c-1.6,2.2-3.1,4.5-4.7,6.7l0.9,0.6L70.1,28z M93,47.2l0.1,0.9h5.6c-0.4-0.4-0.6-0.8-1-1c-0.8-0.2-1.6-0.4-2.4-0.4
					C94.6,46.8,93.8,47,93,47.2L93,47.2z M110.7,113.9l0.1,0.9c1.1,0.1,2.2,0.2,3.3,0.1c0.3-0.1,0.5-1.1,0.8-1.6
					c-0.5-0.2-1.1-0.5-1.6-0.4C112.4,113,111.6,113.5,110.7,113.9C110.7,113.9,110.7,113.9,110.7,113.9z M83.7,37.3
					c-1.1,1.2-2.2,2.5-3.3,3.8C82.7,42,83.9,40.7,83.7,37.3z M101.1,27.3c1.1,0.6,1.7,1.1,2.3,1.3c0.6,0.1,1.3,0,1.8-0.1
					c0.2,0,0.3-0.9,0.2-1c-0.9-0.5-1.8-1-2.8-1.3C102.3,26.1,101.7,26.8,101.1,27.3z M88.8,37.6c-1.7-0.3-2.2,0-3.1,2.6l1.6,0.7
					C87.4,40.9,88.8,37.6,88.8,37.6z M69.6,51.1l-0.5-0.4c-2.2,1.4-4.4,2.8-6.6,4.2c2.2-0.7,4.2-1.5,6.2-2.4
					C69.2,52.3,69.4,51.6,69.6,51.1L69.6,51.1L69.6,51.1z M78.8,41.1c1.4-1.3,1.7-2.7,0.8-4L76.3,40l3.3-0.8L78.8,41.1L78.8,41.1
					L78.8,41.1z M66.5,18.4l2.5-2.9c-0.4-0.2-0.9-0.8-1.1-0.7C66.7,15.4,65.4,15.9,66.5,18.4z M61.3,22l2.8-2.6
					c-1.4-0.8-3.1-0.5-3.5,0.7C60.4,20.5,61,21.2,61.3,22L61.3,22L61.3,22z M55.4,90.9c1.2-2.9,0.9-3.8-1.3-4.2
					C54.4,88.1,53.2,89.9,55.4,90.9z M108.5,45.5c-2.3,1.3-1.1,3.1-1.5,4.7C109,49.6,109.1,49.4,108.5,45.5z M57.7,23.3L57,22.7
					c-0.8,0.6-1.6,1.2-2.2,2c-0.2,0.2,0.1,0.9,0.1,1.4c0.4-0.1,1-0.1,1.2-0.4C56.7,24.9,57.1,24.1,57.7,23.3L57.7,23.3L57.7,23.3z
					 M78.6,18.4c-1.2,1.5-1,2.6,0.6,3.5C80.3,20.2,80.2,19.3,78.6,18.4z M136.7,84.5l0.9,0c-0.1-2.4-0.2-4.9-0.3-7.3h-0.6V84.5z
					 M81.1,16c1.4,1.8,2.6,1.4,4-0.5C83.2,13.1,82.9,16.7,81.1,16z M82.1,42.8c-1.8,1.7-2.5,2.9-2.3,3.6
					C80.5,45.1,83.6,45.6,82.1,42.8z M59.6,27.9c1.2-1.5,2.1-2.5,3.2-3.9C59.9,24.6,59.6,24.9,59.6,27.9z M70.8,66.1l0.3-0.8l-6.1-2
					L64.7,64L70.8,66.1L70.8,66.1L70.8,66.1z M89.4,35.2c-0.9-0.7-1.6-1.7-2.6-0.5c-0.2,0.3-0.1,1.2,0.2,1.4
					C88.1,37.2,88.8,36.5,89.4,35.2z M76.6,16.2l0.3-1.1l-2.8-1.2c0,0.7-0.2,1.8,0.1,2C74.9,16.3,75.8,16.1,76.6,16.2L76.6,16.2
					L76.6,16.2z M83,66.1c-1.9-1.8-2.6,0.1-3.7,0.9C80.9,68.2,82.1,67.9,83,66.1z M94.6,36.3h0.8l1.8-2.3h-2.7L94.6,36.3z
					 M64.6,26.7c-1.7,0.1-2.4,1.7-3.5,2.7C63.4,30.2,63.4,27.6,64.6,26.7z M62.3,22.5l4.3-2.1l-0.4-0.7
					C64.1,19.5,63.2,21.2,62.3,22.5z M88.9,37.4L92,37c-0.2-0.5-0.2-1.1-0.6-1.4C90,34.7,89.8,35.9,88.9,37.4L88.9,37.4L88.9,37.4z
					 M91.8,28.4l1.1-3L92.4,25c-0.7,0.6-1.4,1.1-1.9,1.8C90.4,26.9,91.2,27.6,91.8,28.4L91.8,28.4L91.8,28.4z M50.7,33.6l3.7,1.3
					l-0.5-3L50.7,33.6L50.7,33.6L50.7,33.6z M98.3,24l3.7-1.2C100.2,21.3,99.1,21.7,98.3,24z M67.8,27.6l-3.2,3.6
					C66,31.6,67.6,30,67.8,27.6z M109.1,100.9h-0.2v7.5h0.2V100.9z M50.3,42.5h-0.2v11.2h0.2V42.5z M87,11.9l-0.6-0.3l-2.8,2
					c1,0.2,1.9,0.7,2.1,0.5C86.3,13.6,86.6,12.7,87,11.9L87,11.9z M95.6,30.8c-2-0.9-2.1-0.9-2.8,1l1.9,0.7
					C94.7,32.5,95.6,30.8,95.6,30.8z M110.1,90.2l-0.2,0.1v10.5h0.2V90.2z M50.5,24.7c2.2,1.8,2.8,0,3.6-0.9l-0.2-0.5L50.5,24.7
					L50.5,24.7L50.5,24.7z M56.2,28.8c-2.6-1.6-2.7-1.5-2.8,0.8L56.2,28.8z M109.7,23.6c-1.1-1.2-1.9-1.2-2.6,0.5
					C108.2,25,109.1,25.1,109.7,23.6z M67.4,4.9c-1.7-1.4-2.7-0.9-3.2,1.3L67.4,4.9z M73.9,12.3c1.6,0.2,2.5-0.1,2.8-0.8
					C75.6,11.3,74.5,10.3,73.9,12.3z M101.2,25.8l-0.5-0.5l-2.4,1.2l0.2,0.5l2,0.5L101.2,25.8L101.2,25.8L101.2,25.8z M119.5,83.3
					l-4,1.7l3.3,0.5L119.5,83.3z M86.1,46.1l0.4-0.3l-1.1-2l-1.8,1.7L86.1,46.1L86.1,46.1L86.1,46.1z M63.4,9.8
					c-1.7-1.3-2.2,0.9-3.5,0.9C61.6,12.1,62.4,11,63.4,9.8z M82.7,12.6l0.3,0.5c0.7-0.4,1.5-0.7,2.1-1.2c0.2-0.2,0.2-0.7,0.2-1.1
					c-0.4,0-0.9-0.1-1.1,0.1C83.6,11.4,83.2,12,82.7,12.6C82.7,12.6,82.7,12.6,82.7,12.6z M82.6,89.6l1.6,3.5l0.5-0.1
					c-0.2-0.9-0.3-1.9-0.6-2.8C84.1,89.8,83.3,89.8,82.6,89.6z M94.3,32.7l-3.7,1.3C93,36,93.4,34.4,94.3,32.7z M67.1,92.2l0.2,0.3
					l3.1-1.2v-1.6L67.1,92.2L67.1,92.2z M51.5,52.6l0.5,0.1l-0.4-6.9l-0.4,0C51.3,48.2,51.4,50.4,51.5,52.6z M94.5,23.1
					c-1.5-1.1-2-0.1-2.5,1.1l1.8,0.7L94.5,23.1z M121.4,60.5h0.2v-9.6h-0.2V60.5z M102.4,17.4c-1.8-1.9-2-1.9-2.9,0H102.4z
					 M92.9,17.2l-3.2-2.3C89.7,16.8,90.6,17.4,92.9,17.2z M109.6,65.8c2.4-0.1,3.2-0.9,2.6-2.9L109.6,65.8z M73.5,13.4l-0.6-0.5
					c-0.5,0.4-1.1,0.8-1.3,1.4c-0.1,0.3,0.4,0.9,0.9,1.9C72.5,16.2,73.5,13.4,73.5,13.4z M72.5,99.6l0.2,0.9l3-0.8l-0.3-1
					C74.5,99,73.5,99.3,72.5,99.6z M86.5,103.8l0.7-0.1l0.6-3.4c-0.5,0.1-1.2,0.2-1.2,0.3C86.4,101.7,86.5,102.7,86.5,103.8
					L86.5,103.8L86.5,103.8z M95.5,22.6l-0.1-2l-2.2,0.3l0.1,0.5L95.5,22.6L95.5,22.6L95.5,22.6z M146.1,84.2L146.1,84.2l0.1-8.4
					h-0.1V84.2L146.1,84.2L146.1,84.2z M97.1,44.3l-2.6,0.8l0.1,0.6l1.9,0.7L97.1,44.3L97.1,44.3L97.1,44.3z M74,11l-0.4-1
					c-0.6,0.2-1.3,0.4-1.8,0.7c-0.2,0.1,0.2,0.9,0.2,1.3L74,11L74,11z M92.4,38c1.7,1.3,2.1,0.3,2.6-1l-1.7-0.7L92.4,38L92.4,38
					L92.4,38z M113.6,86.4l-2.6,1.2l0.1,0.4l1.7-0.1l0.8,2.4V86.4L113.6,86.4L113.6,86.4z M71.4,10.4l0-0.6
					c-0.8-0.1-1.5-0.4-2.2-0.3c-0.3,0-0.4,1-0.7,2.1L71.4,10.4L71.4,10.4L71.4,10.4z M70,6.7c-1.8-0.8-2-0.8-2.6,0.6
					C68.3,7.7,69.3,8.5,70,6.7z M102.8,21.3l0.2,0.9c1,0.4,2,1,2.6-1.4L102.8,21.3L102.8,21.3L102.8,21.3z M73.2,51.3l0.3,1.8
					l2.5-0.8L76,51.8C76,51.8,73.2,51.3,73.2,51.3z M69.5,14.5l2.4-1.5C69.9,11.9,69.5,12.1,69.5,14.5z M96.6,40.7L96,41.2l1.7,2.3
					l0.8-1.8L96.6,40.7z M90.2,24l-3.5,1.1l0.1,0.5l1.9,0.5L90.2,24C90.2,24,90.2,24,90.2,24z M107,25.1c-1-0.4-2.2-1.4-2.5,0.7
					C105.6,26.4,106.4,26.1,107,25.1z M78.4,66.6l0.2-0.7c-1,0.3-1.2-2.4-3.1-0.2C75.6,65.7,78.4,66.6,78.4,66.6z M91.8,14.3l-0.2,1
					l2,0.5l0.3-1.1C93.8,14.7,91.8,14.3,91.8,14.3z M100.8,20.5l0.8,0.8c0.5-0.6,1-1.1,1.5-1.7c0.1-0.1-0.4-0.5-0.6-0.7L100.8,20.5
					L100.8,20.5L100.8,20.5z M61.7,46.1L61.7,46.1l-0.1,7.6h0.1V46.1z M96.9,24.9l-0.2-1l-1.9,0.2l0.3,1.4L96.9,24.9z M68,5
					c1.8,0.8,2.1,0.6,2.3-2L68,5z M46.7,70.1l0.1-0.4l-6.1-2.1l-0.2,0.5L46.7,70.1z"/>
				<path class="st1" d="M4.6,82.6c1.7-1.2,3.3-2.5,5.1-3.6c1.8-1.1,3.7-2,5.5-3.2c1.8-1.2,3.3-2.8,5.2-3.9c2.1-1.2,4.2-2.6,6.5-3
					c1.8-0.3,4.1,0.4,5.6,1.5c1,0.7,1.6,2.9,1.4,4.3c-0.4,3.6,1.8,4.9,4.3,6.3c-0.5,0.2-0.9,0.3-1.4,0.4c-0.4-1.4-3.2-2.2-4.9-1.3
					l2.7,2l-1.9,2.1c1.9-0.8,3.6-1.9,5.3-2.9c0.1-0.1,0.1-0.2,0.1-0.4l2.1,1.4c-1.2,0.6-2.1,1-3,1.4c-1.7,0.7-3.4,1.4-5.2,1.8
					c-2.3,0.5-4.7,0.3-6.7,1.8c-0.1,0.1-0.5,0-0.5-0.1c-0.5-1.3-1.8-1.4-2.7-1.3c-1.3,0.2-2.6,0.9-3.9,1.4c-0.7,0.2-1.4,0.3-2.1,0.5
					l-0.1-0.6l1.7-0.4c-1.6-1.8-3.3-1.6-4.2,0.5c-0.6,1.4-2.4,2-3.9,1.2c-1.2-0.6-2.2-1.4-3.4-1.9c-0.7-0.2-1.6,0.1-2.4,0.2
					c-0.7,0.1-1.4,0.2-2,0C2.8,86.1,4,85.8,5,85C5.3,84.7,4.7,83.4,4.6,82.6L4.6,82.6C4.6,82.5,4.6,82.6,4.6,82.6z M32.5,71.8
					c-3-1.8-5.9-1.8-8.5-0.7c-3.1,1.4-6,3.6-8.9,5.5c-0.3,0.2-0.4,0.6-0.7,1.2c0.8,0,1.3-0.1,1.6,0c0.6,0.3,1.1,0.8,1.7,1.2
					c-0.5,0.4-1,0.8-1.6,1.1c-0.5,0.2-1.1,0.2-2.1,0.4l3.9,0.6l4-3.1l1.3,2.7L27,78l-0.5-0.7l-3.4,2.4c0.8-1.4,1.4-2.7,2.2-3.9
					c0.2-0.3,0.9-0.4,1.4-0.5c0.3-0.1,0.6-0.3,0.9-0.4c-0.2-0.3-0.3-0.7-0.6-0.8c-0.9-0.4-1.9-0.6-3.1-1c1.5-0.3,2.8-0.4,4-0.7
					c0.6-0.1,1.3-0.5,1.9-0.7l0.5,2.1L32.5,71.8L32.5,71.8L32.5,71.8z M23.3,84.1c0.9,0.7,1.8,1.7,2.3,1.6c2-0.5,4-1.3,6.1-2
					C28.7,80.9,29.1,80.8,23.3,84.1z M8.6,80.6l0.1,0.5l3.7,0.4l0.2-3.1L8.6,80.6L8.6,80.6L8.6,80.6z M9.3,84.5l-3.1-0.7
					c0.2,1.7,0.8,2.9,2.5,3.5L9.3,84.5z M17.4,78.6C16,78.4,15,78.3,14,78.2c-0.3,0-0.6,0.4-0.8,0.6c-0.1,0.1,0.2,0.6,0.3,0.6
					C14.7,79.6,16,80.1,17.4,78.6z"/>
				<path class="st1" d="M123.2,115.4c0.7-1,1.2-1.9,2-2.9c1,0,2.3-0.1,3.6,0.1c0.7,0.1,1.5,0.7,2,1.3c0.2,0.3-0.2,1.6-0.5,1.6
					c-1.5,0.1-2.9,0.1-4.4,0L123.2,115.4L123.2,115.4z"/>
				<path class="st1" d="M151.2,102.6c-0.1,0.6-0.2,0.9-0.2,1.3c0.1,0.1,0.2,0.2,0.3,0.2c0.8,0.3,1.5,0.7,2.3,1
					c-0.6,0.5-1.1,1.2-1.7,1.5c-1.6,0.8-3.4,1.5-5,2.2l-0.2-0.5l1.8-0.9l-0.1-0.4l-0.9,0.2L151.2,102.6L151.2,102.6L151.2,102.6z"/>
				<path class="st1" d="M98.4,122c-2.2,0.4-3.5,0.7-5,1c-0.7-2.3,2.5-1.5,2.3-3.3l0.5-0.2L98.4,122z"/>
				<path class="st1" d="M118.2,122.2v-3.5c1.9,2,2.1,2,4.4,0.9C122.9,120.7,121.4,121.6,118.2,122.2L118.2,122.2L118.2,122.2z"/>
				<path class="st1" d="M43.3,90.2L45,91c-2.9,2-4.4,2.1-5.6,0.3c1.2,0,2.3,0,3.4,0C44,91.4,43.6,90.7,43.3,90.2L43.3,90.2
					L43.3,90.2L43.3,90.2z"/>
				<path class="st1" d="M89.5,112.3c0.3-1.4,0.2-2.4-1.6-2.7c-0.6-0.1-1.1-0.9-1.5-1.5C88.8,108.5,89.9,109.9,89.5,112.3
					L89.5,112.3L89.5,112.3z"/>
				<path class="st1" d="M4.6,82.6c-0.2,0.1-0.5,0.3-0.7,0.2c-2.5-0.7-3-0.4-3.3,1.9c-1.1-1.4-0.7-1.9,2.8-3.3
					C3.8,81.9,4.2,82.2,4.6,82.6C4.6,82.6,4.6,82.5,4.6,82.6L4.6,82.6L4.6,82.6z"/>
				<path class="st1" d="M112.5,124.7c1.1-0.2,2.2-0.3,3.5-0.5C115,126.2,113.9,126,112.5,124.7z"/>
				<path class="st1" d="M62.6,97.7c-1.8-2.2-1.7-2.9,1-3.8l0,0c-0.1,0.9-0.2,1.9-0.2,2.8C63.3,96.7,62.6,97.7,62.6,97.7z"/>
				<polygon class="st1" points="104.7,85.9 104.7,85.8 104.7,85.9 				"/>
				<path class="st1" d="M99.5,82.8l-1.1,0.7c-1.2-0.9-2.2-1.7-3.6-2.9L99.5,82.8L99.5,82.8z"/>
			</g>
		</g>
	</g>
</g>
</svg>
