<?xml version="1.0" encoding="UTF-8"?><svg id="b" xmlns="http://www.w3.org/2000/svg" viewBox="0 0 75.87 60.99"><g id="c"><g id="d"><g id="e"><g><path d="M16.04,16.8c.94-.76,1.71,.05,2.51,.3,.91,.29,1.78,.7,2.84,1.14-.04-1.03-1.1-.9-1.36-1.48,.61,.34,1.65,.22,1.52,1.38,0,.06,.11,.17,.19,.2,1.02,.32,2.04,.63,3.17,.98-.05-.3-.02-.54-.11-.58-.27-.15-.58-.21-.86-.34-1.13-.55-2.25-1.13-3.39-1.67-.17-.08-.44,.07-.66,.11l-2.55-.95v-1.04c2.84,1.06,5.6,2.1,8.47,3.17l.56-.66c-2.94-1.06-5.79-2.09-8.63-3.11l.13-.33,8.6,3.24c.91-1.22,1.8-2.39,2.68-3.57,.08,.36,.04,.61,.64,.32,1.28-.62,2.66-1,3.99-1.49,1.54-.57,3.1-1.08,4.6-1.73,.89-.39,.95-1.76,.24-2.37-.17-.15-.23-.49-.25-.74-.03-.45,.02-.9,.04-1.36l.03-.03c.59,.1,.37,.43,.25,.77-.25,.71,.11,1.03,.8,1.05,.32,.01,.64-.03,.96-.05-.24,.45-1.47,.16-.82,1.39l1.4-1.56,2.24-1.42-3.81-1.8,.17,.9-.79-.22c.02-.77,.4-.94,1.08-.69,2.12,.77,4.22,1.54,5.79,3.31,.52,.59,1.23,1.01,1.87,1.53l-1.59,1.17c1.42,.54,2.65,1.02,3.9,1.47,.88,.32,1.75,.69,2.66,.89,2.59,.56,4.46,2.17,6.26,3.96,1.51,1.5,3.13,2.9,4.7,4.34,.8,.73,.71,1.76-.31,2.18-.65,.27-.75,.66-.74,1.27,.06,5.46,.09,10.93,.13,16.39,0,.62,.18,1.07,.92,1.08,.21,0,.42,.11,.66,.18l.21-.73c.29,.86,.49,1.72,1.77,1.7-.13,1.06-.02,2.14-.44,2.95-.27,.53-1.29,.74-2,.95-1.29,.38-2.61,.66-4.19,1.05l.74,.47c-.15,.1-.37,.26-.38,.25-.88-1.12-1.55,0-2.3,.22-.18,.06-.36,.13-.54,.19,1.15-.7,.77-1.8,.77-2.79-.12-.04-.17-.07-.23-.07-.1,0-.23,.09-.28,.05-1.1-.91-1.75-.82-1.8,.76-.03,.76-.13,1.52-.2,2.28,.56-.09,1.11-.19,1.67-.28,.03,0,.06,.01,.1,.02-.97,.6-1.94,1.19-2.99,1.84-.05,.69,.6,.72,1.14,.82,1.42,.25,1.41,.23,1.42,1.65,0,.31,.05,.62,.07,.81l1.17,.49-.11,.28-1.09-.08v1.24l-1.49-.46-.47,1.18c-.46-.27-.84-.49-1.22-.72h.98v-3.24l-.23-.03c-.05,.55,0,1.14-.19,1.63-.19,.48-.63,.87-.98,1.31l.45,.34h-.74c.35,.23,.53,.3,.62,.43,.15,.21,.37,.48,.33,.67-.05,.21-.33,.47-.56,.53-.32,.09-.7,.11-1.02,.02-1.07-.29-2.12-.68-3.2-.97-.44-.11-.95-.14-1.37-.02-.51,.16-.96,.39-1.46,.04,.41-.22,.82-.43,1.23-.65l-.39-.45,.64-.23c-.66-.46-1.94-.23-3.06,.71,.99-.19,1.71-.33,2.43-.48-.71,.29-1.42,.59-2.13,.89l.14,.33,1.17-.15c-.58,.43-1.15,.85-1.79,1.32,.34,.37,.56,.61,.77,.84l-.22,.16c-.59-.3-1.18-.6-1.87-.94v1.64h.16l.17-.93,.66,.73,.62,.3c-1.15,.73-2.33,1.15-3.39,.39,0-.66-.03-1.23,.01-1.79,.03-.48-.01-1.03,.82-.78,.13,.04,.46-.57,.69-.89l-.19-.25c.26,.08,.52,.22,.78,.24,.32,.02,.66-.03,.97-.1,.09-.02,.19-.37,.17-.38-.27-.17-.56-.31-.89-.48,1.22-.39,2.46-.79,3.84-1.24l-.78-.49c.03-.05,.05-.12,.09-.13,.66-.21,1.33-.4,1.98-.64,.79-.28,1.56-.61,2.34-.92,.37,.82,.83,1.56,1.68,1.83,.29-1.08,.57-2.11,.87-3.19-.95,.16-1.6,.62-1.91,1.52l-.66-.13-1.25-.95,.07-.83,.35,.78c.32-.99-.06-1.82-.86-1.99-.26,.79-.63,1.24-1.12,1.35l-.09-1.34c-.58,.52-1.63,.2-1.58,1.37l1.22-.46,.1,2.04c-.37,.37-.84,.39-1.4,.05-.58,.19-.49,1.23-1.39,1.08-.13-.02-.34,.46-.57,.78l-1.49-.87c-.21,.19-.5,.67-.78,.67-1.13-.01-2.26-.17-3.57-.29,.33-.54,.56-.88,.76-1.23,.21-.35,.39-.72,.6-1.09-.37-.12-.88,.23-1.5,1.05l-2.24-1,.21-1.37-.21-.05-.24,.75c-1.92,.04-3.57-.86-5.27-1.58-.26-.11-.35-.64-.59-1.11l-1.38,.46c.04,.07-.06-.25-.15-.25-1.29,.03-2.6-.47-3.86,.18-1,.51-1.99,1.02-3.01,1.49-.46,.21-.96,.32-1.52,.51-.08-.39-.13-.7-.19-1-.28-.21-.53-.5-.85-.63-.84-.33-1.7-.62-2.57-.89-.22-.07-.48-.01-.72-.01l-.08,.35c1.28,.48,2.55,.96,3.83,1.42,.09,.03,.26-.16,.39-.25l-.51,.79c-1.59-.69-3.06-1.31-4.51-1.95-.25-.11-.47-.35-.73-.38-.37-.05-.76,.04-1.28,.07v-4.91c-.39,.11-.7,.77-.91,1.99v-1.58c-.92,.99-.35,2.22-.65,3.43-1.23-.49-2.39-.95-3.6-1.43v-2.11h-.19l-.09,1.84-.16,.02v-2.3l.98,.07-.98-.46-2.58,1.92c-.14-.84,.01-1.99-.45-2.32-.79-.57-1.95-.64-2.95-.92l.03,.03-.14-.43c.23-.01,.48-.09,.68-.02,.93,.33,1.84,.71,2.85,.9l-.79-.45v-1.96c.69-.23,1.36-.49,2.05-.65,.14-.03,.46,.32,.55,.56,.28,.75,.81,.9,1.47,.41,.11-.08,.36,.05,.53,0,.11-.03,.18-.19,.4-.45,.18,.82,.33,1.52,.49,2.24-.6,.15-1.2,.29-1.81,.44l-.03,.33c.38,.1,.87,.39,1.12,.26,.32-.17,.47-.69,.69-1.05l.72-.46c.47,.1,.89,.19,1.32,.29,.97,.39,1.89,1,3.03,.56-.98-1.2-1.16-1.27-2.38-.93,.42-.38,.37-.69-.16-.91-.32-.13-.64-.26-.97-.33-.27-.06-.56-.05-.85-.07l.22,1.01c-.15-.04-.43-.07-.43-.11,0-.67,.04-1.34,.09-2.25l.82,.72,.28-1.13-.54,.17-.17-.14c.21-.17,.39-.41,.63-.51,.37-.15,.76-.17,.73,.44-.05,1.06,.53,1.81,1.32,2.4,.25,.19,.62,.23,1.08,.39v-3.89c0-1.97,0-3.94,0-5.91,0-.97-.36-1.8-1.09-2.51l2.43,.97,.15-.32c-.6-.27-1.2-.53-1.79-.83-.3-.16-.56-.39-.84-.6l1.03-.64-.4-.13c1.38-.57,2.74-1.1,4.07-1.69,.26-.12,.58-.46,.58-.7,.05-1.74,.03-3.49,.02-5.23,0-.64-.19-1.02-.95-1.18-.86-.19-1.65-.68-2.47-1.05l.06-.25c.3-.08,.6-.15,.89-.22-.11,.14-.22,.27-.37,.47l8.64,3.08,.13-.35c-2.8-1.06-5.6-2.13-8.41-3.19h0Zm22.5-2.14c.08,.05,.16,.11,.24,.15,.22,.1,.45,.19,.67,.29-.03-.24-.03-.5-.09-.73-.07-.26-.19-.51-.28-.75l1.17,1.08c.25-.07,.57-.1,.82-.23,.29-.16,.54-.43,.8-.64,.52-.42,.57-1.84,.1-2.14-.41-.25-.78-.55-1.19-.8-.18-.11-.41-.15-.61-.22l-.21,.7c-.43-1.22-.94,.09-1.59-.39,.29,1.04,.52,1.85,.74,2.66-.5-.12-.88-.06-.82,.59-.33-.05-.86-.42-.7,.4l-1.58-.6,1.88,2.8c-.37-.46-.73-.93-1.13-1.35-.21-.22-.51-.35-.76-.53l-.16,.24c.54,1.04,1.06,2.09,1.64,3.11,.14,.25,.45,.42,.68,.63l.29-.94,.85,.32,.13-.25-.83-1.48,.15-.07,1.17,1.64,.54-2.15c.31,.46,.45,.77,.68,1,.37,.37,.75,.04,.84-.74,.31,.31,1.06,.27,.8,1.03-.31,.19-.74,.31-.93,.59-.7,1.06-1.33,2.17-2.07,3.4-.32-1.63,1.59-2.1,1.39-3.8-.4,.43-.69,.63-.83,.91-.49,1.01-.97,2.04-1.37,3.09-.08,.2,.2,.53,.32,.8,.04,.09,.06,.22,.12,.25,2.9,1.08,5.81,2.16,8.72,3.2,.19,.07,.58-.1,.71-.27,.89-1.23,1.74-2.49,2.57-3.75,.28-.43,.44-.92,.69-1.36,.99-1.69,2.01-3.36,3-5.05,.17-.29,.26-.62,.38-.94l-.25-.1-.57,.96,.15-1.1c-.37-.15-.7-.29-1.03-.42-1.65-.58-3.36-1.03-4.93-1.77-1.7-.79-2.87-.39-3.87,1.05-.68,.98-1.4,1.93-2.03,2.78l-1.02-.25,.04,.74c-.29-.31-.55-.84-.88-.88-.5-.06-1.06,.15-1.54,.35-1.18,.52-1.48,.4-1.87-.87l1,.69-.13-.9h0Zm-5.89,4.52l.89,1.98,.31-.17c-.16-.74-.53-1.37-1.23-1.8-.67-1.34-1.33-2.67-2-4.01l-.35,.2c.79,1.27,1.58,2.53,2.37,3.79Zm7.54,29.09c.71,.01,1.22,.16,1.22,1.07,0,.62,.48,.73,1.05,.36l-.9-.43,.41-.76c-.95-.35-1.96-.72-2.97-1.09l-.07,.17c.43,.23,.86,.47,1.28,.7l-.32,.67-.15-.27c.03,.64-.35,1.36,.45,1.79v-2.22h0ZM17.08,28.93c-.1-1.08-.66-1.33-2.19-.82l2.21,.8c.87,.58,1.74,1.07,2.86,.09-1.05-.18-1.93-.77-2.88-.07Zm33.59,17.06c.12,.21,.31,.4,.35,.62,.12,.71,.19,1.43,.28,2.15l.27,.03c.56-.98,.46-2.07,.44-3.28-.5,.19-.91,.34-1.32,.5-1.31,.21-1.51,.61-.98,2.3,.07-.74,.12-1.24,.17-1.74h.19l.16,1.48c.69-.62,.49-1.36,.44-2.08h0Zm4-26.28l2.87-1.77-.17-.31c-.88,.45-1.78,.88-2.63,1.37-.11,.07-.04,.46-.05,.7,.02,1.84,.02,3.68,.08,5.52,.01,.27,.3,.54,.47,.8l.25-.15,.08-.5,1.27-.34c-.65,.92-1.3,1.83-1.99,2.8,1.18-.56,2.33-1.08,3.46-1.65,.16-.08,.32-.33,.32-.51,.04-.72,.02-1.44,.02-2.2-.73,.22-1.28,.68-1.65,1.38v-.88l-2.03,.87c0-1.61,.01-3.06-.02-4.51,0-.21-.19-.42-.28-.63h0Zm6.49,19.17c-1.19,1.03-.55,2.34-.67,3.57,.76,0,.94-.31,.87-.91-.11-.88-.14-1.77-.21-2.66v-1.69l.62,1.02c-.47,1.13-.42,2.24,.08,3.34,.44-1.22,.61-2.44,.09-3.67,.1-.82,.19-1.64,.3-2.58-1.58,.65-2.15,2.23-1.59,3.98,.19-.14,.35-.27,.52-.41h0Zm-18.37,9.17c.1-.32,.28-.64,.28-.96,.02-1.96,0-3.92-.02-5.89,0-.23-.06-.46-.09-.68-.23,.15-.34,.31-.34,.48-.02,2.12-.03,4.24-.02,6.36,0,.24,.13,.48,.2,.71-1.71-.64-3.42-1.29-5.12-1.93l-.1,.26c1.59,.61,3.17,1.22,4.77,1.81,.11,.04,.29-.1,.44-.16h0Zm-14.9-5.2c.13-.24,.35-.48,.38-.73,.06-.74,.07-1.48,.06-2.23-.03-1.45-.09-2.9-.14-4.34h-.26c-.04,.16-.12,.33-.12,.5-.06,1.84-.13,3.68-.15,5.52,0,.44,.17,.87,.27,1.31l-2.79-.84-.1,.24,3.3,1.37-.45-.8h0Zm-12.33-4.64c.77,1.27,2.21,.83,3.23,1.45l.1-.25-3.35-1.16c-.14-.36-.4-.71-.41-1.07-.02-2.13,.04-4.26,.04-6.39,0-.33-.17-.66-.26-.99l-.3,.08c0,2.58,0,5.15,0,7.74,0,.65,.46,.69,.95,.62h0Zm15.52-17.25c.88,.88,1.01,.89,1.93,.04-.97-1.69-1.76-3.5-2.94-4.92-.87,1.1-1.64,2.08-2.57,3.26,1.11,.02,1.86,1.06,3.13,.61,.11,.25,.29,.65,.47,1.05-1.29-.26-2.36-1.24-3.76-1.12,1.04,.55,2.12,.94,3.21,1.29,.14,.05,.34-.13,.52-.2Zm24,16.3c.65-.65,.92-1.41,.73-2.33-1.29,.29-1.71,.99-1.3,2.15,.04,.11,.37,.11,.58,.16l.79,.11c.1,2.55,.2,5.04,.3,7.46l1.63,.58c-.12-.46-.38-1-.39-1.54-.03-1.95,.02-3.91,.05-5.87,0-.24,.07-.5,.18-.7,.25-.44,.71-.83,.79-1.29,.08-.47-.13-1.03-.35-1.48-.09-.18-.71-.32-.8-.23-.26,.29-.37,.72-.52,1.03l-.28-.74-.28,.04c-.03,.33-.13,.67-.09,.98,.14,.89-.1,1.49-1.06,1.66h0Zm-.93-16.87c-.79,1.11-1.43,2.02-2.07,2.92-1.65,2.33-3.26,4.66-2.89,7.77,.1,.84,.07,1.63,.7,2.32,.3,.32,.36,.87,.55,1.31,.09,.21,.22,.4,.34,.6l.47-.42c.1,.44,.2,.88,.34,1.48,.19-.27,.25-.32,.25-.37,0-1.48,.11-2.98-.05-4.45-.19-1.76,.21-3,2.08-3.43,.15-.04,.27-.15,.26-.14v-7.57h0Zm-19.57,2.82l-.03,.43c4.47,1.54,8.94,3.08,13.45,4.63,.34-.59-.12-.75-.6-.93-2.98-1.09-5.96-2.19-8.95-3.27-.97-.35-1.95-.67-2.95-.95-.28-.08-.62,.05-.94,.09h0Zm9.5,12.51c.09-1.03,.19-2.02,.25-3,.03-.41,0-.85-.1-1.25-.13-.54-.35-1.05-.54-1.58l.26-.17-1.7-.48c0,1.46,.12,2.75-.03,4.02-.19,1.71-.28,1.7,1.3,2.28,.15,.06,.3,.09,.54,.16h0Zm-27.94-5.39c0,1.31-.01,2.44,.01,3.56,0,.16,.13,.39,.26,.46,.75,.33,1.52,.62,2.4,.97,0-1.29,.03-2.38-.02-3.48-.01-.25-.24-.62-.47-.72-.63-.29-1.32-.48-2.19-.78h0Zm32.69-4.07c-.3-.07-.6-.1-.88-.2-3.55-1.29-7.1-2.59-10.65-3.85-.46-.16-.98-.13-1.47-.19,.17,.33,.36,.45,.57,.53,.93,.36,1.87,.71,2.81,1.05,.94,.35,1.88,.68,2.82,1.03,.94,.35,1.85,.8,2.81,1.04,.89,.22,1.67,.65,2.48,1.03,.46,.21,.86,.52,1.31,.8l.2-1.24h0Zm-15.9,6.32c.7,.03,1.12-.09,1.12-.92-.02-1.71,.08-3.42,.07-5.13,0-.77,.1-1.72-.3-2.26-.37-.51-.46-.56,.07-.88,.08-.05-.1-.5-.15-.75-.2,.13-.49,.22-.57,.39-.13,.28-.15,.62-.16,.94-.03,1.39,.02,2.78-.07,4.17-.09,1.3,.56,2.61-.06,3.91-.06,.12,.03,.3,.05,.53h0Zm16.61,13.15l.32,.2c.36-.3,1.01-.57,1.04-.9,.16-1.77,.17-3.56,.24-5.55-.96,.47-1.58,.86-1.59,1.71-.03,1.51-.01,3.02-.01,4.54ZM23.39,26.41v-.3c-.59-.17-1.17-.36-1.78-.49-.59-.12-.85-.39-.84-1.03,.04-1.65,.01-3.31,.01-5.07-.82,.22-1.22,.54-1.21,1.22,.02,1.29,0,2.58,.1,3.86,.03,.36,.36,.84,.69,1.01,.73,.38,1.54,.64,2.33,.9,.2,.07,.45-.06,.68-.09h0Zm32.23,11.16c-1.01,.46-1.99,.9-2.99,1.33-1.31,.56-1.41,.78-1.04,2.32,.97-.43,1.92-.9,2.91-1.27,1.3-.49,1.47-.76,1.12-2.38Zm5.77-14.54c-.96-1.13-1.67-.25-2.2,.08-.28,.18-.14,1.04-.19,1.6h.03c-.09,1.65-.17,3.28-.26,4.91l.42,.14c.19-.29,.5-.56,.53-.87,.09-.82,.12-1.66,.07-2.48-.1-1.4-.11-2.72,1.62-3.38Zm.17,9.14c-2.05,.47-2.79,1.64-2.55,4.04l1.72-1.1-.68-.46c.8-.68,1.94-1.06,1.51-2.48h0Zm-31.04,1.9l-.14,.35c4.21,1.62,8.42,3.23,12.63,4.84l.15-.38c-4.21-1.6-8.42-3.21-12.64-4.81Zm8.73,19.44c2.02,.89,2.24,.89,2.76-.03,.37-.67,.49-1.36-.22-1.84,.11-.19,.35-.48,.3-.54-.2-.25-.49-.44-.88-.76l-.12,1.78c-1.23-.5-.8,.45-.81,.96l-1.03,.44Zm-13.92-27.29c.13-1.6,.42-3.21-.41-4.78-.36,.59-.57,1.2-.66,1.83-.08,.54,.08,1.12-.05,1.64-.24,.96,.17,1.27,1.11,1.32h0Zm17.59-12.53l.75,.33c.87-.97,1.72-1.93,2.7-3.03l-2.09-.52c-.1,.55-.08,1.29-.28,1.36-1,.32-.76,1.21-1.09,1.87h0Zm-18.72,13.93l-.15,.19,.72,.96-.64-.17-.02,.1c1.58,2.18,1.25,1.8,2.54,1.95v-2.27l-2.45-.75h0Zm11.11,1.87c-.59,1.69-.1,3.26,1.46,3.18,.24-2.18-.19-3.28-1.17-2.94l-.15,.53-.13-.78h0Zm22.39-10.17c-.07,1.11-.14,2.14-.17,3.16,0,.17,.16,.45,.31,.5,.16,.06,.5-.05,.57-.18,.19-.35,.27-.76,.42-1.14,.5-1.28,.29-1.78-1.13-2.34h0Zm-26.84,2.7v7.76c.8-.45,.86-5.73,0-7.76Zm-2.96,11.85l.1-.23c-2.47-1.46-5.21-2.24-7.88-3.19l-.13,.31,7.91,3.11Zm20.12-4.52c-2.15-1.31-4.57-2-7-2.65,2.22,1.16,4.62,1.85,7,2.65Zm-9.95,3.87c.84-1.47,.29-3.04,.4-4.61l-.76,.15c-.16,3.39-.11,4.04,.36,4.46Zm-3.42-20.61c1.41,1.4,1.91,1.47,2.92,.52l-.77-1.32-2.14,.79Zm14.61,24.79c-.73,1.81-.24,3.66-.2,5.5,.12-.37,.1-.75,.12-1.13,.04-.48-.08-1.12,.19-1.4,1.03-1.06,.07-1.98-.12-2.97h0Zm-31.58,6.79l-.15,.42c1.44,.58,2.88,1.17,4.33,1.72,.12,.05,.37-.26,.73-.52-1.78-.64-3.26-1.43-4.92-1.62h0Zm34.94-8.16l-1.4,.82c.07,.5,.16,1.16,.25,1.86,1.78-.72,1.94-1.14,1.15-2.68Zm-13.94-3.38l-.27,.23c.15,.26,.24,.65,.46,.75,.9,.4,1.84,.71,2.83,1.08l.22-1.01-3.24-1.04h0Zm-6.53,10.41l.39,.04c-.04-2.07,.44-4.16-.39-6.41v6.37Zm-15.3,2.21c1.08,1.52,2.9,1.61,4.36,2.38,.08,.04,.33-.24,.66-.49-1.82-.68-3.42-1.29-5.02-1.89Zm-.59,1.3l-.11,.28c1.22,1.07,2.81,1.4,4.27,2.01,.08,.03,.34-.15,.34-.23,0-.15-.1-.39-.21-.44-1.42-.56-2.86-1.08-4.29-1.62Zm6.96-1.9l-.03-.28c-1.53-.51-3.06-1.02-4.64-1.55,.09,.7,1.32,1.31,3.96,2,.2,.06,.47-.1,.7-.16h0Zm13.33-9.31c-1.67-.57-3.09-1.97-5.06-1.54,1.65,.64,3.24,1.49,5.06,1.54Zm1.11,3.32v6.63h.23c-.04-2.21,.79-4.42-.23-6.63Zm-6.5-24.01l1.5,2.15,.27-.62,.41,.34c-.08-.48-.33-.86-.44-1.28-.25-.96-.76-1.15-1.73-.58h0Zm-9.52,25.58h.23v-7.26h-.23v7.26Zm26.29-3.4h.24v-5.92h-.24v5.92Zm10.64,4.2c.07-1.57-.09-2.46-.46-2.68v5.47c.42-.95-.19-2.14,1.11-2.94l-.66,.15Zm-37.24-9.07l-.12,.3c2.31,.88,4.62,1.75,6.94,2.63l.11-.26c-2.31-.89-4.61-1.78-6.92-2.66Zm32.82,12.07c-.01,1.2-.31,2.4,.21,3.74,.57-1.2,.42-3.37-.21-3.74Zm-17.51,5.8l.13-.34-5.89-2.17-.11,.29,5.88,2.22Zm11.81-11.99l-.26,.04,.4,9.38h.27c-.14-3.14-.28-6.28-.42-9.41h0Zm-5.6-28.07c-.42-.85-1.09-1.03-1.87-.9-.24,.04-.43,.34-.65,.52,.25,.2,.49,.54,.74,.56,.56,.04,1.12-.1,1.77-.18h0ZM23.55,30.83c.84,1,1.92,1.16,3.11,1.01-.98-.52-1.95-1.08-3.11-1.01Zm9.84-16.77c.8,.88,1.58,1.75,2.56,2.82-.39-.79-.8-1.32-.9-1.9-.19-1.15-.53-1.41-1.66-.92h0Zm-2.54,16.49c-1.1-.95-2.47-1.3-3.87-1.57,1.1,.95,2.51,1.18,3.87,1.57Zm-5.07-2.84c.74,.34,.93,.27,.95-.5,.05-1.25,.01-2.49,.01-3.74-.08,1.27-.91,2.51-.16,3.83l-.8,.4Zm-6.96-2.96l.37,.02c.02-1.83,.17-3.66-.37-5.48v5.46Zm15.88-.34l-.15,.41c1.16,.42,2.32,.84,3.48,1.27l.19-.51c-1.17-.41-2.31-.88-3.53-1.16Zm-14.74,14.32l.16-.02v-6.97c-.09,.16-.16,.24-.16,.31v6.67h0Zm10.62-15.68l-.08-.35c-.22-.06-.51-.22-.64-.14-.47,.28-.92,.63-1.31,1.01-.08,.08,.14,.45,.21,.68l1.82-1.19h0Zm14,21.14v-3.59c-.57,1.43-.53,3.08,0,3.59Zm18.5,2.41c.86-.7,.43-1.59,.5-2.65-1.22,.85-.38,1.83-.5,2.65Zm-39.09-3.48l-3.3-1.16c.54,1,2.62,1.73,3.3,1.16ZM44.65,9.67c-1.01-1.73-1.71-2.15-2.28-1.49l2.28,1.49Zm-12.74,34.39c.78,.84,3.88,1.91,4.66,1.64-1.56-.55-3.01-1.06-4.66-1.64Zm-4.54-16.15l.22-.03v-4.3h-.22v4.33Zm19.75,7.16c.5-.25,.59-1.99,0-4.01v4.01Zm7.06,15.55c.42-.45,.45-1.56,.01-1.81-.21-.12-.54-.07-.81-.03-.05,0-.12,.37-.05,.5,.24,.45,.54,.86,.86,1.35h0Zm-1.19-2.44c.7-.5,.79-2.29,.2-3.28-.07,1.16-.13,2.16-.2,3.28Zm-9.01-1.45l.15-.77c.17,.18,.54,.58,.56,.56,.48-.37,.79-.83,.36-1.44-.92,.09-1.45,.46-1.08,1.65h0Zm4.87-15.31h-.19v4.45h.19v-4.46h0Zm-24.32,2.57h-.19v3.77h.19v-3.77Zm26.51,17.22c.82,.46,.66-1.63,1.78-.52-.11-.32-.25-.62-.43-.64-.99-.11-1.29,.16-1.35,1.16Zm-8.29-11.16l.09-.25c-1.68-.59-3.35-1.19-5.02-1.78l-.08,.22,5.01,1.81Zm-17.23-12.3c.19-.96,.07-1.05-1.39-1.15-.03,.55,.44,.93,1.39,1.15Zm16.87,24.64l.41,.04c.06-1.12,.11-2.25,.17-3.38h-.24l-.33,3.34Zm-7.97-33.62l-.17,.22,.78,1.28,1.08-.55-1.7-.95h0Zm18.31,30.24c.21-1.51-.39-3.27,.55-4.85-.49,.25-.67,1.86-.55,4.85Zm-8.17-14.13c-.35,1.2,.44,1.19,1.08,1.4,.6-1.31-.52-1.06-1.08-1.4Zm-8.58,2.69l.12-.26-3.96-1.49-.1,.25c1.31,.5,2.62,1,3.93,1.49h0Zm-12.38-11.72l.18-.04v-3.34h-.18v3.38h0Zm36.94,19.28v2.27c.35-.79,.84-1.5,0-2.27Zm-9.4,10.65l1.63,.89c.05-1.32-.34-1.53-1.63-.89ZM4.73,39.75c0,.69-.04,1.11,.03,1.5,.02,.11,.36,.16,.55,.24,.07-.37,.21-.75,.17-1.11-.02-.17-.35-.31-.75-.63h0ZM43.9,10.88l-.05-.41-1.63-.23,.23,1.01,1.44-.37Zm-24.14,15.15c1.08,.12,1.91,1.16,3.09,.92-1.05-.25-1.93-1.09-3.09-.92Zm-12.59,14.72c.3,1.24,1.06,.98,1.75,.98l.08-.25-1.83-.73h0Zm51.16-13.59l-.11,.02v4.25h.11v-4.27Zm-10.29,16.03l-.14,.02v2.77h.14v-2.79Zm-16.29,4.11l.41,.13,.56-2.1-.46-.07-.15,1.69-.24-.02v-1.81h-.11v2.18Zm6.81-21.68l-.22,.42,2.17,.87,.18-.41-2.14-.89h0Zm-19.26,10.5l.12-.31-3.2-1.23-.11,.27,3.18,1.27Zm31.6,20.85l-.05,.24c.76,.08,1.37,.96,2.3,.14l-2.25-.38ZM31.8,24.18l-.09,.02v5.06h.09v-5.08Zm-3.42,4.22l-.19,.38,2.31,.94,.14-.3-2.25-1.02Zm19.7,27.21c.66-.28,1.18-.5,1.77-.74-.8-.74-1.09-.61-1.77,.74ZM19.37,31.69h-.17l-.13,3.02h.3v-3.02Zm-5.89,15.6l.15-.02v-3.79h-.15v3.81Zm13.68-7.54h.14v-2.64h-.14v2.64Zm7.02,2.9l-.08,.24,2.85,.95,.09-.27c-.95-.31-1.91-.62-2.86-.93h0Zm-2.51,.6l.13,.03v-4.11h-.13v4.08Zm5.78-15.32h-.09v4.13h.09v-4.13Zm-8.58-3.13c.85,.22,1.58-.4,1.53-1.24l-1.53,1.24Zm10.78,18.2h.18v-3.3h-.18v3.3h0Z" fill="#41463d"/><path d="M37.28,7l-.25,1.74-.35-.09,.43-.88c-.88-.4-1.72-.84-2.61-1.16-.3-.11-.71,.1-1.07,.16-.11-.22-.17-.57-.34-.63-1.04-.39-2.12-.66-3.15-1.08-.8-.32-1.39-.16-1.92,.47l.5-.97c-.73-.32-1.43-.65-2.14-.92-.07-.03-.26,.25-.4,.39h-.6l.25-1.05-.25-.07-1.94,2.87c.59-1.19,1.18-2.39,1.8-3.64l1.16,.44c.67-.87,1.36-1.75,1.99-2.58,2.83,.21,4.64,2.12,6.57,3.84-.95,.91-.65,2.3,.6,2.74,.56,.19,1.14,.28,1.72,.42h0ZM27.54,2.59l-.42,.67,2.1,.95c.22-.69-.07-.94-.64-1.09-.37-.1-.7-.35-1.05-.53,1.41,.39,2.51-.13,3.28-1.57-.52-.16-1.04-.34-1.56-.47-.26-.06-.69-.14-.8,0-.68,.76-1.29,1.59-1.91,2.4l.14,.12c.29-.16,.59-.31,.88-.47h0Zm5.32,1.45c0,.61-.13,1.07,.04,1.28,.19,.23,.65,.25,1,.35l.08-.22-1.11-1.41Z" fill="#41463d"/><path d="M32.05,9.12c-.17,.13-.33,.27-.5,.4-.04-.15-.07-.3-.1-.45-.18,.08-.44,.11-.54,.24-1.35,1.9-2.67,3.82-4.03,5.72-.15,.21-.46,.32-.69,.48l.03,.03c.02-.2,.09-.57,.05-.58-1.24-.42-2.49-.79-3.74-1.18-.26-.21-.5-.46-.78-.61-.89-.48-1.79-.93-2.69-1.39l.57-.54c.19,.32,.31,.75,.59,.93,.56,.35,1.19,.64,1.83,.79,.38,.1,.85-.1,1.27-.16,.13,.15,.23,.35,.39,.43,.73,.32,1.48,.62,2.24,.9,.16,.06,.36,.01,.55,.01l.06-.31-3.27-1-3.07-1.55c.19-.21,.37-.42,.56-.62,0,.12-.03,.33,.02,.35,.8,.33,1.6,.68,2.43,.93,.23,.07,.57-.19,.86-.3,.24,.66,1.12,.94,1.76,.6,.27-.14,.6-.16,.9-.23l.05,.19-.64,.4,.7,.76c1.24-1.97,2.24-4.08,4.04-4.96l1.15,.71h0Z" fill="#41463d"/><path d="M33,56.15c-1.5,.03-4.35-1.37-4.47-2.17l.98,.49,.05-1.06-.58,.13c-.01-.08-.03-.14-.02-.14,.96-.65,1.92-1.3,2.98-2.02,.6,1.56,1.31,3.04,1.05,4.76Zm-1.84-.78c.1-1.08-.16-1.89-.77-2.43,.33,.86-.39,1.82,.77,2.43Z" fill="#41463d"/><path d="M36.19,57.76l-1.96-.74c1.5-.95,2.78-1.94,4.6-1.16,.34,.15,.94-.28,1.41-.45,.33,.12,.74,.23,1.12,.41,.17,.08,.32,.25,.42,.41,.03,.06-.13,.28-.25,.34-.73,.36-1.47,.74-2.23,1.03-.33,.12-.76,.09-1.11,0-.78-.18-1.54-.45-2.47-.71l.48,.88h0Zm2.28-.49l.37-1.2-1.16-.23,.62,.58-.6,.17,.76,.68Z" fill="#41463d"/><path d="M21.74,14.67l.41-.53,4.08,1.41-.03-.03c.07,.23,.14,.45,.28,.89-1.7-.62-3.22-1.18-4.74-1.74h0Z" fill="#41463d"/><path d="M73.43,44.85l.7-.28c.06-.95,.12-1.99,.18-3.03l.23-.02c.12,1.11,.24,2.22,.37,3.49l.96-.54c-.39,.87-.41,.87-2.31,.45-.05-.03-.09-.05-.14-.07h0Z" fill="#41463d"/><path d="M26.9,54.74h-2.44l.71-1.09,.85,.4,.63-1.36c.1,.34,.21,.61,.24,.88,.04,.33,.01,.66,.01,1.16Z" fill="#41463d"/><path d="M1.53,41.69l.11,1.99,.63-.06v.59H0l.95-1.49,.11,1.44c.21-1,.36-1.72,.51-2.44l-.03-.03h0Z" fill="#41463d"/><path d="M73.43,44.85s.09,.05,.14,.07c-.24,.19-.49,.38-.87,.67v-3.48l.79,.32-.27,.02,.21,2.4Z" fill="#41463d"/><path d="M18.33,12.61c.25,.14,.5,.28,.74,.44,.52,.33,1.53,.05,1.43,1.14-.93-.3-1.85-.61-2.91-.95l.74-.63Z" fill="#41463d"/><path d="M44.96,59.4l.22-.16,1.67-.08,.1,.17c-.75,.29-1.5,.58-2.25,.86l-.62-.3,1.06-.15-.18-.35h0Z" fill="#41463d"/><path d="M13.02,12.93l-.28-1.93,.26-.05,.4,1.25,.54-.82,.16,.09-.83,1.55-.25-.09Z" fill="#41463d"/><path d="M3.1,42.53c-.23,.71,1.27,1.23,.69,1.97l-.53,.04-.49-1.94,.32-.06Z" fill="#41463d"/><path d="M34.67,54.04c-.22,.45-.42,.9-.66,1.33-.05,.09-.29,.17-.38,.13-.1-.05-.23-.3-.19-.36,.31-.44,.66-.85,1-1.26l.23,.17Z" fill="#41463d"/><path d="M24.08,11.66c-.59-.77-2.53-1.34-3.31-.97l3.52-5.17-.39,1.2,1.08,.55-.04,.15-1.35-.26c-.32,.74-.65,1.51-.98,2.28l-.9,.44c.87,.37,1.47,.68,2.11,.87,.26,.08,.6-.12,.9-.19l-.64,1.11Z" fill="#41463d"/><path d="M42.08,19.96l.79-1.45-.79-.15,1.17-.32,.32-.41-.86-.36h1.41l-.3,.79c.74-.29,1.66-.07,1.89-1.07l-1.39-.15c.14-.33,.24-.57,.34-.8,.79-1.68,.78-1.66,2.61-1.3,.46,.09,.94,.02,1.55,.02l-.77,.5,.05,.28,1.57-.09,.47,.68-.14,.12-.28-.26c-1.39,.51-2.42-.6-3.7-.56,1.06,.42,2.04,.79,3.01,1.17-.06,.31-.12,.62-.17,.89-.77-.23-.84,.18-.74,.74-.22,.11-.51,.16-.63,.33-.87,1.3-1.7,2.63-2.51,3.88-1.35-.47-2.61-.91-3.87-1.35,.33-.38,.66-.77,.99-1.15,.16,.17,.29,.42,.48,.5,.87,.38,1.76,.71,2.64,1.06l.11-.27c-.53-.26-1.04-.57-1.59-.78-.54-.21-1.11-.32-1.67-.48h0Z" fill="#41463d"/><path d="M40.89,21.34l.15,.65c1.02,.36,2.32,.84,3.64,1.28,.19,.06,.46-.12,.69-.18,.31,.34,.62,.68,.92,1.01-2.13-.7-4.3-1.42-6.48-2.14l1.08-.61h0Z" fill="#41463d"/><path d="M53.2,14.14c-.58,.76-1.07,.45-1.64,.03l.41-.77,1.24,.74h0Z" fill="#41463d"/><path d="M26.13,5.45l-.8-1.18,2.1,.97c-.29,.02-.58,.03-.87,.06-.15,.02-.29,.1-.44,.16h0Z" fill="#41463d"/></g></g></g></g></svg>