<?xml version="1.0" encoding="UTF-8"?><svg id="b" xmlns="http://www.w3.org/2000/svg" viewBox="0 0 29.04 24.26"><g id="c"><g id="d"><g id="e"><g id="f"><g><path d="M8.2,9.32c1.77-.47,2.14-1.71,1.92-3.34-.08-.61,0-1.24,0-1.85,0-1.33,.47-1.72,1.57-1.52l.87-1.63-.12-.06-.39,.31-.2-.81C12.61,.26,13.36,.04,14.12,0c.33-.01,.68,.36,1.02,.56-.24,.31-.47,.61-.71,.92-.06,.07-.14,.12-.28,.22l1.9,1.27-1.91,.65,.07,.23,2.41-.71c-.18,.57-.3,.98-.42,1.38-.18,.55,.36,1.26-.49,1.83v-2.27l-.76,.24v4.98c.95-.55,.62-1.27,.72-1.85,.06-.36-.16-.87,.52-.86-.04,.69-.08,1.39-.12,2.17,.42-.12,.73-.17,1-.29,.25-.11,.46-.3,.69-.45-.19-.2-.37-.42-.58-.61-.33-.29-.67-.55-1.01-.82,.57,.23,1.18,.4,1.71,.71,.82,.48,1.57,.7,2.46,.15,.69-.42,1.26-.09,1.72,.48-.74-.04-1.58-.25-1.69,1,.29-.04,.52-.09,.75-.11,.27-.02,.53-.03,.8-.04l.12-.88,.39,1.33c.32,.02,.78,.04,1.24,.08,.06,0,.16,.04,.16,.08,.18,1.45,1.55,1.83,2.45,2.59,0-1.52,.19-3.18-.06-4.77-.2-1.24-.02-2.41,.03-3.69l-1.99-.34v-.18h2.03c-.35-.21-.47-.28-.45-.27l.49-1.7,.2,1.53h.1l.07-1.3c.51,.66-.08,1.74,1.17,2.06-.67-.15-.99-.05-.98,.65,.04,2.34,.01,4.68,.03,7.03,0,.61,.08,1.21,.12,1.83,.29,.36,1.6-.4,1.05,.95l-1.03-.24v.91l1.97,.14v.27l-3.1,.29c-.02-1.06,.27-2.22-1.21-2.8l.36-.2c-.85,.22-1.69,.58-2.56,.63-.77,.04-1.56-.26-2.07-.36-.17-.57-.19-1.03-.43-1.32-.15-.19-.64-.23-.93-.16-.79,.19-1.56,.46-2.33,.73-.26,.09-.47,.3-.7,.45,.22,.21,.41,.47,.67,.61,.74,.42,1.5,.81,2.47,1.31-1.53,.6-2.91,1.11-4.25,1.68-.32,.14-.53,.49-.83,.69-.51,.35-1,.81-1.57,.94-1.09,.25-2.22,.39-3.33,.42-1.15,.02-1.4-.98-1.68-1.89l-.59,.31v-1.69c-.68,.23-1.36,.42-2,.7-1.26,.56-1.98,.29-2.47-.93-.11-.27-.38-.67-.58-.68-.95-.04-1.04-.61-1.39-1.38-.77-1.73-.2-3.46-.51-5.25,.56,.25,1.07,.4,1.48,.68,.25,.17,.38,.53,.56,.81h0L.35,7.48v2.94l.72,.04c.45,.45,.92,.92,1.38,1.39-.02,.02-.05,.03-.07,.06,0,.01,0,.06,.03,.07,.53,.24,1.06,.47,1.59,.71l.11-.17-.35-.48,.59,.06v-1.99h.24v2.18l.31-.03c-.13-.94,.54-1.99-.51-2.79l3.32-.56,.03,.09-1.05,.43,.02,.16,1.07-.1-.73,1.04c-.32-.06-.63-.12-1.05-.2,0,.91-.02,1.69,.01,2.49,0,.17,.2,.35,.34,.48,.31,.28,.64,.54,1.1,.92,0-1.26,.42-2.52-.43-3.71,.6,.27,.82,.69,.72,1.36-.08,.51-.07,1.06,0,1.57,.03,.26,.35,.71,.41,.69,.56-.18,.76,.3,1.04,.55,.56,.51,1.07,.42,1.46,.14l-.3-2.01-.24,1.1c-1.78-.44-2.01-1-1.17-2.75,1.74,1.11,2.99-.53,4.52-.76-1.65-1.02-3.35-1.54-5.25-1.05h.01ZM3.6,13.7l.02,.02h-.35l.52,.38,.09-.18-.28-.22h0Zm16.95-2.77l.59,.42,.17-.16v1.02l.22-.43,.38,.66,1.99-1.56c-1.15-1.33-2.22-.11-3.36,.05Zm-7.45-1.31c.29-.07,.61-.11,.61-.16,.02-1.59,.02-3.17,.02-4.76l-.21-.13c-.14,.22-.39,.43-.4,.65-.04,1.42-.02,2.83-.02,4.4h0Zm3.51-.08c-2.14,.63-2.17,.67-1.94,2.36,.11-1.5,1.44-.24,1.94-1.05v-1.31h0Zm-4.38-5.14h-.16v4.8h.16V4.4h0Zm-1.33,4.34h.21v-3.9h-.21v3.9Zm.67-5.45c.76,.87,1.72,1.03,2.3,.38l-2.3-.38ZM5.53,13.24c.54-1.3,.43-2.73,0-3.07v3.07ZM10.63,3.75h-.14v4.78h.14V3.75Zm3.42,6.18l.08,.03V5.06h-.08v4.88Zm5.21-.25c-.9-1.22-1.25-.04-1.76,.18l1.76-.18Z" fill="#41463d"/><path d="M7.87,22.04l1.63,1.1-.16,.29-1.36-.57-.13,.14,.88,.81c-.64,.16-1.2,.35-1.78,.43-.52,.07-1.06,.01-1.54,.01l-.76-1.2-.44,.5c-.68-.35,1.32-1.3-.33-1.38l.68-1.49,.37,1.43,.23-.04v-1.39c.85,1.34,1.34,.44,2.09-.19l.21,1.73,.43-.88,.14,.03-.16,.67h0Z" fill="#41463d"/><path d="M2.02,8.51c.59-1.1,1.34-2.02,2.45-2.55l.24,.28c-.33,.24-.7,.45-.99,.73-.35,.34-.6,.77-.95,1.11-.2,.19-.5,.28-.75,.42h0Z" fill="#41463d"/><polygon points="2.99 11.86 2.97 11.9 3.01 11.88 2.99 11.86" fill="#41463d"/><path d="M3.6,13.7s-.02,.05-.04,.07c0,0-.03,0-.05,0,.03-.01,.07-.02,.11-.03l-.02-.02h0Z" fill="#41463d"/></g></g></g></g></g></svg>