<?xml version="1.0" encoding="UTF-8"?><svg id="b" xmlns="http://www.w3.org/2000/svg" viewBox="0 0 69.49 64.34"><g id="c"><g id="d"><g id="e"><g><path d="M8.74,47.59l-2.45,.25-.04-.19,.96-.34-1.94-.19v-.82l1.52,.65,.13-.32c-1.24-.99-2.73-1.25-4.26-1.26l-.66-2.83,.4-.03c.27,.67-.13,1.69,1.07,2.13l.36-1.9,.36,.83,.24-.02v-4.67c.82,1.46,.13,2.95,.26,4.42,.8-.18,.86-.31,.77-1.43l.33,.9,1.26-.48-.51-4.45c.14-.39,.45-.95,.52-1.54,.12-1.04,.04-2.1,.13-3.14,.07-.84-.13-1.47-.94-1.81,.55,.03,1.11,.07,1.71,.11-.32-1.18,.73-.31,1.06-.67v-.69l.32,.36,.92-.59-1.09,1.38c1.51,.53,3.01,1.06,4.41,1.55,.27-.37,.41-.65,.62-.86,.77-.79,.99-3.12,.37-4.07,.68-1.45,.44-3.58-.42-3.78,1.11,.95,.27,2.17,.58,3.35l-2.79-.93-.14,.42,2.8,.92v2.44c-1.39-.39-2.7-.75-3.98-1.1v-1.43h.07l.12,1.13c.03-1.58-.09-3.14-.19-4.7-.02-.29,.06-.61-.03-.88-.1-.29-.35-.52-.54-.77l-.27,.15v5.37c0,.74-.23,1.63,1.06,1.55,.24-.02,.5,.28,.91,.52-.63-.1-1.07-.17-1.51-.24-.27-.33-.52-.67-.81-.99s-.61-.61-.91-.92l-.6,.93-1.51-.3c.09,.76,.17,1.42,.25,2.08-.24,.03-.47,.05-.7,.08l.34,.62c-.65-.06-.87-.58-.51-.94,.86-.88,.55-1.98,.63-2.94,.17-1.98,.07-3.99,.03-5.98-.02-1.21-.11-2.41-.21-3.62-.02-.19-.17-.4-.32-.53-.36-.31-.75-.56-1.22-.91,.54-.46,.91-.81,1.32-1.11,1.16-.86,1.71-2.11,2.24-3.4,.25-.61,.5-1.37,1.52-1.05,.16,.05,.52-.33,.71-.57,.81-1.1,1.6-2.22,2.44-3.41,1.05,.59,2.06,1.26,3.15,1.74,.38,.16,.96-.15,1.45-.22,.17-.02,.35,.07,.52,.11v-.02l-.73,.66,.06,.1,3.05-1.15-.04,.02c1.18-.33,2.37-.66,3.55-1.01,.07-.02,.08-.26,.11-.39l.02,.03c.56-.53,.58-.88-.27-1.12-1.02-.29-2.02-.67-3.02-1l-1.1,1.25-.23-.19c.2-.31,.42-.61,.6-.92,.14-.23,.26-.47,.52-.94l12.18,4.17,.07-.17c-1.9-.74-3.78-1.55-5.71-2.21-1.94-.67-3.92-1.19-5.88-1.78l.07-.24c1.04,.33,2.11,.61,3.12,1.01,.94,.37,1.73,.46,2.29-.57,.07-.12,.27-.16,.4-.24l-.66,1.34c.9,.1,1.86,.85,2.73-.16-.11,.29-.22,.58-.34,.9l2.19,.99,.51,.06c1.3,.9,1.36,.9,2.43-.11l1.39-1.04-.02-.03,.54,1.41c-.35,.11-.66,.23-.97,.31-.29,.08-.59,.13-1.13,.25,1.42,.77,4.08,.22,5.3-.88l-1.97-2.26,2.4,2.01c-.1-.91-.23-1.94-.34-2.93l-.36,.59-.11-.05,.21-1.17c-.59,.06-1.09,.02-1.5,.18-.48,.2-.89,.59-.51,1.23-.46-.5-.79-.44-1.19,.13-.45,.65-1.03,1.2-1.56,1.79,.85-1.36,1.7-2.72,2.56-4.08-1.24-.58-2.45-1.13-3.64-1.72-.26-.13-.47-.38-.69-.57,.81,.23,1.63,.47,2.45,.7,.59,.17,1.19,.32,1.78,.49,.72,.2,1.57,.15,1.9,1.1,.09,.25,.5,.38,.75,.58,.89,.71,1.75,1.46,2.68,2.12,.22,.15,.68,.16,.92,.04,.96-.52,1.88-1.12,2.82-1.69,.14-.08,.27-.18,.55-.36,.44,.6,.91,1.16,1.28,1.79,.51,.87,.88,1.03,1.77,.63,.59-.27,1.2-.5,1.78-.74,2.58,3.88,5.14,7.73,7.76,11.68-1.39,1.44-1.08,3.45-1.05,5.61,.65,.05,1.3,.09,1.94,.14,.09,0,.22-.02,.27,.03,1.12,1.11,2.7,1.01,4.03,1.52,.23,.09,.5,.43,.5,.65-.05,1.95-.19,3.89-.22,5.84-.02,1.3,.11,2.61,.17,4.13,.25-.21,.53-.33,.53-.46,.01-.9,.35-1.59,1.01-2.22,.27-.25,.21-.84,.29-1.2l1.38-.82c-.98,2-2.97,3.55-1.41,5.9v-1.37h.28v2.08l.28,.05,.36-.5c.19,.4,.3,1.04,.68,1.35,.44,.36,1.1,.46,1.66,.76-1.19,.53-2.29,1.54-3.66,.38-.76,.93-1.57,1.68-2.94,.92l-.55,1.61h-2.44l.22,.51-1.42,.53,.02,.12h2.42c-1.39,1.56-3.24,1.32-4.89,1.88l1.36,1.19c-.85,.9-4.18,1.43-4.72,.68l-.37,.68h-2.44l-.52,1.68c-.59,.18-1.12,.34-1.65,.52-.11,.04-.3,.15-.3,.21,.14,1.1-.76,1.09-1.39,1.21-.65,.12-1.35,.13-2,.01-.93-.17-2.11,.15-2.47,.85l.03-.03-.16,1.26c-.5,.16-1.2,.38-1.96,.61l-.26-.91-1.04,.44,.37,.6c-.38,.57-1.79,.6-2.27,.11-.14-.14-.48-.09-.72-.13,.38-.03,.77-.01,1.13-.1,.15-.04,.34-.35,.32-.5-.07-.39-.24-.76-.44-1.32l-.12,1.01c-.37,.29-1.32-.1-.88,.91-.15-.04-.43-.05-.45-.12-.19-.8-.63-.75-1.24-.46-.66,.32-1.35,.56-2.02,.77,1.1-.94,1.49-2.24,1.93-3.52l-1.17,1.53-.14-.08,1.04-1.93c-1.66,.64-1.92,2.56-3.36,3.51l.15-1.92c-.3,.04-.51,.02-.66,.1-.39,.22-.76,.5-1.15,.72-.11,.06-.41,.04-.43-.02-.06-.15-.08-.4,0-.51,.66-.89,1.41-1.71,2-2.64,.31-.5,.36-1.16,.53-1.76l-.27-.18-1.14,.68-.79-.48c-.14,.59-.52,1.17,.7,1.03-.21,.35-.3,.71-.51,.81-1.17,.54-1.18,.52-1.74,1.72l.59,.46c.28,.47-1.26,.33-.18,.99-.95,0-2,.84-2.73-.43,.27,.1,.54,.19,.79,.31,.73,.36,1.15,.09,1.15-.88l-1.94,.56c-1.3,.19-2.6,.37-3.98,.57l-.06-1.18-.23-.05-.14,.83c-2.57,.9-3.25,.96-3.93-.41,.63-.6,.63-1-.11-1.4-.45-.25-.97-.38-1.47-.52-.7-.2-1.42-.36-2.12-.54-.57,1.45-1.32,1.31-3.94,.31-.02-.37-.04-.73-.05-1.09,.59,.17,1.2,.28,1.75,.53,.9,.42,1.65,.35,2.35-.52-1.23-.27-2.41-.54-3.59-.8l-.06,.2,.43,.34-.86,.27h0Zm1.18-5.58l-1.53-.98-.12,.2,.63,.43-.36,.32,1.38,.92v-.92c.09,.28,.24,.56,.26,.86,.04,.55,.01,1.11,.01,1.67h.38c0-.73,.03-1.46-.03-2.17-.01-.13-.41-.22-.63-.33h0Zm15.58-10.31h-.75v-5.75h-.34v6.4c.38-.24,.73-.45,1.07-.67,1.81-.16,2.16-.48,2.11-1.56-.18,.16-.53,.49-.9,.78-.38,.29-.79,.54-1.19,.8h0Zm-4.17-14.66l.64,.34-.87-2.13c.16,.03,.4,.15,.48,.08,.48-.38,.47-1.54,.07-2.18-.52-.82-.97-.13-1.56-.02l.43,.75-1.43-.71-.13,.21,.44,.72-.55-.11c1.71,2.78,3.36,5.46,5.01,8.15-.02-.44-.17-.82-.36-1.18-.71-1.31-1.43-2.61-2.15-3.92h0Zm34.23-.91l.89,.17-.54-.96,1.64,.35,.04-.1c-.89-.49-1.78-.98-2.66-1.47,.2-.52,.39-.89,.48-1.29,.06-.29,.08-.67-.06-.89-1.09-1.71-2.25-3.38-3.35-5.08-.92-1.43-1.36-1.57-2.93-.9-1.35,.57-2.72,1.1-4.07,1.69-.14,.06-.19,.35-.28,.54l-.75-.16c.06,.23,.08,.47,.18,.67,.33,.64,.65,1.29,1.06,1.87,.37,.53,.87,.98,1.31,1.46,.35,.34,.68,.94,1.05,.97,.83,.07,1.68-.15,2.53-.26v-.27l-.61-.44-.03,.03h.96c.42,.35,.67,.66,1,.83,.84,.43,1.73,.74,2.56,1.19,.67,.36,1.28,.84,1.92,1.26l-5.1-2.41-.12,.25,1.94,1.28h-.5c.9,.71,1.84,1.25,2.8,1.75,.16,.08,.43-.04,.65-.06h0ZM19.47,10.31l-.78-.52c.11,.44,.38,.72,.55,1.06,.18,.36,.25,.78,.42,1.16,.17,.38,1.03,.5,1.3,.2,1.37,.03,1.79-.32,1.55-1.3,.65,.86,.66,1.36-.09,1.57-.7,.19-.74,.54-.35,.94,.66,.68,1.4,1.28,2.12,1.91l.23-.51,1.48,1.97-.31,.11,.28,1.36-.81-.63-.36,.63c-.81-1.3-2.27-2.65-2.73-2.62-.15,1.94,1.06,2.92,2.78,3.67l-1.39,.31,1.09,2.3c.77-.29,1.53-.56,2.28-.87,.17-.07,.28-.31,.42-.47h1.15c-.08-1.38-.19-2.59-.22-3.8-.03-1.44,.02-2.89,.04-4.33,.02-1.29,.07-2.58,.04-3.86,0-.4-.2-.81-.32-1.22l.36-.37c-.22-.15-.45-.44-.64-.42-.67,.11-1.32,.31-1.97,.5-1.48,.43-2.95,.86-4.42,1.34-.12,.04-.13,.45-.19,.68-.33-.11-.65-.27-.99-.32-.61-.08,.35,.93-.49,.75l-.03,.78h.01Zm15.07,23.51c.12,.25,.23,.51,.37,.75,.13,.22,.24,.53,.44,.61,.58,.25,1.21,.41,1.87,.61l.43-1.95-.31-.07c-.06,.18-.12,.36-.11,.32l-2.07-.57c-.07-.19-.1-.53-.23-.56-.81-.25-.62-.88-.62-1.45,0-1.18,.02-2.35-.01-3.53-.01-.34-.18-.67-.28-1l-.16,.08v5.44h-1.25c-.12-.72-.85-1.14-1.82-.96,0,.5-.04,.98,.02,1.46,.03,.25,.14,.63,.31,.69,1.17,.46,2.36,.86,3.66,1.31l-.24-1.19h-.01Zm6.43,3.08c-1.2,.43-2.41,.86-3.49,1.25-.2-.3-.32-.63-.55-.77-.22-.13-.56-.09-.85-.09-.22,0-.44,.08-.66,.12v-.17l.4-.2c-.33-.19-.54-.41-.78-.44-.44-.05-.94-1.06-1.37,.05-.02,.04-.73-.2-1.11-.32-.03,0-.02-.11-.02-.15l.73,.04,.04-.34-2.81-.5c.14,.63,.11,1.25,.32,1.34,.48,.22,.98,.76,1.62,.31,.07-.05,.29,.03,.36,.11,.22,.26,.4,.55,.6,.83l-2.56-.64-.1,.31,2.53,1,.1-.7c.31,.1,.61,.25,.92,.3,1.25,.21,2.22,1.97,3.79,.53,.51-.46,1.46-.43,2.21-.63,.67-.18,.88-.61,.67-1.25l.38,.74c2.02-.64,3.03-1.29,3.04-1.94-1.17,.42-2.3,.81-3.42,1.21h0Zm.07-26.64l4.19,1.63,.15-.23c-.55-.72-1.07-1.47-1.67-2.14-.89-1-.86-1.54,.26-2.15l-.47-.61c.23,.12,.47,.37,.67,.34,.59-.09,1.17-.28,1.76-.44-.18-.42-.3-1.12-.56-1.18-.47-.11-1.09,.08-1.54,.32-.21,.11-.2,.65-.29,.99-.64-.85-2.33-.99-2.94-.14-.29,.4-.25,1.05-.35,1.58-.25-.2-.54-.61-.73-.56-1.06,.25-2.09,.6-3.13,.92l.04,.21,4.61,1.47h0Zm-10.94,15.64c-.02-.42,.06-.86-.08-1.24-.1-.29-.45-.5-.69-.75l-.16,.17,.15,.66c-.74-.04-.97,.36-.97,.96,.01,1.99-.02,3.99,.06,5.99,.04,1.17,.71,1.57,1.97,1.29l-.37-2.46,.15-.02,.14,.45,.15-.03-.25-4.77,.03,.03c-.05-.09-.1-.18-.13-.28,2.23,.54,4.46,1.08,6.69,1.62,.29-1.19,.16-1.47-1.17-1.95-.72-.26-1.49-.35-2.2-.61-.98-.37-1.93-.83-3.03-1.31,0,.87,0,1.52-.01,2.16,0,.03-.17,.06-.26,.09h0ZM15.94,10.92l-.52-.84,1.38-.79-.1-.22-4.89,1.75,3.03,4.8,1.79-1.47c.27-.15,.55-.29,.82-.45,.49-.3,.97-.62,1.6-1.02-.56-.9-1.24-1.99-2.07-3.33l-1.04,1.57h0Zm-1.93,10.1c.16-.07,.4-.09,.49-.22,.87-1.33,.33-2.49-.59-3.85v3.27l-2.81-.96-.53-4.31c-1.5,.42-2.47,1.13-2.24,2.81,.04,.31-.08,.87-.28,.95-1.38,.54-1.37,1.64-1.22,2.93l2.76,.93c-.05-.9-.1-1.57-.12-2.24-.03-.77,.3-1,1-.72,.75,.3,1.5,.62,2.27,.87,.29,.09,.64,.02,1.02,.02,.06,.11,.17,.33,.29,.56l-4.42-1.19c.16,.78,.11,1.76,.43,1.91,1.74,.77,3.57,1.34,5.48,2.02v-2.11l-1.53-.66h0Zm2.13,10.23c.39-.03,.85-.2,1.17-.07,.74,.32,1.05-.03,1.07-.63,.05-2.01,.02-4.03,.02-6.11l4.8,1.63v7.26h.29c.03-.29,.07-.58,.07-.88,.01-2.22,.05-4.45-.01-6.68-.02-.56-.31-1.13-.52-1.68-.27-.7-.61-1.38-.87-2.09-.43-1.23-.7-2.54-2.14-3.09-.45-.17-.82-.52-1.28-.82l1.02-.55-1.29-2.25c-.22,.18-.48,.42-.76,.65-1.01,.83-.98,1.21,.15,1.88l-.6,1.19,.21,.13,.7-.61,.25,2.79,.33-.65,.13,.06-.78,1.84-2.09-.49c0,2.51-.01,4.92,0,7.34,0,.61,.1,1.22,.16,1.83l-.07,.85,.58,.35-.4,.22,.03,.32,3.44,.25c.32-.76,.11-1.14-.89-1.35-.91-.19-1.82-.43-2.73-.65ZM34.33,13.07c-.36,.68-.65,1.35-1.06,1.93-.68,.95-1.4,1.86-2.18,2.73-.19,.22-.64,.25-.98,.28-1.09,.1-1.3,.33-1.33,1.41-.02,.82-.06,1.6,1.11,1.57,.15,0,.3,.13,.45,.18,1.8,.63,3.59,1.29,5.41,1.83,.43,.13,1.07,0,1.43-.26,.79-.56,1.48-1.27,2.17-1.95,1.42-1.39,2.85-2.78,4.22-4.23,.86-.91,1.61-1.93,2.49-3-5.9-2.18-11.72-4.33-17.65-6.52,.16,3.68,.32,7.33,.49,11.24l1.55-2.24-.22-.2-1,.58c1.16-.69,1.73-2.1,3.17-2.46,.38-.1,.66-.57,.98-.87l-.16-.22,1.09,.22h0Zm10.09,4.61c-.27,1.14,.32,2.4-.18,3.53l-.35-.02v-3.05l-.39-.06c-.23,.89-.61,1.76-.67,2.66-.13,2.17-.06,2.18-2.12,2.9-.14,.05-.3,.08-.29,.08l-.39,1.05-.24-.06v-2.21c-.54,.52-.97,.92-1.21,1.16l.66,1c-.62-.33-.98,.03-1.09,1.07l-.38-.7c-.1,.28-.18,.45-.22,.63-.29,1.35-.14,1.51,1.2,1.12,1.34-.39,2.65-.87,4.09-1.34,0,.51-.02,.9,0,1.28,.14,2.36-.44,4.76,.51,7.41l.96-1.29,.16,.71,3.16-.89-.07-.27-3.01,.53v-9.09l-.72-.06c.19-.27,.54-.53,.55-.8,.05-1.75,.03-3.51,.03-5.27v-.02h0Zm8.26,2.38l-.05-.15c-.33-.09-.71-.11-.99-.28-1.11-.68-2.2-1.41-3.43-2.22-.05,1.57-.35,2.91,1.13,3.71l.18-.95c.11,.2,.17,.28,.19,.37,.14,.66,.12,1.41,.45,1.95,.48,.75,1.22,.05,1.86,.03,.03,0,.08-.03,.09-.01,.3,.32,.83,.63,.84,.96,.04,1.62-.06,3.25-.1,4.87,0,.12,.1,.24,.15,.35l.22-.03v-3.35c.12,.86,.44,1.33,.96,1.41v-5.69l-4.17,.46v-.16l2.44-.53-.06-.35-2.4,.39-.05-.23,2.76-.55h0Zm-24.18,16.7c-.05,3.78-.4,4.33,1.26,5.78,.13-.79,.3-1.41,.31-2.03,.03-1.41-.02-2.83-.05-4.24-.03-1.39-.46-1.68-1.6-.99l.59,1.46-.51,.03h0Zm26.2-7.27c.57-.29,1.03-.46,1.42-.74,.26-.18,.55-.49,.58-.77,.07-.8,.05-1.62,0-2.43-.03-.61-.36-.94-1.02-.88-.34,.03-.68,0-.99,0v4.82h0Zm-10.95,13.75c1,.1,1.14-.54,1.16-1.22,.03-1.24,.06-2.48,0-3.72-.01-.31-.33-.6-.51-.9-.29,.22-.79,.4-.84,.67-.3,1.73-.45,3.47,.18,5.18h0Zm-10.36,.56l.36-1-1.17-.31-.47-.61-.24,.09-.07,1.08-1.18,.16c-.12,.94,.43,1.51,1.59,1.71l-1.49,1.1c1.55,.75,2.61,.11,2.68-1.32,.01-.26,.11-.51,.18-.8-.04-.02-.2-.1-.19-.09h-.01Zm16.75-12.83v-6.32c-1.69,1.14-1.89,2.36-.76,3.83l-.68-.52v3.13l1.13-.69,.31,.57h0Zm-12.4,14.29l-2.2-.81-.18,.78-.53-1.1c-.22,.13-.4,.2-.52,.33-.2,.24-.36,.52-.54,.77,.46,.26,.92,.71,1.39,.73,1.17,.04,1.15-.04,1.2,1.06,.02,.38,.19,.75,.29,1.13l.3-.05c.27-.97,.54-1.95,.79-2.86h0Zm.78-12.45c-.12-.73-.48-1.55-.31-2.23,.3-1.19,.33-2.19-.59-3.15-.93,1.87-.13,3.8-.35,5.67,0,.05,.13,.12,.2,.19l1.05-.48h0Zm15.2,1.8l-.23-.21c-.31,.36-.87,.71-.9,1.1-.11,1.32-.04,2.65-.04,3.98,1.07-.14,1.12-.14,1.16-1.07,.05-1.27,.01-2.53,.01-3.8h0Zm-.47-4.81c-1.44,.13-2.58,.48-2.78,1.96,.41,.07,.85,.12,1.29,.23,.29,.07,.69,.4,.82,.31,.3-.22,.57-.6,.66-.96,.11-.49,.03-1.02,.03-1.54h0Zm-37.66,4.82l-.37,.02c-.05,.08-.14,.15-.14,.23,.01,1.72,.02,3.44,.05,5.16,0,.55,.15,1.13,.04,1.65-.2,.9-.27,.89,.42,.96v-8.01h0Zm39.27-12.56c1.83-.9,2.05-1.31,1.73-3.12-1.91,.38-1.61,.29-1.73,3.12ZM11.13,44.68l3.87,1.34,.24-.17c-.71-.31-.87-.61-.09-.86-2.84-1.36-3.25-1.4-4.03-.31h0Zm27.03,.21h.3v-5.1c-.89,.53-1.13,3.6-.3,5.1Zm2.76,.66c1.88,.03,3.73-.67,3.93-1.34l-1.08,.15-.1-.23,.84-.54-.14-.21c-1,.98-2.67,.85-3.45,2.17Zm8.12-3.11c1.46-.69,1.52-.84,1.31-3.4l-1.31,.15v3.25Zm2-8.76c-.86,.2-1.64,.38-2.41,.57-1.04,.26-1.1,.45-.39,1.37,.99-.48,2.55-.06,2.8-1.95Zm-29.52,10.71l.25,.02v-9.04h-.25v9.02ZM61.59,26.98c.36,.86,.72,1.73,1.09,2.61l.39-.1v-3.76c-.25,.4-.34,.68-.52,.83-.2,.17-.5,.23-.95,.42Zm-52.73,5.46v5.06c.38-.84,.63-1.7,.78-2.57,.09-.54-.02-1.11,.06-1.66,.11-.69-.19-.88-.84-.84Zm7,14.19l-.19,.4c1.9,.96,4.03,1.29,6,2.08l.15-.43c-1.99-.69-3.97-1.37-5.96-2.06Zm-7.94-14.65h-.27v8.1h.27v-8.1Zm50.61,9.04v-.31c-1.26-.43-2.51-.87-3.78-1.27-.14-.04-.35,.14-.52,.22,.1,.14,.18,.35,.31,.4,.97,.37,1.94,.75,2.94,1.05,.31,.09,.7-.06,1.05-.1h0ZM18.96,30.6l-.23,.1c.14,.22,.23,.54,.42,.63,1.16,.5,2.34,.95,3.53,1.42,.29-.6,.07-.88-.47-1.06-1.09-.35-2.16-.73-3.25-1.1h0Zm-8.36,14.65l-.07,.32c1.36,.49,2.72,.98,4.3,1.55-.14-.39-.17-.76-.29-.8-1.31-.35-2.52-1.32-3.94-1.07Zm22.24,2.03c1.22,.77,1.42,.73,2.9-.51-1.54-.78-1.78-.74-2.9,.51Zm12.31-10.51l1.81-.43,.16-1.28c-1.92,.09-2.23,.35-1.98,1.71ZM7.13,27.75v-5.65h-.23v6.26l.93,.43,.19-.27-.9-.76h0Zm30.85,18.88c2.45-.44,2.73-.62,2.47-1.6-1.91,.16-2.36,.44-2.47,1.6Zm-27.81-12.88c.14,1.18,.07,2.36,.36,3.51,.17-1.27,.18-2.52,.16-3.77,0-.15-.14-.34-.28-.44-.06-.04-.37,.11-.38,.19-.09,.84-.14,1.69-.2,2.53h.34v-2.02h0Zm11.02,13.87c0-.46,.09-.93-.03-1.34-.08-.29-.45-.5-.68-.74-.23,.23-.57,.41-.66,.68-.25,.79,.1,1.13,1.37,1.4Zm21-21.17l-.11-.03c-.15,.88-.29,1.76-.44,2.64l-.16-.07c.17,.99,.35,1.99,.52,2.99l.19-.02v-5.52h0ZM15.85,43.96c-.45,1.91-.37,2.05,1.08,2.3v-1.8l-.17-.02-.17,.49-.74-.97h0Zm4.58-8.86l.13-.36c-2.09-.72-4.18-1.44-6.27-2.16l-.09,.25c2.08,.76,4.15,1.52,6.23,2.27Zm-11.91-3.62l-.09,.36,5.95,1.94,.1-.31c-1.98-.67-3.97-1.33-5.95-1.99Zm10.12,9.73c-.61,.55-.49,.92,.25,1.15,.43,.13,.87,.23,1.3,.36,.33,.1,.66,.24,.99,.36l.29-1.26c-1.34,.69-2.21,.48-2.83-.6h0Zm25.81,8.1c1.21,.03,1.68-.27,2-1.27-1.42-.4-1.99-.06-2,1.27Zm-7.65-20.73h-.37c.23,1.59-.25,3.21,.06,4.8h.31v-4.8Zm13.52,8.14c-1.7,.18-1.97,.69-1.28,2.24l1.28-2.24Zm-35.71,5.2l-1.84,1.06,1.84,.93v-1.98Zm22.81-2.08h-.24v4.91h.24v-4.91Zm-19.4,5.31h.2c0,.44-.02,.87,.01,1.3,0,.11,.14,.26,.26,.31,.07,.03,.25-.06,.3-.14,.39-.69-.25-1.82-1-1.84v1.88h.24v-1.51h0Zm2.39-18.94c-.11,1.15-.1,1.16,1.76,1.34,0-1.22-1.04-1.02-1.76-1.34Zm19.29-15.96l-.09,.22c2,.73,4.01,1.46,6.01,2.19l.1-.29-6.02-2.12Zm21.83,20.47l.47,.7c.23-1.41-1.02-.89-1.52-1.33l-.28,.2c.25,.49,.51,.98,.85,1.65l.48-1.22Zm-27.92-7.39l.1-.28c-1.75-.66-3.5-1.32-5.25-1.98l-.1,.26,5.24,2h0ZM8.86,45.94l.32-.09c.07-2.73,.18-2.55-.97-2.61l.65,2.71h0ZM61.11,27.87l-.77,1.51,1.89,.79c-.42-.86-.73-1.5-1.12-2.3Zm-13.17,4.83l1.87-.53-.42-1.05c-.55,.48-1.53,.42-1.45,1.58h0Zm7.04,11.51c-.14-.67-1.07-1.6-1.47-1.49-.13,.04-.3,.27-.3,.42-.01,.52,.96,1.12,1.77,1.07h0Zm-24.82-1.32l-1.63-.39c-.26,1.49,1.18,.83,1.63,1.44v-1.06h0Zm6.58-2.63l-.1-.03v4.22h.1v-4.2h0Zm27.88-3.53c-.97,.23-1.16,.79-.65,1.82l.19-.81,.2,.99,.25-.03v-1.97h0Zm-12.05,8.44l-.96-.67-.73,.54,.52,.97,1.17-.85Zm1.85-16.06c-1.55,.28-.64,1.16-.91,1.77l.44,.11,.47-1.88h0Zm-14.3,23.29c.48-.45,.89-.85,1.31-1.25-.35-.04-.72-.16-1.06-.09-.6,.12-.93,.46-.26,1.34h0Zm-20.5-8.93c-.26-.75-2.37-1.46-3.11-1.01,1.07,.35,2.04,.66,3.11,1.01Zm-.96-13.38h.16c.04-.39,.1-.8,.1-1.2,0-1.07-.05-2.14-.03-3.21,0-.22,.2-.43,.46-.94-.35,.39-.66,.58-.67,.78-.04,1.52-.02,3.05-.02,4.57h0Zm.43,7.47l-.27-.14c-.52,1.31-1.05,2.62-1.57,3.93l.23,.09,1.61-3.89h0ZM47.83,5.9l-1.43-1.98c-.06,1.06,.59,1.98,1.43,1.98ZM10.11,11c-1.11,.32-1.59,.89-1.43,1.72l1.43-1.72Zm29.61,36.09c-.98,.06-1.01,.16-.68,1.86l.08-1.47h.09c.05,.47,.1,.95,.15,1.42l.21-.02,.15-1.79h0ZM15.25,24.84l-.13,.05v6.21h.13v-6.26Zm-2.07,11.87l-.33,.02c.18,1.03-.25,2.11,.33,3.36v-3.38Zm51.1-1.83l-.3-.04-.35,1.71c1.16-.45,1.22-.7,.65-1.67Zm-33.74,6.42c.18,.89,.47,1.37,.88,1.45v-1.5l-.88,.05h0Zm-21.64-2.1l-.08,.21,2.1,.91-.53-1.32-1.49,.2Zm6.04,4.04l-.05,.29,3.98,1,.06-.25-3.99-1.05h0Zm31.93-11.9l.02-.04c-.14-.3-.4-.59-.42-.89-.05-1.37-.02-2.74-.02-4.12-.04,1.39-.07,2.78-.02,4.17,.01,.29,.28,.58,.43,.87h0Zm-5.7,3.08c.93-.26,1.43-.62,1.52-1.07-1.38,.22-1.44,.26-1.52,1.07Zm-29.89,2.1l-.26-.02v2.7h.26v-2.68Zm43.41-1.38l-.44,.2,.4,1.29c.2-.15,.61-.37,.58-.46-.12-.36-.36-.69-.55-1.03h0Zm-.96-1.21l-.23-.35c-.62,.14-1.39,.09-1.28,1.21l1.51-.85h0Zm10.02-2.03v-4.07c-.2,.51-.16,1.03-.22,1.53-.05,.39,.47,1.09-.32,1.1l.54,1.44h0Zm-31.62,15.44c.14,.56,.19,1.12,.29,1.13,.42,.04,.85-.09,1.27-.16l-.04-.28-1.53-.69Zm-12.95,3.16c-.84-.04-.95-1.31-1.92-.58,.75-.13,.45,1.94,1.92,.58Zm15.36-10.35l-.3-.02c-.06,1.1-.12,2.2-.18,3.3l.29,.02,.2-3.3h0Zm31.72-3.3c.58,1.01,1.09,1.62,2.23,1.08l-2.23-1.08ZM15.13,8.95c-.68-.22-1.15-1.01-1.97-.77,.64,.33,1.06,1.22,1.97,.77Zm21.93,27.52l.09-.3-2.52-.8-.12,.41,2.55,.7Zm10.47-13.25l-.32,.16c-.33,1.25-.32,1.26,.87,1.07l-.55-1.24h0Zm4.86-7.77c.9,.9,2.11,1.43,2.79,1.17l-2.79-1.17ZM8.8,22.75h-.25v4.24h.05l.19-4.24Zm3.58-13.5c.71,.1,1.17,.79,1.71-.04-.54-.19-.97-.96-1.71,.04Zm47.79,24.71c-.01,1.07,.55,.72,.92,.63,.15-.04,.25-.28,.36-.43l-1.29-.2Zm-5.11,6.74c-.04,.08-.08,.16-.08,.16,.68,.38,1.36,.76,2.04,1.14l.17-.34-2.13-.97h0Zm-5.13-4.35l-.15-.44-1.86,.75,.08,.23,1.93-.55h0ZM24.6,17.15s.06-.04,.06-.07c0-.02-.04-.05-.06-.07l-.09,.1,.09,.03Z" fill="#41463d"/><path d="M41.18,60.95c1.05,.14,.59,1.06,.79,1.66,.8-.77,.66-1.48-.27-1.87-.47-.2-.9-.5-1.35-.75l.04-.29c.27,.05,.58,.03,.81,.15,.9,.48,1.76,1.15,2.84,.45,.28-.18,.52-.42,.77-.63-.23-.23-.43-.57-.7-.66-.46-.14-.96-.12-1.53-.18l.28-.56c1.25,.49,2.43,.96,3.62,1.43l.13-.31-.58-.39c1.4-.23,.63-1.82,1.72-2.47-1.15-.26-2.02-.46-2.99-.68l-.4,.85-.3-.34c.43-.61,.83-1.17,1.79-.73,.96,.44,2.01,.68,2.94,1.17,.33,.17,.43,.81,.68,1.34l-1.57-.12-.03,.39c.66,.02,1.32,.1,1.96,.04,.43-.04,.68-.09,.66,.45-.03,.72,.01,1.45-.07,2.16-.13,1.13-1.62,2.07-2.8,1.82-.64-.13-1.28-.26-1.93-.35-.25-.03-.64-.05-.74,.1-.79,1.02-2.04,.94-3.08,1.33-.74,.28-1.49,.71-2.28,.11l1.45-.5-.03-.3c-.87-.33-1.73-.66-2.59-.99l-.16,.33,1.31,.83-1.6-.23,1.19,.92c-.57-.13-1.14-.25-1.7-.42-.26-.08-.5-.26-.72-.43-.18-.14-.31-.35-.47-.53l-.52,.65c-.43-.67-.42-.68,1.26-.89l.37,.64c.74-.77,1.47-1.53,2.19-2.29-.27,.37-.53,.74-.87,1.21l2.58,.86c.59-.74,.38-1.36-.13-1.95h.01Zm6.77-2.27l-.19,.21,.75,.61c-.03,.47-.09,.96-.08,1.44,0,.2,.19,.39,.29,.59,.11-.19,.3-.39,.31-.59,.04-.66,.02-1.33,.02-2l-1.11-.26h0Zm.15,2.41c-.07-.77-.1-1.2-.15-1.76l-1.82,.92c.73,.31,1.21,.51,1.97,.84Z" fill="#41463d"/><path d="M32.75,55.36l-1.26,.43c.5,.44,.88,.77,1.34,1.17-.94,.27-1.55-1.21-2.45-.21-.2-1.4-1.04-.31-1.58-.42l.79,.27c-.96,.18-1.02,.17-1.09-.14-.13-.62,.12-.99,.69-1.33,1.26-.77,2.35-.23,3.57,.23h0Zm-3.67,.19c.86,.19,1.58,.36,2.36,.54-.27-1.18-.78-1.29-2.36-.54Z" fill="#41463d"/><path d="M1.79,21.13l-1.79-.45c.84-.9,.91-1.76,.22-2.64l.23-.12,.86,1.31,.39-.14c-.12,.35-.23,.65-.32,.94-.16,.5-.16,.91,.54,.88,.02,0,.04,.04,.06,.06l-.18,.14h0Z" fill="#41463d"/><path d="M24.05,6.75l-.02-.03-3.66,1.4,.04-.02-2.39,.39v.02c1.22-.42,2.43-.86,3.65-1.23,.77-.24,1.58-.36,2.38-.54h0Z" fill="#41463d"/><path d="M24.63,52.06l-2.84,.71,.15-.67c.98-.13,1.83-.24,2.68-.35v.31Z" fill="#41463d"/><path d="M41.76,50.82c.3-.02,.6-.03,.9-.05,.23-.02,.46-.04,.86-.08l.42,.46c-.2,.33-1.86,.05-2.15-.35l-.03,.03h0Z" fill="#41463d"/><path d="M28.54,2.8c-.13,.08-.26,.15-.38,.23,.13-.08,.26-.15,.38-.23Z" fill="#41463d"/><path d="M29.13,4.96l1.39-.91c.46,.33,.95,.66,1.42,1.02,.79,.62,.6,1.44-.42,1.83-.17-.02-.34-.04-.51-.06l-.49-.98c-.29,.04-.56,.14-.64,.06-.29-.29-.51-.64-.76-.97Z" fill="#41463d"/><path d="M31.4,.67l.13,.08-.12-.08h-.01Z" fill="#41463d"/><path d="M38.37,21l-1.49,.48-.64-.52c1.54-1.26,3.07-2.52,4.56-3.74,.32,1.33-.88,1.95-1.63,2.81-.04,.05-.15,.03-.24,.03-.77,0-.87,.13-.57,.93h0Z" fill="#41463d"/><path d="M36.75,14.9c-.33,.61-.5,1.18-.88,1.55-.25,.25-.78,.25-1.19,.28-.23,.02-.47-.13-.73-.2,.73-.79,1.54-1.64,2.79-1.62h0Z" fill="#41463d"/><path d="M49.47,12.07c-.57-.29-1.16-.54-1.7-.87-.24-.15-.59-.55-.53-.69,.18-.45,.26-.99,1.03-1.06,.82-.08,1.62-.46,2.4-.78,.57-.25,.9-.08,1.2,.4,.22,.35,.53,.65,.73,1,.14,.26,.16,.59,.19,.74l-3.71,.58c.16,.31,.26,.51,.35,.71l.03-.03h0Z" fill="#41463d"/><path d="M46.25,10.48c-.5-.66-.99-1.31-1.49-1.97,.8,.43,1.25,1.12,1.49,1.97Z" fill="#41463d"/><path d="M30.19,26.16v2.51l-.37,.02c0-.76-.01-1.53,.02-2.29,0-.07,.25-.14,.38-.2l-.03-.03h0Z" fill="#41463d"/><path d="M35.34,5.76l.57-1,1.27,1.21-.62,.78c-.45-.36-.84-.68-1.24-1l.02,.03h0Z" fill="#41463d"/></g></g></g></g></svg>