<?xml version="1.0" encoding="utf-8"?>
<!-- Generator: Adobe Illustrator 26.3.1, SVG Export Plug-In . SVG Version: 6.00 Build 0)  -->
<svg version="1.1" id="b" xmlns="http://www.w3.org/2000/svg" xmlns:xlink="http://www.w3.org/1999/xlink" x="0px" y="0px"
	 viewBox="0 0 99.4 127.8" style="enable-background:new 0 0 99.4 127.8;" xml:space="preserve">
<style type="text/css">
	.st0{fill:#E4D6A7;}
	.st1{fill:#41463D;}
</style>
<path class="st0" d="M2.6,115.3l2.2-56.2l11.7-17.6l10.7,2.4l-0.8-15.7L43.4,5.8l22.6-3.6c4.8,10.7,10.5,19.9,19.4,23l-0.2,72.8
	l10.6,8.8l-42.3,18.7L2.6,115.3z"/>
<g id="c">
	<g id="d">
		<g id="e">
			<g>
				<path class="st1" d="M54.4,5.3c1.8-0.5,3.2-1.2,3.1-3.5c-0.1-1.1,1.8-2.1,3.2-1.8c1.4,0.3,2.7,0.6,4,1.1
					c0.5,0.2,0.9,0.6,1.2,1.1c3.4,5.5,6.7,11.1,10.1,16.6c0.3,0.6,1.1,1,1.8,1.2c2.1,0.8,4.2,1.4,6.3,2.1c1.5,0.5,1.9,1.6,1.1,3
					c-0.3,0.6-0.6,1.2-0.6,1.9c0,7.2,0,14.4,0.1,21.6c0,1.8,0.7,3.6-0.6,5.3c1.4,1.6,0.5,3.5,0.6,5.3c0.1,6.5,0,13,0.1,19.5
					c0,0.8,0.9,1.6,1.1,2.5c0.2,0.8,0.1,1.7-0.1,2.5c-0.1,0.7-0.8,1.3-0.8,1.9c0,4.1,0,8.2,0.1,12.2c0.1,1.2,0.7,2.4,1,3.6l0.5-0.1
					v-3.3l0.5,0l0.2,3.6L89,101l1.2,3.3l2.7-1.6c0.2,0.8,0.5,1.9,0.8,2.9c0.7,0.4,1.3,0.8,2,1.1l-1,1.4l0.1,0.6
					c1-0.8,2.4,0.5,3.2-1.1l0,0.1l1.3,0.8l-0.1,0.5l-3.4,0.6c-0.1,0.6-0.1,1.4-0.5,1.9c-0.5,0.6-1.4,1.4-1.9,1.3
					c-1.5-0.3-2.5,0.1-3.4,1.4c-0.2,0.3-0.9,0.6-1.3,0.5c-1.6-0.4-2.7,0.1-3.2,1.7l-1.1-1.1l0.8-1.3l-1.2-0.5
					c0.7-1.1-0.6-0.6-0.8-0.9l-0.7,1.2l-2.2-1.2l0.1-0.5l1.9-0.3l-2-2.5l-0.8-2.2l-0.2,1.9l-0.2,0v-6.8c-1.7,1.4-2,4.9-1,6.5
					c0.2,0.3,0.1,0.7,0.1,1l-0.5,0c-0.7-1.7,0.4-4.1-2.1-4.9c0.2-0.3,0.7-0.8,0.7-1.3c0-0.3-0.6-0.7-1.1-1.1c-1.1,2.2-1.2,6.4-0.4,9
					c0.5,1.8,1.6,2.2,3.3,1.1l0.7,1.7c0.3-0.5,0.3-1.1,0.1-1.4c-0.9-1.2-0.6-1.9,0.6-2.6c0.3-0.2,0.6-0.6,0.9-0.9
					c-0.1,0.7-0.1,1.4-0.3,2.1c-0.5,2.2-0.6,2.2,1.4,3l0.2,1.5l0.6,0.4l0.4-1l0.9,1.5c-0.4,1.7-1.2,2.8-3.2,2.5
					c-1.1-2.2-2.6,0-3.8-0.1c0.9-0.9,2.4-1.6,1.3-3.5l-2.2,2.6c-2.3-1-2.4-0.9-2.2,1.7l3.2-0.8c-0.2,1.2-0.3,1.1-1.5,1.2
					c-0.7,0-1.4,0.7-2.3,1.2c-0.1-0.7-0.1-1.4-0.2-2c-2.2,0.1-3.2,1-3.2,3.3c-2.2,0.7-4.4,1.4-6.5,2.1l-0.7-2.3
					c-0.7,0.6-1.3,1.1-1.9,1.6l0.8,2.6l-4.8,0.6c-0.2-0.9-0.2-2-0.6-2.3c-0.8-0.6-1.8-0.4-2.3,0.7c-0.1,0.2-0.3,0.4-0.6,0.5
					c-1.6,0.4-3.2,0.8-4.8,1.1c-1.2,0.2-2.3,0.5-3.6,0.7c0-0.5,0.1-1.1,0-1.1c-1.9-0.4-2.5-1.7-2.3-3.6l0.8-1.3l-4.3-0.6l-0.2,0.4
					l1.4,1c-1.5,0.2-2.8,0.7-3.9-0.9c-1-1.5-5.2-2.4-6.8-1.8c-0.5,0.2-1.1,0.1-1.6,0c-0.9-0.1-2-0.9-2.7,0.5c-0.1,0.2-0.8,0.2-1,0.1
					c-2.4-1.4-5-1.5-7.6-1.7c-1-0.1-1.9-0.6-3.2-1.1c0.2-0.4,0.6-1.1,0.9-1.8c0,0-0.1-0.1-0.1-0.1c-0.1,0-0.2,0-0.3,0
					c0.1-0.3,0.2-0.7,0.4-1.4l-4,0.4l-0.6-1.1l-0.6,0.2l0.7,1.9c-2.2,0.5-4.4,0.9-7-0.4c1.3,0.1,2.2,0.1,3.2,0.2
					c1.5,0.1,1.8-0.3,1.3-1.8c-0.1-0.3,0.1-0.8,0.2-1.2c0-0.5,0.2-1.3,0-1.5c-1-0.5-0.7-1.3-0.7-2.1c0.1-0.7-0.1-1.4-0.2-1.6
					l-1.1,0.4l-0.9-0.5v-6c1.7,0.5,3.4,1,5,1.6c0.6,0.2,1.3,0.6,1-0.6l-0.1,0c0.1-0.3,0.3-0.6,0.3-0.9c-0.1-4.3-0.2-8.6-0.4-12.9
					c0-0.4-0.5-0.7-1-1.3c-0.3,3.1-0.6,5.7-0.8,8.4c-0.1,2-0.1,4-0.1,6l0-0.1c-1.3-0.2-2.7-0.5-3.9-0.7c0.1-1.1,0.4-2.4,0.4-3.8
					C4.9,85.5,5,74,4.9,62.6c0-0.7-0.5-1.4-0.6-2.1c-0.1-0.8-0.4-1.8,0-2.3c1.8-2.7,3.8-5.2,5.7-7.8c0.2,0.4,0.3,0.8,0.6,1.4
					l5.1-8.1l-0.4-0.3c-0.8,1.2-1.4,2.4-2.3,3.5c-0.9,1.2-2,2.3-3,3.5c1.7-2.8,3.4-5.6,5.2-8.4c0.2-0.3,0.9-0.5,1.2-0.4
					c3.2,1.1,6.3,2.3,9.4,3.5c-1.4-0.4-2.9-0.7-4.3-1.2c-1.8-0.6-3.6-1.2-5.4-1.8l-0.1,0.5l10.6,3.8l0.1-0.4l-1-1
					c0.9,0.3,1.4,0.1,1.4-1c0-4,0-8,0-12c0-0.7-0.2-1.5-0.6-1.9c-1.1-1.1-0.7-2.1,0-3.2c4-6.3,8-12.7,12.2-18.9c0.6-0.9,2-1.3,3-2
					L42,6.2l-1.9,1l0.2,0.3l3.1-1.8l0.2,2.9l5.2-1.2l-2.6,1.4c2.7-0.7,5.4-1.7,8-2.8C54.3,6.1,54.3,5.6,54.4,5.3L54.4,5.3L54.4,5.3
					L54.4,5.3z M37,116.3l2,0.1l1.8-1.5c-2.4-0.8-4.3-1.4-6.2-2c-0.9-0.2-1.8-0.3-2.7-0.4c0.2,0.8,0.4,1.5,0.6,2.3
					c-0.9,0.2-1.7,0.4-2.9,0.7c0.9,0.2,1.7,0.4,2.4,0.7c1.7,0.6,3.3,1.2,5,1.7c0.2,0.1,0.6-0.2,0.9-0.3c-0.1-0.2-0.2-0.5-0.3-0.7
					C37.5,116.7,37.2,116.5,37,116.3L37,116.3L37,116.3z M21.3,105.6l-2.6-2.1c0,2.2-1.1,3.7-0.5,5.3l0.6,0.1l0.6-3.7
					c0.4,1.3,0.6,2.7,0.3,3.8c-0.4,1.6-0.6,1.6,0.7,1.7C20.7,109,21,107.3,21.3,105.6c0.3-2.3,0.5-4.6-1-6.6
					c-0.2,0.1-0.4,0.2-0.5,0.3c-0.1,0.1-0.1,0.3-0.1,0.5C19.5,101.9,20.2,103.8,21.3,105.6L21.3,105.6L21.3,105.6z M52.3,101.7
					c0.5,1.6,0.9,3.3,1.4,4.9l1.4-0.2c-2.2,1.2-1.4,3.3-1.4,5.2l-1.8-0.8c0.5,2.2-0.6,4.1,0.7,5.7l0.7-0.1l0.3-4.8l1.5-1.4l-0.4,3.8
					l6.1-2.3l-0.3-0.6c-1.7,0.7-3.3,1.3-5.1,2c0-1,0.1-1.8,0-2.5c-0.1-1.3-0.3-2.6-0.5-4c0-1.6,0.1-3.1,0.1-4.7
					c0-1.1-0.6-1.4-1.6-0.8C53.2,101.2,52.8,101.5,52.3,101.7l-0.3,5.9l1.1,0L52.3,101.7L52.3,101.7L52.3,101.7z M67.8,118.3
					c0.3-0.8,1-1.6,1-2.3c0-1.2-0.6-2.3-1-3.9c-0.5,0.6-1.3,1-1.3,1.4C66.6,115.2,65.4,117.3,67.8,118.3c-0.1,1.1-0.3,2.2-0.2,3.3
					c0,0.3,0.9,0.5,1.4,0.7l0.5-0.5C68.9,120.6,68.3,119.4,67.8,118.3C67.8,118.3,67.8,118.3,67.8,118.3z M71.5,61.4l1.5-3.2
					l0.2-3.9c-2.7,1.2-3.4,3.5-2.4,7.9L71.5,61.4c0,0.5,0,1.1-0.1,1.6c-0.4,2.1-0.8,4.2-1.2,6.4c2.1,0.1,2.9-0.7,2.9-2.2
					c0-1-0.2-2.1,0.1-3C73.6,62.5,72.8,61.8,71.5,61.4C71.5,61.4,71.5,61.4,71.5,61.4z M23,50.7c-0.3,0.7-0.6,1.4-0.8,2.1
					c-0.1,0.4,0.3,0.8,0.4,1.2c1.3-0.8,2.9-1.4,3.9-2.5c0.5-0.5,0.1-2,0.1-3.1l-2,0.8l0.2-1.8c-3.7-1.7-5-1-5.7,2.8
					C20.4,51.4,21.5,52.3,23,50.7C23,50.7,23,50.7,23,50.7z M54,67.7l1.8,3.3l4.5-1.7l-0.2-0.5c-1.3,0.4-2.7,0.8-4,1.2
					c1.2-0.8,2.8-1.1,3.6-2c0.8-0.9,0.6-2.5,1-4l-5.1,1.7l-1.2-1.7c0.4-0.4,1-0.8,1-1.3c0.1-3.3,0-6.6,0-9.9l-0.6-0.2
					c-0.5,1-1.2,2-1.6,3c-0.5,1.2,0.2,2.5-0.5,4c-1.1,2.5-0.7,5.6-0.8,8.5c-0.1,3.2,0,6.4,0,9.6l-0.5,0c-0.1-0.3-0.4-0.7-0.3-1
					c0.1-2.5,0.2-5,0.3-7.4c0.2-3.2,0.5-6.3,0.7-9.5c0-0.9-0.4-1.9-0.6-2.8c-0.1-0.4-0.2-0.7-0.1-1.1c0.3-2.6,0.7-5.1,1-7.7
					l-0.6-0.1l-0.1,2.2c-0.2-1.4-0.1-2.8-0.2-4.1c0-1.3-0.2-2.6-0.3-4h-0.5l-0.9,1.9c-1.3-3.2-3.9-3.8-6.8-4.4l-0.4,4.5l5.2,1.5
					v15.8h-0.7L47,59.8l-4.1-1c0-3.7,0-7.2,0-10.6c0-0.6,0.3-1.3,0.6-2l-0.9-0.4c0,4.1-0.1,7.9,0,11.7c0,0.8,0.7,1.6,1.1,2.4
					c-1.1-0.2-1.5-0.8-1.5-2c0-3.4,0-6.9,0-10.3c0-2.1,0-4.1,0-6.2c0-0.4-0.2-0.8-0.4-1.2l-0.5,0.1c-0.3,3.4,0.5,6.8,0.2,10.1
					c-0.2,3.4-0.3,6.8-0.3,10.3l2.4-0.8c0.7,0.5,1.5,0.9,2.2,1.4c0.4,0.3,0.7,0.8,1.1,1.1l-4.2-1.7c-0.1,1.1-0.2,1.9-0.3,2.7
					c-0.1,1-0.3,1.9-0.5,2.9l-0.3,0v-2.8l-0.5,0v10.7h0.1l0.4-1.9c1.3,0.4,2.3,0.7,3.3,1c1.5,0.3,2.5,1.8,2.5,3.5c0,2.6,0,5.2,0,7.6
					H41v2.1l1.4-0.9l1.3,2.7l-0.4,0.2l-0.6-1.7c-0.4,0.4-0.3,0.9-0.5,1.1c-2,1.7-0.3,2.3,0.9,2.9c1.5,0.9,3.1,1.7,4.7,2.5l-10-3.4
					c0.4,0.1,0.8,0.2,1.1,0.2c0.6,0,1.2-0.2,1.9-0.3c-0.2-0.6-0.3-1.3-0.5-1.9c-0.1-0.3-0.5-0.6-0.4-0.9c0.1-1.3,0.3-2.6,0.6-4.2
					c1.6-0.2,1.4-1.8,1.5-3.4c0-0.5,0.3-1.1,0.5-1.7l-1.1-2.2h-0.3v5.5c-0.4-3-0.4-6.1-0.4-9.1c0-4.8-0.1-9.5-0.1-14.3
					c0-1.2-0.5-1.6-1.5-0.7c1.5-0.5,1.8-1.6,1.6-3.1c-0.1-1.7,0-3.4,0-5.2c0-0.4-0.3-0.9-0.5-1.3l-1.3,0.7l-0.5-1.4
					c-3.1,2.9,0.8,6-0.2,8.9l-2.8-0.5l-0.2,0.7l3.8,1.2L38,64.5l-3.5-0.2l-0.7-4c0,0,0.4-0.2,0.4-0.5c0.1-2.4,0.2-4.9,0.1-7.3
					c0-1-0.2-1.7,1.2-1.3c0.3,0.1,0.7,0,1.1,0c0.1-0.8,0.3-1.5,0.2-2.2c-0.1-0.6-0.5-1.4-0.9-1.7c-1.4-0.8-1.5-1.5-0.4-3
					c-0.1,0.3-0.2,0.6-0.2,0.9c-0.1,0.9-0.1,2,1.2,1.8c0.5-0.1,0.9-1,1.3-1.6l-0.5-0.4l-1.3,0.9l-0.5-1.6c1-0.2,2.5,1.1,2.7-1.1
					c0,0.8-0.2,1.6,0.1,2.3c0.3,0.6,1,1.1,1.6,1.6c0.3-0.3,0.8-0.6,0.8-0.8c0.1-2.3,0-4.5,0-6.8c0-0.2-0.4-0.4-0.6-0.5
					c0.4-0.2,0.8-0.7,1.2-0.6c1.9,0.5,3.8,1,5.8,1.5l1.3-1.5c-6.8-2.3-13.5-4.6-20.2-7v2.2c3.1,1.1,6.2,2.1,9.3,3.3
					c1,0.4,1.9,1.4,2.8,2.1c-0.2,0.4-0.5,1.1-0.6,1.1c-0.9-0.3-2-0.4-2.5-1.1c-1.4-1.9-3.2-2-5.4-2c0,1.1-0.1,2.1-0.1,3.2
					c0.1,10,0.3,20,0.4,29.9c0,4.1-0.3,8.2-0.4,12.2c0,1.2-0.3,2.5,1.7,2l0.2,3.7l0.6,0.2c0.2-0.6,0.6-1.1,0.7-1.7
					c0.1-1.3,0.1-2.6,0.1-3.8c-0.1-1.4-0.3-2.9-0.3-4.3c0-0.3,0.4-0.7,0.6-1l0,0c-0.6,1.3,0.6,1.6,1.3,2c0.6,0.3,1.2,0.5,1.7,0.6
					l-0.9,2.7l1.5-1.3c-0.1,2.2-0.2,4-0.3,5.8C38,88,37.9,89,37.8,89.9c-2.2-0.7-4.4-1.3-6.6-2c-0.7-0.2-1.4-0.7-2.1-1
					c0.4-0.9,1.1-1.7,1.1-2.6c0.1-8.5,0.2-17.1,0.2-25.6c0-2.6,0.2-5.3-1.7-7.5l1.6,0.7v-5c0-3,0.2-6,0-9c-0.1-0.8-1.3-1.6-2-2.4
					c-0.2,0.7-0.7,1.4-0.7,2.1c-0.1,3.9,0,7.8-0.1,11.6c0,1.1,0.4,1.6,1.3,2c-0.4,0-0.9-0.1-1,0.1c-0.6,0.8-0.1,3.8,0.4,4.2
					c-0.2,1.8-0.6,3.3-0.6,4.8c0,2.6,0.4,5.2,0.4,7.7c0,3.4-0.5,6.8-0.5,10.2c0,2.8,0.4,5.7,0.6,8.6h-1.3v0.2l24.6,8.4l0.2-0.6
					l-3.7-1.7l3.8,0.4c-0.1-2.8-0.3-5.6-0.4-8.5c1.4-0.4,2.9-0.8,4.4-1.2l-3.1,2.4c1.1,0,2.1,0.3,2.4-0.1c0.5-0.5,0.5-1.5,0.6-2.3
					V72.9l-0.6-0.2c-0.6,0.7-1.2,1.3-1.8,2c0.2-0.7,0.3-1.5,0.6-2.2C54.7,70.9,54.9,69.3,54,67.7L54,67.7z M45.1,34.4
					c-0.2-0.3-0.4-0.7-0.7-0.8c-3.2-1.3-3.2-1.3-3.2-4.3c-0.9,0.2-2,0-2.5,0.5c-1,0.9-1.9,0.5-2.5-0.1c-0.4-0.4-0.1-1.5-0.1-2.4
					l-3.1-1.2c-0.2,2.8-0.2,2.7-2.7,2.7c-0.5,0-0.9,0.2-1.4,0.4l-1.9,0.3c0.3,0.6,0.5,0.8,0.8,0.9c4.4,1.6,8.8,3.2,13.2,4.8
					c2.6,1,5.2,2,7.8,3c-1.3,1.7-0.9,2.3,2.2,3.2c0.7-1.1,0.3-1.8-0.9-2.3c-0.5-0.2-0.9-0.6-1.4-0.9l3,0.9c-0.7-1.1-1-2-1.6-2.4
					C48.7,35.7,46.8,35.1,45.1,34.4C45.1,34.4,45.1,34.4,45.1,34.4z M79.7,49.3c0.7-0.2,1.5-0.3,2.2-0.4c1.5-0.3,2.5-0.9,2.4-2.9
					c-0.2-3.7-0.1-7.4-0.1-11.1v-3.6c-1.6,0.5-3.8,3-3.6,3.8l1.3,0.3l-0.3,3.8L81,39.2l0.2-2.4l-1.4,1.5l-0.4-1.2l-0.5,0.1
					c0,3,0,6.1,0,9.1c0,2.3-0.7,3-3.4,3.3c-0.2-3.1-0.4-6.2-0.6-9.2c-0.1-1.2-0.2-2.6,0.3-3.5c0.8-1.5-0.1-1.7-1-2.1V52
					C76.2,51,77.9,50.2,79.7,49.3L79.7,49.3L79.7,49.3z M50.2,116.4c0.3,2,0.6,3.9,0.8,5.9c0.1,0.9,0,1.8,0,2.6h0.5v-8.9L50.2,116.4
					c0.4-0.8,1.3-1.6,1.3-2.4c0.1-4.9,0.1-9.8,0.1-14.6c-2.1-0.7-3.2-1.4-3.3-2.2l2.8,1.3l0.5-0.5c-0.4-0.5-0.7-1.2-1.2-1.4
					c-7.6-2.7-15.3-5.3-23-7.9c-1.5-0.5-2.1-1.5-1.2-2.8c0.9-1.4,0.1-1.7-0.9-2c-1.5-0.3-2.1-1.2-2-2.8c0.1-1.6,0-3.2,0-4.8h-0.4
					v6.4h-0.4v-7.1h-0.5V85c-0.5-0.7-1.1-1.1-1-1.3c0.7-2.4-0.4-4.9,0.3-7.5c0.5-1.5,0.1-3.2,0.1-5.1l4.7,1.6
					c0.8-2.7,0.7-2.8-1.6-3.6c-4.3-1.5-8.6-3.1-12.9-4.6c-2-0.7-4-1.2-6.1-1.8v14.2l2.7,0.3V66.2c3.2,1.1,6,2.1,8.8,3.1l-0.1,0.3
					c-2.4-0.8-4.9-1.5-7.4-2.3v7H10v-6.2l4.3,1.4L15,81.4c-2-2-6.2-0.9-5.2-5.2l0.8,2.2c0.8-1.9,0.5-3.4,0.1-4.9l-0.6,0v2.2
					l-0.7,0.2l-0.6-2.4H8.7v6.1c-0.5-0.1-1.1-0.3-1.6-0.2c-0.5,0.1-0.9,0.4-1.4,0.7l0.7,1.1c-0.3,0.3-0.9,0.6-0.9,0.9
					c-0.1,5.7-0.1,11.3-0.1,17c0,0.5,0.6,1,0.9,1.5l0.3-0.3V84.1c3.1,2,7.1,1.9,9.9,4.5L14.2,88c0.4,1.2,0.9,2,1,2.9
					c0.2,2.6,0.2,5.2,0.5,7.8c0.2,2.1,0.7,4.2,1.1,6.2l0.6-0.1V85l1.5,0.8c-1.8,1.9-1,8.9-0.3,12.5c0.2-1.9,0.3-3.8,0.2-5.7
					c-0.1-1.2,0.2-1.9,1.3-2.4c0.3,0.3,0.5,0.9,0.8,1c1.5,0.6,2.2,1.6,2.1,3.2c-0.1,1.2,0.2,2.4,0.3,4c2.1-4.3,0.6-7.5-3.3-8.2
					l-1.4-0.4c2.5-0.1,4.9,0.4,6.7,2.4l0.4-1.9l0.8,1.8l0.5-0.2v-2.8c1.7,0.9,4.2,0.2,4.3,3.1c0,0.1,0.6,0.1,1,0.2l-1.4,0.1
					c0.1-2.1-1.5-2.1-3.2-2.5c0,4.8,0.1,9.4,0,14c-0.1,2,0.9,2.5,2.6,2.6V94.2l0.5-0.2l1,2.1l0.8-0.6c-0.2,1.8-0.4,3.5-0.5,5.3
					c-0.2,2.3-0.5,4.6-0.8,6.9c-0.1,1.2-0.3,2.5,2,2.5c0-2.7,0.1-5.4,0.2-8.1c0-0.1,0-0.1,0-0.2c-0.3-1.1,0.6-2.2,1.7-2.2
					c2.2,0,3.6,1.6,3.6,3.9c0,1.9,0.3,3.8,0.5,5.8l-1.7,1l6.4,2c0-3.8-0.1-7.3,0.1-10.8c0-1.2,0.8-2.3,1.2-3.5
					c-0.6,1.7-0.2,2,3.1,2.4l-0.5-0.7c0.3,0.5,0.7,1,0.8,1.6c0.1,2.6,0,5.2,0,7.8l1.6-0.2l-2.4,2.2l1.2,0.6l-0.2,0.5
					c-1.4-0.3-2.8-0.6-4.3-0.9c-0.1,2.2,2.3,1.3,3,2.6c-1.9-0.5-3.7-1-5.8-1.6c0.4,2.3,2.4,1.7,3.6,2.7l-2.5-0.3
					c1.5,0.7,2.9,1.4,4.4,1.7C47.9,116.8,49.2,117.5,50.2,116.4L50.2,116.4L50.2,116.4z M63.8,51.8h1.4c0-2.8,0.1-5.5-0.1-8.1
					c0-0.7-0.7-1.3-1.3-2.3c0.2-1.7,0.6-2.7,1.4-3v3.2l0.3,0l0.2-1.8c0.2,1.8,1.7,2.2,2.9,2.1c1.5-0.1,1.1-1.6,1.2-2.6
					c0.1-2.1,0.2-4.2,0.1-6.3c-0.2-2.9,0.7-6.1-2.3-8.7c-0.3,1.2-0.6,2.3-1,3.5c-0.1,0.3-0.5,0.4-0.8,0.6c1.2-1.9,1.1-2.8-1.2-6
					c-0.8,2.7-1.5,5.4-2.1,7.5c-0.6,0.6-1,0.9-1.1,1.2c-0.2,0.7-0.1,1.5-0.4,2.1c-0.6,1.1-0.8,2,0.1,3c0.3,0.4,0.8,1.4-0.5,1.8
					c-0.2,0,0,1.9,0,1.9c2,0.1,1.5,1.5,1.5,2.7C62.2,45.7,61.3,49.1,63.8,51.8c-0.3,0.5-0.9,0.8-1,1.2c-0.4,2.5-0.7,4.9-1.1,7.9
					l3.2-1.7l0.2,0.3l-1.8,1.3l3.8,4.6c-0.2-2.5-0.3-4.8-0.6-7c-0.1-0.5-0.5-1-0.9-1.3c-0.5-0.5-1.2-0.8-1.6-1.1L66,53L63.8,51.8
					L63.8,51.8L63.8,51.8z M74.3,85.4c2.7-1.3,5.4-2.4,8-3.8c0.5-0.3,0.9-1.3,0.9-1.9c0.1-5.1,0.2-10.2,0.2-15.2
					c0-2.1-0.4-4.1-0.6-6.5l-4,1.5c0.6,0.7,1.1,1.1,1.5,1.6c0.5,0.8,1.3,1.7,1.3,2.6c0,5-0.3,9.9-0.4,14.8c0,1.3-0.3,2.2-1.6,2.8
					c-1.5,0.6-2.9,1.3-4.4,1.9C74.1,83.5,73.7,84.1,74.3,85.4L74.3,85.4L74.3,85.4z M62,86.2c1-0.7,1.9-1.3,2.8-2
					c0.3-0.2,0.6-0.7,0.6-1.1c0-3.1,0-6.2,0-9.5L62,74.4L62,86.2L62,86.2L62,86.2z M72.9,72.7c-1.7,0.3-2.5,0.6-2.1,2
					c0.1,0.4-0.1,1-0.1,1.5c0,3.5,0,6.9,0,10.5c1.1-0.3,2.6-0.1,2.5-1.8C73.1,80.9,73,76.9,72.9,72.7z M56.7,41.6
					c-3.2,0.8-3.8,1.4-3.9,4.3c-0.1,2.6,0,5.1,0,8.1c0.6-0.7,0.9-1.3,1.2-1.4c1.6-0.3,1.4-1.5,1.5-2.6c0.2-1.3,0.5-2.7,0.8-3.7
					L56.7,41.6L56.7,41.6L56.7,41.6z M67.7,95.5c1.5,1.4,2.1,3.2,1,4.4c-1.4,1.6-0.4,3-0.4,4.4c0,1.2,0.6,2.4,0.8,3.7
					c0.1,0.6-0.2,1.3-0.2,1.7h2.2c-0.3-0.6-0.7-1.3-0.6-1.3c2-1.2,0.1-2.8,0.4-4.2l-0.2,2.6h-0.2l-0.6-12L67.7,95.5L67.7,95.5
					L67.7,95.5z M73.1,89.8c-2.5,0.2-3.6,0.8-2.6,3.7l1.7,0.3c-0.3,0.4-0.7,0.7-1,1.2c-0.3,0.4-0.6,0.9-0.6,1.3
					c0.1,1.7,0.2,3.3,0.4,5l0.7,0.1C73.9,97.8,72.9,93.7,73.1,89.8L73.1,89.8L73.1,89.8z M67.5,80.5c1.1-0.9,2.4-1.5,2.4-2.2
					c0.2-2.6,0-5.1-0.1-7.7c-1.9,0-2.3,1-2.3,2.1C67.4,75.1,67.5,77.5,67.5,80.5z M66.5,42.1c-2.1,2.8-1.4,4.6,2.7,7
					C69.7,44.7,69.2,43.5,66.5,42.1z M4.8,59.1l-0.2,0.7c7.3,2.6,14.7,5.2,22,7.8l0.3-0.8C19.5,64.2,12.1,61.7,4.8,59.1z
					 M66.5,121.9c-0.4-1.5-0.4-3.5-1.3-4.1c-1-0.7-1.1-1.1-0.9-2.1c0.1-0.8,0-1.6,0-2.7l-1.7,0.8C63.3,121.2,64,122,66.5,121.9
					L66.5,121.9L66.5,121.9z M68.4,59.5c-1.2,0.8-1.3,2-0.4,6.8c0.1,0.7,0.8,1.2,1.2,1.8l0.5-0.3v-8.1h-0.2l-0.4,1.5L68.4,59.5
					L68.4,59.5L68.4,59.5z M62.3,89.7l0.4,0.3c2.1-1.6,6.1-0.6,6.4-5.2c-1.1,0.5-2,0.8-3,1.2c-1,0.4-1.9,0.7-3.3,1.2L62.3,89.7
					L62.3,89.7L62.3,89.7z M81.8,92.8c2.6-0.7,3.3-3.8,1.9-7.2c-1.2,0.9-3.4,0.6-3.1,3.1l2.1-0.6l-0.9,3.1h1.7L81.8,92.8L81.8,92.8
					L81.8,92.8z M74.2,65.3c2.5-0.7,4.7-3.5,4.2-5.5C74,61,73.6,61.6,74.2,65.3z M71.7,35.9l0-0.3l1.8-1.1l-1-1.2
					c-0.8,1.2-1.8,2.2-2.2,3.4c-0.7,1.8,1.5,2.1,2.1,3.2l-1.1,1.4l0.6,0.2c2.8-1.4,0.6-4.1,1.4-6.1L71.7,35.9L71.7,35.9L71.7,35.9z
					 M18,109.5l-0.4,0.1v7.8c1-1,1.7-1.8,2.5-2.5c0.6-0.6,0.7-0.9,0.2-3l-0.2,1.4L18,109.5C18,109.5,18,109.5,18,109.5z M56.1,92.6
					c-0.3-2.4-1.5-4-3.7-5v5.9L56.1,92.6z M60.4,71.7L60,71.6c-0.1,0.6-0.2,1.2-0.2,1.9c0,3.5-0.1,7,0,10.5c0,1.3-0.4,2-1.7,2.3
					c-0.8,0.2-1.5,0.6-2.3,1c2.3,0.4,4.5-0.6,4.5-2C60.5,80.7,60.4,76.2,60.4,71.7L60.4,71.7C60.4,71.7,60.4,71.7,60.4,71.7z
					 M69.1,58.2h0.5c0-2-0.1-3.9,0-5.9c0.1-1.7-0.5-2.3-2.4-1.5c0.2,1.3,0.2,2.7,0.6,4C68.1,55.9,68.7,57,69.1,58.2L69.1,58.2
					L69.1,58.2z M23.7,108.9c1.4-5.4,1-8.8-0.8-9.6C22.9,102.6,22.5,105.8,23.7,108.9z M39.4,9.3L38.9,9
					c-4.2,6.4-8.3,12.8-12.5,19.1l0.5,0.3C31.1,22.1,35.2,15.7,39.4,9.3L39.4,9.3L39.4,9.3z M56,89.3c1.2,2.3,2.8,2.7,4.4,1.2
					c0.5-0.4,0.4-1.4,0.6-2.2c-0.6-0.1-1.3-0.5-1.8-0.3C58.1,88.3,57.1,88.9,56,89.3z M60.9,44.1l-1.8-3.6l-0.3,0.2l-0.2-3.4h-0.5
					c-0.3,2.5-0.5,4.9-0.8,7.4L60.9,44.1L60.9,44.1L60.9,44.1z M66.2,9.2l-1.9,0.5l-0.1-0.2l1.4-0.8c-0.9-0.4-1.7-0.2-2-0.5
					C62.3,7,62.3,6.9,60.5,8l1.7,0.5l-0.6,0.9l4.3,2.3L66.2,9.2L66.2,9.2L66.2,9.2z M23.9,115.9c-0.6,0-1.3,0-2.1,0
					c-1.1,0-1.8,0.4-1.3,1.7c0.4,1.1,3.3,2.3,4.1,2L23.9,115.9L23.9,115.9z M61.5,95.1c-0.4-1-2.1-1.3-3.3-0.3
					c-0.8,0.7-1.6,1.3-2.5,1.8c-1.5,0.8-1.6,1.8-0.9,3.3C56.9,97.9,58.1,94.8,61.5,95.1z M89,106.9l0.1,0.5l-2.8,0.7
					c1.1,1.2,2.3,0.8,4.8-1.4c-1.1-0.6-2.1-1.2-3.1-1.7c-0.1-0.1-0.6,0.4-0.6,0.4c0.1,0.3,0.4,0.6,0.5,0.8l-2,0.7l0.1,0.3L89,106.9
					L89,106.9L89,106.9z M87.4,109.6c1.5,1.1,2.6,2.6,4.2,1.9v-3.6C91.6,107.9,87.4,109.6,87.4,109.6z M17.9,53l-0.7-0.5L15,56.2
					l-0.8-0.9l-0.3,1.4l0.3,0.5l2.7-1.3l1.5,1.6l0.6-0.4c-0.2-0.4-0.4-1-0.7-1.3C17,55.1,16.7,54.2,17.9,53z M16.1,110.3l0.3-0.1
					l-0.9-2.2l-0.8,0.2l-0.3,5.5l0.6,0l0.3-1.1l0.2,0v3.8H16l-0.3-6.9l0.2,0L16.1,110.3L16.1,110.3L16.1,110.3z M43.3,122.2
					c0.2,2.7,2.8,1.6,4,2.7l-1.5,0.4c1.9,1.1,2,0.9,2.8-1.6C46.9,123.2,45.2,122.7,43.3,122.2L43.3,122.2L43.3,122.2z M14.7,104.5
					c1.3-1.9,0-2.6-1.4-3.3c-0.3-0.2-0.7-0.4-1-0.4c-0.2,0-0.4,0.6-0.4,0.9C11.3,104.2,13.6,103.6,14.7,104.5L14.7,104.5L14.7,104.5
					z M35.8,88.7c1.1-0.9,1.3-3.7,0.5-5.6C35,83.7,34.8,86.7,35.8,88.7z M60.2,126.1l-0.1-0.6c-0.8-0.8-1.7-1.6-2.6-2.3
					c-0.2-0.2-0.6-0.2-0.9-0.1c-0.2,0.1-0.5,0.6-0.4,0.7c0.4,0.8,0.6,1.9,1.3,2.3C58.3,126.4,59.4,126.1,60.2,126.1L60.2,126.1
					L60.2,126.1z M67.5,102.6H67l-0.5,8.4l0.6,0c0.1-1-0.1-2.2,0.3-2.9C68.7,106.2,67.7,104.5,67.5,102.6L67.5,102.6z M61,101.3
					l-0.5,0c0.4,3.2-0.5,6.6,0.6,9.7l0.5,0L61,101.3L61,101.3L61,101.3z M47.4,26.5l0.5-0.3c-1.5-3.4-3.1-6.8-4.7-10.1l-0.6,0.3
					L47.4,26.5L47.4,26.5L47.4,26.5z M82.7,52.4c-1.2-2.1-1.8,1.4-3.2,0.1c-0.1-0.1-1.8,1.4-2.8,2.2c1.8-0.5,3.6-1.1,5.4-1.6
					c1.1-0.3,1.4-1,1.2-2c0-0.1-0.2-0.2-0.4-0.4L82.7,52.4z M61,26.5l-0.3-0.3c-0.6,0.6-1.8,1.3-1.7,1.9c0.1,2.1-0.6,3.3-2.7,3.6
					c-0.2,0-0.5,0.3-0.7,0.5l0.2,0.4c1.3-0.6,2.9-0.9,3.7-1.9C60.4,29.6,60.6,27.9,61,26.5L61,26.5L61,26.5z M65.5,107
					c-1.4,0.6-1.5,2.4,0,5.3V107z M21.9,108c-1.2,5-1.1,6,0.7,6.7L21.9,108z M64.5,95.5c2.2-0.4,2.6-1.6,1.9-3.4
					C64,92.6,63.8,92.9,64.5,95.5z M54.3,41.7c2.6-0.7,2.8-1.1,1.7-3l-2.8,1.1L54.3,41.7L54.3,41.7L54.3,41.7z M65.5,70.5L64.9,70
					l-3,1.6l0.1,0.7c0.9,0.1,1.9,0.3,2.7,0.1C65.2,72.3,65.2,71.2,65.5,70.5L65.5,70.5L65.5,70.5z M59.8,25.8
					c2.6-0.2,2.6-2.3,3.4-4.3C60.5,22.1,60.9,24.5,59.8,25.8z M76,66.5c-2.1,0.8-1.4,2.5-2.1,4C76.4,70,76.2,68.4,76,66.5z
					 M27.3,106.4c-0.4,2.7,1.5,2.2,2.8,2.8C30.5,106.8,28.6,107.2,27.3,106.4z M7.6,87.1L7.3,87v13.2h0.2V87.1z M65.3,90.5l-0.2-0.5
					L57.6,93l0.2,0.4L65.3,90.5L65.3,90.5z M69.3,113.7c0.8-0.4,1.5-0.8,2.1-1.2c0.2-0.1,0.5-0.5,0.5-0.7c-0.1-0.3-0.5-0.6-0.7-0.6
					C69.6,111.1,68.9,112.2,69.3,113.7C69.3,113.7,69.3,113.7,69.3,113.7z M63.2,93.3l-0.9,0c0,1-0.2,1.9-0.1,2.9
					c0,0.2,0.5,0.4,0.7,0.7c0.2-0.3,0.6-0.5,0.6-0.8C63.5,95.1,63.3,94.2,63.2,93.3z M54.2,115.3l0.2,0.5c2.4-0.8,4.9-1.5,7.3-2.3
					l-0.2-0.7C59.1,113.6,56.6,114.4,54.2,115.3z M45.7,120l0.7-0.1c-0.2-0.9-0.4-1.9-0.6-2.8c0-0.1-1-0.1-1,0
					c-0.2,0.8-0.3,1.7-0.5,2.5l0.5,0.1l0.6-1.4L45.7,120C45.7,120,45.7,120,45.7,120z M67.5,89.1l0.2,0.6c2.2-0.9,4.3-1.8,6.5-2.7
					c-2,0.3-3.9,1-5.8,1.7C68.1,88.7,67.8,88.9,67.5,89.1L67.5,89.1L67.5,89.1z M10.1,111.3l0.3-4.4C8.9,107.6,8.7,109.4,10.1,111.3
					z M30,116.2l-0.2,0.5c1,0.4,1.9,0.9,2.9,1.3c1,0.4,2,0.7,3,1.1l0.2-0.6L30,116.2z M60.3,97.8l-1.3-1.6L56.4,99l0.1,0.2
					C57.7,98.8,58.8,98.4,60.3,97.8L60.3,97.8L60.3,97.8z M9.5,55.7c-0.6,1-0.1,1.5,0.9,1.6c0.8,0.2,1.6,0.3,2.4,0.5
					c0.6,0.1,1.2,0.2,1.8,0.3l0-0.3L9.5,55.7L9.5,55.7L9.5,55.7z M36,110.1c-0.9-0.2-1.6-0.3-3-0.6l2.5,2.9l0.5-0.3L36,110.1
					L36,110.1L36,110.1z M48.5,28.9l-0.5,0.2l3.2,6.6l0.4-0.2C51.7,35.5,48.5,28.8,48.5,28.9z M75.2,90.6l0.3,0.6l3.7-2.1l-0.3-0.6
					L75.2,90.6L75.2,90.6L75.2,90.6z M7.9,103.4l0.2,2.3l0.5,0.2l1.9-2.4C10.5,103.4,7.9,103.4,7.9,103.4z M80.5,83.6l0.3,0.6l4-1.9
					l-0.3-0.6C83.2,82.3,81.8,82.9,80.5,83.6z M83.9,79.9L83.9,79.9l0-6.7l-0.4,0L83.9,79.9L83.9,79.9L83.9,79.9z M60.5,62.9
					l-0.3-0.7l-4.2,1.5l0.2,0.6L60.5,62.9C60.5,62.9,60.5,62.9,60.5,62.9z M79.8,84.6l-0.4-0.7L75.2,86l0.3,0.5L79.8,84.6L79.8,84.6
					L79.8,84.6z M74,80.6l0.2,0.5l5.8-2.6L79.8,78L74,80.6z M61.4,79.6L61,79.5v6.2h0.4V79.6z M70.7,41.7l-0.9-0.2l-0.4,2.1l1.3,0.2
					V41.7z M19.4,95.7l0.8,0.8l1.7-1.1l-0.9-1.1L19.4,95.7L19.4,95.7z M40.2,113.6l0.6-0.5c-0.3-0.4-0.6-1.1-1-1.2
					c-0.6-0.1-1.3,0.2-1.9,0.3l0.1,0.5C38,112.9,40.2,113.6,40.2,113.6z M81.7,102.9l0.9,0.2l0.4-3.7l-0.5-0.1L81.7,102.9
					L81.7,102.9L81.7,102.9z"/>
				<path class="st1" d="M95.8,106.8c-0.7-0.4-1.4-0.8-2-1.1c-0.1-0.1-0.2-0.3-0.2-0.3c0.8-0.9,1.7-1.7,2.7-2.7
					c-1.1,2.3,1,3.4,1.9,5l0-0.1L95.8,106.8z"/>
				<path class="st1" d="M5.2,107.8l-1.9,1.8l0.3,0.4l-2.2,0.2c0.6-1.2,1.3-2.5,2-3.8c0.4,0.4,0.6,0.7,0.9,1
					C4.3,107.3,5.2,107.8,5.2,107.8z"/>
				<path class="st1" d="M10.3,102.3c-0.6-0.3-1.3-0.5-2-0.8l0,0.1c0.1-1.3,0.2-2.6,0.3-3.9c0.1-1.3,0.2-2.7,0.3-4.1l0.5,0
					c-0.1,1.1-0.2,2.2-0.2,3.4c0,1.1-0.1,2.3,0.1,3.4C9.4,101.1,9.9,101.7,10.3,102.3L10.3,102.3z"/>
				<path class="st1" d="M1.1,110.7c-0.5,1.1,0.4,0.9,1,1c1.7,0.3,3.4,0.6,5.1,0.9c-2.3-0.2-4.5-0.3-7.2-0.6L1.1,110.7L1.1,110.7
					L1.1,110.7z"/>
				<path class="st1" d="M9.4,115.7h3.5l-1.2,2C11,117,10.2,116.3,9.4,115.7C9.5,115.7,9.5,115.7,9.4,115.7z"/>
				<path class="st1" d="M37,116.3c-1.5-0.5-3-0.9-4.5-1.4c0.7-0.5,1.2-0.6,2.1-0.1c1.4,0.8,3,1.2,4.5,1.7L37,116.3z"/>
				<path class="st1" d="M40.6,97.4c0.1,0.3,0.4,0.6,0.4,0.8c0,1.9,0,3.9,0,5.8v5.8l-0.6,0l-0.2-12.5L40.6,97.4L40.6,97.4z"/>
				<path class="st1" d="M48.3,97.3c-1.2-0.4-2.4-0.5-3.5,0.4v-1.5c-0.5,0.1-0.9,0.2-1.3,0.2c-0.8,0.2-1.7,0.4-2.5,0.5l-0.3-2.7
					l0.5,0l0,0.9l0.9-0.7l0.6,1.9C44.1,95.3,46,95.6,48.3,97.3L48.3,97.3L48.3,97.3z"/>
				<path class="st1" d="M33.2,94.2l0.4-0.8l2.2-0.9l3.1,2.9c-0.8-0.4-1.5-1.1-2.3-1.2C35.5,94,34.3,94.2,33.2,94.2
					C33.2,94.2,33.2,94.2,33.2,94.2z"/>
				<path class="st1" d="M54,67.8c-0.4,0.1-1.1,0.2-1.1,0.3c0.1,2.2,0.2,4.4,0.3,6.6L52.4,84h-0.1V64.1h0.2l0.2,2.9l1.6-3.1L54,67.8
					C54,67.8,54,67.8,54,67.8z"/>
				<path class="st1" d="M49.4,68c-1.4-0.7-3.5-0.3-3-2.8l3,0.5C49.4,65.7,49.4,68,49.4,68z"/>
				<path class="st1" d="M34.7,77.2c-0.6-1,0.1-3.1-2.2-2.8l0.2-1.7l1,1.3c1.3-0.8-0.4-3.3,2.1-2.7c2.4,0.6,2.6,1,2.1,3.8L35,73.8
					C34.9,75,34.8,76.1,34.7,77.2L34.7,77.2L34.7,77.2z"/>
				<path class="st1" d="M61.8,39c0.1-2.3,0.3-4.5,0.4-6.8h0.2V39C62.3,39,61.8,39,61.8,39z"/>
			</g>
		</g>
	</g>
</g>
</svg>
