<?xml version="1.0" encoding="UTF-8"?><svg id="b" xmlns="http://www.w3.org/2000/svg" viewBox="0 0 143.93 132.56"><g id="c"><g id="d"><g id="e"><g><path d="M84.12,83.74c-1.66,.4-3.33,.78-4.97,1.25-.2,.06-.44,.78-.34,.88,.36,.38,.86,.63,1.64,1.14l-4.85,.32-.23-.99-3.58,.45h0c-.79-.64-1.65-1.2-2.34-1.94-.79-.84-1.29-1.85-.3-2.94l1.56,1.99,1.35-.77-2.29-3.78,.33-3.53c1.04,.51,2.13,1.04,3.22,1.57-.9-.22-1.81-.44-3.03-.74,.2,1.05,.23,1.95,.56,2.72,.63,1.5,1.58,2.87,2.12,4.39,.49,1.37,1.11,2.07,2.45,1.65l-.45-7.85-1.7-.2,.82-.09,.14-.66c-2.6-.78-5.2-1.55-7.92-2.37l-.46,1.63c-.7-2.7-2.88-2.21-4.75-2.57-.03,.44-.04,.76-.07,1.07s-.1,.61-.15,.92c-.32-1.63-.79-2.45-1.41-2.48l-.61,2.39c-.2-1.02,.11-2.07-.28-2.62-.41-.58-1.5-.69-2.44-1.07l-.75,3.33,.68,.14,.89-2.71,.6,2.62-2.4,1.95c3.59-.9,4.42-.63,5.34,1.99l5.2-.95,2.25,2.15-1.17,.42c-.51-.51-1.03-1.02-1.59-1.58l-3.43,2.42,.2,.36,1.52-.3,.65,1.17,1.68-1.06c-.46,1.03-.91,2.06-1.37,3.09-.5-.84-1.01-1.69-1.59-2.67-.99,.91-2.6,1.32-1.01,2.85-.62-.55-1.21-1.13-1.87-1.62-.29-.22-.72-.24-1.09-.34v-3.63l-2.08,2.84-1.66-1.1c-.16,.63-.6,1.36-.43,1.89,.42,1.31,1.51,1.42,2.65,.91,.56-.25,1.06-.65,1.59-.98-.99,.63-2.11,1.91-2.96,1.75-2.13-.41-2.09-2.37-1.87-3.94-2,.15-3.96,.24-5.91,.5-.47,.06-.88,.67-1.29,1.04-1.21,1.08-2.46,.86-3.12-.59-.12-.26-.15-.8-.23-.8-2.56-.02-4.85-2.15-7.56-.99-.14,.06-.36-.03-.78-.08l.94-.53v-.42l-4.49-.61c-.28-2.26-.18-4.57,2.02-6.33l-.17-.62c-.69-.02-1.39-.11-2.07-.05-2.11,.19-3.83-.82-5.57-1.76-.33-1.4,.52-3.44-2.53-3.62l2.28-1.45s.04-.41,.13-1.31c1.21,3.55,1.6,4,2.85,3.49l-1.86-3.19c-.03-.64,2.05-.98,.23-1.88l1.08-3.45c-2.15,0-3.79-.05-5.42,.03-.44,.02-.86,.41-1.29,.63l-1.6-.31,.52-.1-.53-1.83-.95,.3,1.45,3.99,1.18-1.96-.25,4.82,.55,.06,.79-2.82,2.47,.77h-1.83v.5l2.71,.39c-1.56,.03-3.13-.32-3.66,1.77-.23,.89-.5,1.78-.67,2.68-.25,1.32,1,2.86,2.34,2.98,.36,1.45-.93,1.55-1.61,1.48-1.08-.11-2.11-.72-3.17-1.07-.84-.28-1.73-.44-2.54-.79-.64-.27-1.19-.73-1.66-1.35,1.16,.59,2.27,1.43,3.34,.07,1.1-1.4,.65-3.17-.91-4.39l2.8,1.29-.65-5.75h-.57l-.59,.77c-.11-.15-.2-.24-.26-.34-.34-.55-.67-1.11-1-1.66-.69,.94-1.65,1.79-2.01,2.84-.41,1.21-.19,2.62-.43,3.9-.1,.51-.71,.92-1.08,1.38-.52,.63-1.04,1.26-1.58,1.91-1.68-1.28-1.08-2.1,.1-3.06,.54-.44,.74-1.29,1.1-1.96-.3-.05-.6-.1-.9-.14-.07-1.13-.14-2.26-.18-2.9-.88,.08-1.78,.39-2.01,.13-.47-.54-.52-1.42-.84-2.11-.17-.37-.56-.63-.86-.94-.15,.43-.54,.94-.41,1.27,.43,1.17,.91,2.36,1.63,3.35,.27,.37,1.27,.15,1.88,.35,.27,.09,.43,.55,.63,.83-2.26-.98-2.42-.88-4,2.47-.77-.26-.76-1.01,.03-2.24-1.47-.22-2.48-.63-1.16-2.3,.38-.48,.13-1.47,.17-2.22l-.5-.24-1.74,3.26-2.02-2.4h.02l-.39-1.04,.79-.88,3.19,.64c.23-1.97-.05-3.86,.72-5.08,.8-1.28,2.47-2.34,4.82-1.35l.51-6.78h.21v4.06l2.82,.49c0-3.24,.04-6.4-.05-9.56-.01-.36-.66-.86-1.12-1.03-1.54-.6-3.15-1.03-4.69-1.64-.42-.17-.83-.69-.96-1.13-.06-.21,.48-.76,.85-.91,3.51-1.45,7.04-2.85,10.59-4.22,.25-.1,.68,.26,1.32,.53l-10.41,3.68c1.92,1.64,3.73,.94,5.75,0,3.09-1.44,6.33-2.57,9.54-3.72,1.31-.47,1.96-1.05,1.85-2.58-.19-2.57-.11-5.15-.18-7.73-.01-.4-.21-.81-.39-1.18-.12-.27-.55-.57-.49-.72,.68-1.8,1-4.01,2.25-5.28,4-4.1,6.85-8.97,9.83-13.77h.38c.84,.39,1.65,.87,2.53,1.17,14.34,4.87,28.69,9.67,43,14.62,1.74,.6,3.2,2.02,4.8,3.05,3.32,2.14,6.65,4.27,9.96,6.43,.44,.29,1.17,.9,1.09,1.09-.23,.59-.71,1.35-1.25,1.5-1.28,.35-1.48,1.08-1.44,2.25,.09,2.36,.01,4.72,.04,7.09,.02,1.9-.73,4.18,2.88,4.51l-2.08,1.74c-.27,2.03-.52,3.97-.79,5.91-.02,.12-.28,.22-.27,.32,.13,3.36,.26,6.73,.43,10.09,.01,.27,.33,.52,.5,.78l.06-.05c-.98,.95-.59,1.41,.55,1.8,2.1,.72,4.17,1.55,6.23,2.34l.13-1.25-.03-.02c.21,1.15,.55,2.29,.61,3.44,.1,1.96,.03,3.92,.15,5.93,.65-3.21,1.3-6.41,1.95-9.63,1.05,.27,1.56,1.42,1.51,3.43,.46,.52,.79,.9,1.13,1.27-2.52,1.59-1.74,4.25-2.34,6.46,.9-1.74,1.69-3.51,2.4-5.31,.13-.33-.07-.8-.12-1.2,1.6-.25,1.91-1.42,1.82-2.73-.08-1.12-.36-2.23-.57-3.45,1.4,1.09,1.61,4.21,.74,5.82-.99,1.84-1.83,3.78-2.57,5.74-.61,1.62,.12,2.48,1.36,2.47,.08,1.82,.16,3.58,.24,5.34l-.29,.04c-.19-.38-.3-.96-.6-1.09-.37-.16-.99-.08-1.33,.15-.24,.16-.36,.85-.22,1.14,.74,1.49,.78,1.5-.91,1.66-1.11,.11-2.22,.15-3.81,.25l2.93,1.01-4.81,2.3-.28-.54,2.21-1.15-5.04-1.9c-.6,1.99-.97,2.14-4.79,1.82l.37,1.6-4.21,.8-.58-1.92c-1.17,.5-2.32,.87-3.32,1.48-.42,.25-.7,1-.72,1.54,0,.42,.42,1.11,.79,1.22,.81,.25,1.72,.21,2.59,.29-1.38,.51-2.73,.91-3.95-.41-.21-.23-.76-.17-1.15-.22-1.38-.17-2.76-.33-4.15-.49l.07-.58c.74,.15,1.48,.46,2.2,.4,.75-.06,1.72-.29,2.14-.81,.33-.41,.21-1.73-.18-2.01-.56-.4-1.53-.21-2.61-.3l.93,2.28-.66,.29-1.61-3.48,3.07,.27c-.11-.33-.19-.6-.29-.88,.41-.52,.82-1.47,1.26-1.48,1.52-.05,1.88-1.38,2.82-2.22-.56-.22-1.14-.37-1.6-.19-.82,.31-1.58,.77-2.33,1.23-.54,.33-1.02,.76-1.52,1.15l1.42,1.52v.02h0Zm-6.05-64.77l.4,1.09,2.35-1.23-.43-.83-2.28,.92-.52-1.36-2.35,1.03,.33,.97,2.5-.59ZM41.3,8.16l-.09,.89,.35,.32,1.92-1.71,3.38-.62c-.16-1.17-2.69-1-.61-2.45-1.39-.49-2.56-1.03-3.78-1.26-.55-.11-1.23,.37-1.82,.65-.04,.02,.17,.57,.16,.53l-2.08,1.66,.26,.32c.74-.12,1.47-.25,2.21-.37l-2.79,1.18,1.9,1.34-.4,.89,.36,.21,1.02-1.56v-.02h.01Zm10.28,4.89h-2.11l-.07,.65c.5,.62,.94,1.31,1.52,1.83,.69,.62,1.27,.49,1.42-.54,1.32,.42,1.53-.34,1.46-1.38l2.73-.99c.08-2.24-2.56,.26-3.1-1.34l.21,1.32c-1.04-1.18-1.49-1.08-2.06,.46h0Zm25.33,7.97c-.65-.4-1.5-1.29-1.9-1.11-.78,.33-1.3,1.26-1.93,1.94l.35,.42,3.53-1.3-.96,1.98,3.09,.88c.68-2.31-.43-2.86-2.19-2.81h.01Zm-42.93,18.65l.09,.16,.18-.04s-.08,.1-.1,.16c0,.03,.02,.11,.05,.12,.34,.16,.68,.35,1.04,.46,12.67,4.05,25.34,8.09,38.02,12.12,.5,.16,1.07,.13,1.61,.19l.02-.37c-10.45-3.32-20.9-6.65-31.35-9.97-.08-.17-.12-.45-.25-.5-2.69-.96-5.38-1.93-8.1-2.8-.32-.1-.81,.33-1.21,.52l-6.44-2.76-.29,.83,6.74,1.88h0Zm40.46-15.29c.29-1.41-.95-1.23-1.66-1.49-.26-.09-.69,.3-1.05,.46l.87,1.19c-3.19-.47-3.16,2.8-5.12,3.98,1.33,.81,2.23,.9,3.05-.24,.35-.48,.97-.77,1.47-1.15l-.67,1.45c1.13-.28,1.89-1.1,2.82-1.4s2.04-.07,3.06-.07l-.02-.54c-1.56-.48-3.12-1.61-4.69,.17l.73-2.17,1.22-.23c.44,1.47,3.39,2.1,5.39,.84-2.02-.26-3.36-2.21-5.41-.81h.01Zm-23.32,26.67l4.04,1.77,.84-2.06c1.15-1.29,.39-1.89-.84-2.31-2.83-.97-5.64-1.97-8.49-2.89-2.51-.8-5.04-1.5-7.59-2.25-.28,2.05-.28,2.06,1.35,2.61,.84,.28,1.71,.49,2.55,.8,2.71,1.01,5.42,2.04,8.12,3.07-.44,.17-.96,.58-1.31,.46-1.32-.45-2.58-1.09-3.88-1.61-1.07-.42-2.16-.78-3.24-1.16l-.25,.69,8.69,2.87h.01Zm.16-43.55v2.1c-1.22-.03-1.84,.94-1.59,3.17l3.05-2.38,4.37-1.57-.06-.62c-1.91-.08-3.46-1.97-5.62-.75-.31-.5-.53-1.25-.97-1.42-.36-.14-1.36,.35-1.42,.69-.19,1.02-.07,2.1-.07,3.49l2.3-2.71h.01Zm-15.98,36.91l1.73-.81,.46,1.14,.55-.35c-.42-.55-.73-1.33-1.29-1.62-1.46-.75-3.02-1.35-4.58-1.85-.46-.15-1.09,.24-1.64,.38,.31,.47,.51,1.13,.94,1.37,1.25,.68,2.59,1.2,3.9,1.78l-4.79-1.4-.21,.54,4.23,1.7-4.48-.94c.26,4.81,.5,9.3,.76,14.17,2.17,.2,4.27,.36,6.36,.62,.34,.04,.62,.51,1.32,1.14l-3.78-.47,1.13,1.39,2.97-.38c-.17-.76-.51-1.64-.54-2.54-.1-2.67-.11-5.35-.09-8.03,.02-2.03-.14-3.91-2.48-4.66l2.15,.44,.07-.36-2.69-1.27h0Zm35.65,12.23l3.65,.88,.41-.43c-.49-.55-.89-1.39-1.5-1.6-2.47-.85-5.01-1.5-7.53-2.22l-.32,.49c.61,.5,1.17,1.13,1.86,1.48,1.12,.57,2.33,.97,3.51,1.45l-4.34-.97-.14,.52c1.38,.47,2.74,1.09,4.16,1.35,1.06,.19,.7-.48,.26-.96h-.02ZM37.7,14.55c1.85-1.52,5.24-1.42,5.44-4.99-1.72,.61-3.38,.92-4.69,1.77-.81,.53-2.9,.57-2,2.59-1.2-.15-1.78,.06-.75,1.24-.83-.21-1.36-1.01-1.59-2.41-2.81,.37-3.26,1.03-2.84,3.54l4.66,.26,.24,.68,1.52-2.68h0Zm21.63-2.65c-.89,1.77-.43,4.6,.91,5.65,.19-.4,.39-.79,.58-1.19,.23-.47,.46-.95,.68-1.42l4-3.72-6.83-2.23,.65,2.91h.01ZM26.97,49.6c1.54,.17,2.32-.52,2.34-2.09,0-.45,0-.89,.01-1.34,.02-2.49-.15-2.68-2.84-2.96,0,1.58-.04,3.15,.02,4.71,.02,.56,.32,1.12,.52,1.68-1.57,1.16-1.18,2.73-1.07,4.5,.46-.27,.73-.42,.98-.58,3.25-2.1,3.25-2.24,.04-3.93h0Zm73.02,30.74c2.81,1.67,5.88,1.82,8.97,1.56l1-3.38-1.7,.2,.45,.46-.74,1.65-1.71-1.43,1.88-2.32c-.43,0-1.1-.21-1.43,.04-.95,.7-1.75,1.58-2.44,2.22l1.75,.23c-1.64,1.91-1.87,1.93-3.65,.65l1.11-2.66c-.84-.21-1.61-.4-2.38-.58l1.1-.74c-.05-.41-.1-.88-.16-1.35-.06-.51-.13-1.03-.2-1.54l-.61-.26c-.52,.65-1.38,1.27-1.46,1.97-.08,.68-.18,2.11,1.41,1.88-.64,.14-1.28,.31-1.93,.42-1.45,.23-1.9,.66-1.64,1.63l-2.78-1.12,.61,2.73c.81-.36,1.25-.5,1.62-.75,.25-.17,.39-.51,.58-.77,.81,.43,1.62,.86,2.45,1.3l-2.97,.39c.21,.26,.44,.86,.8,.95,.79,.2,1.64,.15,2.47,.2l-.38-1.58h-.02ZM64.27,20.19c-.05,.37-.2,.76-.14,1.11,.08,.47,.31,.92,.48,1.38,.46-.17,1-.25,1.37-.54,.3-.23,.42-.72,.72-1.29l-2.49-.61c.47-.07,.99-.04,1.39-.25,.63-.33,1.58-.75,1.68-1.27,.4-2.09,.53-4.23,.78-6.56l-1.48-.43c-.24,.49-.39,.9-.62,1.26-.95,1.45-2.15,2.79-2.79,4.37-.33,.81-.66,2.44,1.09,2.83h.01Zm4.24,50.8l-3.19-.49c.53,1.23,.69,2.64,1.33,2.9,2.66,1.09,5.46,1.83,8.22,2.71v-17.28l-2.58-.21c0,4.11,.02,8.15-.04,12.18,0,.33-.67,.96-.95,.92-.97-.14-1.9-.51-2.85-.8l2.86,.3v-11.43h-.33c-.22,3.5-.43,6.99-.65,10.48l-2.88-.66-.11,.36,1.17,1.02ZM45.73,30.58c0,1.22,.02,2.81,0,4.39-.03,1.36-.65,3.09-.03,3.98,.65,.94,2.45,1.08,3.76,1.56,1.48,.55,3,1.6,4.44,1.51,1.99-.13,2.12,.37,1.57,1.95-.49,1.37,.08,2.06,1.54,2.03h1.33c-.07-.57-.2-1.17-.21-1.79-.04-3.05,0-6.1-.08-9.15-.04-1.44-.32-2.82-2.22-2.81-.28,.92-.8,1.79-.68,2.57,.08,.5,1.08,.87,2.24,1.7-2.18-1.16-2.29-.16-2.39,1.08-.09,1.1-.39,2.18-.59,3.26l-6.43-2.38c1.06-2.87,.37-5.51,.49-7.74l-2.72-.17h-.02Zm27.36,16.69c-1.34-.65-1.41,.45-1.66,1.63-.55-2.92-2.73-2.86-5.06-2.81l1.45,1.89c-1.39-.38-2.61-.68-3.8-1.04-1.22-.37-2.4-.86-3.63-1.16-.36-.09-.84,.29-1.26,.46,.29,.25,.54,.62,.88,.74,1.55,.55,3.12,1.06,4.7,1.54,3.45,1.05,6.91,2.07,10.43,3.12v-15.18c-1.63,1.01-2.51,5.11-1.66,6.75,.17,.33,.25,.78,.19,1.14-.12,.85-.34,1.68-.6,2.91h.02Zm-16.5,6.74c-1,4.82-.56,9.66-.34,14.39l8.63,1.77c-.05-.48,0-1-.12-1.05-2.05-.77-4.13-1.48-6.42-2.28,0-3.57-.04-7.25,.02-10.93,.02-1.25-.31-1.97-1.76-1.91h-.01Zm-9.14,6.85l.17,.04,.11,1.62-.05-.02v-10.83h-.77c-.34,3.55-.68,7.09-1,10.36l-5.53-1.6-.45,.56,2.24,4.1,5.28,1.2v-5.43Zm19.74-37.18c1.69-.24,3.29,.02,3.93-.64,2.27-2.35,4.22-5.01,6.34-7.62-1.24-.41-2.37-.84-3.54-1.14-.41-.11-1.16-.05-1.32,.2-1.75,2.86-3.41,5.76-5.41,9.2Zm-20.51,43.76c-2.41-.51-4.39-2.18-7.04-.23,3.02,3.29,7.61,2.56,10.52,4.32l3.6-2.75c-2.99-1.18-5.58-.99-8.65-.49l1.57-.85ZM27.68,33.16l-8.97,4.31c.41,.31,.68,.62,1,.73,2.1,.7,4.22,1.35,6.96,2.22l-.87-2.87c1.47-.99,2.1-2.45,1.87-4.39h.01Zm7.76,1.04c1.13,.64,2.32,.61,2.82-.62,.33-.82-.05-1.93-.1-2.91-.09-1.88-.18-3.75-.23-5.63,0-.09,.43-.19,.88-.37l-3.38-1.35v10.87h0Zm.09,28.88l-.33,4.15c-.07-1.29,.04-2.89-.71-3.71-.7-.76-2.31-.68-3.76-1.02l.42,3.76h.37l.16-1.1,.87,1.77,.82-1.75c0,1-.06,2.22,.02,3.42,.04,.56,.34,1.1,.52,1.65,.4-.39,.92-.71,1.18-1.17,.97-1.72,1.86-3.49,2.85-5.38l-2.42-.62h0Zm29.53,3.9c0-3.46,.03-6.51-.04-9.55-.01-.44-.42-1.13-.81-1.27-1.59-.59-3.24-1.01-4.83-1.48v11.95h.65v-11.02c1.19,.36,2.11,.58,2.99,.93,.5,.19,1.3,.59,1.3,.89,0,2.77-.15,5.54-.24,7.78l-3.25-.25-.18,.87,4.4,1.16h0Zm1.48-33.09c-1.68,1.14-1.72,9.44-.07,10.48,0-1.46-.01-2.69,0-3.92,.03-2.31-.5-4.66,1.08-6.8,.55-.75,.36-1.86-.95-2.15l-.52,.83c-.41-.48-.71-1.1-1.2-1.33-.33-.15-.92,.24-1.03,.27l-1.62-1.25-.69,1.9,4.99,1.97h0Zm30.21,17.21c-1.18,.9-1.65,13.5,0,15.29v-15.29Zm-55.88,8.84l3.57,.91v-10.26l-.58,.02c0,1.2,.07,2.4-.03,3.59-.04,.48-.46,1.31-.7,1.31-1.28,0-1.42,.85-1.18,1.65,.12,.4,.94,.6,1.69,1.03-.56,.16-1.2,.55-1.48,.37-.46-.29-.89-.92-.96-1.46-.15-1.1-.04-2.24-.04-3.36l-.26,.02v6.18h-.03Zm-12.11-25.72l.66,.21c.3-.83,.83-1.65,.85-2.49,.09-2.99-.02-5.99,.01-8.98,.01-1.2-.53-1.52-1.53-1.38v12.65h.01Zm6.99,38.28c3,2.99,6.89,3.62,10.78,4.18,.39,.06,.88-.58,1.78-1.23-4.58-1.08-8.58-2.01-12.57-2.95h.01ZM53.72,29.97l.11-.36c-.87-.3-1.72-.7-2.61-.88-1.63-.33-2.18-1.25-2.02-2.86,.12-1.14,.02-2.31,.02-3.92l-2.3,4.67,.91-6.07-.28-.1-1.94,3.87,.41,.3,.5-1.21,.45,.4-1.07,2.54-1.65-.53c1.18,1.17,2.63,1.53,3.91,2.5,1.44,1.09,3.67,1.14,5.56,1.65ZM18.39,56.5l.36-.54c-.7-.82-1.53-1.46-2.71-1.74-.88-.21-2.23-.3-2.52-.87-1.3-2.55-3.09-1.46-4.75-.82-1.7,.66-1.78,2.37-.18,3.66-.18-2.19,1.01-2.66,2.77-2.22,1.34,.33,2.66,.76,3.96,1.22,1.05,.37,2.05,.87,3.07,1.31Zm27.62,21.95c-3.89-1.28-7.78-2.52-11.93-2.06,3.8,1.78,7.69,3.04,11.93,2.06Zm-7.32-9.15l-.29,.3c.59,.57,1.08,1.4,1.79,1.67,2.43,.93,4.95,1.61,7.41,2.49,1.3,.47,2,.15,2.32-1.23-3.79-1.09-7.51-2.16-11.22-3.22h0Zm39.19-28.34l.75-.06,.36,4.37h.23v-7.12c-.74,.68-2.05,1.3-2.16,2.08-.4,3.12-.43,6.28-.6,9.43l.4,.02v-3.58h.22l.23,3.32,.58-.04v-8.42h-.01ZM45.14,13.36c3.79-.52,4.46-1.94,2.51-5.28-3.05,1.83-3.3,2.34-2.51,5.28Zm-16.84,22.99l13.95,4.47c-.3-1.65-12.12-5.49-13.95-4.47Zm17.01-.28v-7.09l6.96,1.74,.1-.42-8.33-2.16c-.66,5.14-.34,7.31,1.27,7.93Zm12.75-8.03c.88-1.25,0-5.33-1.68-7.74l-2.25,.77-.12,.5,2.72,1.25c-1.04,1.68-.77,2.81,1.34,5.23h-.01Zm8.09-4.31c-1.9,2.74-1.58,3.86,.92,4.51l3.1-4c-2.26-1-2.94-.83-4.23,1.13l.21-1.63h0Zm21.71,20.85c1.26-.26,1.89-.8,1.9-1.61,.01-2.04,.04-4.09,.02-6.13-.01-1.15-.1-2.3-.16-3.45l-.51,.02v3.62h-.28l-.22-1.04c-.24,2.02-.19,2.01,.48,4.26,.14,.47-.14,1.09-.3,1.61-.25,.84-.57,1.67-.93,2.72Zm-30.28,9c2.82,.62,5.1,1.78,7.96,2.01-1.2-2.36-2.15-2.91-5.7-3.27-.6-.06-1.27,.69-2.26,1.26Zm3.49-20.86v10.11h2.34l.73,.87,.62-.38c-.32-.61-.61-1.71-.98-1.74-2.05-.17-2.04-1.45-1.96-2.95,.07-1.27-.07-2.56,.06-3.82,.06-.55,.56-1.05,.89-1.61l-1.7-.49h0Zm14.33-1.17l2.28-3.35c-2.47-.63-4.5-.77-5.57,1.97l3.29,1.38Zm-.63,1.86c-1.43-.48-2.54-.85-3.66-1.23-2.36,2.73-2.26,2.9,2.27,3.77l1.39-2.54Zm-48.64,8.62l.25-.77-16.29-5.28-.2,.61c5.41,1.81,10.83,3.63,16.24,5.44Zm8.39-19.09l-.4,.03-.58,10.08-1.84-1.75c-.58,2.76,1.99,1.76,2.82,3.1v-11.47h0Zm7.05,2.65l6.45-11.51-.74-.4-6.53,11.38,.82,.53Zm8.83-8.2l-.3,.21c1.67,4.04,3.34,8.07,5.23,12.63,.27-.86,.68-1.45,.53-1.78-1.77-3.71-3.63-7.38-5.46-11.06Zm11.36,8.49c-.68-2.17-1.19-4-1.87-5.76-.12-.3-.97-.32-1.49-.47-.08,.37-.32,.81-.2,1.1,.23,.58,1.03,1.18,.92,1.61-.45,1.96,.55,2.79,2.63,3.51h.01Zm-12.65,26.49l-.66,.05c.27,4.22,.55,8.44,.82,12.66l-.39,.02v-3.29c.2,1.46-1.05,3.14,.36,4.76v-13.38c0-.27-.08-.54-.13-.81h0Zm42.52-10.98v-9.52l-.53,.02v10.43l2.55-.91-.1-.32-1.92,.31h0Zm-29.37-18.62l.87-.35-.58-4.52-2.84,.61,2.54,4.26h.01Zm-11.26,19.46l.17-.48c-1.01-.39-2.01-.84-3.05-1.16-1.97-.6-3.86-1.22-3.62-3.87,0-.02-.2-.06-.44-.13v5.06l.32,.05,.74-1.26,5.88,1.79ZM29.58,19.3s-.31,.18-.75,.43c.21,1.16,1.99,2.1,4.69,2-.37-.9-.49-1.93-1.07-2.35-.51-.38-1.52-.08-2.87-.08Zm62.19,43.76c1.74-.22,2.21-2.43,1.37-6.06-2.21,1.81-.87,4.09-1.37,6.06Zm-25.87-4.31c-.4,3.57-1.02,7.14,.52,10.56-.17-3.52-.34-7.04-.52-10.56Zm2.78-46.43l-.92,5.5,.46,.13,2.83-4.68-2.37-.95Zm13.74,55.73h.36v-10.21h-.36v10.21Zm3.87-30.16c-.31,2.79-.6,5.31-.9,7.99,1.6-.65,1.99-5.13,.9-7.99Zm-14.57-25.61l.17-.4-14.85-5.13-.15,.45,14.84,5.09h-.01Zm-14.42,2.05l-2.04,1,1.5,3.41,1.7-.77-1.16-3.63h0ZM19.15,52.67c2.12,1.51,3.74,1.72,4.93,.63-1.5-1.7-2.87-1.87-4.93-.63ZM54.01,15.57c-2.01,2.07,.69,3.16,.26,4.96l2.04-.81-2.3-4.14h0Zm-14.69,33.79l-.39-.02v9.44h.39v-9.42Zm2.57-33.91l-.69-.97-3.58,3.92,1.57,.53,2.69-3.48h0Zm-8.49,57.72l.54,.3c2-3.19,3.99-6.37,5.99-9.56l-.5-.31-6.03,9.58h0ZM90.7,28l1.12-2.34-2.06-1.76-.86,2.87,1.81,1.23h-.01Zm10.45,41.59c.13,2.57,2.35,3.78,3.88,5.47,.08,.09,.62-.24,.65-.25-1.56-1.8-3.04-3.51-4.53-5.22ZM68.22,29.91c-.12,1.35-.28,2.51-.29,3.67,0,.33,.37,.83,.68,.93,.22,.07,.71-.32,.92-.62,1.22-1.71,.31-2.84-1.32-3.98h.01ZM10.81,59.18c1.67-1.58,.46-2.77-.17-4.06-1.57,.79-1.47,2.63,.17,4.06Zm67.29,1.14l-.19-.06v13.98h.19v-13.93h0Zm6.78-43.31l.12-.54-11.22-3.89-.13,.36,11.22,4.08h0Zm-39.34,23.97c.21,1.27,3.5,2.65,5.69,2.06l-5.69-2.06Zm31.64,19.29h-.26v14.75h.26v-14.75Zm-23.4-28.67h-.49v8.24h.49v-8.24ZM17.13,52.46h.31v-9.92h-.31v9.92Zm78.43,29.4l-3.74-1.35-.17,.5,1.15,2.39,2.76-1.54Zm-28.05-45.8h-.28v8.33h.28v-8.33ZM49.19,4.66l.13-.43-9.87-3.11-.12,.42,9.86,3.12Zm31.47,35.22l-.4,.03c.21,2.76,.41,5.52,.62,8.28l.57-.05-.79-8.26ZM22.64,55.89l.25-.85-4.86-1.45-.26,.91,4.88,1.39h0Zm56.82-6.63c.65-.29,.65-3.16,0-8.61v8.61Zm-7.84-3.73l-2.74-3.69c-.37,2.29-.2,3.9,2.74,3.69Zm-32.52-9.71h-3.22c.22,.46,.33,1.19,.68,1.33,.89,.37,1.95,.66,2.54-1.33Zm2.95-.73l.33-.03v-6.44h-.33v6.47Zm38.93,23.39h-.24v11.91h.24v-11.91Zm8-29.81v3.68c1.58-1.17,1.53-2.85,0-3.68ZM33.01,12.28c1.33-.26,2.83,.23,1.83-1.79-.18-.37,.32-1.11,.58-1.65,.23-.48,.56-.92,.84-1.37l-.6-.31-2.65,5.12Zm13.29,2.14l-1.9,.12-1.69,3.4,.31,.35,3.29-3.87h-.01Zm33.57,52.2h.27v-7.95h-.27v7.95Zm-50.73-11.52l-3.96,1.15,.04,.39,3.71,.36,.21-1.9Zm53.5-8.12l.28-.02v-8.88h-.28v8.9Zm-11.31,12.15l.21-.72-5.13-1.62-.22,.76,5.15,1.58h-.01Zm-40.1,2.09l-.1,.5c2.52,.43,5.04,.87,7.57,1.3l.07-.37-7.54-1.43Zm65.98-21.52l.2-.04v-10.33h-.2v10.37Zm-5.25,39.82l-2.75-1.96c-.07,2.43,.47,2.81,2.75,1.96Zm-2.45-14.93l.28-.03v-9.65h-.28v9.68Zm-10.61,4.62h.1v-9.53h-.1v9.53Zm17.85-38.84l-.2,.11v9.33h.2v-9.44Zm-10.58,43.4l-.91-.14-.45,3.75,.97,.13,.4-3.73h-.01ZM23.94,34l-.19-.38-6.55,3.14,.21,.43,6.52-3.18h.01Zm15.59,2.49l-.42,1c.84,.33,1.68,.67,2.54,.94,.05,.02,.29-.57,.44-.87l-2.56-1.07Zm24.72,35.99l.22-.58-5.27-1.57-.19,.64,5.25,1.5h-.01Zm-20.82-36.14l-.34,.03v4.62h.34v-4.65ZM12.35,57.43l1.89-2.35-2.4-.37,.51,2.72Zm86.47,19.9l.53-.74c-1.29-.72-2.58-1.44-3.87-2.15l-.35,.48,3.69,2.41Z" fill="#41463d"/><path d="M71.79,86.79l-2.59,.48,5.62,1.04v.59l-1.43,.51c.8,5.27,.57,10.69,2.58,15.73-.26-2.24-.53-4.49-.79-6.73l.39-.04,1.27,10.07,2.6-.72,.28,2.58,.45,.4,.34-1.2,.49,.2c-1.03,2.19-1.52,4.29,1.57,6.01-2.73,.87-4.73,1.52-6.73,2.15-.29,.09-.68,.24-.91,.13-2.39-1.14-4.94-.51-7.39-.6-3-.1-6.01,.31-9.02,.46-.36,.02-.72-.17-1.17-.28v-8.71c3.06-.64,3.19-.83,3.42-3.89,.12-1.56,.34-3.11,.78-4.66v4.51h.25c.17-1.99,.47-3.99,.48-5.99,0-2.28,.28-4.46,1.18-6.58,.23-.53-.12-1.32-.25-2.28,.75-.27,1.75-.61,2.74-1,.8-.32,1.92-.48,2.31-1.09,.95-1.5,2.21-1.24,3.54-1.09h0Zm5.97,27.54c-2.11-.35-4.46-.02-6-2.55l-.68,3.73-1.33-.47c-.07,1.69,.52,2.16,1.97,1.78,.69-.18,1.12-.75,2.21-.17s2.85-.09,4.32-.21l.06-.48c-2.16-.31-4.31-.62-6.47-.94l.08-.58c2.18,.31,4.36,.63,6.54,.94l.1-.42c-.29-.23-.57-.45-.87-.69l1.83-.56-2-4.3,.23,4.91h.01Zm-14.96-7.06c1.13-4.14,.72-8.29,.54-12.44h-.54v12.44l-.92,2.84h5.3l.04,.52-.86,.36c.47,.11,.88,.21,1.29,.31,.12,.03,.25,.06,.37,.09l.16-.77,4.96-1.06-.06-.59-2.85-1.22c.38-.7,.99-1.38,1.09-2.12,.15-1.09-.13-2.24-.12-3.36,.03-2.81,.12-5.62,.17-8.44,.14-.62,.2-1.75,.44-1.79,1.47-.24,.84-1.14,.7-1.86-.11-.6-.3-1.18-.38-1.45l-2.64,1.09-.18-.44,1.8-.83-.12-.42-2.16,.36-.29,2.69c2.35-.46,2.47,1.23,2.85,2.66-.55-.34-1.09-.96-1.64-.97-1.46-.02-2.93,.16-4.37,.39-.53,.08-.99,.54-1.49,.82,.53,.2,1.05,.56,1.58,.57,1.3,.02,2.61-.13,3.91-.21v.47l-5.02,.31,.04,.39,4.51-.23v.24l-4.54,.61,.02,.35,2.22,.15-2.45,.37-.02,.68c1.76,.21,3.52,.43,5.27,.64l-.03,.23-4.62-.27v.5l1.38,.14c-.54,.34-1.47,.61-1.59,1.07-.24,1.01-.07,2.11-.06,3.18l1.5-.86c.91,.46,1.86,.94,2.82,1.43-1.6,.58-3.84-1.19-4.23,1.71,1.46-.27,2.96-.56,4.53-.85,.15,.98,.27,1.67,.37,2.36,.09,.69,.15,1.38,.19,1.71-.55,.72-1,1.3-1.43,1.89l.33-2.89c-1.05-.26-3.14,.39-3.61-2.13l-.4,.49-.27,2.98-.35-.04-.24-2.8c-.42,.45-.67,.72-.93,.99h.03Zm-.83,9.2c1.62,0,3.07,.07,4.52-.01,2.73-.15,3.5-1.56,2.55-3.87l-2.29,.54,.4-1.5c-.72,.48-1.14,.83-1.62,1.04-.45,.2-.97,.23-1.83,.42l1.28-2.03c-4.19-.42-4.83-.26-4.89,1.16l2.57,.18v.37h-2.88v4.05l1.66-.35,.14-2.58h.28l.12,2.59h0Zm13.64-7.9c-1.01-5.84-1.89-10.93-2.78-16.02-.56,.53-.88,1.13-.87,1.73,.04,2.67-.07,5.37,.35,7.98,.27,1.7-1.55,4.14,1.45,5.12,.55,.18,1.02,.64,1.86,1.19h0Zm-17.67,1.12v4.84l.45,.06,.85-5.04-1.29,.14h0Zm16.68-.63l-1.03,.38,1.28,2.99,.64-.25-.9-3.12h.01Z" fill="#41463d"/><path d="M111.85,90.36c1.13-1.99,3-1.97,4.92-1.81l-.03-.05-3.27,1.6c1,.51,1.64,.91,2.34,1.16,.76,.28,1.61,.36,2.36,.67,1.01,.42,1.84,1.28,2.92-.09,.56-.71,1.71-.96,2.6-1.42l-.03,.06c1.25,.17,2.52,.3,3.76,.52,1.26,.23,2.02,.93,2.06,2.33,.04,1.28,0,2.4-1.47,2.94-1.61,.6-3.16,1.34-4.76,1.94-.56,.21-1.22,.15-1.94-.21l2.99-1.73c-3.36,.41-5.6,3.05-8.64,2.56l.45-2.15-.44-.14-1.3,1.51-.47-1.79-5.12-2.39-.31,.34,.55,.95c-.65-.41-1.34-.77-1.91-1.27-.17-.15-.11-.92,.06-1.03,1.55-.89,3.15-1.7,4.73-2.53-1.08,.91-2.17,1.82-3.58,3l5.55,1.34,.1-.35-3.21-1.33c1.79-1.82,3.58-.4,5.29,.02-1.1-.91-2.18-1.83-3.32-2.69-.18-.14-.59,.03-.9,.06l.02-.02h0Zm15.53,2.84l-.2-.51c-.51,.15-1.01,.34-1.52,.44-3.5,.73-6.45,3.85-10.54,2.44,1.19,.66,2.6,1.69,3.58,1.37,2.98-.97,5.79-2.46,8.67-3.74h0Zm-6.91,.07l.28,.71c.91-.25,1.84-.43,2.71-.78,.23-.09,.27-.67,.4-1.03-.36-.11-.82-.42-1.07-.3-.81,.38-1.55,.92-2.32,1.4Z" fill="#41463d"/><path d="M65.65,131.05c-.74,1.93-1.91,1.66-3.19,1.1-5.83-2.53-11.69-5.01-17.5-7.6-.77-.35-1.31-1.22-2.18-2.06l3.34-.98-2.47-2.51,.09,1.14-.44,.08c-1.03-4.7-2.06-9.4-3.14-14.31l3.64-.67,4.12,18.27,17.73,7.54Zm-20.44-13.78l.39-.17-2.58-10.72-.53,.1c-1.12,4.63,.28,8.82,2.12,12.94l.66-.14-1.41-3.33,.45-.2,.92,1.51h-.02Z" fill="#41463d"/><path d="M105.91,113.57c-.09,.17-.14,.4-.28,.49-1.85,1.13-3.71,2.24-5.49,3.31l-.36-2-1,.42c-.82-.53-1.53-1.13-2.35-1.5-2.31-1.03-4.34,.27-6.45,.93-1.68,.52-3.28,1.38-5.16,.53-.32-.14-1.05,.63-1.56,.96-.07-.39-.27-.88-.2-1.33,.06-.42,.35-1.11,.63-1.16,1.5-.25,2.32-.95,2.29-2.42-.03-1.19,.35-1.92,1.56-2.24,.59-.15,1.17-.52,1.65-.91,1.47-1.2,1.45-1.23,3.46,.1-.99,.63-3.17-.74-3.08,1.64l-2.35-.41c-.09,1.47-.31,2.79-.19,4.08,.04,.42,1.07,1.15,1.48,1.05,1.34-.32,2.6-.96,4.06-1.54-1.02-.81-2.5-1.34-1.92-2.85,.21-.54,1.13-.81,2-.9l-.81,.91c2.31,2.46,6.49,3.28,9.39,1.76-.31-.17-.52-.3-.75-.42-.27-.14-.56-.26-1.08-.49,1.56,.2,2.85,.31,4.13,.54,1.18,.21,2.34,.56,3.51,.84l-.15,.67c-.34-.02-.67-.04-1.02-.05-.82-.04-1.7-2.03-2.45,.1-.03,.08-.58,.12-.71,0-1.43-1.46-1.84,.15-2.93,.92,.8,.29,1.38,.74,1.79,.62,1.48-.45,2.9-1.09,4.34-1.66h0Z" fill="#41463d"/><path d="M140.06,76.42c-1.36,.18-2.72,.42-4.08,.54-1.82,.16-3.64,.31-5.46,.32-.65,0-1.29-.42-2.31-.77l1.33-.44-2.96-.33,.06-.2h17.27l.02,.52c-1.3,.12-2.59,.25-3.9,.37-2.2-.24-4.39-.49-6.58-.73l-.05,.71h6.66Z" fill="#41463d"/><path d="M134.27,81.29l3.7,1.38c.02,.19,.06,.91,.13,1.63,.05,.47,.12,.93,.19,1.4-.4-.32-.75-.74-1.2-.96-1.13-.55-2.31-1.02-3.75-1.65l2.84-.15-1.9-1.65h-.01Z" fill="#41463d"/><path d="M105.99,63.37l.03,.02c-.16,.1-.38,.32-.47,.27-2.16-1.04-4.3-2.1-6.45-3.16l-.06,.05c1.11,.19,2.22,.38,3.51,.6l-.63-1.08c1.48,1.07,2.61,2.8,4.81,1.4l-.75,1.9h0Z" fill="#41463d"/><path d="M83.1,121.2l-1.8-1.89-2.57,.33-.15-.81c1.07-.18,2.19-.65,3.19-.47,.96,.17,1.81,1.02,3.02,1.77l-1.73,1.02,.04,.04h0Z" fill="#41463d"/><path d="M126.85,80.79l4.34-2.02c-.89,2.42-2.33,3.09-4.34,2.02Z" fill="#41463d"/><path d="M141.48,85.93c-2.97-.5-1.71-3.3-3.22-4.39l.56-.34c.45,.75,.92,1.48,1.35,2.24,.42,.74,.79,1.51,1.31,2.49Z" fill="#41463d"/><path d="M91.41,89.37c-.66-1.49,.9-1.75,1.47-1.89,1.27-.31,2.66-.12,4.01-.13-1.42,.53-2.84,1.05-4.25,1.58-.41,.15-.81,.29-1.22,.44h-.01Z" fill="#41463d"/><path d="M116.91,82.94l-3.55,1.3c.42-1.23,1.53-1.84,3.34-1.85l.21,.54h0Z" fill="#41463d"/><path d="M83.06,121.16c-1.45,1.36-2.86,.97-4.25,.17l.03-.56,4.26,.42-.04-.04h0Z" fill="#41463d"/><path d="M2.86,59.2l.79,1c-1.22,1.03-2.29,2.23-3.65,1.19,.95-.72,1.92-1.46,2.88-2.2h-.02Z" fill="#41463d"/><path d="M116.77,88.55c.83-.65,1.56-.7,2.55-.1,1.35,.82,2.88,1.36,4.33,2.02l.03-.06c-1.02-.26-2.05-.5-3.06-.78-1.3-.36-2.59-.75-3.88-1.13l.03,.05Z" fill="#41463d"/><path d="M32.41,57.81c.12-1.99,.29-3.98,.33-5.98,.03-1.45-.13-2.91-.14-4.37,0-.38,.1-.95,.36-1.1,.96-.57,4.2,1.33,4.25,2.46,.09,2.34,.2,4.68,.18,7.02,0,1.12,.15,2.62-1.55,2.71-1.75,.09-2.7-.79-2.38-2.69,.05-.3-.05-.63-.11-1.2l-.3,3.21-.64-.06Zm4.08-2.85c-1.73-.27-1.36,.93-1.32,1.76,.02,.39,.37,.76,.57,1.14,.29-.6,.64-1.18,.84-1.8,.1-.32-.05-.72-.09-1.1Z" fill="#41463d"/><path d="M43.1,7.3l-.51-1.43-.65,.86-.79-.59c.98-1.41,2.11-2.21,4.14-.67-1.9-.37-2.54,.3-2.19,1.82h0Z" fill="#41463d"/><path d="M70.17,102.87v-7.64c.68,5.31,.58,7.06,0,7.64Z" fill="#41463d"/></g></g></g></g></svg>