<?xml version="1.0" encoding="utf-8"?>
<!-- Generator: Adobe Illustrator 26.3.1, SVG Export Plug-In . SVG Version: 6.00 Build 0)  -->
<svg version="1.1" xmlns="http://www.w3.org/2000/svg" xmlns:xlink="http://www.w3.org/1999/xlink" x="0px" y="0px"
	 viewBox="0 0 44.3 37.7" style="enable-background:new 0 0 44.3 37.7;" xml:space="preserve">
<style type="text/css">
	.st0{fill:#E4D6A7;}
	.st1{fill:#41463D;}
</style>
<g id="Layer_2">
	<path class="st0" d="M8.4,16.6l5.1-9.1l8.2-2.8l3.5,3.3l6.4-2.7L38,15.7l1,10.4h2.9l-0.1,3.4l-1.4,1l-3.8,0.9l-2,0.5l0,1.2
		l-1.3,0.8c0,0-3.5-0.7-3.8,0.7s1.5,0.6-2.5,1.1s-4.9,0.2-4.9,0.2s-2.5-0.9-5.3-1.7s-4.1-0.5-4.1-0.5l2.7,1.4c0,0-0.1,0.7-1.2,0.5
		s-0.5,0.6-1.5,0.4s2.5-0.3-2-1s-3.9-0.7-4.5-0.7s-1.7,0.3-1.7,0.3s-0.5-1.3-1.6-1S1.2,34,1.1,33.4s-0.7-1.8-0.7-1.8l8.3-3L8.4,16.6
		z"/>
</g>
<g id="b">
	<g id="c">
		<g id="d">
			<g id="e">
				<g>
					<path class="st1" d="M30.4,36.7c-0.1,0.2-0.2,0.5-0.4,0.7c-0.1,0.2-0.4,0.2-0.6,0.3l-0.1-0.2l0.3-0.2l0-0.2
						c-0.3,0.1-0.7,0.1-1,0.2c-0.3,0.1-0.6,0.2-0.7-0.3c0.4,0,0.9-0.1,1.3-0.1c-0.4-0.5-0.6-1.1-1.1-1.4c-0.2-0.2-0.8,0.1-1.1,0.2
						c-0.2,0.1-0.3,0.3-0.4,0.5c0.3,0.2,0.6,0.4,1,0.6l-0.1,0.1c-0.5-0.1-1.1-0.2-1.7-0.3c-1-0.2-1.3,0.1-1.5,1.2
						c-0.3-0.3-0.6-0.5-0.9-0.8c-0.4,0.3-0.8,0.6-1.2,0.9c-0.3-0.7,0.3-1.2,1.8-1.5c-0.4-0.2-0.6-0.6-1-0.1c-0.3,0.4-1,0.3-1.4-0.3
						c0.6,0.1,0.9-0.1,1-0.8l0.5,0.7l0.3-3c0.6-0.7,0.6-0.9-0.3-1.6c-0.2,0.5-0.4,0.9-0.5,1.3c0,0.5,0.1,1,0.2,1.5
						c0.1,0.7-0.3,1-1,0.8c-0.1,0-0.1,0-0.2,0c-0.3,0-0.6-0.1-1-0.1c0.3,0.6,0.5,1.2,0.8,1.7l-0.2,0.1c-0.6-0.7-1-1.6-1.3-2.5
						c-0.2-0.6-0.5-0.7-1.3-0.5c-0.5,0.2-0.5,0.5-0.2,1c0.2,0.3,0.4,0.7,0.5,1l0.3-0.2l-0.5-0.9l0.8,0.5l0.2-0.3
						c0.6,0.9,0.7,2.1,1.8,2.5c-0.4-0.1-0.9-0.1-1.3-0.2c-0.1,0-0.2-0.2-0.4-0.3c-0.4-0.5-0.9-0.6-1.4-0.1c-0.1,0.1-0.3,0.1-0.4,0.1
						l0-0.2l1.1-0.7c-0.4-0.3-0.8-0.5-1.1-0.7c-0.1-0.1-0.1-0.3-0.2-0.4c-0.3-0.1-0.6-0.2-1-0.3l1.4-1.5c0.7,0.7,1.5,0.5,1.7-0.3
						c0.2-0.9,0.4-1.8,0.6-2.6c0-0.2-0.1-0.5-0.2-0.6s-0.5,0-0.6,0.2c-0.8,0.9-1.6,1.8-2.4,2.6c-0.4,0.4-0.8,0.9-1.2,1.3
						c-0.4,0.3-0.3,0.6,0,1c0.1,0.1,0.1,0.3,0.1,0.5l-0.1,0.1l0.4,0.3c-1.1,1.4-1.3,1.6-2,1.6l0.8-0.4c-0.3-0.2-0.7-0.2-1.4-0.1
						c0.3-0.2,0.6-0.3,1-0.4c0.3-0.1,0.7-0.1,1-0.2L15.9,35c-0.6,0.2-1.2,0.5-1.8,0.7l-0.1-0.2l0.9-0.4l-0.1-0.2L14.2,35l0.4-1.2
						c-0.5-0.2-1-0.4-1.4-0.5c-0.2,0-0.6,0.2-0.6,0.3c0.1,0.5,0.2,1,0.4,1.7c-0.3,0.3-0.3,0.3,0.3,0.8c-0.2,0.1-0.4,0.2-0.5,0.2
						c-0.7-0.2-1.5-0.3-2.2-0.7c-0.7-0.3-0.6-0.4-0.1-1l-0.7-0.3v1.1c-0.1-0.1-0.2-0.2-0.2-0.2c-0.2-0.6-0.4-0.7-1.1-0.5
						C7.7,35,7,35.5,6.1,35.7c0,0-0.1,0-0.1,0c0-0.5,0-0.9,0.1-1.4C6.2,34,6.3,33.7,6.7,34c0.2,0.1,0.5,0,0.7,0l0.1-0.2l0.3,0.7
						L8,34.3c-0.2-0.7-0.4-0.8-1-0.6c-0.4,0.1-0.8-0.1-1.2-0.2c-1.1-0.3-2.2-0.7-3.3-1c-0.1,0-0.2-0.1-0.3-0.2
						C1.9,32,1.9,32,1.6,32.5c0.3,0.1,0.6,0.1,0.9,0.2c0.4,0.2,0.8,0.4,1.1,0.6c0.1,0-0.1,0.4-0.1,0.7l-0.6-1l-0.7,1.2
						c-0.2-0.5-0.2-1-1-0.8l0.5,0.4L1.6,34L0,33.3L0.1,33l0.8,0.3l0.1-0.5c-0.2-0.1-0.4-0.2-0.5-0.2c-0.2-0.1-0.5-0.3-0.4-0.4
						c0-0.2,0.2-0.5,0.4-0.6c0.9-0.2,1.6-0.9,2.7-0.6c1.1,0.3,2.2,0.4,3.3,0.5c-0.8-0.3-1.6-0.6-2.3-0.9C4.6,30.4,5,30,5.4,29.8
						c0.6-0.3,1.2-0.5,1.9-0.7c0.1,0,0.3,0.2,0.6,0.3v-1.1c0.5,0.2,0.7,0,0.7-0.5c0-2.7,0-5.4-0.1-8c0-0.4,0.1-0.9-0.1-1.3
						c-0.1-0.4-0.4-0.8-0.6-1.2l0.5-0.7l-0.8,0.3c-0.1-0.3-0.2-0.6-0.2-0.9c0-0.2,0-0.4,0.1-0.5c1-0.7,1.4-1.9,2.1-2.7
						c0.8-0.9,1.5-1.8,2.3-2.8c0.3-0.3,0.6-0.8,0.5-1.1c-0.1-1.1,0.5-1.5,1.4-1.8c1.2-0.4,2.3-0.9,3.5-1.3c0.4-0.2,0.6-0.4,0.6-0.8
						c0-1.5-0.1-2.9-0.1-4.4c0-0.4,0.3-0.6,0.9-0.4c0.6,1.5,0.2,3,0.3,4.7c0.6-0.2,1.2-0.3,1.8-0.5c1.1-0.3,1.8,0,2.5,0.9
						c0.4,0.6,0.9,1.2,1.3,1.8c0.3,0.4,0.5,0.5,1,0.3c1.9-0.8,3.8-1.5,5.6-2.2c0.6-0.2,1-0.2,1.2,0.4c0.2,0.3,0.2,0.7,0.4,1
						c0.1,0.1,0.3,0.2,0.4,0.3c0.4,0.6,0.8,1.3,1.2,1.9c0.2,0.3,0.1,0.7,0.2,1l0.2-0.2c0.6,0.9,1.1,1.9,1.6,2.8
						c0.5,0.9,1.1,1.8,1.6,2.6c0.2,0.3,0.8,0.5,0.9,0.9c0.2,0.7,0.3,1.5,0.3,2.3c0,0.7-0.2,1.4-0.3,2.1c0,1.8,0,3.7,0,5.6
						c0.5,0,1-0.1,1.5-0.2c0.8-0.2,1.6-0.1,2,0.8c0.3,0.6,0.8,0.6,1.3,0.6c0.2,0,0.4,0.1,0.6,0.2l0,0.2c-0.4,0-0.7,0-1.1,0
						c-0.3,0-0.6-0.1-0.7,0.4c0,0.5,0.3,0.6,0.7,0.6c0.1,0,0.2-0.1,0.5,0L43,28.9c0.1,0.6,1.3-0.2,1,0.9c-0.7,0.2-1.4,0.8-2.3,0.2
						c-0.2,0.9-0.3,1-1.2,0.9c-1.3-0.2-2.6,0.1-3.9,0.5c-0.2,0-0.3,0.3-0.4,0.4l-1-0.1c0,0.3,0.1,0.4,0.1,0.6c0,0.4,0.1,0.9-0.5,1.1
						c-0.2,0.1-0.4,0.4-0.6,0.6c-0.7,0.7-1.2,0.8-2.1,0.2c-0.5,0.4-0.9,0.8-1.4,1.2c0.9,0.7,1.8,0.6,2.9,0l1-0.1l0.2,0.3
						c0,0,0,0-0.1,0.1c-0.7,0.2-1.3,0.3-2,0.5c-0.8,0.2-1.5-0.1-2.2-0.5c-0.5-0.3-0.8,0.1-1.1,0.3c-0.1,0.1,0.1,0.4,0.1,0.6l0.2,0
						l0-0.4L30.4,36.7L30.4,36.7L30.4,36.7L30.4,36.7z M36.2,28.7c0.5-0.2,1.1-0.4,1.6-0.6c0.4-0.2,0.7-0.5,0.6-1
						c-1,0.3-1.9,0.6-3,1c0.3,0.3,0.5,0.4,0.6,0.6H36.2L36.2,28.7z M21.7,11.7c-0.2-0.3-0.4-0.5-0.5-0.8c-0.4-0.6-0.6-0.7-1.2-0.1
						c0.2,0.4,0.4,0.8,0.6,1.2c0.1,0.2,0.3,0.3,0.5,0.4C21.1,12,21.8,12.2,21.7,11.7c0.2,0,0.4,0,0.7,0c0,0,0.1-0.2,0-0.3
						c-0.1-0.4-0.3-0.8-0.4-1.2c0.1,0.1,0.3,0.2,0.3,0.3c0.4,0.7,1,0.9,1.7,0.6c0,0,0-0.1,0.1-0.1c-0.1-0.3-0.3-0.6-0.5-0.9
						c-0.1-0.2-0.4-0.5-0.5-0.5c-0.4,0.1-1,0-1.1,0.7c-0.3-0.2-0.6-0.2-0.8,0.2L21.7,11.7L21.7,11.7L21.7,11.7z M12.2,18.3
						c0.1,0.1,0.1,0.2,0.2,0.2c1.2,0.4,2.4,0.9,3.6,1.3c0.6,0.2,1.3,0.4,1.9,0.5l0.1-0.2c-0.2-0.1-0.3-0.2-0.5-0.3
						c-1-0.4-1.9-0.7-2.9-1C13.7,18.7,12.9,18.5,12.2,18.3c-0.2-0.1-0.4-0.3-0.6-0.4c-0.8-0.2-1.6-0.4-2.4-0.6
						c-0.1,0-0.2-0.1-0.3-0.1l-0.1,0.2c0.8,0.3,1.6,0.6,2.5,0.8C11.6,18.3,11.9,18.3,12.2,18.3C12.2,18.3,12.2,18.3,12.2,18.3z
						 M9.9,20.5l-0.1,0.2c0.6,0,0.7,0.5,0.7,0.9c0,1.1,0,2.1-0.1,3.2c0,0.5,0.2,0.6,0.6,0.8c0.7,0.2,1.4,0.5,2,0.6
						c0.5,0.1,0.3,0.3,0.2,0.6c-1.5-0.6-3-1.1-4.5-1.6v3.4c0.1-0.3,0.2-0.6,0.2-1c0-0.4,0-0.7,0-1C9,26.6,9.1,26.8,9,27
						c0,0.5,0.1,0.7,0.6,0.4c0.4-0.2,0.8-0.2,1.2-0.3c0.1,0,0.2,0.1,0.3,0.2c0.4,0.3,0.8,0.5,1.2,0.9l0.3,1.1l0.3,0l0.7-1.2
						l-0.9-0.5l0.6-0.3c0.2,0.2,0.3,0.5,0.4,0.5c0.1,0,0.4-0.2,0.4-0.3c0-0.1-0.2-0.3-0.3-0.4c0.7-0.4,0.7-0.7,0-1.2
						c-0.1-0.1-0.1-0.2-0.1-0.3c0-1,0-2,0-3.1l1.3,0.2l0-0.1L9.9,20.5L9.9,20.5L9.9,20.5z M8.7,18.3c0,0.5,0,0.8,0,1.2
						c0,0.2,0.2,0.4,0.3,0.4c2.4,0.8,4.8,1.6,7.2,2.5c0.5,0.2,0.9,0.4,1.4,0.6c0,0,0,0.1,0,0.1l-0.4-0.1c0,1.2,0,2.4,0,3.6
						c0,0.6,0.2,0.8,0.9,0.7c0-1.9,0-3.7,0-5.6c0-0.2-0.2-0.5-0.4-0.6c-1-0.4-2-0.7-3-1c-0.1,0-0.3,0-0.6,0l0.3,0.3
						c-0.2,0-0.4,0-0.4-0.1c-0.2-0.6-0.6-0.6-1.1-0.5c-0.1,0-0.3,0-0.5-0.1C11.2,19.3,10,18.9,8.7,18.3L8.7,18.3L8.7,18.3z
						 M8.9,29.8c1.1,0.2,2.1,1,3.4,0.9c0-0.3,0.1-0.5,0.1-0.8c0-0.2,0-0.5-0.1-0.5c-0.8-0.2-1.5-0.5-2.3-0.5
						c-0.5-0.1-1.1,0.1-1.7,0.2c-0.2,0.5,0.2,0.9,0.6,1.2c-0.7-0.4-1.3-0.1-1.8,0.4c-0.3,0.3-0.4,0.7-0.1,1.1
						c0.3,0.4,1.6,0.7,2.1,0.5c-0.2,0.4-0.4,0.7-0.9,0.3c-0.2-0.2-0.7-0.2-1-0.3l-0.1,0.2l1,0.6l-0.4,0.3c0.1,0.1,0.2,0.2,0.3,0.4
						c0.1,0.2,0.2,0.3,0.2,0.5C9,33.8,9.1,33.4,8.9,33c0.7-0.6,1.4-1.1,2.1-1.7C10.3,30.7,9.6,30.2,8.9,29.8L8.9,29.8L8.9,29.8z
						 M19.1,22.9v6.3h0.2v-2.8c0.9,0.8,0.3,1.8,0.5,2.4c0.7,0.1,1.2,0.2,1.8,0.3V24h-0.1c-0.1,0.9-0.1,1.9-0.2,2.8h-0.2v-4H21v3.7
						h-0.2v-4.1h-0.1l-0.1,0.9h-0.1l-0.1-0.7h-0.1v3.3H20c-0.2-1.2-0.1-2.5-0.3-3.8v1.5h-0.2v-1.8c-0.5,0.5-0.9,0.7-0.8,1.3
						c0,0.5-0.1,1-0.1,1.4l0.2,0C18.9,24,18.5,23.4,19.1,22.9L19.1,22.9L19.1,22.9z M34.2,25.7c-0.5,0-0.7,0-0.4-0.5
						c0.2-0.3,0.6-0.5,0.6-1c0-1.4,0-2.8,0-4.2c0-0.5,0-1.1,0-1.6h-0.3v2.5h-0.2v-2.3l-0.2-0.1c-0.1,0.2-0.4,0.4-0.4,0.6
						c0,1.3,0,2.6-0.1,3.9c0,0.6,0,1.1,0,1.7h-0.2v-1.8h-0.2v3.8l0.4-0.2c0.1,1-0.6,2-0.1,3.1c0.7-0.3,1.1-0.6,1-1.3
						C34.2,27.3,34.2,26.5,34.2,25.7L34.2,25.7L34.2,25.7z M32.5,30.8c0-0.6-0.8-1.1-1.2-0.9c-1.4,0.7-2.7,1.5-4,2.3
						c0,0-0.1,0.1-0.1,0.2l0.5,0.2c0.3-0.7,1-1.2,1.6-1.1c-0.2,0.1-0.4,0.2-0.5,0.3c-0.2,0.2-0.5,0.3-0.5,0.5c0,0.2,0.1,0.5,0.2,0.7
						c0.3,0.4,0.6,0,0.9-0.2c0.5-0.3,0.9-0.6,1.3-0.9c0.4,0.3,0.6,0.9,1.1,0.5c0.5-0.4,0.9-0.9,1.3-1.2l0.2-0.9L32.5,30.8L32.5,30.8
						L32.5,30.8z M20.7,31.9c-0.1,0.2-0.1,0.3-0.2,0.5c-0.3,0.6,0.2,1.8,0.9,2.1c0.2,0.1,0.5,0.1,0.8,0.1c0.1,0,0.3-0.2,0.3-0.3
						c0-0.1-0.1-0.3-0.2-0.3c-0.2-0.2-0.5-0.3-0.6-0.5c0.2-0.3,0.5-0.6,0.5-0.8c-0.1-0.8,0.8-1.2,0.8-2.1c0-0.4,0-0.8-0.4-0.9
						c-0.4,0-0.7-0.1-1.1-0.1c-0.1,0.8-0.7,1.6-0.2,2.7L20.7,31.9C20.7,31.9,20.7,31.9,20.7,31.9z M23.6,21.6l0.2-0.2
						c-0.4-0.8-0.8-1.7-1.3-2.5c-0.8-1.5-1.4-3.1-2.6-4.4c-0.8-0.8-1.2-1.9-1.8-2.8l0.2-0.2c0.1,0.2,0.2,0.4,0.4,0.6
						c0.1,0.2,0.3,0.3,0.5,0.5c0-0.7-0.9-1.4-1.8-1.5c0.5,0.9,1.1,1.8,1.6,2.7c1.4,2.4,2.7,4.9,4,7.3C23.2,21.3,23.4,21.4,23.6,21.6
						L23.6,21.6z M29.9,28.7l-0.1-0.2c-0.1,0-0.3,0.1-0.4,0.1c-1,0.6-2,1.1-3,1.7c-0.4,0.2-0.3,0.4,0,0.6s0.4,0.4,0.3,0.7
						c0,0.1,0,0.3,0.1,0.5c2.3-1.2,3.2-2,3.5-3l-1.1,0.4L29,29.3L29.9,28.7L29.9,28.7z M31.7,13l-0.1-0.2c-0.6,0.1-1.3,0.1-1.9,0.4
						c-0.9,0.4-1,0.9-0.4,1.5c0.2,0.2,0.4,0.3,0.7,0.3c0.5,0.1,1,0.2,1.4,0.3c0.3-0.8,0.8,0.3,1.1-0.3C31.9,14.5,31.2,14,31.7,13
						L31.7,13L31.7,13z M39.8,26.5c0.1,0.9,0.1,1.7,0.2,2.5c0.6,0.1,1.1,0.3,1.8,0.5l0.2-2.8L39.8,26.5L39.8,26.5L39.8,26.5z
						 M23,29.5l0.1,0c0,0,0.1-0.1,0.1-0.2c0-2.1,0-4.2-0.1-6.3c0-0.1-0.1-0.2-0.2-0.3l-0.2,0v3.3h-0.3v-3.2h-0.2
						c0,0.2-0.1,0.5-0.1,0.7c0,1.3,0,2.6,0,3.9c0,0.2,0.1,0.4,0.2,0.6l0.6-0.2L23,29.5L23,29.5z M2.1,31.5c0.2,0.2,0.4,0.2,0.5,0.3
						C2.8,31.9,3.1,32,3.1,32c0,0.5,0.5,0.5,0.8,0.6c0.5,0.2,1,0.4,1.5,0.6c0.8,0.3,1,0.2,1.4-0.6C6.2,31.9,3.5,31.1,2.1,31.5
						C2.1,31.4,2.1,31.4,2.1,31.5z M28.3,34.2c0.7,0.9,2.5,0.8,3.2,0c0.1-0.1,0.1-0.2,0.1-0.3c-0.2-0.3-0.4-0.8-0.7-1
						c-0.3-0.2-0.8-0.3-1.2,0C29.3,33.4,28.8,33.8,28.3,34.2L28.3,34.2z M29,26.5h-0.2v-5.9l-0.2,0c0,0.2-0.1,0.4-0.1,0.6
						c0,1.7,0,3.5,0,5.2c0,0.8,0,0.8,0.8,0.8v-6.6H29V26.5L29,26.5z M17.2,11.7l-0.2,0v1c0,2.1-0.1,4.2-0.1,6.3
						c0,0.2,0.1,0.4,0.2,0.6c0.2-0.1,0.2-0.2,0.2-0.2c0-2.4,0-4.9,0-7.3C17.4,12,17.3,11.9,17.2,11.7L17.2,11.7z M35,32.7
						c0-0.8-0.2-0.9-0.8-0.8c-0.5,0.1-1,0.3-1.5,0.5c-0.1,0-0.3,0.3-0.2,0.4c0.1,0.3,0.2,0.7,0.4,0.8c0.4,0.2,0.9,0.2,1.3-0.2
						c0.2-0.2,0.3-0.3,0.5-0.4C34.8,32.9,34.9,32.7,35,32.7C35,32.7,35,32.7,35,32.7z M22.3,20.5c-0.3-0.6-0.5-1-0.8-1.4
						c-0.1-0.1-0.4-0.3-0.6-0.2c-0.5,0-0.9,0.2-1.3,0.3c-0.2,0.1-0.3,0.3-0.3,0.5c0,0.1,0.1,0.4,0.2,0.5c1,0.4,2,0.8,3.1,1.1
						l0.1-0.2c-1.1-0.5-2.1-0.9-3.2-1.4l0.1-0.2C20.3,19.7,21.2,20.1,22.3,20.5L22.3,20.5z M23.8,23.1h-0.2v0.8c0,1.9,0,3.8,0.1,5.6
						c0,0.2,0.2,0.3,0.3,0.5c0.1-0.1,0.2-0.3,0.2-0.5c0-1.5,0.1-3,0.1-4.4c0-0.1-0.1-0.3-0.1-0.4l-0.2,0v2.8h-0.1L23.8,23.1
						L23.8,23.1L23.8,23.1z M17.6,31.2l0.2,0c0.2-0.3,0.8-0.5,0.5-1.1c0-0.1,0.1-0.2,0.1-0.3c0.1-0.5,0.1-1,0.1-1.4l-0.3-0.1
						c-0.2,0.2-0.3,0.5-0.5,0.6c-0.2,0.1-0.5,0-0.9,0l0,1h0.1l0.2-0.6h0.2L17.6,31.2L17.6,31.2L17.6,31.2z M33.8,13.4
						c0.1,0.4,0.3,0.9,0.1,1.2s-0.7,0.4-1.2,0.6c0.3,0.2,0.6,0.5,0.8,0.5c0.3-0.1,0.5-0.5,0.6-0.8c0.2-0.6,0.3-1.1,0.5-1.7l0.2,0
						c-0.1,0.6-0.2,1.2-0.4,1.8l0.2,0.1c0.1-0.2,0.3-0.5,0.4-0.7c0.3-0.5,0.1-1-0.2-1.3c-0.1-0.1-0.6,0.2-0.9,0.3
						C33.9,13.4,33.8,13.4,33.8,13.4L33.8,13.4L33.8,13.4z M8.8,20.6c0,0.1-0.1,0.2-0.1,0.3c0,1.2,0,2.4,0,3.5
						c0,0.2,0.3,0.4,0.5,0.6L9.3,25v-3.8H9.2L9,21.6C8.4,21.4,9.6,20.9,8.8,20.6L8.8,20.6z M28.1,23.2l-0.2,0c0,0.1-0.1,0.2-0.1,0.3
						c0,1.4,0,2.8,0,4.2c0,0.8-0.3,1-1.1,1c-0.4,0-0.8,0-1.2,0v0.2c0.2,0,0.4,0,0.6,0c0.2,0,0.4,0.1,0.6,0.2
						c0.2,0.1,0.4,0.3,0.5,0.2c0.2-0.2,0.6-0.4,0.6-0.7C28,26.8,28.1,25,28.1,23.2L28.1,23.2L28.1,23.2z M38.2,24.1l-0.2,0
						c0,0.1,0,0.2,0,0.3c0,1,0,1-0.9,1c-0.8,0-1.3,0.5-1.1,1.3c0.6-0.2,1.2-0.5,1.7-0.8c0.9-0.4,1.1-0.9,0.7-2.1l-0.1,0.9h0
						L38.2,24.1L38.2,24.1L38.2,24.1z M13.1,29.5l0.1,0.2c0.4-0.1,0.9,0,1.1-0.2c0.6-0.7,1-1.5,1.5-2.3C14.3,27.5,14,28.8,13.1,29.5
						L13.1,29.5L13.1,29.5z M6.4,31.2c0.2-0.3,0.4-0.6,0.6-0.8c0.2-0.2,0.5-0.4,0.8-0.6c-1.4-0.2-2.4,0-2.8,1
						C5.5,30.9,6,31,6.4,31.2C6.4,31.2,6.4,31.2,6.4,31.2z M12.6,36c-0.1-0.5-0.2-1.2-0.2-1.2c-0.6,0-1.2,0.1-1.8,0.2
						c-0.1,0-0.2,0.2-0.3,0.4c0.1,0.1,0.3,0.2,0.4,0.2C11.3,35.7,11.9,35.8,12.6,36L12.6,36L12.6,36z M35.6,18.1L35.3,18
						c0,0.4,0,0.8-0.1,1.1h-0.1l0-0.9h-0.2v1.3c1.6-0.4,2-1,1.5-2l-0.2,1.1h-0.1v-0.9l-0.1,0L35.6,18.1L35.6,18.1L35.6,18.1z
						 M25.7,30.7c-0.5,0.4-0.8,0.8-0.9,1.3c0.3-0.2,0.6-0.4,1-0.6l0,0.9l-0.5-0.3l0,1.1C26.5,32.8,26.6,32.3,25.7,30.7L25.7,30.7
						L25.7,30.7z M10.2,21.4l-0.3,0c-0.1,0.2-0.2,0.4-0.2,0.5c0,0.7,0,1.3,0,2c0,0.3,0,0.7,0,1c0,0.1,0.2,0.2,0.3,0.3
						c0.1-0.1,0.2-0.1,0.2-0.2C10.2,23.8,10.2,22.6,10.2,21.4L10.2,21.4L10.2,21.4z M16.1,33.4l0.7-1.1c-0.9-1-1.6-1.3-2.1-0.8
						l1.6,0.5l-0.1,0.2L14.8,32l-0.1,0.2c0.4,0.1,0.7,0.3,1.1,0.4L16.1,33.4L16.1,33.4L16.1,33.4z M31.7,5.5l-0.1-0.3
						c-1.9,0.7-3.8,1.5-5.7,2.2l0.1,0.2L31.7,5.5L31.7,5.5L31.7,5.5z M26.4,34.1c0.5-0.1,0.8-0.1,1.1-0.2c0.1,0,0.2-0.3,0.3-0.5
						c0-0.1-0.1-0.2-0.2-0.3l-0.5,0.3l-0.3-0.9l-1,1.2C26.3,33.5,26.5,33.7,26.4,34.1C26.4,34.1,26.4,34.1,26.4,34.1z M15.9,26.5
						h0.3l0.6-1.6l-1.4-0.2L15.9,26.5L15.9,26.5L15.9,26.5z M13.9,32.3l-0.6,1c0.3,0,0.7,0.2,0.7,0.1c0.3-0.5,0.6-0.2,0.8,0
						c0.4,0.2,0.7,0.4,1.2-0.1C15.3,32.9,14.6,32.6,13.9,32.3L13.9,32.3L13.9,32.3z M38.4,26.1c-1.3,0.5-2.5,0.9-3.6,1.3
						c-0.1,0-0.2,0.2-0.2,0.3c0,0.1,0.2,0.3,0.3,0.3c0.3-0.1,0.5-0.2,0.7-0.3c0.3-0.2,0.6-0.4,0.9-0.6c0.5-0.2,1-0.3,1.5-0.4
						C38.3,26.6,38.3,26.3,38.4,26.1L38.4,26.1L38.4,26.1z M38,22.8h0.2v-2.1h0.2v2.1h0.2V19h-0.1l-0.1,1h-0.1l-0.1-0.6H38L38,22.8
						L38,22.8L38,22.8z M29.6,21.3c0.2,0.1,0.4,0.1,0.5,0.2c0.3,0.2,0.5,0.1,0.5-0.2c0-0.4,0-0.9,0-1.3l-0.2,0L30,20.4l-0.4-0.5
						V21.3L29.6,21.3z M37.9,29.1l-0.2,0.2c0.1,0.2,0.2,0.4,0.4,0.5c0.6,0.2,1.3,0.4,2,0.5l0.1-0.5C39.3,29.6,38.6,29.3,37.9,29.1
						L37.9,29.1L37.9,29.1z M18.5,11.2c0.3,0.2,0.5,0.3,0.8,0.5c0.2,0.2,0.4,0.4,0.6,0.6c0.1,0.1,0.3,0.1,0.4,0
						c0.1,0,0.1-0.2,0.1-0.3C20.1,10.9,19.6,10.7,18.5,11.2L18.5,11.2L18.5,11.2z M13.5,13.8c-0.1,0.8,0.2,1.1,1.1,0.9v-0.9H13.5z
						 M31.5,17.7l0.1,0.3c1.6-0.6,3.1-1.2,4.7-1.8L36.2,16C34.6,16.6,33,17.1,31.5,17.7L31.5,17.7L31.5,17.7z M24.8,27.1l-0.2,0.1
						l0.4,1c0.3-0.1,1-0.3,1-0.4C25.9,27.1,25.1,27.4,24.8,27.1z M34.9,12.4c-0.3-0.3-0.6-0.6-0.7-0.5c-0.3,0.1-0.7,0.4-0.9,0.6
						c0,0,0.3,0.6,0.3,0.6C34,12.9,34.4,12.7,34.9,12.4C34.9,12.4,34.9,12.4,34.9,12.4z M13.7,31l-0.2-0.2c-0.4,0.1-0.9,0.2-1.1,0.4
						c-0.2,0.2,0.1,0.7,0.1,1l0.3,0L13.7,31C13.7,31,13.7,31,13.7,31z M12.2,34.6l0.1-0.3c-0.5-0.5-1.2-0.6-1.8-0.8l-0.1,0.7
						L12.2,34.6L12.2,34.6z M13,32.9c-0.8-0.1-1.5-0.2-2.4-0.2c0.2,0.3,0.3,0.5,0.5,0.6C11.8,33.6,12.4,33.5,13,32.9L13,32.9z
						 M25.1,35.6l0.2,0.2c0.2-0.2,0.7-0.4,0.7-0.6c0-0.5-0.3-0.9-0.5-1.4c-0.5,0.5-0.5,1-0.1,1.4L25.1,35.6L25.1,35.6L25.1,35.6z
						 M15.8,23.3l-0.1-0.2c-0.6,0-1.1,0.1-1.7,0.1L14,23.4c0.4,0.2,0.9,0.4,1.3,0.4C15.4,23.8,15.6,23.5,15.8,23.3L15.8,23.3z
						 M10.9,27.8c-0.4,0.5-0.1,0.7,0.3,0.8c0.2,0.1,0.4,0,0.6,0.1c0.1,0,0.3,0.1,0.4,0.1c-0.1-0.2-0.1-0.4-0.3-0.5
						C11.6,28.1,11.2,27.9,10.9,27.8L10.9,27.8L10.9,27.8z M31.9,23.2c-0.3,0.3-0.3,3.2,0,3.8V23.2z M35.2,21.4
						c1.4-0.2,1.5-0.3,1.2-1.1C36.1,20.7,35.4,20.7,35.2,21.4z M23.9,30.3c-0.4,0.5-0.3,0.8,0.3,1.3C24.9,31,24.8,30.7,23.9,30.3z
						 M34.6,26.1v1c1-0.1,1.1-0.2,0.9-0.9L34.6,26.1C34.6,26.1,34.6,26.1,34.6,26.1z M33,18.7c-0.5,0.6-0.4,1.8,0,2.3V18.7z
						 M30.4,24.6h-0.2v3h0.2C30.4,27.6,30.4,24.6,30.4,24.6z M38.2,18.2h0.2l-0.1-1.4c-0.7,0.2-0.8,0.5-0.4,1.6l0.2-1.3h0.1
						L38.2,18.2L38.2,18.2z M39,26.1h2.9C41.5,25.8,39.7,25.7,39,26.1z M25.3,8.5c-0.5,0.6,0.1,1,0.1,1.5l0.7-0.2
						C26.1,9.8,25.3,8.5,25.3,8.5z M9.2,28.3c0.9,0.2,1.1,0,0.9-0.7C9.4,27.6,9.2,27.7,9.2,28.3z M18,2.3l0.1,0L18.5,2v4h0.1V1.8
						l-0.2-0.1L18,2.3L18,2.3z M31.8,19.1c-0.5,0.4-0.6,1.3-0.2,1.9L31.8,19.1z M24.6,8.9c-0.3,0.8,0.1,1.6,0.8,1.7L24.6,8.9z
						 M32.4,19.2l-0.2,0L32,21C32.5,20.6,32.5,20.1,32.4,19.2L32.4,19.2z M29.6,27.6c-1,0.3-1.2,0.5-1.2,1
						C29.2,28.4,29.6,28,29.6,27.6z M31,19.6c-0.4,0.5-0.4,1.3,0,1.8V19.6z M32.9,27.2l-0.1-0.2c-0.6,0.3-1.4,0.2-1.7,0.9
						C31.7,27.6,32.3,27.4,32.9,27.2z M17.5,28.8l0.6-0.9c-0.5,0.1-0.9,0.2-1.3,0.2l0,0.2L17.5,28.8L17.5,28.8z M26.1,18.3
						c-0.1-0.2-0.3-0.4-0.4-0.4c-0.6,0.2-0.9-0.2-1.1-0.6c-0.2-0.2-0.3-0.5-0.4-0.7C24.5,17.5,24.9,18.3,26.1,18.3z M25.5,13.4
						l1,2.2C26.6,14.6,26,14,25.5,13.4z M26.6,28.1h0.1V26h-0.1V28.1L26.6,28.1z M24.3,10.6L24,9.1C23.6,9.6,23.7,10.1,24.3,10.6z
						 M11.9,12.9l0.2,0.3l0.7-0.3l-0.3-0.6L11.9,12.9C11.9,12.9,11.9,12.9,11.9,12.9z M28.5,14.9c-0.4,0.8,0.3,1,0.6,1.6l0.4-0.7
						l-0.6-0.1L28.5,14.9L28.5,14.9z M23,16.4l-0.2,0.1l1.1,1.9l0.2-0.1L23,16.4L23,16.4z M24.1,13.9c0,0,0.1-0.1,0.1-0.1
						c0-0.5-0.1-1-0.2-1.4c0-0.1-0.2-0.1-0.3-0.2c0,0.1-0.1,0.3-0.1,0.4C23.7,13,23.9,13.5,24.1,13.9L24.1,13.9z M7.8,34.6
						c-0.2-0.1-0.4-0.3-0.5-0.2c-0.3,0.1-0.6,0.3-0.9,0.5c0,0,0,0.2,0.1,0.2c0.1,0,0.3,0,0.4,0C7.2,35,7.4,34.8,7.8,34.6L7.8,34.6
						L7.8,34.6z M15.1,13.9l-0.2,0.2l0,0.7l0.9-0.4L15.1,13.9L15.1,13.9z M25.9,8.3l-0.2,0.1l1,1.6l0.2-0.1
						C26.8,9.9,25.9,8.3,25.9,8.3z M26.5,17.1l-0.1,0.1l1.1,2.1l0.2-0.1C27.6,19.2,26.5,17.1,26.5,17.1z M25.6,22.5l0.5-0.3l0-0.1
						l-0.9,0.4l0.2,0.5l0.8-0.3L25.6,22.5C25.6,22.5,25.6,22.5,25.6,22.5z M26.9,15.7l-0.3,0.1c0.4,0.5,0.8,1.1,1.2,1.6l0.1,0
						L26.9,15.7L26.9,15.7z M30.9,12.6l0.2-0.1L30.3,11l-0.2,0.1L30.9,12.6z M13.5,7.4c-0.2,0.4,0.3,1,1,1.2
						C14.5,8.6,13.5,7.4,13.5,7.4z M27,15.1c0.9,0.4,1,0.3,0.9-0.4L27,15.1z M33.2,13.8L33,13.8c0,0.3,0.1,0.5,0.2,0.8
						c0,0,0.2,0,0.4-0.1L33.2,13.8L33.2,13.8L33.2,13.8z M27.3,13.1l-0.2,0.1l0.6,1.2l0.3-0.1L27.3,13.1L27.3,13.1z M37.5,30.7
						l0.1,0.1l0.8-0.3l0-0.2c-0.2-0.1-0.5-0.2-0.7-0.2C37.6,30.3,37.6,30.6,37.5,30.7L37.5,30.7L37.5,30.7z M31.3,28.6l-0.9,0.1v0.2
						l1.2,0.4L31.3,28.6z M21.6,5.3l-0.4,1.3C22.2,6.4,21.4,5.7,21.6,5.3z M24.3,13l-0.1,0.1l0.9,1.8l0.1-0.1
						C24.9,14.2,24.6,13.6,24.3,13L24.3,13z M26.8,7.9l-0.2,0.1l0.7,1.3l0.2-0.1L26.8,7.9C26.8,8,26.8,8,26.8,7.9z"/>
					<path class="st1" d="M30.4,36.7l0-0.6c0.4,0.8,1,1.1,1.9,1v-0.5c0.2,0.1,0.3,0.2,0.5,0.2c0.2,0.1,0.4,0.1,0.5,0.3
						c-0.3,0-0.7,0-0.9,0.2c-0.6,0.5-1.1,0.7-1.4-0.2C30.9,36.8,30.6,36.8,30.4,36.7L30.4,36.7L30.4,36.7L30.4,36.7z"/>
					<path class="st1" d="M5,33.8c0.2,0.1,0.3,0.2,0.5,0.2c0.1,0,0.2,0,0.3,0c0,0.5,0,1-0.1,1.5c0,0.1-0.2,0.1-0.3,0.2l0.1-1.3
						c-0.8,0,0,1.2-0.9,1L5,33.8L5,33.8L5,33.8z"/>
					<path class="st1" d="M2.8,34.6l0.6,0.2l0.6-1.3l0.4,0.2c-0.2,0.3-0.4,0.6-0.5,0.8C3.6,35.1,3.4,35.1,2.8,34.6
						C2.8,34.6,2.8,34.6,2.8,34.6z"/>
					<path class="st1" d="M36,28.7c0.1-0.2,0.1-0.4,0.2-0.5c0.4-0.2,0.9-0.3,1.4-0.4l-1.4,0.9C36.1,28.7,36.1,28.7,36,28.7L36,28.7
						L36,28.7z"/>
					<path class="st1" d="M27.1,30.6l1-0.6l0.1,0c-0.1,0.2-0.1,0.5-0.3,0.6C27.7,30.7,27.5,30.6,27.1,30.6L27.1,30.6L27.1,30.6z"/>
				</g>
			</g>
		</g>
	</g>
</g>
</svg>
