<?xml version="1.0" encoding="UTF-8"?><svg id="b" xmlns="http://www.w3.org/2000/svg" viewBox="0 0 62.63 43.11"><g id="c"><g id="d"><g id="e"><g><path d="M28.15,21.31l2.68-1.38c.24-.37-1.36-1.68,.39-2.15l.8,2.36,8.47-4.1c-1.25-1.35-2.47-2.52-3.53-3.83-1.48-1.82-4.14-2.72-4.33-5.58-.02-.32-.82-.6-1.28-.87-.42-.24-.85-.5-1.31-.64-.53-.16-1.09-.19-1.64-.28l.12-.88-2.34-2.49,2.55-.2-.7,.91c2.19-.19,3.87-2.51,6.24-1.22l.07,.55c-1.19,.84-3.67,.67-2.6,3.36l3.7,.38-.35-3.39-.08,.06c.37,.63,.67,1.32,1.12,1.89,.65,.8,1.45,2.16,2.13,2.13,1.96-.08,2.55,.95,2.97,2.45l-2.22,1.87,.35,.44c1.12-.22,2.62,.31,2.86-1.62l2.47,1.89-5.46,1.93,1.96,2.55,7.84-3.16-.98-2.01,2.9,1.6h-.53c0,2.46-.17,4.95,.12,7.38,.07,.62,1.59,1.08,2.46,1.59,1.04,.61,2.09,1.2,3.12,1.78l.66-1.42,.33,.07,.17,1.57,.27,.28,.08-1.41,.6,.5,.27,1.45,.55-1.48,.36-.02,.74,3.13,.28-1.58c.62,.34,.57,2.38,2.03,.85,.36,1.17,.22,1.79-1.32,1.71-2.42-.13-3.22,.74-3.02,3.05-1.96,.2-.89-1.46-1.36-2.17-.62-.17,.11,2.13-1.22,.67-1.25,1.52-2.87,1.89-4.73,1.47-1.15,2.82-4.25,2.86-6.37,4.29-1.31,.89-3.15,1.09-4.79,1.42-.54,.11-1.19-.35-1.8-.56-1.06,2.51-10.59,5.68-13.89,4.49-.65,1.02-1.37,1.73-2.84,.92-.69-.38-1.82,.08-2.75,.04-.9-.04-1.79-.22-2.88-.36,.49-.91,.75-1.38,1-1.85,.28-.66,.57-1.31,.87-2.01l.79,2.92,.64-.1c-.96-4.81,1.23-9.79-1.22-14.52-.15-.29,0-.74,.02-1.11,.08,0,.15,0,.23,.02l.02,.02,.3,.33c.42,1.53,1.72,1.81,2.83,1.38,2.45-.93,4.79-2.17,7.18-3.29v-.02Zm-.06,2.94l-3.01,1.22,.16,2.4,2.85-1.35v-2.28h0Zm6.75-14.89l4.23-2.23-.21-.54-3.12,1.31-.47-1.63c-.41,.22-1.2,.5-1.17,.65,.11,.78,.44,1.53,.74,2.45h0Zm1.28,11.66c-2.28,.26-2.35,.35-1.94,2.19,1.74,.38,2.41-.28,1.94-2.19Z" fill="#41463d"/><path d="M20.16,16.73c-.83-.36-1.71-.64-2.48-1.1-1.21-.73-2.24-1.32-3.73-.32-.41,.28-1.78-.75-2.64-1.29-.57-.36-1.02-.9-1.84-1.06,1.78,3.39,4.25,6.18,7,8.74-.57-.35-1.14-.71-1.72-1.06-.61-.37-1.23-.74-1.85-1.11-1.46-1.31-2.81-2.78-4.42-3.87-2-1.35-6.27,.34-6.97,2.65-.33,1.07-.53,2.22,1.01,2.8,.54,.2,.87,.96,1.51,1.72-2.98-.5-3.25-.91-3.12-3.1,.06-.97,.98-2.41-.91-2.83,.11-.48,.07-1.26,.35-1.4,1.99-.97,4-1.94,6.09-2.66,1.5-.51,3.14-.63,4.72-.93l-.08-.46-1.69,.31-.09-.28,5.61-2.16,.22,.44-2.64,1.82c1.5,.5,3.2,.89,4.74,1.61,1.71,.81,3.44,.58,4.53-.93,1.56,.73,1.63,1.71,.22,2.96-1.24-.26-1.81,.28-1.81,1.51h-.01Z" fill="#41463d"/><path d="M20.16,16.73c0-1.22,.57-1.77,1.81-1.51l1.8,2.16c2.17-1.72,4.12-1.12,5.28,1.72-1.31-1.29-2.12-.71-2.79,.42-1.54-1-1.91-.27-1.79,1.27l-1.54-.57c-.13-.52-.11-1.12-.35-1.25-.75-.41-1.59-.65-2.63-1.04l.21-1.2Z" fill="#41463d"/><path d="M14.79,22.45c1.64,.57,2.25,1.48,2.07,3.42-.36,3.94-.25,7.92-.33,11.88-.26-1.13-.52-2.27-.82-3.58-2.6,.22-.94-2.2-1.69-3.27,1.95-1.04,2.29-4.73,.78-8.45h-.01Z" fill="#41463d"/><path d="M4,32.05c-.06-1.8-.12-3.6-.19-5.4,0-.32-.05-.63-.08-.95,.48,.42,.96,.83,1.52,1.31v-2.8l.49-.04,.85,10.41h0c-1.1-.58-2.79-.11-3.26-1.82l.67-.72h0Zm1.01,.8l.42-1.56,.16,.04v2.03l.45-.05-.46-4.34-.57,.03v3.84h0Z" fill="#41463d"/><path d="M26.3,4.54c-.49,.49-.91,1.07-1.48,1.44-.77,.5-1.65,.83-2.47,1.22l1.26,2.02c-2.06-2.13-2.48-2.22-4.54-1.02l.48,3.09-.54,.08c-.14-1.97-.67-2.25-3.32-1.88,3.17-2.4,6.82-3.81,10.6-4.95h.01Z" fill="#41463d"/><path d="M30.69,41.52c-.89,1.74-1.94,1.99-3.63,1.05-.53-.3-1.32-.16-1.99-.38,1.99,.42,3.18-3.99,5.62-.66h0Z" fill="#41463d"/><path d="M4,32.05l-.67,.72c-1.3-.22-2.79-.36-2.86-2.07-.04-1.03,.37-2.08,.58-3.12,.48,1.32,.95,2.64,1.58,4.39l.86-2.58,.52,2.67h-.01Z" fill="#41463d"/><path d="M9.48,35.78l1.37-1.69,.19,1.43,1.6-.32v-4.7h.42c0,1.02,.05,2.04-.01,3.05-.07,1.11-.23,2.21-.38,3.56-1.15-.46-2.2-.87-3.25-1.29l.05-.05h.01Z" fill="#41463d"/><path d="M38.5,1.91c-1.17,.03-2.34-1.64-3.5,.02l.08-.06-.75-.34-.07-.55c2.15-1.47,2.61-1.37,4.24,.93Z" fill="#41463d"/><path d="M6.59,34.58l1.44-2.33c.49,1.19,.97,2.36,1.45,3.53l-.05,.05c-.33-.47-.66-.95-1.01-1.44l-.3,.6c-.51-.14-1.02-.28-1.54-.41h.01Z" fill="#41463d"/><path d="M9.84,29.2c-1.94-1.25-1.94-1.7,0-2.92v2.92Z" fill="#41463d"/><path d="M43.23,36.98l1.62,.5-.74,.79h1.51c-.04,.23-.03,.43-.08,.45-1.19,.38-2.48,1.13-3.01-.82l.69-.92h.01Z" fill="#41463d"/><path d="M53.37,32.23l-2.34,.2,.21-2.31,.38-.25,.75,2.66,1-.3Z" fill="#41463d"/><path d="M39.58,3.05l-.35-.04c.11,.08,.22,.09,.35,.04Z" fill="#41463d"/><path d="M39.28,3.05l-.38-.36,.38,.36Z" fill="#41463d"/><path d="M17.59,22.85l-.14-.41c.12,.14,.24,.28,.37,.42-.07,0-.15-.01-.23-.02h0Z" fill="#41463d"/><path d="M17.84,22.89l.3,.33-.3-.33Z" fill="#41463d"/><path d="M17.12,22.11l-.63-.42,.63,.42Z" fill="#41463d"/><path d="M17.5,22.49l-.43-.43,.43,.43Z" fill="#41463d"/></g></g></g></g></svg>