<?xml version="1.0" encoding="utf-8"?>
<!-- Generator: Adobe Illustrator 26.3.1, SVG Export Plug-In . SVG Version: 6.00 Build 0)  -->
<svg version="1.1" xmlns="http://www.w3.org/2000/svg" xmlns:xlink="http://www.w3.org/1999/xlink" x="0px" y="0px"
	 viewBox="0 0 75.9 61" style="enable-background:new 0 0 75.9 61;" xml:space="preserve">
<style type="text/css">
	.st0{fill:#E4D6A7;}
	.st1{fill:#41463D;}
</style>
<g id="Layer_2">
	<path class="st0" d="M14.1,46.6l0.1-19.3l4.6-1.6l-0.3-7.1l-2.9-1.2l1.7-1.4l0.2-2.6L28.4,0L35,3.8l-0.5,1.6l1.4,1.7L37.3,7
		l2.6-2.4l7.7,4.8c0,0-15-4-2.3,1.3s9.6,3.4,9.6,3.4l9.2,8.3l-2.4,1.1L62.3,42l3.9,1.9l-0.4,2.4l-12.1,5.1l3,1.6l0.1,2.2l-2.2,1.2
		l-1.7,0.3c0,0-3.7,0.4-5.2,0.4s-2.7,0.9-2.9,1.1c-0.3,0.2-1.1,0.8-0.3,0.9c0,0-1.8,0.7-2.4,1.1s-1.2-0.5-1.2-0.5L13.6,48.2
		L14.1,46.6z"/>
</g>
<g id="b">
	<g id="c">
		<g id="d">
			<g id="e">
				<g>
					<path class="st1" d="M16,16.8c0.9-0.8,1.7,0,2.5,0.3c0.9,0.3,1.8,0.7,2.8,1.1c0-1-1.1-0.9-1.4-1.5c0.6,0.3,1.6,0.2,1.5,1.4
						c0,0.1,0.1,0.2,0.2,0.2c1,0.3,2,0.6,3.2,1c0-0.3,0-0.5-0.1-0.6c-0.3-0.1-0.6-0.2-0.9-0.3c-1.1-0.5-2.2-1.1-3.4-1.7
						c-0.2-0.1-0.4,0.1-0.7,0.1l-2.5-0.9v-1c2.8,1.1,5.6,2.1,8.5,3.2l0.6-0.7c-2.9-1.1-5.8-2.1-8.6-3.1l0.1-0.3l8.6,3.2
						c0.9-1.2,1.8-2.4,2.7-3.6c0.1,0.4,0,0.6,0.6,0.3c1.3-0.6,2.7-1,4-1.5c1.5-0.6,3.1-1.1,4.6-1.7c0.9-0.4,1-1.8,0.2-2.4
						c-0.2-0.1-0.2-0.5-0.2-0.7c0-0.4,0-0.9,0-1.4l0,0C39,6.3,38.8,6.6,38.7,7c-0.2,0.7,0.1,1,0.8,1c0.3,0,0.6,0,1-0.1
						c-0.2,0.4-1.5,0.2-0.8,1.4L41,7.8l2.2-1.4l-3.8-1.8l0.2,0.9l-0.8-0.2c0-0.8,0.4-0.9,1.1-0.7c2.1,0.8,4.2,1.5,5.8,3.3
						c0.5,0.6,1.2,1,1.9,1.5L46,10.6c1.4,0.5,2.7,1,3.9,1.5c0.9,0.3,1.8,0.7,2.7,0.9c2.6,0.6,4.5,2.2,6.3,4c1.5,1.5,3.1,2.9,4.7,4.3
						c0.8,0.7,0.7,1.8-0.3,2.2c-0.7,0.3-0.8,0.7-0.7,1.3c0.1,5.5,0.1,10.9,0.1,16.4c0,0.6,0.2,1.1,0.9,1.1c0.2,0,0.4,0.1,0.7,0.2
						l0.2-0.7c0.3,0.9,0.5,1.7,1.8,1.7c-0.1,1.1,0,2.1-0.4,3c-0.3,0.5-1.3,0.7-2,1c-1.3,0.4-2.6,0.7-4.2,1l0.7,0.5
						c-0.2,0.1-0.4,0.3-0.4,0.2c-0.9-1.1-1.5,0-2.3,0.2c-0.2,0.1-0.4,0.1-0.5,0.2c1.2-0.7,0.8-1.8,0.8-2.8c-0.1,0-0.2-0.1-0.2-0.1
						c-0.1,0-0.2,0.1-0.3,0c-1.1-0.9-1.8-0.8-1.8,0.8c0,0.8-0.1,1.5-0.2,2.3c0.6-0.1,1.1-0.2,1.7-0.3c0,0,0.1,0,0.1,0
						c-1,0.6-1.9,1.2-3,1.8c0,0.7,0.6,0.7,1.1,0.8c1.4,0.2,1.4,0.2,1.4,1.7c0,0.3,0,0.6,0.1,0.8l1.2,0.5l-0.1,0.3l-1.1-0.1v1.2
						l-1.5-0.5l-0.5,1.2c-0.5-0.3-0.8-0.5-1.2-0.7h1v-3.2l-0.2,0c0,0.5,0,1.1-0.2,1.6c-0.2,0.5-0.6,0.9-1,1.3l0.5,0.3h-0.7
						c0.3,0.2,0.5,0.3,0.6,0.4c0.2,0.2,0.4,0.5,0.3,0.7c0,0.2-0.3,0.5-0.6,0.5c-0.3,0.1-0.7,0.1-1,0c-1.1-0.3-2.1-0.7-3.2-1
						c-0.4-0.1-1-0.1-1.4,0c-0.5,0.2-1,0.4-1.5,0c0.4-0.2,0.8-0.4,1.2-0.7L47,56l0.6-0.2c-0.7-0.5-1.9-0.2-3.1,0.7
						c1-0.2,1.7-0.3,2.4-0.5c-0.7,0.3-1.4,0.6-2.1,0.9l0.1,0.3l1.2-0.2c-0.6,0.4-1.2,0.8-1.8,1.3c0.3,0.4,0.6,0.6,0.8,0.8l-0.2,0.2
						c-0.6-0.3-1.2-0.6-1.9-0.9v1.6h0.2l0.2-0.9l0.7,0.7l0.6,0.3c-1.2,0.7-2.3,1.2-3.4,0.4c0-0.7,0-1.2,0-1.8c0-0.5,0-1,0.8-0.8
						c0.1,0,0.5-0.6,0.7-0.9l-0.2-0.2c0.3,0.1,0.5,0.2,0.8,0.2c0.3,0,0.7,0,1-0.1c0.1,0,0.2-0.4,0.2-0.4c-0.3-0.2-0.6-0.3-0.9-0.5
						c1.2-0.4,2.5-0.8,3.8-1.2l-0.8-0.5c0,0,0-0.1,0.1-0.1c0.7-0.2,1.3-0.4,2-0.6c0.8-0.3,1.6-0.6,2.3-0.9c0.4,0.8,0.8,1.6,1.7,1.8
						c0.3-1.1,0.6-2.1,0.9-3.2c-1,0.2-1.6,0.6-1.9,1.5l-0.7-0.1l-1.2-1l0.1-0.8l0.3,0.8c0.3-1-0.1-1.8-0.9-2
						c-0.3,0.8-0.6,1.2-1.1,1.3l-0.1-1.3c-0.6,0.5-1.6,0.2-1.6,1.4l1.2-0.5l0.1,2c-0.4,0.4-0.8,0.4-1.4,0C45.9,53,46,54,45.1,53.9
						c-0.1,0-0.3,0.5-0.6,0.8l-1.5-0.9c-0.2,0.2-0.5,0.7-0.8,0.7c-1.1,0-2.3-0.2-3.6-0.3c0.3-0.5,0.6-0.9,0.8-1.2
						c0.2-0.3,0.4-0.7,0.6-1.1c-0.4-0.1-0.9,0.2-1.5,1l-2.2-1l0.2-1.4l-0.2,0l-0.2,0.8c-1.9,0-3.6-0.9-5.3-1.6
						c-0.3-0.1-0.4-0.6-0.6-1.1L28.9,49c0,0.1-0.1-0.2-0.1-0.2c-1.3,0-2.6-0.5-3.9,0.2c-1,0.5-2,1-3,1.5c-0.5,0.2-1,0.3-1.5,0.5
						c-0.1-0.4-0.1-0.7-0.2-1c-0.3-0.2-0.5-0.5-0.9-0.6c-0.8-0.3-1.7-0.6-2.6-0.9c-0.2-0.1-0.5,0-0.7,0l-0.1,0.3
						c1.3,0.5,2.6,1,3.8,1.4c0.1,0,0.3-0.2,0.4-0.2l-0.5,0.8c-1.6-0.7-3.1-1.3-4.5-2c-0.2-0.1-0.5-0.3-0.7-0.4c-0.4,0-0.8,0-1.3,0.1
						v-4.9c-0.4,0.1-0.7,0.8-0.9,2v-1.6c-0.9,1-0.4,2.2-0.6,3.4c-1.2-0.5-2.4-1-3.6-1.4v-2.1H7.7l-0.1,1.8l-0.2,0v-2.3l1,0.1l-1-0.5
						l-2.6,1.9c-0.1-0.8,0-2-0.4-2.3c-0.8-0.6-2-0.6-3-0.9l0,0l-0.1-0.4c0.2,0,0.5-0.1,0.7,0C3,41.6,3.9,42,4.9,42.2l-0.8-0.5v-2
						c0.7-0.2,1.4-0.5,2.1-0.7c0.1,0,0.5,0.3,0.6,0.6c0.3,0.8,0.8,0.9,1.5,0.4c0.1-0.1,0.4,0,0.5,0c0.1,0,0.2-0.2,0.4-0.5
						c0.2,0.8,0.3,1.5,0.5,2.2C9,42,8.4,42.1,7.8,42.3l0,0.3c0.4,0.1,0.9,0.4,1.1,0.3c0.3-0.2,0.5-0.7,0.7-1l0.7-0.5
						c0.5,0.1,0.9,0.2,1.3,0.3c1,0.4,1.9,1,3,0.6c-1-1.2-1.2-1.3-2.4-0.9c0.4-0.4,0.4-0.7-0.2-0.9c-0.3-0.1-0.6-0.3-1-0.3
						c-0.3-0.1-0.6,0-0.9-0.1l0.2,1c-0.1,0-0.4-0.1-0.4-0.1c0-0.7,0-1.3,0.1-2.2l0.8,0.7l0.3-1.1l-0.5,0.2l-0.2-0.1
						c0.2-0.2,0.4-0.4,0.6-0.5c0.4-0.2,0.8-0.2,0.7,0.4c-0.1,1.1,0.5,1.8,1.3,2.4c0.2,0.2,0.6,0.2,1.1,0.4v-3.9c0-2,0-3.9,0-5.9
						c0-1-0.4-1.8-1.1-2.5l2.4,1l0.1-0.3c-0.6-0.3-1.2-0.5-1.8-0.8c-0.3-0.2-0.6-0.4-0.8-0.6l1-0.6l-0.4-0.1
						c1.4-0.6,2.7-1.1,4.1-1.7c0.3-0.1,0.6-0.5,0.6-0.7c0-1.7,0-3.5,0-5.2c0-0.6-0.2-1-1-1.2c-0.9-0.2-1.6-0.7-2.5-1l0.1-0.2
						C15.4,16.9,15.7,16.9,16,16.8c-0.1,0.1-0.2,0.3-0.4,0.5l8.6,3.1l0.1-0.4C21.6,18.9,18.8,17.9,16,16.8L16,16.8L16,16.8z
						 M38.5,14.7c0.1,0.1,0.2,0.1,0.2,0.1c0.2,0.1,0.5,0.2,0.7,0.3c0-0.2,0-0.5-0.1-0.7c-0.1-0.3-0.2-0.5-0.3-0.8l1.2,1.1
						c0.2-0.1,0.6-0.1,0.8-0.2c0.3-0.2,0.5-0.4,0.8-0.6c0.5-0.4,0.6-1.8,0.1-2.1c-0.4-0.2-0.8-0.6-1.2-0.8c-0.2-0.1-0.4-0.1-0.6-0.2
						L40,11.4c-0.4-1.2-0.9,0.1-1.6-0.4c0.3,1,0.5,1.9,0.7,2.7c-0.5-0.1-0.9-0.1-0.8,0.6c-0.3-0.1-0.9-0.4-0.7,0.4L36,14l1.9,2.8
						c-0.4-0.5-0.7-0.9-1.1-1.4c-0.2-0.2-0.5-0.4-0.8-0.5l-0.2,0.2c0.5,1,1.1,2.1,1.6,3.1c0.1,0.2,0.5,0.4,0.7,0.6l0.3-0.9l0.8,0.3
						l0.1-0.2l-0.8-1.5l0.2-0.1l1.2,1.6l0.5-2.1c0.3,0.5,0.5,0.8,0.7,1c0.4,0.4,0.8,0,0.8-0.7c0.3,0.3,1.1,0.3,0.8,1
						c-0.3,0.2-0.7,0.3-0.9,0.6c-0.7,1.1-1.3,2.2-2.1,3.4c-0.3-1.6,1.6-2.1,1.4-3.8c-0.4,0.4-0.7,0.6-0.8,0.9c-0.5,1-1,2-1.4,3.1
						c-0.1,0.2,0.2,0.5,0.3,0.8c0,0.1,0.1,0.2,0.1,0.2c2.9,1.1,5.8,2.2,8.7,3.2c0.2,0.1,0.6-0.1,0.7-0.3c0.9-1.2,1.7-2.5,2.6-3.8
						c0.3-0.4,0.4-0.9,0.7-1.4c1-1.7,2-3.4,3-5.1c0.2-0.3,0.3-0.6,0.4-0.9l-0.2-0.1l-0.6,1l0.2-1.1c-0.4-0.1-0.7-0.3-1-0.4
						c-1.7-0.6-3.4-1-4.9-1.8C47.1,11.1,46,11.5,45,13c-0.7,1-1.4,1.9-2,2.8l-1-0.2l0,0.7c-0.3-0.3-0.5-0.8-0.9-0.9
						c-0.5-0.1-1.1,0.1-1.5,0.4c-1.2,0.5-1.5,0.4-1.9-0.9l1,0.7L38.5,14.7L38.5,14.7L38.5,14.7z M32.7,19.2l0.9,2l0.3-0.2
						C33.7,20.2,33.3,19.6,32.7,19.2c-0.7-1.3-1.4-2.7-2-4l-0.4,0.2C31.1,16.6,31.9,17.9,32.7,19.2L32.7,19.2z M40.2,48.3
						c0.7,0,1.2,0.2,1.2,1.1c0,0.6,0.5,0.7,1,0.4l-0.9-0.4l0.4-0.8c-1-0.3-2-0.7-3-1.1l-0.1,0.2C39.4,47.8,39.8,48.1,40.2,48.3
						L39.9,49l-0.2-0.3c0,0.6-0.3,1.4,0.5,1.8L40.2,48.3L40.2,48.3L40.2,48.3z M17.1,28.9c-0.1-1.1-0.7-1.3-2.2-0.8L17.1,28.9
						c0.9,0.6,1.8,1,2.9,0.1C18.9,28.8,18,28.2,17.1,28.9z M50.7,46c0.1,0.2,0.3,0.4,0.3,0.6c0.1,0.7,0.2,1.4,0.3,2.2l0.3,0
						c0.6-1,0.5-2.1,0.4-3.3C51.5,45.7,51.1,45.8,50.7,46c-1.3,0.2-1.5,0.6-1,2.3c0.1-0.7,0.1-1.2,0.2-1.7h0.2l0.2,1.5
						C50.9,47.4,50.7,46.7,50.7,46L50.7,46L50.7,46z M54.7,19.7l2.9-1.8l-0.2-0.3c-0.9,0.5-1.8,0.9-2.6,1.4
						C54.6,19.1,54.7,19.5,54.7,19.7c0,1.8,0,3.7,0.1,5.5c0,0.3,0.3,0.5,0.5,0.8l0.2-0.1l0.1-0.5l1.3-0.3c-0.7,0.9-1.3,1.8-2,2.8
						c1.2-0.6,2.3-1.1,3.5-1.6c0.2-0.1,0.3-0.3,0.3-0.5c0-0.7,0-1.4,0-2.2c-0.7,0.2-1.3,0.7-1.7,1.4V24l-2,0.9c0-1.6,0-3.1,0-4.5
						C55,20.1,54.8,19.9,54.7,19.7L54.7,19.7L54.7,19.7z M61.2,38.9c-1.2,1-0.5,2.3-0.7,3.6c0.8,0,0.9-0.3,0.9-0.9
						C61.2,40.7,61.2,39.8,61.2,38.9l0-1.7l0.6,1c-0.5,1.1-0.4,2.2,0.1,3.3c0.4-1.2,0.6-2.4,0.1-3.7c0.1-0.8,0.2-1.6,0.3-2.6
						c-1.6,0.7-2.2,2.2-1.6,4C60.8,39.1,61,39,61.2,38.9L61.2,38.9L61.2,38.9z M42.8,48c0.1-0.3,0.3-0.6,0.3-1c0-2,0-3.9,0-5.9
						c0-0.2-0.1-0.5-0.1-0.7c-0.2,0.2-0.3,0.3-0.3,0.5c0,2.1,0,4.2,0,6.4C42.6,47.6,42.7,47.8,42.8,48c-1.7-0.6-3.4-1.3-5.1-1.9
						l-0.1,0.3c1.6,0.6,3.2,1.2,4.8,1.8C42.5,48.2,42.6,48.1,42.8,48L42.8,48z M27.9,42.8c0.1-0.2,0.4-0.5,0.4-0.7
						c0.1-0.7,0.1-1.5,0.1-2.2c0-1.5-0.1-2.9-0.1-4.3h-0.3c0,0.2-0.1,0.3-0.1,0.5c-0.1,1.8-0.1,3.7-0.1,5.5
						C27.7,42,27.8,42.4,27.9,42.8L25.1,42L25,42.3l3.3,1.4L27.9,42.8C27.9,42.8,27.9,42.8,27.9,42.8z M15.6,38.2
						c0.8,1.3,2.2,0.8,3.2,1.5l0.1-0.2L15.6,38.2c-0.2-0.3-0.4-0.7-0.4-1c0-2.1,0-4.3,0-6.4c0-0.3-0.2-0.7-0.3-1l-0.3,0.1
						c0,2.6,0,5.2,0,7.7C14.6,38.3,15.1,38.3,15.6,38.2L15.6,38.2L15.6,38.2z M31.1,21c0.9,0.9,1,0.9,1.9,0c-1-1.7-1.8-3.5-2.9-4.9
						c-0.9,1.1-1.6,2.1-2.6,3.3c1.1,0,1.9,1.1,3.1,0.6C30.7,20.2,30.9,20.6,31.1,21c-1.3-0.2-2.3-1.2-3.7-1.1c1,0.5,2.1,0.9,3.2,1.3
						C30.7,21.2,30.9,21,31.1,21L31.1,21z M55.1,37.3c0.7-0.7,0.9-1.4,0.7-2.3c-1.3,0.3-1.7,1-1.3,2.2
						C54.5,37.2,54.9,37.2,55.1,37.3l0.8,0.1c0.1,2.5,0.2,5,0.3,7.5l1.6,0.6c-0.1-0.5-0.4-1-0.4-1.5c0-2,0-3.9,0-5.9
						c0-0.2,0.1-0.5,0.2-0.7c0.2-0.4,0.7-0.8,0.8-1.3c0.1-0.5-0.1-1-0.3-1.5c-0.1-0.2-0.7-0.3-0.8-0.2c-0.3,0.3-0.4,0.7-0.5,1
						l-0.3-0.7l-0.3,0c0,0.3-0.1,0.7-0.1,1C56.3,36.5,56,37.1,55.1,37.3L55.1,37.3L55.1,37.3z M54.1,20.4c-0.8,1.1-1.4,2-2.1,2.9
						c-1.7,2.3-3.3,4.7-2.9,7.8c0.1,0.8,0.1,1.6,0.7,2.3c0.3,0.3,0.4,0.9,0.5,1.3c0.1,0.2,0.2,0.4,0.3,0.6l0.5-0.4
						c0.1,0.4,0.2,0.9,0.3,1.5c0.2-0.3,0.2-0.3,0.2-0.4c0-1.5,0.1-3,0-4.5c-0.2-1.8,0.2-3,2.1-3.4c0.2,0,0.3-0.1,0.3-0.1L54.1,20.4
						L54.1,20.4L54.1,20.4z M34.6,23.2l0,0.4c4.5,1.5,8.9,3.1,13.5,4.6c0.3-0.6-0.1-0.8-0.6-0.9c-3-1.1-6-2.2-9-3.3
						c-1-0.4-2-0.7-3-1C35.2,23,34.9,23.2,34.6,23.2L34.6,23.2L34.6,23.2z M44.1,35.7c0.1-1,0.2-2,0.2-3c0-0.4,0-0.9-0.1-1.2
						c-0.1-0.5-0.3-1-0.5-1.6l0.3-0.2l-1.7-0.5c0,1.5,0.1,2.8,0,4C42,35,41.9,35,43.5,35.5C43.7,35.6,43.8,35.6,44.1,35.7L44.1,35.7
						L44.1,35.7z M16.1,30.3c0,1.3,0,2.4,0,3.6c0,0.2,0.1,0.4,0.3,0.5c0.8,0.3,1.5,0.6,2.4,1c0-1.3,0-2.4,0-3.5
						c0-0.2-0.2-0.6-0.5-0.7C17.7,30.8,17,30.6,16.1,30.3L16.1,30.3L16.1,30.3z M48.8,26.3c-0.3-0.1-0.6-0.1-0.9-0.2
						c-3.5-1.3-7.1-2.6-10.6-3.9c-0.5-0.2-1-0.1-1.5-0.2c0.2,0.3,0.4,0.5,0.6,0.5c0.9,0.4,1.9,0.7,2.8,1c0.9,0.4,1.9,0.7,2.8,1
						s1.8,0.8,2.8,1c0.9,0.2,1.7,0.6,2.5,1c0.5,0.2,0.9,0.5,1.3,0.8L48.8,26.3C48.8,26.3,48.8,26.3,48.8,26.3z M32.9,32.6
						c0.7,0,1.1-0.1,1.1-0.9c0-1.7,0.1-3.4,0.1-5.1c0-0.8,0.1-1.7-0.3-2.3c-0.4-0.5-0.5-0.6,0.1-0.9c0.1,0-0.1-0.5-0.2-0.8
						c-0.2,0.1-0.5,0.2-0.6,0.4C33,23.3,33,23.6,33,24c0,1.4,0,2.8-0.1,4.2c-0.1,1.3,0.6,2.6-0.1,3.9C32.8,32.2,32.9,32.3,32.9,32.6
						C32.9,32.6,32.9,32.6,32.9,32.6z M49.5,45.7l0.3,0.2c0.4-0.3,1-0.6,1-0.9c0.2-1.8,0.2-3.6,0.2-5.5c-1,0.5-1.6,0.9-1.6,1.7
						C49.5,42.7,49.5,44.2,49.5,45.7z M23.4,26.4v-0.3c-0.6-0.2-1.2-0.4-1.8-0.5c-0.6-0.1-0.9-0.4-0.8-1c0-1.6,0-3.3,0-5.1
						c-0.8,0.2-1.2,0.5-1.2,1.2c0,1.3,0,2.6,0.1,3.9c0,0.4,0.4,0.8,0.7,1c0.7,0.4,1.5,0.6,2.3,0.9C22.9,26.6,23.1,26.5,23.4,26.4
						L23.4,26.4L23.4,26.4z M55.6,37.6c-1,0.5-2,0.9-3,1.3c-1.3,0.6-1.4,0.8-1,2.3c1-0.4,1.9-0.9,2.9-1.3
						C55.8,39.5,56,39.2,55.6,37.6z M61.4,23c-1-1.1-1.7-0.2-2.2,0.1c-0.3,0.2-0.1,1-0.2,1.6h0c-0.1,1.6-0.2,3.3-0.3,4.9l0.4,0.1
						c0.2-0.3,0.5-0.6,0.5-0.9c0.1-0.8,0.1-1.7,0.1-2.5C59.7,25,59.7,23.7,61.4,23L61.4,23z M61.6,32.2c-2,0.5-2.8,1.6-2.5,4
						l1.7-1.1L60,34.7C60.8,34,62,33.6,61.6,32.2C61.6,32.2,61.6,32.2,61.6,32.2z M30.5,34.1l-0.1,0.3c4.2,1.6,8.4,3.2,12.6,4.8
						l0.2-0.4C39,37.3,34.7,35.7,30.5,34.1z M39.2,53.5c2,0.9,2.2,0.9,2.8,0c0.4-0.7,0.5-1.4-0.2-1.8c0.1-0.2,0.3-0.5,0.3-0.5
						c-0.2-0.2-0.5-0.4-0.9-0.8l-0.1,1.8c-1.2-0.5-0.8,0.5-0.8,1L39.2,53.5L39.2,53.5z M25.3,26.2c0.1-1.6,0.4-3.2-0.4-4.8
						c-0.4,0.6-0.6,1.2-0.7,1.8c-0.1,0.5,0.1,1.1,0,1.6C24,25.9,24.4,26.2,25.3,26.2L25.3,26.2L25.3,26.2z M42.9,13.7l0.8,0.3
						c0.9-1,1.7-1.9,2.7-3l-2.1-0.5c-0.1,0.6-0.1,1.3-0.3,1.4C43,12.2,43.2,13,42.9,13.7L42.9,13.7L42.9,13.7z M24.2,27.6L24,27.8
						l0.7,1l-0.6-0.2l0,0.1c1.6,2.2,1.2,1.8,2.5,2v-2.3L24.2,27.6L24.2,27.6L24.2,27.6z M35.3,29.5c-0.6,1.7-0.1,3.3,1.5,3.2
						c0.2-2.2-0.2-3.3-1.2-2.9l-0.2,0.5L35.3,29.5L35.3,29.5L35.3,29.5z M57.7,19.3c-0.1,1.1-0.1,2.1-0.2,3.2c0,0.2,0.2,0.5,0.3,0.5
						c0.2,0.1,0.5,0,0.6-0.2c0.2-0.4,0.3-0.8,0.4-1.1C59.3,20.4,59.1,19.9,57.7,19.3L57.7,19.3z M30.9,22v7.8
						C31.7,29.3,31.7,24.1,30.9,22z M27.9,33.9l0.1-0.2c-2.5-1.5-5.2-2.2-7.9-3.2L20,30.8C20,30.8,27.9,33.9,27.9,33.9z M48,29.4
						c-2.2-1.3-4.6-2-7-2.6C43.2,27.9,45.6,28.6,48,29.4z M38.1,33.2c0.8-1.5,0.3-3,0.4-4.6l-0.8,0.1C37.5,32.2,37.6,32.8,38.1,33.2
						z M34.6,12.6c1.4,1.4,1.9,1.5,2.9,0.5l-0.8-1.3L34.6,12.6L34.6,12.6z M49.3,37.4c-0.7,1.8-0.2,3.7-0.2,5.5
						c0.1-0.4,0.1-0.8,0.1-1.1c0-0.5-0.1-1.1,0.2-1.4C50.4,39.3,49.4,38.4,49.3,37.4L49.3,37.4L49.3,37.4z M17.7,44.2l-0.1,0.4
						c1.4,0.6,2.9,1.2,4.3,1.7c0.1,0,0.4-0.3,0.7-0.5C20.8,45.2,19.3,44.4,17.7,44.2L17.7,44.2L17.7,44.2z M52.6,36l-1.4,0.8
						c0.1,0.5,0.2,1.2,0.2,1.9C53.2,38,53.4,37.6,52.6,36z M38.7,32.7l-0.3,0.2c0.2,0.3,0.2,0.7,0.5,0.8c0.9,0.4,1.8,0.7,2.8,1.1
						l0.2-1L38.7,32.7L38.7,32.7L38.7,32.7z M32.1,43.1l0.4,0c0-2.1,0.4-4.2-0.4-6.4V43.1z M16.8,45.3c1.1,1.5,2.9,1.6,4.4,2.4
						c0.1,0,0.3-0.2,0.7-0.5C20,46.5,18.4,45.9,16.8,45.3z M16.3,46.6l-0.1,0.3c1.2,1.1,2.8,1.4,4.3,2c0.1,0,0.3-0.2,0.3-0.2
						c0-0.2-0.1-0.4-0.2-0.4C19.1,47.6,17.7,47.1,16.3,46.6z M23.2,44.7l0-0.3c-1.5-0.5-3.1-1-4.6-1.5c0.1,0.7,1.3,1.3,4,2
						C22.7,44.9,23,44.7,23.2,44.7L23.2,44.7L23.2,44.7z M36.5,35.4c-1.7-0.6-3.1-2-5.1-1.5C33.1,34.5,34.7,35.3,36.5,35.4z
						 M37.7,38.7v6.6h0.2C37.8,43.1,38.7,40.9,37.7,38.7z M31.2,14.7l1.5,2.1l0.3-0.6l0.4,0.3c-0.1-0.5-0.3-0.9-0.4-1.3
						C32.6,14.3,32.1,14.1,31.2,14.7L31.2,14.7L31.2,14.7z M21.6,40.2h0.2V33h-0.2C21.6,33,21.6,40.2,21.6,40.2z M47.9,36.8h0.2
						v-5.9h-0.2V36.8z M58.6,41c0.1-1.6-0.1-2.5-0.5-2.7v5.5c0.4-1-0.2-2.1,1.1-2.9L58.6,41L58.6,41z M21.3,32l-0.1,0.3
						c2.3,0.9,4.6,1.8,6.9,2.6l0.1-0.3C25.9,33.8,23.6,32.9,21.3,32L21.3,32z M54.1,44c0,1.2-0.3,2.4,0.2,3.7
						C54.9,46.6,54.8,44.4,54.1,44z M36.6,49.8l0.1-0.3l-5.9-2.2l-0.1,0.3L36.6,49.8L36.6,49.8z M48.4,37.9l-0.3,0l0.4,9.4h0.3
						C48.7,44.1,48.6,41,48.4,37.9L48.4,37.9L48.4,37.9z M42.8,9.8c-0.4-0.9-1.1-1-1.9-0.9c-0.2,0-0.4,0.3-0.7,0.5
						c0.2,0.2,0.5,0.5,0.7,0.6C41.6,10,42.2,9.9,42.8,9.8L42.8,9.8L42.8,9.8z M23.5,30.8c0.8,1,1.9,1.2,3.1,1
						C25.7,31.3,24.7,30.8,23.5,30.8z M33.4,14.1c0.8,0.9,1.6,1.8,2.6,2.8c-0.4-0.8-0.8-1.3-0.9-1.9C34.9,13.8,34.5,13.6,33.4,14.1
						L33.4,14.1z M30.8,30.5c-1.1-1-2.5-1.3-3.9-1.6C28.1,29.9,29.5,30.2,30.8,30.5z M25.8,27.7c0.7,0.3,0.9,0.3,1-0.5
						c0-1.2,0-2.5,0-3.7c-0.1,1.3-0.9,2.5-0.2,3.8L25.8,27.7L25.8,27.7z M18.8,24.8l0.4,0c0-1.8,0.2-3.7-0.4-5.5V24.8z M34.7,24.4
						l-0.2,0.4c1.2,0.4,2.3,0.8,3.5,1.3l0.2-0.5C37,25.2,35.9,24.7,34.7,24.4L34.7,24.4z M20,38.7l0.2,0v-7C20,31.9,20,32,20,32
						V38.7L20,38.7L20,38.7z M30.6,23l-0.1-0.4c-0.2-0.1-0.5-0.2-0.6-0.1c-0.5,0.3-0.9,0.6-1.3,1c-0.1,0.1,0.1,0.5,0.2,0.7L30.6,23
						L30.6,23L30.6,23z M44.6,44.2v-3.6C44,42,44.1,43.7,44.6,44.2z M63.1,46.6c0.9-0.7,0.4-1.6,0.5-2.7
						C62.4,44.8,63.2,45.8,63.1,46.6z M24,43.1L20.7,42C21.2,43,23.3,43.7,24,43.1z M44.7,9.7c-1-1.7-1.7-2.2-2.3-1.5L44.7,9.7z
						 M31.9,44.1c0.8,0.8,3.9,1.9,4.7,1.6C35,45.1,33.6,44.6,31.9,44.1z M27.4,27.9l0.2,0v-4.3h-0.2V27.9z M47.1,35.1
						c0.5-0.2,0.6-2,0-4V35.1z M54.2,50.6c0.4-0.5,0.5-1.6,0-1.8c-0.2-0.1-0.5-0.1-0.8,0c0,0-0.1,0.4,0,0.5
						C53.6,49.7,53.9,50.1,54.2,50.6L54.2,50.6L54.2,50.6z M53,48.2c0.7-0.5,0.8-2.3,0.2-3.3C53.1,46.1,53.1,47.1,53,48.2z M44,46.7
						l0.2-0.8c0.2,0.2,0.5,0.6,0.6,0.6c0.5-0.4,0.8-0.8,0.4-1.4C44.1,45.2,43.6,45.5,44,46.7L44,46.7L44,46.7z M48.9,31.4h-0.2v4.5
						h0.2V31.4L48.9,31.4L48.9,31.4z M24.5,34h-0.2v3.8h0.2V34z M51,51.2c0.8,0.5,0.7-1.6,1.8-0.5c-0.1-0.3-0.2-0.6-0.4-0.6
						C51.4,49.9,51.1,50.2,51,51.2z M42.8,40l0.1-0.2c-1.7-0.6-3.3-1.2-5-1.8l-0.1,0.2C37.7,38.2,42.8,40.1,42.8,40z M25.5,27.8
						c0.2-1,0.1-1-1.4-1.1C24.1,27.1,24.6,27.5,25.5,27.8z M42.4,52.4l0.4,0c0.1-1.1,0.1-2.2,0.2-3.4h-0.2L42.4,52.4L42.4,52.4z
						 M34.4,18.8L34.2,19l0.8,1.3l1.1-0.5L34.4,18.8L34.4,18.8L34.4,18.8z M52.7,49c0.2-1.5-0.4-3.3,0.5-4.8
						C52.8,44.4,52.6,46,52.7,49z M44.6,34.9c-0.3,1.2,0.4,1.2,1.1,1.4C46.2,35,45.1,35.2,44.6,34.9z M36,37.6l0.1-0.3l-4-1.5
						L32,36.1C33.3,36.6,34.7,37.1,36,37.6L36,37.6L36,37.6z M23.6,25.8l0.2,0v-3.3h-0.2V25.8L23.6,25.8z M60.5,45.1v2.3
						C60.9,46.6,61.4,45.9,60.5,45.1z M51.1,55.8l1.6,0.9C52.8,55.3,52.4,55.1,51.1,55.8z M4.7,39.8c0,0.7,0,1.1,0,1.5
						c0,0.1,0.4,0.2,0.6,0.2c0.1-0.4,0.2-0.8,0.2-1.1C5.5,40.2,5.1,40.1,4.7,39.8C4.7,39.8,4.7,39.8,4.7,39.8z M43.9,10.9l0-0.4
						l-1.6-0.2l0.2,1L43.9,10.9L43.9,10.9z M19.8,26c1.1,0.1,1.9,1.2,3.1,0.9C21.8,26.7,20.9,25.9,19.8,26z M7.2,40.8
						c0.3,1.2,1.1,1,1.8,1L9,41.5L7.2,40.8L7.2,40.8z M58.3,27.2l-0.1,0v4.2h0.1V27.2z M48,43.2l-0.1,0V46H48V43.2z M31.8,47.3
						l0.4,0.1l0.6-2.1l-0.5-0.1L32.1,47l-0.2,0v-1.8h-0.1L31.8,47.3L31.8,47.3z M38.6,25.6L38.3,26l2.2,0.9l0.2-0.4L38.6,25.6
						L38.6,25.6L38.6,25.6z M19.3,36.1l0.1-0.3l-3.2-1.2l-0.1,0.3L19.3,36.1L19.3,36.1z M50.9,57l0,0.2c0.8,0.1,1.4,1,2.3,0.1
						L50.9,57z M31.8,24.2L31.8,24.2l-0.1,5.1h0.1V24.2z M28.4,28.4l-0.2,0.4l2.3,0.9l0.1-0.3L28.4,28.4L28.4,28.4z M48.1,55.6
						c0.7-0.3,1.2-0.5,1.8-0.7C49.1,54.1,48.8,54.3,48.1,55.6z M19.4,31.7h-0.2l-0.1,3h0.3C19.4,34.7,19.4,31.7,19.4,31.7z
						 M13.5,47.3l0.1,0v-3.8h-0.1V47.3z M27.2,39.8h0.1v-2.6h-0.1V39.8z M34.2,42.7l-0.1,0.2l2.8,1l0.1-0.3
						C36.1,43.3,35.1,43,34.2,42.7L34.2,42.7L34.2,42.7z M31.7,43.2l0.1,0v-4.1h-0.1V43.2z M37.5,27.9L37.5,27.9l-0.1,4.1h0.1V27.9z
						 M28.9,24.8c0.9,0.2,1.6-0.4,1.5-1.2L28.9,24.8z M39.7,43h0.2v-3.3h-0.2V43L39.7,43z"/>
					<path class="st1" d="M37.3,7L37,8.7l-0.3-0.1l0.4-0.9c-0.9-0.4-1.7-0.8-2.6-1.2c-0.3-0.1-0.7,0.1-1.1,0.2
						c-0.1-0.2-0.2-0.6-0.3-0.6c-1-0.4-2.1-0.7-3.1-1.1c-0.8-0.3-1.4-0.2-1.9,0.5l0.5-1c-0.7-0.3-1.4-0.7-2.1-0.9
						c-0.1,0-0.3,0.2-0.4,0.4h-0.6l0.2-1l-0.2-0.1l-1.9,2.9c0.6-1.2,1.2-2.4,1.8-3.6l1.2,0.4c0.7-0.9,1.4-1.8,2-2.6
						C31.2,0.2,33,2.1,35,3.8c-1,0.9-0.7,2.3,0.6,2.7C36.1,6.8,36.7,6.9,37.3,7C37.3,7,37.3,7,37.3,7z M27.5,2.6l-0.4,0.7l2.1,1
						c0.2-0.7-0.1-0.9-0.6-1.1C28.2,3,27.9,2.8,27.5,2.6C28.9,3,30,2.5,30.8,1c-0.5-0.2-1-0.3-1.6-0.5c-0.3-0.1-0.7-0.1-0.8,0
						c-0.7,0.8-1.3,1.6-1.9,2.4l0.1,0.1C27,2.9,27.3,2.8,27.5,2.6L27.5,2.6L27.5,2.6z M32.9,4c0,0.6-0.1,1.1,0,1.3
						c0.2,0.2,0.7,0.2,1,0.3L34,5.4L32.9,4L32.9,4z"/>
					<path class="st1" d="M32,9.1c-0.2,0.1-0.3,0.3-0.5,0.4c0-0.1-0.1-0.3-0.1-0.4c-0.2,0.1-0.4,0.1-0.5,0.2c-1.4,1.9-2.7,3.8-4,5.7
						c-0.1,0.2-0.5,0.3-0.7,0.5l0,0c0-0.2,0.1-0.6,0-0.6c-1.2-0.4-2.5-0.8-3.7-1.2c-0.3-0.2-0.5-0.5-0.8-0.6
						c-0.9-0.5-1.8-0.9-2.7-1.4l0.6-0.5c0.2,0.3,0.3,0.8,0.6,0.9c0.6,0.4,1.2,0.6,1.8,0.8c0.4,0.1,0.9-0.1,1.3-0.2
						c0.1,0.1,0.2,0.4,0.4,0.4c0.7,0.3,1.5,0.6,2.2,0.9c0.2,0.1,0.4,0,0.5,0l0.1-0.3l-3.3-1l-3.1-1.6c0.2-0.2,0.4-0.4,0.6-0.6
						c0,0.1,0,0.3,0,0.4c0.8,0.3,1.6,0.7,2.4,0.9c0.2,0.1,0.6-0.2,0.9-0.3c0.2,0.7,1.1,0.9,1.8,0.6c0.3-0.1,0.6-0.2,0.9-0.2l0,0.2
						l-0.6,0.4l0.7,0.8c1.2-2,2.2-4.1,4-5L32,9.1L32,9.1L32,9.1z"/>
					<path class="st1" d="M33,56.2c-1.5,0-4.4-1.4-4.5-2.2l1,0.5l0-1.1L29,53.5c0-0.1,0-0.1,0-0.1c1-0.7,1.9-1.3,3-2
						C32.5,52.9,33.2,54.4,33,56.2L33,56.2z M31.2,55.4c0.1-1.1-0.2-1.9-0.8-2.4C30.7,53.8,30,54.8,31.2,55.4z"/>
					<path class="st1" d="M36.2,57.8l-2-0.7c1.5-1,2.8-1.9,4.6-1.2c0.3,0.2,0.9-0.3,1.4-0.5c0.3,0.1,0.7,0.2,1.1,0.4
						c0.2,0.1,0.3,0.2,0.4,0.4c0,0.1-0.1,0.3-0.2,0.3c-0.7,0.4-1.5,0.7-2.2,1c-0.3,0.1-0.8,0.1-1.1,0c-0.8-0.2-1.5-0.5-2.5-0.7
						L36.2,57.8L36.2,57.8L36.2,57.8z M38.5,57.3l0.4-1.2l-1.2-0.2l0.6,0.6l-0.6,0.2L38.5,57.3L38.5,57.3z"/>
					<path class="st1" d="M21.7,14.7l0.4-0.5l4.1,1.4l0,0c0.1,0.2,0.1,0.4,0.3,0.9C24.8,15.8,23.3,15.2,21.7,14.7L21.7,14.7z"/>
					<path class="st1" d="M73.4,44.8l0.7-0.3c0.1-1,0.1-2,0.2-3l0.2,0c0.1,1.1,0.2,2.2,0.4,3.5l1-0.5c-0.4,0.9-0.4,0.9-2.3,0.5
						C73.5,44.9,73.5,44.9,73.4,44.8L73.4,44.8L73.4,44.8z"/>
					<path class="st1" d="M26.9,54.7h-2.4l0.7-1.1l0.9,0.4l0.6-1.4c0.1,0.3,0.2,0.6,0.2,0.9C26.9,53.9,26.9,54.2,26.9,54.7
						L26.9,54.7z"/>
					<path class="st1" d="M1.5,41.7l0.1,2l0.6-0.1v0.6H0l0.9-1.5l0.1,1.4C1.3,43.2,1.4,42.4,1.5,41.7L1.5,41.7L1.5,41.7L1.5,41.7z"
						/>
					<path class="st1" d="M73.4,44.8c0,0,0.1,0,0.1,0.1c-0.2,0.2-0.5,0.4-0.9,0.7v-3.5l0.8,0.3l-0.3,0L73.4,44.8z"/>
					<path class="st1" d="M18.3,12.6c0.2,0.1,0.5,0.3,0.7,0.4c0.5,0.3,1.5,0.1,1.4,1.1c-0.9-0.3-1.9-0.6-2.9-0.9L18.3,12.6z"/>
					<path class="st1" d="M45,59.4l0.2-0.2l1.7-0.1l0.1,0.2c-0.8,0.3-1.5,0.6-2.2,0.9l-0.6-0.3l1.1-0.2L45,59.4L45,59.4L45,59.4z"/>
					<path class="st1" d="M13,12.9L12.7,11l0.3-0.1l0.4,1.2l0.5-0.8l0.2,0.1L13.3,13L13,12.9z"/>
					<path class="st1" d="M3.1,42.5c-0.2,0.7,1.3,1.2,0.7,2l-0.5,0l-0.5-1.9L3.1,42.5L3.1,42.5z"/>
					<path class="st1" d="M34.7,54c-0.2,0.5-0.4,0.9-0.7,1.3c0,0.1-0.3,0.2-0.4,0.1c-0.1,0-0.2-0.3-0.2-0.4c0.3-0.4,0.7-0.8,1-1.3
						L34.7,54L34.7,54z"/>
					<path class="st1" d="M24.1,11.7c-0.6-0.8-2.5-1.3-3.3-1l3.5-5.2l-0.4,1.2L25,7.3l0,0.2l-1.4-0.3c-0.3,0.7-0.6,1.5-1,2.3
						l-0.9,0.4c0.9,0.4,1.5,0.7,2.1,0.9c0.3,0.1,0.6-0.1,0.9-0.2L24.1,11.7L24.1,11.7z"/>
					<path class="st1" d="M42.1,20l0.8-1.5l-0.8-0.1l1.2-0.3l0.3-0.4l-0.9-0.4h1.4l-0.3,0.8c0.7-0.3,1.7-0.1,1.9-1.1l-1.4-0.1
						c0.1-0.3,0.2-0.6,0.3-0.8c0.8-1.7,0.8-1.7,2.6-1.3c0.5,0.1,0.9,0,1.5,0L48,15.3l0,0.3l1.6-0.1l0.5,0.7L50,16.3L49.7,16
						c-1.4,0.5-2.4-0.6-3.7-0.6c1.1,0.4,2,0.8,3,1.2c-0.1,0.3-0.1,0.6-0.2,0.9c-0.8-0.2-0.8,0.2-0.7,0.7c-0.2,0.1-0.5,0.2-0.6,0.3
						c-0.9,1.3-1.7,2.6-2.5,3.9c-1.3-0.5-2.6-0.9-3.9-1.4C41.4,20.7,41.8,20.3,42.1,20c0.2,0.1,0.3,0.4,0.5,0.5
						c0.9,0.4,1.8,0.7,2.6,1.1l0.1-0.3c-0.5-0.3-1-0.6-1.6-0.8C43.2,20.2,42.6,20.1,42.1,20L42.1,20L42.1,20z"/>
					<path class="st1" d="M40.9,21.3L41,22c1,0.4,2.3,0.8,3.6,1.3c0.2,0.1,0.5-0.1,0.7-0.2c0.3,0.3,0.6,0.7,0.9,1
						c-2.1-0.7-4.3-1.4-6.5-2.1L40.9,21.3L40.9,21.3L40.9,21.3z"/>
					<path class="st1" d="M53.2,14.1c-0.6,0.8-1.1,0.4-1.6,0l0.4-0.8L53.2,14.1L53.2,14.1L53.2,14.1z"/>
					<path class="st1" d="M26.1,5.4l-0.8-1.2l2.1,1c-0.3,0-0.6,0-0.9,0.1C26.4,5.3,26.3,5.4,26.1,5.4L26.1,5.4L26.1,5.4z"/>
				</g>
			</g>
		</g>
	</g>
</g>
</svg>
