<?xml version="1.0" encoding="UTF-8"?><svg id="b" xmlns="http://www.w3.org/2000/svg" viewBox="0 0 173.33 128.03"><g id="c"><g id="d"><g id="e"><g><path d="M127.38,105.88c-1.01,.44-2.01,.91-3.04,1.31-2.4,.92-4.79,1.86-7.24,2.64-.68,.22-1.52-.1-2.34,0,2,.56,2.97,3.35,5.57,2.5,2.07-.67,4.13-1.37,6.2-2.05l.18,.48-5.79,2.28,.64,1.21-2.56,.6,.89-1.12-.21-.56c-1.97,.55-3.95,1.11-5.89,1.65l-2.5-3.22-.32,.2,1.14,2.74c-1.43,0-2.8,.38-3.67-.11-.87-.49-1.26-1.85-1.99-3.05-1.41,.13-3.09,.06-4-1.8,.51-.61,1.02-1.21,1.53-1.81-2.87-2.39-3.56,.56-5.01,1.52l.24,.43,2.9-1.98,.41,1.88-2.63,.31c1.31,1.17,2.18,1.94,3.2,2.85l-2.08,1.78-.3-.23,1.02-1.25c-1.54-.42-2.84-.8-4.16-1.12-1.39-.33-2.41-.89-1.94-2.52l-3.11,.53-.13-.53,1.97-.72c-1.01-.96-4.26-1.44-5.32-.8-.53,.32-1.03,.7-1.55,1.05l.05-.05-2.13-.46c-.77,.47-1.94,1.61-3.3,1.9-1.37,.3-2.91-.29-4.38-.39-.67-.04-1.35,.19-2.02,.27-.89,.1-1.79,.16-2.58,.22-.12-.81-.2-1.43-.29-2.04,.35,.25,.67,.6,1.06,.73,.51,.17,1.08,.18,1.63,.26,0-.51,.21-1.31-.02-1.46-.42-.28-1.11-.27-1.65-.19-.36,.05-.68,.43-1.01,.67l-.69-.41c0,.78,.02,1.51-.05,2.23,0,.06-.66,.05-1.01,.08v-1.94l-1.17,1.35-.97-1.12,.49,.05,.4-1.39c-1.97,.5-3.58,.92-5.09,1.31l3.32,3.45-.43,.54-3.87-.84-1.55,3.2c-.72-.42-2.01-.78-2.06-1.26-.18-1.66-.1-3.4,.23-5.04,.29-1.42,.5-1.37-.59-1.86-.76-.51-1.53-1.03-2.24-1.51l-2.4,2.16,4.68-.69-.64,2-1.48-.61,.17,3.31,1.16-.19,.15,.39-2.28,1.07-.18-3.39c-1.65,.27-3.49,2.24-3.93,4.17l-1.73-2-1.88,2c-.13-.34-.23-.63-.34-.91-.63,.11-1.26,.23-2.08,.37l.53-1.59c-2.09,.79-4.08,1.54-6.5,2.46l-.57-2.79-.06,.06c3.28-1,6.67-1.78,9.48-4.85-.79,0-1.06-.02-1.32,0-.23,.03-.44,.12-.79-.07l1.93-.97-.07-.44h-6.13c.5-.33,.97-.9,1.48-.93,1.46-.08,2.32-.58,2.09-2.17,.18,0,.27-.03,.3,0,2.21,2.13,2.9,2.24,5.36,.14,2.18-1.86,4.17-3.94,6.24-5.93l-.71-.71c-1.25,1.4-2.53,2.78-3.76,4.21-1.07,1.25-2.18,1.58-3.53,.41-.37-.32-.89-.48-1.32-.7l.47-2.44-.38-.2c.48-.4,.95-.79,1.43-1.19,.11,.53,.22,1.05,.33,1.58l1.71-.49-.22-.51-.9,.36-.36-.4c5.18-1.91,6.65-7.27,10.56-10.4l-3.98,5.89c.6-.25,1.09-.58,1.41-1.03,2.39-3.39,4.74-6.8,7.13-10.2,.76-1.08,1.57-2.13,2.36-3.19,.14,1.62-.86,2.74-1.61,4.05-2.48,4.35-4.76,8.81-7.1,13.23-.25,.47-.44,.98-.66,1.47,1.9-1.23,3.35-2.68,3.88-4.95,.4-1.73,.97-3.48,1.81-5.04,1.23-2.3,2.88-4.36,4.11-6.66,1.12-2.11,1.92-4.4,2.86-6.61,.17-.47,.25-1,.53-1.39,3.24-4.5,6.52-8.97,9.77-13.47,.27-.37,.38-.85,.57-1.27,1.99-2.58,3.99-5.17,5.98-7.75l-.7-.48-5.25,8.27c-1.55,1.59-3.28,3.04-4.63,4.79-3.61,4.69-7.01,9.53-10.57,14.25-2.07,2.74-3.71,5.76-6.48,8.05-1.95,1.61-3.1,4.15-4.74,6.18-1.3,1.61-2.8,3.05-4.21,4.57,3.86-5.26,7.71-10.51,11.57-15.76l-.4-.32-3.08,3.69-.58-3-.47,.08c.08,.56,.26,1.14,.22,1.69-.09,1.05,0,2.27-.52,3.09-1.8,2.85-3.86,5.55-5.76,8.35-.44,.64-.64,1.44-.96,2.17l-1.67,1.24,.62-1.77-1.42,1.24-2.69-1.88v5h-4.88l.46,1.79-.24,.13-.82-1.22-.86,1.31c-.16-.06-.35-.08-.38-.15-.47-1.21-.81-2.42-2.07-.41-.35,.56-1.63,.94-2.37,.79-2.15-.43-2.04,.9-2.07,2.33-2.68-.78-1.16-4.77-3.66-5.4,.61,1.91,1.18,3.83,1.84,5.73,.28,.79,.74,1.51,1.13,2.27-.99,.51-4.32-3.29-6.55-7.81-.91,.27-2.64,0-5.3-.81l-.39,.37,3.35,2.4c-1.19,1.03-2,1.73-3.12,2.7l1.48,1.92c-2.84-.15-6.25-.33-9.82-.52l-.27-1.39-1.89-.59,.05,.05c1.3-1.04,2.62-2.05,3.86-3.15,.16-.14-.08-.73-.13-1.14l-5.22,3.95-.95-4.55-.47,.05,1.24-1.49,1.17,1.53,.84-1.09,.3,1.12,.4-1.86,1.09,1.4,.47-4.64,.64,.02v3.52l.4,.12c.31-.95,.65-1.89,.92-2.85,.26-.94,.45-1.9,.55-2.3l1.69,3.56,2.66-3.06c1.3,.16,4.51-1.77,4.97-3.75l.38,1.49,.86-1.63c1.12,1.42,2.29,1.89,3.61-.04l.36,1.87,.46,.12,.68-2.41,1.41,.79,.3-1.53,1.78,2.18,.34-.19-.34-2.26c1.01,1.44,1.78,2.54,2.56,3.63l.49-.27c-.18-.42-.37-.83-.53-1.26-.38-.98-1.93-1.63-.79-3.09,.16-.21-.4-1.01-.66-1.52-.64-1.21-1.31-2.41-1.97-3.64l2.48-1.2-.35-.67-2.19,.96c-1.22-1.5-2.47-3.03-3.71-4.56,2.86-1.63,2.98-1.57,5.8,2.44,.94-.4,1.88-.96,2.89-1.18,1.07-.23,2.18-.21,2.17,1.48,0,.51,.56,1.01,.87,1.52l.45-.16-.45,1.68,.4,.17c.38-.74,.7-1.52,1.15-2.22,.42-.64,.43-1.91,1.8-1.36,.1,.04,.44-.19,.44-.29-.08-2.89,2.44-1.78,3.63-2,3.12-.58,6.34-.58,9.53-.95-4.91-1.51-9.83-1.49-14.76,.45l-.11-.54c.53-.28,1.05-.72,1.61-.8,1.53-.23,1.92-1.01,1.79-2.49-.07-.73,.43-1.56,.82-2.26,.53-.94,1.41-1.72,1.79-2.7,.71-1.87,2.15-1.68,3.63-1.64,1.04,.03,2.07,0,3.11,0,.48,0,.96,.06,1.44,.09-.32,.31-.64,.63-.96,.94-.14,.13-.31,.22-.46,.34l1.37,2.45,.32,.07-.21-2.36c.49-.03,1.11,.1,1.53-.14,.44-.25,.96-.86,.95-1.31-.07-4.78-.32-9.55-.35-14.33,0-1.94-.82-2.94-2.61-3.38-.99-.25-1.97-.54-2.92-.89-1.43-.53-2.3-1.47-2.1-3.23l2.03,.6c.6-2.82,3.3-1.63,4.86-3.07v2.42l-2.8-.3-.22,.75c.95,.31,2.01,1.03,2.83,.82,1.22-.31,1.46-1.34,1.23-2.83-.44-2.81-.31-5.71-.41-8.57-.04-1.21-.1-2.43-.07-3.64,.02-.67,.2-1.33,.32-2l1.72,.81c4.32-1.04,8.71-1.52,13.24-1.01l1.6-1.57c.42,6.04,.8,11.47,1.2,17.17l2.06-1.23c-.74,1.64-3.22,2.33-1.65,4.2,.42,.5,1.45,.5,2.56,.84l-.41,2.15,2.17-1.27-2.39-2.8c.1-1.94,.13-3.78,.31-5.6,.08-.79,.48-1.55,.7-2.33,.2-.7,.4-1.4,.51-2.11,.59-3.81-.63-7.55-.55-11.32,.05-2.21,.78-4.41,1.2-6.62l.93,.02c-.74,5.27,.51,10.27,1.51,15.62,.6-.93,1.05-1.62,1.5-2.3l.31,.1c-.11,1.87-.22,3.73-.32,5.48l3.93,.22c.75-5.02,.15-10.02,.69-15.06,.09,.53,.25,1.06,.27,1.59,.07,2.04,0,4.09,.16,6.12,.14,1.71,.35,3.47,.9,5.08,.26,.78,1.35,1.29,2.1,1.88,.73,.58,1.5,1.11,2.36,1.74l.26-1.42c.7,.75,1.31,1.52,2.05,2.13,.25,.21,1.17,.12,1.18,.04,.34-1.69,1.64-.77,2.6-1.13,.27,1.82,.93,2.84,3.02,2.53,.91-.13,2.06,.64,2.96,1.24,1.52,1.01,1.98,.23,1.99-1.1,.03-7.02,.05-14.03-.05-21.05-.04-2.66-.71-3.17-2.99-3,.33,1.36,.67,2.73,1,4.11l-.43,.08-3.41-3.3,.81-1c-1.45-1.43-4.07-2.07-4.98-1.01-.6,.7-.57,1.94-.86,3.1,2.35,.03,2.58-1.17,2.53-2.59,1.35,.99,1.99,3.54,1.29,5.81-.16-.9-.25-1.42-.34-1.95-.1-.56-.2-1.11-.23-1.29-1.06,.17-2.18,.72-2.95,.4-1.22-.49-1.25-3.09-.31-4.91-1.58-.42-2.18,.33-2.18,1.81v6.42h-.66V10.58l-2.76,2.77-.17-1.78-1.48,.91,1.97,1.71-1.51,1.04c-1.98-1.69-.35-3.78-.31-5.69l-.58-.08-1.06,2.12-1.53-3.79c-2.09-.19-1.22-1.52-.46-3.21,.57,3.12,3.17,2.51,4.9,3.08,4.35,1.43,8.83,2.55,13.31,3.55,1.74,.39,3.69,.45,5.43,.1,5.83-1.15,11.61-2.55,17.4-3.86,.42-.1,.84-.23,1.26-.35l-.11-.62c-1.45,.23-2.91,.41-4.35,.71-5.44,1.12-10.88,2.29-16.32,3.4-.53,.11-1.14-.06-1.68-.2-4.82-1.21-9.65-2.42-14.46-3.69-1.65-.44-3.26-1.07-4.88-1.61l.09-.48,6.45-1.89,.13,.43-3.25,1.06,.14,.69c1.23-.24,2.47-.43,3.69-.73,3.54-.86,7.06-1.82,10.61-2.59,1.06-.23,2.28-.2,3.32,.08,4.93,1.35,9.81,2.84,14.72,4.25,.77,.22,1.58,.27,2.5,0-2.12-.66-4.23-1.35-6.36-1.99-3.3-.99-6.6-1.99-9.93-2.91-2.02-.56-4.09-.96-6.04,.31h0c.7-.46,1.47-1.41,2.08-1.31,3.36,.52,6.73,1.14,10.01,2.02,4.34,1.17,8.59,2.67,12.91,3.91,1.77,.51,2.56,1.27,2.55,3.29-.08,9.96,.05,19.92,.04,29.88,0,5.29-.19,10.58-.23,15.87-.04,5.45,0,10.89-.02,16.34,0,1.26,.13,2.12,1.73,2.39,1.27,.21,2.48,.98,3.62,1.67,.45,.28,.68,.99,.92,1.54,.63,1.43,.96,3.08,1.88,4.27,.62,.79,2.06,.92,3.32,1.43,0,.49-1.57,1.4-.02,2.34,.06,.04-.49,1.07-.76,1.64l.39,.34,3.29-4.22,.25,.14c-1.04,2.11-2.07,4.22-3.11,6.32l.47,.32,2.25-3.15,.46,2.84c2.26-.61,3.71,2.57,6.27,1.5l.42,1.85,1.02-1.32,.5,1.2,.5-.07-.17-3.86,1.53,1.71,.29-1.9h.21c.19,1.82,.37,3.64,.56,5.47l.41,.03c.25-1.61,.51-3.23,.76-4.84l.68,.1v4.7l3.06-.97c.46,.73-1.56,2.09,.4,2.91l.81-2.75,.24,.02,.09,1.97,1.51,.11-.88-2.95,2.43,1.75v3.76c1.4-.56,1.84-1.53,1.89-4.09,.03-1.61,0-3.22,0-4.83l.75-.02v8.7l.72,.1,.74-2.38v4.21c-2.8,.13-5.72,.27-9.1,.43l1.07-1.53c-.08-.06-.22-.21-.25-.19-1.92,1.08-4.32,1.54-5.47,3.94l2.74,1.24c-2.56,.37-4.56,.65-6.57,.94-1.81,.26-3.54,.83-5.42-.12-.8-.4-2.18-.09-3.12,.32-2.27,.97-3.98-.7-5.95-1.06-.27-.05-.35-.93-.57-1.4-.39-.82-.63-1.89-1.29-2.35-.48-.34-1.65-.08-2.27,.3-.34,.21-.25,1.25-.2,1.9,.06,.8,.28,1.58,.44,2.37l.06-.06c-1.87,.41-3.73,.85-5.61,1.21-.52,.1-1.08-.06-1.75-.1-.23,1.53-1.53,.85-2.59,.82-.26-.81-.52-1.61-.9-2.81-.35,.41-1.14,.92-1.11,1.37,.09,1.09,.66,1.99,2.06,1.39l-.15-.03h0Zm-56.28-9.58l1.37-.78-1.78,5.74,.41,.13,2.18-5.41-1.29-1.05c-.28,.47-.56,.94-.83,1.41-.61,.07-1.25,.05-1.81,.25-.32,.12-.75,.63-.71,.9,.07,.51,.42,1,.74,1.44,.08,.11,.63,.07,.68-.03,.39-.85,.71-1.74,1.05-2.61h-.01Zm-12.94-18.24c.27-1.14,.48-2.26-1.56-2.88l.43,3.7,1.17-.88-2.19,4.21,3.27-1.18c-1.02-.8,.96-2.41-1.12-2.98h0Zm27.16,14.74l-1.17-3.21-.64,.03c-.18,.57-.61,1.21-.47,1.68,.12,.42,.88,.66,1.37,.96,.31,.19,.64,.33,.95,.49l.33,2.65-2.17-.75c1.01,2.66,3.1,.66,4.32,1.63l.3-.39c-.94-1.03-1.88-2.06-2.81-3.1h-.01Zm-32.37,10.56c-.7,.74-2.13,1.84-1.98,2.15,.64,1.29-.18,1.83-.85,2.39-1.38,1.15-2.86,2.18-4,3.04,.65,0,1.82,.22,2.84-.07,.78-.22,1.51-.98,2.02-1.67,.42-.57,.47-1.4,.69-2.11,.4-1.25,.8-2.49,1.21-3.73,.31-.14,.81-.22,.89-.44,.5-1.4,1.57-1.78,2.9-1.81-2.38,2.06-3.85,4.62-4.19,7.8,1.53-2.03,2.86-4.19,4.39-6.21,1.51-1.97,3.22-3.79,4.85-5.68l.14,.13-1.66,2.54,.44,.32,12.78-13.73-.43-.41c-1.61,1.45-3.22,2.88-4.81,4.34-2.06,1.9-4.12,3.8-6.15,5.73-1.82,1.72-3.6,3.48-5.4,5.22-.09-.22-.12-.57-.28-.64-.91-.4-4.02,1.66-4.02,2.65,0,.07,.41,.14,.63,.2h0Zm19.57-58.36l-2.1,1.44c1.52,1.33,3.04,1.04,4.88,0l-2.83-1.38c.85-1.4,1.67-2.84,3.75-2.5v2.99c.97-1.48,.95-3.5,.03-3.78-.98-.3-2.04-.32-3.06-.46l-.06,.31,.95,.58-.09,.49h-2.94l-.51,2.98c1.03-.36,1.51-.52,1.98-.68h0Zm20.66-9.57v3.1l3.31-1.8-3.36-1.25-.41-.74-.31,.08v18.25l.65,.02c0-1.86,.07-3.73-.02-5.59-.07-1.36,.1-2.51,1.39-3.25,.03,0-.05-.21-.12-.45l-1.54,.56c0-1.32-.05-2.52,.01-3.72,.09-1.75,.26-3.49,.39-5.23v.02h.01Zm-14.94,65.97l2.11-.15-1.39,1.33,.4,.38c.72-.64,1.45-1.29,2.17-1.93l-.57-.81-2.72,1.2,.74-1.27-.5,.12-1.54-4.52c-.53,1.93-1.43,1.18-2.39,.53l-1.8,4.43,1.36,.52,.11-2.41c1.53,.98,2.78,1.79,4.03,2.59h0Zm8.16-27.37c-.43,.29-.97,.5-1.27,.89-2.58,3.35-5.14,6.71-7.67,10.1-.9,1.2-1.68,2.49-2.52,3.73l.46,.35c1.1-1.13,2.26-2.22,3.27-3.42,.64-.76,1.04-1.72,1.6-2.56,2.02-3.05,4.06-6.09,6.07-9.14,1.73-2.47,3.46-4.93,4.56-6.5l-.89-2.79-.77,.28c.81,3.11-.73,5.28-2.45,7.43-.32,.4-.27,1.07-.4,1.62h0Zm20.01,15.24c-2.6,6.07-3.38,9.14-2.64,10.64,.43-1.62,.88-3.2,1.27-4.79,.48-1.94,.91-3.89,1.37-5.84l.37-.97c-.41-.03-.93-.23-1.2-.05-.79,.52-1.48,1.2-2.22,1.81-2.14,1.75-4.29,3.5-6.43,5.24l-.55-.48,2.2-3.14c-1.07,.47-1.8,1.2-2.63,1.8-.26,.19-.79,0-1.19-.02,.06-.34,.07-.71,.21-1.02,.13-.28,.4-.49,.72-.88l-3.03,.27,4.01,4.83c3.4-2.58,6.57-4.99,9.74-7.4Zm45.41,12.25l-.05-.06c.05,.22,.23,.55,.14,.64-.24,.26-.59,.43-.89,.64,.37,.23,.72,.59,1.12,.66,1.7,.29,2.75-.87,3.97-1.78,.93-.69,.94-1.24,.33-2.02-.75-.96-1.51-1.91-2.3-2.91-2.08,.46-4.23,.94-6.38,1.41l-.21,.5,2.78,1.78,3.36-1.35c-.47,1.27-2.79,.56-1.87,2.49h0Zm-106.24-24.62l1.39,3.15,1.47-1.89c.39,.69,.65,1.3,1.03,1.81,.86,1.16,2.03,.86,2.76,.08,.51-.55,.5-1.62,.63-2.47,.03-.19-.44-.66-.52-.63-.47,.2-.9,.51-.91,.52-.88-.85-1.7-1.79-2.69-2.48-.31-.22-1.11,.27-1.69,.43l1.3,1.37-.53,1.75c-.37-1.77-.95-2.47-2.27-1.58-.37,.13-.99,.19-1.06,.41-.39,1.26-.65,2.56-.95,3.85-2.14,.15-2.35-1.81-3.2-3.01-.95-1.34-1.73-1.56-2.72,0,.2,.28,.38,.52,.56,.77,.85,1.16,1.97,2.22,2.48,3.51,.68,1.72,.65,3.77,2.99,4.57l1.35-6.7c.05-.69,.11-1.31,.22-1.91,.09-.52,.25-1.03,.38-1.54h-.02Zm55.51-17.54c-.07-.26-.08-.73-.21-.76-3.32-.88-6.65-1.71-10.4-2.66l2.7,5.79,1.39-2.98-.42-.21-1.28,1.49-.54-2.5c1.85,.24,3.34,.34,4.79,.63,1.36,.28,2.68,.76,4.02,1.15l4.64-1.59c-1.17-1.71-2.09-3.15-3.11-4.51-2.72-3.64-2.72-3.66-.04-7.24,1.19-1.59,2.76-3.01,2.68-5.59-3.99,5.14-8.31,9.71-10.45,15.69l.5,.34c1.46-2.11,2.92-4.23,4.51-6.53,1.14,1.75,2.06,3.43,3.26,4.9,1.05,1.29,.93,2.24-.26,3.21-.58,.48-1.19,.92-1.79,1.38h.01Zm-11.55,23.1l-1.73,2.36c1.31,.43,1.89,.91,1.38,2.29-.5,1.34-.57,2.73,.59,4.04,1.34,1.52,2.39,3.29,3.6,4.93,.25,.34,.65,.57,.99,.85-1.05-2.54-2.46-4.76-3.72-7.07-.32-.59,.04-1.52-.2-2.18-.43-1.18,.6-2.86-.93-3.47v-1.75l-.69-1.39,.58-.45,.29,1.31c2.04-2.06,1.27-4.23,1.36-6.22,.09-2.04,.02-4.09,.02-6.13l-.48-.21c-1.34,2.45-2.72,4.88-4,7.37-.63,1.24,.66,5.11,1.86,5.76,.27,.15,.73-.03,1.08-.05h0Zm-19.08-22.06c.51-.72,1-1.45,1.52-2.16,.22-.31,.55-.54,.75-.86,.65-1.03,1.32-2.05,1.85-3.15,.2-.42,.25-1.33,.02-1.48-.78-.5-1.69-.88-2.6-1.01-.22-.03-.67,1.01-.91,1.6-.4,1-.77,2.02-1.07,3.05-.49,1.69-.91,3.39-1.35,5.09l.7,.27,1.13-1.4c-.42,.98-.8,1.99-1.28,2.93-.43,.84-.97,1.61-1.47,2.42l.4,.24c1.14-1.51,2.16-2.04,3.06-1.58l-4.12,3.97,.3,.23c2.36-1.55,4.72-3.09,7.17-4.69l-.08,1.31c1.58-2.51,3.49-4.6,4.27-7.04,.77-2.43,.41-5.22,.55-7.85l-.62-.02v4.86c-.27-.13-.42-.19-.56-.27-2.63-1.37-3.95-.53-3.95,2.43,0,.43-.52,.95-.93,1.26-.88,.67-1.83,1.23-2.76,1.84h-.02Zm5.73-19.29c.15-.75,.46-1.49,.42-2.2-.1-1.57-.48-3.11-.55-4.68-.1-2.08-.03-4.17-.03-6.09l-13.45,.76c0,2.94-.09,5.87,.07,8.79,.03,.63,.82,1.44,1.46,1.74,.37,.17,1.2-.44,1.71-.85,.53-.43,.92-1.03,1.37-1.56l.49,.38-1.28,2.52c1.15,.57,2.17,1.25,3.29,1.59,1.11,.34,2.09-.72,1.49-1.58-1.03-1.48-1.39-3.82-4.11-3.5,1.04-2.01,.07-3.29-1.5-4.63l3.34-1.42,2.83,.99c-2.47,1.75-1.57,3.79-.97,6.01,.77,2.89,3.47,2.53,5.43,3.73h0Zm5.25,26.39l-2.31-1.76c-1.2,1.54-2.39,2.82-3.29,4.28-.81,1.31-1.45,2.77-1.85,4.26-.17,.63,.1,1.26-.8,1.53-.27,.08-.4,.59-.72,1.1l1.76-.94c-.27,2.09-1.23,3.52-2.9,4.28-.56,.26-1.08,.59-1.71,.94,.27,.14,.38,.25,.47,.23,.44-.08,.87-.2,1.3-.3,3.32-.79,6.2-2.39,8.45-4.93,.96-1.09,1.54-2.52,2.22-3.83,.13-.25,.05-.79-.15-1-.91-.95-1.08-2.16-.19-2.9,1.73-1.44,1.17-3.06,.78-4.71-.06-.25-.53-.57-.79-.55-.28,.03-.77,.43-.75,.64,.07,1.12,.28,2.23,.48,3.67h0Zm-16.68-17.26l-1.3-2.6-.77,.25c.02,7.4-.3,14.83,1.52,22.18,1.8-.8,1.81-.8,1.45-2.35-.22-.93-.41-1.88-.76-2.76-.42-1.06-.08-1.52,.96-1.63l.77,1.92c.38-1.93,.32-3.76,.41-5.58,.04-.72,.31-1.48,.65-2.13,.98-1.88,3.04-3.28,2.45-6.09l-5.39-1.22h.01Zm42.39,49.71l.74,.35c1.07-2.3,2.17-4.59,3.21-6.91,.56-1.24,1.47-2.52,1.48-3.79,.18-14.43,.22-28.86,.27-43.28,0-.49-.32-.97-.49-1.46-.49,.48-.58,.84-.58,1.2,0,14.3,.03,28.6-.03,42.9,0,1.1-.53,2.25-1,3.3-1.15,2.59-2.4,5.13-3.62,7.7h.02Zm-58.03-31.27c.82,.54,1.4,.92,1.98,1.31,.26,.18,.49,.48,.77,.54,2.54,.5,5.07,1,7.63,1.38,.42,.06,1.07-.37,1.34-.76,.17-.25,0-.97-.27-1.27-2.64-3.05-8.01-3.68-11.35-1.38-.13,.09-.16,.31-.1,.2v-.02Zm45.05-3.17l-1.01-.31c-.33,1.09-.91,2.18-.94,3.28-.17,6.9-.22,13.81-.3,20.73,.96-.28,1.44-.79,1.41-2.18-.13-6.22-.1-12.45-.02-18.68,.01-.95,.56-1.9,.86-2.85h0Zm-6.03-20.24c-6.93,2.27-8.72,5.2-6.67,11.25v-6.75l2.6,1.78c.9-1.01,2.41-1.95,2.37-2.82-.07-1.6,.98-2.32,1.7-3.47h0Zm53.13,54.4c.16,.43,.43,.78,.36,1.05-.5,1.99-.16,2.56,1.93,2.39,1-.08,2.03-.62,2.9-1.17,.47-.3,1.04-1.27,.87-1.59-.32-.62-1.12-1.4-1.72-1.39-1.45,.02-2.89,.45-4.35,.72h.01Zm-33.24-58.49l-.71,.09v19.08h.56c0-1.91-.01-3.84,0-5.77,0-.41,.1-1.16,.2-1.17,2.09-.2,.82-1.73,.61-2.17-1.39-2.89-1.56-5.77-.52-8.77,.13-.37-.09-.85-.15-1.28h.01Zm11.35,60.22l.34,.02c2.25-6.69,4.51-13.39,6.76-20.08-.53,.65-.89,1.4-1.31,2.13-1.3,2.22-1.35,5.16-3.84,6.69-.07,.04-.07,.21-.09,.3l1.07-.19c-1,3.82-1.96,7.48-2.92,11.14h-.01Zm-10.57,5.69l-1.64,.79,1.26,2.01,.37-.22-.36-1.6c2.63,1.54,3.71,4.68,6.64,5.67-.21-2.49-2.34-3.02-3.55-4.38-3-3.39-2.89-3.49-4.18-3.52l1.46,1.24h0Zm.16-98.68c2.81,.14,3.23-.93,2.3-5.31-1.78-.52-2.48,.15-2.32,1.97,.1,1.06,.02,2.13,.02,3.34Zm-39.87,37.77c.72-1.21-.34-3.34-1.86-3.39-1.98-.07-3.97-.02-5.95-.02l-.02,.26,7.84,3.15h0Zm-31.45,36.6l-.57,.33c2.46,4.35,4.92,8.7,7.46,13.19,.65-1.97-.23-3.3-1.2-4.66-1.14-1.6-2.17-3.27-3.23-4.93-.83-1.3-1.64-2.62-2.46-3.93Zm70.09-18.52c-.71,.62-1.2,.85-1.19,1.06,.07,2.85,.29,5.69,.28,8.54,0,1.02-.54,2.04-.94,3.42l1.86,1.83v-14.86h0Zm-2.71,20.84c-1.07-.05-2.14-.12-3.21-.16-3.61-.13-4.13-.57-4.71-3.99,0-.05-.2-.07-.56-.2-.13,2.49-.26,4.88-.38,7.19,1.38-.09,1.46-.33,.58-3.42,2.76,1.35,5.52,1.63,8.28,.58Zm-74.75,5.17c-2.87-1.78-7.63,.41-8.01,3.02l8.01-3.02Zm18.53-.89c1.04,.18,2.08,.49,3.12,.51,.71,.01,1.75-.15,2.07-.62,.68-1.01-.52-1-1.04-1.46-.48-.42-.52-1.34-.75-2.04,.65,0,1.31-.01,1.96,.03,.18,.01,.35,.22,.52,.34l.34-.46c-.53-.36-1.2-1.13-1.57-1.01-.76,.25-1.83,.9-1.94,1.53-.28,1.66-1.35,2.28-2.7,3.16v.02h0Zm46.17-25.06c3.27,3.89,6.33,7.53,9.39,11.16-1.59-2.79-3.5-5.35-5.36-7.94-.56-.78-.95-1.67-1.53-2.7l-2.5-.52Zm10.75,41.28c.69-1.33,.45-2.26-.53-2.81-1.34-.75-4.18-.13-5.23,1.3,2.04,1.25,4.07,2.5,6.1,3.74l.48-.67c-1.59-1.01-3.18-2.01-4.94-3.13,2.77-1.16,3.55-.86,4.12,1.57Zm20.51-6.31c3.85-.23,7.73-.46,11.6-.72,.65-.04,1.29-.25,1.93-.38-3.68-.37-7.21-.4-10.74-.36-1.26,.02-2.58,.11-2.78,1.46h0ZM53.07,66.27l.34,.46,2.93-1.38c-4.2-2.03-6.03-1.31-7.12,2.63,1.7-1.19,3.09-2.17,4.48-3.14l.21,.29-.83,1.13h0Zm44.68,32.66l3.26-1.05,.36,.67c-1.35,.87-2.69,1.73-4.15,2.67l1.72,2.53c.53-.59,1.26-1.19,1.17-1.36-.27-.52-.85-.87-1.32-1.3,.97-1.2,3.89-1.25,2.92-4.08-3.23,.47-3.62,.66-3.96,1.92h0Zm-5.42-2.39l.22-.15c-1.56-2.16-3.12-4.32-4.87-6.75-.26,1.3-.73,2.28-.54,3.1,.21,.9,1.05,1.64,1.79,2.73l.11-1.9,3.29,2.97Zm-25.48-24.56l2.26,.45-1.51-2.34c-2.31,1.6-4.29,2.97-6.24,4.31,1.37,.89,2.17,.54,5.5-2.42h-.01Zm21.53-2.62c-.3-1.22-.24-2.47-.78-2.85-.84-.59-2.09-.59-3.28-.87,.13,2.71,.19,2.76,4.06,3.72Zm9.68,35.58c-.63-.79-1.22-1.42-1.67-2.12-.52-.81-.8-1.79-1.4-2.52-.41-.49-1.19-.67-1.81-.99,.19,.54,.37,1.08,.55,1.63,.04,.11,.04,.23,.05,.35,.17,1.75,2.15,3.48,4.27,3.66h0Zm29.63-9.52c.02,.07,.03,.2,.07,.21,2.01,.54,4.06,1.87,5.92-.32-1.22-1.83-1.7-1.82-5.99,.11Zm-43.53-56.27c1.02-.3,2.06-.55,3.05-.92,.34-.13,.56-.58,.83-.88-.41-.19-.81-.53-1.22-.55-.85-.03-1.71,.12-2.8,.21l.6-4.33c-1.33,2.5-1.41,4.78-.46,6.46h0ZM17.1,99h-.27c-.01,1.12-.01,2.25-.01,3.25,2.28,.99,3.11-.53,4.12-1.81-.85-.23-1.66-.44-2.53-.67v-1.11l-.32-.04-.4,2.1-.44-.02c-.05-.57-.1-1.14-.14-1.7h0ZM92.53,63.27l.54-.56c-2.75-2.41-5.5-4.81-8.25-7.22l-.52,.58c2.74,2.4,5.49,4.8,8.23,7.21h0Zm3.57,10.18c1.46,2.14,2.9,4.26,4.34,6.38l.76-.32c-2.84-1.97-2.03-4.78-1.82-7.68l-1.61,2.87-1.67-1.25Zm-16.06,32l.12,.38h6.04l.09-.67c-1.02-.5-2.03-1-3-1.48l-3.25,1.77Zm19.11-41.81l.8,.17c.29-.68,.88-1.41,.79-2.04-.14-1-3.07-2-4.43-1.64l1.33,2.28,1.68-1.52-.16,2.75h-.01Zm6.17-59.52l-2.51,.95c.35,.83,.59,1.74,1.1,2.45,.26,.36,1.02,.37,1.72,.59l-.31-3.99Zm-.45,96.97c1.09-3.46,2.13-6.76,3.18-10.06l-.32-.1c-1.28,3.43-2.55,6.85-3.87,10.38l1.81,.94,.21-.37-1.01-.8h0Zm-20.67,7.25l-2.92-1.41-.17,.32,1.14,.97c-.8,.06-1.29,.09-1.77,.15-.47,.05-.94,.13-1.43,.2,.61,1.47,3.15,1.33,5.15-.22h0Zm-20.46-32.04l-3.51-.5c.43,1.09,.61,2.44,1.09,2.57,1.6,.4,1.95-1.05,2.42-2.07Zm-14.18-2.24c1.85,1.73,3.65,1.49,5.15-.58l-5.15,.58Zm38.13-9c-.97-3.02-2.21-4.33-3.74-3.94l2.16,.85-.35,.15,1.92,2.95h0Zm-16.45,26.33l-.47-.45c-2.3,2.16-4.59,4.33-6.89,6.49l.43,.45c2.31-2.16,4.61-4.33,6.92-6.49h.01Zm67.58,4.65l4.16-2.69c-1.93,.33-3.48-.46-4.69,.97l1.64-.13-1.11,1.85Zm-17.14,5.8c.85-1.24,1.7-2.48,2.72-3.95-2.48,.42-3.02,1.16-2.72,3.95Zm11.31-28.63l-.28,.02v7.73l.28-.03v-7.73h0Zm-55.35,22.42c.98,1.35,1.89,2.59,3.02,4.14,.07-2.86-.85-4.04-3.02-4.14ZM120.96,5.73l-3.59-1.04c.82,2.75,1.41,2.9,3.59,1.04Zm13.98,93.73c-1.8,.45-2.18,1.97-.7,3.98,.22-1.27,.45-2.54,.7-3.98Zm-27.77-11.93c0-1.33-.05-2.44,.01-3.54,.06-1.01,.23-2.01,.36-3.01l-.64-.03c.02,2.12-1.82,4.27,.27,6.57h0Zm14.5,17.74c-1.12-2.06-2.04-1.96-4.21,.22,1.49-.08,2.7-.14,4.21-.22Zm18.63-22.57l-.82-.37c-.85,1.67-1.71,3.33-2.56,5l.52,.27c.95-1.63,1.91-3.27,2.86-4.9Zm-89.41,7.81l-.09-.41-2.05,.32c-.17-.25-.32-.67-.61-.84-.36-.2-.84-.19-1.27-.27,0,.39-.14,.98,.06,1.14,.48,.39,1.12,.82,1.68,.8,.77-.03,1.52-.47,2.28-.74Zm12.67,11.38c-2.94-.39-3.15-.14-2.67,2.91l2.67-2.91Zm52.27-30.49l.56-.23-2.24-5.22-.48,.19c.72,1.75,1.44,3.51,2.16,5.26Zm-6,13.49l-1.89-2.44c.1,1.72,.18,2.96,.25,4.2l.47,.04,1.17-1.8Zm-19.17-47.16l.64,.02c-.05-.71,.15-1.63-.22-2.07-.6-.71-1.57-1.1-2.39-1.63l-.7,1.34c3.11-1.14,1.95,1.44,2.66,2.34h0Zm-36.35,41.36l.57,.06c.09-.95,.23-1.89,.21-2.84,0-.11-.92-.19-1.54-.31l.75,3.1h.01Zm-33.56,15.54h-.54c-.34,1.29-1.65,2.43-.71,3.9l.61,.1,.64-3.99h0Zm11.78-21.05l-.69,1.01c2.41-.35,2.08,1.5,2.99,2.53,.13-.93,.12-1.91-.34-2.57-.37-.52-1.29-.66-1.96-.97Zm56.25-31.25v4.01c1.95-2.39,1.98-2.93,0-4.01ZM16.14,99.07l-.57-.54c-.49,.64-1.08,1.24-1.41,1.96-.15,.31,.24,.87,.38,1.32l1.56-.76-1.27-.87,1.31-1.11Zm44.65,9.72l.28,.79,2.77-.2c-.74-.82-1.15-1.62-1.54-1.61-.51,0-1.01,.66-1.51,1.03h0Zm48.2-30.82c-.12-2.41-.24-4.76-.34-6.6,.37,1.85-1.42,4.33,.34,6.6Zm-31.98-31.31l-.58-.27-1.83,1.68,.21,.52c.54-.04,1.29,.12,1.57-.17,.39-.41,.43-1.15,.63-1.75h0Zm65.41,45.25l-.07-.64-4.4,.73,.07,.49,4.4-.59h0Zm-9.96-41.23h-.11v6.15h.52c-.14-2.06-.27-4.1-.41-6.15Zm-51.46-4.6c-2.49,.08-2.61,.23-2.03,2.04l2.03-2.04Zm6.53,58.32l1.21-1.54-2.75-.62-.26,.52,1.8,1.65h0Zm3.26-63.9l.56,.89,.46-.31-1.32-1.77c-.38,.34-.83,.64-1.1,1.06-.09,.14,.25,.58,.44,.96l.95-.83h.01Z" fill="#41463d"/><path d="M87.45,116.31l.81,1.79c2.33-1.6,4.32-3.2,6.54-4.37,.77-.41,2.11,.25,3.18,.42l-.04,.57h-3.45v.34c1.62,.65,3.25,1.3,4.85,1.94-.78,.78-4.6,.33-6.52-.62-1.15,.68-2.02,1.16-2.86,1.7-.86,.54-1.68,1.13-2.43,1.92,.8-.17,1.6-.43,2.41-.5,1.82-.18,2.93,.84,3.75,2.35,.15,.29,.67,.36,.97,.59,.33,.25,.61,.56,.91,.85l-.32,.59c-1.03-.29-2.05-.57-3.27-.91l.34,1.06-2.4,.79c.71-.85,1.16-1.38,1.66-1.98-1.83,.18-3.4,.3-4.96,.53-.31,.05-.54,.53-.81,.82,.38,.2,.79,.61,1.14,.57,.83-.09,1.63-.4,2.85-.74-1.53,2.99-1.91,3.17-3.52,1.99-.1,2.35-1.15,1.59-2.26,.59-.93,1.02-1.84,2.15-3.55,.83,1.31-.55,2.53-.97,3.65-1.58,.45-.25,.67-.92,.99-1.39-.65-.21-1.43-.76-1.92-.57-1.81,.71-3.53,1.66-5.65,2.7l1.87-2.16-2.81-1.21,5.04,.37-.9-2.21c-1.48,.21-2.95,.43-4.68,.68,.93-2.82,3.7-2.23,5.76-3.47l-.45,1.23,2.73-.34-2.09-2.96c-2.32,.99-4.85,2.07-7.41,3.16,.06-2.12,2.86-5.04,7.15-6.85,1.38-.58,3.21-.09,5.26-.09-1.03,1.37-1.37,2.23-1.03,2.6-1.02-.28-2.03-.57-3.45-.98l-2.33,1.76,.21,.37,2.68-.96c-.65,2.66,1.86,2.79,2.94,4.01,.16,.19,1.31-.5,2-.78l-.58-.28v-2.17h0Z" fill="#41463d"/><path d="M10.92,101.35c.04,.25,0,.56,.14,.73,.34,.41,.75,.76,1.14,1.14-.63,.12-1.27,.31-1.9,.33-1.79,.05-3.59,.02-5.46,.02,.58-1.92,0-2.75-1.59-2.89-1.1-.1-2.21-.19-3.25-.28l3.13-4.89,.83,1.91,.71,.06c.35-1,.88-1.99,1-3.02,.15-1.31-.08-2.66-.08-4,0-.54,.2-1.07,.34-1.78,0,2.43-.35,4.68,.1,6.77,.42,1.98,1.67,3.78,2.7,5.95h2.26l-.05-.05h-.02Z" fill="#41463d"/><path d="M144.72,109.67c-1.15,.53-2.3,1.06-3.74,1.72l.4-1.35-.24-.49c-1.26,.68-2.51,1.36-3.77,2.03-1.27-2.07-2.87,.78-4.37-.33-1.2-.89-2.73-1.34-4.1-1.98,1.54-1.26,3.07-1.72,5.32-1.75,2.3-.04,3.78,1.16,5.68,1.54,1.1,.22,2.28,.06,3.42,.07h1.3l.1,.53h0Z" fill="#41463d"/><path d="M137.22,104.07c1.01,.07,2.01,.14,3.02,.2,.19,.01,.43-.12,.56-.04,2.23,1.25,4.44,2.52,6.65,3.79,.04,.02,.04,.11,.1,.33-2.06,1.32-4.09,.07-6.11-.17l2.53-.15,.13-.57c-1.25-.39-2.48-.86-3.75-1.17-1.38-.34-2.69-.66-3.08-2.3l-.05,.06v.02Z" fill="#41463d"/><path d="M40.21,110.99c-1.86,.81-3.45,2.43-5.73,2.01-.35-.06-.65-.46-.97-.7l-.03,.05c1.81-.16,3.18-.78,2.98-2.68l5.31-2.1,.1,.15-1.94,1.57,.03-.04c.06,.6,.13,1.19,.19,1.79l.06-.06h0Z" fill="#41463d"/><path d="M33.52,112.31c-1.33-.67-2.56-1.83-4.24-.88-.11,.06-.44-.16-.58-.32-.12-.14-.12-.39,.2-.68l-2.31-1.83,.23-.45c1.22,.6,2.39,1.43,3.68,1.73,1.06,.24,2.26-.17,3.48-.3-.12,.71-.3,1.74-.48,2.78l.03-.04h-.01Z" fill="#41463d"/><path d="M57.19,118.87c-1.41,1.37-5.1,1.34-6.94,.25l2.08-.25-1.3-2.71,.48-.36,1.82,2.48,.41-1.24c.47,.84,.72,1.83,1.36,2.26,.41,.28,1.38-.25,2.1-.42h-.01Z" fill="#41463d"/><path d="M40.61,74.18c1.56-2.38,2.96-4.91,6.09-6.15l-.97,3.37-1.2-1.66c-.55,1.05-.93,2-1.5,2.81-.55,.77-1.3,1.4-1.96,2.09l-.45-.46h0Z" fill="#41463d"/><path d="M31.54,109.08c-.78-.26-1.64-.45-2.4-.83-.63-.32-1.28-.77-1.67-1.33-.32-.47-.28-1.2-.4-1.81l1.66-.28,.44,2.74c1.61,.07,2.39,.58,2.36,1.51h0Z" fill="#41463d"/><path d="M103.03,118.3l2.28-.27-.2-.43c.8-.39,1.6-1.05,2.41-1.07,.42-.01,.87,1.11,1.3,1.72l-.32,.59h-5.44l-.03-.54Z" fill="#41463d"/><path d="M67.89,113.74c.45-.65,.83-1.2,1.2-1.75,1.11,2.21,1.52,2.36,2.56,.81l.22,1.75c-2.03,2.05-3.02,0-3.98-.81Z" fill="#41463d"/><path d="M92.42,114.13l-2.69-1.51c.5-.68,.47-2.25,1.69-1.71,.8,.35,1.18,1.65,1.75,2.52l-.75,.7Z" fill="#41463d"/><path d="M39.93,109.3c.59-.2,1.26-.29,1.76-.62,.53-.35,.9-.93,1.34-1.41l-.26-.51,2.76,.57c-.54,.49-.84,.89-1.24,1.11-.83,.45-1.8,.69-2.54,1.24-.9,.67-1.31,.24-1.78-.42l-.04,.04Z" fill="#41463d"/><path d="M139.14,99.93c.16,1.1,.36,2.21,.46,3.32,.02,.17-.39,.5-.62,.52-.24,.02-.69-.24-.71-.41-.12-1.12-.14-2.24-.2-3.37l1.08-.06h-.01Z" fill="#41463d"/><path d="M106.43,1.3l-8.11,1.54-.08-.46c2.78-.1,5.17-2.31,8.2-1.07h0Z" fill="#41463d"/><path d="M60.47,115.07c-1.14,.12-2.16,.26-3.18,.32-.3,.02-.61-.2-.91-.31,.16-.36,.29-1,.5-1.03,.99-.12,2.2-1.25,2.92,.48,.12,.28,.54,.44,.68,.54h-.01Z" fill="#41463d"/><path d="M72.84,124.05l-1.25-1.5,3.14-.56-2.36,3.42-.51-.41,.99-.94h0Z" fill="#41463d"/><path d="M87.46,108.97l1.86,.91c-.69,.56-1.33,1.16-2.05,1.65-.23,.16-.66,.04-1,.04,.18-.29,.41-.56,.54-.87,.26-.58,.46-1.19,.69-1.79l-.04,.04v.02Z" fill="#41463d"/><path d="M64.87,55.41l.8,7.12c-2.47-2.29-.18-4.98-1.68-6.97l.87-.16h0Z" fill="#41463d"/><path d="M151.81,101.46c.58-1.8,1.51,.21,2.29-.29l-.27-.87,.41-.29,.91,1.33c-.56,.27-1.12,.74-1.68,.75s-1.14-.44-1.71-.69l.05,.06Z" fill="#41463d"/></g></g></g></g></svg>