<?xml version="1.0" encoding="utf-8"?>
<!-- Generator: Adobe Illustrator 26.3.1, SVG Export Plug-In . SVG Version: 6.00 Build 0)  -->
<svg version="1.1" id="b" xmlns="http://www.w3.org/2000/svg" xmlns:xlink="http://www.w3.org/1999/xlink" x="0px" y="0px"
	 viewBox="0 0 44.1 28" style="enable-background:new 0 0 44.1 28;" xml:space="preserve">
<style type="text/css">
	.st0{fill:#E4D6A7;}
	.st1{fill:#41463D;}
</style>
<path class="st0" d="M0.4,20.7l0.5-2.1L7.1,16l-0.2-4.5l2.7-1.1l1.9,0.9l3.6-1.4l0.2-2.3c2.7,0,2.9-2.6,2.4-5.9l1.5-0.2
	c0,0-0.4,6,0.7,6.2s2.1-5,2.5-5.8S23,7.6,23,7.6l1.1-1L23.8,1l0.9-0.1v5.4L27.9,5l3.9-0.6L37,5.9L36.8,15L11.9,25.3L0.4,20.7z"/>
<g id="c">
	<g id="d">
		<g id="e">
			<g>
				<path class="st1" d="M7.8,21l-0.7,0.1l0.1-0.2l-0.6,0v-0.4l0.5,0.2l0.3-1l-0.4-0.2c-0.2,0.3-0.2,0.7-0.6,0.9l0.1,0.1l-0.3,0.2
					l-0.1-0.2l-0.9,0.8l-0.2-0.5C5,21.3,5,21.3,5.5,21.4c0.2,0,0.4,0.1,0.6,0.2L6,21.9c0.2-0.2,0.7,0.1,0.5-0.6l0.2,0.2v0.6l0,0
					L6.3,22l-0.2,0.6h0.2l-0.2,0.2c-0.1-0.1-0.2-0.2-0.4-0.3c-0.1-0.1-0.3,0-0.5-0.1c0-0.2-0.1-0.2-0.7-0.6C4.3,22,4.1,22,3.9,22
					l0,0l0.2-1.1L3.4,21C3.8,20.6,3.5,20,4,19.6c0,0,0-0.2,0-0.2v-0.5l0.1,0l0.3,0.5c0-0.6,0.3-1.1,0-1.6l-0.4,0l0,0
					c0.1-0.1,0.6-0.1,0.3-0.5l0,0c0.1,0,0.1,0,0.2,0c0.3,0,0.6,0.1,0.9,0.1c-0.1,0.5-0.4,0.1-0.6,0.2V20l0.2,0l0.3-2.3h0.1l-0.1,1.6
					c0.4-0.3,0.1-0.8,0.3-1.2V19h0.1l0.2-0.6L5.8,19l0.7,0c0-0.8,0-1.6,0-2.4c0-0.1,0.1-0.3,0.2-0.3c0.7-0.1,0.7-0.1,1.1-0.6
					c-0.1,0.1-0.2,0.1-0.4,0.2C7.3,16,7.2,16.1,7,16.2v-3.1c0.3-0.1,0.7-0.2,1-0.3c0.1,0,0.2-0.2,0.3-0.3c0-0.1,0-0.2,0-0.4l0,0
					l0.5-0.3c-0.3,0.5-0.2,0.7,0.4,0.8c0.1,0,0.3,0,0.4-0.1c0.3-0.2,0.7-0.4,1-0.5l0-0.1c-0.4-0.1-0.8-0.3-1.2-0.4l0.2-0.3l0.5,0.1
					v-0.6h0l1,0.5l-0.2-0.3l0.7,0.2l0.1-0.1l-0.1,0.2l0,0.1c0.6-0.2,1.1-0.5,1.7-0.7c0.6-0.2,1.2-0.5,1.7-0.7V7.7
					c0.2,0.2,0.4,0.3,0.6,0.4c1.2,0.5,2.4,1,3.5,1.6c0.6,0.3,1.2,0.6,1.8,0.8l0.1-0.1l-0.2-0.7c0,0,0,0,0.1,0c0-0.4-0.5-0.8-0.9-0.7
					c-0.2,0.1-0.4,0-0.6,0.1l0-0.1l0.4,0c-0.5-0.5-1-0.1-1.4-0.1V8.8l1.5-0.2c-0.1-0.1-0.1-0.1-0.2-0.2c-0.4-0.1-0.8,0-1.2,0.2
					c-0.2,0.1-0.4,0-0.6,0c-0.4,0-0.3-0.3-0.3-0.5c0-0.1-0.1-0.2-0.2-0.2h0l0.1-0.8L16.8,7l0.4-0.2l-1-0.8c0.1-0.1,0.2-0.2,0.3-0.2
					c0,0.1,0,0.2,0.1,0.2c0.3,0.2,0.6,0.4,0.9,0.6c0,0-0.1,0.1-0.1,0.1c0.3,0.2,0.5,0.5,1,0.4l-0.9-0.5l-0.2-0.4
					c0.2,0,0.4,0,0.6,0.3c0.1,0.2,0.4,0.3,0.6,0.4L18.3,6l-0.3,0.1c-0.1-0.1-0.3-0.3-0.4-0.5c-0.1-0.3,0-0.7,0-1
					c0-0.4,0.1-0.9,0.1-1.3c0-0.4,0.1-0.6,0.3-0.8c0.2-0.1,0.5,0.3,0.6,0.7l-0.8,0v0.5h0.1c0,0,0-0.1,0.1-0.2
					c0.1-0.1,0.2-0.2,0.3-0.2c0,0,0.1,0.2,0.2,0.3c0.1,0.1,0.2,0.2,0.2,0.4c0-0.1,0.1-0.3,0.1-0.4c0-0.3,0-0.6,0-1
					c0-0.1-0.2-0.3-0.4-0.3c-0.4,0-0.8-0.2-0.7-0.5c0.1-0.2,0.4-0.3,0.6-0.4l0.2,0.4l0.7-0.2c0.2,2-0.2,3.9,0.6,5.8c0,0,0.1,0,0.2,0
					l-0.1,0.4l0.8-0.3l-0.1,0.3l0.4,0.1L21,6.6l-0.1,0L20.8,7h0V5.9h0l0.1,0.5H21V5.5c0.3-0.1,0.5-0.1,0.5,0.3c0,0.3,0,0.6,0.1,1
					c0.2-0.1,0.5,0,0.7-0.3c0.2-0.3,0.3-0.4,0.1-0.8c-0.1-0.2,0-0.5,0-0.8c0-0.3,0-0.7,0-1C21.9,4,22,4.3,22,4.6
					c0,0.2,0,0.4-0.3,0.4c-0.2,0-0.5,0-0.5-0.4c0.1,0,0.2,0.1,0.2,0c0.1,0,0.1,0,0.2-0.1L21.8,5c0.1-0.2,0.1-0.2,0.1-0.3
					c0-0.7,0-1.4,0-2.1c0-0.1,0.1-0.3,0.1-0.4l0.3,0.3c-0.1,0.1-0.3,0.2-0.2,0.3c0,0.3-0.2,0.6,0.2,0.8c0-0.4,0.1-0.7,0.1-1.1
					c0-0.2-0.1-0.4-0.1-0.6c-0.1-0.3-0.1-0.5,0.4-0.7v4.3L23,5.3l-0.1,1.4L23,6.9l0.4-0.3l0,0.2l0.4,0v-4l0.4,0.5
					C24.2,3.4,24,3.5,24,3.7c0,1,0,1.9,0,2.9c0,0.1,0.1,0.2,0.2,0.3l0.1-0.1c0-0.9,0-1.8,0-2.8c0-0.9,0.1-1.9,0.1-2.8l-0.7-0.2
					l0-0.1l0.9-0.1v5.4c0.5-0.2,1.1-0.4,1.6-0.6c0.1,0,0.1-0.2,0.2-0.3s0-0.2,0.1-0.3l0.1,0c0,0.2,0,0.4,0,0.6h0c0-0.2,0-0.4,0-0.7
					c0-0.2,0-0.5,0.1-0.7c0-0.2,0.1-0.4,0.1-0.6l0.2,0c0.1,0.6,0.1,1.2,0.2,1.8l0.7-0.3C28,5.5,28,5.6,27.9,5.6
					c-0.1,0.1-0.2,0.1-0.4,0.1c-0.3,0.1-0.8,0.2-0.3,0.6c0,0.1,0,0.2,0,0.3l0.6-0.2l0,0.7c0.4-0.3,0.4-0.7,0-1.1
					c0.2-0.3,0.3-0.3,0.4,0.1c0,0.2,0.1,0.4,0.1,0.7l0.1-0.4l0.3,0.3c0-0.2,0-0.2-0.1-0.3c0,0,0,0,0,0c0,0,0,0,0.1,0
					c0.3,0.3,1.6,0.3,1.8,0c-0.2-0.1-0.5-0.2-0.7-0.2c-0.1,0-0.3,0-0.3,0.1c-0.1,0.3-0.3,0.2-0.5,0.1c0.1-0.5,0.4-0.6,0.8-0.6
					l-0.5-0.1c0.1-0.2,0.2-0.5,0.3-0.7c0.1,0,0.1,0,0.1,0.1c0.1,0,0.2,0.1,0.4,0.1c0-0.1-0.1-0.2-0.2-0.3c0-0.1,0-0.1,0-0.2l-0.5,0
					c0-0.2-0.1-0.3-0.1-0.5c0-0.1-0.1-0.1-0.2-0.2c0,0.1-0.1,0.2-0.1,0.2c0,0.2,0,0.3,0,0.5l-0.5,0.1c0.1,0.3,0.1,0.8,0.2,0.9
					c0.5,0.3,0.1,0.4,0,0.6c-0.1-0.2-0.2-0.3-0.4-0.5c-0.1-0.1-0.1-0.2-0.2-0.4C28.1,5.3,28,5.2,27.9,5c0-0.2,0.1-0.4,0.2-0.7
					C28.1,4.2,28,4.1,28,4c0-0.1-0.1-0.2,0-0.3c0.3-0.3,0.1-0.7,0-1c-0.1-0.3,0-0.6,0-0.9C28,1.6,28,1.4,28,1.2
					c0-0.3-0.1-0.5,0.2-0.7c0.2-0.1,0.3-0.2,0-0.4L28,0.3l-0.1-0.1C28,0.2,28,0,28.1,0c0.1,0,0.2,0,0.4,0c0,1,0,2,0,3
					c0,0.3,0,0.4,0.3,0.5C29,3.6,29.2,3.8,29.4,4V1.8c0.6,0.3,1,0,1.4-0.5h0c0.3-0.1,0.4,0.1,0.4,0.4c0,1,0,2.1,0,3.1
					c0,0.1,0,0.3,0,0.4h0.1V0.3h0.1c0,1.3,0.1,2.6,0.1,4.1c0.6-0.2,1.1-0.4,1.6-0.7c0.1-0.1,0.2-0.4,0.2-0.6c0-0.2,0-0.3,0.1-0.5
					l0.1,1l0.4-0.3c-0.6-0.2-0.1-0.4,0-0.6c0.1-0.3,0.2-0.5,0.2-0.8h0.1l0.2,0.2c0,0.1,0,0.1,0,0.1c-0.7,0.2-0.2,0.7-0.3,1
					c0,0.1,0.1,0.2,0.2,0.4l0.4-0.3c0.2,0.2,0,0.4-0.3,0.4c-0.3,0-0.4,0.2-0.3,0.5c0,0.3,0,0.7,0.1,1c0,0.1,0.1,0.2,0.2,0.3
					c0.1-0.1,0.2-0.2,0.2-0.3c0-0.2,0-0.3,0-0.5c0,0.3,0.1,0.5,0.2,0.9c0.1-0.1,0.3-0.2,0.4-0.3c0.1,0,0.1,0.1,0.2,0.1
					c0,0.1,0,0.3-0.1,0.6c0.3-0.1,0.6-0.2,0.8-0.3c0,0,0-0.2,0-0.3h0c0-0.3,0-0.7,0-1.1c0-0.1,0.1-0.2,0.2-0.3
					c0.1,0.1,0.2,0.2,0.2,0.2c0.1,0.2,0.1,0.4,0.2,0.7c0,0.3-0.1,0.6,0.3,0.7c0,0,0,0.2,0,0.3C37,7,37,8,37,9.1
					c0.5,0.2,0.8,0.4,1.2,0.6c0,0,0.1,0.1,0.1,0.1c0,0.4,0.1,0.4,0.4,0.2c0.1-0.1,0.3,0.1,0.5,0.3c0.3-0.1,0.5-0.1,0.6,0.4
					c0,0.1,0.3,0.3,0.5,0.5v-0.5c0.2,0.4,0.5,0.5,0.8,0.4c0.2,0.2,0.3,0.5,0.5,0.7l0.1-0.1l-0.1-0.3l0.7,0.4l0.1-0.1v2.8L41.9,15
					l-0.5,0v-0.4l-0.1,0l-0.1,0.5c-0.2-0.1-0.6,0-0.7-0.5c-0.1,0.2-0.3,0.4-0.4,0.7c0-0.1,0-0.2,0-0.4c-0.4,0.3-0.8,0.4-0.9,0.9
					c0-0.5-0.1-0.6-0.6-0.6c-0.1,0-0.2-0.1-0.2-0.1c-0.1-0.1-0.1-0.1-0.2-0.2l0.1,0.4l-0.6-0.3c0,0.2,0.3,0.6-0.1,0.7l0-0.4
					c-0.1,0-0.2,0-0.2,0c0,0.1,0,0.3-0.1,0.4c-0.2,0.3-0.3,0.6-0.5,0.8c0,0-0.3-0.1-0.5-0.1L36.2,16l-0.1,0.4L36,16.3
					c0.2-0.4,0.5-0.8,0.8-1.3c-0.2,0.1-0.5,0.4-0.8,0.9c0-0.1-0.1-0.1-0.2-0.2c0-0.1,0-0.1-0.1-0.3c0,0.3-0.4,0.2-0.3,0.5
					c0,0-0.1,0.1-0.1,0.1s-0.1-0.1-0.1-0.1c0-0.1-0.1-0.2-0.1-0.4c-0.3,0.1-0.2,0.1-0.1,0.4c0.1,0.2,0,0.3,0.1,0.5c-0.4,0-0.7,0-1,0
					c-0.1,0-0.2-0.2-0.3-0.3c0.1,0.5,0,0.8-0.5,0.9c-0.1,0,0,0.2-0.1,0.5c0.2-0.3,0.3-0.7,0.7-0.4l0.2-0.4c0,0,0.1,0.1,0.1,0.1
					c-0.1,0.1-0.2,0.3-0.3,0.4c-0.1,0.1-0.2,0.1-0.3,0.2c-0.1,0-0.3,0-0.4,0.1c-0.2,0.1-0.5,0.3-0.8,0.1c0,0-0.1,0-0.1,0.1
					c-0.1,0.2-0.3,0.3-0.6,0.3c-0.6,0-0.8,0.1-1,0.5l-0.1-0.2l0.4-0.4L29.7,18l-0.1,0.4c-0.1-0.2-0.1-0.4-0.2-0.4
					c-0.5-0.1-0.7,0.2-0.8,0.6c-0.2-0.1-0.4-0.2-0.6-0.3l-0.1,0.1l0.3,0.1l0,0.1l-0.5,0.2l0-0.1l0.5-0.1c-0.2-0.1-0.3-0.2-0.4-0.2
					c-0.2,0-0.5,0.1-0.7,0.2c-0.1,0-0.2,0.1-0.2,0.1c0.1,0.2-0.1,0.4-0.2,0.3c-0.3-0.2-0.8,0.3-0.9-0.3c0.4-0.2,0.5-0.6,0.4-1
					c0.2,0.3,0.5-0.8,0.7,0.1c-0.1-0.2-0.1-0.5-0.3-0.6c-0.2-0.2-0.4-0.1-0.6,0c-0.3,0.1-0.2,0.3-0.2,0.5c0.1,0.2,0.1,0.5,0.2,0.8
					l-0.6-0.3l0,0c0.3-0.3,0.1-0.5-0.2-0.6c0,0.1,0,0.2,0.1,0.3c0,0,0,0,0,0c-0.3-0.1-0.6-0.2-0.9-0.3l0.5-0.2l-0.6-0.3
					c0.1,0.3-0.1,0.6-0.6,0.9c-0.7,0.5,0,0,0,0c0-0.1,0-0.2,0-0.1l-0.5-0.1c-0.1,0.3-0.3,0.6-0.4,0.8c0,0-0.2,0-0.3-0.1
					c0.5-0.1,0.3-0.4,0.4-0.7l-1,1c0.2,0,0.5-0.1,0.7,0c0.5,0.3,0.6-0.1,0.9-0.5l0.6,0.6l-1,0.2l0.2,0.2l-1-0.4
					c-0.3,0.5-0.7,0.5-1.3,0.1l0.8-0.1l0-0.1c-0.2,0-0.4-0.1-0.5-0.1c-0.3,0.1-0.6,0.2-0.9,0.4c0,0,0,0.2,0,0.3
					c-0.1-0.1-0.2-0.1-0.3-0.2c0.3-0.3,0.1-0.9-0.2-1c-0.1,0.4-0.1,0.7,0.3,1l-0.7,0.3l0.2-0.9l-0.2,0.1l-0.1-0.9H19l-0.1,1.3h-0.1
					l-0.1-0.5h-0.1l-0.1,0.7c-0.3,0-0.5,0.2-0.4,0.7l-0.6-0.5l0.1-0.1l0.3,0.1c0-0.1,0-0.2,0-0.2c-0.5-0.3-0.2-0.8-0.3-1.2
					c0-0.4-0.1-0.4-0.5-0.6c0,1.2,0.1,2.4,0.1,3.6h0.1c0-0.2,0-0.4,0-0.5c0-0.1,0-0.4,0.1-0.4c0.1-0.1,0.3,0,0.4,0
					c0.1,0,0.3,0.1,0.5,0.1c0.1,0.1,0.3,0.2,0.4,0.3v-0.9c0.2,0.5-0.1,1.2,0.7,1.5l0.1-0.4c0.3,0.1,0.3,0.7,0.9,0.4l-0.3,0.4h0
					l-0.5-0.2l-0.1,0.2l0.4,0.2v0c-0.2,0-0.4-0.1-0.7-0.2c-0.2,0.5-0.7,0.2-1.1,0.4l0.2,0.3L18,22.4l-0.5-0.4l-0.1,0.5
					c-0.3-0.2-0.4-0.7-1-0.6c0.3,0.1,0.7,0.3,0.4,0.7c-0.2,0-0.5,0-0.6-0.1c-0.3-0.1-0.4,0-0.4,0.3c-0.1-0.5-0.6-0.8-0.1-1.4
					c-0.4,0.1-0.4,0.1-0.3,1c0,0.4,0.1,0.7,0.1,1.1l-0.3-0.8l-0.1,0l0.2,0.4L14.7,23c-0.3,0.1-0.1,0.4-0.1,0.6
					c0,0.2,0.1,0.5,0.1,0.7l-0.1,0.1L14.4,24l-0.2,0.2l-0.1-0.1l0.3-0.3c-0.3,0-0.6,0-0.5,0.4c0,0.1-0.2,0.2-0.2,0.2
					c-0.4-0.2-0.5,0.1-0.7,0.2c-0.2,0-0.4,0-0.6,0.1c-0.1,0-0.1,0.3-0.2,0.4c-0.1,0.1-0.2,0.2-0.2,0.2c-0.4,0-0.9,0.1-1.1-0.1
					c-0.5-0.4-0.9-0.2-1.4,0.1l0-0.1l0.4-0.2l-0.4-0.2l0.7-0.2l0-0.1c-0.3,0.1-0.6,0.3-0.9,0.3c-0.2,0-0.4,0-0.7,0
					c0.3-0.1,0.6-0.2,0.9-0.3l-1-0.7l0.1-0.1c0.9,0.6,2,0.7,3,0.8c0.3,0,0.6-0.2,0.8-0.4l-0.1-0.1c-0.1,0.1-0.3,0.1-0.4,0.2
					c-0.2,0.2-0.4,0.2-0.6,0.1c-0.5-0.4-1.1-0.1-1.7-0.4c-0.2-0.1-0.5-0.1-0.7-0.2c-0.4-0.2-0.4-0.7-0.1-1c0.5-0.5,1-1,1.5-1.6
					c0.4-0.6,0.8-1.2,1.2-1.8h-0.5l0-0.1l-0.4,0.4c-0.1-0.1-0.4-0.2-0.4-0.4c0-0.3,0.1-0.7,0.1-1c0-0.2,0.1-0.4,0.2-0.6
					c0.3,0.3-0.1,0.7,0,1c0.3-0.1,0.4-0.4,0.4-0.7c0-0.4,0-0.7-0.1-1.1c0-0.2-0.1-0.3-0.2-0.5c-0.2,0.1-0.4,0.3-0.5,0.5
					c-0.1,0.2-0.2,0.5-0.3,0.7c0,0,0.1,0,0.1-0.1l0.1,0.1l-0.5,0.4c0.1,0,0.1,0,0.1,0c0,0.2-0.1,0.5,0,0.7c0.1,0.2,0,0.4-0.1,0.6h0
					c-0.1,0-0.2,0-0.2,0c-0.4,0.4-0.7,0.8-1,1.1H7.7l0,0.2c0.4-0.1,0.8-0.2,1.2-0.4c0.1,0,0.1,0,0.2,0h0c-0.2,0.1-0.4,0.2-0.6,0.4
					c-0.1,0.1-0.3,0.2-0.1,0.4c-0.2-0.1-0.4-0.2-0.6-0.3C7.8,20.6,7.7,20.8,7.8,21L7.8,21L7.8,21L7.8,21z M16.5,15
					c0.3,0,0.6-0.4,0.9-0.1c0,0,0.1-0.1,0.2-0.1c-0.1-0.1-0.1-0.2-0.2-0.2c-0.1-0.1-0.3-0.1-0.4-0.1l-0.5,0.2l0.4-0.5
					c-0.3-0.3-1.4-0.1-1.6,0.4c0.4,0,0.6,0.2,0.5,0.5c0.2-0.1,0.5-0.2,0.7-0.4C16.5,14.9,16.5,15,16.5,15l-0.2,0
					c0.1,0.1,0.1,0.3,0.2,0.3c0.2,0.1,0.4,0,0.5,0c0,0,0.1-0.2,0.1-0.4l-0.6,0.4L16.5,15L16.5,15L16.5,15z M31.5,13.6
					c-0.2,0-0.3-0.1-0.5-0.1c-0.4,0-0.7,0-1.1,0c-0.1,0-0.2,0.1-0.2,0.2c0.1,0.1,0.1,0.2,0.2,0.2C30.5,14.1,31,13.8,31.5,13.6
					l0.9-0.2c-1-0.4-1.5-0.4-1.9-0.1L31.5,13.6z M12.1,18.8c-0.4,0.3-0.6,0.8-0.9,1.2l0.1,0.1l0.8-0.3L12,20.1l0.6-0.4
					C12.4,19.4,12.3,19.1,12.1,18.8c0.2,0.1,0.3,0.4,0.6,0.1c0,0,0.2,0.1,0.3,0.2c0.1,0.1,0.2,0.1,0.2,0.2l0.1-0.1l-0.8-0.9
					c-0.1,0.1-0.1,0.2,0,0.2c0,0.1,0.1,0.2,0.1,0.3c-0.1,0-0.2,0-0.4,0C12.2,18.7,12.2,18.8,12.1,18.8z M20,12.4l-0.6-0.2v0
					c0.8,0.4,1.6,0.9,2.3,1.3c-0.2-0.5-0.4-0.7-1.2-0.9l0.4,0c0-0.5,0-0.9,0-1.3c0-0.5-0.2-0.8-0.7-0.8c0,0.2,0,0.3,0,0.5
					C20.1,11.5,20,12,20,12.4C20,12.4,20,12.4,20,12.4z M15.5,10.6c-0.4,0-0.4,0.2-0.5,0.5c0,0.5,0,1,0,1.4v1.1l0.2,0.1
					c0.1-0.1,0.2-0.3,0.2-0.4c0-0.5,0-1.1,0-1.6C15.4,11.4,15.5,11,15.5,10.6l0,3.1c0.2-0.2,0.5-0.4,0.6-0.5c0-0.9,0-1.8,0-2.7
					C15.9,10.5,15.7,10.6,15.5,10.6L15.5,10.6L15.5,10.6z M40.2,13.7c-0.1,0-0.2-0.1-0.2-0.1c-0.3,0.2-0.6,0.1-1,0
					c-0.1,0-0.3,0.1-0.4,0.2c0.2,0.1,0.4,0.1,0.5,0.1c0.2,0,0.3,0,0.5,0.1c-0.1,0.1-0.2,0.1-0.3,0.2c-0.1,0-0.2,0.1-0.3,0.2
					c-0.3,0.2-0.3,0.5,0,0.6l0.1-0.6c0.1,0.8,0.5,0.2,0.8,0.3l-0.2-0.3l0.2-0.1c0.3,0.4,0.7,0,1.1,0.1L40.8,14c0-0.8,0-1.6,0-2.4
					c0-0.1-0.1-0.3-0.2-0.4l-0.1,0l-0.1,0.4l0.1-0.1l-1-0.6c0,0.7,0,0.8,0.5,1.1c0.2,0.1,0.5,0.2,0.5,0.4
					C40.5,12.8,40.7,13.3,40.2,13.7L40.2,13.7L40.2,13.7z M16.9,10c-0.8-0.6-1.6-0.6-1.8-0.1C15.7,9.5,16.3,9.9,16.9,10
					C16.9,10,16.9,10,16.9,10c-0.1,0.1-0.2,0.2-0.3,0.3c-0.3,0.1-0.2,0.3,0,0.4c0.1,0.1,0.2,0.1,0.2,0.1c-0.1,0.2-0.2,0.4-0.2,0.6
					c0,0.3,0,0.5,0,0.8c0,0.4,0.2,0.6,0.6,0.6v-1.9c0.6,0.5,0.8-0.1,1.2-0.2l0-0.1l-1.1,0.3l0.1-0.3l0.2,0.1l0.1-0.1
					c-0.1-0.1-0.2-0.2-0.4-0.3C17.2,10.1,17.1,10.1,16.9,10L16.9,10L16.9,10z M9.2,14.6l0.4-0.2l-0.1-0.2c-0.1,0.1-0.3,0.1-0.3,0.2
					c-0.3,0.4-0.5,0.9-0.9,1.3c-0.4,0.4-0.5,0.9-0.5,1.4c0,0.2,0,0.4,0,0.6H7.6l0.1-1.5c-0.8,0.4-0.9,0.7-0.4,1.8l0.2-1.1
					c0.1,0.2,0.1,0.3,0.1,0.5c0,0.2,0,0.3,0,0.5c0.8-0.1,1-0.4,0.8-1.1c-0.1-0.4-0.1-0.7,0.2-1l0.1,1.4c0.2-0.5,0.3-1,0.5-1.5
					C9.2,15.3,9.4,15,9.2,14.6L9.2,14.6L9.2,14.6z M16.1,16.9c-0.1-0.4,0.2-0.5,0.5-0.7l-0.5-0.4c0.1,0,0.1,0,0.2,0
					c0.3,0.2,0.6,0.4,1,0.3c0.3,0,0.6,0.2,0.8,0.3c0,0,0,0.2,0,0.3c-1.2-0.5-1.5-0.5-1.7,0.2l1,0.3l-0.2-0.4l0.1-0.1l0.4,0.5
					l0.2-0.3l0.1,0l-0.1,0.5l0.4-0.1l-0.1-0.1c0-0.1,0-0.3,0.1-0.3c0.2-0.2,0.5-0.4,0.8-0.6c0.2-0.2,0.6-0.4,0.4-0.8l0.2-0.1
					c-0.1-0.1-0.1-0.2-0.2-0.2c-0.4-0.1-0.8-0.2-1.2-0.4c0.2-0.1,0.3-0.3,0.5-0.3c0.1,0,0.2,0.1,0.3,0.2c0.1-0.5-0.3-0.4-0.5-0.4
					L18,14.5l0.2,0.3c-0.3,0.2-0.6,0.4-0.9,0.6c-0.3,0.2-0.6,0.4-1,0.2c-0.1-0.1-0.3-0.1-0.4-0.1C15.9,16,15.7,16.5,16.1,16.9
					c-0.6-0.2-1.2,0.3-1.3,1C15.2,17.6,15.7,17.2,16.1,16.9L16.1,16.9L16.1,16.9z M10.8,22.1H9.7l0.5,0.9l0.1,0l-0.2-0.6l0.7,0.1
					c0.1,0.3,0.2,0,0.2,0c0.1,0,0.2-0.1,0.4-0.2l0.1,0.4c0.4-0.5,0.7-0.9,1-1.4l0.1,0.1l-1.4,2.2l0.1,0.1c1-1.3,1.9-2.8,2.6-4.4
					c-1.2,0.8-2.7,1.2-3.4,2.8L10.8,22.1L10.8,22.1L10.8,22.1z M10.1,13l0.3,1.9h0.1l0.1-0.6l0.4,1.2l-0.6-0.1l-0.1,0.1l0.6,0.8
					l0.4-0.2l0.1-0.4l0.1,0V16h0c0.1-0.9,0.2-1.8,0.4-2.7c0.2,0.6,0.8,0.5,1.1,0.7l-0.7-0.4v-0.1c0.2,0,0.7-0.1,0.7,0
					c0.1,0.5,0.6,0.4,1,0.6v-2.9c-0.6,0.2-1.2,0.5-1.8,0.7C12.2,12,12,12,11.9,12.1c-0.3,0.2-0.6,0.6-1.1,0.2l-0.1,0.4l-0.1-0.2
					h-0.1l-0.2,0.7l0-0.4h-0.1C10.2,12.8,10.2,12.9,10.1,13l-0.2,0.4l0-0.2H9.8l-0.1,0.4l-0.2-0.4c0,0.2-0.1,0.3-0.1,0.3L8.9,13v1.2
					c0.1-0.1,0.2-0.2,0.3-0.3c0.1-0.1,0.2-0.1,0.3-0.2C10.2,13.6,10.2,13.6,10.1,13L10.1,13L10.1,13z M32.1,6.8
					c-0.5-0.1-0.9-0.4-1.3,0.1L30.9,7l-0.5,0c0.3,0.2,0.5,0.4,0.8,0.6c-0.7,0.2-1.3,0.5-1.9,0.7l0-0.1l-1,0.3c0,0.3,0,0.7-0.5,0.5
					l0.1-0.3l0.3,0.2l0.1-0.1l-0.3-0.7c-0.3,0.3-0.5,0.6-0.7,0.9l-0.4,0.1V9l0.4-0.1c0.1-0.2,0.3-0.4,0.4-0.6
					c0.2-0.3,0.4-0.3,0.7-0.2l-0.4-0.3L28,7.4l-0.1-0.1c-0.1,0.2-0.2,0.3-0.3,0.5c-0.1,0.4-0.1,0.4-0.7,0.6c0.3-0.3,0.7-0.6,0.4-1
					l0.4,0L27.3,7l-0.2,0.4l-0.3-0.1L26.9,8c-0.2-0.2-0.4-0.3-0.6-0.2h0c0.2-0.4,0.1-0.8,0.2-1.2l-0.3-0.1l0.3-0.1l-0.1-0.2
					c-0.6,0-1.1,0.4-1.8,0.6l0.5,0l0,0.1c-0.1,0.1-0.3,0.1-0.5,0.1c-0.5,0.1-1.1,0.2-1.6,0.2c-0.1,0-0.1,0.1-0.2,0.2L23,7.6l0.4-0.2
					c-0.2,0.4-0.2,0.7,0.2,1c0.2,0.1,0.3,0.3,0.5,0.4C24.2,9,24.2,9,23.8,9.4c0,0.1-0.2,0-0.3,0c0,0,0,0,0-0.1l0.4-0.1l-1.1-0.6
					c0.1,0,0.2,0,0.3,0s0.2,0,0.3,0.1l0-0.1l-0.7-0.6V7.7l-0.1,0L22.5,8l-0.4,0.2l0.3-0.4l-0.1-0.1l-0.6,0.1v0.1L22,7.9l-0.5,0.1
					v0.1l0.4,0c-0.1,0-0.3,0.1-0.4,0.1c-0.2,1-0.1,1.3,0.4,1.2c0,0.4-0.1,0.7-0.5,0.8c-0.1,0.6,0.3,0.7,0.7,0.9
					c0.2,0.1,0.4,0.2,0.6,0.3c0.1,0.1,0.2,0.2,0.2,0.3c0,1.4,0,2.8,0,4.3c0,0.4,0,0.9,0,1.3h0.1v-0.7c0-1.6,0-3.1,0-4.7
					c0-0.3,0.1-0.5,0.4-0.6c0.4-0.1,0.8-0.3,1.1-0.4c1.7-0.7,3.3-1.4,5-2.2c1.2-0.5,2.5-1.1,3.8-1.6c0.8-0.3,1.6-0.7,2.5-1
					C36,6.2,36.2,6.1,36.3,6l-0.1-0.1l-1,0.4l0-0.1l-1-0.2c0,0.2,0.1,0.4,0,0.5c-0.1,0.1-0.3,0.2-0.5,0.3c-0.2,0.1-0.3,0-0.5,0.1
					c-0.3,0.1-0.7,0.2-1,0.3C32.1,7,32.1,6.9,32.1,6.8c0.3,0.2,0.6,0.2,1,0c0.3-0.2,0.6-0.3,0.5-0.7c-0.1-0.3-0.3-0.5-0.6-0.6
					c-0.4,0-0.8,0-1.3,0.1c-0.1,0-0.3,0.1-0.4,0c-0.3,0-0.6-0.1-0.9-0.1c-0.1,0-0.2,0.1-0.4,0.1c0.1,0.1,0.2,0.2,0.4,0.3
					c0.2,0.1,0.4,0,0.6,0L30.9,6c0.1,0.2,0.3,0.4,0.5,0.4c0.2,0.1,0.4,0,0.6,0L32.1,6.8L32.1,6.8L32.1,6.8z M31.4,10.8
					c1.5,0.5,2.6-0.1,3.8-0.6c-0.3-0.1-0.6-0.2-0.8-0.3c-0.5-0.3-1-0.2-1.4,0c-0.4,0.2-0.8,0.3-1.2,0.5c0,0-0.1,0.1-0.1,0.1l0.2,0.2
					L31.4,10.8L31.4,10.8L31.4,10.8z M26.9,13.9l0.1-0.1l-0.3-0.4l0.4-0.2l0,0.3c0.6-0.2,1.1-0.5,1.7-0.7c-0.2-0.1-0.4-0.1-0.5-0.2
					c-0.5-0.1-1-0.4-1.6-0.2c-0.7,0.1-1.3,0.5-2,0.2c0,0,0,0.1-0.1,0.1C25.5,13.2,26.2,13.5,26.9,13.9L26.9,13.9L26.9,13.9z
					 M33.9,9.1l0-0.2c-0.4-0.1-0.8-0.2-1.2-0.2c-0.6,0.1-1.1,0.4-1.6,0.7c-0.2,0.1-0.2,0.5-0.2,0.7l0.2,0.1l0.1-0.3l0.1,0.1l0.1,0.3
					c0.5-0.2,1-0.4,1.4-0.6C33.1,9.6,33.5,9.4,33.9,9.1L33.9,9.1z M26.5,16.8c0.1,0,0.1-0.1,0.2,0c0.5,0.2,0.4,0,0.4-0.4
					c0-0.4,0-0.8,0-1.1c0-0.3-0.2-0.4-0.5-0.6c-0.1-0.1-0.2-0.1-0.4-0.1c-0.1,0-0.2-0.1-0.3-0.1c-0.1,0-0.1,0.2-0.1,0.3
					c0,0.3,0,0.5,0,0.8c0,0.4,0.2,0.7,0.7,0.8L26.5,16.8L26.5,16.8L26.5,16.8z M14.3,14.1c0.2-0.1,0.6-0.3,0.6-0.4
					c0.1-0.9,0-1.8,0-2.6c-0.4-0.1-0.6-0.1-0.6,0.3C14.3,12.2,14.3,13.1,14.3,14.1C14.3,14.1,14.3,14.1,14.3,14.1z M17.9,11.1
					c-0.5,0.1-0.6,0.1-0.6,0.5c0,0.8,0.1,1.7,0.1,2.5c0,0.1,0.1,0.2,0.2,0.3l0.2-0.1V11.1L17.9,11.1z M30,7.1l-1.3-0.2
					c-0.1,0.2-0.1,0.3-0.2,0.4c-0.3,0.3-0.3,0.4,0.1,0.6c0.6,0.2,1.6,0.1,2.2-0.3l-0.4-0.3c0,0.1-0.1,0.3-0.1,0.3
					C29.8,7.6,30.3,7.1,30,7.1L30,7.1L30,7.1z M33.6,5c-0.2-0.5,0.5-1-0.1-1.3c-0.6,0.2-1.1,0.5-1.7,0.7C32.4,4.6,33,4.8,33.6,5
					L33.6,5L33.6,5z M12.6,15.9l0.1,0.1l1-0.4c-0.3-0.7-1-1.4-1.3-1.3l0.4,0.3l0,0.1l-0.4-0.1l0,0.1l0.2,0.2
					c-0.1,0.2-0.1,0.3-0.1,0.3c0.1,0.2,0.2,0.3,0.2,0.5L12.6,15.9L12.6,15.9z M19.9,12.9c-0.5,0.1-0.9,0.2-1.2,0.4
					c-0.1,0.1-0.3,0.2-0.3,0.3c0,0.1,0.2,0.3,0.3,0.3c0.5,0.2,1,0,1.3-0.4l-0.9-0.1l0-0.1l0.7-0.1L19.9,12.9L19.9,12.9L19.9,12.9z
					 M7.8,15.2v-2c-0.7,0.2-0.8,0.5-0.6,1.4c0,0.1,0.3,0.2,0.6,0.4L7.8,15.2z M14.5,16.2c-0.2,0-0.4-0.1-0.5,0
					c-0.4,0.2-0.7,0.5-1,0.8c0.1,0.1,0.2,0.1,0.2,0.2c0.1,0.1,0.1,0.2,0.2,0.3c0.1-0.1,0.3-0.1,0.4-0.3C13.9,17,14.1,16.6,14.5,16.2
					L14.5,16.2L14.5,16.2z M41.4,11.8c-0.1,0.9,0.1,1.2,0.9,1.1C42.4,12.3,42.1,11.9,41.4,11.8z M21.1,13.8c-0.6,0-0.9,0.3-0.9,0.7
					c0,0.1,0.1,0.3,0.2,0.3c0.4,0,0.9-0.3,0.8-0.6C21.3,14.1,21.2,13.9,21.1,13.8L21.1,13.8z M22.3,13.3L22.3,13.3
					c0,0.4,0,0.7,0,1.1c0,0.3,0,0.7,0,1c-0.1,0.6-0.1,1.1-0.2,1.6l0.2,0c0-0.2,0-0.4,0.1-0.6c0-0.1,0.1-0.2,0.2-0.2
					c0,0,0.1,0.1,0.2,0.2l-0.3,0c0,0.1,0.1,0.1,0.1,0.2c0,0.1,0.1,0.1,0.1,0.2l-0.3,0l0.3,0.4c0.2-0.7,0.1-1-0.2-1.4
					c-0.1-0.1-0.1-0.3-0.1-0.5C22.3,14.7,22.3,14,22.3,13.3L22.3,13.3L22.3,13.3z M8.4,13.1l-0.1-0.1C8.2,13.2,8,13.3,8,13.4
					C8,14,8,14.5,8,15c0,0.1,0,0.3,0.1,0.4h0.1C8.6,14.7,8.3,13.9,8.4,13.1L8.4,13.1z M9.5,21.9c0.3-0.1,0.6-0.2,0.9-0.3
					c0.1,0,0.1,0,0.2-0.1c0.2-0.3,0.5-0.5,0.7-0.8c0,0,0-0.1,0-0.2c-0.1,0-0.1,0-0.2,0c-0.2,0.1-0.3,0.2-0.5,0.3
					c0,0,0.1,0.1,0.1,0.2C10.1,21.1,9.8,21.6,9.5,21.9L9.5,21.9L9.5,21.9z M9,18.4c0.1-1-0.1-2.2,0.7-3.1c-0.2,0-0.3,0-0.3,0.1
					C8.9,16.4,8.9,17.4,9,18.4L9,18.4z M33.8,5.5c-0.4,0.2,0,0.7,0,1.1c0.4-0.7,0.1-1.4,0.3-2.2l-0.2,0.6l-0.2,0
					C33.6,4.9,33.8,5.5,33.8,5.5z M18.3,8.1v0.4c0.6-0.1,0.7-0.4,0.6-1.1l-0.3,1l-0.1,0l0-0.6l-0.8,0.1l0,0.4L18.3,8.1L18.3,8.1z
					 M27.3,13.9h-0.1c0,0,0,0.1,0,0.1c0,1.3,0,2.5,0,3.8c0,0.1,0.1,0.1,0.1,0.1L27.3,13.9L27.3,13.9z M38.2,10.2
					c0,0.8,0.1,0.9,0.6,1C38.9,10.8,38.7,10.4,38.2,10.2z M11.5,18.2L11.5,18.2l0.1-1h-0.1l-0.1,0.5c-0.2-0.3,0.1-0.8-0.5-1l0.1,1.3
					l0.3-0.2L11.5,18.2L11.5,18.2z M15.2,16.3l0.3,0.1l0.1-0.8c-0.7,0.2-0.8,0.6-0.5,1.1L15.2,16.3L15.2,16.3L15.2,16.3z M4.8,21.5
					c-0.1-0.2-0.1-0.4-0.2-0.6c-0.1-0.3-0.2-0.5-0.3-0.9v1.5L4.8,21.5L4.8,21.5L4.8,21.5z M6.7,18.2c0.4-0.7,0.4-1.4,0.1-1.6
					L6.7,18.2z M13.8,14.6c0.1,0.2,0.2,0.3,0.2,0.4c0.1,0.5,0.1,0.5,0.6,0.2C14.6,14.6,14.1,14.8,13.8,14.6L13.8,14.6L13.8,14.6z
					 M16.4,10.1c-0.5-0.4-0.6-0.4-1.1-0.1C15.7,10.6,16,10.1,16.4,10.1z M7.1,16c0.7-0.3,0.7-0.6,0.2-1C7.3,15,7.1,16,7.1,16z
					 M18.4,5.8l-0.3-0.2l0.1-0.4h-0.5C17.6,5.8,17.8,6,18.4,5.8L18.4,5.8L18.4,5.8z M8.6,13L8.6,13l-0.1,1.8h0.1V13z M34.2,13.6
					h-0.1c-0.1,0.6-0.1,1.3-0.2,1.9H34C34.1,14.9,34.1,14.3,34.2,13.6L34.2,13.6z M18.8,4.1h-0.1c-0.1-0.1-0.3-0.2-0.4-0.2
					c-0.1,0-0.2,0-0.2,0c0,0.1,0,0.1,0.1,0.2c0.1,0.1,0.3,0.1,0.3,0.1c0,0.2,0.1,0.3,0.3,0.3C18.8,4.4,18.8,4.2,18.8,4.1L18.8,4.1
					L18.8,4.1z M30.3,9.3l-0.2-0.5l-0.7,0.3v0.1L30.3,9.3L30.3,9.3L30.3,9.3z M21.7,17.8L21.7,17.8l0.1-2.8h-0.1V17.8z M11.9,16.1
					l0.2,0v-1.8H12C12,14.9,12,15.5,11.9,16.1L11.9,16.1z M20.9,8.2l-0.1-0.1c0,0.1-0.1,0.2-0.1,0.3c0.1,0.2-0.2,0.6,0.2,0.8
					C20.9,9.3,20.9,8.2,20.9,8.2z M15.1,10.5c-0.3-0.3-0.4-0.4-0.7-0.2c-0.1,0-0.1,0.1-0.1,0.2c0.1,0,0.2,0.1,0.2,0.1
					C14.7,10.7,14.9,10.6,15.1,10.5z M12.3,11.6c0.3,0,0.6,0,0.4-0.4h-0.6C12.1,11.2,12.3,11.6,12.3,11.6z M20.4,13.1
					c-0.1,0.5-0.1,0.5,0.4,0.5v-0.4L20.4,13.1L20.4,13.1L20.4,13.1z M20.7,17.8l-0.2,0c0,0.2,0,0.4,0,0.6c0,0,0.2,0,0.3,0L20.7,17.8
					C20.7,17.8,20.7,17.8,20.7,17.8z M16.7,18.6h-0.2l0.1,1h0.1L16.7,18.6L16.7,18.6z M28.8,13.8c-0.4,0.3-0.3,0.6-0.2,0.9
					C29,14.5,28.9,14.2,28.8,13.8z M29.5,13.6c-0.6,0.2-0.3,0.5-0.3,0.8C29.6,14.3,29.3,14,29.5,13.6z M20.4,15.3l0.8-0.3
					c0-0.1-0.1-0.2-0.1-0.2c-0.2,0.1-0.5,0.2-0.7,0.2C20.4,15.1,20.4,15.1,20.4,15.3C20.4,15.3,20.4,15.3,20.4,15.3z M13.4,11.3
					v-0.6l-0.7,0.2L13.4,11.3C13.4,11.3,13.4,11.3,13.4,11.3z M18.6,4.7c-0.3-0.1-0.4-0.2-0.6-0.2c-0.1,0-0.2,0.2-0.4,0.3L17.8,5
					L18.6,4.7z M11.1,11.4l0,0.5l0.7,0.1l0.1-0.1L11.1,11.4L11.1,11.4L11.1,11.4z M9.5,22.8c0.7,0.5,1.2,0.5,1.4,0
					C10.5,23.5,10,22.9,9.5,22.8z M29.9,3.3l0.6,0.3V2.9L29.9,3.3z M30.1,3.1l0.1,0c0-0.2,0-0.5,0-0.8l-0.4,0L30.1,3.1L30.1,3.1
					L30.1,3.1z M13.6,11.2l0.6-0.4C13.6,10.6,13.5,10.6,13.6,11.2z M22.6,14.1L22.6,14.1l0.1-1.1h-0.1V14.1z M30.3,12.1h-0.2v1.1
					h0.1C30.3,12.8,30.3,12.5,30.3,12.1z M10.6,11.3l-0.2,0.1c0.1,0.1,0.2,0.3,0.3,0.4c0,0,0.2-0.1,0.2-0.1
					C10.8,11.6,10.7,11.4,10.6,11.3L10.6,11.3z M30.4,3.8v0.7l0.5-0.3C30.8,4.1,30.4,3.8,30.4,3.8z M21.1,16H21l0.1,1.3h0.1V16z
					 M28.3,2.9L28.3,2.9l0-1.9h0C28.3,1,28.3,2.9,28.3,2.9z"/>
				<path class="st1" d="M3.9,22L3.9,22c0,0.6,0,0.6-0.5,0.5c-0.1,0-0.3,0-0.4,0l-0.5-0.4l0.2-0.6c-0.6,0-1,0-1.5,0.1
					c-0.6,0.1-0.9-0.2-1.3-0.5c0.4,0.1,0.4-0.2,0.4-0.5c0-0.5,0-0.9,0-1.4c0-0.4,0.1-0.7,0.5-0.8L0.7,19l0.2,0.1l0.7-0.5l-0.1-0.1
					l-0.4,0.1l0.8-0.4l-0.2,0.3c0.2,0,0.3,0,0.5,0c0.1,0,0.2,0,0.3-0.1c0,0,0-0.2,0-0.3c-0.1,0-0.2,0-0.3,0l1-0.4L2.8,18L3,18.4
					c-0.6,0.2-0.9,1.4-0.7,2.3l0.2-1.4l0.2,0.6h0.1l0.3-1.2l0.1,0.8h0l0.2-0.6h0.3c0,0.6-0.1,1.2-0.2,1.9c0,0,0,0.1,0,0.1
					c-0.4,0.5-0.1,0.9,0.1,1.2l-0.5,0.1c-0.2-0.5-0.2-1.6,0.2-2c-0.1,0-0.1,0-0.2-0.1C3,20,3,20,2.9,19.9c-0.2,0.7,0,2.1,0.3,2.6
					L3.6,22L3.9,22L3.9,22L3.9,22z M1.7,20.8l0.2,0.1c0.1-0.1,0.2-0.3,0.2-0.4C2.1,20,2,19.6,2,19.2c0-0.2,0-0.4-0.2-0.4
					c-0.1,0-0.3,0.3-0.3,0.4c0,0.3,0,0.6,0,1H1.4l-0.1-1l-0.2-0.1C1.1,19.2,1,19.3,1,19.5c-0.1,0.5-0.1,1-0.1,1.6
					c0,0.1,0,0.2,0.1,0.4h0.1l0.1-1.6l0,1.2c0.6-0.4,0.3-1,0.6-1.4L1.7,20.8L1.7,20.8L1.7,20.8z M0.6,21.2c0.3-0.6,0.3-1.7,0-1.8
					V21.2z"/>
				<path class="st1" d="M12.6,27l0.4,0.1c-0.1-0.2-0.1-0.3-0.2-0.4c-0.2-0.5,0-0.7,0.5-0.8c0.1,0,0.3-0.1,0.4-0.1
					c0.3-0.1,0.3,0,0.4,0.3c0.1,0.3,0.3,0.5,0.5,0.8c0.1-0.1,0.1-0.1,0.1-0.1c0.1-0.4,0.2-0.5,0.7-0.6c0.5,0,1-0.5,1.5-0.9
					c0.1,0,0.1-0.2,0.1-0.4c-0.3,0-0.6,0.1-0.9,0.1l-0.3-0.4l0.1-0.1l0.3,0.3c0.2-0.1,0.5-0.3,0.8-0.2c0.2,0.1,0.3,0.5,0.4,0.8
					l0.3-0.1l0,0.1c-0.1,0-0.2,0-0.4,0c0,0-0.1,0-0.2-0.1l-0.1,0.5c-0.1,0-0.2,0-0.3,0c-0.1,0-0.2,0.1-0.3,0.2c0,0,0,0.2,0,0.2
					c0.1,0,0.2,0,0.3,0c0.3,0,0.5,0,0.8,0l0,0.2c-0.2,0-0.3,0-0.5,0.1c-0.5,0.1-0.9,0.2-1.4,0.4c-0.1,0-0.1,0.3-0.1,0.6l-2.2,0.5
					c0.1-0.3-0.2-0.6-0.6-0.8C12.8,27.2,12.7,27.1,12.6,27L12.6,27L12.6,27z M14,26.5c-0.3-0.3-0.9-0.5-1.1-0.2
					c-0.1,0.1-0.1,0.3-0.1,0.5l0.1,0l0.3-0.3l0.2,0.2L14,26.5L14,26.5z M13.6,26.9c0,0.1,0,0.2,0,0.4c0,0.1,0.1,0.2,0.1,0.3
					c0,0,0.1,0,0.2,0v-0.3l0.4-0.1L13.6,26.9L13.6,26.9L13.6,26.9z M15,27.5L14.5,27h-0.1l0,0.5H15z"/>
				<path class="st1" d="M22.9,20.9c0.2-0.1,0.5-0.2,0.7-0.4c0.1-0.1,0-0.4,0-0.6c0.5,0.1,1.1,0.1,1.7,0.2c-0.8,0-1.2,0.1-1.4,0.3
					l1.4-0.1c0.1,0.4,0.2,0.7,0.2,1c-0.3-0.1-0.5-0.2-0.8-0.3c-0.1,0-0.4,0-0.5,0.1c-0.4,0.3-0.6,0.3-0.9-0.1
					c-0.1,0-0.2,0.1-0.2,0.1c-0.1,0.5-0.4,0.5-0.7,0.4c-0.4-0.1-0.8,0.2-1.1-0.3c0.3-0.2,0.1-0.7,0.6-0.8
					C22.4,20.4,22.6,20.6,22.9,20.9L22.9,20.9L22.9,20.9z"/>
				<path class="st1" d="M18.9,25c0.1-0.1,0.2-0.2,0.3-0.4c0-0.2,0-0.4,0.3-0.4c0.1,0,0.2,0.2,0.4,0.3c0.1-0.2,0.1-0.3-0.2-0.5
					c-0.5-0.3-0.5-0.4,0-0.8c0.1-0.1,0.3-0.2,0.5-0.4c0,0,0-0.1,0-0.2c0.1,0,0.1,0,0.1,0c0.2,0.2,0.1,0.3-0.1,0.4
					c-0.3,0.2-0.4,0.5-0.2,0.9c0,0.1,0,0.2,0,0.3c0,0.2,0.1,0.3,0.1,0.5h0.1l0.2-0.3c0.3,0.1,0.6,0.2,0.5,0.6
					c-0.4-0.1-0.8-0.2-1.2-0.2c-0.1,0-0.2,0-0.4,0.1C19.2,24.9,19.1,25,18.9,25C18.9,25,18.9,25,18.9,25z"/>
				<path class="st1" d="M18.9,25l0.1,0.4c0.3,0,0.6,0.1,1,0.1c-0.4,0.6-1,0-1.4,0.4c-0.2-0.2-0.2-0.6-0.7-0.6c-0.2,0,0-0.4,0.1-0.7
					c0-0.1,0.1-0.1,0.1-0.2c0.1,0.4,0.3,0.4,0.6,0l0.1,0.1l-0.4,0.6C18.7,25.1,18.8,25.1,18.9,25L18.9,25L18.9,25z"/>
				<path class="st1" d="M42.8,14.9c0-0.3,0.1-0.5,0.1-0.8c0-0.6,0-1.2,0-1.8c0-0.2,0-0.4,0-0.5h0.2c0,0.8,0.1,1.7,0.2,2.5l0.8,0.1
					l0,0.1L42.8,14.9C42.8,14.9,42.8,14.9,42.8,14.9z"/>
				<path class="st1" d="M27.8,21.1l0.4-0.2v0.8l0.1,0l0.1-0.2h0L28.3,22h0.2l0.1-1h0.1l0.1,0.7l0.4-0.1l0.1,0.6l-0.1,0L29.2,22
					l-1.2,0.1C27.9,21.7,28.2,21.4,27.8,21.1L27.8,21.1L27.8,21.1z"/>
				<path class="st1" d="M20.5,22L21,22l0.4,0.5l0.1-0.5c0.2,0.2,0.2,0.4,0,0.6l0.4,0.4L21.8,23l-0.7-0.2l0,0.1
					C20.8,22.7,20.5,22.5,20.5,22L20.5,22L20.5,22z"/>
				<path class="st1" d="M32,19.2l-0.9-0.1c0.1-0.5,0.2-0.6,0.6-0.4c0.1,0.1,0.3,0,0.5,0.1v0.9c-0.5,0.1-1.1,0.2-1.6-0.3
					c0.1,0,0.2,0.1,0.3,0.1c0.1,0,0.2,0.1,0.4,0.1C31.7,19.9,31.9,19.7,32,19.2L32,19.2L32,19.2z"/>
				<path class="st1" d="M35.8,17.8c0.1,0.1,0.2,0.3,0.3,0.3c0.1,0,0.3-0.1,0.4-0.2c0.3-0.3,0.7-0.2,1.1-0.3l0,0.1L37,18
					c0,0.1,0.3,0.1,0.7,0.2c-0.3,0.1-0.6,0.2-0.9,0.2c-0.3,0-0.7,0-1,0L35.8,17.8L35.8,17.8L35.8,17.8z"/>
				<path class="st1" d="M20.8,20.1l-0.5,0c0.1-0.3,0.5-0.3,0.1-0.6l0.6-0.2l-0.1,0.1l0.5,0.4c-0.1,0.1,0.5,0.6-0.2,0.7
					C21.1,20.4,20.9,20.3,20.8,20.1L20.8,20.1L20.8,20.1z"/>
				<path class="st1" d="M39.2,16c0-0.1,0-0.1,0-0.2c0.3-0.2,0.6-0.4,0.9-0.6l-0.5,0.6l0.5,0.1V16l-0.7,0.2l0.2,0.2
					c-0.2,0-0.4,0-0.3,0.4c-0.1-0.2-0.2-0.3-0.2-0.5C39.1,16.2,39.1,16.1,39.2,16L39.2,16L39.2,16z"/>
				<path class="st1" d="M5.5,16.7l-0.3,0L6,16.4l-0.2,0.3L6.3,17c-0.4,0.2-0.9,0.1-0.8,0.7C5.5,17.7,5.5,16.7,5.5,16.7z"/>
				<path class="st1" d="M24.1,18.8c0.2,0.2,0.7-0.2,0.8,0.4c0,0.1-0.1,0.2-0.1,0.3L24,19L24.1,18.8L24.1,18.8L24.1,18.8z"/>
				<path class="st1" d="M22.9,23.8l0.1-0.7h0.1l0,0.6h0.1v-0.5h0.1l0.1,0.6c0.3-0.1,0.6-0.2,0.9-0.3C24.2,23.6,23.8,23.7,22.9,23.8
					L22.9,23.8z"/>
				<path class="st1" d="M20.8,20.1c0.1,0.2,0.3,0.3,0.4,0.5c0,0.1,0.1,0.1,0.1,0.2l0,0.1l-0.8-0.2L20.8,20.1L20.8,20.1L20.8,20.1z"
					/>
				<path class="st1" d="M6.6,22.1C6.8,22,6.8,22,6.8,22.2c0,0.1,0.2,0.2,0.3,0.2c0.3,0.1,0.5,0.1,0.8,0.3l-0.9,0v0.1
					c-0.1-0.1-0.3-0.2-0.4-0.4c-0.1-0.1-0.2-0.1-0.2-0.1C6.5,22.2,6.6,22.2,6.6,22.1L6.6,22.1L6.6,22.1z"/>
				<path class="st1" d="M39.2,16c0,0.1,0,0.2-0.1,0.2v0.6c-0.4-0.2-0.2-0.9-0.8-0.8l0-0.1L39.2,16L39.2,16L39.2,16z"/>
				<path class="st1" d="M10,10.8l-0.3,0.2c-0.1-0.4-0.4-0.4-0.7-0.2c0-0.4,0.3-0.4,0.6-0.3c0.2,0,0.4,0.2,0.6,0.2
					C10.1,10.7,9.8,10.5,10,10.8L10,10.8L10,10.8z"/>
				<path class="st1" d="M4,17.7l-0.5,0.5L3.3,18l0.3-0.2l0-0.1c-0.1,0-0.2,0-0.3,0.1c0.3-0.2,0.7-0.3,1.1-0.5l0,0l-0.7,0.5l0.1,0.1
					L4,17.7L4,17.7L4,17.7z"/>
				<path class="st1" d="M23.4,21.9h2.5V22L23.4,21.9L23.4,21.9L23.4,21.9L23.4,21.9z"/>
				<path class="st1" d="M7.1,22.2l0.2-0.4c0.2,0,0.4,0.1,0.6,0.1C7.8,22.2,7.6,22.3,7.1,22.2z"/>
				<path class="st1" d="M15.3,25c-0.4,0.2-0.9,0.2-1.4,0.1v-0.1c0.4,0,0.9-0.1,1.4-0.1L15.3,25L15.3,25z"/>
				<path class="st1" d="M9.4,18.9l0.4,0c-0.2,0.3-0.3,0.7-0.5,1c0,0.1-0.2,0.1-0.3,0.1h0c0.1-0.1,0.1-0.3,0.1-0.4
					C9.3,19.3,9.4,19.1,9.4,18.9L9.4,18.9L9.4,18.9z"/>
				<path class="st1" d="M21.5,24l0.2,0.6l0.4-0.1l0,0.1l-0.8,0.2C21.4,24.6,21.4,24.3,21.5,24L21.5,24L21.5,24z"/>
				<path class="st1" d="M30.8,1.3l-0.3,0l-0.1-0.1c0.2-0.2,0.3-0.4,0.5-0.5c0,0,0.1,0.1,0.2,0.2C31,1.1,30.9,1.2,30.8,1.3
					C30.8,1.3,30.8,1.3,30.8,1.3z"/>
				<path class="st1" d="M16.9,24.2L16,24.1l0-0.2l0.4,0.1l0.1-0.6h0.1C16.7,23.5,16.9,24.2,16.9,24.2z"/>
				<path class="st1" d="M30.8,0.2l-0.3,0.1l0.6,0.3l-0.1,0.1h-0.6V0.1l0.4,0L30.8,0.2L30.8,0.2z"/>
				<path class="st1" d="M17.3,7.9l-0.5,0.5l0.1,0.1l-0.7-0.3C16.6,8,17,8,17.3,7.9L17.3,7.9L17.3,7.9z"/>
				<path class="st1" d="M35,19.4c-0.3,0.1-0.6,0.2-0.9,0.2c-0.4,0-0.6-0.1-0.5-0.6c0,0.6,0.5,0.4,0.7,0.4c0.2,0,0.4-0.1,0.6-0.2
					L35,19.4L35,19.4L35,19.4z"/>
				<path class="st1" d="M6.9,11.5c0.2-0.1,0.4-0.2,0.7-0.3c-0.4,0.2-0.6,0.5-0.6,1c0,0.4,0,0.7,0,1c0-0.4-0.1-0.7-0.1-1.1
					C6.9,11.9,6.9,11.7,6.9,11.5L6.9,11.5z"/>
				<path class="st1" d="M19.8,21.6l0.4,0.2l0.3-0.1c0,0.1,0,0.3,0,0.4l0,0c-0.1,0-0.2,0-0.4,0C20,21.9,19.9,21.7,19.8,21.6
					L19.8,21.6L19.8,21.6z"/>
				<path class="st1" d="M19,23.3l0.1,0.4l0,0c-0.1-0.2-0.2-0.4-0.3-0.5c0,0,0-0.1,0.1-0.2c0,0,0.1-0.1,0.2,0c0.1,0,0.2,0.1,0.3,0.2
					L19,23.3L19,23.3z"/>
				<path class="st1" d="M25.2,19.4l0.2-0.5c0.1,0,0.2,0.1,0.2,0.1c0,0.2-0.1,0.3-0.2,0.5L25.2,19.4L25.2,19.4L25.2,19.4z"/>
				<path class="st1" d="M18.4,24.1v-1.1h0.1L18.4,24.1L18.4,24.1z"/>
				<path class="st1" d="M15.9,23.2h0.7l0,0.1l-0.5,0.1l0,0.2l-0.1,0L15.9,23.2L15.9,23.2z"/>
				<path class="st1" d="M35.5,5.5c-0.1,0-0.1-0.1-0.2-0.1c0.1,0,0.2-0.1,0.4-0.1c0,0,0.1,0.1,0.1,0.2c0.1,0,0.3-0.1,0.4-0.1h0
					l-0.3,0.4L35.5,5.5L35.5,5.5L35.5,5.5z"/>
				<path class="st1" d="M22.8,23.5c-0.1-0.3-0.2-0.6-0.3-0.9C22.9,22.8,23.1,22.9,22.8,23.5z"/>
				<path class="st1" d="M16.3,8l-1-0.3l0.4-0.2l-0.1,0.1L16.3,8L16.3,8L16.3,8L16.3,8z"/>
				<path class="st1" d="M31.6,18.4l0.1-0.3l-0.7,0.4c0-0.1,0-0.2,0.1-0.2c0.3,0,0.7-0.4,1,0.1L31.6,18.4
					C31.6,18.4,31.6,18.4,31.6,18.4z"/>
				<path class="st1" d="M32.5,19.1l1-0.3l-0.7,0.5L32.5,19.1C32.5,19.1,32.5,19.1,32.5,19.1z"/>
				<path class="st1" d="M25.4,18.1c-0.1,0.1-0.3,0.2-0.4,0.4c-0.1,0.1-0.1,0.1-0.3,0.2c0.2-0.3,0.2-0.3-0.1-0.8
					C24.9,18,25.1,18.1,25.4,18.1L25.4,18.1L25.4,18.1z"/>
				<path class="st1" d="M38.3,17.4c0.7,0.1,0.7,0.1,1-0.3l0.1,0.1c-0.1,0.1-0.2,0.3-0.3,0.4C38.8,17.7,38.5,17.7,38.3,17.4
					L38.3,17.4L38.3,17.4z"/>
				<path class="st1" d="M12.6,27l-0.4,0.2l0.5,0.2l0,0.1L12,27.4V27L12.6,27L12.6,27z"/>
				<path class="st1" d="M8.2,12.2l-0.3,0.1l-0.6-0.8l0.3-0.2C7.6,11.8,8,12,8.2,12.2L8.2,12.2L8.2,12.2z"/>
				<path class="st1" d="M22.5,9.3c0.5,0.6,1.1,0.4,1.7,0.2c0.2-0.1,0.5-0.1,0.7-0.1l0,0.1c-0.4,0.1-0.8,0.3-1.1,0.4
					c-0.3,0.1-0.7,0.5-1-0.1l-0.2,0.2l-0.5-0.3L22.5,9.3L22.5,9.3L22.5,9.3z"/>
				<path class="st1" d="M25.7,9.5l0.5-0.2l0-0.1l-1.1,0.4c-0.1-0.3,0.6-0.2,0.2-0.7c0.5,0.1,0.8,0.5,1.1,0l0.2,0.4l0.7-0.1l0,0.1
					C26.8,9.4,26.3,9.5,25.7,9.5L25.7,9.5L25.7,9.5L25.7,9.5z"/>
				<path class="st1" d="M26.4,7.7l-1,0.7L25.6,8l-0.4-0.2l0.3,0l0.2-0.7C25.7,7.4,26,7.7,26.4,7.7L26.4,7.7L26.4,7.7z"/>
				<path class="st1" d="M22.5,9.3c-0.2-0.4,0-0.8,0.1-1.1l0.1,0C22.6,8.6,22.6,9,22.5,9.3C22.5,9.3,22.5,9.3,22.5,9.3z"/>
				<path class="st1" d="M18.5,14.9c0.3,0.1,0.7,0.2,1,0.4h-1.2C18.3,15.2,18.9,15.2,18.5,14.9z"/>
				<path class="st1" d="M40.9,14c-0.1,0.2-0.2,0.4-0.4,0.1c-0.1-0.1-0.4,0-0.7,0l0.5-0.4L40.9,14L40.9,14z"/>
			</g>
		</g>
	</g>
</g>
</svg>
