<?xml version="1.0" encoding="UTF-8"?><svg id="b" xmlns="http://www.w3.org/2000/svg" viewBox="0 0 139.4 102.17"><g id="c"><g id="d"><g id="e"><g><path d="M35.79,77.89h-1.83l-.77,1.95-.55-.02-.16-2.84c-1.63,1.19-3.99,1.68-3.42,4.59l2.13-2.4,1.55,2.92c-.63,1.5-2.97,2.15-5.01,1.02,1.99-1.58-1.23-.77-.37-2.1-.13,.09,.22-.15,.56-.39l-.06-.38h-2c.29,.71,.52,1.46,.9,2.11,.2,.35,.68,.54,1.03,.81-1.33,.64-2.14,.18-2.38-1.27-1.97,1.09-1.81,1.03-2.6-1.16-.37-1.03-1.5-1.78-2.37-2.76l1.14-1-3.49-1.13,.04-.3,3.36-.57c.76,.12,1.52,.24,2.57,.41l-1.86-2.52-.45,.08-.22,2.08c-1.99-.83-3.85-.77-5.86,.26-.93,.48-2.31,.08-3.65,.08l1.46,2.55,4.15,.37c-.35,1.92,.66,2.52,2.11,2.22l-2.03,2.19,.41,.55,1.46-.59c1.3,.55,2.43,1.02,3.55,1.5l-.18,.38c-1.42-.17-2.88-.6-4.26-.44-1.17,.14-2.25,.96-3.53,.47-.16-.06-.51,.13-.54,.07-1.63-2.69-4.07-.68-6.09-1.06-.42-.08-.99-.06-1.24-.32-1.78-1.92-4.14-1.57-6.44-2.02l-.3,1.71c-.22,0-.3,.02-.35,0-.49-.28,0-3.65,.55-3.99,.81-.49,1.73-.89,2.36-1.55,.44-.46,.69-1.32,.64-1.98-.05-.63-.58-1.22-1.01-2.04-1.95,2.64-1.96,2.69-.65,3.46-1.48,.37-2.22-.05-2.07-1.68,.27-3.14,.49-6.29,1.17-9.45l.39,4.88h.82l.49-8.11,.73,7.38c3.91,.74,2.95-2.59,4.08-4.31v4.37l.74,.08,.47-4.77h.28l.45,4.42,.67,.19c.43-.92,1.12-1.8,1.24-2.75,1.44-11.64,.18-23.31,.15-34.96-.01-5.22,.15-10.45,.28-15.67,.01-.57,.38-1.14,.58-1.7l.79,.2c0,1.82-.05,3.65,.01,5.47,.07,1.85,.63,2.2,2.78,1.78v-7.91c1.41,.54,1.5,1.26,1.55,4.2,.02,1.43,.64,2.85,1.36,4.26l.53-1.33,3.46,3.09,.47-.34,.26-4.31c1.9-.35,2.01,.7,1.93,1.88-.06,.91-.16,1.82-.24,2.73l.83,.05,.23-3.91,1.26,.62c.1-.93,.24-1.73,.25-2.53,.04-3.11,.01-6.21,.09-9.32,.01-.43,.46-.85,.71-1.28,.25,.43,.69,.85,.71,1.29,.07,2.15,.03,4.31,.03,6.24h12.54l.05-.98-4.75-.38-.13-.28,3.29-.9-.07-.46-2.4,.44,.32-3.12c.58,.77,.99,1.66,1.69,2.1,.32,.2,1.2-.5,1.67-1.21h-1.85V1.71l.45-.13,.98,2.01,.53-.36,1.66,2.29-1.37,.6v.5l2.73,.36v2.18l-2.9,.24,.02,.32h5.68l-.86-3.3,4.05-2.04-1.89-.29,.41-.32c-.47-.56-.91-1.16-1.43-1.67-.72-.68-1.52-1.29-2.48-2.1,3.05,.09,15.42,10.44,17.95,15.03l-2.11-1.11c-.32,.17-.68,.42-1.07,.55-2.29,.75-3.03,1.98-2.38,4.28,.1,.35,.76,.78,1.15,.77,.85-.02,1.7-.29,3.03-.55V51.2c2.93-.61,3.71-1.72,3.4-5-.2-2.17,1.12-2.46,2.72-2.67l-1.5,1.18,.13,.24,7.65-3.36v-3.58h.5c.02,.46,.02,.92,.07,1.38,.09,.88-.13,2.09,.37,2.59,1.6,1.62,.58,3.15,.22,4.76l4.07-1.11,.59-3.39-1.38-.28c1.71-1.11,2.14-2.53,1.3-4.26-.12-.26,.08-.68,.14-1.02,.41,.19,1.08,.29,1.2,.6,.41,1.04,.62,2.16,.98,3.53l.46-1.34c1.56,2.79-.31,5.49,.02,8.34,1.19-1.18,2.34-2.31,3.49-3.45-.89,1.45-1.79,2.89-2.82,4.57,2.83-1.74,3.31-2.57,2.76-4.53,.08-2.84,.17-5.68,.22-8.52,.02-1.09-.08-2.2,1.45-2.67l1.74,10.35h.44c.08-.42,.18-.85,.22-1.29,.12-1.41-.15-2.82,1.16-4.03,.49-.46,.38-2.05,0-2.87-1.1-2.41-1.12-2.62,1.62-3.25l-.96,1.2c.04,.5,.07,1.33,.18,2.15,.12,.85,.37,1.68,.46,2.53,.09,.94,.12,1.89,.07,2.83-.11,1.73-.37,3.45-.41,5.18-.01,.45,.52,.91,.5,.88-.19,1.96-.37,3.52-.47,5.08-.1,1.46,.03,2.95-.19,4.39-.25,1.59,.09,2.58,1.58,2.78l1.38-2.23,.58,.23,.22,1.44c2.38-.18,.94-2.4,1.99-3.31v4.7l.57-.03c-.19-2.63-.19-5.29-.62-7.88-.41-2.41,.67-4.59,.53-6.97-.15-2.59,.25-5.21,.42-7.9h1.77c-.43,.66-.92,1.23-1.22,1.88-.47,1.05-.73,2.01,1.11,1.9,.53-.03,1.1,.73,1.84,1.27-1.56,.55-3.9,.12-3.3,2.8,2.18-.03,2.38,.34,1.59,2.24-.21,.52,.19,1.29-.13,1.88-.11,1.01-.34,2.02-.31,3.02,.09,3.12,.32,6.24,.4,9.36,.02,.79-.3,1.58-.35,2.4,1.7-3.36,.14-7.13,1.4-10.64v8.17l.64,.03,.33-2.09,.47-.25,1.8,3.21c.16-1.63,.29-3.06,.43-4.49h.35c.48,2.23,.95,4.46,1.43,6.7l.8,.24,.76-1.45,.3,.15-.16,1.04c.75,0,1.65-.23,2.31,.07,.63,.29,1.02,1.12,1.9,2.18,.19-1.39,.29-2.16,.4-2.93,.1,.39,1.46,1.89,2.73,2.95l1.33-1.47,1.57,2.71,.62-.18,.29-4,.44-.06,.28,2.34h.11l.16-2.43h.25c.16,1.29,.32,2.59,.47,3.88l.44-.06,.48-7.2h.31c0,1.32-.01,2.65,0,3.97,0,.64-.02,1.3,.14,1.9,.15,.59,.52,1.12,.79,1.68,.44-.59,.91-1.16,1.3-1.77,.1-.15-.05-.45,.21-.76,.99,2.61,1.98,5.22,2.89,7.62l3.49-.98c-.05,1.93,.36,3.19,2.57,2.99,.44-.04,.98,1.05,1.68,1.85-2.74-.57-4.96-1.03-7.52-1.56l.45,2.77c.33-.36,.49-.59,.7-.74,.32-.22,.67-.51,1.02-.53,.16,0,.53,.59,.48,.85-.07,.35-.39,.85-.7,.93-1.1,.29-2.27,.33-3.35,.66-1,.3-1.92,.85-2.88,1.28l.21,.53c-1.64,.09-3.28,.17-5.21,.27l.89,1.16c-5.59-.07-5.45,.09-8.8,2.84l2.34-.64c-1.39,1.84-1.37,1.81-3.45,.82-.46-.22-1.24-.32-1.62-.08-3.08,1.91-6.13,.97-9.03-.21-2.41-.97-4.61-2.43-7.22-3.84,1.52-.34,2.73-.62,4.04-.91-.9,2.68,2.09,1.4,2.51,2.8,1.38-1.69,1.05-2.82-.76-3.35-2.09-.61-4.23-1.11-6.24-1.94-1.63-.67-3.04-1.86-4.65-2.62-.83-.4-1.87-.37-2.82-.53l-.17,.47-1.19-1.86-.49,.13,.63,2.08-2.7-1.93c.5,1.47,1.8,2.52,6.03,4.13,2.36,.9,4.93,1.26,7.4,1.87l-.05,.54c-1.82-.15-3.72,0-5.43-.52-1.82-.54-3.45-1.7-5.3-2.66-.39,1.5-1.22,2.94,.49,3.52,1.11,.38,2.48-.04,3.77,.07-.97,.18-1.94,.37-2.91,.53-1.08,.18-1.88-.04-2.48-1.16-.34-.63-1.26-.96-2.31-1.7l1.78,3.26-.5,.27-1.59-2.11-.48,.26,.27,1.28-1.39,.32,.09-1.85c-1.02,1.1,.05,4.15-2.87,2.15l-.14,2.05c1.18-.27,2.17-.49,3.38-.76l.32,4.09-2.91-1.59c-.56,2.09-.16,2.6,4.02,4.81-1.27,1.57-3.03,1.68-4.6,.29-.66,.72-1.33,1.44-2.05,2.22-.26-.84-.49-1.58-.72-2.31l-.05,.04-.53-8.29-1.27,.5-.57-.29c.31-.73,.42-1.72,.97-2.13,.71-.52,1.76-.57,2.66-.83-1.83-2.05-4.06-.93-6.31-.94,1.98,.92,1.44,2.63,1.58,4.11l.2,.42c-.32,.05-.76,.25-.94,.12-.83-.62-1.6-1.34-2.83-2.41l2.25,.1,.29-.34c-.5-.4-1.01-1.15-1.49-1.12-1.73,.09-2.48,1.31-2.72,2.92l-.16-2.19c-.99-.19-1.94-.36-2.82-.53,1.89-4.57,7.27-6.21,9.54-10.52l-.66-.63c-3.57,3.7-7.15,7.4-10.72,11.1l-.26-.22,.85-1.58-.23-.51c-.78,.34-1.61,.6-2.33,1.04-.77,.48-1.44,1.12-2.15,1.69l-.41-.4,2.83-3c-1.36-1.56-1.49-1.52-3.15,.78l.45-5.47c-2.1,2.3-4.16,4.54-6.33,6.92,1.73-.08,3.47-1.28,5.16,.3l-1.64,.26,.77,1.78c-3.71,.07-7.26-2.1-10.59-.09l1.85,1.37-2.4,1.08,.13-1.1c-1.16-.09-2.32-.17-3.49-.26l.23-.28-3.65-2.36c.37-.63,.74-1.25,1.11-1.87,.64-.27,1.42-.4,1.9-.84,1.15-1.05,2.17-2.26,3.24-3.4l-.61,.93c.88,.42,1.62,2.06,1.36,2.99-.77,.38-1.5,.88-2.32,1.12-1.31,.38-1.66,1.08-1.38,1.85l4.25-1.63-.61-1.37c1.57,0,1.78-.37,1.66-2.43,1.23-.09,2.45-.18,3.66-.27l-.24-1.13h1.67c-.07-2.97,1.8-.94,3.29-1.25-1.93-.47-1.3-1.35-.88-2.4-.79,2.24-4.53-1.1-4.4,2.68l-2.33-.41,1.84-2.03c-1.87-1.22-2.23,1.08-3.55,1.6l1.31,.81-.02,.41-1.57-.25c-.36,.24-.76,.52-1.18,.81-.47-.56-.92-1.13-1.68-2.08l-5.19,4.65,1.78,1.63,.09,.02h0Zm9.25-19.3c-.15,.7-.41,1.4-.42,2.1,0,1.64,.33,3.41-2.27,3.37l2.02,2.76c.28-1.03,.66-1.82,.69-2.63,.06-1.87-.04-3.75-.08-5.63,1.62-1.34,.94-2.75,.24-4.27-1.76,1.54-1.78,2.52-.19,4.3h0Zm34.47-10.7l.52-1.27c-.41-.11-.83-.35-1.22-.31-2.37,.23-3.02,1.51-1.8,4.69l2.57-3.17-3.64,4.81c.65-.11,1.27-.13,1.82-.34,.64-.25,1.26-.62,1.79-1.05,1.1-.91,1.04-2.93-.03-3.35h0Zm-20.66-25.06l.65-2.34h-3.93l.66,2.46,1.49-.13c-1.39,.59-2.73,1.21-1.78,3.31,1.26,0,2.69,.62,3.89-.92l-3.32-.17c.87-.52,1.77-.48,2.57-.75,.36-.12,.54-.82,.8-1.25l-1.03-.21Zm65.11,48.7l.84,1.94c.61-.75,1.21-1.22,1.43-1.83,.29-.8,.3-1.71,.31-2.58,0-.07-.96-.15-1.73-.26l.77,2.1-1.67,.68v-2.75c-3-.14-5.34,1.08-7.6,2.56l.12,.54,2.29-.39c-.41,.53-.66,.85-.91,1.18-.91,.72-1.26,3.27-.62,4.5l.57,.02v-4.56l1.74-.3,1.4,1.88,.45-.13-.17-1.54c.88-.34,1.82-.7,2.75-1.06h.03ZM42.85,33.29l1.61-1.66h-14.44v.69h7.55v.63h-7.72l.04,.3h13.01c-.89,.27-1.77,.72-2.67,.78-2.91,.19-5.84,.2-8.75,.37-.58,.03-1.14,.44-1.71,.68,.6,.27,1.21,.78,1.8,.76,3.81-.13,7.62-.34,11.42-.61,.45-.03,.87-.6,1.3-.91-.48-.34-.97-.68-1.44-1.02h0ZM6.86,75.77c1.3-.24,2.63-.36,3.88-.74,.85-.26,1.63-.81,2.34-1.36,.18-.14,.15-.93-.06-1.11-.26-.24-.88-.35-1.21-.21-1.21,.51-2.83,.45-3.28,2.2-.07,.27-.86,.41-1.33,.49-.64,.11-1.31,.11-1.96,.16l.03,.62,1.64-.1-4.04,3.07,.09,.53c.61,0,1.23,.03,1.84,0,.5-.03,1.16-.4,1.47-.19,1.79,1.17,3.3,0,4.84-.52,.55-.19,.88-1.01,1.31-1.54-.72-.24-1.34-.04-1.38-.12-.98-1.95-2.71-1.12-4.19-1.19h.01Zm20.47-5.65l.77-.13c-.05-.88-.13-1.76-.13-2.64,0-6.7,.09-13.4-.05-20.09-.02-.83-1.19-2.27-1.92-2.33-3.43-.25-6.89-.17-10.34-.09-1.04,.03-1.82,.46-1.8,1.91,.09,6.38,.04,12.76,.05,19.14,0,.13,.1,.27,.2,.51l.65-1.7,.32,2.56h.56v-21.31h7.66c2.03,0,3.06,1,3.1,2.99v.57c.02,5.42-.03,10.85,.09,16.27,.03,1.45,.54,2.9,.84,4.34h0ZM50.32,19.45l.03-.22-2.85-.28c1.87-.8,3.75,.45,4.74-1.45,.06-.12,.97,.09,1.39,.31,.54,.29,1,.74,1.37,1.03l.59-2.63-1.94-.64,.06-.29,2.7,.19,.07-.41-2.78-.58,4.71-2.11,.14,1.58,1.96-1.24c-1.07-.42-2.23-.52-2.72-1.14-1.06-1.35-2.37-1.65-3.88-1.53-2,.16-4,.42-6.06,.65v1.78c2.24,.13,3.69,.66,4.36,1.61l-8.16,1.11c.59,.69,1.7,1.42,1.88,2.33,.36,1.82,1.04,2.59,2.91,2.06,.47-.14,1-.09,1.5-.13h-.02Zm-.28,39.15c2.51-1.42,2.57-3.72,2.46-6.17-.11-2.44-.02-4.88-.02-7.33l-4.14,.58v16h.52l.45-7.32,.37-.03,.37,4.26h0Zm-19.83,16.86v-30.29c-.28,.65-.26,1.32-.28,1.98-.22,8.79-.41,17.59-.69,26.38-.04,1.37-.46,2.74-.62,3.63-1.17-.52-2.07-1.24-2.96-1.23-1.02,.01-2.03,.68-3.14,1.09,4.74,1.99,9.73,.85,9.71-1.96l-2.02,.4ZM50.88,21.45c-.06,2.87,2.18,2.66,3.95,3.28v-4.1c-1.84-.14-3.62-.4-5.41-.37-2.87,.05-3.5,.99-2.82,3.8,3.8,.41,3.98,.3,4.28-2.61Zm6.1,33.59l.63,.39c.61-.7,1.7-1.37,1.75-2.11,.2-3.06,.08-6.15,.08-9.38l-2.46,.49v10.61ZM13.81,33.28l.06,.74c4.72-.2,9.45-.05,14.16-.34v-.78h-9.38v-.27l9.22-.48-.02-.23H13.77l-.1,.58,1.85,.57-1.72,.23v-.02h.01Zm32.22,7.9c.77,.69,1.12,1.26,1.4,1.23,4.09-.5,8.17-1.07,12.25-1.63v-1.91c-4.48,.76-8.77,1.49-13.65,2.32h0Zm-32.15-2.4c4.84-.46,9.49-.9,14.15-1.35l-.02-.69H13.87v2.04h.01Zm39.65,18.95c.97-1.09,2.11-1.78,2.15-2.54,.2-3.42,.09-6.85,.09-10.3h-2.24v12.83h0Zm-23.64-20.98l-.23,.49c.29,.24,.58,.71,.86,.7,4.38-.11,8.76-.28,13.13-.48,.27,0,.51-.43,.77-.66-.3-.25-.6-.72-.89-.71-4.55,.18-9.1,.42-13.65,.65h0Zm20.67-4.4l.1,.73c2.84-.3,5.68-.57,8.51-.95,.27-.04,.66-.78,.6-1.13-.05-.34-.61-.82-.96-.84-1.46-.09-2.93-.1-4.38,0-1.23,.09-2.45,.37-3.68,.57l.05,.52h4.61c-1.56,.81-3.48-.22-4.85,1.1Zm-36.7,2.59l-.11,.59c.37,.15,.74,.44,1.12,.44,4.08,.02,8.16,.02,12.23-.04,.36,0,.72-.47,1.08-.73-.42-.24-.84-.67-1.26-.67-3.38,0-6.75,.09-10.13,.18-.98,.03-1.96,.16-2.94,.24h.01Zm15.95,7.71l.09,.77c4.17,0,8.34,.04,12.5-.06,.44,0,.86-.81,1.68-1.64l-14.28,.92h0Zm80.71,29.21c-.45-.4-.85-.98-1.11-.93-1.56,.31-3.18,.57-4.61,1.22-1.95,.89-3.8,.72-5.75,.2-.77-.21-1.6-.23-2.4-.34,1.54,1.09,3.05,1.93,4.6,2.66,.41,.19,1.01,.25,1.43,.1,2.54-.89,5.04-1.86,7.85-2.92h0ZM29.78,39.62c4.87,.25,9.74,.44,14.84-.42-1.15-1-12.96-.8-14.84,.42Zm16.98,3.7v.43c.4,.07,.8,.21,1.2,.18,3.46-.25,6.93-.5,10.39-.83,.45-.04,.87-.48,1.31-.74-.49-.25-1.01-.76-1.46-.7-3.82,.49-7.62,1.09-11.43,1.66h-.01Zm-18.51,.06c-1.42-1.46-12.04-1.54-14.9,0h14.9Zm50.55,35.13c-.39-.48-.53-.83-.7-.84-1.79-.09-3.24-.59-4.41-2.16-.34-.45-1.83-.06-2.79-.05,.06,.58-.1,1.46,.22,1.69,.96,.69,2.11,1.13,3.42,1.79l-.38-1.38,1.98,.93-.69,.75,.27,.45c.97-.38,1.95-.75,3.08-1.19h0Zm-28.35-4.27c-1.65,0-3,.84-4.01,2.18-.54,.72-1.36,1.22-2.06,1.82l-.42-.34,.15,1.52c3.43,.33,5.41-1.97,6.34-5.18ZM13.93,39.38l.02,.51c.16,.08,.31,.24,.47,.24,4.25-.06,8.5-.13,12.75-.24,.33,0,.64-.41,.96-.64-.35-.27-.72-.8-1.06-.78-4.38,.26-8.76,.59-13.14,.91Zm84.04,29.62l-.28-.59c-1.54,.85-3.49-.02-4.9,2.09-1.03,1.54-3.22,2.32-4.89,3.44l.42,.64c3.22-1.86,6.44-3.72,9.65-5.57h0ZM13.99,40.85v.53h14.08v-.53H13.99Zm2.3-17.63c-2.93-.8-2.37,.43-2.25,3.93h5.38c-.95-1.76-4.32-1.07-3.13-3.93Zm34.64,11.86c1.59-.08,2.73-.1,3.86-.21,1.45-.15,2.9-.33,4.33-.6,.28-.05,.47-.57,.7-.87-.3-.16-.61-.49-.89-.47-2.53,.23-5.06,.5-7.57,.84-.38,.05-.69,.55-1.03,.85,.31,.24,.61,.47,.6,.46Zm-11.52-4.15l.36-.9c-.3-.18-.6-.49-.91-.51-2.72-.14-5.45-.27-8.18-.3-.3,0-.61,.61-.92,.93,.36,.26,.72,.73,1.08,.74,2.85,.06,5.71,.03,8.57,.03h0Zm20.49,6.43c-.34-.09-.63-.24-.89-.22-2.71,.23-5.43,.44-8.13,.77-.38,.05-.7,.65-1.25,1.21,3.6,.41,9.33-.59,10.28-1.76h0Zm-15.81,3.66l-.04-.84-14.16,.75,.04,.86,14.16-.78h0Zm22.16,9.53c-3.55,1.78-5.84,4.42-8.34,6.82-.2,.19-.32,.46-.47,.69,.91-.06,1.61-.41,2.2-.89,2.09-1.69,4.16-3.39,6.18-5.16,.29-.25,.26-.85,.43-1.45h0ZM13.67,30.44l.1,.52c3.14,0,6.28,.01,9.41-.03,.19,0,.38-.5,.57-.77-.33-.2-.66-.57-.98-.56-2.73,.08-5.46,.22-8.19,.38-.31,.02-.6,.3-.9,.46h-.01Zm46.11,5.13c-4.14-.68-9.05,.16-9.8,1.67,3.41-.74,6.79-.11,9.8-1.67Zm-10.36-26.82v.31h7.15l-4.74-3.68-.29,.34,1.05,1.19-4.41,.31v.59h4.9v.58l-3.66,.36Zm1.12,20.9c0-1.62-.93-1.94-2.18-1.87-.62,.03-1.25,.24-1.86,.19-1.8-.15-1.87,.69-1.29,2.14l5.32-.46h.01Zm38.64,18.28l-.56-.16c-1.34,1.41-2.75,2.77-3.99,4.26-.37,.44-.27,1.26-.38,1.91,.57-.18,1.26-.23,1.69-.58,.57-.46,1.02-1.13,1.39-1.78,.67-1.18,1.24-2.43,1.85-3.64h0Zm.46,3.27l-.55-.22-3.96,8.7,.49,.23c1.24-2.95,4.77-4.81,4.02-8.71Zm-17.87-7.97l-2.48,1.29c.88,.5,1.82,.7,2.07,1.23,.9,1.89,2.07,.9,3.28,.69l-2.87-3.21Zm4.09,20.24l-.57,.53c3.19,2.5,2.81,7.38,6.24,9.46-1.31-2.65-2.67-5.48-4.12-8.25-.35-.67-1.03-1.16-1.56-1.73h.01ZM14.39,28.42v.61h8.25c-2.85-1.93-5.55-.71-8.25-.61Zm38.53,.08l-.02,.64h7.21c-.41-.45-.72-1.06-1-1.05-2.07,.07-4.13,.26-6.19,.41Zm2.81,37.69l.68,.12c-.5-1.51,3.45-5.13,5.28-4.84-1.09-2.15,1.8-2.31,2.06-4.12-2.66,2.48-5.15,4.74-7.55,7.1-.37,.37-.33,1.16-.47,1.75h0Zm57.71,7.55l-.03-.71c-2.15-1.41-4.07,.22-6.07,.71h6.1Zm-62.3-7.88l.46,.47,8.1-7.37-.46-.5c-2.7,2.47-5.4,4.94-8.1,7.41h0Zm20.42-1.39l.38,.48c1.21-.99,2.61-1.84,3.59-3.02,.9-1.1,.19-2.19-1.26-2.27-.86-.05-1.72,0-2.58,0l.02,.47c.64-.03,1.29-.13,1.93-.08,.52,.04,1.03,.24,1.55,.38-.22,.44-.36,.96-.69,1.3-.93,.96-1.95,1.84-2.93,2.75h0Zm34.47,11.74l-.44-.6c-1.91,1.31-3.83,2.61-5.74,3.92,.58,.22,1.22,.2,1.72-.07,.84-.44,1.61-1.02,2.38-1.59,.71-.52,1.39-1.11,2.08-1.66ZM47.18,11.96l-1.34-1.67c-.3,.58-.82,1.14-.85,1.74-.03,.5,.51,1.03,.79,1.55l1.4-1.61h0Zm23.71,38.96c-1.67,1.99-3.49,4.17-5.31,6.35,2.1-.79,5.35-4.95,5.31-6.35Zm11.06,18.74l.71,.09,.69-5.74-2.86-.15c2.9,1.76,2.09,3.79,1.45,5.8h.01ZM24.19,30.77c1.18,.08,2.22,.19,3.25,.2,.22,0,.56-.32,.63-.55,.07-.25-.02-.66-.2-.84-.63-.62-2.94,0-3.68,1.19Zm80.74,40.23c-1.42-.44-2.83-.89-4.66-1.46,.77,2.11,1.95,2.43,4.66,1.46Zm-38.34,4.27l-.41-.27-1.86,1.55c1.59,1.35-.11,2.17-.45,3.31,2.45-.72,1.21-3.4,2.71-4.6h.01Zm12.02-19.76l-.1,.52,4.64,1.96,.28-1.44-4.82-1.04Zm-19.45,0l-.3-.38c-2.17,1.7-4.33,3.39-6.5,5.09l.39,.5c2.13-1.74,4.27-3.47,6.4-5.21h0Zm-18.55-25.6l.2,.82c1.12-.17,2.25-.29,3.34-.56,.11-.03,.02-.92,.02-1.43l-3.56,1.17Zm36.28,40.96l-1.76-2.45-.65,.33,.42,2.83,1.99-.7h0Zm15.45-7.01l.97,.52,1.65-3.53-.56-.26-2.07,3.27h0Zm7.42,12.94c-.93-2-1.96-2.21-3.64-.71,1.49,.29,2.57,.5,3.64,.71Zm-39.89,.12l.4,.41c1.59-1.71,3.19-3.41,4.78-5.12l-.42-.37c-1.59,1.69-3.18,3.39-4.77,5.08h0Zm14.99,7.25l-.75-2.14-1.75,3.14,.52,.35,1.97-1.35h.01Zm-26.63-49.76l.13-.48c-.33-.1-.67-.19-.58-.17l-.74-2.03-.83,.19c.06,.69-.1,1.53,.25,2.01,.28,.39,1.16,.34,1.78,.48h0Zm-17.71-12.16l-.54,.09c.13,.68,.41,1.37,.36,2.05-.05,.79-.43,1.56-.55,2.36-.04,.24,.33,.54,.51,.82,.19-.32,.52-.64,.53-.96,.03-.88-.06-1.77-.13-2.65-.04-.57-.12-1.13-.19-1.69v-.02h0Zm77.52,59.65l-1.67-2.04c-.36,.34-1.07,.79-1,1,.18,.57,.6,1.19,1.1,1.5,.28,.17,.91-.25,1.58-.46h-.01Zm.64-10.98c-.25-2.37-1.03-2.84-2.97-2.04,.97,.67,1.78,1.22,2.97,2.04Zm-14.18,2.17c-.86,.38-1.73,.77-2.92,1.29,1.78,1.11,2.6,.6,2.92-1.29Zm13.65,3.05l.24,.45,2.89-1.4-2.18-1.07-.95,2.02ZM55.49,26.96l.04,.76,3.99-.35-.05-.42h-3.98Z" fill="#41463d"/><path d="M69.26,83.32l-.2-.42c1.58-.26,1.4,.97,1.66,1.89,.57,2,1.2,3.98,1.8,5.97l.05-.04c-.53-.28-1.05-.57-1.87-1,0,1.91-.05,3.6,.01,5.28,.11,2.81,2.66,1.06,3.89,2.13l-2.56,.43,.1,.81c1.34-.16,2.69-.31,3.98-.46-.34,1.43-2.97,1.77-7.88,1.02l.15,1.61-3.84-1.58c1.37-.57,2.88-.59,1.98-1.85-.73,.18-1.32,.26-1.86,.46-.64,.24-1.42,.42-1.84,.89-1.09,1.21-2.32,1.29-3.81,1.08-.85-.12-1.77,.28-2.66,.44l.05-.05-3.59,.28-.09-.43,3.3-.59-.11-.43c-2.99-.17-5.98-.34-8.93-.5,1.54-.43,3.18-.69,4.63-1.36,1.53-.71,1.87,.16,2.34,1.31,.66-.51,.75-2.42,2.43-.41v-1.11l-3.36-1.45-.03-.31,3.23-.27c-.77-.52-1.15-.89-1.61-1.05-.46-.17-1-.14-1.5-.2l-.18-.54c-.39,.48-.72,1.29-1.17,1.37-.7,.12-1.92-.02-2.17-.46-.97-1.76-.86-1.82-3.67-1.68l1.71,1.1c-.83,1.47-1.8,.35-2.35-.07-1.83-1.42-3.68-2.04-6.07-1.65-1.33,.22-2.87-.34-4.22-.8-1.55-.53-3-1.34-4.5-2.03l.2-.51,2.23,.4,.09-.33-3.45-.89-.03-.57,2.26-.66-.61-.9,.28-.3,1.46,1.09c4.47-1.53,8.77-.91,13.07-.26-3.32,.9-6.97-1.38-10.2,1.17,.25,1.39,1.26,1.57,2.06,.91,2.93-2.43,6.08-.8,9.14-.7,.54,.02,1.09,.08,1.8,.13,.64,2.09,4.6-.39,4.54,3.08l2.62-3.79-1.97-.63,.63-.73c1.09,.58,2.28,1.03,3.23,1.79,.32,.26,.29,1.67-.04,1.9-1.34,.94-.88,1.62-.08,2.58,.85,1.02,1.74,1.27,2.79,.5,1.07-.79,1.85-.55,2.71,.64l-1.22,.24-.22,.37c.57,.28,1.19,.87,1.69,.78,1.52-.27,2.63-.02,3.28,1.5,.19,.44,.55,.79,.84,1.19l.76-.38c-.32-1.62-.7-3.23-.93-4.86-.05-.34,.42-.74,.8-1.36-.24-.52-1.08-1.52-.96-2.38,.12-.82,1.25-1.49,2.18-2.48l-.16-1.81-.03-.06h0Zm-27.06,6.94l-.03,.51h6.48c-.43-2.09-6.03-3.38-9.37-1.99,1.96,.21,3.93,.43,5.89,.64l-.03,.39-2.95,.46h0Zm13.28,1.79l1.6-4.66c-2.41,1.3-3,3.23-1.6,4.66Zm13.95-1.12c1.53-2.38,1.27-3.38-.46-3.93,0,.51-.05,1.05,.01,1.58,.07,.61,.22,1.2,.44,2.34h0Zm-30.17-.7l.16-.55-4.84-1.48-.13,.48c1.6,.52,3.21,1.03,4.81,1.55Zm20.76,2.94l-.92-.15-.45,3.57,.61,.12,.76-3.53h0Z" fill="#41463d"/><path d="M84.11,83.78c.77-.07,1.75-.48,2.23-.15,1.29,.9,2.88,1.91,3.38,3.24,.53,1.41,.81,2.4,2.55,2.52l-1.35,.52,.08,.54,4.87-.65-.82,1.27c.41,.02,.82,.07,1.23,.04,.23-.02,.48-.3,.66-.25,1.1,.32,2.17,.7,3.59,1.17-2.69,.34-5.09,.64-7.64,.96l-.24,1.39h-4.86l-1.45-2.49c-1.05,1.02-1.11,3.12-2.95,2.49l-.79-3.19-.54,.13c.12,2.18-.43,2.87-3.02,3.04l2.48-4.07,2.08-.23-.02-.38c-.86,0-1.71-.05-2.57,.01-1.25,.09-1.5-.64-1.56-1.65-.08-1.18,.68-1.16,1.5-1.16,1.46,.01,2.92,0,4.29,0,.22,.34,.33,.49,.41,.65,.24,.51,.44,1.06,.74,1.53,.04,.07,.54-.14,.83-.22-.19-.54-.37-1.09-.58-1.63-.28-.69-.59-1.38-.93-2.17l-.97,1.62-.62-2.93v.05h-.01Zm4.41,3.18l-.55,.08,.53,4.96,.82-.12-.8-4.93h0Z" fill="#41463d"/><path d="M139.4,80.67c-1.15,.16-2.15,.41-3.13,.37-.51-.02-1.43-.58-1.42-.88,.03-.82,.44-1.63,.7-2.44,.61,.21,1.31,.29,1.79,.66,.65,.51,1.13,1.24,2.05,2.28h.01Z" fill="#41463d"/><path d="M44.2,81.93h5.95l.14,.63c-1.64,.34-3.27,.76-4.93,.94-.3,.03-.72-.94-1.17-1.57h0Z" fill="#41463d"/><path d="M22.82,89.88c1.05-1.69,2.23-1.98,3.55-.87-.68,1.3-1.27,1.46-3.55,.87Z" fill="#41463d"/><path d="M56.37,99.97c1.15,.14,2.32,.19,3.44,.46,.42,.1,.73,.68,1.1,1.04-.44,.24-1.06,.81-1.29,.68-1.12-.65-2.14-1.47-3.2-2.24l-.05,.05h0Z" fill="#41463d"/><path d="M83.63,86.29c-1.23-1.1-3.33,.08-4.66-2.12h3.08l-.26,.98,2.09,.47-.25,.68h0Z" fill="#41463d"/><path d="M64.09,98.71l-1.01,3.37h-1.57c1.14-1.12,.98-2.92,2.58-3.37Z" fill="#41463d"/><path d="M54.62,46.51v8.72l-.51-.02c.17-2.91,.34-5.82,.51-8.69h0Z" fill="#41463d"/></g></g></g></g></svg>