<?xml version="1.0" encoding="UTF-8"?><svg id="b" xmlns="http://www.w3.org/2000/svg" viewBox="0 0 70.53 131.52"><g id="c"><g id="d"><g id="e"><g><path d="M7.74,84.84c-.87-1.55-2.06-2.57-3.96-2.63-.17,0-.43-.94-.46-1.46-.18-2.98-.23-5.96-.5-8.93-.15-1.69-.77-3.34-.94-5.03-.12-1.16,.24-2.37,.25-3.55,.06-5.29,.09-10.59,.08-15.88,0-.53-.17-1.15-.48-1.58-1.37-1.96-.93-4.2,1.32-4.95,2.33-.78,3.13-2.1,2.92-4.52-.29-3.42-.26-6.86-.34-10.3,0-.34,.2-.71,.36-1.04,.67-1.29,1.31-2.5-.97-2.89-.23-.04-.6-1.63-.29-2.08,1.62-2.36,3.35-4.66,5.24-6.82,.67-.77,1.82-1.22,2.84-1.55,.9-.3,1.54-.31,1.42-1.64-.11-1.25,.53-2.38,1.49-3.49,1.35-1.55,2.08-3.63,3.18-5.42,.31-.5,.98-1,1.53-1.07,.62-.07,1.55,.15,1.9,.59,1.73,2.16,3.31,4.44,4.94,6.68,.07,.1,.12,.22,.15,.34,.89,4.61,5.06,6.91,7.46,10.46,.52,.76,1.17,1.14,.63,2.23-.63,1.28-.12,2.51,.8,3.54-.98-.48-4.46-.05-5.17,.68-.16,.16-.19,.44-.28,.66-1.7,4.49-3.4,8.99-5.12,13.55l4.79,1.99c-2.37,.11-4.39-2.04-6.84-1.36l-.2,.8,7.97,2.42,.33-.55-1.01-1.15c1.32,.8,1.45-.62,1.96-1.14,1.5-1.51,2.73-1.55,3.85,.17,.73,1.12,1.68,2.34,1.77,3.57,.09,1.21,.4,1.74,1.43,2.04,.91,.26,1.82,.71,2.73,.72,1.43,.02,1.86-.78,1.26-1.96l-4.63-.41c1.33-.86,1.92-2.53,2.2-5.62l-3.47-1.44,.15-.41,3.62,.77,.1-.41c-2.41-.83-4.82-1.65-7.23-2.48l-.27,.66,2.9,1.25-.04,.17-3.73-.62,1.78-3.51c-.39,.65-1.01,1.47,.2,1.74,.48,.11,1.23-.52,1.71-.97,.6-.55,1.07-1.25,1.55-1.92,.27-.38,.64-.83,.62-1.23-.02-.26-.66-.48-1.02-.72l.41-1.67-1.54-1.15c-.99,.22-2.09,1.66-2.78-.12l2.68-1.63c2.01,1.15,3.99,2.34,6.03,3.42,1.14,.6,2.09,.2,2.51-1.05,.46-1.38,1.39-1.41,2.58-1.11,2.29,.57,3.91,1.54,4.38,4.22,.42,2.42,1.51,4.72,2.34,7.2,.32,.04,.75,.06,1.16,.16,3.98,.92,4.18,1.14,4.21,5.23,.03,4.78,.02,9.57,0,14.36,0,1.28,.07,2.35,1.55,2.92,.45,.18,.9,1.25,.8,1.81-.28,1.5-1.18,2.92-1.27,4.4-.28,4.51-.4,9.03-.35,13.55,0,1.27,.82,2.54,1.34,4.04-2.51,1.73-1.37,4.75-1.48,7.41-.14,3.43-.04,6.88,.05,10.32,.03,1.03,.38,2.06,.58,3.09,.04,.18,.19,.43,.12,.54-1.4,2.15-.68,4.11,.71,6.01l-.42,.21-1.61-2.05-.39,.18c.35,.75,.71,1.49,1.16,2.44l-2.82,1.33c.22,.34,.57,1.13,.71,1.1,1.78-.43,3.53-.98,5.52-1.57l.58,1.16,.28-2.5,1.53,1.29,.26-4.73c1.23,.29,3.36,.46,3.4,.85,.18,1.63,.08,3.51-.64,4.94-.37,.74-2.25,.73-3.52,.88-1.13,.61,.43,2.88-1.8,3.01,.26-.56,.69-1.11,.73-1.69,.04-.52-.35-1.06-.72-1.51,.03,2.28-1.18,3.76-2.66,5.13-.41,.38-.68,.9-1.02,1.35,.46,.34,.93,.66,1.37,1.01,.46,.37,.89,.77,1.33,1.16-.43,.43-.79,1.01-1.3,1.26-1.36,.67-2.73-.13-3.2-1.54-.49-1.47-1.19-2.87-1.78-4.25-1.76,.41-2.96,.23-3.61-.53-.18,.7-.3,1.17-.41,1.64-1.07,.32-2.14,.64-3.2,.96l.09,.65c1.17-.13,2.34-.26,3.61-.4l-.56-1.27c.88,.4,1.75,.81,2.63,1.21l-.02,.52c-.47,.16-.94,.33-1.42,.47-.1,.03-.27-.15-.35-.11-1.01,.43-2.06,.83-2.99,1.4-.17,.1,.08,1.39,.23,1.41,1,.13,2.02,.07,3.13,.07-.45-1.13-.2-1.1,.8-1.69,.72-.42,1.05-1.5,1.41-2.08l.51,3.09c-1.21,.47-3.28,.64-3.67,1.54-1.21,2.8-3.81,1.26-5.69,2.42l.54,2.2-2.87,.66-.08-.23,2.06-.81c-.41-1.46-.84-2.96-1.26-4.46,1.31-.03,2.89-.05,3.55-1.81-1.65-1.87-2.56,2.62-4.23,.28l1.08-.86-2.38-1.61c2.34,.92,3.36,.84,4.41-.03-2.98-.72-6.23-1.5-9.49-2.29l-.12,.33c1.46,.71,2.91,1.43,4.37,2.14-.68,.16-1.36,.35-2.05,.46-.68,.11-1.38,.13-2.56,.24,1.37,.7,2.38,1.21,3.48,1.77-1.38,.72-3.99-.07-3.36,3.12-1.48-2.58-2.98,.38-4.95-.6,1.14-.63,2-1.1,2.85-1.57l-.32-.7c-1.04,.36-2.07,.72-3.11,1.08-1.32,.46-2.57,.71-3.78-.39-.31-.28-1.08-.33-1.5-.16-2.19,.88-3.99-.02-5.54-1.33-.57-.48-.54-1.67-1.13-2.49l-.23,1.31c-2.12-.38-4.14-.75-6.16-1.12-.66-1.59-1.92,.07-2.76-.51,.11-.33,.15-.89,.35-.96,.83-.27,1.71-.4,2.61-.59v-1.76l-1.97-.48c-.37,.54-.58,1.18-.85,1.21-2.61,.24-5.24,.38-7.7,.54l-.81-3.21c-1,1.41-1.68,2.37-2.37,3.34l.26-2.45-1.71-.17c1.81-.94,1.21-2.22,1.01-3.73-.31-2.32-.92-4.79,.58-7.05,.28-.42,.21-1.11,.21-1.68,.02-3.17,0-6.34,.32-9.51v12.75c4.14,1.53,8.56,3.17,13.41,4.96-.51-.62-.74-.89-.97-1.17,.2-.56,.61-1.12,.59-1.66-.09-2.46-.36-4.91-.43-7.37-.02-.71,.43-1.44,.59-1.94-.41-1.22-.82-2.41-1.28-3.8,0,4.67-.01,9.16,.03,13.65,0,.39,.37,.78,.57,1.18-3.6-1.27-7.22-2.52-10.79-3.87-.39-.15-.77-.94-.76-1.43,.03-2.98,0-5.98,.33-8.94,.25-2.15-.83-3.54-1.98-4.99-.7-.89-1.02-5.3-.47-6.16,.45-.71,.87-1.55,.96-2.37,.15-1.45,.04-2.92,.24-4.39,0,1.44-.04,2.89,.02,4.33,.02,.54,.17,1.46,.44,1.54,1.66,.45,3.38,.71,5.07,1.03,.02-.18,.03-.37,.05-.55,.32,.39,.55,.95,.96,1.14,2.62,1.24,2.59,1.2,1.95,3.86-.26,1.07-.29,2.2-.45,3.47l1.98-.41-2.5,2.87-.39-2.01-.19,.03c-.45,3.21-.9,6.43-1.35,9.68l-2.99-.92v-7.52h-.71c0,2.61-.51,5.36,.22,7.74,.34,1.12,3.06,1.51,4.61,2.19l.1-1.76,.53,.08v2.87c-1.64-.64-3.32-1.29-5.01-1.94l-.56,.48c.39,.62,.64,1.58,1.18,1.8,2.53,1.02,5.15,1.84,7.79,2.75,0-4.47-.04-8.73,.03-12.99,.02-.99,.4-1.98,.61-2.92l2.28,.37c-.23-1.74-.42-3.21-.62-4.68,.6,.07,1.19,.14,2.5,.29-.69-1-1.1-1.61-1.53-2.2-.25-.34-.85-.77-.77-.95,.76-1.82-1.03-2.07-1.84-3.43l-.26,2.89c-.13-.19-.36-.37-.38-.56-.26-2.88-.25-2.88-3-2.03-.42,.13-.86,.23-1.29,.26-1.21,.08-1.4,.65-.84,1.63h-.06Zm20.24-29.2c-.96-.3-1.91-.62-2.88-.87-.32-.08-.76-.04-1.01,.14-.15,.1-.16,.66-.02,.87,.9,1.3,3.06,1.17,3.9-.19-.85,2.54,2.31,1.33,2.68,2.77,.01,.04,1.14-.21,1.74-.33v-.44c-1.48-.66-2.95-1.31-4.42-1.94h.01Zm15.25,43.05c.61-.99,1.21-1.97,1.84-2.99-2.03-.33-2.54-.09-2.8,1.33-.15,.85-.31,1.75,1.08,1.56l-1.39,1.43c3.19,.47,2.83-2.03,3.51-3.56-.75,.75-1.49,1.5-2.24,2.25v-.02Zm5.84-16.88c.32-.08,.92-.17,.92-.23-.05-1.61-.17-3.21-.28-4.81l-1.02,.1c.14,1.66,.28,3.32,.44,5-.86,3.25-.44,5.72,1.53,5.63-.55-1.97-1.07-3.82-1.58-5.68h0ZM13.81,114.88h1.28l.1-.48c-1.68-.94-3.37-1.87-5.05-2.81l-.54,.65c.44,.51,.79,1.18,1.35,1.49,.9,.52,1.94,.81,2.93,1.2h-1.56l-.21,.61,2.84,1.11,.34-.6-1.48-1.18h0Zm-8.78-3.73c.65,.5,1.31,.98,1.94,1.5,.45,.36,.86,.77,1.28,1.14l-.46-3.39,.38-.05,.21,1.58,.33-.11-.64-2.24-.47,.14-.23,1.36h-.32l-.36-2.01-.36,1.67-.27-.02-.23-1.6-.81,2.1c-.04-.96,.85-2.13-.6-2.76-.18-.08-.49,.16-.74,.26,.06,.15,.08,.38,.18,.42,.21,.08,.45,.05,.68,.06l-.24,1.14-1.26-.56c-.07-.84,0-1.46-.22-1.95-.1-.22-.77-.19-1.18-.28v2.97c1.38,.27,2.38,.46,3.39,.63Zm49.87,5.9c1.28,.43,2.62,1.71,3.77-.31l-1.93-.65,.15-.39,3.59,1.33c-.42-.54-.63-1.08-.98-1.2-1.2-.41-2.56-.48-3.67-1.05-1.46-.75-1.83,1.11-2.95,.95l.3,.48c-.29,.28-.6,.54-.88,.83-.42,.42-.82,.85-1.25,1.31,1.59,.92,2.56-.76,3.86-1.3h0ZM6.33,57.94c.82,.96,1.64,1.93,2.42,2.84,.93-2.43,.48-3.89-1.14-4.26l-1.32,1.47c-1.74-.82-1.47-2.24-1.3-3.84l3.93,1.11c.41-3.24,.35-3.47-1-4.09l-.16,3.11-3.75-1.29,.32,6.39c.81-.58,1.4-1,1.99-1.43h0Zm19.44,34.18l1.15-.08c.44,1.12,.89,2.23,1.33,3.34l2.06,2c3.23-1.19,6.54-2.34,9.78-3.65,.6-.24,.95-1.11,1.41-1.7-.78-.2-1.64-.73-2.33-.56-2.57,.64-4.97,1.83-7.63,2.28-1.16,.2-2.21,1.06-3.3,1.62,.43-.48,.89-.93,1.26-1.45,.1-.15-.09-.5-.15-.76,.34-.17,.68-.34,1.03-.5,2.07,.81,3.22-.07,3.13-2.19-.09-2.28-.59-4.82,.22-6.79,1.17-2.84,.21-5.46,.58-8.35l-1.96,.39v16.13l-1.93,.85c-.04-.23-.13-.65-.12-.66,1.51-.38,1.41-1.59,1.41-2.72,0-9.04-.02-18.07,.01-27.11,0-1.35-.36-2.19-2.04-2.22v9.05l-4.6-1.38-.07,.33,1.57,.78-.09,.18-1.39-.25-.64,2.81h-.22c-.19-1.73-.39-3.48-.59-5.23l1.4,.34c-.07-1.27-.15-2.34-.19-3.41-.04-1.08-.03-2.17-.04-3.25-.04-3.07-.53-3.58-3.87-3.82,0,5.03-.08,10.06,.07,15.08,.03,.95,.92,1.87,1.4,2.82,.07,.14,.06,.33,.1,.59l-1.54-.56c0,4.73-.04,9.25,.06,13.77,.01,.51,.72,1.26,1.26,1.44,1.64,.56,3.36,.89,5.04,1.31-.61-.04-1.22-.15-1.82-.1-.88,.08-1.82,.19-1.54,1.51l-2.57,2.26c2.42,.83,4.73,1.63,7.49,2.59l-3.13-4.74h0Zm24.5,6.28c-.21,1.15-.65,2.32-.59,3.46,.2,3.88,.58,7.74,.86,11.09,.25-1.18,.63-2.82,.95-4.47,.06-.32-.03-.7-.14-1.03-.22-.63-.69-1.22-.74-1.85-.19-2.39-.25-4.79-.36-7.19,.11-1.34,.22-2.68,.36-4.47,.29,1.26,.47,2.07,.66,2.89,1.01-2.91-.13-7.68-1.86-8.57,0,3.13-.03,6.17,.04,9.21,0,.31,.55,.61,.84,.93h-.02Zm7.38-7.92c.41-.32,1.16-.63,1.17-.96,.07-5.37,.05-10.73,.05-16.1l-.43-.23c-.45,.44-1.07,.81-1.28,1.35-.13,.32,.4,.89,.59,1.27-.17,.48-.55,1.05-.55,1.62,0,3.37,.07,6.74,.16,10.11,.03,1,.23,1.99,.35,2.98l-.72-.04c-.07-1.2-.16-2.4-.2-3.61-.14-4.23-.88-4.66-4.57-2.75v9.12c1.87-1.1,3.35-1.96,4.83-2.82-.08,3.68-.16,7.36-.22,11.04-.02,1.17,0,2.33,0,3.68,1.99-1.16,2.17-1.45,2.15-3.12-.02-2.41,.11-4.84-.11-7.24-.13-1.46-.79-2.87-1.22-4.3Zm-3.95-36.06l-.76,1.2,2.81-1.08v6.74l.53,.35c.07-.25,.2-.5,.2-.75,0-2.22,0-4.44-.07-6.66,0-.26-.55-.51-.84-.76,1.57-.77,.87-2.21,.96-3.39,.09-1.13-.05-2.34-1.57-2.32-1.44,.02-3.12,0-3.27,2.04-.12,1.67-.02,3.36-.02,5.1l2.04-.47h-.01Zm-36.25,16.15c.32-.3,.92-.6,.93-.91,.07-2.98,.04-5.97,.04-9.48-1.2,1.11-3.32-.72-3.18,1.77l-2.21-.18-.49,4.01c2.82,.3,5.06,1.44,4.94,4.83l-5.09-2.12,3.16,.64,.26-.53-4.28-3.17c.28-.79,.63-1.62,.82-2.48,.03-.13-.69-.42-1.04-.64,.39-.44,1.08-.85,1.12-1.32,.27-3.04,.4-6.1,.58-9.15l.54-.09c-.63,2.59,.99,2.85,2.98,2.95v-3.11l.36-.03c.25,2.5,.5,5,.76,7.5,.43-2.44,.46-4.82,.4-7.19,0-.33-.54-.95-.78-.92-1.64,.16-2.65-1.25-4.08-1.54-.18-.04-.37-.03-.57-.04l-.15,1.14-1.56-.53c0,3.75-.02,7.24,.02,10.73,0,.54,.27,1.08,.41,1.61-.73-.21-1.45-.41-2.17-.64-.49-.15-1.18-.19-1.43-.53-1.02-1.4-2.52-1.71-3.96-.71-.16-3.07-.32-6.16-.48-9.36h1.87c.74-2.4-1.87-1.14-2.53-2.26v15.83c.85-1.84,3.47-2.28,6.26-.98l-3.19,.19c.26,.14,.55,.26,.8,.43,.25,.18,.47,.4,.37,.32l-4.85,.38-.19,.91c1.42,.74,2.84,1.48,4.58,2.39l-3.86-.92c-.6,1.96,0,3.11,1.94,3.61,1.22,.31,2.4,.79,3.33,1.1,.19,1.73,.3,3.23,.52,4.7,.54,3.6-.25,4.52-3.65,3.77,0-1.13,.04-2.33-.01-3.52-.05-1.22-.19-2.43-.29-3.65-.28,2.38-.38,4.73-.25,7.07,.08,1.47,2.51,2.51,3.95,1.87,.28-.12,.64-.06,.97-.09,.48-.14,.97-.21,1.47-.29,.88-.15,1.71-.26,1.66-1.53-.08-2.17-.02-4.34-.02-6.51,1.89-.15,3.83,.59,4.15,2.06,.48,2.24-.01,4.69-.1,7.42,1.83,1.04,1.46,3.51,2.17,5.68v-17.9c-2.68,2.1-4.82-.45-6.84-.58,.31-.78,.58-1.45,.86-2.12,.13,1.96,2.67,3.67,4.44,2.94,.26-.11,.38-.56,.57-.85l.02,.02Zm14.22,40.2c.1,.49,.2,.98,.31,1.48-.66,.33-1.32,.66-2.13,1.06-.08,1.46-.18,3.32-.29,5.27l1.74,.7,.41,4.98,.57-.1c-.11-2.1,.83-4.33-1.1-6.21-.58-.57-.86-1.45-1.28-2.19l.34-.2,.29,1.74,.73,.04,.67-5.15,1.58,1.09c0-2.35-.02-4.43,0-6.5,.02-1.89-.08-3.81,.18-5.67,.35-2.58,3.02-1.62,4.45-2.6,.36-.24,.83-.31,1.25-.46,2.39-.83,2.5-1.24,.81-3.3-3.83,1.43-7.68,2.87-11.7,4.37,1.62,.49,2.98,.9,4.89,1.47l-1.68,.58c0,2.28,.1,4.4-.06,6.49-.06,.74-.75,1.43-1.13,2.08,.17,.16,.68,.63,1.18,1.1-.49-.07-1.01-.05-1.47-.22-2.45-.89-4.88-1.84-7.33-2.73-.6-.22-1.24-.31-1.87-.46l-.16,.56c3.26,1.15,6.51,2.31,9.78,3.4,.24,.08,.65-.39,.99-.61h.03ZM10.47,30.43l-.02-.07c.26,.81,.68,1.62,.73,2.45,.11,1.77,.11,3.56,0,5.34-.11,1.69,.53,2.54,2.19,2.94,1.89,.45,4.03,.79,4.14,3.45,0,.02,.22,.03,.86,.09-.23-2.65-.54-5.22-.66-7.79-.11-2.52-.02-5.04-.02-7.37-1.67-.58-3.42-.07-4.6-1.48l1.39-.11c-.15-.46-.22-1.09-.38-1.11-1.95-.25-1.48-2.13-1.27-2.8,.7-2.23-1.03-3.47-1.69-5.33-1.15,1.53-2.03,3.1-2.63,4.77-.55,1.5,.31,2.48,1.68,3.09,.68,.3,1.33,.68,2,1.03l-5.87-.6c0,3.63-.02,7.37,.03,11.1,0,.34,.49,.68,.75,1.01l.64-.14c.17-1.73,.49-3.46,.48-5.19,0-1.68-.34-3.35-.53-5.03l.23-.16,1.04,1.92h1.51Zm24.53,30.59c-1.97,0-2.92,.82-2.86,2.47,.06,1.66,.14,3.32,.16,4.98,.03,2.14,0,4.27,0,6.61,3.18-.85,6.01-1.59,8.83-2.38,.31-.09,.75-.44,.76-.7,.08-1.33,.04-2.68,.04-4.01-1.73,3.15-5.01,2.16-7.51,3.62,.2-3.75,.38-7.1,.57-10.59h.01Zm-25.53,28.78c-.08-3.17-.17-3.28-3.36-3.96-.62-.13-1.26-.21-1.88-.34-1.06-.24-2.45-.59-2.77,.66-.35,1.38-.59,3.53,.18,4.31,1.57,1.59,3.69,2.92,6.15,2.88,.5,0,1.18-.74,1.42-1.3,.29-.66,.19-1.49,.26-2.24h0Zm34.09-20.64l-.83-.03v16.15c.44-.47,.55-1,.6-1.53,.27-2.67-1.56-5.7,1.38-7.92,.08-.06,.09-.2,.13-.31,.68,1.53,1.69,.86,2.27,.11,1.93-2.49,1.04-5.3,.9-8.27l-3.93,.98v6.48h-.53v-5.66h0Zm3.55-41.61c-1.76,5.27-4.28,10.28-5.18,15.91,.83-.3,1.53-.73,1.78-1.34,.38-.9,.26-2.01,.67-2.88,1.64-3.44,3.42-6.81,5.12-10.22,.15-.3,.11-.68,.17-1.1l-2.57-.37h.01Zm-31.03,21.11l-.31,.45c.34,.33,.63,.81,1.04,.96,4.95,1.84,9.91,3.65,14.89,5.4,.6,.21,1.42,.28,1.99,.05,2.48-.98,4.93-2.05,7.35-3.2,.5-.24,.8-.92,1.19-1.4l-.52-.55c-2.91,1.4-5.81,2.81-8.79,4.24-5.37-1.9-11.11-3.93-16.84-5.96h0Zm3.8-3.4l.49-.09c.15,1,.28,2.01,.46,3.01,.1,.53,.13,1.22,.46,1.52,1.35,1.22,3.79,1.22,5.27,.15,.45-.32,.92-.61,1.98-1.32-2.9-1.41-5.4-2.6-7.89-3.83-1.43-.71-2.19,.14-2.6,1.25-.29,.77-.16,1.7-.22,2.65l2.36,.39c-.12-1.41-.21-2.57-.31-3.73Zm37.46-4.44c-1.01,3.26,.47,6.41,.02,9.65-.45,3.28-.1,6.68-.1,10.02l.51-.03c.35-1.1,.95-2.2,1-3.32,.12-2.71-.02-5.43-.07-8.15,0-.56-.35-1.5-.15-1.62,1.77-1.05,.81-2.71,1.06-4.09,.3-1.67-.39-2.52-2.26-2.48v.02h-.01Zm-41.52,1.87c-1.59,2.49-3.29,.71-4.84,.53-1.67-.2-3.77-.33-4.35-2.69v3.59l7.49,2.7,.57-2.19c0,.46-.06,.73,.01,.96,.16,.52,.38,1.03,.62,1.52,.01,.03,.71-.14,.75-.31,.12-.5,.12-1.04,.09-1.56-.04-.65-.17-1.3-.35-2.56h.01Zm32.1,19.04c-1.4,.71-2.45,1.45-3.62,1.78-2.15,.6-1.03,2.2-1.17,3.38-.03,.23,.75,.84,.97,.76,1.35-.51,3.4,.11,3.79-2.01,.2-1.09,.03-2.24,.03-3.91Zm-6.22,11.84l-.54-.16c-.2,.72-.54,1.44-.56,2.17-.13,3.44-.17,6.88-.24,10.32-.02,.83-.08,1.66,0,2.48,.04,.33,.43,.62,.66,.93,.22-.31,.59-.6,.63-.93,.1-.75,.04-1.53,.04-2.29v-12.53h.01ZM1.82,43.54l-.33,.32c.39,.37,.71,.89,1.17,1.07,2.07,.81,4.17,1.57,6.28,2.26,2.13,.7,4.29,1.29,6.62,1.98-.07-.45-.04-.85-.15-.88-4.53-1.61-9.06-3.18-13.6-4.76h0Zm15.51,51.27l.57,.09c.13-1.5,.25-3.01,.38-4.58l-2.12-.73c.09,1.87,.17,3.44,.25,4.94-.01,0-.19-.15-.36-.15-.51,0-1.02,.07-1.52,.11,.32,.39,.58,.94,.99,1.12,.93,.4,1.94,.62,2.92,.91l.27-.55-1.37-1.17h0Zm2.42-6.38l.45-.02v-18.28h-.45v18.31h0ZM25.9,20.05c.83-2.55,1.6-4.93,2.44-7.54h-3.19v.43l2.31,.53c-.93,1.17-3.29-.13-3.46,2.29l1.9,.12v4.17Zm30.15,47.89c-2.74,.91-4.04,2.17-3.9,3.79,3.89-.44,4.77-1.3,3.9-3.79Zm-14.28-9.81l-1.07,.03c0,1.43,.02,2.87,0,4.3-.02,1.27,.24,2.68-.23,3.77-.42,.98-1.66,1.61-2.53,2.39,1.46-.6,3.53-1.35,3.75-2.47,.51-2.58,.11-5.33,.09-8.01h-.01Zm8.73,20.39c1.12-2.72,.52-6.11-1.5-9.75,0,.06-.02,.13-.03,.19-.68,3.38,1.62,6.26,1.53,9.56Zm-26.52,36.11v-4.13l-2.35-.66c-.68,3.93-.48,4.35,2.35,4.79Zm26.31-52.02l.46-.07v-13.68h-.46v13.74h0Zm-31.19-21.06c2.23-1.66-.16-3.71,.66-5.8,.36,1.09,.6,1.8,.83,2.5l.2-.05v-4.47c-1.54,.46-2.5,5.03-1.69,7.82Zm-4.81-22.82l-1.98-2.65-.43,.18c1.16,2.21,2.47,4.38,2.67,6.91,0,.09,.65,.3,.8,.18,.24-.18,.52-.64,.44-.87-.35-1.06-.82-2.08-1.25-3.12l.3,.08,.37-2.24-.66-.08-.26,1.61Zm42.33,46.53c-4.46,1.31-5.25,1.62-3.79,3.5,.9-1.51,3.95-.51,3.79-3.5Zm-31.55,52.37l-.54-.15c-.18,.53-.46,1.06-.51,1.6-.1,1.25-.19,2.51-.07,3.75,.04,.46,.67,.86,1.03,1.28,.25-.42,.75-.86,.72-1.26-.13-1.75-.41-3.48-.64-5.22h.01Zm23.12-29.33v-11.09l-.82,.03c.16,3.69-.71,7.43,.82,11.06Zm6.35-26.28c-.15-1.49-.27-2.77-.42-4.24-2.83,.95-1.13,3.01-1.86,4.59l2.28-.34h0Zm-7.13-1.03l.4-.07v-7.03l-.4,.03v7.07Zm2.88-14c-2.6,1.03-4.74,1.87-7.25,2.87,2.18,.69,5.91-.77,7.25-2.87Zm-30.11,50.36h-.24v10.11h.24v-10.11Zm27.77,20.78l-6.17-.93c1.2,.94,2.34,1.72,3.59,2.25,.65,.28,1.56,.31,2.22,.07,.31-.11,.3-1.11,.37-1.39h0Zm-28.61-53.87l-.13-.05v4.36c1.07-.81,1.41-8.4,.5-12.63v9.81h-.23l-.14-1.49Zm7.58,35.34h-.6c.16,3.06-.42,6.15,.6,9.16v-9.16Zm18.95-52.45l.66-3.05c-.78,.13-1.82,.03-2.05,.41-.55,.9-.71,2.04-1.03,3.11l2.43-.47h-.01ZM27.57,115.8v-4.67c-.76,.47-1.55,.69-1.65,1.07-.57,2.24-.1,3.22,1.65,3.6Zm12.45-41.63c-3.41,.53-5.08,1.27-5.01,2.21,1.72-.72,3.78-.57,5.01-2.21Zm15.39-36.08l.61,3.73h.16v-2.96l3.29,2.04c.18-1.93-.31-2.23-4.06-2.8h0ZM9.72,56.09h-.37l.56,5.29,.57-.05v-8.68h-.25l-.22,5.08h-.1l-.19-1.63h0Zm39.21,42.09l-.29,.05v16.08h.29v-16.13ZM18.73,61.68h.44v-7.47h-.44v7.47Zm.81,56.63c-.53,1.59-.12,2.72,1.24,3.39,.35-1.77-.07-2.9-1.24-3.39Zm25.5-17.21h-.19v13.32h.19v-13.32Zm11.34-24.64l-.52,.04c-.56,2.39-.29,4.77,.77,5.18-.08-1.79-.16-3.51-.24-5.22h0Zm-.54,28.67l.3,.06v-12.84h-.3v12.78ZM26.02,58.97v8.34l.92-.28c-1.13-2.66-.05-5.53-.92-8.06Zm30.34,51.04l-.59-.55c-1.01,.68-2.79,.67-2.01,2.98l2.61-2.43h-.01ZM15.99,8.16c2.35,.96,5.02,1.35,7.17-.32l-7.17,.32ZM59.71,96.96l.44-.08v-3.9l-.44,.02v3.96Zm-30.47,15.6l-.62,.07c-.94,2.03-.73,3.33,.84,4.16l-.22-4.23Zm29.08-42.52c.35-1.3,.6-2.24,.9-3.37-2.8,.74-2.9,1.05-.9,3.37Zm-6.88-5.31l-.49,.07-1.86-1.47c-.77,2.16,1.47,1.99,2.24,3.47l.12-2.08h0Zm5.13,6.37c-1.44,.61-1.56,2.29-.24,3.94l.24-3.94Zm-4.92,28.07h-.35v5.85h.35v-5.85Zm-33.95,7.3l-.61-.14-1.23,4.32,.88,.21c.32-1.47,.64-2.93,.96-4.4h0Zm-1.28,5.28l-.48-.02v5.03h.48v-5.01Zm42.69-47.6c-1.16,.54-2.74,.47-2.02,2.45,1.07-.44,2.53-.4,2.02-2.45ZM21.71,3.6l-.57,.07v3.12l1.7-1.2-1.12-2h-.01ZM13.2,60.07l.66-.09-.21-4.45-.45,.02v4.52Zm12.2,51.06l-.64,.03,.22,4.3,.42-.03v-4.3Zm-5.01-19.2l3.51-1.67-2.91-.5-.59,2.17h-.01Zm39.41-.88h.34v-4.5h-.34v4.5Z" fill="#41463d"/><path d="M7.09,120.94c1.16,.74,1.26,.03,1.22-.8,1.28,.11,2.56,.23,3.85,.34,.84,.58,2.11-1.08,2.76,.51-.39,.28-.76,.79-1.16,.81-1.51,.07-3.04,.07-4.55-.08-.72-.07-1.41-.52-2.12-.79h0Z" fill="#41463d"/><path d="M42.62,131.37c-.78-.41-2.62,1.17-2.9-1.14-.38-3.12-.13-3.34,3.62-3.98-1.22,.63-2.36,.93-3.01,1.66-.43,.48-.53,1.91-.14,2.33,.62,.67,1.76,.85,2.44,1.13h0Z" fill="#41463d"/><path d="M67.78,75.01c.45,1.29,.82,2.38,1.24,3.61h-1.58l.33-3.61h.01Z" fill="#41463d"/><path d="M10.47,30.43c1.6,.51,3.21,.98,4.77,1.56,.21,.08,.27,.73,.27,1.12,.02,2.5,.01,5,.01,7.8l1.92-1.07-.75,1.61-4.98-1.66c0-2.31-.08-4.66,.03-6.99,.06-1.17-.31-1.91-1.29-2.44l.02,.07Z" fill="#41463d"/><path d="M31.65,28.42c-.52,.81-.98,1.51-1.44,2.23,.15-1.02,.31-2.08,.51-3.38l3.94,1.14c-.98,.07-1.82,2.05-3.01,.01Z" fill="#41463d"/><path d="M13.2,85.49c.28,.4,.61,.77,.84,1.2,.41,.75,.77,1.53,1.15,2.3-1.38,1.09-1.47-1.08-1.99-.94v-2.55h0Z" fill="#41463d"/><path d="M29.88,75.63v12.12l-4.59-1.33-.39,.43,1.94,1.91h-2.19c-.11-2.51-.26-5-.31-7.49-.05-2.77-.01-5.54-.01-8.83,1.88,.95,3.6,1.82,5.33,2.69l-3.78-1.27c.11,1.81,1.51,2.34,4,1.77Z" fill="#41463d"/></g></g></g></g></svg>