<?xml version="1.0" encoding="utf-8"?>
<!-- Generator: Adobe Illustrator 26.3.1, SVG Export Plug-In . SVG Version: 6.00 Build 0)  -->
<svg version="1.1" id="b" xmlns="http://www.w3.org/2000/svg" xmlns:xlink="http://www.w3.org/1999/xlink" x="0px" y="0px"
	 viewBox="0 0 173.3 128" style="enable-background:new 0 0 173.3 128;" xml:space="preserve">
<style type="text/css">
	.st0{fill:#E4D6A7;}
	.st1{fill:#41463D;}
</style>
<path class="st0" d="M4,97.4l33.1-14.3l-5.2-8.5l2.6,0L49.2,68l9.4-5.2c0,0,1-3.8,1.6-9.1s-0.1-12.8-0.1-12.8l1.3-18.9L76,28.1
	l8,8.9l-2.4-19.1L88.7,34l1.8-26.3L118.6,2l12,9.5l2.3,69.4L165,98l-50,15.7L43,107.3L4,97.4z"/>
<g id="c">
	<g id="d">
		<g id="e">
			<g>
				<path class="st1" d="M127.4,105.9c-1,0.4-2,0.9-3,1.3c-2.4,0.9-4.8,1.9-7.2,2.6c-0.7,0.2-1.5-0.1-2.3,0c2,0.6,3,3.3,5.6,2.5
					c2.1-0.7,4.1-1.4,6.2-2.1l0.2,0.5l-5.8,2.3l0.6,1.2l-2.6,0.6l0.9-1.1l-0.2-0.6c-2,0.6-3.9,1.1-5.9,1.7l-2.5-3.2l-0.3,0.2
					l1.1,2.7c-1.4,0-2.8,0.4-3.7-0.1c-0.9-0.5-1.3-1.8-2-3.1c-1.4,0.1-3.1,0.1-4-1.8c0.5-0.6,1-1.2,1.5-1.8c-2.9-2.4-3.6,0.6-5,1.5
					l0.2,0.4l2.9-2l0.4,1.9l-2.6,0.3c1.3,1.2,2.2,1.9,3.2,2.8l-2.1,1.8l-0.3-0.2l1-1.2c-1.5-0.4-2.8-0.8-4.2-1.1
					c-1.4-0.3-2.4-0.9-1.9-2.5l-3.1,0.5l-0.1-0.5l2-0.7c-1-1-4.3-1.4-5.3-0.8c-0.5,0.3-1,0.7-1.6,1.1l0.1-0.1l-2.1-0.5
					c-0.8,0.5-1.9,1.6-3.3,1.9c-1.4,0.3-2.9-0.3-4.4-0.4c-0.7,0-1.3,0.2-2,0.3c-0.9,0.1-1.8,0.2-2.6,0.2c-0.1-0.8-0.2-1.4-0.3-2
					c0.3,0.2,0.7,0.6,1.1,0.7c0.5,0.2,1.1,0.2,1.6,0.3c0-0.5,0.2-1.3,0-1.5c-0.4-0.3-1.1-0.3-1.7-0.2c-0.4,0.1-0.7,0.4-1,0.7
					l-0.7-0.4c0,0.8,0,1.5-0.1,2.2c0,0.1-0.7,0.1-1,0.1v-1.9l-1.2,1.3l-1-1.1l0.5,0.1l0.4-1.4c-2,0.5-3.6,0.9-5.1,1.3l3.3,3.4
					l-0.4,0.5l-3.9-0.8l-1.5,3.2c-0.7-0.4-2-0.8-2.1-1.3c-0.2-1.7-0.1-3.4,0.2-5c0.3-1.4,0.5-1.4-0.6-1.9c-0.8-0.5-1.5-1-2.2-1.5
					l-2.4,2.2l4.7-0.7l-0.6,2l-1.5-0.6l0.2,3.3l1.2-0.2l0.2,0.4l-2.3,1.1l-0.2-3.4c-1.7,0.3-3.5,2.2-3.9,4.2l-1.7-2l-1.9,2
					c-0.1-0.3-0.2-0.6-0.3-0.9c-0.6,0.1-1.3,0.2-2.1,0.4l0.5-1.6c-2.1,0.8-4.1,1.5-6.5,2.5l-0.6-2.8l-0.1,0.1c3.3-1,6.7-1.8,9.5-4.8
					c-0.8,0-1.1,0-1.3,0c-0.2,0-0.4,0.1-0.8-0.1l1.9-1l-0.1-0.4h-6.1c0.5-0.3,1-0.9,1.5-0.9c1.5-0.1,2.3-0.6,2.1-2.2
					c0.2,0,0.3,0,0.3,0c2.2,2.1,2.9,2.2,5.4,0.1c2.2-1.9,4.2-3.9,6.2-5.9L58,95.2c-1.2,1.4-2.5,2.8-3.8,4.2
					c-1.1,1.2-2.2,1.6-3.5,0.4c-0.4-0.3-0.9-0.5-1.3-0.7l0.5-2.4l-0.4-0.2c0.5-0.4,1-0.8,1.4-1.2c0.1,0.5,0.2,1.1,0.3,1.6l1.7-0.5
					l-0.2-0.5l-0.9,0.4l-0.4-0.4c5.2-1.9,6.7-7.3,10.6-10.4l-4,5.9c0.6-0.2,1.1-0.6,1.4-1c2.4-3.4,4.7-6.8,7.1-10.2
					c0.8-1.1,1.6-2.1,2.4-3.2c0.1,1.6-0.9,2.7-1.6,4.1c-2.5,4.3-4.8,8.8-7.1,13.2c-0.2,0.5-0.4,1-0.7,1.5c1.9-1.2,3.3-2.7,3.9-4.9
					c0.4-1.7,1-3.5,1.8-5c1.2-2.3,2.9-4.4,4.1-6.7c1.1-2.1,1.9-4.4,2.9-6.6c0.2-0.5,0.2-1,0.5-1.4c3.2-4.5,6.5-9,9.8-13.5
					c0.3-0.4,0.4-0.8,0.6-1.3c2-2.6,4-5.2,6-7.8L88.4,48l-5.2,8.3c-1.6,1.6-3.3,3-4.6,4.8c-3.6,4.7-7,9.5-10.6,14.2
					c-2.1,2.7-3.7,5.8-6.5,8.1c-2,1.6-3.1,4.2-4.7,6.2c-1.3,1.6-2.8,3.1-4.2,4.6c3.9-5.3,7.7-10.5,11.6-15.8L63.7,78l-3.1,3.7
					l-0.6-3l-0.5,0.1c0.1,0.6,0.3,1.1,0.2,1.7c-0.1,1.1,0,2.3-0.5,3.1c-1.8,2.8-3.9,5.6-5.8,8.3c-0.4,0.6-0.6,1.4-1,2.2l-1.7,1.2
					l0.6-1.8l-1.4,1.2l-2.7-1.9v5h-4.9l0.5,1.8l-0.2,0.1l-0.8-1.2l-0.9,1.3c-0.2-0.1-0.3-0.1-0.4-0.2c-0.5-1.2-0.8-2.4-2.1-0.4
					c-0.3,0.6-1.6,0.9-2.4,0.8c-2.2-0.4-2,0.9-2.1,2.3c-2.7-0.8-1.2-4.8-3.7-5.4c0.6,1.9,1.2,3.8,1.8,5.7c0.3,0.8,0.7,1.5,1.1,2.3
					c-1,0.5-4.3-3.3-6.5-7.8c-0.9,0.3-2.6,0-5.3-0.8l-0.4,0.4l3.4,2.4c-1.2,1-2,1.7-3.1,2.7l1.5,1.9c-2.8-0.2-6.2-0.3-9.8-0.5
					l-0.3-1.4l-1.9-0.6l0.1,0.1c1.3-1,2.6-2.1,3.9-3.2c0.2-0.1-0.1-0.7-0.1-1.1l-5.2,3.9l-0.9-4.6l-0.5,0.1l1.2-1.5l1.2,1.5l0.8-1.1
					l0.3,1.1l0.4-1.9l1.1,1.4l0.5-4.6l0.6,0v3.5l0.4,0.1c0.3-0.9,0.6-1.9,0.9-2.8c0.3-0.9,0.4-1.9,0.6-2.3l1.7,3.6l2.7-3.1
					c1.3,0.2,4.5-1.8,5-3.8l0.4,1.5l0.9-1.6c1.1,1.4,2.3,1.9,3.6,0l0.4,1.9l0.5,0.1l0.7-2.4l1.4,0.8l0.3-1.5l1.8,2.2l0.3-0.2
					l-0.3-2.3c1,1.4,1.8,2.5,2.6,3.6l0.5-0.3c-0.2-0.4-0.4-0.8-0.5-1.3c-0.4-1-1.9-1.6-0.8-3.1c0.2-0.2-0.4-1-0.7-1.5
					c-0.6-1.2-1.3-2.4-2-3.6l2.5-1.2l-0.3-0.7l-2.2,1c-1.2-1.5-2.5-3-3.7-4.6c2.9-1.6,3-1.6,5.8,2.4c0.9-0.4,1.9-1,2.9-1.2
					c1.1-0.2,2.2-0.2,2.2,1.5c0,0.5,0.6,1,0.9,1.5l0.5-0.2l-0.5,1.7l0.4,0.2c0.4-0.7,0.7-1.5,1.2-2.2c0.4-0.6,0.4-1.9,1.8-1.4
					c0.1,0,0.4-0.2,0.4-0.3c-0.1-2.9,2.4-1.8,3.6-2c3.1-0.6,6.3-0.6,9.5-0.9c-4.9-1.5-9.8-1.5-14.8,0.4l-0.1-0.5
					c0.5-0.3,1-0.7,1.6-0.8c1.5-0.2,1.9-1,1.8-2.5c-0.1-0.7,0.4-1.6,0.8-2.3c0.5-0.9,1.4-1.7,1.8-2.7c0.7-1.9,2.2-1.7,3.6-1.6
					c1,0,2.1,0,3.1,0c0.5,0,1,0.1,1.4,0.1c-0.3,0.3-0.6,0.6-1,0.9c-0.1,0.1-0.3,0.2-0.5,0.3l1.4,2.4l0.3,0.1l-0.2-2.4
					c0.5,0,1.1,0.1,1.5-0.1c0.4-0.2,1-0.9,1-1.3c-0.1-4.8-0.3-9.5-0.3-14.3c0-1.9-0.8-2.9-2.6-3.4c-1-0.2-2-0.5-2.9-0.9
					c-1.4-0.5-2.3-1.5-2.1-3.2l2,0.6c0.6-2.8,3.3-1.6,4.9-3.1v2.4l-2.8-0.3l-0.2,0.8c1,0.3,2,1,2.8,0.8c1.2-0.3,1.5-1.3,1.2-2.8
					c-0.4-2.8-0.3-5.7-0.4-8.6c0-1.2-0.1-2.4-0.1-3.6c0-0.7,0.2-1.3,0.3-2l1.7,0.8c4.3-1,8.7-1.5,13.2-1l1.6-1.6
					c0.4,6,0.8,11.5,1.2,17.2l2.1-1.2c-0.7,1.6-3.2,2.3-1.7,4.2c0.4,0.5,1.4,0.5,2.6,0.8l-0.4,2.2l2.2-1.3l-2.4-2.8
					c0.1-1.9,0.1-3.8,0.3-5.6c0.1-0.8,0.5-1.5,0.7-2.3c0.2-0.7,0.4-1.4,0.5-2.1c0.6-3.8-0.6-7.5-0.6-11.3c0.1-2.2,0.8-4.4,1.2-6.6
					l0.9,0c-0.7,5.3,0.5,10.3,1.5,15.6c0.6-0.9,1.1-1.6,1.5-2.3l0.3,0.1c-0.1,1.9-0.2,3.7-0.3,5.5l3.9,0.2c0.8-5,0.2-10,0.7-15.1
					c0.1,0.5,0.2,1.1,0.3,1.6c0.1,2,0,4.1,0.2,6.1c0.1,1.7,0.3,3.5,0.9,5.1c0.3,0.8,1.3,1.3,2.1,1.9c0.7,0.6,1.5,1.1,2.4,1.7
					l0.3-1.4c0.7,0.8,1.3,1.5,2.1,2.1c0.2,0.2,1.2,0.1,1.2,0c0.3-1.7,1.6-0.8,2.6-1.1c0.3,1.8,0.9,2.8,3,2.5c0.9-0.1,2.1,0.6,3,1.2
					c1.5,1,2,0.2,2-1.1c0-7,0.1-14-0.1-21c0-2.7-0.7-3.2-3-3c0.3,1.4,0.7,2.7,1,4.1l-0.4,0.1l-3.4-3.3l0.8-1c-1.4-1.4-4.1-2.1-5-1
					c-0.6,0.7-0.6,1.9-0.9,3.1c2.3,0,2.6-1.2,2.5-2.6c1.3,1,2,3.5,1.3,5.8c-0.2-0.9-0.2-1.4-0.3-2c-0.1-0.6-0.2-1.1-0.2-1.3
					c-1.1,0.2-2.2,0.7-2.9,0.4c-1.2-0.5-1.2-3.1-0.3-4.9c-1.6-0.4-2.2,0.3-2.2,1.8v6.4h-0.7v-8.3l-2.8,2.8l-0.2-1.8l-1.5,0.9l2,1.7
					l-1.5,1c-2-1.7-0.3-3.8-0.3-5.7L93,9.5L92,11.6l-1.5-3.8c-2.1-0.2-1.2-1.5-0.5-3.2c0.6,3.1,3.2,2.5,4.9,3.1
					c4.3,1.4,8.8,2.6,13.3,3.6c1.7,0.4,3.7,0.4,5.4,0.1c5.8-1.1,11.6-2.6,17.4-3.9c0.4-0.1,0.8-0.2,1.3-0.3l-0.1-0.6
					c-1.4,0.2-2.9,0.4-4.3,0.7c-5.4,1.1-10.9,2.3-16.3,3.4c-0.5,0.1-1.1-0.1-1.7-0.2C105,9.2,100.2,8,95.4,6.7
					c-1.7-0.4-3.3-1.1-4.9-1.6l0.1-0.5L97,2.7l0.1,0.4l-3.2,1.1L94,4.9c1.2-0.2,2.5-0.4,3.7-0.7c3.5-0.9,7.1-1.8,10.6-2.6
					c1.1-0.2,2.3-0.2,3.3,0.1c4.9,1.4,9.8,2.8,14.7,4.2c0.8,0.2,1.6,0.3,2.5,0c-2.1-0.7-4.2-1.3-6.4-2c-3.3-1-6.6-2-9.9-2.9
					c-2-0.6-4.1-1-6,0.3l0,0c0.7-0.5,1.5-1.4,2.1-1.3c3.4,0.5,6.7,1.1,10,2c4.3,1.2,8.6,2.7,12.9,3.9c1.8,0.5,2.6,1.3,2.6,3.3
					c-0.1,10,0.1,19.9,0,29.9c0,5.3-0.2,10.6-0.2,15.9c0,5.5,0,10.9,0,16.3c0,1.3,0.1,2.1,1.7,2.4c1.3,0.2,2.5,1,3.6,1.7
					c0.4,0.3,0.7,1,0.9,1.5c0.6,1.4,1,3.1,1.9,4.3c0.6,0.8,2.1,0.9,3.3,1.4c0,0.5-1.6,1.4,0,2.3c0.1,0-0.5,1.1-0.8,1.6l0.4,0.3
					l3.3-4.2l0.2,0.1c-1,2.1-2.1,4.2-3.1,6.3l0.5,0.3l2.2-3.2l0.5,2.8c2.3-0.6,3.7,2.6,6.3,1.5l0.4,1.8l1-1.3l0.5,1.2l0.5-0.1
					l-0.2-3.9l1.5,1.7l0.3-1.9h0.2c0.2,1.8,0.4,3.6,0.6,5.5l0.4,0c0.2-1.6,0.5-3.2,0.8-4.8l0.7,0.1v4.7l3.1-1
					c0.5,0.7-1.6,2.1,0.4,2.9l0.8-2.8l0.2,0l0.1,2l1.5,0.1l-0.9-2.9l2.4,1.8v3.8c1.4-0.6,1.8-1.5,1.9-4.1c0-1.6,0-3.2,0-4.8l0.8,0
					v8.7l0.7,0.1l0.7-2.4v4.2c-2.8,0.1-5.7,0.3-9.1,0.4l1.1-1.5c-0.1-0.1-0.2-0.2-0.2-0.2c-1.9,1.1-4.3,1.5-5.5,3.9l2.7,1.2
					c-2.6,0.4-4.6,0.7-6.6,0.9c-1.8,0.3-3.5,0.8-5.4-0.1c-0.8-0.4-2.2-0.1-3.1,0.3c-2.3,1-4-0.7-5.9-1.1c-0.3-0.1-0.4-0.9-0.6-1.4
					c-0.4-0.8-0.6-1.9-1.3-2.3c-0.5-0.3-1.6-0.1-2.3,0.3c-0.3,0.2-0.2,1.2-0.2,1.9c0.1,0.8,0.3,1.6,0.4,2.4l0.1-0.1
					c-1.9,0.4-3.7,0.8-5.6,1.2c-0.5,0.1-1.1-0.1-1.8-0.1C129.8,106.7,128.5,106,127.4,105.9c-0.2-0.7-0.4-1.5-0.8-2.7
					c-0.3,0.4-1.1,0.9-1.1,1.4c0.1,1.1,0.7,2,2.1,1.4L127.4,105.9L127.4,105.9L127.4,105.9z M71.1,96.3l1.4-0.8l-1.8,5.7l0.4,0.1
					l2.2-5.4L72,94.9C71.7,95.4,71.4,95.9,71.1,96.3c-0.5,0.1-1.2,0.1-1.7,0.3c-0.3,0.1-0.8,0.6-0.7,0.9c0.1,0.5,0.4,1,0.7,1.4
					c0.1,0.1,0.6,0.1,0.7,0C70.5,98.1,70.8,97.2,71.1,96.3L71.1,96.3L71.1,96.3z M58.2,78.1c0.3-1.1,0.5-2.3-1.6-2.9l0.4,3.7
					L58.2,78.1L56,82.2l3.3-1.2C58.3,80.2,60.2,78.6,58.2,78.1L58.2,78.1L58.2,78.1z M85.3,92.8l-1.2-3.2l-0.6,0
					c-0.2,0.6-0.6,1.2-0.5,1.7c0.1,0.4,0.9,0.7,1.4,1C84.7,92.4,85.1,92.6,85.3,92.8l0.4,2.6l-2.2-0.8c1,2.7,3.1,0.7,4.3,1.6
					l0.3-0.4C87.2,94.9,86.3,93.8,85.3,92.8L85.3,92.8L85.3,92.8z M53,103.4c-0.7,0.7-2.1,1.8-2,2.2c0.6,1.3-0.2,1.8-0.8,2.4
					c-1.4,1.2-2.9,2.2-4,3c0.7,0,1.8,0.2,2.8-0.1c0.8-0.2,1.5-1,2-1.7c0.4-0.6,0.5-1.4,0.7-2.1C52.1,105.8,52.5,104.6,53,103.4
					c0.2-0.1,0.7-0.2,0.8-0.4c0.5-1.4,1.6-1.8,2.9-1.8c-2.4,2.1-3.8,4.6-4.2,7.8c1.5-2,2.9-4.2,4.4-6.2c1.5-2,3.2-3.8,4.8-5.7
					l0.1,0.1l-1.7,2.5l0.4,0.3l12.8-13.7L73,85.9c-1.6,1.4-3.2,2.9-4.8,4.3c-2.1,1.9-4.1,3.8-6.2,5.7c-1.8,1.7-3.6,3.5-5.4,5.2
					c-0.1-0.2-0.1-0.6-0.3-0.6c-0.9-0.4-4,1.7-4,2.7C52.3,103.2,52.7,103.3,53,103.4L53,103.4L53,103.4z M72.5,45l-2.1,1.4
					c1.5,1.3,3,1,4.9,0L72.5,45c0.8-1.3,1.6-2.8,3.7-2.4v3c1-1.5,0.9-3.5,0-3.8c-1-0.3-2-0.3-3.1-0.5l-0.1,0.3l0.9,0.6L74,42.7h-2.9
					l-0.5,3C71.6,45.3,72.1,45.1,72.5,45L72.5,45L72.5,45z M93.2,35.4v3.1l3.3-1.8L93.2,35.4l-0.5-0.7l-0.3,0.1v18.2l0.7,0
					c0-1.9,0.1-3.7,0-5.6c-0.1-1.4,0.1-2.5,1.4-3.2c0,0-0.1-0.2-0.1-0.5l-1.5,0.6c0-1.3-0.1-2.5,0-3.7C92.9,38.9,93,37.1,93.2,35.4
					L93.2,35.4L93.2,35.4z M78.2,101.4l2.1-0.2l-1.4,1.3l0.4,0.4c0.7-0.6,1.4-1.3,2.2-1.9l-0.6-0.8L78.2,101.4l0.7-1.2l-0.5,0.1
					l-1.5-4.5c-0.5,1.9-1.4,1.2-2.4,0.5l-1.8,4.4l1.4,0.5l0.1-2.4C75.8,99.8,77,100.6,78.2,101.4L78.2,101.4L78.2,101.4z M86.4,74
					c-0.4,0.3-1,0.5-1.3,0.9c-2.6,3.3-5.1,6.7-7.7,10.1c-0.9,1.2-1.7,2.5-2.5,3.7l0.5,0.3c1.1-1.1,2.3-2.2,3.3-3.4
					c0.6-0.8,1-1.7,1.6-2.6C82.3,80.1,84.3,77,86.4,74c1.7-2.5,3.4-5,4.5-6.5L90,64.7L89.2,65c0.8,3.1-0.7,5.3-2.4,7.4
					C86.5,72.8,86.5,73.5,86.4,74L86.4,74L86.4,74z M106.4,89.3c-2.6,6.1-3.4,9.1-2.6,10.6c0.4-1.6,0.9-3.2,1.3-4.8
					C105.5,93.2,106,91.2,106.4,89.3l0.4-1c-0.4,0-0.9-0.2-1.2-0.1c-0.8,0.5-1.5,1.2-2.2,1.8c-2.1,1.8-4.3,3.5-6.4,5.2l-0.6-0.5
					l2.2-3.1c-1.1,0.5-1.8,1.2-2.6,1.8c-0.3,0.2-0.8,0-1.2,0c0.1-0.3,0.1-0.7,0.2-1c0.1-0.3,0.4-0.5,0.7-0.9l-3,0.3l4,4.8
					C100.1,94.1,103.2,91.7,106.4,89.3z M151.8,101.5L151.8,101.5c0,0.2,0.2,0.5,0.1,0.6c-0.2,0.3-0.6,0.4-0.9,0.6
					c0.4,0.2,0.7,0.6,1.1,0.7c1.7,0.3,2.8-0.9,4-1.8c0.9-0.7,0.9-1.2,0.3-2c-0.8-1-1.5-1.9-2.3-2.9c-2.1,0.5-4.2,0.9-6.4,1.4
					l-0.2,0.5l2.8,1.8l3.4-1.3C153.2,100.3,150.9,99.6,151.8,101.5L151.8,101.5L151.8,101.5z M45.6,76.9L47,80l1.5-1.9
					c0.4,0.7,0.7,1.3,1,1.8c0.9,1.2,2,0.9,2.8,0.1c0.5-0.6,0.5-1.6,0.6-2.5c0-0.2-0.4-0.7-0.5-0.6c-0.5,0.2-0.9,0.5-0.9,0.5
					c-0.9-0.8-1.7-1.8-2.7-2.5c-0.3-0.2-1.1,0.3-1.7,0.4l1.3,1.4l-0.5,1.8C47.5,76.8,46.9,76.1,45.6,76.9c-0.4,0.2-1,0.2-1.1,0.5
					c-0.4,1.3-0.7,2.6-1,3.8c-2.1,0.2-2.3-1.8-3.2-3c-1-1.3-1.7-1.6-2.7,0c0.2,0.3,0.4,0.5,0.6,0.8c0.8,1.2,2,2.2,2.5,3.5
					c0.7,1.7,0.7,3.8,3,4.6l1.3-6.7c0-0.7,0.1-1.3,0.2-1.9C45.3,77.9,45.5,77.4,45.6,76.9L45.6,76.9L45.6,76.9z M101.1,59.4
					c-0.1-0.3-0.1-0.7-0.2-0.8c-3.3-0.9-6.7-1.7-10.4-2.7l2.7,5.8l1.4-3l-0.4-0.2L92.9,60l-0.5-2.5c1.8,0.2,3.3,0.3,4.8,0.6
					C98.5,58.4,99.8,58.9,101.1,59.4l4.7-1.6c-1.2-1.7-2.1-3.2-3.1-4.5c-2.7-3.6-2.7-3.7,0-7.2c1.2-1.6,2.8-3,2.7-5.6
					c-4,5.1-8.3,9.7-10.4,15.7l0.5,0.3c1.5-2.1,2.9-4.2,4.5-6.5c1.1,1.8,2.1,3.4,3.3,4.9c1.1,1.3,0.9,2.2-0.3,3.2
					C102.3,58.5,101.7,58.9,101.1,59.4L101.1,59.4L101.1,59.4z M89.5,82.5l-1.7,2.4c1.3,0.4,1.9,0.9,1.4,2.3c-0.5,1.3-0.6,2.7,0.6,4
					c1.3,1.5,2.4,3.3,3.6,4.9c0.2,0.3,0.7,0.6,1,0.8c-1.1-2.5-2.5-4.8-3.7-7.1c-0.3-0.6,0-1.5-0.2-2.2c-0.4-1.2,0.6-2.9-0.9-3.5
					L89.5,82.5l-0.7-1.4l0.6-0.4l0.3,1.3c2-2.1,1.3-4.2,1.4-6.2c0.1-2,0-4.1,0-6.1l-0.5-0.2c-1.3,2.4-2.7,4.9-4,7.4
					c-0.6,1.2,0.7,5.1,1.9,5.8C88.7,82.6,89.2,82.5,89.5,82.5L89.5,82.5L89.5,82.5z M70.5,60.4c0.5-0.7,1-1.5,1.5-2.2
					c0.2-0.3,0.6-0.5,0.8-0.9c0.7-1,1.3-2,1.8-3.2c0.2-0.4,0.2-1.3,0-1.5c-0.8-0.5-1.7-0.9-2.6-1c-0.2,0-0.7,1-0.9,1.6
					c-0.4,1-0.8,2-1.1,3c-0.5,1.7-0.9,3.4-1.3,5.1l0.7,0.3L70.5,60.4c-0.4,0.9-0.8,1.9-1.2,2.9c-0.4,0.8-1,1.6-1.5,2.4l0.4,0.2
					c1.1-1.5,2.2-2,3.1-1.6l-4.1,4l0.3,0.2c2.4-1.6,4.7-3.1,7.2-4.7l-0.1,1.3c1.6-2.5,3.5-4.6,4.3-7c0.8-2.4,0.4-5.2,0.6-7.8l-0.6,0
					v4.9c-0.3-0.1-0.4-0.2-0.6-0.3c-2.6-1.4-3.9-0.5-3.9,2.4c0,0.4-0.5,1-0.9,1.3C72.4,59.2,71.4,59.8,70.5,60.4L70.5,60.4
					L70.5,60.4z M76.2,41.1c0.2-0.8,0.5-1.5,0.4-2.2c-0.1-1.6-0.5-3.1-0.6-4.7c-0.1-2.1,0-4.2,0-6.1l-13.5,0.8
					c0,2.9-0.1,5.9,0.1,8.8c0,0.6,0.8,1.4,1.5,1.7c0.4,0.2,1.2-0.4,1.7-0.8c0.5-0.4,0.9-1,1.4-1.6l0.5,0.4l-1.3,2.5
					c1.2,0.6,2.2,1.2,3.3,1.6c1.1,0.3,2.1-0.7,1.5-1.6c-1-1.5-1.4-3.8-4.1-3.5c1-2,0.1-3.3-1.5-4.6l3.3-1.4l2.8,1
					c-2.5,1.8-1.6,3.8-1,6C71.5,40.3,74.2,39.9,76.2,41.1L76.2,41.1L76.2,41.1z M81.4,67.5l-2.3-1.8c-1.2,1.5-2.4,2.8-3.3,4.3
					c-0.8,1.3-1.4,2.8-1.8,4.3c-0.2,0.6,0.1,1.3-0.8,1.5c-0.3,0.1-0.4,0.6-0.7,1.1l1.8-0.9c-0.3,2.1-1.2,3.5-2.9,4.3
					c-0.6,0.3-1.1,0.6-1.7,0.9c0.3,0.1,0.4,0.2,0.5,0.2c0.4-0.1,0.9-0.2,1.3-0.3c3.3-0.8,6.2-2.4,8.4-4.9c1-1.1,1.5-2.5,2.2-3.8
					c0.1-0.2,0.1-0.8-0.2-1c-0.9-0.9-1.1-2.2-0.2-2.9c1.7-1.4,1.2-3.1,0.8-4.7c-0.1-0.2-0.5-0.6-0.8-0.5c-0.3,0-0.8,0.4-0.8,0.6
					C81,65,81.2,66.1,81.4,67.5L81.4,67.5L81.4,67.5z M64.8,50.2l-1.3-2.6l-0.8,0.2c0,7.4-0.3,14.8,1.5,22.2
					c1.8-0.8,1.8-0.8,1.4-2.3c-0.2-0.9-0.4-1.9-0.8-2.8c-0.4-1.1-0.1-1.5,1-1.6l0.8,1.9c0.4-1.9,0.3-3.8,0.4-5.6
					c0-0.7,0.3-1.5,0.7-2.1c1-1.9,3-3.3,2.4-6.1L64.8,50.2L64.8,50.2L64.8,50.2z M107.2,99.9l0.7,0.3c1.1-2.3,2.2-4.6,3.2-6.9
					c0.6-1.2,1.5-2.5,1.5-3.8c0.2-14.4,0.2-28.9,0.3-43.3c0-0.5-0.3-1-0.5-1.5c-0.5,0.5-0.6,0.8-0.6,1.2c0,14.3,0,28.6,0,42.9
					c0,1.1-0.5,2.2-1,3.3C109.6,94.8,108.4,97.4,107.2,99.9L107.2,99.9L107.2,99.9z M49.1,68.7c0.8,0.5,1.4,0.9,2,1.3
					c0.3,0.2,0.5,0.5,0.8,0.5c2.5,0.5,5.1,1,7.6,1.4c0.4,0.1,1.1-0.4,1.3-0.8c0.2-0.2,0-1-0.3-1.3c-2.6-3.1-8-3.7-11.4-1.4
					C49.1,68.6,49.1,68.8,49.1,68.7L49.1,68.7z M94.2,65.5l-1-0.3c-0.3,1.1-0.9,2.2-0.9,3.3c-0.2,6.9-0.2,13.8-0.3,20.7
					c1-0.3,1.4-0.8,1.4-2.2c-0.1-6.2-0.1-12.4,0-18.7C93.3,67.4,93.9,66.4,94.2,65.5L94.2,65.5L94.2,65.5z M88.1,45.3
					c-6.9,2.3-8.7,5.2-6.7,11.2v-6.8l2.6,1.8c0.9-1,2.4-2,2.4-2.8C86.4,47.1,87.4,46.4,88.1,45.3L88.1,45.3L88.1,45.3z M141.3,99.7
					c0.2,0.4,0.4,0.8,0.4,1.1c-0.5,2-0.2,2.6,1.9,2.4c1-0.1,2-0.6,2.9-1.2c0.5-0.3,1-1.3,0.9-1.6c-0.3-0.6-1.1-1.4-1.7-1.4
					C144.2,99,142.7,99.4,141.3,99.7L141.3,99.7L141.3,99.7z M108,41.2l-0.7,0.1v19.1h0.6c0-1.9,0-3.8,0-5.8c0-0.4,0.1-1.2,0.2-1.2
					c2.1-0.2,0.8-1.7,0.6-2.2c-1.4-2.9-1.6-5.8-0.5-8.8C108.3,42.1,108.1,41.6,108,41.2L108,41.2L108,41.2z M119.4,101.4l0.3,0
					c2.2-6.7,4.5-13.4,6.8-20.1c-0.5,0.7-0.9,1.4-1.3,2.1c-1.3,2.2-1.3,5.2-3.8,6.7c-0.1,0-0.1,0.2-0.1,0.3l1.1-0.2
					C121.3,94.1,120.4,97.7,119.4,101.4L119.4,101.4L119.4,101.4z M108.8,107.1l-1.6,0.8l1.3,2l0.4-0.2l-0.4-1.6
					c2.6,1.5,3.7,4.7,6.6,5.7c-0.2-2.5-2.3-3-3.6-4.4c-3-3.4-2.9-3.5-4.2-3.5L108.8,107.1L108.8,107.1L108.8,107.1z M109,8.4
					c2.8,0.1,3.2-0.9,2.3-5.3c-1.8-0.5-2.5,0.2-2.3,2C109.1,6.1,109,7.2,109,8.4z M69.1,46.2c0.7-1.2-0.3-3.3-1.9-3.4
					c-2-0.1-4,0-6,0l0,0.3L69.1,46.2L69.1,46.2L69.1,46.2z M37.7,82.8l-0.6,0.3c2.5,4.3,4.9,8.7,7.5,13.2c0.7-2-0.2-3.3-1.2-4.7
					c-1.1-1.6-2.2-3.3-3.2-4.9C39.3,85.4,38.5,84.1,37.7,82.8z M107.7,64.3c-0.7,0.6-1.2,0.8-1.2,1.1c0.1,2.8,0.3,5.7,0.3,8.5
					c0,1-0.5,2-0.9,3.4l1.9,1.8L107.7,64.3L107.7,64.3L107.7,64.3z M105,85.1c-1.1-0.1-2.1-0.1-3.2-0.2c-3.6-0.1-4.1-0.6-4.7-4
					c0-0.1-0.2-0.1-0.6-0.2c-0.1,2.5-0.3,4.9-0.4,7.2c1.4-0.1,1.5-0.3,0.6-3.4C99.5,85.9,102.3,86.1,105,85.1z M30.3,90.3
					c-2.9-1.8-7.6,0.4-8,3L30.3,90.3z M48.8,89.4c1,0.2,2.1,0.5,3.1,0.5c0.7,0,1.8-0.2,2.1-0.6c0.7-1-0.5-1-1-1.5
					c-0.5-0.4-0.5-1.3-0.8-2c0.7,0,1.3,0,2,0c0.2,0,0.3,0.2,0.5,0.3l0.3-0.5c-0.5-0.4-1.2-1.1-1.6-1c-0.8,0.2-1.8,0.9-1.9,1.5
					C51.2,87.9,50.2,88.5,48.8,89.4L48.8,89.4L48.8,89.4L48.8,89.4z M95,64.3c3.3,3.9,6.3,7.5,9.4,11.2c-1.6-2.8-3.5-5.3-5.4-7.9
					c-0.6-0.8-0.9-1.7-1.5-2.7C97.5,64.8,95,64.3,95,64.3z M105.7,105.6c0.7-1.3,0.4-2.3-0.5-2.8c-1.3-0.8-4.2-0.1-5.2,1.3
					c2,1.2,4.1,2.5,6.1,3.7l0.5-0.7c-1.6-1-3.2-2-4.9-3.1C104.4,102.9,105.2,103.2,105.7,105.6z M126.2,99.3
					c3.9-0.2,7.7-0.5,11.6-0.7c0.6,0,1.3-0.2,1.9-0.4c-3.7-0.4-7.2-0.4-10.7-0.4C127.8,97.8,126.5,97.9,126.2,99.3L126.2,99.3
					L126.2,99.3z M53.1,66.3l0.3,0.5l2.9-1.4c-4.2-2-6-1.3-7.1,2.6c1.7-1.2,3.1-2.2,4.5-3.1l0.2,0.3L53.1,66.3L53.1,66.3L53.1,66.3z
					 M97.8,98.9l3.3-1.1l0.4,0.7c-1.3,0.9-2.7,1.7-4.2,2.7l1.7,2.5c0.5-0.6,1.3-1.2,1.2-1.4c-0.3-0.5-0.8-0.9-1.3-1.3
					c1-1.2,3.9-1.2,2.9-4.1C98.5,97.5,98.1,97.7,97.8,98.9L97.8,98.9L97.8,98.9z M92.3,96.5l0.2-0.2c-1.6-2.2-3.1-4.3-4.9-6.8
					c-0.3,1.3-0.7,2.3-0.5,3.1c0.2,0.9,1.1,1.6,1.8,2.7l0.1-1.9L92.3,96.5z M66.9,72l2.3,0.4l-1.5-2.3c-2.3,1.6-4.3,3-6.2,4.3
					C62.7,75.3,63.5,74.9,66.9,72L66.9,72z M88.4,69.4c-0.3-1.2-0.2-2.5-0.8-2.8c-0.8-0.6-2.1-0.6-3.3-0.9
					C84.5,68.3,84.5,68.4,88.4,69.4z M98.1,104.9c-0.6-0.8-1.2-1.4-1.7-2.1c-0.5-0.8-0.8-1.8-1.4-2.5c-0.4-0.5-1.2-0.7-1.8-1
					c0.2,0.5,0.4,1.1,0.6,1.6c0,0.1,0,0.2,0.1,0.3C94,103,95.9,104.8,98.1,104.9L98.1,104.9L98.1,104.9z M127.7,95.4
					c0,0.1,0,0.2,0.1,0.2c2,0.5,4.1,1.9,5.9-0.3C132.5,93.5,132,93.5,127.7,95.4z M84.2,39.1c1-0.3,2.1-0.5,3.1-0.9
					c0.3-0.1,0.6-0.6,0.8-0.9c-0.4-0.2-0.8-0.5-1.2-0.5c-0.8,0-1.7,0.1-2.8,0.2l0.6-4.3C83.3,35.2,83.2,37.5,84.2,39.1L84.2,39.1
					L84.2,39.1z M17.1,99h-0.3c0,1.1,0,2.2,0,3.2c2.3,1,3.1-0.5,4.1-1.8c-0.9-0.2-1.7-0.4-2.5-0.7v-1.1l-0.3,0l-0.4,2.1l-0.4,0
					C17.2,100.1,17.1,99.6,17.1,99L17.1,99L17.1,99z M92.5,63.3l0.5-0.6c-2.8-2.4-5.5-4.8-8.2-7.2l-0.5,0.6
					C87,58.5,89.8,60.9,92.5,63.3L92.5,63.3L92.5,63.3z M96.1,73.4c1.5,2.1,2.9,4.3,4.3,6.4l0.8-0.3c-2.8-2-2-4.8-1.8-7.7l-1.6,2.9
					C97.8,74.7,96.1,73.4,96.1,73.4z M80,105.4l0.1,0.4h6l0.1-0.7c-1-0.5-2-1-3-1.5C83.3,103.7,80,105.4,80,105.4z M99.2,63.6
					l0.8,0.2c0.3-0.7,0.9-1.4,0.8-2c-0.1-1-3.1-2-4.4-1.6l1.3,2.3l1.7-1.5L99.2,63.6C99.2,63.6,99.2,63.6,99.2,63.6z M105.3,4.1
					l-2.5,0.9c0.3,0.8,0.6,1.7,1.1,2.4c0.3,0.4,1,0.4,1.7,0.6L105.3,4.1z M104.9,101.1c1.1-3.5,2.1-6.8,3.2-10.1l-0.3-0.1
					c-1.3,3.4-2.6,6.8-3.9,10.4l1.8,0.9l0.2-0.4L104.9,101.1L104.9,101.1L104.9,101.1z M84.2,108.3l-2.9-1.4l-0.2,0.3l1.1,1
					c-0.8,0.1-1.3,0.1-1.8,0.2c-0.5,0.1-0.9,0.1-1.4,0.2C79.7,110,82.2,109.9,84.2,108.3L84.2,108.3L84.2,108.3z M63.7,76.3
					l-3.5-0.5c0.4,1.1,0.6,2.4,1.1,2.6C62.9,78.8,63.3,77.3,63.7,76.3z M49.6,74.1c1.8,1.7,3.7,1.5,5.2-0.6L49.6,74.1z M87.7,65.1
					c-1-3-2.2-4.3-3.7-3.9l2.2,0.8l-0.3,0.2L87.7,65.1L87.7,65.1L87.7,65.1z M71.2,91.4l-0.5-0.4c-2.3,2.2-4.6,4.3-6.9,6.5l0.4,0.4
					C66.6,95.7,68.9,93.5,71.2,91.4L71.2,91.4z M138.8,96l4.2-2.7c-1.9,0.3-3.5-0.5-4.7,1l1.6-0.1L138.8,96z M121.7,101.8
					c0.8-1.2,1.7-2.5,2.7-3.9C121.9,98.3,121.4,99.1,121.7,101.8z M133,73.2l-0.3,0V81l0.3,0V73.2L133,73.2L133,73.2z M77.6,95.6
					c1,1.3,1.9,2.6,3,4.1C80.7,96.9,79.8,95.7,77.6,95.6z M121,5.7l-3.6-1C118.2,7.4,118.8,7.6,121,5.7z M134.9,99.5
					c-1.8,0.4-2.2,2-0.7,4C134.5,102.2,134.7,100.9,134.9,99.5z M107.2,87.5c0-1.3-0.1-2.4,0-3.5c0.1-1,0.2-2,0.4-3l-0.6,0
					C106.9,83.1,105.1,85.2,107.2,87.5L107.2,87.5L107.2,87.5z M121.7,105.3c-1.1-2.1-2-2-4.2,0.2
					C118.9,105.4,120.2,105.4,121.7,105.3z M140.3,82.7l-0.8-0.4c-0.9,1.7-1.7,3.3-2.6,5l0.5,0.3C138.4,86,139.4,84.3,140.3,82.7z
					 M50.9,90.5l-0.1-0.4l-2,0.3c-0.2-0.2-0.3-0.7-0.6-0.8c-0.4-0.2-0.8-0.2-1.3-0.3c0,0.4-0.1,1,0.1,1.1c0.5,0.4,1.1,0.8,1.7,0.8
					C49.4,91.2,50.1,90.8,50.9,90.5z M63.6,101.9c-2.9-0.4-3.2-0.1-2.7,2.9L63.6,101.9z M115.8,71.4l0.6-0.2l-2.2-5.2l-0.5,0.2
					C114.4,67.9,115.1,69.7,115.8,71.4z M109.8,84.9l-1.9-2.4c0.1,1.7,0.2,3,0.2,4.2l0.5,0C108.7,86.7,109.8,84.9,109.8,84.9z
					 M90.7,37.7l0.6,0c-0.1-0.7,0.2-1.6-0.2-2.1c-0.6-0.7-1.6-1.1-2.4-1.6L88,35.4C91.1,34.2,89.9,36.8,90.7,37.7L90.7,37.7
					L90.7,37.7z M54.3,79.1l0.6,0.1c0.1-0.9,0.2-1.9,0.2-2.8c0-0.1-0.9-0.2-1.5-0.3L54.3,79.1L54.3,79.1L54.3,79.1z M20.8,94.6h-0.5
					c-0.3,1.3-1.6,2.4-0.7,3.9l0.6,0.1L20.8,94.6L20.8,94.6L20.8,94.6z M32.5,73.6l-0.7,1c2.4-0.3,2.1,1.5,3,2.5
					c0.1-0.9,0.1-1.9-0.3-2.6C34.1,74,33.2,73.9,32.5,73.6z M88.8,42.3v4C90.7,44,90.8,43.4,88.8,42.3z M16.1,99.1l-0.6-0.5
					c-0.5,0.6-1.1,1.2-1.4,2c-0.1,0.3,0.2,0.9,0.4,1.3l1.6-0.8l-1.3-0.9C14.8,100.2,16.1,99.1,16.1,99.1z M60.8,108.8l0.3,0.8
					l2.8-0.2c-0.7-0.8-1.2-1.6-1.5-1.6C61.8,107.8,61.3,108.4,60.8,108.8L60.8,108.8L60.8,108.8z M109,78c-0.1-2.4-0.2-4.8-0.3-6.6
					C109,73.2,107.2,75.7,109,78z M77,46.7l-0.6-0.3l-1.8,1.7l0.2,0.5c0.5,0,1.3,0.1,1.6-0.2C76.8,48,76.8,47.3,77,46.7L77,46.7
					L77,46.7z M142.4,91.9l-0.1-0.6L138,92l0.1,0.5L142.4,91.9L142.4,91.9L142.4,91.9z M132.5,50.7h-0.1v6.2h0.5
					C132.7,54.8,132.6,52.7,132.5,50.7z M81,46.1c-2.5,0.1-2.6,0.2-2,2L81,46.1z M87.5,104.4l1.2-1.5l-2.8-0.6l-0.3,0.5L87.5,104.4
					L87.5,104.4L87.5,104.4z M90.8,40.5l0.6,0.9l0.5-0.3l-1.3-1.8c-0.4,0.3-0.8,0.6-1.1,1.1c-0.1,0.1,0.2,0.6,0.4,1L90.8,40.5
					C90.8,40.5,90.8,40.5,90.8,40.5z"/>
				<path class="st1" d="M87.4,116.3l0.8,1.8c2.3-1.6,4.3-3.2,6.5-4.4c0.8-0.4,2.1,0.2,3.2,0.4l0,0.6h-3.4v0.3
					c1.6,0.7,3.2,1.3,4.8,1.9c-0.8,0.8-4.6,0.3-6.5-0.6c-1.2,0.7-2,1.2-2.9,1.7c-0.9,0.5-1.7,1.1-2.4,1.9c0.8-0.2,1.6-0.4,2.4-0.5
					c1.8-0.2,2.9,0.8,3.8,2.3c0.2,0.3,0.7,0.4,1,0.6c0.3,0.2,0.6,0.6,0.9,0.8l-0.3,0.6c-1-0.3-2.1-0.6-3.3-0.9l0.3,1.1l-2.4,0.8
					c0.7-0.8,1.2-1.4,1.7-2c-1.8,0.2-3.4,0.3-5,0.5c-0.3,0.1-0.5,0.5-0.8,0.8c0.4,0.2,0.8,0.6,1.1,0.6c0.8-0.1,1.6-0.4,2.8-0.7
					c-1.5,3-1.9,3.2-3.5,2c-0.1,2.4-1.2,1.6-2.3,0.6c-0.9,1-1.8,2.1-3.6,0.8c1.3-0.6,2.5-1,3.7-1.6c0.4-0.2,0.7-0.9,1-1.4
					c-0.7-0.2-1.4-0.8-1.9-0.6c-1.8,0.7-3.5,1.7-5.7,2.7l1.9-2.2l-2.8-1.2l5,0.4l-0.9-2.2c-1.5,0.2-2.9,0.4-4.7,0.7
					c0.9-2.8,3.7-2.2,5.8-3.5l-0.4,1.2l2.7-0.3l-2.1-3c-2.3,1-4.8,2.1-7.4,3.2c0.1-2.1,2.9-5,7.2-6.8c1.4-0.6,3.2-0.1,5.3-0.1
					c-1,1.4-1.4,2.2-1,2.6c-1-0.3-2-0.6-3.4-1l-2.3,1.8l0.2,0.4l2.7-1c-0.7,2.7,1.9,2.8,2.9,4c0.2,0.2,1.3-0.5,2-0.8l-0.6-0.3
					L87.4,116.3L87.4,116.3L87.4,116.3z"/>
				<path class="st1" d="M10.9,101.3c0,0.2,0,0.6,0.1,0.7c0.3,0.4,0.8,0.8,1.1,1.1c-0.6,0.1-1.3,0.3-1.9,0.3c-1.8,0.1-3.6,0-5.5,0
					c0.6-1.9,0-2.8-1.6-2.9c-1.1-0.1-2.2-0.2-3.2-0.3l3.1-4.9L4,97.4l0.7,0.1c0.3-1,0.9-2,1-3c0.2-1.3-0.1-2.7-0.1-4
					c0-0.5,0.2-1.1,0.3-1.8c0,2.4-0.3,4.7,0.1,6.8c0.4,2,1.7,3.8,2.7,5.9L10.9,101.3L10.9,101.3C10.9,101.3,10.9,101.3,10.9,101.3z"
					/>
				<path class="st1" d="M144.7,109.7c-1.1,0.5-2.3,1.1-3.7,1.7l0.4-1.3l-0.2-0.5c-1.3,0.7-2.5,1.4-3.8,2c-1.3-2.1-2.9,0.8-4.4-0.3
					c-1.2-0.9-2.7-1.3-4.1-2c1.5-1.3,3.1-1.7,5.3-1.8c2.3,0,3.8,1.2,5.7,1.5c1.1,0.2,2.3,0.1,3.4,0.1h1.3L144.7,109.7L144.7,109.7
					L144.7,109.7z"/>
				<path class="st1" d="M137.2,104.1c1,0.1,2,0.1,3,0.2c0.2,0,0.4-0.1,0.6,0c2.2,1.2,4.4,2.5,6.6,3.8c0,0,0,0.1,0.1,0.3
					c-2.1,1.3-4.1,0.1-6.1-0.2l2.5-0.2l0.1-0.6c-1.2-0.4-2.5-0.9-3.8-1.2C139,106,137.7,105.6,137.2,104.1L137.2,104.1
					C137.2,104,137.2,104.1,137.2,104.1z"/>
				<path class="st1" d="M40.2,111c-1.9,0.8-3.5,2.4-5.7,2c-0.3-0.1-0.7-0.5-1-0.7l0,0.1c1.8-0.2,3.2-0.8,3-2.7l5.3-2.1l0.1,0.2
					l-1.9,1.6l0,0C40,109.9,40.1,110.4,40.2,111L40.2,111L40.2,111L40.2,111z"/>
				<path class="st1" d="M33.5,112.3c-1.3-0.7-2.6-1.8-4.2-0.9c-0.1,0.1-0.4-0.2-0.6-0.3c-0.1-0.1-0.1-0.4,0.2-0.7l-2.3-1.8l0.2-0.4
					c1.2,0.6,2.4,1.4,3.7,1.7c1.1,0.2,2.3-0.2,3.5-0.3C33.9,110.3,33.7,111.3,33.5,112.3L33.5,112.3L33.5,112.3L33.5,112.3z"/>
				<path class="st1" d="M57.2,118.9c-1.4,1.4-5.1,1.3-6.9,0.2l2.1-0.2l-1.3-2.7l0.5-0.4l1.8,2.5l0.4-1.2c0.5,0.8,0.7,1.8,1.4,2.3
					C55.5,119.6,56.5,119.1,57.2,118.9L57.2,118.9L57.2,118.9z"/>
				<path class="st1" d="M40.6,74.2c1.6-2.4,3-4.9,6.1-6.2l-1,3.4l-1.2-1.7c-0.5,1.1-0.9,2-1.5,2.8c-0.5,0.8-1.3,1.4-2,2.1
					L40.6,74.2L40.6,74.2L40.6,74.2z"/>
				<path class="st1" d="M31.5,109.1c-0.8-0.3-1.6-0.4-2.4-0.8c-0.6-0.3-1.3-0.8-1.7-1.3c-0.3-0.5-0.3-1.2-0.4-1.8l1.7-0.3l0.4,2.7
					C30.8,107.6,31.6,108.2,31.5,109.1L31.5,109.1L31.5,109.1z"/>
				<path class="st1" d="M103,118.3l2.3-0.3l-0.2-0.4c0.8-0.4,1.6-1.1,2.4-1.1c0.4,0,0.9,1.1,1.3,1.7l-0.3,0.6h-5.4
					C103.1,118.8,103,118.3,103,118.3z"/>
				<path class="st1" d="M67.9,113.7c0.4-0.7,0.8-1.2,1.2-1.8c1.1,2.2,1.5,2.4,2.6,0.8l0.2,1.8C69.8,116.6,68.8,114.5,67.9,113.7z"
					/>
				<path class="st1" d="M92.4,114.1l-2.7-1.5c0.5-0.7,0.5-2.2,1.7-1.7c0.8,0.3,1.2,1.7,1.8,2.5C93.2,113.4,92.4,114.1,92.4,114.1z"
					/>
				<path class="st1" d="M39.9,109.3c0.6-0.2,1.3-0.3,1.8-0.6c0.5-0.3,0.9-0.9,1.3-1.4l-0.3-0.5l2.8,0.6c-0.5,0.5-0.8,0.9-1.2,1.1
					c-0.8,0.4-1.8,0.7-2.5,1.2C40.8,110.3,40.4,109.9,39.9,109.3C40,109.3,39.9,109.3,39.9,109.3z"/>
				<path class="st1" d="M139.1,99.9c0.2,1.1,0.4,2.2,0.5,3.3c0,0.2-0.4,0.5-0.6,0.5c-0.2,0-0.7-0.2-0.7-0.4
					c-0.1-1.1-0.1-2.2-0.2-3.4L139.1,99.9L139.1,99.9L139.1,99.9z"/>
				<path class="st1" d="M106.4,1.3l-8.1,1.5l-0.1-0.5C101,2.3,103.4,0.1,106.4,1.3L106.4,1.3L106.4,1.3z"/>
				<path class="st1" d="M60.5,115.1c-1.1,0.1-2.2,0.3-3.2,0.3c-0.3,0-0.6-0.2-0.9-0.3c0.2-0.4,0.3-1,0.5-1c1-0.1,2.2-1.2,2.9,0.5
					C59.9,114.8,60.3,115,60.5,115.1C60.5,115.1,60.5,115.1,60.5,115.1z"/>
				<path class="st1" d="M72.8,124.1l-1.2-1.5l3.1-0.6l-2.4,3.4l-0.5-0.4L72.8,124.1L72.8,124.1L72.8,124.1z"/>
				<path class="st1" d="M87.5,109l1.9,0.9c-0.7,0.6-1.3,1.2-2.1,1.7c-0.2,0.2-0.7,0-1,0c0.2-0.3,0.4-0.6,0.5-0.9
					C87.1,110.1,87.3,109.5,87.5,109L87.5,109L87.5,109z"/>
				<path class="st1" d="M64.9,55.4l0.8,7.1c-2.5-2.3-0.2-5-1.7-7L64.9,55.4L64.9,55.4L64.9,55.4z"/>
				<path class="st1" d="M151.8,101.5c0.6-1.8,1.5,0.2,2.3-0.3l-0.3-0.9l0.4-0.3l0.9,1.3c-0.6,0.3-1.1,0.7-1.7,0.8
					S152.3,101.6,151.8,101.5C151.8,101.4,151.8,101.5,151.8,101.5z"/>
			</g>
		</g>
	</g>
</g>
</svg>
