<?xml version="1.0" encoding="UTF-8"?><svg id="b" xmlns="http://www.w3.org/2000/svg" viewBox="0 0 162.73 78.43"><g id="c"><g id="d"><g id="e"><g><path d="M128.44,49.07c1.05-3.59,2.1-7.18,3.15-10.77,.28-.95,.56-1.9,.79-2.66l3.71,3.31,.16-1.72,.56,.02-.14,3.03,1.27,1.04,1.18-2.38,.65-.09,1.17,3.46v-4.76l.59-.05,.37,4.17c.73-1.45,1.25-2.49,1.77-3.53l.23,.05-.27,2.75c.81-.68,1.5-1.42,2.34-1.93,.75-.46,1.66-.66,2.67-.63-2.07,.39-2.58,1.84-3.04,3.57-.4,1.52-1.23,2.92-1.55,4.56,.98-1.61,1.97-3.21,3.1-5.07l.52,2.71h.34v-3.4l.4-.17c.2,.62,.47,1.22,.57,1.86,.13,.82,.12,1.65,.17,2.48l.75,.02,.32-5.05,.52-.09c.17,.95,.39,1.89,.51,2.85,.13,1.03,.16,2.08,.66,3.15l.68-2.23,1.02,3.22,4.1,2.32,.83-2.88,.42,.06c-.07,.52-.17,1.04-.2,1.56-.04,.73-.06,1.47,0,2.2,0,.09,.68,.28,.79,.17,.47-.48,.86-1.05,1.09-1.35l.68,1.88,1.41-1.07v1.92c-5.02,1.71-9.96,3.8-15.29,2.45,0,.02,.2-.38,.5-.94l-4.1,2.1,1.16-3.18-6.04-1.72,1.93,1.66-1.91,1.18,3.06,1.08-.07,.4c-1.74-.13-3.48-.27-5.22-.4l-.03-.55,1.3-.49-.05-.27-4.59-.5-.18,.41,2.03,1.14c-.36,.34-.85,.97-1.49,1.33-.26,.15-1.04-.12-1.25-.42-1.03-1.5-1.93-3.1-2.92-4.63-.3-.46-.76-.82-1.15-1.23v.03l.02,.02h0Z" fill="#41463d"/><path d="M67.98,62.32c-.92,.15-1.88,.53-2.76,.39-1.24-.19-2.43-.74-3.63-1.18-2.53-.92-3.42-.58-4.88,1.98-1.52-.55-3.07-1.05-4.59-1.67-1.48-.6-2.91-1.31-4.9-2.22,.57,.85,.84,1.74,1.36,1.93,3.1,1.12,6.2,2.34,9.41,2.99,1.65,.34,3.55-.33,5.3-.72,1.19-.27,1.24-.35,1.49,1.11h-5.02c2.16,.76,3.79,1.33,5.42,1.9l.1,.46c-.69,.22-1.46,.76-2.07,.62-2.89-.67-5.73-1.55-8.6-2.31-3.27-.86-6.57-1.6-9.81-2.56-.83-.25-1.48-1.12-2.09-1.84,1.97,.26,3.23-.09,3.8-1.05-2.2-2.25-4.27,1.46-6.38,.25l1.43-1.98c-1.69,.17-2.35,2.01-4.41,.8l2.87-.91-2.57-1.57,.1-.35c.87,.31,1.73,.71,2.62,.9,.58,.13,1.25,.05,1.84-.1,.15-.04,.15-.68,.29-1.39,3.1,3.33,7.02,4.08,11.76,4.09-.71-.41-.96-.57-1.23-.7-.22-.1-.45-.17-1.03-.37,1.6-.72,1.59-3.4,4.06-2.22l.47-1.14,1.48,1.84c.99-1.59,.91-2.45-.6-2.96-1.44-.49-2.86-1.06-4.27-1.66-.17-.07-.15-.56-.23-.86h-.08c2.06-.72,3.54-.18,4.14,2.26l.57-.15,1.55-4.73-4.93-.23-.3,1.08-.32-.07,.3-2.29c1.65,.38,3.2,.69,4.72,1.11,1.56,.44,2.24-.05,2.36-1.69,.08-.99,.56-1.96,.86-2.93l.73,.15v5.21c2.8,.58,5.35,1.16,7.93,1.6,.99,.17,2.05,0,3.07-.02,1.45,.44,2.9,.89,4.35,1.33l-.08,.65-1.8,.33c-.55,1.15-1.07,2.24-1.58,3.31,1.46,.66,2.86,1.37,4.31,1.93,.93,.36,2,.38,2.9,.78,.98,.44,1.81,1.2,2.76,1.71,.64,.35,1.45,.81,2.08,.68,1.05-.22,2.01-.87,2.9-1.29-.09-.56-.15-1.27-.34-1.94-.14-.5-.46-.96-.7-1.43l-.41,.24,.27-2.91-.35-.06-.45,2.42c-.7-.45-1.35-1.22-2-1.22-3.2,0-6.39,.19-9.59,.31l-.13-.58,2.71-.45c-.56-.71-.2-.65-.09-1.3,.16-.99,.46-1.04,1.16-.66,.95,.51,1.86,1.09,2.79,1.63l-.25,.53,2.26-.36c-.51-.6-1.02-1.09-1.4-1.66-.4-.59-.68-1.26-1.12-2.09l-.46,1.34-2.82-.58,.9-.98c-.65-.19-1.6-.19-1.78-.56-1.05-2.2-1.56-2.37-3.43-.85,.89-1.35-.28-1.34-1.06-1.7-1.44-.68-2.84-1.45-4.26-2.18l4.44,.62c.41-3.72,.78-7.09,1.15-10.46,.08,1.67-1.05,1.94-2.32,2.15-.34,.06-.64,.37-.96,.56,.13-.55,.25-1.08,.48-2.04l-4.18-.9c.48,.58,.6,.77,.77,.9,.93,.75,2.7,.26,2.96,2l1.32,.85c-1.99,1.29-.26,1.97,.89,3.02l-6.92-.96-.06,.38,1.49,1.38,2.37-.3c-2.04,.29-1.95,1.43-1.35,2.86l-2.16,.27,1.04-2.14c-1.49-.12-2.6-.17-3.71-.3-1.9-.21-3.49,.67-5.15,1.35-1.55,.64-2.93,.5-3.91-1.07l3.59-1.7c-1.45-.23-3.01,.74-3.7-1.37-2.93,1.51-5.72,2.95-8.51,4.4,.59-.47,1.12-1.03,1.77-1.39,3-1.66,6-3.33,9.05-4.88,1.8-.92,2.63-3.12,4.85-3.46,.75-.12,1.46-.5,2.18-.77l-.2-.44c-9.64,2.92-17.87,8.62-26.6,14.01,.11-.66,.09-.99,.22-1.24,1.12-2.2,2.35-4.35,3.36-6.6,.38-.84,.27-1.89,.38-2.85l-.05,.06c.27,.05,.74,.21,.79,.12,.62-1.07,1.27-2.14,1.75-3.28,1.34-3.14,2.2-6.51,4.43-9.22,.05-.07-.09-.29-.3-.89l-4.04,6.28c.76-1.63,1.28-3.44,2.33-4.86,2.67-3.64,5.59-7.1,8.37-10.66,.58-.74,1.17-1.34,2-.6,.25,.23,.12,1.12-.09,1.58-1.13,2.39-2.35,4.74-3.77,7.56,.99,.99,2.41,2.28,3.66,3.72,.46,.53,.52,1.41,.74,2.14,.12,.4,.19,.81,.28,1.22-.45,.75-1,1.47-1.31,2.27-.3,.79-.34,1.67-.48,2.51-.02,.1,.06,.22,.11,.43,.41-.05,.83-.09,.77-.09,.39-1.53,.74-2.79,1.01-4.07,.07-.34-.1-.73-.15-1.1l1.95-1.48,2.42,3.57,.61-3.03c.8,1.34,1.32,2.4,2.01,3.33,.62,.84,1.37,1.82,2.19,.03,.32-.68,.95-1.26,1.54-1.76,.67-.56,1.4-1.23,2.2-1.41,1.35-.3,2.78-2.49,2.28-3.83-.23-.63-.52-1.33-.47-1.97,.13-1.49,.46-2.96,.73-4.56l-2.11-.4c1.99-.76,4.04-.34,4.87,1l-1.52,.24c.05,1.42-.9,3.04,.93,3.85l-1.17,1.12,1.71,.28c.55-3.27,1.01-6.37,1.64-9.42,.13-.64,.91-1.14,1.48-1.81-.12,2.3-.22,4.4-.34,6.76l1.81-.59c.4-5,.79-9.86,1.18-14.72l-.66-.12c-.42,.72-.85,1.43-1.27,2.15-.44-1.28,.4-2.42,1.35-3.19,.67-.54,.76-1.86,1.01-2.85,.1-.4-.23-.94-.07-1.28,.13-.27,.77-.5,1.08-.4,.24,.07,.47,.69,.43,1.04-.12,1.08-.44,2.14-.56,3.21-.46,4.15-.88,8.3-1.33,12.57,2.14,.1,3.82-1.12,5.29-2.39,.63-.54,.62-1.96,.69-2.99,.17-2.34,.17-4.7,.33-7.04,.07-1.01,.39-2,.71-2.92V13.44l.48,.07c1.26-3.73,.31-7.72,.76-11.18l3.66-1.11c.4,.9,1.19,2.29,1.6,3.78,.32,1.18,.46,2.57,.16,3.74-.6,2.34,.79,5.13,3.28,5.58l-1.23-1.42h.9c-.07-.66-.18-1.24-.19-1.83,0-.56,.1-1.12,.15-1.69,1.43,.78,2.42-.09,3.02-2.79l1.19,2.03,.38-1.14,1.73,1.83v-3.76c.73,1.49,1.49,3.06,2.26,4.63l.6-.26-.92-3.13,.4-.2c.52,1.05,1.04,2.09,1.56,3.14l.47-.16c-.31-1.09-.6-2.19-.95-3.27-.37-1.13-.81-2.23-.83-3.52l2.91,5.33,.54-.25c.44-1.37,.88-2.73,1.46-4.56,.44,2.01,.79,3.59,1.23,5.55l1.14-1.47c.74,1.59,1.54,3.3,2.52,5.4l.33-1.51,1.84,.47c.47,1.03,1.15,2.51,1.95,4.26-2.61,.41-4.12,1.67-3.86,4.63,3.77-1.03,6.16-4.11,9.75-5.65l-1.36-.79,4.22-2.63c1.23,1.41,2.41,1.35,3.56-.53,.45-.73,1.37-1.52,2.55,.02-1.75,1.15-3.42,2.35-5.18,3.39-2.18,1.3-4.46,2.43-6.65,3.71-1.61,.94-1.62,1.77-.44,3.13,.69,.79,1.12,1.79,1.67,2.7-1.39-1.2-2.77-2.39-4.32-3.73l-.89,1.66c.88,.94,2.02,1.63,2.27,2.56,.5,1.84,1.86,2.32,3.63,3.19-.24-1.35-.43-2.38-.61-3.4,1.51,.22,1.95,1.16,1.92,2.58-.02,.8,.27,1.6,.86,2.55,.14-.63,.43-1.28,.38-1.9-.15-2.1-.44-4.18-.62-6.28-.03-.33,.18-.69,.54-.91,.14,1.42-.12,3.05,.48,4.23,1.64,3.23,.95,6.6,.96,9.94l.49,.09,2.55-8.91,2.02,.82c-.05,.26-.06,.44-.13,.59-.13,.29-.41,.57-.41,.85-.05,3.44-2.74,5.83-3.57,8.95-.85,3.2-1.66,6.41-2.5,9.61-.53,2.02-.89,4.1-1.66,6.02-1.11,2.78-3.45,3.89-6.54,3.67-.77-.06-1.62,.26-2.37,.58-2.14,.91-3.05,.53-3.86-1.76l-1.46,3.07c-1.95-.65-2.68-3.2-5-2.72l4.18,3.69c-2.53,.61-4-2.13-6.39-.84l2.62,.98-.07,.3c-1.17,0-2.35,.07-3.51-.03-.52-.05-1.38-.37-1.46-.7-.4-1.81-1.84-1.69-3.12-1.88-1.37-.2-2.73-.44-4.11-.51-.44-.02-.9,.42-1.49,.72,.42,.33,.52,.46,.62,.47,2.32,.22,4.22,1.09,6.1,2.6,1.04,.83,3.04,.5,4.61,.64,1.13,.1,2.27,.02,3.38,.2,.39,.07,.7,.68,1.48,1.51-4.95-.69-9.42-1.31-14.42-2,.79,.37,1.1,.6,1.44,.65,3.6,.54,7.19,1.08,10.8,1.55,1.13,.15,2.03,.34,1.61,2.11l-2.51-.44c-.64,1.28-1.45,.67-2.49,.2-1.13-.51-2.45-.81-3.68-.77-.46,0-.87,1.24-1.41,2.08l1.69,.46c.05,.17,.1,.26,.07,.29-.15,.19-.3,.51-.49,.54-1.36,.22-.99,2.78-3.15,2.11-1.36-.42-2.93-.12-4.4-.17-.93-.03-1.86-.14-2.79-.17-1.16-.03-2.31,0-3.08,0-.41,.93-.81,1.46-.82,1.98,0,.62,.33,1.24,.91,1.85l.46-1.38c1.27,1.87,2.52,3.73,5.41,2.89-.23,.25-.43,.66-.7,.71-1.79,.33-3.59,.66-5.41,.84-1.24,.12-2.51,.03-3.76,0-1.36-.03-2.56-.33-2.69-1.55l1.28-2.04,.46,1.1,.38-.06v-3.18h.37l.13,1.56,1.26,.39c.37-.75,.83-1.7,1.04-2.13-.79-.37-1.5-.76-2.25-1.03-.61-.22-1.27-.45-1.91-.42-2.36,.08-4.64,.64-6.68,1.83-1.65,.96-3.14,.53-4.83,0l.61-.98-3.25,.47-.33-.7c.77-.94,1.59-1.84,2.31-2.82,.56-.78,.99-1.65,1.48-2.48,1.35-.09,2.7-.17,4.19-.27l-1.25,1.9c1.84-1.35,2.87-.23,3.84,1.1l1.92-.99-1.16-.61h3.29l-1.96,1.36,3.25,1.11,.97-2.5,.78,.23-.63,2.85,2.19-1.37c-.44-.88-.87-1.76-1.35-2.72l-3.31,1.08c.55-.72,.72-1.3-.43-1.59-1.93-.49-3.85-1.02-5.87-1.56,.43-2.17-1.36-2.34-2.73-2.74-2.79-.81-2.78,2.21-4.23,3.25l-.02,.02h0ZM101.85,24.27l-3.32,2.45,.12,.28c2.22-1.24,4.44-2.48,6.67-3.72l-.12-.23-3.39,1.28-1.17-.68,3.95-1.66-.36-.76-5.24,2.22c.22,.65,.41,1.22,.59,1.78-4.67,.23-4.98,.33-5.08,2.05,1.75-.72,3.4-1.4,5.04-2.07,.78-.31,1.55-.63,2.32-.94h0Zm-15.07,17.8c-.05,.77,.97,1.29,3.07,1.58l-.96,1.51h-3.26c.24-1.91,.13-3.68-2.8-4.04,.84,1.11,1.46,1.94,2.35,3.13h-2.11l-.12,.39,3.84,2.31,.29-.45,.34,1.28,.41-1.35,.42,.11-.46,1.85-2.57-.77,.78,2.83c1.43-.66,2.73-1.26,4.49-2.06l-1.3,1.38c3.32,.63,3.75,0,4.12-5.8l1.48-.83c-.62-.46-1.05-.78-1.48-1.09-1.49-1.77-5.31-3.13-5.94-2.12l1.15,.4-1.72,1.73h-.02Zm-33.75-11.89l.89-.14,1.11,3.56c.26-1.19,.5-1.86,.52-2.54,0-.48-.11-1.21-.44-1.41-1.32-.82-2.71-1.54-4.14-2.16-.33-.14-.91,.27-1.37,.43-.39,.34-.91,.62-1.15,1.04-.69,1.27-1.21,2.62-1.89,3.89-1.44,2.66-2.99,5.25-4.36,7.95-.31,.61-.05,1.5-.05,2.27l.61,.07c.23-.54,.68-1.1,.65-1.62-.08-1.21,.7-1.25,1.52-1.47,.74-.2,1.43-.57,1.95-.79l-1.36-2.16c.56-.31,1.1-.81,1.69-.88,1.44-.17,2.18-.76,1.96-2.29-.04-.28,.08-.58,.12-.87h.21l.21,3.65h.35l.49-1.8v3.05c.55-.29,1.34-.83,1.43-.73,1.59,1.71,2-.53,3.05-.7-.42-.7-.9-1.22-1.06-1.82-.39-1.49-.64-3.02-.94-4.53Zm10.48,30.64c2.44,.06,2.85-2.31,3.9-3.75,.66-.91,1.53-2.58-.31-3.48l3.21-1.14-.17-.87c-2.17,.72-4.25-2.02-6.48-.07l-1-1.27-.9,5.35h1.53c-3.82,2.13-1.29,3.63,.23,5.24h0Zm40.52-2.27c2.99-9.9,5.93-19.62,8.87-29.34l-.62-.33c-.27,.39-.67,.74-.78,1.17-.25,.9-.24,1.87-.52,2.75-1.1,3.39-2.26,6.75-3.43,10.12-1.57,4.51-3.12,9.03-4.78,13.5-.53,1.42,.15,1.83,1.27,2.13h-.01Zm-4.34-4.31l-.65,.02c0-.43-.07-.87,.02-1.27,.19-.87,.53-1.7,.67-2.57,.05-.33-.26-.72-.41-1.08-.32,.22-.77,.37-.94,.67-.83,1.51-1.4,3.21-.4,4.74,.49,.74,1.74,.99,2.7,1.49,.76-2.9,1.48-5.62,2.19-8.34h-3.16c1.81,2.36,.4,4.33-.02,6.36v-.02h0Zm7.92-32.7l.5,.15c.2-1.36,.4-2.73,.61-4.17l2.92,.47c-.78-1.05-1.86-1.89-2.03-2.89-.19-1.11,.44-2.37,.72-3.56l.51,.08,1.26,2.43c-.25-2.18-.51-4.52-.77-6.77-2.04,4.49-4.77,8.89-3.73,14.27h0Zm-10.08,24.32c-2.31,.23-2.96,1.83-3.64,3.29-.93,1.99-1.7,4.05-2.51,6.09-.13,.34-.11,.74-.16,1.12l.39,.14,1.48-2.73,.35,.59c.77-1.46-.28-3.87,2.34-4.87-.62,1.74-.32,2.77,.64,3.3l1.12-6.93h0Zm-21-20.41l8.77,2.43,.15-.48-5.34-1.81,.09-.35h5.79c-2.65-1.92-5.32-2.05-8.01-2l-.1,.55,5.79,.82c-2.24,1.09-4.75-1.38-7.14,.85h0Zm30.49,17.3c-2.19-2.04-.18-3.51,.01-5.06,.2-1.62,.92-3.17,1.45-4.87l.99,.66,.4-.35-.87-1c.39-.91,.85-1.98,1.31-3.05l-.44-.23c-.62,.59-1.59,1.07-1.8,1.78-1.14,3.87-2.1,7.79-3.15,11.8l2.1,.32h0Zm-37.07-2.42c1.01-1.63,.77-2.08-1.49-2.19-.66-.03-1.43,.09-1.97-.2-1.57-.85-2.14-.18-2.34,1.29l5.8,1.1Zm16.85-20.72l.22,.55c3.03-1.31,6.05-2.61,9.08-3.92l-.31-.75c-2.9,1.62-6.63,1.17-8.99,4.12Zm19.05,16.38c-1.14,1.45-1.99,2.12-2.54,2.03,.09-1.81,.08-3.68,2.22-4.24l-1.23-1.54c-.88,2.2-1.73,4.33-2.61,6.54l3.08,.55,1.08-3.34Zm-21.89-15.97l1.28-1.21-.24-.32-3.44,1.85c.18,1.02,.29,1.64,.48,2.71,1.27-.79,2.52-1.56,3.86-2.39l-1.95-.64h0Zm6.88-8.09l.65,.16c.12-.77,.14-1.57,.37-2.3,.59-1.82-1.84-4.71,2.16-5.33l-.22-.48-2.97-.37V11.95Zm8.92,31.61c-.13,.65-.26,1.43-.45,2.2-.33,1.38-.29,1.46,.48,1.42,.58-2.08,1.11-4.01,1.67-6.02l2.87,.69c-.81-1.88-2.18-1.47-3.19-1.64l-1.39,3.35h0Zm-15.09-26.2l.17,.45,6.46-2.64-.82-1.8-5.8,3.99h0Zm-26.08,21.46l1.9,1.56,2.89-1.71-.18-.32-3.01,1.14-.16-.38,6.58-3.23-.27-.55-7.75,3.49Zm60.58,14.15c-1.36-1.28-1.72-1.27-3.57,.48,2.07,.83,3.9,1.57,5.73,2.28,.02,0,.12-.19,.26-.4l-1.45-.7,.54-.85-2.68,.12-.05-.72c.4-.07,.81-.14,1.21-.2h0Zm-21.05,10.58c-2.19-.14-2.62,.64-2.52,4.18l.75-1.35,.77,1.95c.39-1.88,.68-3.26,1-4.78Zm-16.82-20.88l.77,.09c.41-3.39,.83-6.78,1.24-10.17l-.62-.07c-.46,3.38-.92,6.76-1.39,10.15Zm-6.46-9.7c.49-2.07,.97-3.94,1.34-5.83,.04-.22-.51-.55-.79-.83,.39,1.87-.5,3.82-1.89,4.12l1.34,2.54Zm-5.13,21.89l-.85-.38-1.78,5.73c2.8-1.06,1.01-3.85,2.63-5.35Zm-3.91-12.9v-.71c-.71-.32-1.4-.74-2.15-.91-.38-.08-.87,.3-1.31,.47,.2,.47,.37,1.33,.61,1.35,.94,.08,1.9-.11,2.85-.2Zm16.27,2.19l-.78-.13c-.35,2.08-.7,4.16-1.04,6.23l.73,.12c.37-2.07,.73-4.15,1.1-6.22h-.01Zm10.27,20.07c.81,1.23,1.41,2.14,2.02,3.06l.62-.3c-.19-1.08-.38-2.16-.58-3.32l-2.05,.56h0Zm2.6-22.76c-.91-2.33-3.89-4.17-5.49-3.58l5.49,3.58Zm4.32-11.86l-1.18-2.52-2.62,1.06,3.8,1.46Zm-9.61,27.78v-5.75c-1.47,.71-1.27,4.52,0,5.75Zm24.81-3.85l-.54,.15c.36,.55,.61,1.4,1.1,1.59,.75,.28,1.62,1.66,2.67,.25l-3.23-1.99Zm-55.99,12.36l.15-.48-7.66-2.43-.11,.38c2.54,.84,5.08,1.69,7.62,2.53Zm30.41-45.02c2.2-.39,4.28-1.01,5.87-2.58l-.24-.46-5.63,3.04Zm8.55,2.35l-.45-1.32-4.12,1.64,.12,.43,4.45-.74h0Zm-6.87-1.47l.22,.57,4.63-1.57c-2.34-1.01-3.43,.6-4.85,1Zm-13.76,13.99l2.07,.54-1.23-2.54,1.71-1.13-1.9-.34-.65,3.47Zm30.13-9.7c.99,.8,6.84,.99,8.45,0h-8.45Zm12.06,7.5l.51-.75-5.67-2.73-.25,.43,5.41,3.05Zm-7.61,9.49c0,1.22-.3,2.2,.06,2.6,.72,.8,1.53,.55,1.87-.58l-1.93-2.02Zm-15.59-23.64l.25,.61,5.05-2.24-.25-.6-5.05,2.23Zm-18.89,40.44l-.19,.36c1.74,.42,3.48,.83,5.22,1.25l.16-.63c-1.73-.33-3.47-.66-5.2-.99h0ZM90.21,4.54h-.26l-.5,7.72h.29l.47-7.72Zm22.47,16.36c1.14,1.46,.75,2.76-.28,4.18,.66-.19,1.25-.49,1.41-.94,.45-1.29,.26-2.48-1.14-3.24h0Z" fill="#41463d"/><path d="M52.62,51.82h.08c-.71-.13-1.42-.27-2.11-.41,0,3.31,3.08,2.78,4.86,4.17-4.21-.72-8.43-1.45-12.3-2.11l-6.93,2.54c-1.01-.06-2.13-.48-2.71-.09-1.41,.94-2.67,.84-4.06,.2-1.29-.59-2.58-1.17-3.87-1.75,1.91,.74,1.14-1.12,1.99-1.73l-2.22-.69,.36,1.14-1.55,.95c-1.34-.68-2.63-1.72-4.04-1.93-1.43-.22-3.38-1.13-4.4,1.16-.12,.27-1.5-.02-1.86-.04l.97-4.02,1.02,1.39,.46-.24v-3.27l.27-.06,.67,1.77,.35,.02,.35-2.81,.65,2.51,.27-.03,.77-3.76h.36l.25,3.61h.41v-5l.8-.16,1.51,5.04,.14-2.52,1.34,1.86,.43-.19v-4.49l.26-.04,.84,3.43,.6-.04,.56-2.35,1.07,3.6h.42l.53-4.12,1.28,2.71,.47,.02v-4.89l.56,.02,.46,3.5,1.05-1.59,.56,1.97,.49-1.15,1.02,.97v-3.88l.29-.05,.88,2.8,.66-2.39,.68,1.08h.44v-3.98l.54-.14,.48,1.11c1.41-2.61,2.79-5.19,4.18-7.77-.24,.77-.45,1.55-.73,2.3-.43,1.15-.9,2.29-1.36,3.43l.05-.06c-2.61,4.9-4.54,10.23-8.94,14.05,.87-.09,1.62-.23,2.27-.57,1.34-.71,2.58-1.61,3.93-2.29,1.94-.98,3.95-1.84,5.93-2.75-1.59,1.04-3.06,2.48-4.8,3.01-2.3,.7-2.41,2.68-3.33,4.21-.03,.06,.29,.33,.46,.52,1.55-2.45,3.33-2.82,5.81-1.38,.63,.36,1.44,.41,2.17,.6l.21-.49c-2.39,0-3.24-1.46-3.51-3.52,.39-.03,.96,.11,1.18-.11,1.28-1.3,2.44-1.06,3.7,.02,.26,.22,.98,.3,1.2,.11,.97-.86,1.84-1.85,2.51-2.55l2.99,1.38c-1.2,.16-2.45,0-3.31,.53-.73,.44-1,1.64-1.48,2.5l.28,.38,4.23-1.98-1.09,1.24,1.08,1.52-.03,.02h0Zm-23.12-1.35c3.06,.35,3.51-2.61,5.74-3.62-1.03-.38-2.53,.78-2.22-1.33l-3.08,2.79,1.12,.93-1.55,1.24h-.01Zm1.97,3.59l-3.39-2.55c.33,1.96,1.37,2.88,3.39,2.55Zm15.64-3.63l-3.91-1.57,2.17,2.83,1.74-1.26Zm-7.94,1.67l-.14,1.1,2.38,.25,.12-1.02-2.36-.33Z" fill="#41463d"/><path d="M19.17,72.86c1.39,.92,2.75,1.88,4.17,2.74,.38,.23,.93,.19,1.67,.33,.41,1.66,.25,2.14-1.71,1.95-5.3-.52-10.51,.78-15.78,.51-2.52-.13-4.91-.66-7.52-2.26,1.83-.29,3.19-.5,4.73-.74l-.76,1.25,1.53,.82v-3.45l-2.12,.84-.27-.32c.8-.6,1.6-1.19,2.4-1.79,1.9-.08,3.88-.74,5.85,.74l-2.09,.89,4.39,.28-3.79-2.82,2.67-.69c-2.03,0-3.52-.18-4.93,.07-.76,.14-1.38,1.03-2.06,1.58-1.65-1,.52-1.72-.22-3.06,2.71,1.1,4.6,.31,6.28-1.21,.78,.31,1.68,.48,2.31,.97,1.76,1.37,3.41,2.88,5.24,4.45v-1.09h.01Z" fill="#41463d"/><path d="M128.43,49.04l2.5,6.22-3.71-.35-1.8,1.1c1.18-2.68,2.11-4.79,3.03-6.92l-.02-.05Z" fill="#41463d"/><path d="M119.64,59.92l-.32-.72c.28,.07,.67,.05,.83,.23,.62,.68,1.17,1.43,2.07,2.56l-3.75,.48,.13-.37-2.21-1.01,3.24-1.17h.01Z" fill="#41463d"/><path d="M104.64,68.98c1.49-2.28,3.8-2.38,6.17-.1l-2.84-.62-.12,.26,1.2,.64c-1.13,0-1.76,.02-2.38,0-.62-.03-1.24-.1-2.04-.17h.01Z" fill="#41463d"/><path d="M132.26,58.97l1.13,2.13-4.81,.28c.58-2.1,.57-2.03,2.25-1.71,.4,.08,.91-.43,1.43-.7Z" fill="#41463d"/><path d="M116.71,66.53c2.41-2.53,4.99-1.75,7.48-1.4l-7.48,1.4Z" fill="#41463d"/><path d="M133.45,16.63c-.4,2.53-.79,5.07-1.19,7.6l-.55-.07c.31-2.55,.63-5.1,.94-7.65l.79,.12h.01Z" fill="#41463d"/><path d="M64.4,69.45l7.71,2.27-.15,.51-7.74-2.08,.19-.7h-.01Z" fill="#41463d"/><path d="M4.51,72.07c-1.58,.47-1,3.35-3.3,3.02l-.49-.54,3.43-2.93,.37,.45h-.01Z" fill="#41463d"/><path d="M69.32,61.71l3.68,.19,.41,1.2-4.12-.92,.03-.47Z" fill="#41463d"/><path d="M86.75,42.02c2.19-1.38,4.39-.69,6.59-.02l-.45,1.3-6.14-1.29h0Z" fill="#41463d"/></g></g></g></g></svg>