<?xml version="1.0" encoding="UTF-8"?><svg id="b" xmlns="http://www.w3.org/2000/svg" viewBox="0 0 85.68 78.25"><g id="c"><g id="d"><g id="e"><g><path d="M14.9,58.91l.26,5.46,2.38-.44c-.07-.08,.24,.28,.55,.64-2.31,1.47-.16,2.72,.29,4.21l.43-1.02,.9,2,.65-3.25,.14,1.17,.46,.03c.1-.68,.24-1.35,.3-2.04,.06-.74,0-1.49,.09-2.22,.12-1.04,.2-1.99-.9-1.78,.29-1.24,.82-2.47,.83-3.71,.09-13.35,.06-26.71,.18-40.06,.02-2.15-1.63-2.19-2.78-2.58-1.85-.63-3.84-.83-5.78-1.16-1.13-.19-2.17-.73-1.68-1.89,.26-.62,1.64-1.18,2.43-1.08,2.56,.34,5.08,.99,7.6,1.52,1.28-4.83-2.12-5.59-6.08-5.95l1.87-1.38,4.44,.68c1.26-1.9-.43-4.31,1.07-6.06h.72c.08,1.24,.1,2.48,.25,3.71,.09,.77,.16,1.98,.6,2.17,.61,.26,1.55-.24,2.18-.38l4.11,.3,.03,.69c-1.36,.41-2.7,1-4.1,1.19-1.79,.24-2.74,1.02-2.75,2.87-.1,14.25-.19,28.49-.28,42.74-.01,2.42,0,4.84,.39,7.34l.41-2.48,1.79,1.34,.55-.49,.34,.32c-.8,.83-1.59,1.67-2.4,2.49-.81,.82-1.76,4.52-1.23,5.38,.15,.24,.9,.29,1.3,.17,.63-.18,1.19-.58,1.88-.93l.85,2.68c2.07-2.01,2.55-5.05,1.48-6.77,.23,.4,.67,.82,.64,1.2-.09,1.36,1.01,1.67,1.83,1.94,.38,.13,1.06-.67,1.6-1.04l.55,.99,.36-1.14h.37l.43,3.89,.52-.07-.27-2.21,.23-.05c.05,.22,.08,.44,.16,.65,.1,.25,.24,.49,.8,.62l-.27-3.52,.49,.06,.58,5.72,1.31-2.38,.18,1.6,.72-1.32,.34,.05-.28,3.42,3.17-1.57-.83,1.28,2.69,1.65-4.09,.81,.89-2c-1.44,.81-2.65,1.49-3.66,2.06l-2.5-1.15-.18,.33c.22,.27,.44,.53,.38,.45-3.28,.49-6.71,1-10.13,1.52l-.2-.64-2.16,3.5h5.52v.2l-6.53,1.06c.22-2.11,.03-3.9-2.7-3.65l.13-1.08h-7.1l-.03-.24,1.07-.26-3.69-2.07c1.21-1.01,2.28-2.53,3.64-2.89,2.32-.61,1.83-2.1,1.74-3.55-.08-1.32-.38-2.62-.47-3.94-.04-.58,.16-1.18,.25-1.77l.75,.1h-.02Zm-.03-45.76l-.2,.52,5.39,1.17,.08-.33c-1.76-.45-3.52-.91-5.27-1.36Zm16.02,56.33c1.74-2.97,1.74-3.02,0-3.23v3.23Z" fill="#41463d"/><path d="M65.72,46.11c.5,.29,1.15,.46,1.48,.89,.58,.74,.97,1.63,1.62,2.36,.24-2.16-.18-3.95-1.64-5.62-1.1-1.26-1.65-3.01-2.41-4.47l.95,.21,.25-1.95c.55,2.45,.24,4.94,2.45,6.17,0-1.73-.05-3.52,.04-5.31,.02-.43,.53-.83,.81-1.24l-.04-.03c.12,2.65,.22,5.3,.37,7.95,.08,1.31,.21,2.62,.4,3.93,.08,.56,.37,1.08,.65,1.82,1.67-2.33,1.17-4.98,2.61-7.15,1.47-2.22,1.86-5.15,4.27-6.89-1.08,2.26-2.14,4.48-3.25,6.8l1.55,.24c-3.63,2.13-3.78,5.38-3.08,8.89l.51,.16,1.14-4.85,1.16,1.98c1.61-2.17,3.25-4.37,4.89-6.57l.52,.37-3.46,4.46,.4,.52,4.38-2.47c-.55,1.52-1.71,2.54-3.64,3.04-.49,.13-.96,.31-1.43,.47-2.31,.78-3.06,2.62-3.3,5.09,1.19-.79,2.25-1.5,3.22-2.15-1.13,1.69-2.62,3.26-3.3,5.13-.7,1.9-.62,4.09-.5,6.33l1.09-1.69c.44,1.06,.47,1.05,4.07-1.96l-1.9,5.87c1.54-.75,2.59-1.25,3.9-1.89l-1.17,1.77c1.41,.19,2.58,.26,3.69,.54,.98,.25,2.43-.21,2.66,1.55-.9-1.68-2.22-.94-3.34-.59-2.38,.75-4.86,.39-7.34,1.33-2.15,.82-5.03-.16-7.56-.54-1.92-.29-3.79-.89-5.67-1.35,0,.04,.12-.39,.31-1.01h2.74l-1.47-1.57,3.78,1.22-2.04-4.03c.95,.53,1.86,1.02,3.02,1.66l-.16-3.3,.32-.12,1.23,3.96,.2-3.84,.78,3.99c.24-.94,.34-1.58,.55-2.18,.85-2.37,.72-4.52-1.01-6.53-1.03-1.21-1.78-2.67-2.75-3.94-.35-.46-.93-.81-1.48-1.04-.93-.39-1.96-.56-2.86-1-.41-.2-.6-.84-.83-1.18,1.99,.77,3.78,1.46,5.58,2.16l.35-.58-2.71-3.07,.37-.72,.03-.03Zm5.08,9.01l.61-.21c-.34-1.18,.32-2.82-1.11-3.51l-.61,.27,1.1,3.45h.01Z" fill="#41463d"/><path d="M2.53,9.26v8.4c0,1.52,.66,1.84,2.1,1.51,1.5-.35,3.07-.38,4.65-.56,.04,2.1-.94,2.68-2.54,2.84-1.28,.13-2.53,.56-3.96,.89-.08,1.28-.22,2.6-.22,3.92-.02,14.87-.02,29.75-.02,44.62,0,2.94,0,2.93,3.01,2.7,.42-.03,.85,0,1.32,.44-.92,.08-1.83,.16-2.75,.26-.94,.1-1.87,.22-3.12,.36v-2.14c0-15.19,.03-30.39-.05-45.58,0-2.16,.49-4.46-.86-6.48-.09-.14-.13-.42-.05-.54,1.91-3,.54-6.33,1-9.47,.08-.53,.46-1.02,.7-1.52l.78,.35h0Z" fill="#41463d"/><path d="M74.14,31.25c-.34,.9-.61,1.39-.71,1.91-.55,2.75-1.76,5.48-.15,8.29,.17,.3-.18,.91-.6,1.37l-2.9-13.19,.5-.11,1.53,6.95c1.68-1.55,.18-4,2.33-5.22Z" fill="#41463d"/><path d="M65.72,46.11l-.37,.72c-1.23-1.14-2.46-2.28-4.07-3.78,.91,0,1.76-.25,2.07,.05,.91,.89,1.59,1.99,2.37,3.01Z" fill="#41463d"/><path d="M69.27,37.14c-.73-1.54-.89-3.12-.35-4.69,.33,1.37,.69,2.74,.97,4.12,.03,.13-.42,.35-.65,.53l.04,.03h-.01Z" fill="#41463d"/></g></g></g></g></svg>