<?xml version="1.0" encoding="UTF-8"?><svg id="b" xmlns="http://www.w3.org/2000/svg" viewBox="0 0 394.97 329.89"><g id="c"><g id="d"><g id="e"><g><path d="M214.1,213.71c.55-.07,1.11-.14,1.89-.24v-2.31c.02-14.26,.04-28.52,.03-42.77,0-.7-.37-1.4-.6-2.24,7.73-3.23,15.96-6.67,24.2-10.1,1.22-.51,2.47-.97,3.74-1.35,.51-.15,1.11-.03,1.82-.03,.45-.34,1.04-.98,1.77-1.3,6.85-3.01,13.73-5.94,20.58-8.93,14.68-6.41,29.35-12.85,44.03-19.27,1.63-.71,3.28-1.37,4.99-2.08v7.55c1.36-.47,2.69-.74,3.79-1.39,.55-.32,.99-1.32,.98-2-.06-3.29-.32-6.58-.44-9.88-.03-.78,.22-1.57,.35-2.35l-.05-.05c.34,2.29,1.17,4.05,2.5,5.27l-1.62-1.01v4.19c3.27,1.83,6.07,4,9.79,4.07v-11.23l-1.95,.95-.13-1.99,1.86-.09c.92-2.92,.6-3.53-2.17-3.87,.06-.1,.15-.29,.18-.28,2.88,.91,2.44-1.15,2.36-2.72-.13-2.57,.58-5.22-.6-7.68l-2.16-.49c-.07-.92-.14-1.6-.17-2.28-.03-.72-.32-1.85,0-2.07,.56-.38,1.51-.2,2.7-.28,.09-4.7,.47-9.74-.17-14.74,.15-.85,.42-1.69,.42-2.54,0-3.61-1.7-6.06-5.11-7.36-1.48-.57-2.95-1.15-4.9-1.91v24.63l-.59-.02c.1-1.36,.36-2.73,.25-4.07-.05-.59-.77-1.52-1.31-1.63-7.43-1.5-14.87-2.89-22.33-4.27-.57-.11-1.21,.18-1.82,.24-1,.09-2,.14-2.99,.23-.6,.05-1.26,0-1.77,.26-1.26,.62-2.42,1.43-3.66,2.09-.6,.32-1.29,.47-2.1,.32,1.87-1.04,3.74-2.07,6.19-3.43-2.61-.68-4.69-1.26-6.79-1.71-.36-.07-.84,.48-1.27,.75-.78-1.09-1.49-2.23-2.35-3.24-.63-.74-1.46-1.3-2.18-1.97-.43-.4-.8-.85-1.2-1.28l-.17,.63h-2.83v-3.44c-.82,1.2-1.5,2.19-2.12,3.11-.89-.57-1.63-1.05-2.59-1.66,0,.96,.06,1.7-.01,2.43-.19,1.8,.27,4.01-2.5,4.33,1.83-2.16-1.22-2.24-1.32-3.57l-.6,.32,1.47,2.4c-.51,.36-1.03,.72-2,1.4l1.6-.13c-1.8,1.07-.47,2.48-.64,3.72l.51,.27c1.36-1.46,2.73-2.91,4.19-4.48,1.06,1.81,2.26,1.57,3.64,.46,.87-.7,1.86-1.29,2.87-1.78,.39-.19,1.13-.15,1.45,.11,1.44,1.14,2.78,2.39,4.07,3.53l.49-.68c.41,.85,.82,1.7,1.22,2.53-.37,.65-.89,1.53-1.2,2.08,.84,1.14,1.39,1.89,2.01,2.73,.22-.46,.44-.93,.71-1.51,.28,.26,.56,.4,.62,.6,.59,2.18,1.26,4.17,4.27,3.5,.19-.04,.84,1.24,1,1.97,.14,.68-.09,1.45-.13,1.96,1.46-1.08,3.02-2.25,4.58-3.41l.53,.23c-1.75,3.19-.31,6.16,.31,9.19,.05,.24,.15,.51,.32,.69,2.07,2.12,1.68,4.76,1.69,7.36,0,1.18,.36,2.36,.56,3.54-1.76-.36-3.01-2.01-5.37-.89-6.8,3.24-13.82,6.02-20.74,9-.59,.25-1.12,.64-1.68,.96l.22,.51c.5-.15,1.03-.24,1.51-.45,7.24-3.07,14.5-6.12,21.7-9.28,1.16-.51,2.06-.44,2.72,.42,.89,1.15,1.87,1.21,3.11,.78-.54-.39-1.04-.75-1.53-1.1,1.11,.31,2.53,.29,2.02,2.17-.06,.24,.5,.64,.77,.97,.37,.36,.74,.71,1.11,1.07,1.93,1.31,3.88,2.6,5.8,3.93,.55,.38,1.04,.87,1.91,1.6-2.68,1.02-4.98,2.11-7.39,2.74-1.41,.37-2.91-.17-3.4-1.94l1.14-.61c-.65-.51-1.17-.92-1.87-1.48-.09,1.12,.07,2.17-.31,2.95-.28,.57-1.27,.78-2.33,1.37,.23-2.39,.41-4.16,.57-5.87,1.63,0,2.91,1.78,3.94-.11,1.11-2.04-.65-2.55-2.1-3.35-.37,2.74-2.81,1.97-4.43,2.67l-.15,.44c-.6,.2-1.19,.53-1.8,.58-1.81,.15-2.04,1.82-2.83,2.92-.06,.09,.75,1.13,1.21,1.17,.92,.08,1.88-.22,2.82-.37,.66-.1,1.32-.21,1.98-.31,.1,.19,.2,.39,.3,.58-.56,.4-1.06,1.01-1.68,1.16-1.74,.44-3.55,.58-5.28,1.03-3.58,.93-7.14,1.96-10.69,3-.5,.15-1.06,.52-1.31,.96-.31,.51-.63,1.51-.39,1.75,.5,.51,1.38,.95,2.07,.9,1.03-.06,2.02-.57,3.13-.92-.37-.4-.77-.84-1.17-1.27l.21-.35c.69,.35,1.58,.54,2.03,1.09,.58,.69,.82,1.68,1.22,2.59-4.26,1.88-8.31,3.75-12.45,5.4-.68,.27-1.88-.21-2.6-.69-.73-.49-1.17-1.41-1.79-2.2,.72-.41,1.57-.9,2.43-1.38l.24,.44c-.47,.34-.94,.69-1.5,1.09,1.39,1.69,2.46,.19,3.66-.07-1.75-3.87-1.4-7.81,.82-8.54-2.52-.67-5.17-.88-6.79-3.8l5.28-.75c-2.95-2.33-5.07,.36-7.61,.91v8.23l-1.51-1.57-2.42,.86c-1.05,.82-1.84,1.44-2.87,2.24-.35-.8-.63-1.43-.95-2.17-.11,.19-.26,.63-.56,.88-.51,.43-1.5,1.14-1.62,1.03-1.08-1.02-1.17-.38-1.59,.57-.19,.44-1.31,.5-2.02,.65-.36,.08-1.08-.06-1.08-.03-.26,2.05-2.13,1.88-3.41,2.54-1.51,.77-2.96,1.66-4.82,2.72l1.8,1.18c-3.85,1.86-3.96,1.89-5.95,1.09,.54-1.1,1.07-2.18,1.6-3.26l-.52-.32c-.61,.94-1.38,1.82-1.8,2.83-1.43,3.45-2.37,3.63-4.85,.63l-1.52,1.19c.39,1.05,.75,2.03,1.11,3l-.53,.39-2.61-2.62c-.45,.56-1.06,1.44-1.79,2.19-1.02,1.05-2.15,1.05-3.37,.22-.43-.29-1.06-.3-1.78-.12,2.83,.57,2.59,3.26,3.8,5.06-1.82,1.16-3.54,2.47-5.99,1.95,1.68-.39,1.79-1.3,2.09-2.94,.52-2.8-1.23-3.21-2.75-4.1-2.69-1.58-5.36-3.23-8.19-4.52-1.96-.9-2.59-2.07-2.28-4.12,.43-2.8,.69-5.64,1.15-8.51-.16,2.61,.02,5.18,1.74,7.51,.16-.37,.62-.92,.59-1.44-.07-1.5,.78-2.16,1.98-2.65,.34-.14,.62-.43,.97-.57,1.81-.76,1.2-1.55,.03-2.33-1.51-1.01-3.06-1.97-4.54-3.02-.57-.41-.99-1.03-1.48-1.56h0l3.28-1.77,.2,.25c-.79,.66-1.59,1.31-2.38,1.97l.43,.67c.86-.44,1.73-.84,2.56-1.31,1.42-.81,2.75-1.83,4.24-2.47,7.06-3.01,13.72-6.89,21.04-9.3,.59-.2,1.4-.34,1.91-.09,2.4,1.18,4.72,2.51,7.4,3.96,.2-.38,.46-.9,.73-1.42,.55-.04,1.16,.05,1.64-.15,4.5-1.83,8.97-3.71,13.45-5.59,.4-.17,.74-.5,1.54-1.04-.87,0-1.21-.09-1.47,.01-4.92,1.97-9.84,3.95-14.74,5.97-.21,.08-.25,.56-.37,.86l-1.96-.59c.15-.69,.38-1.27,.38-1.86,.04-10.36,.03-20.71,.11-31.07,0-1.11-.12-2.61,1.75-2.91l-1.08,1.67,.29,.28,18.1-7.36c.63,1.09,1.09,1.88,1.55,2.67l.32-.11c-.11-1.09-.16-2.19-.36-3.26-.06-.32-.48-.7-.82-.84-4.44-1.76-8.91-3.45-13.35-5.24-.46-.19-.74-.83-.87-.99-.88-.08-1.67,.02-2.33-.23-3.21-1.25-6.38-2.59-9.64-3.93-.41,1.48,.08,2.25,1.32,2.77,1.78,.75,3.51,1.61,5.12,2.77-3.12-.82-6.24-1.63-9.19-2.4,0-1.54-.04-3.46,.02-5.37,.03-.81,.29-1.62,.48-2.62-1.35-.63-1.99,.54-2.76,1.75-2.25-2.39-4.72-2.03-7.3-.65-.72,.38-1.56,.53-2.36,.78l.04,.04c.08-.15,.13-.42,.23-.44,3.04-.52,3.85-2.43,3.7-5.3-.19-3.69-.05-7.39-.05-11.09h.58v13.68h.38V25.98h-.33v11.03h-.42v-11.79h-.24c-.07,.6-.14,1.2-.2,1.81h-.23c-.06-.61-.02-1.26-.2-1.83-.13-.41-.5-1-.85-1.06-3.35-.63-6.72-1.16-10.18-1.74l-.14,2.23-1.76,.19,1.21-.69-2.05-.6v5.32l-.3,.14c-.16-.39-.45-.78-.46-1.18-.07-3.2-1.6-5.3-4.6-6.31-1.57-.53-3.16-1.05-4.69-1.68-.83-.34-1.57-.92-2.42-1.44v47.58h-.22c-.24-17.14-.47-34.29-.72-51.82-1.01,.59-1.46,.85-1.91,1.11-.05-.59-.12-1.18-.14-1.78-.02-1.09,0-2.19,0-3.28l.5-.03,.34,1.07c.3-7.01,5.96-7.9,11.05-9.78-.68,1.06,.75,2.02-.24,3,.37,.28,.77,.84,1.1,.79,2-.27,4-.64,5.97-1.09,.4-.09,.68-.69,1.01-1.06-.47-.17-.94-.51-1.4-.49-.95,.06-1.89,.31-2.62,.44,.53-.79,1.05-1.55,1.62-2.41,0,.15-.06,.51,.08,.73,.2,.31,.58,.75,.85,.73,.51-.05,1.27-.25,1.45-.61,.81-1.66,.75-1.69,2.23-1.12l-.62,1.08,2.09,.58,1.29-2.02,.45,.29-.83,1.24,3.84,.79,.25-.67-1.32-.96c5.46-.23,12.93,1.86,16.26,5.03l.62-1.56c.47,1.38,.88,2.24,1.02,3.13,.2,1.18,.18,2.39,.28,3.58,0,.08,.28,.17,.44,.2,.27,.06,.74,0,.78,.12,.56,1.59,1.45,3.18,1.5,4.8,.18,5.3,.07,10.61,0,15.92,0,.88-.35,1.76-.99,2.68-.37-.8-.74-1.6-1.15-2.49-.19,.09-.59,.19-.59,.29-.11,9.85-.19,19.71-.27,29.56,0,.11,.11,.23,.2,.41,1.17,.25,1.82,0,1.93-1.46,.06-.83,.73-1.61,1.12-2.42l.73,.12c.23,.69,.47,1.38,.69,2.08,1.07-.36,2.15-.73,3.23-1.09,1.67-.62,3.37-1.16,4.98-1.9,.49-.23,.73-1.01,1.39-1.97,0,2.71,.11,4.98-.03,7.23-.12,1.81,.83,2.57,2.33,2.92,2.4,.57,4.81,1.08,7.29,1.38-1.45-.42-2.89-.88-4.35-1.23-.98-.24-1.25-.71-1.18-1.74,.2-2.95,.35-5.92,.27-8.87-.02-.55-1.2-1.07-1.84-1.6l-.04,.02c.43-.15,1.17-.23,1.23-.46,.27-1.2-.41-2.68,1.15-3.46-.5-.82-1.01-1.65-1.58-2.6,.03-.07,.43-.58,.43-1.1,.05-7.15,.02-14.3,.07-21.45,.02-3.17,.21-6.34,.66-9.49,0,.86,.05,1.73,0,2.59-.17,2.52,.2,2.89,2.95,2.7,.59-1.97-1.26-4.75,2.13-6.04,.18,.92,.54,1.98,.55,3.03,.08,9.72,.1,19.44,.14,29.16,.03,6.45,.12,12.91,.09,19.36,0,1.26,.38,1.81,1.57,2.12,3.5,.93,6.97,1.96,10.26,2.89-.2-2.69-.4-5.44-.57-7.73,.5-.66,.97-.99,1-1.37,.11-1.21,.24-2.45,.05-3.64-.36-2.26,.69-3.26,2.92-3.65,.25,5.32,.51,10.62,.74,15.92,.05,1.13-.17,2.25,1.09,3.05,.39,.25,.27,1.31,.41,2.21l-1.24-.85c-.48,1.91,.84,2.12,1.98,2.61,1.45,.62,2.84,1.38,4.25,2.11,1.13,.58,2.24,1.18,3.29,1.89,5.64,1.86,11.61,2.37,17.56,4.05-.11-1.64,.65-2.08,2.16-1.66l-1.23,.78c1.68,2.09,4.22,1.49,6.31,2.28l1.39-3.94-1.17,.6-.19-.24c.26-.2,.52-.38,.76-.59,.3-.27,.83-.56,.82-.84,0-1.62-.14-3.24-.21-4.87-.03-.82-.09-1.65,0-2.45,.34-3.08,.83-6.05-.28-9.2-.66-1.86-.1-4.16-.01-6.25,.02-.39,.32-.91,.65-1.13,2.89-1.94,5.95-3.39,9.57-3.05v2.4c.36-.66,.49-.91,.45-.83,.76,.41,1.51,.82,2.51,1.35v-2.63l-3.02-.23c4.4-.91,8.62-.31,12.68,1.57-.56-.03-1.14,.02-1.67-.12-2.15-.56-2.38-.39-2.2,2.04l4.84-.21c-.52-.89-.78-1.33-1.05-1.78,3.04,1.33,3.33,1.67,3.2,5.07-.18,4.62-.51,9.22-.74,13.84-.06,1.18,.47,2.65-.06,3.49-1.17,1.86-.81,3.74-.77,5.64,.01,.51,.63,1,.67,1.53,.08,1.11,.25,2.34-.12,3.33-.82,2.16-.78,4.14,.12,6.26,.36,.86,.5,2.15,.11,2.92-1.29,2.51-.67,5.03-.66,7.86l1.09-.89c-.23,2.87-.44,5.59-.66,8.3h-.08v-4.37c-.82,2.19-.62,5.56,.05,7.1,.29,.66,.25,1.49,.27,2.25,.03,1.29,.07,2.59-.05,3.87-.23,2.51-.6,5.02-.86,7.53-.06,.6,.06,1.23,.5,1.83v-4.19c-.12,1.8,1.03,3.79-.41,5.62,.97,.66,2.09,1.41,3.2,2.16h-5.19c.79,.68,1.61,.84,2.12,1.32,1.55,1.45,2.06,1.65,4.44,.69-1.15-.42-2.31-.85-3.07-1.13,.35-.19,1-.56,1.65-.92,1.19,.85,2.38,1.69,3.9,2.78-.08-1.1-.15-1.95-.2-2.64,1.46,1.1,3.01,2.26,4.74,3.56-.66,.2-1.27,.29-1.79,.56-.41,.21-.7,.64-1.04,.97,.49,.07,1.06,.34,1.46,.18,1.16-.47,2.26-1.11,3.59-1.78v3.57c0,9.85,.02,19.7,.03,29.55,0,3.15,.18,3.16,3.04,4.4,3.19,1.38,6.25,3.05,9.64,4.74-1.7,.74-3.16,1.33-4.59,2-1.26,.59-2.46,1.32-3.75,1.86-.6,.25-1.56,.51-1.96,.22-1.47-1.09-2.92-.58-4.38-.26-1.98,.43-3.95,.95-5.63,1.35,.25,1.36,.95,2.75,.55,3.69-.37,.88-1.9,1.29-2.67,1.75-.39-1.59-.54-2.82-1.04-3.9-.15-.33-1.32-.46-1.88-.27-1.14,.37-2.14,1.27-3.29,1.5-1.52,.29-2.32,.84-2.15,2.46,.02,.21-.21,.45-.72,.68-.08-1.09-.17-2.19-.24-3.11-2.45,1.99-.91,3.53,1.47,5.12-.56,.25-1.26,.57-2.26,1.03-2.88-1.11-4.58-.43-6.71,3.11-.49-.43-1.16-.76-1.39-1.29-.83-1.93-1.6-2.2-3.41-1.05-1.06,.68-2.14,1.39-3.37,.33,3.04-3.2,6.02-6.33,9.34-9.83-1.55-.59-2.62-.99-3.53-1.34-.86,.93-1.58,1.72-2.31,2.49-1.66,1.73-3.27,1.82-5.07,.33-2.25-1.87-4.48-3.77-6.77-5.59-1.4-1.11-2.92-2.08-4.36-3.15-2.85-2.12-5.81-2.06-8.93-.61-1.59,.74-3.4,1.03-4.89,1.9-2.74,1.59-3.35-1.13-5.06-1.92,.7,.77,1.39,1.53,1.92,2.12-2.14,1.38-5.05,.39-7.02,2.57-6.06-3.07-12.29-6.23-18.53-9.4-.12,.19-.24,.39-.36,.58,.72,.52,1.4,1.12,2.17,1.53,6.66,3.52,13.35,7.01,20.02,10.52,.22,.11,.39,.32,.58,.49l-3.19-.98-.19,.37c1.48,.81,2.97,1.61,4.45,2.42-1.92-.65-3.93-1.11-5.73-1.99-1.79-.88-3.23-2.66-5.07-3.2-2.92-.86-5.62-3.07-8.98-1.97-2.08,.68-2.26,1.2-.91,3.01,.14,.19,.31,.35,.47,.54-4.23,2.68-5.58,2.8-8.41,.74,2.07-.58,4.11-1.16,6.16-1.73l-.02-.72c-1.14-.11-2.33-.46-3.42-.27-2.28,.39-2.56,.14-4.13-1.99-.51-.7-1.08-1.36-1.62-2.03l-.41,.32c.25,.34,.49,.67,.8,1.1l-2.01,.74,.62,.65-.65-.9c-.47,.54-.94,1.07-1.55,1.76-5.05-2.45-10.29-4.99-15.53-7.52l-.35,.41c.37,.38,.68,.89,1.13,1.11,10.82,5.37,21.66,10.72,32.51,16.04,.58,.29,1.31,.36,1.97,.39,1.59,.08,2.57,1.11,2.5,2.76-.93-.09-1.87-.18-3.22-.31,.63,.82,1.02,1.33,1.4,1.84-1.33,.24-4.48-1.26-4.64-2.37-.08-.52,.45-1.12,.8-1.88-8.52-4.15-17.28-8.43-26.38-12.87,.12,.8,.17,1.17,.22,1.49-.75,.09-1.45,.25-2.15,.24-.48,0-1.31-.12-1.39-.37-.47-1.57-1.56-.76-2.1-.41-.65,.43-1.55,.85-1.1,2.26,.39,1.23-.12,2.73-.15,4.11-.1,5.5-.16,11-.26,16.5-.02,1.14,.32,1.71,1.46,2.31,.8,.42,1.01,1.98,1.57,3.22,1.53,.22,3.91-1.5,5.21-4.16-1.13,.31-2.2,.59-3.31,.89v-7c1.48,.72,2.72,1.31,3.93,1.93,.28,.14,.46,.54,.73,.6,2.83,.59,2.55,2.71,2.6,4.83,.04,1.69,.52,3.36,.75,5.05,.05,.38-.14,.8-.22,1.22,1.49,1.47,3.17,3.12,4.85,4.77l-.35,.48,2.2-.15c-.14,1.25-3.82,2.49-6.76,2.36,1-1.44,.93-3.51-.31-4.46,.78,.05,1.37,.09,1.97,.13l.17-.32c-.87-.67-1.75-1.34-2.36-1.81-1.35,1.14-2.27,2.12-3.39,2.79-1.38,.83-2.92,1.41-4.39,2.1l-.4-.55c1.8-2.6,3.61-5.2,5.59-8.07-4.95,1.43-9.54,2.75-14.43,4.16,2.19-2.05,4.18-3.9,6.27-5.85-1.35-1.22-2.11-3.1-4.43-1.9l-.34-2.67c.16,3.97-3.4,4.02-5.67,5.4-.92,.56-1.92,.98-2.89,1.45-.16,.08-.37,.09-.54,.07-4.11-.58-7.49,1.83-11.22,2.78-1.43,.37-2.41,.4-3.29-.79l-.04,.05,.04-.03h0ZM237.28,4.31l2.13,.5,.22-.72-4.15-1.39-.29,.62c.71,.34,1.43,.69,2.15,1.04h-1.85l-.1,.62,3.97,1.34,.23-.58c-.77-.48-1.54-.95-2.31-1.43Zm-30.28,1.16l-1.04,1.56,.54,.49c1.18-1.19,3.34-.73,4.44-2.69-.54-.09-.73-.18-.89-.14-1.03,.26-2.06,.55-3.09,.83,.95-.44,1.94-.81,2.82-1.36,.42-.26,.64-.85,.94-1.29l-.5-.39c-1.08,.36-2.22,.61-3.22,1.11-1.03,.51-1.67,1.27,0,1.89h0Zm24.1-2.51l-2.47,.32v.84l5.7,1.18,.41-.43c-.41-.41-.75-.96-1.24-1.2-.77-.37-1.64-.53-2.47-.78l3.6,.4c-.76-1.57-3.69-2.32-6.15-1.53l2.62,1.2Zm77.21,170.9c.86-1.5-.35-1.95-1.3-2.67-.14,.58-.25,1.05-.34,1.43-1.38-.52-2.62-.98-3.85-1.45l-.22,.41c1.26,.91,2.59,1.76,3.77,2.77,.85,.72,1.31,.41,1.81-.3,.16,.27,.28,.74,.48,.78,.98,.17,1.99,.23,3.02,.33-.47,.5-.9,.95-1.26,1.33,.93,.61,1.81,1.18,2.69,1.75,.89,.58,1.78,1.15,2.43,1.58-.25-1.12-1.17-2.77-.69-3.64,.65-1.17,2.38-1.74,3.95-2.76-.86-.76-1.64-1.51-2.47-2.18-1.02-.82-1.28-1.61-.31-2.68,.4-.44,.53-1.11,.79-1.67l-.92-.66c-.54,.67-1.09,1.34-1.63,2.02-1.5-1.16-3.24-2.51-4.98-3.86-1.23,1.67-1.17,2.24,.82,3.71,.76,.56,1.66,.94,2.45,1.47,.61,.41,1.14,.94,1.7,1.41l-.32,.4-5.25-2.82-.32,.37,1.82,1.6c-.9-.35-1.7-.84-2.41-1.43-1.41-1.18-1.39-1.2-2.2-.18,.89,.81,1.8,1.6,2.67,2.43,.83,.79,1.26,1.65,.07,2.52h0Zm-30.87-88.41c-2.51-3.13-3.6-2.38-4.53-.33,.02-.3,.21-.61,.15-.88-.1-.49-.22-1.17-.55-1.35-.29-.15-.96,.2-1.34,.48-.75,.56-1.32,1.43-2.13,1.83-2.82,1.38-3.23,4.35-3.76,6.73-.29,1.32-.37,2.95-.68,4.44-.06,.31,.08,.67,.13,1l.44,.15c.75-1.34,1.45-2.72,2.26-4.02,.42-.68,.93-1.55,1.6-1.79,2.17-.8,2.77-1.6,2.67-4.13-.01-.28,.38-.57,.74-1.07,.42,4.88,2.67,9.34,.3,14.09,1.79-1.1,3.1-5.4,2.37-7.16-1.14-2.75-.49-5.29,.94-8.21,.36,1.66,.91,2.92,.8,4.11-.11,1.17-.89,2.28-1.38,3.42l.47,.22c.95-1.76,1.9-3.52,2.75-5.09-.38-.73-.84-1.62-1.3-2.51,1.46,.95,2.93,1.9,4.37,2.84-.35,.72-.61,1.25-.81,1.66,.91,.12,1.54,.1,2.09,.31,.65,.25,1.23,.69,1.84,1.05l.31-.45c-.73-.61-1.46-1.22-2.47-2.06-.2-1.39-2.97-3.85-4.95-3.92-.1,0-.21,.41-.32,.63h0ZM223.28,9.78l3.79,2.96c-.89,.29-1.83,.52-2.69,.91-.54,.24-1.33,.72-1.36,1.13-.1,1.56-.28,3.28,.3,4.63,.23,.55,2.34,.34,3.6,.36,.32,0,.65-.4,.98-.61-.32-.2-.62-.54-.96-.59-.97-.12-1.95-.12-2.93-.16l-.07-.48c.85-.36,1.99-1.25,2.49-.98,1.66,.91,2.24-.26,3.25-1.33,.34,.9,.63,1.69,.92,2.47,1.66,.2,3.1-.3,4.31-1.49,.21-.21,.55-.37,.85-.4,2.27-.24,3.72-1.76,5.22-3.24,.2-.2,.62-.17,1.38-.34-.9,.95-1.43,1.49-1.95,2.04l.22,.48c.79-.33,2.09-.51,2.24-1.04,.29-.95,.3-2.52-.29-3.1-1.35-1.31-3.04-2.36-4.76-3.17-1.89-.9-3.94-1.92-6.04-.07l-.69-1.6-2.44,2.6c-2.49-2.14-4.2-2.31-6.28-.75,.32,.62,.64,1.22,.95,1.82-1.27-.22-2.55-.4-3.81-.68-1.75-.4-4.59,.97-5.41,2.74,1.83,1.63,3.42-.05,5.1-.37,.4-.08,.89-.4,1.18-.27,1.66,.74,2.22,.48,2.89-1.48h0Zm109.92,130.88c0-.24-.01-.48-.02-.72,2-.29,4.02-.52,6-.91,.64-.12,1.21-.65,1.81-.99-.36-.45-.65-.98-1.09-1.32-.49-.38-1.1-.62-1.69-.86-1.34-.56-2.09,.06-2.04,1.75-1.04-1.42-1.62-1.05-2.23,.34-.83,1.89-1.64,2.08-3.4,1.13-1.41-.76-2.81-1.52-4.25-2.23-1.57-.77-3.16-1.48-4.75-2.22l-.3,.51c.92,.69,1.84,1.39,2.72,2.05-.61,3.45-1.87,6.79-.59,10.47-.17,.83-.41,1.98-.71,3.39,1.53-.57,2.58-.97,3.63-1.36-.96,1.05-2.54,1.67-1.85,3.48,.97,2.55,2.03,5.07,3.09,7.58,.05,.13,.54,.07,.83,.1-.61,2.21-.06,2.97,3.79,5.19l.7-1.8,.69-.13c.9,2.46,1.8,4.93,2.75,7.53-3.92,.42-7.33,.78-10.73,1.15l-.08-.59c.6-.12,1.2-.2,1.78-.37,.7-.21,1.37-.53,2.07-.74,2.01-.61,2.45-2.19,.89-3.67-1-.95-2.2-1.69-3.51-2.67-1.87,1.96-3.62,3.8-5.7,6,1.47,.29,2.35,.47,3.23,.64l.19,.49c-3.58,1.13-7.13,2.3-8.82,6.15,2.29,4.49,6.39,7.29,10.66,9.93-.58-.68-1.16-1.35-1.85-2.15,1.58,.37,4.37-1.38,4.64-3.11,.33-2.13,1.73-3.19,3.32-4.23-.9-3.2,2.14-3.96,3.33-6.21,.46,1.82,.8,3.19,1.15,4.56l.47-.08v-1.81h.48c0,.56-.03,1.12,0,1.68,.11,1.7-.15,3.57,.49,5.05,.58,1.32,2.16,2.2,3.49,3.45-.36-4.04,.53-8.04-.52-12.36-.61,.73-.94,1.12-1.19,1.43-1.23-1.62-2.34-3.08-3.44-4.53l.36-.18,4.74,3.02c.06-1.14,.12-1.89,.12-2.64-.03-7.29-.05-14.58-.12-21.88-.01-1.23,.58-1.83,1.65-2.12,.79-.22,1.6-.38,2.41-.57-5.18,.92-8.53-2.8-12.6-4.6v-.02h0Zm-110.74,3.16l.25,.63c.81-.25,1.65-.44,2.43-.76,1.3-.54,2.54-1.21,3.83-1.75,11.44-4.77,22.88-9.52,34.32-14.3,.47-.19,.83-.63,1.24-.95l-.31-.5c-6.28,2.58-12.55,5.15-19.23,7.89v-12.68c-1.67-.12-2.4,.52-2.29,2.11,.07,.95,0,1.92,0,2.88v2.94l-.58-.04v-6.74l-.69-.18c-1.36,1.66,.21,4.37-1.7,6.13,.12-1.81,.23-3.38,.34-5.04-2.46,0-.85,2.39-2.24,3.19-.18-.78-.34-1.46-.6-2.6l-2.68,1.92c-.38-.08-.92-.37-1.24-.22-2.71,1.27-5.43,2.52-8.04,3.97-1.86,1.04-2.22,3.94-.87,5.68l.33-2.14c.76,1.92,1.44,3.63,2.11,5.34l.65-.23c-.3-1.81-.6-3.62-.95-5.76,.74,.94,1.48,1.49,1.63,2.16,.23,1.03,.07,2.16,.07,3.25,0,.13-.04,.27,0,.38,.29,.78,.6,1.55,.94,2.43-.89,.42-2.14,1.03-3.42,1.6-1.09,.49-2.21,.93-3.31,1.39h0Zm99.01-79.7l-.25,.82c1.77,.89,3.48,1.93,5.33,2.62,3.38,1.28,6.91,.86,10.35,.29,2.44-.4,4.83-1.19,7.17-2,1.67-.58,1.82-.98,1.93-2.29-1.54,1.44-4.2,1.55-5.44,.21,1.12-.63,2.25-1.25,3.48-1.94-1.64-1.96-3.4-1.18-5.18-.83l1.44-1.03c-1.05-.14-1.97,.15-2.89,.19-.96,.05-2.36,.83-2.54-1.13-.01-.16-.84-.33-1.29-.33-.3,0-.69,.51-.9,.42-2.82-1.11-5.37,.25-7.98,.85-3.2,.73-3.41,1.19-2.56,4.18l-.66-.04h0Zm-75.18,54.9c-1.76-.84-3.02-1.46-4.29-2.07l-.29,.59,2.93,1.52-.1,.6c-.59-.06-1.25,.02-1.76-.22-2.33-1.09-4.66-1.78-7.17-.57-.65,.31-1.35,.51-1.98,.85-3.48,1.89-7.58,2.26-10.86,4.66-1.97,1.45-4.17,2.59-6.2,3.95-.33,.22-.33,.92-.49,1.39,1.7,.17,.67,1.51,.86,2.1,1.16,.2,2.17,.37,2.82,.49,1.31-1.22,2.34-2.41,3.6-3.27,.69-.47,1.81-.26,2.63-.61,5.62-2.37,11.23-4.79,16.81-7.26,1.1-.48,2.06-1.27,3.48-2.17v.02h0Zm18.89-53.32l.65-.04c.05-.28,.15-.56,.15-.85,.09-11.51,.19-23.01,.21-34.52,0-.65-.58-1.3-.71-1.57,.44-.6,1.47-1.37,1.4-2.02-.19-1.65-1.43-2.5-3.65-2.46,.09,1.46,.27,2.9,.26,4.35-.06,5.94-.18,11.88-.25,17.83,0,.48,.17,.97,.31,1.44,.42,1.36,1.17,2.69,1.24,4.06,.2,4.02,.13,8.06,.19,12.08,0,.56,.12,1.13,.19,1.69h.01Zm-26.93,135.2v-39.25l-.59-.08c-.31,1.57-.87,3.14-.89,4.71-.1,6.7-.03,13.4-.03,20.1v14.94l1.51-.43h0Zm94.98-89.62v-29.72c2.95-.47,5.74-.92,8.53-1.36l-.05-.23c-2.82,.27-5.64,.54-8.48,.82,0-2.9-.02-5.43,0-7.95,.02-1.3-.57-2.88,1.72-3.37-1.96-.51-2.6,.12-2.6,2.16,0,18.58,0,37.16,.02,55.74,0,.44,.1,.89,.21,1.75,1.25-2.64-.72-5.55,1.57-7.45-.16-.05-.9-.17-.9-.31-.07-3.16-.05-6.32-.05-9.5l5.9-.93-.06-.39c-1.88,.24-3.76,.48-5.81,.75h0Zm-112.89,32.87c0-2.94-.05-5.93,.02-8.92,.03-1.43-.35-2.34-1.86-2.37l.23,1.2h-1.79c.28,2.84,.59,5.61,.8,8.38,.16,2.17,.14,2.2,2.59,1.7h0Zm127.88,19.55c1.64-.62,3.08-1.3,4.59-1.69,1.23-.32,1.6-1.04,1.33-2.07-.24-.91-.77-1.75-1.05-2.35-1.75,.69-3.13,1.24-4.87,1.93v4.19h0ZM246.17,14.16l-.75-.21c-.15,.25-.42,.51-.43,.76-.06,5.14-.11,10.29-.1,15.43,0,.53,.37,1.07,.57,1.6,.24-.55,.67-1.1,.68-1.65,.05-5.31,.03-10.63,.03-15.94h0Zm48.77,125c-1.26,4.59-.75,9.24-.44,13.89,1.36-4.58,.72-9.25,.44-13.89Zm-35.86-38.93c.55-.41,1.3-.7,1.31-1.01,.09-3.15,.05-6.29,.05-9.74-.72,.38-1.32,.54-1.32,.71-.06,3.21-.04,6.42-.04,10.04h0Zm6.06,57.64c4.94-1.56,5.71-2.56,4.53-5.78-2.33,.14-1.09,2.32-1.97,3.63-.13-1.03-.23-1.78-.33-2.57-2.26,.85-2.52,1.43-2.23,4.72Zm-8.91-65.97l-.49-.26c-.41,.49-1.14,.97-1.16,1.47-.11,2.82-.05,5.64-.05,8.46l.51,.27c.4-.54,1.12-1.06,1.15-1.62,.12-2.77,.05-5.55,.05-8.32h0Zm38.36,65.3c-.36,4.01-.97,8.03,.04,12.02,.97-4.02,.85-8.03-.04-12.02Zm-49.69-93.96c.39,1.5,13.73,6.02,17.81,5.7-5.92-1.89-11.85-3.79-17.81-5.7Zm-18.87,111.37c3.83-1.26,4.08-1.69,3.22-5.29-3.51,.93-3.7,1.24-3.22,5.29Zm114.56-38.69l.47-.34c-.26-.58-.37-1.48-.8-1.68-2.38-1.09-4.84-1.85-7.09,.36,.72,1.35,1.65,1.61,3.11,.63,.52-.35,1.54-.1,2.29,.08,.71,.18,1.35,.62,2.02,.95h0Zm-68.98,43.78c-3.3-2.39-7.63-1.59-9.48,.47,.7,0,1.33,.2,1.66-.03,1.27-.88,2.37-.75,3.72-.08,1.27,.62,2.78,1.28,4.1-.35h0Zm59.87,5.07l2.22,1.35c1.22-1.46,2.29-2.74,3.36-4.02-1.3-.97-3.16-.08-5.59,2.67h.01Zm-79.45-91.59c-.93,1.43-1.41,3.08-1.45,4.95-.06,2.68,.42,4.26,1.45,4.75v-9.7Zm33.14,52.02c-2.92,1.03-3.27,1.81-2.34,4.97,2.95-.7,3.19-1.19,2.34-4.97Zm-14.72,17.24c-5.31,1.47-8.17,3.05-8.12,4.47,5.01-1.59,7.8-3.07,8.12-4.47Zm9.69-64.56l-.78-.14c-.12,1.43-.32,2.87-.27,4.29,0,.25,1.14,.78,1.58,.63,1.27-.42,2.03-4.02,1.17-5.4-.71,1.07-1.39,2.08-2.33,3.5l.65-2.89h-.02Zm10.24,2.31c-1.6,0-2.73,.14-2.29,2.07,.12,.51-.25,1.11-.24,1.66,.01,.58,.2,1.16,.32,1.75,.59-.43,1.53-.76,1.69-1.31,.37-1.3,.36-2.71,.52-4.17Zm26.21,33.02l-.18-.02v27.21h.18v-27.19h0ZM227.61,20.33h-5.03l-.43,.5c.45,.54,.83,1.46,1.37,1.56,2.2,.42,3.84-.48,4.09-2.06Zm115.17,140.98c1.81-4.34,3.73-8.94,5.65-13.53-2.68,4.3-5.22,8.66-5.65,13.53Zm-127.63-16.69v-6.21c-.82,.75-2.06,1.35-2.17,2.11-.18,1.21,.39,2.52,.67,3.89l1.5,.21ZM220.99,2.65l-.05,1.01,6.83,.6c.38-1.3,.03-1.79-1.2-1.77-1.3,.02-2.6-.14-3.9-.15-.56,0-1.12,.2-1.69,.31h0Zm25.83,162.89c2.46-.72,2.88-1.91,1.89-4.97-1.51,.59-2.14,2.25-1.89,4.97Zm96.89-25.74c1,1.07,1.73,1.93,2.55,2.7,.19,.18,.66,.05,1,.06-.04-2.04,2.05-1.57,3.4-2.75h-6.95Zm-81.57,19.32c2.37-.48,2.53-.9,1.77-4.59-2.23,.25-2.49,.92-1.77,4.59ZM213.99,12.86c-1.42,1.16-3.07,1.7-2.44,3.43,.25,.69,1.45,1.05,2.44,1.71v-5.13h0Zm18.59,154.98c-1.97,.73-2.78,2.43-2.43,5.1,2.65-.32,.5-2.87,1.82-3.87,.06,.99,.11,1.91,.17,2.83l.44-.04v-4.03h0Zm124.56,12.19c.22,.74,.22,1.39,.55,1.71,1.08,1.04,2.25,1.99,3.46,2.88,.3,.22,.85,.09,1.28,.12-.14-.48-.14-1.15-.46-1.4-1.42-1.08-2.93-2.03-4.84-3.31h.01Zm-81.99-16.77l-.29-.03v11.49h.29v-11.46Zm-13.9-82.73c-1.46-.08-2.95-.87-2.93,1.19,.02,2.06,.37,4.11,.58,6.17,.1-.5,.09-1,.1-1.49,.04-1.4-.57-3.01,1.49-3.71,.4-.14,.47-1.27,.76-2.14v-.02Zm28.95,62.36c-1.86,.63-1.99,1.05-1.51,4.85,1.97-.57,2.3-1.64,1.51-4.85Zm-59.19-87.63l.27,.02v-21.01h-.27v21h0Zm73.65,93.7c2.35-1.04,4.35-1.93,6.51-2.89-1.54-1.07-5.58,.66-6.51,2.89Zm-58.59,12.86c-1.93,.39-2.34,1.72-1.43,4.69,1.75-.65,1.99-1.42,1.43-4.69Zm-22.43,13.86c1.75-.49,2.04-1.47,1.36-4.68-1.65,.69-2,1.88-1.36,4.68Zm26.07-11.49c1.8-.09,2.2-1.45,1.35-4.61-1.78,.47-2.08,1.52-1.35,4.61Zm11.13-8.53c-2.12,.65-2.59,2.22-1.59,4.82,2.02-.7,2.22-1.29,1.59-4.82Zm80.21-16.26c-1.59,.08-2.7,.62-2.46,2.26,.09,.6,.79,1.1,1.21,1.65,.38-.51,.93-.96,1.1-1.53,.21-.7,.11-1.49,.15-2.38h0Zm-60.78,11.79c1.87-.58,2.27-1.84,1.53-4.46-2,.19-2.02,.23-1.53,4.46Zm26.94-15.31c-1.94,.46-2.48,2.15-1.42,4.48,1.85-.7,2.02-1.24,1.42-4.48Zm-4.05,1.62c-1.93,.67-2.32,2.19-1.57,4.75,2.41-.98,1.2-2.93,1.57-4.75ZM235.28,18.94c2.64-.25,4.19-1.45,4.24-3.47-.95,1.71-4.44,.18-4.24,3.47Zm19.34,94c1.8-.79,2.01-4.37,.33-6.43-.12,2.38-.22,4.25-.33,6.43Zm4.16-1.46c1.88-.86,2.11-2.31,.99-5.6-1.65,1.82-.57,3.74-.99,5.6ZM220.35,19.54c-1.82-.4-3.46-.76-5.27-1.15v3.18c.03,1.66,.74,2.02,2.58,1.16l-1.74-.54,.86-1.65-1.42-1h4.99Zm36.48,62.47l-.75-.41c-1.12,.45-2.51,.75-2.32,2.38,.05,.48,1.08,.85,1.67,1.28l1.4-3.25Zm-4.56,1.35c-2.33,.74-2.68,1.46-1.75,3.61,2.19-.61,2.25-.74,1.75-3.61Zm11.72-62.43l-.61,.47c.15,.65,.12,1.71,.49,1.86,.93,.4,2.02,.39,3.05,.55,.11-.31,.23-.62,.34-.92-1.09-.65-2.18-1.31-3.27-1.96Zm-30.67,158.81c-1.77-.93-5.56,.64-6.03,2.52,2.07-.87,3.95-1.66,6.03-2.52Zm42.86-80.33c-1.63,4.21-.86,8.55-.68,12.85l.68-12.85Zm27.67,49.25l-.45-.69c-1.58,.94-3.15,1.89-4.73,2.83l.36,.56c1.88-.45,3.51-1.31,4.82-2.7h0Zm27.8-12.32c-.91-2.15-2.53-2.24-4.88,0,1.31-.26,2.66-.91,2.48,1l2.4-.99h0Zm-65.88,43.17c-.56,.91-1.13,1.43-1.04,1.79,.15,.6,.72,1.1,1.12,1.65,.53-.45,1.5-.92,1.48-1.35-.03-.59-.8-1.14-1.57-2.09h.01Zm21.58-34.9c-1.8,.23-2.01,.91-1.24,4.14,1.62-.33,1.74-.74,1.24-4.14Zm22.17-9.62c-1.9,.53-2.17,1.55-1.42,4.46,2.32-.91,.77-2.83,1.42-4.46ZM212.76,19.48l.43-.61c-.66-1.61-2.45-1.42-3.87-2.06-.04,.8,.05,1.51,.41,2.04,.1,.15,1-.25,1.39-.36l1.64,.98h0Zm21.05,.02l-.1-.77h-5.01c.13,.36,.26,1.01,.39,1.01,1.58,0,3.23,.48,4.72-.23h0Zm83.73,148.57c.79,.15,1.24,.26,1.7,.31,.5,.05,1.02,.12,1.5,.04,.5-.08,.97-.32,1.46-.49-.11-.29-.18-.8-.32-.82-.51-.07-1.05,.05-1.58,.05-.47,0-.95-.05-1.93-.11,.02-.02-.32,.4-.82,1.02h-.01Zm-26.18-14.61c-2.86,.61-4.04,1.46-3.89,2.95,1.1-1.25,3.16-.94,3.89-2.95Zm-15.63-5.94c-1.73,2.99-.52,6.29-.76,9.47,.25-3.16,.51-6.32,.76-9.47Zm63.9-17.78c-.55,.96-.97,1.69-1.38,2.41l3.19,.43,.07-.53c-.48-.6-.96-1.19-1.87-2.31h-.01Zm-88.85-15.09c2.28-1.02,.93-2.79,1.08-4.26-.59,.22-1.23,.57-1.27,.97-.09,.97,.1,1.97,.2,3.28h0Zm31.5,43.12l.48,.69c1.12-.79,2.91-.7,3.43-2.27l-.42-.57c-1.16,.72-2.33,1.43-3.49,2.15h0Zm-35.95-25.96c.84-1.34,1.57-2.5,2.29-3.67-2.67,1.12-3.23,2.12-2.29,3.67Zm62.17-7.51c1-1.46-.13-1.91-.9-2.26-.54-.24-1.27-.05-1.92-.05l-.09,.76,2.91,1.55Zm-85.96,60.16c1.27-.86,3.09-.55,3.44-2.68-1.59,.48-3.32,.3-3.44,2.68Zm81.33-43.41c1.52-1.13,.93-2.66,.75-4.12-1.67,1.07-.82,2.67-.75,4.12Zm32.39-50.72l.06,.34c2.63-.5,5.27-.99,7.9-1.49l-.1-.54-7.86,1.68h0Zm-.84-32.54l2.01-.16c-.11-.66-.1-1.48-.44-2.13-.14-.26-1.03-.13-1.57-.18v2.46h0Zm-25.52,80.7c1.36-.66,1.65-3.21,.47-4.7-.17,1.68-.31,3.14-.47,4.7ZM212.79,21.78c.33-2.01-.02-2.2-3.4-2.18l-.26,.51,3.67,1.67h-.01Zm74.28,104.32c.1,1.15,.83-.16,1.53-.44,.4-.16,.76-.42,1.14-.64-.22-.26-.43-.73-.66-.73-.49-.02-1.13,.06-1.45,.36-.34,.32-.39,.95-.57,1.45h.01Zm-64.09,46.31l-.92-.09-.27,4.08,.9,.09c.1-1.36,.2-2.72,.29-4.08h0Zm-5.1-151.85v.52l3.49,1.22-.17-2.09-3.31,.35h-.01Zm29.19-.09h-.2v11.48h.2v-11.48Zm-18.28,1.4l3.95-1.28c-2.54-.37-3.86,.06-3.95,1.28Zm116.59,54.36l.23-.02v-5.06l-.23,.02v5.06ZM208.79,16.22l-3.35,1.31,3.19,1.14c.06-.93,.1-1.54,.17-2.46h0Zm91.98,122.72l-.66-.02v3.67h.47c.06-1.21,.13-2.43,.19-3.65Z" fill="#41463d"/><path d="M179.93,154.16c-.25,.56-.64,1.11-.71,1.69-.12,.93-.03,1.9-.03,2.99-.99-.22-1.91-.42-2.77-.62-.36-2.67-.75-5.53-1.13-8.4l-.63,.07v15.95l-.22,.06c-.06-.36-.17-.72-.18-1.09-.13-4.71-.25-9.43-.35-14.14,0-.57,.13-1.14,.22-1.71,.59-3.72-.2-5.22-3.02-6.58-1.55,.4-2.62,.67-3.68,.95l-.15-.59,1.9-.49c-.59-.62-1.01-1.35-1.64-1.66-4.21-2.11-8.47-4.12-12.7-6.21-.89-.44-1.71-1.04-2.7-1.65,6.39-2.68,12.71-5.34,19.03-7.99l-.28-.68c-7.1,2.75-14.2,5.5-21.75,8.43-.21,10.24-.03,20.91,.46,31.68,1.28,.53,2.75,1.14,4.15,1.72,.37-4.09,.36-7.83,.3-11.75,1.74,.77,3.41,1.21,4.7,2.17,1.11,.82,1.79,2.22,2.84,3.6l.52-2.22c1.33,.97,2.55,1.96,3.88,2.78,.67,.41,1.53,.65,2.33,.72,1.44,.13,2.21,.68,2.19,2.24-.05,3.13,0,6.25,0,9.38-3.62-1.79-7.41-3.67-11.2-5.55l-.32,.6c4.37,2.35,8.73,4.69,13.1,7.04l.08,.48c-1.28,.34-2.56,.69-3.84,1.03l-.31-.61c.58-.33,1.16-.67,1.9-1.09-2.47-1.06-4.42-3.29-7.49-3.28-.55,0-1.07-.69-1.67-.88-.74-.24-1.54-.29-2.27-.1,1.11,.47,2.26,.89,3.32,1.45,.36,.19,.82,.89,.72,1.12-.21,.46-.78,1.06-1.2,1.05-.74,0-1.62-.25-2.2-.7-.97-.75-1.76-1.75-2.71-2.74-.72,.84-1.3,1.53-1.95,2.3-.11-1-.2-1.85-.31-2.92-1.11,2.35-.62,3.43,1.94,6.1-2.51-1.34-4.95-2.07-6.12-4.77l2.32,.51,.16-.38-3.97-1.55,.07-.47c1.16-.26,2.33-.51,3.69-.81-.71-1.05-1.2-2.02-1.94-2.74-.29-.28-1.16-.06-1.74,.07-1.65,.36-3.29,.78-5.23,1.25l.07,.61c-1.6,.15-3.23,.31-4.89,.46,.36,5.46-1.33,10.7,.61,15.82-2.7,.41-5.15-.32-6.85-3.14,.29-.41,.62-.89,1.01-1.44l1.04,.76c1.49-.83,1.4-2.17,1.38-3.55-.05-3.52-.12-7.04,.03-10.55,.03-.83-1.86-2.09,1.36-2.46-4.03-2.02-7.21-3.61-10.79-5.4,.46,2.84-1.76,5.54,1.28,7.43l.04-.04c-.31,.38-.82,.72-.88,1.13-.17,1.22,.55,2.63-1.06,3.48-.28,.15-.2,1.07-.2,1.64-.02,1.71,0,3.43,0,5.17-1.9,.54-2.41-.65-2.67-1.94-.16-.8-.04-1.66-.04-2.49,.02-14.9,.06-29.8,.04-44.7,0-.64,.64-1.77-.82-1.84l.05,.05c.23-.63,.61-1.24,.66-1.89,.15-2,.14-3.91-2.17-4.97-1.48-.68-2.79-1.75-4.34-2.74-.09,.64-.18,1.19-.27,1.83-.95-1.59-.58-2.84,.94-3.5,.35-.15,.84-.27,.99-.55,1.33-2.51,3.11-1.12,4.74-.54,2.27,.8,4.75,1.17,6.83,3.01,0-1.31,.25-2.69-.06-3.92-.45-1.76,.49-2.32,1.76-2.87,.58-.25,1.12-.58,1.89-.98,.33,.75,.58,1.55,1.01,2.26,.34,.56,.83,1.32,1.36,1.43,2.29,.44,4.61,.67,7.26,1.03-4.07,1.62-7.45,4.4-11.83,4.11-.68,.57-1.44,1.2-2.2,1.84-.16-.75-.32-1.5-.52-2.52-1.38,.8-2.81,1.38-4.31,.46,.82-.52,1.64-1.03,2.69-1.69-2.01-.62-3.67-.95-5.03,.53-.33,.36-.32,1.04-.47,1.57,.5,.04,1.01,.18,1.48,.1,.48-.08,.93-.37,1.39-.56l-.49,2.16,3.37-.4,.35,1.54,.54,.36c.34-.54,.69-1.07,1.03-1.61l.17,1.52c3.86-1.65,7.56-3.18,11.21-4.82,3.33-1.49,6.62-3.05,9.88-4.69,.91-.46,1.62-1.31,2.31-2.16,1.17-.43,1.79,.08,1.7,1.44-.2,3.04-.55,6.07-.52,9.11,.02,3.14,.42,6.27,.95,9.45,.05-.49,.15-.98,.15-1.47,.05-6.01,.1-12.02,.13-18.03,0-.97-.04-1.96,1.44-1.31,.1,.04,.28-.04,.4-.11,1.59-.97,3.1-2.11,4.79-2.88,6.34-2.89,12.78-5.55,19.1-8.49,4.24-1.98,8.31-4.29,12.71-6.58-2.88-1.39-5.82-2.81-8.77-4.21-.18-.09-.5,0-.71,.1-2.27,1.03-4.55,2.03-6.78,3.15-.58,.29-.99,.94-1.39,1.34-.52-1.04,.47-1.65,1.47-1.93,2.33-.67,2.94-2.12,2.73-4.42-.18-1.95,.09-3.95,.17-5.92h0c.2-.7,.57-1.4,.58-2.11,.06-4.16,.03-8.31,.3-12.47v13.53l.57,.27c.31-.5,.88-1.01,.88-1.51,.05-6.65,.1-13.3,0-19.94-.06-3.88-.42-7.75-.63-11.63-.05-.92,0-1.85-.19-2.83-.12,2.12-.24,4.24-.37,6.36h-.21c0-1.6,.08-3.2-.03-4.78-.07-.92,.86-2.2-1.63-2.13-2.14,.05-4.56-.67-6.85-1.12-3.74-.74-7.5-1.45-11.15-2.51-2.1-.61-4-1.89-6.14-2.95-.05,.53-.14,1.07-.14,1.61-.06,18.67-.1,37.34-.2,56.01,0,1.08-.54,2.15-.85,3.31l5.38-1.81c.12-1.09,.24-2.17,.42-3.81,.72,.8,1.56,1.37,1.47,1.71-.74,2.93,1.5,4.46,2.83,6.42,.1,.15,.24,.29,.36,.44h-1.03l-.44,.42c.56,.74,.99,1.69,1.73,2.14,.53,.32,1.47-.03,2.63-.11-1.29-1.09-2.12-1.8-2.95-2.51,1.67,.65,3.34,1.29,5.49,2.13-3.6,1.5-6.92,2.89-10.24,4.27l-.28-.65,4.04-1.79-3.08-1.7,.2-.44,1.88,.46c.46-2.05,.09-3.92-1.29-5.48-.37-.42-1.27-.73-1.8-.6-1.85,.46-3.64,1.13-5.51,1.73,.73,2.32,.46,5,2.11,7.04-.84,.54-1.92,1.7-3.15,1.89-1.1,.17-2.37-.72-3.71-1.19l-.6,1.34-.19-.44-8.52,2.25c.22-3.12,.36-5.96,.68-8.79,.06-.52,.79-1.08,1.34-1.41,.65-.38,1.43-.52,2.16-.77,1.46-.52,2.95-1.47,4.14,.5,.15,.24,.69,.25,1.38,.47-.7-3.76,2.43-3.9,4.42-5.36-.68,.22-1.35,.53-2.05,.66-1.63,.31-3.28,.74-4.91,.69-.77-.02-1.44-1.18-2.27-1.6-1.47-.74-2.98-1.49-4.64-.18-.46,.37-1.31,.25-2.09,.08,2.33-1.11,4.65-2.23,7.35-3.52-2.6-.95-4.79-1.39-7.13-.14-1.59,.85-3.32,1.45-4.91,2.29-.43,.23-.55,1-.89,1.45-.65,.86-1.3,1.75-2.07,2.49-2.48,2.4-2.54,5.42-2.33,8.53-.62,.08-1.29,.04-1.85,.27-4.83,2-9.65,4.06-14.46,6.11-.18,.08-.27,.37-.71,.99,1.21-.35,2.01-.48,2.72-.8,2.16-.96,4.28-2.01,6.42-3,2.6-1.2,5.2-2.36,7.81-3.54-.14,2.02,.32,4.29-2.2,5.34-.29,.12-.54,.38-.83,.41-3.24,.24-5.74,2.13-8.45,3.61-.58,.32-1.54-.05-2.6-.11l.94,2.45-.31,.39c-1.91-1.12-3.82-2.24-5.91-3.46-.22,.92-.61,1.81-.61,2.7-.04,9.98,0,19.95-.04,29.93-.01,2.61-.23,5.22-.36,8.03-.09-1.7-.4-3.23-.19-4.69,.2-1.4-.34-1.99-1.43-2.51-2.42-1.15-4.82-2.36-7.23-3.52-.43-.21-.91-.29-1.56-.49,0,2.45-.1,4.67,.07,6.87,.04,.55,.92,1.11,1.51,1.54,1.28,.94,2.21,4.13,1.42,5.41-.2,.32-.83,.52-1.25,.5-.54-.03-1.06-.34-1.98-.67,0,1.96-.07,3.72,.05,5.46,.03,.42,.65,.86,1.07,1.18,1.12,.86,2.28,1.67,3.43,2.5l.05-.05c-3.62-1.64-7.24-3.26-10.84-4.95-.64-.3-1.15-.86-1.72-1.3l-.03,.04,1.62,.31c0-1.98,.13-3.9-.07-5.78-.07-.62-.87-1.38-1.52-1.68-3.91-1.83-3.93-1.79-3.81-6.09,.01-.37,.07-.74,.12-1.26l5.56,2.38v-5.66l.46-.02c.04,.78,.13,1.56,.13,2.34-.02,4.6-.07,9.2-.1,13.8-.02,2.91,.37,3.38,3.48,4.13,.07-.77,.2-1.51,.2-2.25-.03-5.62-.15-11.24-.11-16.86,.01-1.4,.52-2.79,.8-4.17l-2.66-1.87c1.15,.32,2.34,.87,3.27-.76-.63-.45-1.23-1.04-1.95-1.36-1.28-.57-2.85,.54-2.7,1.82-2.9-1.58-5.8-3.18-8.71-4.75-1.42-.76-2.86-1.49-4.35-2.26-.29,.87-.41,1.62-.56,1.62-1.61,.09-2.4,.92-2.32,2.67l-.46-.04c-.51-1.08-1.04-2.15-1.51-3.25-1.25-2.93-2.74-3.79-6.22-3.55-.47-1.77-1.59-2.67-3.36-2.7,.76-2.55-.84-3.84-2.92-4.84,9.23-4.2,18.24-8.27,27.22-12.41,7.44-3.43,14.84-6.93,22.25-10.41,.75-.35,1.76-.5,1.28-1.88-.12-.35,.64-1.28,1.18-1.53,1.68-.77,2.46-1.88,2.13-3.75-.07-.42,.2-.9,.71-1.33,.08,.98,.16,1.96,.26,3.09,.39-.07,.89-.01,1.04-.22,1.24-1.62,3.29-1.5,4.9-2.32,1.14-.58,1.55-1.24,1.59-2.5,.15-4.97,.44-9.94,.63-14.92,.02-.63-.2-1.26-.74-1.92-.27,.47-.54,.94-.86,1.49-.8-1.82-.59-3.06,.33-4.15,.45-.53,.84-1.34,.81-2-.21-4.3-.64-8.6-.82-12.9-.15-3.6-.1-7.22-.02-10.82,.03-1.23,.52-2.45,.65-3.68,.1-.97,.86-2.08-.49-2.89-.31-.19-.4-.9-.42-1.38-.17-3.3-.32-6.6-.41-9.91-.08-3.09-.04-3.09-2.93-3.95-.48-.14-.95-.3-1.57-.5-.17,2.8-.44,5.49-.49,8.19-.18,9.38-.24,18.76-.46,28.14-.08,3.57-.51,7.13-.71,10.69-.11,1.98-.13,3.96-.08,5.94,.07,3.09,.27,6.18,.32,9.27,.01,.86-.34,1.73-.94,2.5,0-2.95-.06-5.89,.01-8.84,.09-3.95,.31-7.89,.42-11.84,.32-11.02,.61-22.03,.94-33.05,.11-3.57,.37-7.14,.41-10.71,.01-1.33,.16-2.69-1-3.92-1.18-1.25-.46-2.58,1.19-3.41-.15,.73-.79,1.9-.48,2.69,.58,1.49,2.69,1.85,4.59,1.08-1.37-.92-3.63-.17-4.18-2.33,2.25-1.57,6.05-1.12,6.78,.95l1.49-1.05c-1.85-2.02-4.19-1.57-6.28-2.17,1.69,.18,3.41,.18,5.04,.58,2.05,.5,2.57,2.38,1.51,4.23-.38,.66-.6,1.53-.59,2.29,.1,4.01,.34,8.01,.45,12.01,.23,8.17,.38,16.35,.6,24.52,.22,8.3,.47,16.6,.74,24.9,.08,2.54,.26,5.08,.4,7.75-4.07,1.83-8.08,3.65-12.12,5.42-1.59,.7-2.61,1.3-1.91,3.51,.53,1.67,.01,3.67-.02,5.52-.02,1.01,0,2.03,.31,3.06,.24-2.97,.41-5.95,.76-8.9,.08-.65,.6-1.55,1.17-1.81,12.36-5.73,24.75-11.37,37.12-17.08,.58-.27,1.31-1.03,1.33-1.58,.18-4.96,.24-9.93,.28-14.9,.04-5.57,.11-11.13,.02-16.7-.07-4.2-.34-8.39-.56-12.58-.14-2.73,.43-4.79,2.96-6.65,4.21-3.11,8.95-4.09,13.85-4.97,4.77-.86,9.51-.54,14.25,.1,1.26,.17,2.46,.81,3.68,1.23-.12,.2-.24,.39-.36,.59-2.34,.27-.09,1.77-.9,2.48l3.78,1.1c.74-1.72,.3-2.65-1.46-2.95-.52-.09-.99-.45-1.49-.68,3.19-.59,5.71,1.27,8.01,2.83,1.24,.85,1.96,3.24,2,4.95,.29,12.28,.37,24.56,.44,36.84,.03,4.27-.22,8.55-.23,12.83,0,1.71,.24,3.42,.45,5.11,.04,.32,.46,.6,.71,.89,.18-.29,.5-.56,.53-.87,.08-.69-.07-1.42,.04-2.1,.09-.61-.65-1.74,.84-1.69,.06,0,.17-.19,.18-.31,.57-3.5,1.13-7,1.81-11.19,2.12-.4,4.92-.93,7.73-1.46l.07-.45c-2.17-.28-4.34-.56-6.5-.84,.27-.38,.86-.86,.77-1.11-1.16-3.22,.23-6.43,.06-9.66-.18-3.44,.76-6.93,1.37-10.44v19.49h.56v-20.79h.46v7.59h.49v-7.31h.46v6.64l.32,.02,.33-2.48h.33v6.32h.38v-6.28l.42-.02,.49,5.81h.21v-5.65h.11v7.47c.38-.29,.66-1.56,.83-3.8,.17,.37,.61,1.85,.86,1.82,1.58-.2,.8-1.58,.8-2.42,0-1.13-.55-2.26-.59-3.4-.04-.98,.3-1.97,.49-3.09l.44,1.31,.41-.02,.12-1.79,1.49,1.39c-1.72,2.23-2.45,5.02-1.5,7.24,1.03,2.41,.05,4.61,.58,6.84,.36,1.48,.5,3.02,.97,4.45,.59,1.79,2.04,1.34,3.3,.89,1.68-.6,3.31-1.35,4.98-1.97,.58-.21,1.22-.24,1.83-.35l-.03-.03c-3.73,1.47-7.45,2.98-11.21,4.38-1.29,.48-1.9,1.05-1.89,2.58,.09,10.81,.07,21.61,.09,32.42v3.06l1.62-.28c-.09,.19-.11,.34-.17,.37-10.2,4.25-20.4,8.49-30.61,12.72-.17,.07-.38,.03-.57,.04v-18.77c-.17,.16-.33,.24-.33,.32-.19,5.74-.39,11.49-.5,17.23,0,.38,.58,.77,.9,1.16-3.19,1.43-6.36,2.91-9.58,4.28-1.21,.51-1.69,.94-1.39,2.49,.38,1.99,.13,4.12,0,6.18-.03,.42-.66,.98-1.13,1.16-3.33,1.26-6.7,2.43-10.04,3.66-.96,.35-1.88,.78-3.03,1.26,.42,.31,.71,.58,1.05,.76,1.97,1.03,3.92,2.12,5.95,3,.7,.3,1.64,.21,2.44,.07,.93-.16,1.76-.93,2.71,.15,.27,.31,1.2,.05,1.56,.05,.4,1.39,.64,2.69,1.18,3.86,.19,.41,1.08,.68,1.66,.69,1.43,.03,3.07-2.1,2.98-3.69,1.32,.54,.88,3.64-.73,5.05l.3,.44c.44-.3,.96-.53,1.29-.92,1.24-1.47,1.59-1.61,3.85-1.13-4.05,1.33-3.24,5.66-5.47,8.27,1.14,.95,2.21,1.86,3.29,2.76l.04-.04-.13-.03h-.01Zm-11.22-134.2c.87-.84,2.84,.05,3.05-1.9-2.31-.41-2.85-.07-3.04,1.9l-.46,1.56,.43,.33c.76-.82,2.8,.44,2.77-2.11-1.03,.08-1.89,.15-2.75,.22Zm-5.66,1.54c-1.15,1.2-3.4,1.05-3.91,3.1,.93-.12,1.68-.59,2.49-.8,1.28-.34,1.71-1.06,1.4-2.3v-1.64c-3.31,.8-4.14,1.48-3.69,2.96,1.24-.44,2.47-.87,3.7-1.31h.01Zm1.93-.58l-1.44,1.43,.38,.51c1.03-.26,2.1-.4,3.05-.84,.31-.14,.27-1.04,.39-1.59,.26-.57,.52-1.13,.79-1.7-.59-.04-1.18-.16-1.75-.09-.61,.07-1.26,.23-1.8,.52-.37,.2-.57,.69-.85,1.05l1.24,.7h0Zm16.59-1.83c-1.55,.03-1.04,.98-.91,1.84l5.08,.71,.23-2.07c-1.6-.18-3.03-.35-4.46-.51h4.23c-1.56-1.71-3.33-1.18-5.65-1.09l1.47,1.13h.01Zm4.77,15.28c1.02-.49,2.01-1.08,3.07-1.46,2.77-1.01,3.06-1.35,2.89-4.13,0-.03,.09-.06,.19-.11,.4,.67,.82,1.37,1.24,2.08,2.67-1.95,2.66-3.47,.02-4.8-1.76-.89-3.58-1.77-5.48-2.24-6.95-1.69-13.67-.39-20.25,1.99-.44,.16-.8,.53-1.19,.81,1.24,1.93,2.98,2.61,5.4,2.12l-.49-1.02c1.16-.47,2.21-.96,3.3-1.31,.45-.15,1.06-.14,1.47,.06,.23,.12,.19,.76,.31,1.16,.11,.38,.27,.76,.39,1.09-.69,.34-1.46,.78-2.27,1.11-.58,.24-1.28,.57-1.82,.44-1.89-.47-3.86-.89-5.57-1.77-1.36-.71-2.31-.38-2.96,.56-.79,1.13-1.4,2.48-1.64,3.82-.06,.33,1.61,1.29,2.55,1.4,3.23,.4,6.49,.52,9.73,.8,1.81,.15,3.44,.45,4.81-1.48,.64-.9,.77-1.23,.17-1.97-.25-.31-.47-.65-.77-1.05,2.18-.23,2.92,1.18,2.32,4.34l2.47-.24-3.91,1.14,.06,.44,4.34-.56,.07,.39-4.61,1.07,.18,.71c2.25-.56,4.51-1.09,6.75-1.71,.22-.06,.51-.8,.42-.9-.32-.34-.79-.53-1.2-.78h.01ZM74.31,126.87c.18-.9,.43-2.5,.84-4.05,.16-.63,.52-1.39,1.03-1.73,2.5-1.63,5.07-3.13,7.73-4.75-2.83-.86-5.86-1.79-8.89-2.72l-.5,.59,1.86,.98-.16,.51c-2.1-2.08-3.37,.1-4.93,.67-.73,.27-1.59,.7-1.95,1.32-1.06,1.8-.31,5.09,1.4,6.53,1.17,.98,2.46,1.82,3.58,2.63v.02h-.01Zm59.85,31.04c0-1.44,.05-2.88,0-4.32-.07-1.64-.04-3.14,1.86-3.83,.98-.36,1.89-.89,2.85-1.36-4.56-3.39-6.13-3.53-10.82-.97-.22,.12-.46,.24-.65,.41-.18,.16-.41,.39-.42,.6-.02,2.11,0,4.21,.05,6.32,0,.17,.43,.33,1,.73v-5.26l1.93,1.09c-1.35,.9-.78,2.3-.69,3.32,.26,2.78,3.3,1.9,4.89,3.28h0Zm-27.28-32.91c-.88,.2-1.5,.53-1.73,.35-1.94-1.53-4.03-1.49-5.69,.18-.4,.4-.86,.87-1.38,1.02-1.15,.33-2.35,.47-3.52,.72-.09,.02-.14,.28-.28,.57h2.07l-2,1.72c1.21,.13,2.32-.23,3.42-.21,.67,0,1.37,.58,1.99,.99,.38,.25,.59,.81,.99,.97,.62,.25,1.54,.05,1.97,.44,1.34,1.22,2.51,2.62,4.02,4.25,.8-3.79,.1-7.32,.13-11.01h.01Zm48.38,36.34l.49,.2c.36,1.84,.72,3.68,1.2,6.16,.24-1.15,.41-1.81,.52-2.48,.22-1.37-.89-3.6,2.12-3.12,.3,.05,.69-.47,1.29-.92-.98-1-1.76-2.07-2.79-2.78-1.78-1.24-2.12-1.1-2.88,.9-.34,.9-.44,1.9-.65,2.85l.35,.24,.34-1.04h0Zm33.73-93.04c3.56-4.59,8.61-20.91,8.09-23.93-2.58,7.64-5.34,15.79-8.09,23.93Zm-98.02,51.19c1.7,1.18,1.69,1.17,3.19,.07,.19-.14,.53-.08,.8-.12,.25-.03,.69-.03,.71-.12,.08-.34,.14-.79-.02-1.04-.6-.96-2.96-1.04-4.08-.65-1.22,.42-.97,2.3-2.65,2.24-.41-.02-.87,1.21-1.31,1.87l1.99,.91c-.53-.87-.87-1.43-1.44-2.35,1.49,.49,2.31,.75,3.54,1.15l-.73-1.96Zm107.24-31.7c3.93-1.68,7.5-3.21,11.3-4.84-2.15-.85-10.38,2.63-11.3,4.84Zm-18.51-66.86l-.13-2.04c-2.11,.17-4.05,.26-5.98,.52-.37,.05-.65,.78-1.23,1.52h7.34Zm-6.8,17.88l.07,.53c2.01,.04,4.03,.3,6.01-.12l.02-.54-.98-.51,1.01-.86c-2.92-.55-5.78-.17-6.21,.89h2.65v.16l-2.58,.45h.01Zm-3.59-3.37v3.74h2.64l.04-.27-1.3-.5,1.36-.32v-2.64h-2.74Zm-60.05,68.82c-1.47,0-2.6-.02-3.72,0-.45,0-.89,.11-1.34,.17,.18,.43,.25,1.1,.57,1.25,1.22,.57,1.01,1.61,1.03,2.59,.02,.9,0,1.79,0,2.69,.35-.24,.44-.48,.43-.72-.05-1.83-.56-3.83,2.03-4.54,.36-.1,.56-.79,.99-1.43h.01ZM180.1,18.55c-1.15-1.04-6.23-1.41-7.03-.7-.17,.15-.35,.48-.29,.62,.1,.24,.41,.56,.61,.55,2.16-.12,4.32-.29,6.72-.47h-.01ZM95.85,121.88c-.07,.79,.07,1.5-.21,1.79-.38,.39-1.09,.46-1.66,.67l.26,.48c.8-.47,1.84-.77,2.32-1.46,.37-.54,.32-1.79-.08-2.3-.31-.4-1.49-.31-2.21-.12-.43,.11-1,.82-.99,1.24,.01,.45,.64,.88,.99,1.32l1.59-1.61h0Zm53.31-18.5c.51-.56,.91-1.33,1.53-1.61,.61-.28,.9-.17,.89-.53v-2.27c-2.4,.13-3.34,1.77-2.42,4.42h0Zm63.85-50.56h-.41v9.52h.41v-9.52Zm-85.28,91.58l.18,.41c4.03-1.75,8.07-3.51,12.1-5.26l-.16-.37c-4.04,1.74-8.08,3.48-12.12,5.22h0ZM192.45,21.15c-.29,1.95,.14,3.22,2.27,3.24,.57-2.08,.38-2.36-2.27-3.24Zm-24.19,17.76c.26-2.52-.25-3.74-1.54-3.65v3.52l1.54,.13Zm10.98-3.2h-6.61c1.38,1.23,5.25,1.23,6.61,0Zm17.17-6.6c-1,1.12-2.07,2.32-3.39,3.82,.79,.12,1.51,.43,1.7,.23,1.12-1.18,2.01-2.52,1.69-4.04h0Zm-12.81,33.92l-.13-.06v13.48h.13v-13.42Zm-28.16-37.32c.94-1.02,2.88-1.27,2.78-3.58-1.5,1.13-3.17,1.54-2.78,3.58Zm-10.39,98.01l1.36,.91v-2.37c-1.13,.78-3.03,.34-3.11,2.08l1.75,.47v-1.09Zm53.42-28.63l-.34,.02v6.4h.34v-6.42Zm-43.26,73.84c1.2-2.49,1-3.5-.78-3.9,.28,1.41,.53,2.65,.78,3.9Zm24.93-130.58l.15,.82,4.83-.88-.15-.77-4.83,.84h0ZM68.4,119.21l-.67-1-2.27,1.23c.44,.37,1,1.13,1.31,1.04,.61-.18,1.09-.83,1.62-1.28h0Zm114.47-57.91l-.24,.08v10.48h.24v-10.56Zm-.58-7.41h.15v-10.61h-.15v10.61Zm-20.48-20.32c-.75,.11-1.42,.1-1.97,.35-.23,.1-.39,.96-.22,1.16,.34,.4,.93,.59,1.52,.92,.25-.9,.42-1.5,.68-2.43h0Zm21.21,19.05l.16,.07v-9.44h-.16v9.38h0Zm-19.32-15.75l1.04-.49c-.29-.63-.53-1.29-.91-1.85-.06-.08-.78,.29-1.2,.46,.36,.63,.72,1.25,1.08,1.88h0Z" fill="#41463d"/><path d="M120.64,201.35c-4.74,1.91-9.19,3.7-13.64,5.49l-.22-.34,1.01-1.09-.18-.34c-.65,.38-1.84,.75-1.85,1.15-.04,1.69-1.31,1.7-2.15,2.12-.5-.42-.89-.74-1.27-1.06-.32,.45-.58,.97-.98,1.33-.68,.62-1.46,1.14-2.08,1.6-.52-.8-.86-1.32-1.2-1.84l-.66,.19c.84,4.29-2.24,.46-2.9,1.9l1.32,.55c-3.57,1.4-6.99,2.74-10.57,4.15-.21-.45-.45-1-.7-1.55l-.75,.61,1.13,2.1c-2.22-.71-3.85,2.17-6.39,.36-.26,3.2-2.76,3.33-5.66,3.74l1.6-1.13-.36-.56c-.7,.53-1.37,1.13-2.12,1.57-.56,.33-1.25,.65-1.86,.61-.57-.04-1.09-.69-1.68-.81-.86-.16-1.92-.37-2.59,0-.44,.24-.34,1.47-.57,2.78-2.22,.82-4.96,1.84-7.73,2.86-.63-.66-1.34-1.4-2.37-2.46v3.64l-.46,.21c-.78-.75-1.57-1.49-2.66-2.54l.24,2.71c-1.99,.72-4.03,1.51-6.12,2.18-1.49,.48-2.83,.24-3.9-1.6l1.97,.65c.04-.78,.11-1.46,.11-2.13,0-6.84-.04-13.69,.04-20.53,0-1.19,.58-2.37,.73-2.98,1.31,.05,2.22,.35,2.89,.08,6.32-2.62,12.61-5.32,18.89-8.02,12.39-5.32,24.78-10.66,37.16-16.01,1.8-.78,3.54-1.66,5.56-2.61l-1.88-1.51c1.83,.31,2.31,1.31,2.22,2.97-.14,2.62-.07,5.24-.04,7.87,.02,1.61,.16,3.2-1.31,4.38-.24,.19-.31,.69-.33,1.06-.13,2.49,2.3,5,4.25,5.07,2.53,2.3,5.07,3.67,8.07,5.19h-.01Zm-45.18,6.64c-2.9,.64-3.12,1.06-2.14,3.7,.59-.18,1.18-.37,1.85-.57l.29-3.13h0Zm13.62-3.53c2.08-.29,2.85-1.32,2.33-3.28-2.45-.19-2.53,1.36-2.33,3.28Zm-36.92,6.96l-.52-.43c-3.41,.88-4.16,1.81-3.21,3.4,.78-.53,1.59-1.02,2.33-1.6,.51-.4,.94-.91,1.4-1.37Zm23.82-1.75c2.66-.51,2.82-.72,2.22-2.96-1.64,.32-2.99,.82-2.22,2.96Zm-24.21,8.63c-2.59,.56-2.66,.66-1.96,2.59,1.22-.4,2.74-.48,1.96-2.59Zm10.56-2.25c2.75-.91,2.95-1.22,1.97-2.88-1.49,.75-2.15,1.71-1.97,2.88Zm2.25-5.6c-2.62,.89-2.75,1.08-2.09,3.03,1.07-.76,2.87-.81,2.09-3.03Zm-2.4,.04c2.57-.63,2.84-.97,2.14-2.94-.93,.82-2.64,.85-2.14,2.94Zm-10.41,2.81c-1.49,.33-2.8,.62-2.05,2.65,1.3-.42,2.82-.49,2.05-2.65Zm49.2-15.89c-2.19,.7-2.31,.89-1.67,2.75,1.56-.31,2.24-1.13,1.67-2.75Zm-9.52-1.28c-1.28,.52-2.86,.51-2.25,2.73,1.24-.61,2.95-.39,2.25-2.73Zm9.43-1.57c-1.71,.27-2.27,1.09-1.77,2.66,1.58-.28,2.47-.9,1.77-2.66Zm-24.85,12.03c2.58-.55,2.69-.68,2.17-2.41-1.57,.51-2.29,1.32-2.17,2.41Zm15.53-12.99c-1.12,.67-2.84,.49-2.58,2.7,1.34-.54,3.19-.09,2.58-2.7Zm-15.53,10.39c2.5-.41,2.69-.61,2.15-2.42-.85,.72-2.68,.43-2.15,2.42Zm.19-2.13c1.04-.69,2.86-.37,2.13-2.74-1.01,.7-2.89,.33-2.13,2.74Zm15.14-3.17c-1.16,.42-2.7,.27-2.21,2.37,1.13-.47,2.89-.1,2.21-2.37Zm-26.71,6.56c-2.53,.68-2.75,.94-2.09,2.77,.79-.92,2.73-.75,2.09-2.77Zm34.35-13.63l.59,.56,2.31-2.3-.51-.54c-.78,.78-2.74,.22-2.38,2.28h0Zm-26.06,16.43c1.26-.62,2.83-.52,2.32-2.69-1.1,.71-2.68,.52-2.32,2.69Zm15.43-10.64c-2.26,.46-2.46,.74-1.6,2.29,1.01-.43,2.38-.61,1.6-2.29Zm-13.03,5.5c-1.13,.77-2.73,.68-2.38,2.86,1.14-.87,2.77-.67,2.38-2.86Zm-14.84,15.04l.21,.58c2.07-.76,4.13-1.52,6.2-2.28l-.17-.46c-2.08,.72-4.16,1.45-6.24,2.17h0Zm-8.66-2.4l-2.59,1.87,.43,.56c1.05-.19,2.51,.15,2.16-2.43Zm34.54-13.37c1.18-.54,2.68-.46,1.99-2.33-1.32,.31-1.98,1.08-1.99,2.33Zm2.06-7.27c-1.05,.43-2.52,.31-1.99,2.28,1.16-.37,2.62-.26,1.99-2.28Zm12.47-2.78c-1.14,.25-2.4,.22-1.96,2.08,1.23-.18,2.52-.13,1.96-2.08Zm-28.32,10.25l.34,.43c2.31-.31,2.63-.6,2.21-2.46-.93,.74-1.74,1.38-2.55,2.03h0Z" fill="#41463d"/><path d="M103.18,278.98c-6.21-3.48-12.42-6.96-18.63-10.45,.98,.2,1.19-.27,1.16-1.16-.05-1.7-.05-3.4,.03-5.09,.09-1.87-.34-3.32-2.35-3.94-.41-.13-.71-.63-1.05-.95,1,.4,1.99,.8,3.13,1.26l.77-1.52c-.21,3.7,3.14,3.78,5.13,5.1,1.52,1.01,3.27,1.67,5.04,2.55l.6-1.94c.33,.52,.78,.94,.7,1.16-.57,1.46,.49,1.91,1.41,2.46,4.38,2.64,8.73,5.31,13.14,7.88,.79,.46,1.83,.47,2.76,.68l.11-.48-.91-1.18,.17-.4c.64,.25,1.28,.49,2.01,.77,1.75-1.79,3.99-3.41,5.27-5.59,1.24-2.12,3.48-2.82,4.82-4.58,.42-.55,.75-1.35,.74-2.03-.02-4.47-.28-8.95-.15-13.42,.05-1.68,.95-3.34,1.44-5.01,.24-.82,.55-1.63,.66-2.47,.15-1.14,.14-2.3,.6-3.43-.06,.96-.13,1.93-.19,2.89l.38,.05c.17-.68,.34-1.37,.63-2.51l.25,1.88,.33,.04c.17-.56,.34-1.12,.45-1.5,1.13,.93,2.09-.11,2.09-.8,0-2.02,.52-3.36,2.66-3.79,.3-.06,.51-.59,1.05-1.25-.28,1.83-.49,3.2-.7,4.56l.82,.19c.37-1.36,.73-2.72,1.15-4.27,.43-.08,1.09-.2,1.75-.33-2.91,.56-1.54,2.67-1.66,4.38,.64-.06,1.19-.11,1.88-.17l-.8-.71,.28-.37,2.17,1.6v-4.01c-.75-.29-1.32-.52-1.9-.74,.15-.13,.33-.38,.43-.36,.6,.16,1.18,.39,1.9,.64,.16,1.2,.35,2.55,.53,3.89h.57c.16-1.29,.32-2.58,.48-3.87l.29-.04,.52,1.72,1.35-.29c.2,.56,.39,1.12,.78,2.23l.98-2.02c.1,1.29,.2,2.52,.3,3.75l.62-.04v-3.44l.68-.14c.25,1,.45,2.03,.79,3.01,.16,.46,.5,1.05,.9,1.19,.92,.33,1.92,.42,2.98,.62l.21-2.8c.37,1.87-.25,3.91,2.43,3.66,2.28-1.81-1.04-2.44-1.31-3.94,2.25,1.15,4.09,2.27,3.19,5.23-2.4-.5-4.8-1-7.21-1.49l.03-.2-3.07-.31-.09,.54c1.73,.46,3.46,.92,5.19,1.37,1.35,.36,2.72,.66,4.06,1.08,2.64,.82,3.37,1.79,3.45,4.59,.12,4.22,.2,8.43,.3,12.65,.02,.75,.1,1.5,.16,2.4,2.85-.38,5.53-.79,8.22-1.08,5.37-.59,10.74-1.3,16.12,.03,3.47,.85,6.96,1.64,10.43,2.46-3.14,1.83-6.56,3.81-10.52,4.07-2.17,.14-3.93,.9-5.81,1.73-.72,.32-1.62,.21-2.43,.3-.81,.74-1.81,1.67-3.02,2.79,.42,2.4-1.82,1.98-3.17,2.21-.28,.92-.5,1.61-.7,2.32-.84,2.95-2.03,5.52-5.58,6.04-.86,.12-1.61,.86-2.45,1.22-.9,.39-1.83,.9-2.78,.98-2.57,.2-5.25-.16-7.7,.46-.95,.24-1.94,1.24-3.21,1.18-5.21-.25-10.42-.51-15.69-.77l.48,1.03-1.08-.12v9.18c-.59-.44-1.39-1.04-2.19-1.64,.75,.16,1.16-.01,1.15-.91,0-2.33,.09-4.65,.04-6.98,0-.34-.6-.66-1.23-1.31v6.6c0,.89,.06,1.77,.1,2.66-1.13-.7-2.25-1.4-3.38-2.1,.28-.33,.76-.63,.8-.98,.17-1.76,.33-3.54,.28-5.31-.02-.69-.41-1.65-.94-1.99-3.47-2.21-7.02-4.31-10.57-6.38-2.26-1.32-4.58-2.54-7.15-3.96,0,2.33,.12,4.43-.04,6.51-.1,1.25,.17,2.2,1.06,3.02l-2.9-1.63,1.23,.19c0-2.66,.02-5.18-.02-7.71,0-.38-.2-.91-.49-1.12-1.16-.83-2.4-1.55-3.87-2.48v9.33c-.58-.29-1.16-.59-1.74-.88,.28-.28,.78-.53,.81-.83,.14-1.39,.02-2.81,.22-4.18,.39-2.67-.21-4.64-3.02-5.63-1.18-.41-2.2-1.27-3.86-2.26,0,2.76,.07,5.13-.03,7.49-.06,1.33,.36,2.07,1.58,2.67,1.53,.76,2.9,1.84,4.34,2.78h.03Zm48.1-23.49c-1.81-1.09-2.19-2.62-1.16-4.6,.62,.92,1.17,1.73,1.72,2.54l.43-.41c-.57-1.24-1.22-2.45-1.66-3.73-.22-.65,.04-1.45-.07-2.16-.11-.7-.2-1.65-.67-1.99-.81-.59-1.52-1.44-3.02-.52-1.87,1.14-3.54-1.02-2.93-4.3-2.61-.27-5.19-.54-7.75-.81-.07-.59-.14-1.13-.21-1.71l-1.75,.22v1.65c.62,.24,1.14,.44,1.14,.44-2.19,1.43-5.23,2.5-6.78,4.64-1.89,2.61-.36,5.69,1.41,8.29-.67-.72-1.35-1.44-2.3-2.46,0,1.07-.01,1.8,0,2.54,.13,6.38,.35,12.75,.36,19.13,0,2.8,2.35,3.93,3.57,5.86,.02,.03,.23-.05,.45-.1l.49-1.67c2.49,1.02,4.4,3.06,7.32,2.98,1.58-.04,2.3-.39,2.14-2.03-.06-.63-.02-1.28-.02-1.92v-1.86c.98,2.03,.24,4.63,2.47,5.92l.69-.17v-20.16c-2.88,.34-2.34,2.7-2.1,4.64,.23,1.85-1.26,4.16,1.12,5.58-.51,.7-1.06,1.46-1.63,2.25l-1.3-2.52c1.71-3.36,1.13-6.95,.86-10.53-6.1-.48-9.7-2.1-10.5-4.58,6.17,4.24,12.76,3.26,19.67,1.57v-.02h.01Zm-58.81,8.79c-1.25-2.21-3.88-2.28-5.84-4.02,0,3.1-.03,5.64,.03,8.18,0,.43,.27,1.06,.61,1.26,2.9,1.66,5.85,3.24,9.24,5.09,0-3.14,.2-5.87-.12-8.54-.1-.8-1.58-1.54-2.55-2.09-.41-.23-1.13,.1-1.36,.13h0Zm78.51,3.18c1.32,.33,1.99,2.85,3.95,1.01,.19-1.84-2.8-4.43,1.21-5.48l-.37-1.43c-2.3,1.33-2.04,4.73-4.79,5.9h0Zm-28.63-29.43c-.11-.08-.42-.5-.77-.54-1.13-.12-2.28-.16-3.41-.1-.55,.03-1.17,.27-1.6,.61-.18,.15,0,1.16,.11,1.17,.57,.09,1.19,.06,1.76-.07,1.2-.28,2.38-.65,3.91-1.08h0Zm4.84,31.73c1.26-2.21,1.16-4.49,0-5.32v5.32Z" fill="#41463d"/><path d="M189.94,318.19c3.38-1.57,6.81-3.06,10.14-4.73,4.81-2.41,9.57-4.93,14.34-7.43,1.09-.57,2.15-1.22,3.53-2v10.65h.33c0-2.93,.09-5.87-.04-8.8-.08-1.8,.25-2.66,2.24-3.38,3.02-1.09,5.72-3.05,8.59-4.58,3.73-1.99,7.49-3.9,11.22-5.89,7.53-4.01,15.03-8.06,22.57-12.06,2.63-1.4,5.33-2.67,7.97-4.06,.53-.28,.92-.83,1.37-1.25l1.99-.83c6.71-3.55,13.41-7.1,20.28-10.73,0,3.16-.03,6.62,.02,10.09,.01,.86,.31,1.72,.53,2.86-3.94,2.08-8.16,4.31-12.38,6.54-19.62,10.39-39.23,20.8-58.87,31.16-10.05,5.3-20.17,10.5-30.23,15.79-1.77,.93-2.83-.16-4-1.1l-.04,.04c.14-.65,.39-1.31,.4-1.96,.05-2.78,.04-5.56,.04-8.34h0Z" fill="#41463d"/><path d="M316.23,264.28c.29-1.39,.67-2.4,.67-3.41,0-2.42-.18-4.84-.62-7.26v8.25h-.29c0-3.08-.03-6.16,.03-9.24,0-.46,.36-1.11,.74-1.32,1.48-.79,3.1-1.31,4.54-2.16,1.51-.89,2.88-2.04,4.31-3.08,.23-.17,.4-.46,.66-.57,4.63-2.07,9.37-3.9,13.87-6.22,15.32-7.88,30.55-15.93,45.81-23.92,1.24-.65,2.53-1.22,3.73-1.93,1.18-.69,2.22-1.05,2.85,.35l1.94-1.46,.49,.31c0,3.23,.06,6.46-.06,9.69-.02,.49-.79,1.1-1.34,1.4-10.89,5.79-21.8,11.52-32.7,17.29-10.39,5.5-20.76,11.03-31.15,16.53-4.07,2.15-8.16,4.25-12.26,6.35-.43,.22-.94,.31-1.24,.4h.02Zm42.93-33.41l-.19,.03v8.33h.19v-8.37h0Z" fill="#41463d"/><path d="M310.04,213.51c-.6,.79-1.58,1.52-1.71,2.38-.32,2.12-.28,4.29-.31,6.44-.01,.67,.2,1.35,.32,2.07h-4.79l1.01,1.32c-1.17,.91-2.28,1.76-3.66,2.82-2.34,0-1.18-2.29-1.74-3.88-1.19,.43-2.48,.69-3.54,1.33-2.77,1.66-5.74,2.31-8.92,2.34-.49,0-1.01,.21-1.47,.42-1.94,.88-2.22,.72-2.25-1.35,0-.37,.1-.73-.17-1.17l-.48,3.12-1.71,.33c.21-.72,.63-1.51,.64-2.3,.06-8.3,.09-16.6-.02-24.9,0-.6-1.18-1.18-1.71-1.67,.54-.2,1.44-.54,2.36-.88,1.25,1.42,2.36,1.36,3.32-.19,1.08,.41,2.4,1.39,3.07-.83l.46,2.01c1.29-.65,2.54-1.28,4-2.02l-1.88-1.19c4.03-1.77,8.18-3.59,12.58-5.52-.28,1.1-.62,2.45-.87,3.46,.35,1.15,.8,2.13,.93,3.15,.28,2.2,1.62,3.55,4.58,3.61,2.43,.05,4.11,1.3,5.82,2.64,.3,.23,.2,.97,.25,1.21,2.03,.84,3.97,1.54,5.8,2.44,.74,.36,1.64,1.08,1.8,1.79,.32,1.44,1.11,1.86,2.74,1.77-.25,.92-.45,1.64-.64,2.35l.12,.02c-.08,.58,.05,1.33-.28,1.69-.68,.77-1.19,1.7-2.62,1.75-.85,.03-1.66,1.25-2.6,2.02-.04-.06-.27-.38-.47-.66-2.99,1.54-5.99,3.09-9.07,4.68-.78-4.15-1.47-7.89,1.64-10.2l-.53-.4h0Zm-24.01-12.48c-.7,1.75-2.13,3.23-1.1,5.5,1.01-1.78,1.91-3.36,2.87-5.04-.64-.17-1.17-.31-1.78-.46h.01Zm26.12,13.05c-2.01,.58-.85,1.67-.45,2.47,.83,1.67,1.79,1.95,2.77,1.36-.76-1.25-1.54-2.53-2.33-3.83h.01Zm-17.89-1.88l.54,.39c1.56-2.14,3.11-4.29,4.67-6.43l-.44-.31c-1.59,2.12-3.18,4.24-4.77,6.36h0Zm-.25,10.07l.43,.26c1.35-2.18,2.7-4.35,4.05-6.53l-.48-.29c-1.33,2.18-2.67,4.37-4,6.55h0Z" fill="#41463d"/><path d="M23.89,188.57l-3.24,.36,.29-.48c-1.56-1.04-3.13-2.08-4.69-3.11l-.69,.44c0,8.07,.09,16.14-.06,24.2-.04,2.42,.72,3.86,2.94,4.69,.72,.27,1.33,.85,2.09,1.34-2.17,0-4.13-.13-6.06,.06-.9,.09-1.73,.81-2.62,1.19-1.14,.5-2.27,1.09-3.47,1.4-1.41,.37-2.68,.63-3.88,1.75-.91,.84-2.68,.76-4.08,1-.06,0-.56-1.12-.38-1.46,.96-1.81,2.08-3.53,3.44-5.22l-.77,3.43c.6,.03,.97,.13,1.31,.06,2.03-.37,3.78-1.5,5.85-1.93,2.23-.46,2.76-2.86,3.35-4.87,.16-.54,.26-1.09,.7-1.65l.71,2.71h.49c.06-.57,.17-1.13,.17-1.69-.02-8.11-.03-16.21-.11-24.32-.02-1.79,.58-3.08,2.23-3.86,1.21-.57,2.35-1.3,3.59-1.8,1.92-.78,2.63-2.09,2.6-4.17-.09-5.94-.08-11.89,.09-17.83,.03-1.17,.95-2.32,1.46-3.48l-.03-.04c-.8,1.39-.79,2.71-.05,4.2,.45,.91,.36,2.09,.52,3.15l-1.12-1.8c-.14,.85-.36,1.63-.37,2.42-.05,2.36-.02,4.72,0,7.08,.01,2.6,.58,3.38,3.13,4.46,.38,.16,.74,.44,1.03,.74,.51,.53,1.28,1.66,1.39,1.6,1.03-.6,2.61-1.28,2.76-2.16,.35-2-.02-4.13-.09-6.35,0,0,.48-.3,.55-.67,.07-.43-.22-.93-.35-1.39-1.1,.55-1.57-.72-2.47-.89-.67-.12-1.21-.92-1.81-1.42,.61-.53,1.24-1.06,1.84-1.61,.92-.84,1.87-1.66,2.74-2.55,1.11-1.15,2.1-2.43,3.25-3.54,1.04-1.01,1.37-2.81,3.42-2.77,.98,.02,6.12,1.43,6.61,2.35,.14,.27,.12,.62,.17,.93,.49,.93,.88,1.93,1.51,2.75,.46,.6,1.3,.95,.43,1.81-2.36-.16-3.27-2.27-4.8-3.55-.4-.33-.96-.47-1.45-.69l-.26,1.44c-.72-.26-1.25-2.12-2.46-.66-2.08,2.52-4.03,5.14-5.91,7.57,.59,.66,.99,1.1,1.39,1.54-1.12-.34-1.72-.14-1.5,1.23,.27,1.71,.44,3.43,.65,5.15l-.6,.04v-3.77h-.4v5.23h4.1c-1.8,1.01-3.78,2.16-5.81,3.2-.38,.19-.97-.03-1.63-.07-1.35,4.44-6.07,4.76-9.21,7.32,1.83-.68,3.74-1.19,5.45-2.08,2.06-1.07,3.86-2.66,5.94-3.66,2.23-1.07,5.08-1.18,6.93-2.64,3.51-2.77,8.2-2.72,11.6-5.53,.59-.49,1.51-.57,2.42-.89l-.25,1.33c.51-.26,1.1-.37,1.32-.71,1.09-1.75,3-2.01,4.67-2.72,1.12-.48,2.29-.86,3.31-1.5,.63-.39,.9-1.37,1.53-1.75,1.39-.85,2.91-1.5,4.86-2.47l-1.39,1.5,.27,.56c3.58-1.58,7.15-3.16,10.76-4.75,2.87,3.32,6.94,4.67,10.66,6.56,6.17,3.14,12.38,6.18,18.82,9.39-1.68,.63-3.13,1.17-4.58,1.71l-.13-.23,1.8-1.35c-1.57-.16-2.35-1.57-3.77,.25-1.08,1.38-3.09,1.61-4.67-.26,.78-.82,1.62-1.69,2.73-2.86-1.78-.49-3.46-.95-5.43-1.49l2.04-.86c-.38-.35-.59-.66-.87-.78-4.3-1.93-8.6-3.85-12.92-5.72-.4-.17-1.15-.15-1.42,.11-1.63,1.59-3.5,1.94-5.42,1.35-2.47,2.81-5.53,3.72-8.99,4.17-2.19,.29-4.28,1.39-6.36,2.25-.28,.12-.25,.97-.43,1.75-.29-.6-.48-.99-.46-.94l-1.23,1.39c.72,.94,.97,1.03,5.26,1.6v2.38c-.38,.19-1.2,.6-2.01,1.02l.13,.38c.78-.04,1.57-.07,2.35-.11l.21,.66c-1.56,.48-3.12,.97-5.16,1.6,1.49,.27,2.56,.47,3.87,.7-1.99,.49-3.67,1.01-5.39,1.28-.95,.15-2.11,.18-2.93-.24-1.44-.73-2.67-.44-4.02,.04-1.41,.5-2.86,.91-4.46,1.41,.73,1.67,1.97,1.03,2.8,.66l3.88,2.07c-.96,.67-1.83,1.28-2.81,1.97l.92,1.39-2.15-.15c.26,1.19-2.17,2.52,.32,3.91-1.65,.45-3.11,1.74-3.38-1.02-.04-.4-.87-.83-1.41-1.02-.26-.09-.85,.26-1.05,.57-1.43,2.26-2.39,2.38-4.4,.51-.13-.12-.33-.19-.07-.05-1.11,.16-1.82,.27-2.53,.38,.06-.43,.11-.86,.16-1.29,.54,.08,1.09,.17,1.8,.28l.19-2.7c-1.2,.37-2.05,.64-3.15,.98l1.23,1.51c-.67-.06-1.34-.12-2.02-.18l.17-1.67c-.37-.06-.78-.2-1.2-.19-.4,0-.79,.14-1.33-.08l.97-.47c-.06-.09-.1-.22-.18-.25-2.34-.69-4.67-1.36-7-2.04h-.83Zm27.71-7.41c-.46,1.87-2.4,1.02-4,1.18,.98,.89,3.49,.84,4.09,.1,1.53-1.87,1.48-3.95-.11-5.07-1.13-.79-2.75,.08-4.11,2.52,1.44,.44,2.77,.85,4.13,1.26h0Zm-9.45,5.87c-.95,.58-1.66,1.12-2.45,1.48-2.33,1.06-2.51,2.29-.36,3.98l1.38-1.97c1.53,.42,1.96-.28,1.43-3.49h0Zm-1.04-3.43c-.75-.09-1.4-.17-2.05-.25l-.24,.51c1.04,.65,2.07,1.29,3.35,2.09v-8.57l-.68-.05c-.12,2.05-.25,4.1-.38,6.27h0Zm-8.87,4.63c-.52-.58-.81-.99-1.18-1.28-.35-.27-.79-.41-1.31-.67,2.64-1.17,3.54-2.13,3.14-3.56-1.83,1.52-3.58,2.98-5.35,4.45,.67,.88,2.24,1.23,4.7,1.06Zm24.87-6.88c-1.44,.3-2.92-1.36-3.72,.62-.17,.41,.13,1.4,.49,1.58,2.01,1.01,2.16-1.11,3.23-2.19h0Zm18.78-16.65l.69-.23-.18-2.02-1.47,.51,.96,1.74Z" fill="#41463d"/><path d="M195.7,125.74c-1.44-.33-1.58,.55-1.5,1.62,.06,.79,.14,1.57,.22,2.42-.8,.39-1.7,.83-2.64,1.3,3.19,3.41,5.33,3.42,8.02,.21,.84,.57,1.64,1.2,2.51,1.71,.87,.51,1.81,.92,2.74,1.38-.92,.65-1.58,4.12-.83,4.73,1.31,1.05,2.38,.38,3.5-1.32v4.25c-.94-.5-1.76-.94-2.59-1.36-5.06-2.6-10.12-5.2-15.18-7.8-.4-.2-.8-.48-1.22-.53-.37-.05-.77,.16-1.16,.26,.21,.32,.36,.79,.65,.93,2.14,1.01,4.31,1.95,6.47,2.92,.39,.18,.77,.39,1.16,.58l-.21,.44c-1.46-.64-2.88-1.4-4.38-1.9-3.69-1.24-7.43-1.1-10.96,.47-1.52,.68-1.86,.32-1.86-1.06-.02-2.94-.06-5.89,.07-8.83,.02-.52,.71-1.24,1.26-1.47,2.35-.97,4.76-1.79,7.14-2.67l-.06-.65c-.89,.07-1.86-.05-2.65,.26-1.57,.62-3,1.97-4.56,2.1-1.47,.12-3.04-.94-4.85-1.59,2.06-1,4.01-1.4,5.1-2.59,2.83-3.09,6.74-3.83,10.28-5.35,8.16-3.5,16.39-6.84,24.59-10.27,1.03-.43,2.01-.99,2.59-1.27-.38-1.06-.85-1.77-.85-2.48-.04-7.42,.02-14.84-.02-22.26-.02-3.26-.06-6.53-.36-9.77-.18-1.91,.8-2.67,2.23-3.25,2.9-1.19,5.82-2.34,8.72-3.52,.59-.24,1.29-.37,1.74-.77,2.33-2.03,4.35-.84,5.84,.9,.73,.86,.47,2.57,.68,4.08-2.78-.32-5.3-1.97-7.53,.31-.28,.29-.23,.9-.37,1.5-1.84,1.01-3.34-.23-4.87-1.61-.32,1.01-.57,1.8-.85,2.67-.94-.12-2.13-1.27-2.35,1.26-.11,1.22-.53,2.67-.67,4.06-.14,1.42,.56,2.09,1.71,2.6,1.87,.83,3.75,1.65,5.55,2.61,.56,.3,1.23,1.06,1.24,1.62,.1,4.52,.06,9.04-.21,13.58l-.4-1.22c-1.19,1.76-2.26,.7-3.34,.06s-2.65-1.07-3.08-2.02c-.54-1.19-.13-2.81-.13-4.54,2.29,1.41,4.37,2.7,6.55,4.05,.51-1.32,.4-2.1-.86-2.59-1.19-.47-2.25-1.31-3.46-1.64-2.17-.58-2.71-1.87-2.47-3.94,.18-1.51,.03-3.06-.28-4.59v12.78h-.51v-14.28l-.68,.03c.39,8.57-.85,17.18,.67,25.72l.73,.03c.09-1.25,.17-2.49,.27-3.96,2.3,1.07,4.56,2.06,6.74,3.2,.39,.21,.6,1.04,.64,1.61,.13,1.91,.15,3.82,.21,5.74,.04,1.11-.37,1.82-1.59,1.94-1.71,.17-3.42,.42-5.29,.65,.14,.39,.27,.74,.22,.61-1.38,.77-2.64,1.48-4.12,2.32-.95-.9-1.99-1.88-3.22-3.04,2.7,.45,4.58-.46,6.26-2.26,2.22,2.11,3.79-.04,5.65-.87-.12-.19-.22-.38-.24-.37-3.34,1.17-6.8-1.54-10.16,.33-.94,.52-2.11,.62-3.18,.92-.24,.07-.67,.17-.67,.23,.18,2.48-2.16,1.3-3.15,2.12-1.19,.99-2.72,1.56-4.08,2.3,0,.1,0-.16,.07-1.08-3.63,1.59-7.07,2.93-10.33,4.64-.81,.42-1.03,1.99-1.5,2.97l-.25-1.66c-1.83,.48-3.68,.97-5.64,1.48,.8,.51,1.68,.97,2.43,1.59,.31,.26,.47,.86,.47,1.3,0,1.02-.13,2.04-.24,3.06-.25,2.3,.36,2.9,3.01,2.78,.11-2.29,.22-4.59,.33-6.89l.82-.24c.47,.77,.94,1.54,1.41,2.3l.03-.04c.36,.51,.72,1.02,1.07,1.53,0,.15,.02,.31,.02,.46v.03h-.01Z" fill="#41463d"/><path d="M214.14,213.67c-1.92-.83-3.82-1.74-5.78-2.46-.94-.34-2.08-.62-3-.4-2.13,.51-4.19,1.34-6.28,2.04-.23,.08-.5,.27-.69,.21-1.77-.58-3.52-1.2-5.29-1.82,1.9,.29,1.14-1.03,.93-2.33,1.35,1.17,2.42,2.1,3.61,3.12v-16.07c.31-.33,.91-1.24,1.76-1.75,1.21-.74,2.62-1.16,3.9-1.78,.57-.28,1.05-.74,2.01-1.44-4.54-1.43-8.57-2.27-12.99-1.73l.4-1.99c-1.91-3.16-4.85-4.64-8.5-4.84l1.07,.3v.12c-.94-.11-1.87-.21-2.95-.33,1.01,2.79-1.64,2.09-2.73,2.92-.27,.21-.53,.44-.91,.76-2.68-1.24-5.52-2.6-8.4-3.85-.63-.27-1.44-.13-2.16-.19l-.12,.58,.9,.82c-1.56,1.31-1.18,3.96,.6,4.91,1.08,.58,1.97,1.52,3.01,2.2,.33,.21,.88,.07,1.33,.12,.6,.08,1.27,.06,1.78,.33,2.29,1.23,4.54,2.54,6.79,3.84,.66,.38,1.27,.83,2.04,1.34,.22-.5,.41-.92,.4-.91,.76,.61,1.54,1.24,2.32,1.85,.15,.12,.33,.21,.51,.25,4.05,1.09,5.81,3.59,4.83,7.8-.04,.18-.03,.38-.02,.57,.23,2.4-.84,3.81-3.22,4.23-.75,.13-4.96-3.18-4.85-3.82,.18-1.07-.97-2.23-1.91-1.76-1.92,.96-2.89-.42-3.89-1.47-.89-.93-1.51-2.12-2.39-3.41-2.44,.97-4.82,1.91-7.36,2.92l-.96-1.41-.26,.1,.76,1.97c-2.59,.8-5.14,1.66-7.75,2.31-.4,.1-1.03-.77-1.56-1.18l.28-.48-1.62-.27c-.58,.46-.99,.96-1.49,1.09-.25,.07-1.03-.66-.98-.78,.2-.5,.56-1.04,1.01-1.3,.52-.3,1.19-.31,2.08-.5l.1-1.55c.66,.5,1.19,.91,2.13,1.63-1.04-2.24,.23-2.79,1.59-3.43,1.67-.79,3.24-1.77,5.14-2.83l-2.14-1.54c-.23-4.25-.55-8.32-.6-12.39,0-.78,.03-1.97,1.41-2.48,2.69-1,5.27-2.28,7.86-3.52,.65-.31,1.15-.92,1.59-1.29,1.18,.78,2.6,1.88,4.17,2.7,4.11,2.16,8.26,4.25,12.46,6.25,2.2,1.05,4.52,1.83,6.98,2.81v-9.48c2.25,1.02,4.29,1.78,6.12,2.88,.59,.35,.65,1.6,1.05,2.68-2.11-.54-3.72-.96-5.68-1.46,.31,2.25,.55,4.02,.79,5.79h.41l.15-3.36h.2l.52,2.73,.54-.02v-2.49c2.87,1.02,2.85,1.02,2.5,4.4-.07,.68-.09,1.45,.16,2.06,.18,.43,.84,.66,1.31,.99,.5,.89,1.07,1.92,1.42,2.54-.4,.75-1.06,1.4-1.03,2.02,.18,4.05,.58,8.09,.75,12.14,.08,2.03,.78,3.33,2.77,4.03,1.09,.38,2.04,1.17,3.05,1.78l.05-.05-.03,.03h0Zm-31.22-32.6c-.14-3.24-4.25-3.16-8.96-1.67,.94,1.29,1.75,2.47,3.62,2.2,1.72-.25,3.45-.35,5.34-.53h0Zm6.25,25.87l-.44,.58c-.21-.19-.55-.33-.63-.56-.61-1.82-1.31-2.29-2.91-2.02,.94,2.11,2.61,3.44,5.22,4.09-.53-.89-.9-1.49-1.25-2.08h.01Zm-11.82-22.07c.03-1.69-1.82-3.18-3.87-3.27-.1,1.47,.38,1.88,3.87,3.27Zm23.72,3.11l-.11,.35c1.03,.57,2.06,1.14,3.49,1.94-.32-1.25-.5-1.94-.59-2.29h-2.79Z" fill="#41463d"/><path d="M198.02,234.54c-2.03,1.01-4.05,2.01-6.35,3.15,.38,.6,.56,1.19,.95,1.44,2.95,1.89,5.9,3.8,8.95,5.52,1.37,.77,1.91,.22,1.67-1.44,1.54,.23,2.97-1.83,4.49-.21-.86,.13-1.79,.27-3.1,.47l1.22,1.41c-.79,.04-1.71,.1-2.34,.13v3.62c-.72-.27-1.26-.47-1.81-.67l-.17,.24c.76,.58,1.52,1.17,2.13,1.63,.71-.66,1.33-1.16,1.86-1.74,.52-.57,.91-1.24,1.42-1.81,.25-.28,.68-.64,.98-.6,2.3,.29,3.77-1.23,5.36-2.41,.69-.51,.85-1.17,0-1.87-2.01-1.65-3.96-3.37-5.92-5.08-.31-.27-.56-.58-.7-1.02,2.51,1.69,5.02,3.41,7.56,5.06,.4,.26,1.16,.51,1.47,.31,1.89-1.23,1.89-.04,1.84,1.32,0,.24,.08,.49,.14,.82h1.28c2.1,3.24,5.06,4.98,8.29,6.32,.59,.24,1.39-.04,2.1-.08l.3-.65c1.33,1.74,2.67,3.49,4.13,5.4-.86,.38-1.4,.63-2.28,1.02,.91,.54,1.61,.95,2.6,1.54-.82,.45-1.39,.81-2,1.08-2.9,1.33-5.91,2.46-8.7,3.99-2.43,1.33-4.15-.02-5.93-1.1-2.01-1.23-3.86-2.72-5.94-4.2,0,1.42-.37,2.32-2.08,1.41l.77-2.56c-.96,.16-1.76,.17-2.45,.45-.92,.37-1.2,.28-1.23-.72,0-.12,.07-.3,.03-.34-1.5-1.03-1.48-3.59-3.84-3.77-1.33-.1-2.69-.16-3.94-.55-.67-.21-1.28-.98-1.67-1.64-.59-1-.68-2.3-2.39-2.28-.49,0-.99-1.05-1.85-2.04,.26,1.55,.44,2.58,.61,3.64-.61-.26-1.39-.22-1.09-1.61,.11-.52-1.27-1.5-2.11-2.07-2.05-1.4-4.11-2.81-6.29-3.99-1.56-.84-2.42-1.92-2.42-3.86,.71-.17,1.47-.35,2.59-.61-.84-.99-1.5-1.78-2.41-2.85l1.56-1.33c.24,.69,.47,1.34,.7,1.99,.58-.26,1.19-.46,1.74-.78,3.04-1.72,5.98-3.66,9.15-5.08,.81-.36,2.59,.62,3.47,1.45,1.33,1.26,2.41,2.75,4.34,3.16,.56,.12,1.11,.31,1.66,.47l-1.02,1.13c-1.47-1.07-2.84-2.33-4.43-3.15-1.43-.73-2.53-2.46-4.35-2.28l-.31,.63c1.86,1.26,3.79,2.43,5.55,3.82,1.64,1.29,4.09,1.62,5.04,3.75l-.37,.58c-1.47-.88-2.95-1.74-4.41-2.63-.76-.47-1.52-1.23-2.12,.17-.24-.52-.35-1.17-.74-1.53-.84-.77-1.8-1.41-2.75-2.05-.36-.24-.85-.5-1.22-.43-.27,.05-.7,.74-.61,.94,.33,.75,.85,1.42,1.56,2.51-1.62,.29-3.28,.58-4.99,.88,1.23,2.22,1.81,2.32,3.8,1.39,1.61-.76,3.36-1.22,5.05-1.81h-.03Zm23.19,18.68c-2.84-1.83-5.56-3.59-8.27-5.35l-.05,.63-4.1,.34c-.02-.08-.03,.09,.04,.13,3.37,1.86,6.68,3.89,10.19,5.44,.88,.38,2.44-.8,3.69-1.26l-.15-.58-1.14-.59-.21,1.23h0Zm-.24-5.47c1.77,2.29,3.84,3.41,6.31,3.85-.4-.66-.97-1.02-1.54-1.39-2.1-1.34-4.22-2.65-6.27-4.06-.48-.33-.72-1.01-1.2-1.73l-1.29,.76c.99,.84,1.77,1.5,2.55,2.17l-.23,.33c-.87-.53-1.74-1.07-3.02-1.85,1.06,1.73,1.86,3.04,2.8,4.59,.79-1.11,1.28-1.8,1.89-2.66h0Zm-37.27-10.35l-.33,.66c2.95,1.91,5.9,3.81,8.84,5.72l.48-.28c-.21-.42-.31-1.03-.65-1.23-1.04-.62-2.21-1.01-3.25-1.62-1.73-1.02-3.4-2.15-5.09-3.24h0Zm45.95,16.11l-.87-.39c.23,1.62-.44,2.29-1.92,2.75-1.54,.47-2.89,1.56-4.33,2.37l.32,.5c1.89-.97,3.86-1.84,5.64-2.98,.61-.39,.78-1.48,1.16-2.25h0Zm-38.47-12.25l.42-.55c-2.05-1.43-4.1-2.86-6.15-4.3l-.41,.56c2.05,1.43,4.09,2.86,6.14,4.29h0Zm23.2,14.79l.42-.77c-2.07-1.33-4.14-2.66-6.21-3.99l-.25,.38c2.01,1.46,4.03,2.92,6.04,4.38h0Zm1.19,.55l-.28,.48c1.57,.96,3.15,1.92,4.72,2.89l.27-.44c-1.57-.97-3.14-1.95-4.71-2.92h0Z" fill="#41463d"/><path d="M97.13,25.51l2.15-1.41-3.28-1.72c3.2-.21,4.32,1.52,3.27,4.77-.48,1.5-.15,3.28-.11,4.93,.1,4.2,.28,8.39,.37,12.59,.27,11.75,.5,23.49,.75,35.24,.11,5.05,.23,10.09,.36,15.14,.02,.63,.06,1.26,.1,2.05l1.9-.39,.13,.29c-5.14,2.41-10.29,4.83-15.32,7.19,.27-.74,.74-1.48,.76-2.23,.31-10.08,.49-20.17,.82-30.25,.46-14.3,1.03-28.59,1.5-42.89,.03-.88-.28-1.85-.68-2.64-.65-1.26-.43-2.14,.49-2.77,.27,.72,.4,1.87,.81,1.99,1.37,.38,2.84,.39,4.27,.54l1.7-.43h.01Zm-2.49,18.33l1.72,.29c0-3.43,.02-6.68-.03-9.93,0-.44-.29-1.1-.64-1.28-1.49-.77-3.05-1.41-4.61-2.11-.1,.29-.21,.46-.21,.64-.27,9-.54,18-.79,27-.07,2.36,.11,4.74-.21,7.06-.22,1.56-.57,2.93,.63,3.7-.47,1.24-1.09,2.22-1.17,3.24-.14,1.82,.11,3.67,.09,5.5-.05,4.15-.19,8.3-.21,12.45,0,.61,.44,1.21,.62,1.69-1.8,3.3-.6,6.81-.95,10.68,2.6-1.21,4.67-2.29,6.84-3.15,1.32-.52,1.73-1.41,1.66-2.65-.1-1.92-.33-3.84-.38-5.76-.03-1,.33-2.02,.32-3.02-.07-4.64-.26-9.29-.32-13.93-.03-2.44,.2-4.89,.16-7.33-.02-.87-.87-1.82-.7-2.58,.78-3.37,.64-6.69-.12-10.21l.95,.73c-.2-1.99-.54-3.92-.57-5.85-.04-2.36-.27-2.66-2.63-2.31-.28,.04-.58-.04-1.23-.09,.67-1.04,1.18-1.84,1.79-2.78h-.01Z" fill="#41463d"/><path d="M276.78,222.34c-1.07-1.57-2.09-3.18-3.24-4.69-.41-.53-1.15-.81-1.73-1.21-.31,.69-.63,1.39-.91,2.02-1.03,.07-2.25,.16-3.91,.28,.67,.87,.97,1.27,1.27,1.67l-.28,.38-1.64-.98,1.05-1.29-.14-.49c-.84,.18-1.72,.27-2.52,.58-.48,.18-.77,.87-1.24,1.03-.44,.15-1.17,.06-1.48-.24-.21-.2,.02-.94,.13-1.41,.09-.4,.3-.76,.63-1.56-.82,.37-1.25,.57-1.74,.79-.06-.18-.16-.35-.16-.51,.04-4.15,.13-8.31,.13-12.46,0-1.01,.58-2.26-1.01-2.89-.35-.14-.25-1.38-.41-2.43,1.77,.9,3.33,1.68,4.89,2.48,4.04,2.06,8.06,4.18,12.14,6.16,1.03,.5,1.38,1.06,1.38,2.16,.01,5.29,.07,10.58,.19,15.87,.03,1.11,.4,2.22,.56,3.04-1.64-1.06-3.63-2.36-5.86-3.8,.15-1.56,1.46-1.89,3.24-1.44,.22-.34,.45-.69,.68-1.04l-.02-.02h0Z" fill="#41463d"/><path d="M152.13,308.62c-3.75-1.88-7.53-3.7-11.2-5.72-.47-.26-.49-1.59-.49-2.42,0-1.29,.19-2.57,.3-3.86l.52,.06c-.06,1.16-.12,2.33-.18,3.49l.92,.02v-8.27l.87-.24c.32,.69,.52,1.47,.98,2.06,.45,.58,1.09,1.07,1.75,1.42,7.71,4.09,15.45,8.13,23.15,12.23,4.12,2.19,8.18,4.48,12.37,6.78,0-.27-.08-.57,0-.8,.26-.63,.58-1.24,.88-1.85,.2,.57,.37,1.16,.59,1.72,.16,.4,.4,.76,.61,1.14h-.84c1.69,1.45,3.52,2.54,5.42,3.49,.99,.5,1.29,1.13,1.31,2.23,.03,2.8,.25,5.61,.39,8.41l.04-.04c-2.64-1.37-5.29-2.73-7.93-4.11-4.46-2.33-8.91-4.68-13.36-7.03-.33-.18-.6-.46-.9-.7,.3-.03,.6-.06,1.14-.11-.95-.76-1.66-1.33-2.38-1.9l-.03,.04c2.11-.58-.04-1.34,.09-2.01l-.04,.04c.4,.45,.85,.87,1.19,1.36,.31,.44,.51,.97,.97,1.85,.74-2.66,.47-4.32-1.68-5.29l2.28,1c-.4-1.67-.3-3.5-1.01-3.91-4.29-2.46-8.76-4.59-13-6.74-.43,.54-.78,.98-1.13,1.43,.06-.62,.12-1.23,.18-1.9-3.34-1.86-6.66-3.7-9.98-5.55l-.53,.32c.4,.85,.79,1.7,1.19,2.55l-1.08,.35c.14,.32,.23,.67,.43,.94,.27,.37,.62,.69,.93,1.02l.04-.04c-.77-.13-1.31,.23-1.62,1.06,.49,.33,.98,.65,1.47,.97l-.09,.18c-.63-.22-1.26-.44-1.93-.67,.12,1.21,.65,2.08,1.6,2.61,2.6,1.46,5.19,2.93,7.78,4.39h0Zm17.05,8.25l.37-.03v-8.09h-.37v8.12Zm19.18,2.82l-.18,.1v7.27l.18-.02v-7.35Z" fill="#41463d"/><path d="M274.31,249.08c-.49,.26-.98,.53-1.79,.97l-4.74-3.05,.25-.42h3.48c.56-3.18-2.37-1.37-3.31-2.72,.65-.42,1.24-.8,1.71-1.11,1.15,.78,2.18,1.48,3.55,2.41-.12-1.08-.18-1.59-.25-2.23,.87,.43,1.55,.85,2.3,1.14,.96,.37,.93,.97,.54,1.72l-1.69,.88,.18,.45c.8,.19,1.6,.37,2.4,.56l.27-.39-.92-1.41c1.83,.63,3.65,1.26,5.68,1.95l-.35,1.37c-1.09-.05-2.11-.09-3.12-.14,2.6,1.44,3.22,1.26,4.47-.96,.44-.77,.94-1.54,1.55-2.17,1.11-1.14,2.34-3.96,2.32-5.48-.01-.8,.11-1.6,.14-2.09,1.38,.26,2.59,.35,3.7,.73,.78,.27,1.44,.93,2.13,1.44,.44,.33,.67,1.47,1.46,.35,.35,.3,.92,.55,.99,.91,.23,1.04,.26,2.13,.39,3.44,2.14,.98,4.5,2.06,6.87,3.14l.06,.46c-2.96,.98-5.93,1.96-8.89,2.96-.53,.18-1.01,.47-1.53,.67-1.42,.56-2.29,1.98-4.34,1.71-1.42-.18-2.96,.39-4.65,.06-1.14-.22-2.81,.17-4.18,.88-.54,.28-1.65-.36-2.42-.76-.73-.38-1.36-.98-1.99-1.46-.09-1.15-.19-2.52-.29-3.88,.8,1.36,1.59,2.73,3.5,2.62,.47-2.51-.5-3.21-3.48-2.55h0Zm18.26-8.02l-.35-.72c-1.34,.5-2.67,.99-4.01,1.49l.33,.8c1.35-.53,2.69-1.05,4.04-1.58h0Z" fill="#41463d"/><path d="M48.19,161.65c.87-.86,.03-1.21-.43-1.81-.63-.82-1.02-1.83-1.51-2.75,1.2-.14,2.4-.27,3.6-.41l-.27,.5,2.33,2.79c1.83-2.61-.81-3.59-1.06-5.48l2.12,1.74,.58-.16c-.13-.55-.08-1.43-.41-1.61-2.24-1.2-4.5-2.39-6.87-3.29-.92-.35-2.14-.07-3.2,.11-1.01,.17-1.16,0-.86-1.32,1.6,.15,3.19,.3,4.78,.46l.03-.77c-3.48-.18-6.96-.35-10.44-.53l-.04,.78h4.53l.18,.58c-.31,.18-.64,.53-.93,.5-.62-.07-1.21-.46-1.82-.51-2.36-.19-4.74-.63-7.15,.06-1.34-.88-2.55-.28-3.85,.89l-.51-2.84-.55-.06c-.14,1.12-.24,2.25-.45,3.36-.21,1.16,.57,2.59-.87,3.44l.03,.04c.14-1.15,.34-2.3,.4-3.46,.21-4.05,1.56-5.46,5.79-5.96-.53,.8-1.11,1.58-1.53,2.44-.11,.23,.28,.7,.44,1.07,.35-.29,.93-.53,.99-.87,.15-.86,.07-1.76,.08-2.64l.86-.27-.68,3.85c2.88-.22,.93-2.7,2.43-3.6,0,.82-.07,1.51,.03,2.17,.05,.33,.44,.6,.67,.9,.21-.32,.53-.62,.59-.97,.1-.55,.03-1.14,.03-1.83,1.01,.03,2.36-1.52,2.62,.95,.06,.6,.95,1.11,1.81,2.06l.55-3.4,.26-.03,.73,2.96h.58l.53-3.21h.3l.55,3.3,.66,.07,.59-2.57,1.51,3.08,.53-2.84,.44-.06,.6,2.61,.5,.03,.4-2.33,.37-.09,.71,2.58c1.45-.52-.33-2.74,1.58-2.96v3.9l.6,.02v-3.36c2.12,1.44,3,3.04,2.99,5.19,0,.72,0,1.6,.38,2.14,1.59,2.26,2.1,4.73,1.97,7.43-.1,1.97-.02,3.95-.02,6.17-3.28,1.28-6.74,2.64-10.3,4.03-.2-1.55,.8-3.16-.34-4.43l-.67,.03c0,1.21-.22,2.47,.05,3.61,.38,1.55-.37,1.7-1.46,1.85l.55-4.41c-2.79-.51-5.4-.99-8-1.47,2.43,.11,4.86,.21,7.49,.33,0-.97,.08-1.63-.02-2.26-.1-.65-.38-1.27-.58-1.9l.15-.04c.51,.99,1.03,1.97,1.52,2.92,3.85-1.29,4.04-1.63,2.8-4.46v.02h.01Z" fill="#41463d"/><path d="M101.85,230.59c-3.5,1.79-7.48,3.59-12.07,4.7l-.2,.84c-1.84,.57-3.51,1.09-5.17,1.61l.13,.6-1.87-1c-.19,.65-.33,1.13-.47,1.6l-.4-.03v-2.95c-1.25,.58-2.53,1.18-3.3,1.54-1.05-.42-1.72-.68-2.38-.95l-.04,.21c-.72-.4-1.44-.79-2.47-1.36-.02-.38-.06-1.19-.1-1.92,.88-.31,1.66-.6,2.53-.91v1.43l1.89-1.3c.65-.51,1.19,2.04,2.18-.11-1.65-.62-3.24-1.22-4.83-1.81-1.1-.4-1.76-1.01-1.07-2.35,.34,2.16,2.31,2,3.73,2.56,3.11,1.22,4.01,.73,5.09-2.47l2.17,.29c1.01-1.92,1.83-3.83,4.27-4.45,.84-.21,1.55-1.34,2.1-2.18,.82-1.26,1.69-2.16,3.41-1.53l.29-.53c-.41-.19-.82-.38-1.51-.71,1.52-.39,2.24-.2,2.19,1.14-.02,.51,.02,1.08-.2,1.51-1.1,2.15,.4,3.25,1.82,4.56l.62-1.54,3.3,.86c.53,1.13-1.73,2.51,.64,3.15,.04,0-.13,.76-.26,1.51h-.02Zm-9.75,1.64c.81-1.55,1.51-2.88,2.43-4.63-2.01,1.25-3.19,3.43-2.43,4.63Z" fill="#41463d"/><path d="M236.99,234.15c2.84-2.06,3.36,2.6,5.91,1.9-.97,2.15,.33,2.79,1.68,3.39-1.81,1.17-3.76,1.48-5.87,.94-.18-.05-.44-.16-.55-.08-2.2,1.51-3.84-.21-5.59-1-2.64-1.19-5.12-2.89-7.86-3.71-3.29-.99-5.88-3.21-9.04-4.35-.7-.25-1.23-1-1.69-1.4,.33-.97,.63-1.86,.96-2.82l2.04,.79c.59-1,1.12-1.91,1.7-2.88,.98,.48,1.71,2.16,2.45,.78,1.99,.8,3.92,1.44,5.7,2.35,1.08,.56,2.94-.09,3.24,1.96,.03,.22,1.41,.24,2.34,.37l-.21,1.03c1.62,.92,3.22,1.82,4.8,2.72h0Zm-5.3-.05c-.07,.19-.15,.37-.14,.38,2.6,1.24,5.21,2.46,7.81,3.69l.31-.71c-2.66-1.12-5.32-2.23-7.98-3.35h0Zm-6.92-3.45l.26-.43c-1.66-.89-3.32-1.78-4.98-2.68l-.18,.36c1.64,.92,3.27,1.83,4.91,2.75h-.01Z" fill="#41463d"/><path d="M186.84,287.58c1.01,2.72,2.02,5.45,3.04,8.17,.83,2.2-2.34,6.15-4.98,5.83l1.28-.57-.03-.22-2.28,.19-.2-.41c.9-.35,1.8-.69,2.7-1.04l-.05-.59h-1.8c-.36,0-.72,.03-1.06-.02-4.7-.75-4.96-.29-7.92,2.52-.9-1.55-1.73-2.99-2.79-4.82,1.66,0,2.63,.07,3.57-.04,.33-.04,.91-.62,.86-.74-.75-1.79,.99-2.54,1.56-3.74,.95-1.99,2.17-3.85,3.43-6.05-1.54-.23-2.76-.41-4.01-.6v-4.31c2.13,.97,4.03,1.83,5.79,2.63,.16-1.94,.3-3.68,.47-5.8l2.42,1.22c-2.62,1.65-2.69,1.97-1.57,4.35,.51,1.08,.9,2.21,1.34,3.32,.07,.24,.15,.49,.22,.73h.01Zm-5.38,1c-.15,.65-.21,1.31-.45,1.89-.29,.7-.88,1.29-1.05,2-.12,.48,.25,1.08,.4,1.62l.55-.15c-.75-1.76,.23-3.35,2.48-4.3l-1.93-1.07h0Z" fill="#41463d"/><path d="M105.8,248.83l-.4-1.29c2.3-.86,3.93-2.4,5.01-4.69,.02,0,.19,.07,.28,.18,.1,.13,.12,.31,.21,.61l.83-.93c1.07,.59,2.06,1.12,3.02,1.65-.86-.07-1.83-.18-2.8-.21-1.23-.05-1.86,.58-1.93,1.79,2.22,.93,5.27,.24,6.37-1.42,.1,1.93-.37,4.15,.47,5.62,.8,1.4,2.97,2.01,4.85,3.17-.96,.37-1.78,.78-2.64,1-2.03,.51-4.09,.92-6.14,1.38-.19,.04-.46,.2-.55,.12-2.17-1.79-3.89,1.34-5.99,.57-.18-.07-.53,.51-.84,.57-.66,.13-1.49,.37-1.99,.1-1.13-.62-2.11-1.52-3.32-2.43-.08,.59-.13,.96-.18,1.41-.66-.52-.54-1.21,.35-2.07,0-2.22-.13-4.17,.06-6.1,.09-.93,2.67-1.08,3.62-.19,.48,.45,.76,1.11,1.13,1.67l.57-.47v-.04h.01Zm.2,4.86c.49-3.65-.18-4.57-3.62-5.11l.5,3.25c1.16,.69,2.11,1.26,3.12,1.86Zm8.51-6.18c-1.79-.21-3.48-.41-5.16-.6l-.33,.45c.38,.38,.76,1.07,1.15,1.07,2.14,.03,3.47,1.09,4.35,3.5v-4.42h-.01Z" fill="#41463d"/><path d="M132.17,220.63c-.44-.56-.76-1.4-1.33-1.62-1.27-.49-2.69-.58-3.98-1.04-.54-.19-.9-.89-1.45-1.47l3.5-2.15c-1.38-.46-2.24-.77-3.12-1.05-2.08-.66-2.66-2.07-1.73-4.22l.84,1.1c1.43,0,2.95-.43,3.88,.13,.78,.47,.87,2.08,1.15,2.86,.69-.92,1.39-1.9,2.19-2.8,.08-.08,1.03,.3,1.16,.63,.49,1.21,2.1,2.42,.17,3.83-.48-.25-1.02-.52-1.55-.79l-.21,.53c2.07,.67,4.14,1.33,6.54,2.11-1.87,1.32-3.62,2.55-5.36,3.77l.36,.49c1.79-1.13,3.57-2.26,5.04-3.2,2.12,.96,4.09,1.74,5.93,2.74,.93,.5,1.66,1.38,2.4,2.17,.13,.14-.04,.88-.25,.98-.83,.41-1.82,1.09-2.57,.91-1.22-.3-1.96-.83-2.64,.87-.18,.46-2.42,.52-3.48,.14-2.3-.82-4.44-2.06-6.67-3.09-.57-.26-1.21-.36-1.97-.57,.55-.45,1.05-.85,1.64-1.32-.71-.52-1.28-.95-1.86-1.38l.26-.39c.93,.63,1.85,1.27,2.78,1.9l.33-.09v.02h0Zm1.28,1.79c2.66,.76,4.03,3.61,6.89,2.26-.29-2.53-2.07-3.51-3.96-3.97-.67-.16-1.65,.92-2.92,1.71h0Zm8.66,.22l.26-.5-4.95-2.68-.27,.52c1.65,.88,3.31,1.77,4.96,2.65h0Z" fill="#41463d"/><path d="M206.21,295.19c.31,.1,.62,.2,1.4,.45-1.73,.78-3.05,1.32-4.31,1.98-.8,.42-1.47,1.09-2.27,1.51-.51,.27-1.23,.54-1.72,.38-1.78-.59-3.14-.36-3.88,1.51-2.25-1.18-3.49-3.42-3.13-5.66l1.55,.42c-2.18-1.42-1.79-2.98-1.28-4.25,.87,.6,1.8,1.25,2.73,1.89l.52,1.39c1.35-2.01,2.51-3.41,1.34-5.07-.37-.52-1.16-.75-1.75-1.11,.19,1.8,1.68,3.17-.15,4.59-2.22-1.64-1.69-4.33,.03-8.24,1.42,1.2,2.78,2.36,4.24,3.6,.42-.7,.74-1.23,1.29-2.13l3.48,2.25c.25-1.05,.48-2.03,.7-2.98,1.8,.54,2.17,1.5,1.14,2.99-.41,.59-.48,1.41-.85,2.05-.33,.59-.85,1.07-1.6,1.99,.61,.56,1.6,1.48,2.59,2.4l-.05,.03h-.02Zm-6.57-2.4c-.8,.44-1.41,.78-2.18,1.2,.53,.37,.9,.64,1.29,.91,1.83-2.06,2.76-4.35,3.41-6.76l-.57-.26c-.4,.86-.81,1.71-1.2,2.54-.45-.21-.95-.43-1.81-.82,.78,.89,1.25,1.43,2.07,2.36l-2.44-1.05c.65,.85,.97,1.28,1.43,1.89h0Z" fill="#41463d"/><path d="M197.06,147.45c1.37,.38,1.25-.5,1.4-1.44,.23-1.42,.37-3.01,2.05-3.66-1.07-1.25-3.57-.84-3.72-3.17,1.93,1,3.85,2.01,5.78,3.01l.33-.43c-.86-.58-1.74-1.14-2.58-1.75-.69-.5-1.35-1.06-2.02-1.59,1.45,.58,2.97,1.04,4.33,1.78,1.76,.95,3.4,2.13,5.04,3.18v7.91l.47,.07,.55-1.26,2.23,.34c.46-1.79,0-2.19-2.43-2.08v-5.06c3.7,2.07,7.14,3.99,10.93,6.11l-1.15,.94c-1.83-2.98-5.24-3.11-7.55-5.01l-.35,.58c2.12,1.11,4.25,2.22,6.86,3.59-2,1.31-3.59,3.07-5.4,3.34-2.1,.31-4.4-.7-6.97-1.21,.51-.92,.71-1.72,1.23-2.15,1.57-1.3,1.11-2.17-.42-2.98-.27-.14-.49-.36-.59-.84l1.89,.86,.31-.28c-.61-.62-1.12-1.53-1.86-1.8-1.38-.49-1.34,.77-1.34,1.6,0,1.46,.13,2.92,.24,4.84l-3.89-1.03c1.56-.89,2.5-1.42,3.44-1.96l-.28-.31-3.63,.26c.17,2.08-.93,2.88-3.1,2.12-1.2-.43-2.45-.72-3.83-1.12l1.04-.99c.5,.24,.98,.57,1.51,.69,.87,.21,1.66,.15,1.5-1.11h-.02Z" fill="#41463d"/><path d="M30.72,221.04l-.9-1.84c-.38,.03-.87,.21-1.24,.07-1.35-.52-2.56-.66-3.99-.03-1.63,.72-2.49-.56-2.76-1.81v-13.5c3.12,1.81,6.01,3.48,8.87,5.18,.26,.15,.47,.61,.47,.92,.04,3.32,.04,6.63,.03,9.95,0,.21-.18,.42-.47,1.05h-.01Z" fill="#41463d"/><path d="M241.14,290.68c-3.37-2.36-.47-5.94-1.96-8.97l-1.56-.35c1.26-1.22,2.75-.89,3.39,.68,3.1-1.82,6.19-3.63,9.23-5.42,1.27,1.38-.61,3.68,1.74,4.4,1.51,.46,3.02,.9,4.83,1.44-5.28,2.77-10.37,5.44-15.66,8.21h0Z" fill="#41463d"/><path d="M368.11,210.38c-2.09-1.07-4.15-2.19-6.27-3.19-.92-.43-1.99-.52-2.95-.89-.38-.15-.89-.64-.9-.99-.06-3.73-.04-7.47-.04-11.53,1.24,.93,2.43,1.37,2.77,2.18,1.02,2.42,3.49,2.41,5.27,3.46,1.67,.98,2.95,1.85,2.8,4.07-.16,2.18-.03,4.39-.03,6.58l-.65,.31h0Z" fill="#41463d"/><path d="M369.2,210.5v-9.34c3.25,1.65,6.06,3.06,8.85,4.52,.26,.14,.49,.62,.49,.94,.04,3.29,.02,6.58,.02,9.96-1.96-.96-3.71-1.96-5.57-2.67-.86-.33-1.96-.22-2.9-.05-1.43,.27-2.81,.82-4.23,1.15-.62,.14-1.3,.02-1.95,.02l-.13-.54c.56-.25,1.1-.59,1.69-.72,1.12-.24,2.29-.28,3.39-.57,.63-.17,1.18-.67,1.76-1.02-.47-.56-.94-1.12-1.43-1.69h.01Z" fill="#41463d"/><path d="M25.9,232.12c1.02,2.15,3.49,2.25,5.03,3.55,2.02,1.7,3.74,.91,5.67,.24l-1.56-1.82c1.71,.57,3.13,1.05,4.46,1.49-1.96,1.57-4.55,2.06-7.4,1.79-3.4-.33-6.34-1.84-9.22-3.5-2.81-1.62-5.61-3.24-8.6-4.97,1.68-.76,3.08-1.45,4.52-2.02,.93-.37,1.49-.82,1.44-1.93-.02-.5,.24-1.1,.56-1.51,1.38-1.79,1.42-1.78,2.63,.19,.85,1.37,1.97,1.24,3.14,.59,.66-.37,1.19-.97,1.86-1.33,.45-.24,1.03-.25,1.57-.37-.36,2.98-2.55,3-4.65,3.17l-.08,.52c.68,.6,1.36,1.19,2.05,1.78-.64-.32-1.29-.62-2.2-1.06,.21,.89,.49,1.53,.49,2.18s-.37,1.36-.38,2.05c0,.32,.44,.64,.69,.97h-.02Zm-1.71,.86v-6.89c-3.03,.61-3.05,.82-3,3.25,.05,2.1,2.16,2.32,3,3.64Zm-4.13-5.61l-.54-.4c-.93,.46-1.87,.91-2.8,1.37l.12,.83c.74,.07,1.65,.44,2.17,.14,.55-.31,.72-1.27,1.06-1.95h-.01Z" fill="#41463d"/><path d="M390.79,212.1c-3.29,1.71-6.31,3.31-9.35,4.84-1.21,.61-2.17,0-2.23-1.17-.15-3.04-.05-6.09-.05-9.64,4.08,2.09,7.78,3.99,11.63,5.97Z" fill="#41463d"/><path d="M195.7,125.74c0-.15-.02-.31-.02-.46,.86,.07,1.73,.14,2.66,.21,.35-1.57,.72-3.36,1.14-5.14,.2-.85,.42-1.59,1.66-1.64,.87-.04,1.71-.69,2.91-1.23l-.39,1.63c1.73,1.4,3.6,2.57,4.96,4.18,.6,.71,.15,2.3,.17,3.49h0c-.75-.13-1.48-.32-2.23-.37-.94-.07-2.06,.31-2.81-.08-2.51-1.28-3.12-1.06-3.83,2.27l1.55-1.03,.17,.14c-.54,.66-1.09,1.33-1.48,1.81-1.67-1.41-3.08-2.59-4.48-3.78h.02Zm8.83-3.38l-1.9,2c.95,.47,1.8,.93,2.68,1.3,.12,.05,.65-.46,.61-.55-.38-.87-.84-1.7-1.39-2.75Z" fill="#41463d"/><path d="M161.43,192.05c-3.59-.65-3.5-.65-3.52-3.73,0-1.24,.85-2.9-1.32-3.71-.13,1.28-.41,2.49-.35,3.69,.1,1.87-1.04,2.77-2.5,3.12-1,.24-2.17-.18-2.92-.26,.23-1.54,.37-2.52,.54-3.65l2.2,.43c-2.97-2.12-.77-5.06-1.82-7.42l.9-.35,1.72,2.57c2.13,1.01,4.35,2.04,6.53,3.13,.26,.13,.5,.6,.51,.91,.05,1.71,.02,3.42,.02,5.29v-.02h.01Z" fill="#41463d"/><path d="M356.5,220.08c-1.04,.46-2.08,.91-3.19,1.4-.56-.48-1.09-.93-1.9-1.62v2.15c-1.45,.55-2.87,1.11-4.3,1.63-3,1.1-3.11,1.06-5.43-1.47,1.43-1.35,1.37-1.72-.44-3.02,.71,.28,1.42,.56,2.47,.97,.83-1.45,1.71-3,2.62-4.59,.46,.19,.46,1.11,0,2.75,2.42-.15,1.9-2.78,3.59-3.96,.32,.69,.88,1.34,.82,1.9-.18,1.47,.55,1.9,1.77,2.18,1.34,.31,2.65,.77,3.98,1.17l.02,.52h-.01Zm-8.17-.75c2.14-1.67,2.39-2.57,1.25-3.85-.38,1.18-.74,2.28-1.25,3.85Z" fill="#41463d"/><path d="M240.23,95.19c-2.1-.95-4-1.76-5.86-2.69-.35-.18-.69-.78-.69-1.2-.06-2.74-.03-5.47-.03-8.55,2.19,1.1,4.18,2.07,6.13,3.12,.27,.15,.43,.73,.44,1.12,.04,2.74,.02,5.48,.02,8.2h-.01Z" fill="#41463d"/><path d="M61.4,255.51c1.14,.43,2.29,.85,3.7,1.38,0-2.18,.26-4.29-.13-6.27-.16-.81-1.7-1.36-2.64-2-.7-.48-1.45-.9-2.17-1.34l-.06,.1c-.23-.25-.42-.55-.7-.73-.96-.59-1.94-1.13-2.97-1.73,.37,2.92-1.48,6.36,1.75,8.91-2.03-1.2-4.06-2.41-6.08-3.61,1,.35,1.99,.7,2.98,1.04v-10.75l1.38-.47c-.52,2.03,.75,2.96,2.38,3.76,2.07,1.01,4.07,2.16,6.2,3.3l.92-1.32c-.16,1.92,.88,2.86,2.33,3.62,.54,.28,.96,.77,1.43,1.17l-3.85-.71c0,2.64-.1,4.84,.07,7.02,.04,.56,.84,1.17,1.43,1.55,1.32,.86,2.75,1.56,4.1,2.39,.38,.24,.62,.71,.92,1.07-3.66-2.12-7.33-4.25-10.99-6.37h0Z" fill="#41463d"/><path d="M186.84,287.58c-.07-.25-.15-.49-.22-.73,.35-.07,.7-.15,1.13-.25-.48-1-1.17-2.18-1.62-3.46-.19-.55-.11-1.5,.25-1.84,.35-.33,1.29-.31,1.85-.1,1.16,.44,2.24,1.11,3.48,1.75,.85-1.22,1.78-2.56,2.72-3.89l.56,.09c-.14,.83-.14,1.72-.43,2.49-1.15,3.01-2.39,5.98-3.65,9.09-.45-.12-1.22-.32-1.99-.52,1.6,1.26,2.46,2.73,1.45,5.22-1.26-2.81-2.39-5.33-3.52-7.84h-.01Z" fill="#41463d"/><path d="M121.44,141.76v33.01c-7.04-3.79-13.68-7.37-20.32-10.94l-.05,.05c2.22,1,4.49,1.93,6.67,3.02,2.73,1.36,5.4,2.85,8.26,4.37l.33-1.74c-.24,2.81,2.48,2.44,3.9,3.61-.14-4.88,.59-9.74-.32-14.91,.09-.45,.42-1.34,.41-2.23-.06-2.7-.37-5.4-.36-8.1,.01-3.34,.24-6.68,.42-10.02,.02-.32,.38-.62,.78-1.22-.06,1.39-.17,2.5-.13,3.61,.02,.51,.31,1.02,.47,1.53l-.05-.05h-.01Z" fill="#41463d"/><path d="M191.46,182.45c-1.97-.9-3.51-1.61-5.1-2.33,.1-1.92,.2-3.75,.29-5.66h1.11c-.04-.31-.03-.87-.11-.88-1.9-.31-.96-1.68-1.22-2.99,2.47,1.09,4.68,2.04,6.86,3.05,.21,.1,.39,.51,.39,.77,.03,2.97,.02,5.95,.02,9.03-2.43-.65-2.17-2.33-1.91-3.88,.08-.48,.74-.87,1.52-1.71,.25-1.51,.64-1.21-4.13-3.19l-.35,1.53-1.63-.21-.16,1.81c1.21-.06,2.55-.52,3.41-.07,1.78,.92,.94,2.76,1,4.73h.01Z" fill="#41463d"/><path d="M233.35,104.23c2.13,.97,4.2,1.89,6.25,2.85,.96,.45,1.26,1.18,.77,2.19-.17,.34-.26,.72-.39,1.08-1.29,3.61-1.28,3.59-4.94,2.28-.45-.16-1.05,.07-1.7,.14v-8.53h0Z" fill="#41463d"/><path d="M170.31,154.51c-2.92-1.33-5.51-2.51-8.08-3.68v-5.89c2.64,1.38,5.02,2.58,7.34,3.86,.35,.2,.67,.77,.7,1.19,.09,1.39,.03,2.8,.03,4.52h.01Z" fill="#41463d"/><path d="M193.81,167.07c-.78-.55-1.55-1.3-2.48-1.7-4.95-2.18-4.96-2.15-4.75-7.52,0-.06,.05-.12,.23-.53,2.08,1.06,4.19,2.07,6.22,3.23,.42,.24,.71,1.04,.74,1.6,.09,1.75,.03,3.51,.03,4.93h0Z" fill="#41463d"/><path d="M70.5,141.04c-1.03-.57-1.6-.92-2.19-1.2-.82-.39-1.44-1.69-2.67-.61-.07,.06-1.39-.81-1.51-1.38-.45-2.16-.65-4.37-.93-6.49,2.37,1.28,4.67,2.5,6.96,3.78,.21,.12,.33,.54,.34,.82,.03,1.51,.02,3.03,.02,5.08h-.02Z" fill="#41463d"/><path d="M253.25,195.11c-2.57-1.01-4.93-1.93-7.52-2.94v-5.81c2.21,1.2,4.42,2.35,6.58,3.61,.44,.26,.84,.91,.9,1.43,.13,1.18,.04,2.38,.04,3.72h0Z" fill="#41463d"/><path d="M78.65,145.83c-2.3-1.37-4.32-2.54-6.29-3.78-.29-.19-.49-.72-.51-1.11-.06-1.31-.02-2.63-.02-4.48,2.32,1.15,4.29,2.1,6.22,3.13,.3,.16,.56,.7,.57,1.07,.06,1.57,.03,3.15,.03,5.17h0Z" fill="#41463d"/><path d="M199.04,163.49c1.23,.66,2.22,1.21,3.23,1.72,2.71,1.37,3.84,3.74,3.39,7.11-2.14-.84-4.25-1.64-6.33-2.49-.16-.06-.27-.44-.27-.67-.02-1.82,0-3.64,0-5.66h-.02Z" fill="#41463d"/><path d="M159.83,149.54c-.75-.37-1.12-.63-1.54-.74-3.75-1.04-4.99-3.42-4.33-7.23,.36-2.08,.06-4.28,.06-6.73l1.41,.77c-.26,.36-.57,.62-.65,.93-.1,.42,.04,.9-.03,1.33-.42,2.44,.48,4.04,2.9,4.73,1.81,.52,2.54,1.66,2.21,3.57-.17,.98-.03,2.01-.03,3.37h0Z" fill="#41463d"/><path d="M173.63,216.58c1.69,1.59,3.54,3.33,5.53,5.2l-2.32,1.13,.56,1.78-.33,.14-.77-1.45-.36,.08c.09,.54,.18,1.08,.28,1.62l-.34,.14c-.55-1.61-1.1-3.22-1.72-5.04-1.68,.85-2.46,4.86-5.54,2.29-.75-.63-1.15-1.69-1.49-2.7,.89,1.81,2.11,2.11,3.48,.58,1.01-1.13,1.9-2.36,3.02-3.77h0Z" fill="#41463d"/><path d="M102.07,151.38c1.72,.84,3.41,1.68,5.21,2.56v11.56h-.35c0-1.36-.1-2.74,.03-4.1s-.47-2.17-1.58-2.75c-.34-.18-.67-.37-1-.57-2.82-1.61-3.39-3.19-2.31-6.7h0Z" fill="#41463d"/><path d="M218.96,275.34c-3.29,1.08-6.58,2.15-10.16,3.32v-5.52c.49-.31,1.27,.09,2.35,1.22,.92-1.1,1.85-2.2,2.77-3.31,.64,3.05,2.47,3.81,4.97,3.72l.07,.56h0Z" fill="#41463d"/><path d="M178.65,175.8c-2.09-.79-2.73-2.31-2.51-4.48,.18-1.81,.04-3.66,.04-5.9,2.52,1.17,4.79,2.09,6.9,3.29,.5,.29,.48,1.5,.86,2.86-2.22-.96-3.86-1.68-5.75-2.5-.43,2.41-.56,4.61,.44,6.77l.03-.04h0Z" fill="#41463d"/><path d="M313.89,241.66c2.07-1.55,3.96-2.96,5.86-4.38,1.15,1.41,2.09,2.55,3.05,3.72-2.34,2.59-5.73,3.06-8.91,.67h0Z" fill="#41463d"/><path d="M116.28,147.85c-1.37-.52-2.52-.89-3.59-1.41-.35-.17-.73-.7-.74-1.08-.06-2.6-.03-5.2,.11-7.88-.26,2.12,1.37,2.52,2.71,3.05,1.18,.47,1.67,1.11,1.55,2.42-.14,1.56-.03,3.13-.03,4.9h-.01Z" fill="#41463d"/><path d="M113.18,130.08l-.54,4.05-.62-.05v-10.81c3.89,.74,4.66,2.14,4,7.65l-2.83-.84h0Z" fill="#41463d"/><path d="M67.04,189.6c-.7-1.65-.28-2.93,1.06-3.65,1-.54,2.27-.73,3.18,.62l1.53-.9c.29,.62,.55,1.16,.87,1.84,1.91-.88,3.79-1.75,6.04-2.78l-.51,3.25c-3.75,.5-7.96,1.06-12.17,1.63h0Zm.36-2.03c.77,1.45,1.75,1.37,2.62,.66,.36-.29,.31-1.08,.53-2.01-1.36,.59-2.15,.92-3.15,1.35h0Z" fill="#41463d"/><path d="M232.28,148.6c2.38,3.22,5.45,4.74,8.91,5.68l-.17,.63c-.72-.11-1.51-.06-2.13-.37-1.44-.73-2.75-1.94-4.59-.46,.02,.27,.07,.81,.11,1.25-2.45,.95-4.69,.76-6.83-1.21,4.29,.53,5.56-1.56,4.7-5.53h0Z" fill="#41463d"/><path d="M111.75,156.31c4.51,1.33,5.19,2.55,4.37,7.54-4.38-.85-4.95-1.82-4.37-7.54Z" fill="#41463d"/><path d="M23.89,188.57h.83c.15,1.83,1.86,2.11,3,2.89,3.84,2.61,7.75,5.12,11.64,7.67,1.12,.74,2,1.17,2.87-.52,.76-1.49,2.4-1.61,4.8-.72-.74,.79-1.4,1.55-2.11,2.24-.16,.16-.65,.24-.76,.13-1.43-1.39-1.88-.24-2.45,1.07-1.23-.82-2.42-1.63-3.63-2.41-4.45-2.87-8.92-5.71-13.34-8.62-.51-.34-1.82-.56-.83-1.73h-.02Z" fill="#41463d"/><path d="M58.22,116.69v10.8c0,4.2-.08,8.39,.06,12.59,.03,.79,.9,1.55,1.39,2.33-1.67-.9-3.52-1.89-5.75-3.09,.83-.98,1.61-2.07,2.56-2.98,1.04-.99,1.53-2,1.49-3.5-.11-4.91-.04-9.83-.04-14.74,0-.29,.11-.57,.28-1.4h0Z" fill="#41463d"/><path d="M210.29,198.14c.25-4.56-1.23-8.79-1.73-14.16,.17-1.37,.48-3.81,.79-6.24,1.06,2.98,.56,7.03,5.47,7.54-.71,1.26-1.25,2.22-1.96,3.48-1.04-1.84-1.89-3.36-2.74-4.88l-.67,.12c.49,4.68,.98,9.36,1.47,14.04l-.62,.09h0Z" fill="#41463d"/><path d="M240.03,100.94c-1.55-.67-2.88-1.37-4.28-1.82-1.34-.43-2.02-1.09-1.85-2.58,.12-1.04,.02-2.1,.02-3.41,2.18,2.7,7.01,3,6.11,7.81Z" fill="#41463d"/><path d="M235.86,69.12c.99,.9,1.52,.96,3.42,.32,.78-.26,1.53-.82,2.3-.82s1.84,.34,2.21,.9c.6,.91-.12,1.6-1.09,1.97-1.02,.38-1.97,.93-3,1.26-1.72,.54-2.84-.31-2.85-1.74l-1.72-1.03,.78-.84h-.04v-.02h-.01Z" fill="#41463d"/><path d="M70.66,175.6l1.42-.47-1.04-1.14c3.09,1.73,5.21,.04,7.99-1.07-3-1.53-5.74,.96-8.27-.73,2.69-.17,5.38-.52,8.05-.4,.65,.03,1.24,1.56,2.05,2.65-3.55,.15-6.27,3.14-10.2,1.16Z" fill="#41463d"/><path d="M179.89,154.2c3.29,.83,3.77,1.41,3.74,4.5v3.34c-1.03-.87-1.96-1.56-2.75-2.38-.43-.45-.85-1.09-.91-1.68-.14-1.26-.04-2.54-.03-3.81l-.04,.04h-.01Z" fill="#41463d"/><path d="M127.56,165.78c4.17,.48,5.15,1.93,4.52,6.72-3.12-.58-3.48-1.08-3.6-4.1-.04-.9-.57-1.78-.88-2.66l-.04,.04h0Z" fill="#41463d"/><path d="M73.69,262.42h1.48c0-2.47,.11-4.93-.07-7.37-.05-.73-.8-1.57-1.45-2.06-1.25-.94-2.66-1.66-4.01-2.48,1.27,.54,2.57,1.01,3.8,1.63,1.1,.54,1.81,.59,1.82-.92,.17,.04,.38,.06,.39,.09,.32,2.96,2.88,3.67,4.91,4.91,.63,.39,1.23,.83,1.84,1.24-1.08-.46-2.17-.89-3.23-1.4-.96-.46-1.87-1.02-3.3-1.81,0,3.04-.05,5.68,.04,8.31,.02,.48,.59,.95,.9,1.42l-3.14-1.56h.02Z" fill="#41463d"/><path d="M277.71,190.61c.48-.51,.89-1.16,1.47-1.52,1.45-.89,2.98-1.65,4.48-2.46l-.16-.66c.55,.27,1.18,.45,1.63,.84,1.07,.91,.84,1.94-.39,2.59-1.91,1.01-3.83,1.69-6.01,.93-.27-.1-.67,.17-1.01,.27h0Z" fill="#41463d"/><path d="M264.71,74.7c-.93,.38-1.89,.98-2.92,1.12-.58,.08-1.85-.69-1.81-.92,.26-1.57-.86-1.79-1.84-2.2-3.35-1.42-6.71-2.83-10.05-4.27-.4-.17-.74-.47-.98-.97,5.97,2.45,11.95,4.91,17.61,7.23h0Z" fill="#41463d"/><path d="M178.62,175.84l.99-3.37c1.03,.59,2.21,1.26,3.69,2.1-.05,.94-.11,2.23-.19,3.93-1.69-1.03-3.07-1.87-4.45-2.71l-.04,.05h0Z" fill="#41463d"/><path d="M148.94,296.25c.41-.53,.76-.97,1.08-1.39,.35,.72,.71,1.47,1.27,2.62,.41-.89,.58-1.25,.84-1.81,.69,1.4,1.06,3.09,3.15,2.36,.7,1.58,5.12,3.9,6.37,3.05l.19,1.39c2.24-1.35,2.29,.88,2.99,2.13-5.32-2.79-10.63-5.58-15.9-8.35h0Z" fill="#41463d"/><path d="M282.27,232.73c.22,.63,.6,1.25,.62,1.89,.09,2.48,.02,4.97,.13,7.46,.03,.83,.4,1.66,.67,2.7l-1.98,1.12v-12.87l.56-.3Z" fill="#41463d"/><path d="M193.86,147.58l-.27-1.62c-1.59,.8-2.93,1.47-4.27,2.14,1.09-2.08,1.07-3.96-.45-4.98l2.71-1.29-.31,.57c1.35,1.43,2.71,2.87,4.06,4.3-.49,.29-.98,.59-1.47,.88h0Z" fill="#41463d"/><path d="M288.9,191.04c-.86,.23-1.71,.47-2.64,.72,1.6-1.52,3.15-1.44,4.43,.13,.04,.05,.07,.1,.11,.16,.48,.72,.97,1.45,1.45,2.17-1.22,.33-2.42,.75-3.66,.95-.63,.1-1.33-.2-2.02-.62,.64-.14,1.32-.17,1.89-.45,.4-.2,.63-.74,.93-1.13l-.45-.3-2.22,.79-.2-.41,2.58-1.45-.21-.55h.01Z" fill="#41463d"/><path d="M151.55,207.65c-.25-.76-.44-1.36-.63-1.95l.6-.31c.63,1.08,1.77,2.17,1.74,3.23-.02,.78-1.52,1.58-2.46,2.23-.26,.18-1.03,0-1.27-.29-.2-.23,.04-.84,.11-1.4l-1.34-.92c.77-2.17,2.18-.06,3.25-.59h0Z" fill="#41463d"/><path d="M224.14,279.62c1.25-.51,2.48-1.06,3.76-1.5,.22-.08,.62,.23,.88,.43,.06,.05-.08,.56-.23,.62-3.24,1.41-6.4,3.07-9.9,3.7l-.22-.52c1.7-.91,3.41-1.82,5.11-2.74h.6Z" fill="#41463d"/><path d="M165.23,221.59c-2.05,1.49-1.47,5.4-5.49,5.19,1.18-1.96,2.32-3.96,3.6-5.85,.18-.27,1.11-.04,1.69-.04l.2,.7Z" fill="#41463d"/><path d="M83.02,147.8c-3.82-1.35-1.61-4.44-2.51-6.7,2.95,.74,3,.25,2.51,6.7Z" fill="#41463d"/><path d="M35.61,223.97l-3.65-1.23c.2-1.95,.52-3.76,.55-5.58,.08-3.92,.03-7.85,.03-11.78l.69-.03v6.22c0,2.29,.07,4.59,0,6.88-.07,2.22-.14,4.39,2.38,5.51h0Z" fill="#41463d"/><path d="M318.43,192.7c2.33,.23,2.06,2.15,2.85,3.47v-2.3l.51-.24c.32,.68,1.09,1.61,.88,1.98-.77,1.38-2.02,2.26-3.89,1.81-.11-1.44-.22-2.89-.36-4.72h0Z" fill="#41463d"/><path d="M239.03,74.73l5.6-1.35,.4,.36-1.16,.05c.77,1.18,1.27,1.94,1.77,2.71-.69,.44-1.39,.88-2.32,1.47-.36-2.9-2.95-2-4.29-3.24Z" fill="#41463d"/><path d="M235.9,69.14c-.86-1.23-1.62-.19-2.43,.1-.85,.31-1.71,.59-2.59,.8-.07,.02-.48-.84-.41-.9,.71-.57,1.44-1.18,2.27-1.55,1.19-.53,2.21-2.28,3.98-.36-.22,.47-.56,1.18-.88,1.89l.05,.02h0Z" fill="#41463d"/><path d="M214.62,159.74c.53,.24,1.37,.36,1.52,.75,.4,1.06,.75,2.26,.6,3.33-.05,.37-1.77,.95-2.47,.7-1.53-.54-2.94-1.49-4.31-2.41-.33-.22-.3-.99-.56-1.97,1.61,1.34,2.7,2.38,3.92,3.21,.48,.32,1.26,.2,1.9,.28,0-.73,.12-1.48,0-2.19-.08-.46-.52-.85-.79-1.27l.18-.42h0Z" fill="#41463d"/><path d="M71.38,111.52c-.98,.45-1.95,.91-2.93,1.36,2.02-1.19,1.67-3.03,1.42-4.96l-1.95,.14c.21-.99,.28-1.86,.63-2.58,.11-.22,1.26-.26,1.51,0,.58,.61,1.12,1.43,1.27,2.24,.21,1.16,.05,2.39,.05,3.79h0Z" fill="#41463d"/><path d="M97.13,25.51l-1.7,.43-4.18-.98,.12-.8c1.94-1.3,4-1.05,6.35-.15l-.6,1.5h0Z" fill="#41463d"/><path d="M294.41,188.92c2.02,.92,4.03,1.84,6.08,2.77-1.36,1.22-3.9,.96-6.04-.71-.42-.32-.47-1.11-.69-1.69l.65-.37h0Z" fill="#41463d"/><path d="M224.14,279.62h-.61c-2.3,.49-4.58,1.06-6.9,1.46-2.16,.37-4.35,.55-6.52,.82l-.1-.59c.89-.19,1.78-.42,2.69-.57,3.51-.57,7.02-1.14,10.54-1.65,.27-.04,.6,.35,.9,.54h0Z" fill="#41463d"/><path d="M145.75,186.63l.64-5.14c-.71-.22-1.58-.49-2.44-.76l.19-.58c.62,.21,1.23,.42,2.16,.73-.19-.66-.31-1.06-.45-1.52l2.56,1.24c-.63,2.04-1.24,4.04-1.91,6.01-.04,.11-.66,0-.75,0h0v.02Z" fill="#41463d"/><path d="M195.37,151.95c1.96,1.87,3.6,3.45,5.38,5.15-.89-.2-1.59-.36-2.29-.51l-.23,.52c.56,.43,1.12,.87,1.67,1.3-2.51-.39-4.58-3.04-4.54-6.46h0Z" fill="#41463d"/><path d="M130.28,179.5l.82,.92-.18,.27c-1.21-.79-2.41-1.57-4.13-2.69,2.02-.97,3.67-1.77,5.32-2.56l.58,.64-2.41,3.42h0Z" fill="#41463d"/><path d="M55.13,240.56c-.89,2.14-2.91,2.5-4.81,3.05-1.72,.5-3.45,1.02-5.66,1.67,2.2,1.45,3.93,2.59,5.66,3.73-2.02-1.04-4.03-2.09-6.53-3.38,1.06-.67,1.66-1.21,2.36-1.45,1.91-.67,3.9-1.15,5.79-1.86,.77-.29,1.36-1.03,2.08-1.48,.3-.19,.73-.19,1.1-.27h0Z" fill="#41463d"/><path d="M265.88,139.86c.88,.74,1.63,.93,1.51-.67,2.24,.69,2.19,1.23,.06,3.66-1-.18-1.8-.34-2.61-.46-.6-.09-1.22-.05-1.79-.22-.18-.05-.22-.59-.32-.9,.28-.04,.69-.21,.82-.09,2.07,1.93,1.75-.44,2.33-1.32Z" fill="#41463d"/><path d="M189.14,185.64c2.15,.55,1.81,2.3,1.96,4.54-1.39-.77-2.43-1.35-3.47-1.93,.53-.91,1.06-1.83,1.51-2.61Z" fill="#41463d"/><path d="M172.27,291.36c-.42,1.45-.85,2.93-1.27,4.4-1.1-.45-1.99-.81-3.22-1.31l2.57-1.24c-.43-.73-.79-1.36-1.26-2.15,1.16,.11,2.13,.2,3.19,.3h-.01Z" fill="#41463d"/><path d="M321.23,115.03c.01-3.3-.01-6.6,.06-9.9,.03-1.4,.27-2.8,.41-4.21l.54,.03v14.18c-.11-.02-.59-.09-1.07-.16l.05,.05h.01Z" fill="#41463d"/><path d="M135.78,111.79c1.7-.79,3.34-1.55,5.07-2.36,.39,.45,.79,.92,1.32,1.54-2.15,.92-4.04,2.54-6.39,.82h0Z" fill="#41463d"/><path d="M113.42,194.22h-3.17c-.06-.96-.19-2.18-.14-3.39,0-.18,1.32-.53,1.38-.43,.66,1.12,1.2,2.32,1.92,3.81h.01Z" fill="#41463d"/><path d="M221.25,118.8l-.84-1.85c1.14-.36,2.27-.71,3.75-1.18,.44,.25,1.26,.72,2.48,1.41l-5.38,1.61h0Z" fill="#41463d"/><path d="M212.32,279.7c2.92-1.47,5.84-2.96,8.78-4.39,.22-.11,.63,.15,.95,.24-.15,.31-.22,.8-.47,.91-1.03,.48-2.11,.86-3.19,1.25-2,.72-4,1.42-6,2.13l-.07-.14h0Z" fill="#41463d"/><path d="M140.59,175.46c.08,.74,.16,1.48,.26,2.42,.6-.34,1.06-.61,1.05-.6,.9,.33,1.36,.5,2.05,.76-.57,1.07-1.12,2.11-1.64,3.09-1.25-1.41-1.83-3.3-1.72-5.67h0Z" fill="#41463d"/><path d="M259.57,265.1c1.41,.38,2.93,1.35,3.84-.77,1.32-.36,2.64-.71,3.95-1.07,.11,.29,.22,.59,.34,.88-1.69,.86-3.31,2.02-5.11,2.46-.83,.21-2-.96-3.01-1.51h-.01Z" fill="#41463d"/><path d="M242.4,114.79s-.27-.16-.6-.28c-1.64-.61-2.29-1.55-1.34-3.27,.49-.9,.73-1.95,1.09-2.93l.55,.05c.1,2.17,.21,4.34,.31,6.43h0Z" fill="#41463d"/><path d="M206.26,295.16c-.73-.8-.69-2.12,.14-3.95,1.01,.39,2.04,.79,3.51,1.36-1.51,1.07-2.6,1.84-3.7,2.61l.05-.03h0Z" fill="#41463d"/><path d="M251.9,244.06c.35-.6,.54-.92,.71-1.21,.33,.39,.68,.79,1.03,1.19l.35-.25c-.19-.44-.37-.89-.75-1.8,.99,.26,1.57,.41,2.79,.73-.74-.9-1.18-1.44-1.51-1.85,1.55-.11,2.78,.76,2.09,2.4-.9,2.13-2.89,.75-4.7,.79h-.01Z" fill="#41463d"/><path d="M132.12,103.54c-.72-.93-1.93-1.81-2.03-2.8-.08-.81,1.16-1.74,1.82-2.62l.55,.31v4.77l-.34,.33h0Z" fill="#41463d"/><path d="M193.31,300.66c-1.69,.16-3.02,.28-4.48,.42,.78-1.43,1.54-2.8,2.38-4.34,.7,1.31,1.34,2.51,2.1,3.92h0Z" fill="#41463d"/><path d="M280.08,246.8c-1.24-1.52-2.48-3.04-3.81-4.67l2.93-.76c.71,1.58-.98,3.8,1.68,4.89l-.8,.54Z" fill="#41463d"/><path d="M252.45,138.8c-.09,.49-.35,1.02-.22,1.45,.51,1.71-.47,1.88-1.7,1.7-.55-.08-1.06-.42-1.58-.65,.32-.39,.7-.74,.93-1.17,.22-.42,.28-.92,.48-1.63l2.16,.36-.06-.07h0Z" fill="#41463d"/><path d="M276.26,53.95v14.92h-.4v-14.92h.4Z" fill="#41463d"/><path d="M303.89,118.42l-1.11-1.07c3.84,1.66,7.68,3.33,11.53,4.99l-.25,.69c-1.02-.44-2.04-.87-3.05-1.32-1.23-.54-2.45-1.07-3.67-1.63-1.16-.53-2.3-1.1-3.45-1.65h0Z" fill="#41463d"/><path d="M208.5,171.64c-.05,.89-.1,1.75-.14,2.61h-.45c0-.95-.04-1.91,0-2.85,.05-.88,.18-1.76,.28-2.64,1.38,.31,1.9,3.94,.68,7.61-.13-1.57-.25-3.14-.38-4.72h.01Z" fill="#41463d"/><path d="M97.2,246.61c1.28-.41,2.55-.82,3.81-1.23l-.09-.55-2.69-.23,.04-.47c1.15,.08,2.39,.46,3.42,.15,1.05-.32,1.89-1.33,2.81-2.03-.59,2.51-5.19,5.28-7.3,4.37h0Z" fill="#41463d"/><path d="M126.06,226.39c-1.2,.35-2.18,.64-3.25,.96-.3-1.27-1-2.46,.54-3.06,1.58-.61,2.06,.62,2.71,2.11h0Z" fill="#41463d"/><path d="M205.16,237.35c.13-.44,.26-.91,.46-1.58,1.91,1.62,3.67,3.11,5.42,4.6l-.3,.52c-1.79-1.14-3.59-2.28-5.57-3.54h0Z" fill="#41463d"/><path d="M259.24,262.45c-1.01,.05-2.39-.36-1.92,1.54-1.91,.44-3.82,.88-5.32,1.22,2.09-1.27,4.56-2.77,7.02-4.27l-.2-.52,2.64,1.38-.08,.3c-.6-.18-1.2-.39-1.81-.51-.05,0-.21,.56-.32,.86h0Z" fill="#41463d"/><path d="M124.46,198.3c-1.42,1.48-2.66,1.34-3.68,.46-.4-.35-.24-1.34-.34-2.04l.53-.3c1.1,.59,2.2,1.18,3.49,1.88h0Z" fill="#41463d"/><path d="M277.71,190.6c-.77,.48-1.54,.96-2.57,1.6-1.07-.52-2.54-1.24-3.95-1.93,1.54-.11,3.08-.29,4.63-.29,.63,0,1.26,.4,1.89,.63h0Z" fill="#41463d"/><path d="M120.16,288.54c.25-.58,.69-1.15,.71-1.74,.09-2.09,.03-4.2,.03-6.29l.79-.04c0,1.45-.08,2.9,.02,4.34,.12,1.64,.4,3.26,.6,4.89-.72-.39-1.44-.77-2.16-1.16h.01Z" fill="#41463d"/><path d="M252.69,59.6c-1.08,.36-2.16,.73-3.23,1.09-.49-2.91,.26-3.31,4.04-2l-.81,.91Z" fill="#41463d"/><path d="M88.55,157.59c-1.37-.63-2.77-1.2-4.11-1.89-2.75-1.41-5.47-2.88-8.12-4.49,4.31,1.67,8.4,3.77,12.2,6.41l.03-.04h0Z" fill="#41463d"/><path d="M231.03,211.54c.22,.9,.41,1.66,.6,2.42l-3.24,.72c.04-.41-.07-.97,.16-1.2,.59-.6,1.32-1.06,2.48-1.94Z" fill="#41463d"/><path d="M228.93,67.85c.05,1.09,.09,1.97,.14,3.02l-3.64-.94v-.58c.67-.28,1.35-.55,2.02-.84,.57-.24,1.13-.5,1.49-.67h-.01Z" fill="#41463d"/><path d="M295.26,120.76l.15-.44c.06,.27,.2,.55,.18,.81-.07,.8-.2,1.6-.39,2.94-.78-.09-1.89-.21-3-.33l-.12-.5c1.06-.83,2.11-1.65,3.17-2.48h.01Z" fill="#41463d"/><path d="M149,189.69c-1.12,1.33-2.2,1.16-3.32-.44,.47-.7,.9-1.34,1.41-2.12,.65,.87,1.27,1.71,1.91,2.56Z" fill="#41463d"/><path d="M242.21,103.7v-15.88h.11v15.88h-.11Z" fill="#41463d"/><path d="M176.13,92.86c.28,1.54,.56,3.08,.87,4.76l-2.93,.68-.25-1.77,1.74,.81c.14-.56,.38-1.13,.39-1.69,0-.92-.14-1.83-.22-2.75l.4-.04Z" fill="#41463d"/><path d="M169.73,135.58c.88-1.59,1.61-2.92,2.35-4.26,.08,1.31,.16,2.71,.26,4.47-.78-.06-1.76-.14-2.61-.22h0Z" fill="#41463d"/><path d="M76.74,108.68c.04-.68,.03-1.38,.13-2.07,.15-1.08,1.85-1.92,2.63-1.25,.26,.22,.09,.95,.11,1.44-1.78-.6-1.53,1.65-2.87,1.88Z" fill="#41463d"/><path d="M60.3,191.12c1.31-.91,2.62-1.83,4.05-2.83l.52,1.01c-1.14,.82-2.1,1.59-3.15,2.21-.41,.24-1.04,.13-1.57,.17l.15-.56Z" fill="#41463d"/><path d="M176.35,290.41c-.52,1.05-1.04,2.09-1.55,3.14l-.66,.02c-.09-.72-.47-1.59-.2-2.12,.34-.68,1.22-1.1,1.86-1.63l.55,.59Z" fill="#41463d"/><path d="M374.21,189.94l2.11-.59c0,.94,.26,2.25-.05,2.39-.87,.42-1.97,.37-2.98,.5l-.04-.65c.45,.08,.9,.15,1.74,.3-.33-.81-.54-1.33-.79-1.95h.01Z" fill="#41463d"/><path d="M121.97,126.2c-.13,2.01-.26,4.02-.4,6.03h-.45c-.08-1.59-.24-3.19-.19-4.78,.01-.42,.7-.81,1.08-1.21l-.05-.05h.01Z" fill="#41463d"/><path d="M200.5,155.39c2.65-2.07,2.69,1.07,4.2,1.36l-.22,.45c-1.33-.6-2.66-1.21-3.98-1.81Z" fill="#41463d"/><path d="M244.11,228.52c.43,.68,1.15,1.3,1.07,1.8-.1,.66-.8,1.26-1.31,1.81-.13,.14-.65,.14-.8,0-.15-.14-.13-.56-.05-.81,.26-.79,.6-1.55,1.09-2.8Z" fill="#41463d"/><path d="M276.78,222.34c-.23,.35-.46,.69-.68,1.04-1.72-.04-2.74-1.13-3.89-2.81l4.57,1.77Z" fill="#41463d"/><path d="M307.27,182.74c-.29,1.1-.59,2.21-.94,3.52l-1.84-1.23c.8-.94,1.5-1.77,2.2-2.59l.58,.3h0Z" fill="#41463d"/><path d="M311.48,84.66c-2.93-.81-5.86-1.61-8.79-2.42l.12-.45c2.95,.79,5.9,1.58,8.86,2.38l-.18,.49h0Z" fill="#41463d"/><path d="M392.17,211.81l-4.88-2.3c.37-.78,.69-1.43,1-2.08,.26,2.43,2.19,3.24,3.88,4.38Z" fill="#41463d"/><path d="M290.89,131.32c-.4-.47-.98-1.15-1.41-1.66,1.3-.23,2.63-.46,4.12-.72,.43,.64,.23,1-1.03,1.45-.55,.2-1.05,.57-1.67,.92h0Z" fill="#41463d"/><path d="M237.46,149.79c2.28-1.62,2.91,1.8,4.78,1.39-2.15,1.24-3.14-1.08-4.78-1.39Z" fill="#41463d"/><path d="M166.01,94.46l3.73-1.7c-1.17,1.5-2.11,2.69-3.13,3.99l-.6-2.29h0Z" fill="#41463d"/><path d="M248.94,73.79c1.31,.42,2.63,.84,3.94,1.26l.06,.48-2.5,.82-.1-.3,1.2-.47-2.84-1.1,.24-.69Z" fill="#41463d"/><path d="M297.92,100.08c-.12-1.69-.29-3.38-.3-5.06,0-.3,.68-.61,1.17-1.02-.13,2.15-.24,4.06-.36,5.96l-.52,.12h0Z" fill="#41463d"/><path d="M331.6,222.11c-1.26,.69-2.47,1.65-4,.91l-.13-.59c1.34-.34,2.68-.69,4.03-1.03,.03,.24,.07,.47,.1,.71h0Z" fill="#41463d"/><path d="M274.18,273.84l-1.99,.83c-.98,.36-1.96,.72-2.95,1.08l-.19-.37c1.71-.9,3.43-1.79,5.59-2.92l-.46,1.38h0Z" fill="#41463d"/><path d="M228.67,102.95c1.25-.5,2.32,2.07,3.41,.06v2.98c.33-2.62-3.04-1.11-3.41-3.04Z" fill="#41463d"/><path d="M219.78,38.78c-.38-1.05-.73-2.03-1.14-3.18h2.39c-.43,1.1-.82,2.08-1.25,3.18Z" fill="#41463d"/><path d="M235.65,229.39l3.71,.29c-.73,.57-1.12,1.11-1.43,1.07-.87-.11-1.7-.47-2.55-.73l.27-.63h0Z" fill="#41463d"/><path d="M305.67,190.9c1.43,.43,2.34,.71,3.39,1.02-.81,.99-1.94,.65-3.39-1.02Z" fill="#41463d"/><path d="M252.51,138.87c.02-.48,.05-.97,.09-1.96l2.93,2.12-.32,.56c-.92-.26-1.85-.53-2.77-.79l.06,.07h.01Z" fill="#41463d"/><path d="M169.44,50.06l-2.24-.37v1.78l-.63,.07c-.06-.71-.12-1.42-.18-2.12h3.09l-.04,.65h0Z" fill="#41463d"/><path d="M356.03,199.64l-2.58-2.94c1.15,.07,2.22-.08,2.35,.2,.31,.67,.17,1.54,.23,2.74h0Z" fill="#41463d"/><path d="M261.55,53.81c-1.52,.37-2.14-.22-2-1.77,.08-.93,.02-1.87,.02-2.8l.6-.02c0,.99,.06,1.99-.02,2.98-.09,1.05,.36,1.54,1.36,1.64l.05-.03h0Z" fill="#41463d"/><path d="M377.48,204.48c.26-.72,.45-1.22,.84-2.31,.58,1.31,.99,2.24,1.63,3.69-1.18-.66-1.83-1.02-2.48-1.38h.01Z" fill="#41463d"/><path d="M121.49,141.81v-7.12l.09-.07c.11,.69,.27,1.37,.32,2.07,.1,1.45,.18,2.91,.18,4.37,0,.23-.42,.47-.65,.7l.05,.05h.01Z" fill="#41463d"/><path d="M158.47,214.29c-.9-.09-1.81-.17-2.71-.26,.09-.35,.24-1,.28-1,.83,.13,1.65,.34,2.48,.54l-.04,.72h0Z" fill="#41463d"/><path d="M301.35,190.74c-2.01-.96-4.02-1.91-6.03-2.87l.2-.42c1.98,1.01,3.97,2.01,5.95,3.02l-.13,.27h0Z" fill="#41463d"/><path d="M103.21,230.53l-.28-2.96c1.07,.57,1.75,.94,2.58,1.39-.58,.4-1.17,.8-2.29,1.58h-.01Z" fill="#41463d"/><path d="M166.11,314.61c-2.06-.91-4.19-1.71-6.18-2.76-3.69-1.95-7.31-4.06-10.88-6.33,.41,.05,.89-.02,1.23,.17,5.07,2.75,10.12,5.52,15.17,8.31,.25,.14,.42,.43,.63,.65l.03-.04Z" fill="#41463d"/><path d="M152.93,302.34h.87c2.23,.94,4.13,2.55,6.71,2.82,.85,.09,1.57,1.36,2.31,2.33-3.29-1.72-6.59-3.43-9.88-5.15h0Z" fill="#41463d"/><path d="M166.17,312.64c-.7-.23-1.44-.36-2.09-.7-2.62-1.38-5.21-2.81-7.81-4.23l.23-.42c3.21,1.8,6.41,3.6,9.62,5.39l.04-.04h.01Z" fill="#41463d"/><path d="M144.53,297.73c2.65,1.42,5.3,2.85,7.94,4.27-2.65-1.42-5.3-2.85-7.94-4.27Z" fill="#41463d"/><path d="M144.89,300.12c2.07,.96,4.14,1.92,6.2,2.88l-.35,.67c-1.94-1.2-3.87-2.4-5.81-3.59l-.04,.04h0Z" fill="#41463d"/><path d="M320.09,181.56c.16-.61,.16-1.33,.51-1.81,.76-1.05,1.72-1.94,2.51-2.96,.16-.2-.05-.69-.12-1.28,1.88,.89,3.72,1.76,5.68,2.68-.73,1.18-1.34,2.18-2.05,3.33,.59,.2,.98,.33,1.51,.51-.25,.27-.41,.52-.48,.5-1.07-.35-2.27-.53-3.16-1.15-1.48-1.03-2.71-1.53-3.87,.57l-.52-.39h-.01Z" fill="#41463d"/><path d="M330.4,176.73c-.08,.52-.15,.98-.24,1.54-1.69-.85-3.5-1.76-5.3-2.67l.26-.55,1.61,.59,.13-.95c1.31,.76,2.5,1.45,3.54,2.04h0Z" fill="#41463d"/><path d="M239.46,10.34c-1.28,1.69-2.77,1.88-4.54,.64,1.42-1.93,1.81-2,4.54-.64Z" fill="#41463d"/><path d="M235.38,14.68c-.75,.31-1.49,.8-2.26,.83-.31,.01-1.08-1.19-.93-1.45,.95-1.71,1.95,.05,2.97-.04l.22,.66h0Z" fill="#41463d"/><path d="M183.53,32.48c.87-.99,1.29-1.61,1.84-2.06,.54-.44,1.25-1.02,1.82-.96,.44,.05,1.04,1,1.06,1.57,0,.36-.86,.94-1.42,1.08-.97,.25-2.01,.24-3.3,.36h0Z" fill="#41463d"/></g></g></g></g></svg>