<?xml version="1.0" encoding="UTF-8"?><svg id="b" xmlns="http://www.w3.org/2000/svg" viewBox="0 0 194.91 73.13"><g id="c"><g id="d"><g id="e"><g><path d="M48.25,11.16l3.17-2.05-1.53-2.46-1.59-.28c1.69-.75,1.71-.75,2.79,.34,.68,.68,4.46,1.27,4.98,.62,1.1-1.39,2.47-.92,3.69-.61,4.29,1.1,8.52,2.38,12.8,3.51,5.47,1.45,10.98,2.79,16.45,4.23,2.69,.71,5.34,1.61,8.03,2.32,7.57,2,15.17,3.93,22.74,5.94,6.32,1.67,12.63,3.4,18.94,5.11,5.05,1.37,10.1,2.76,15.15,4.14,5.29,1.44,10.59,2.83,15.85,4.36,4.71,1.37,9.41,2.8,14.04,4.43,1.36,.48,2.5,1.67,3.64,2.65,.29,.25,.29,.92,.29,1.4,0,4.4,.04,8.8-.05,13.2-.02,.86-.53,1.71-.98,3.05,2.57,1.01,5.31,2.09,8.25,3.24-3.28,1.15-6.27,2.32-9.32,3.25-6.33,1.92-12.68,3.81-19.08,5.46-1.42,.37-3.13-.16-4.66-.49-2.2-.47-4.37-1.13-6.54-1.74-.58-.16-1.12-.47-1.68-.71,2.67-3.02,5.55-.37,8.33-.72l-1.45,.69c1.63,.37,3.13,.77,4.65,1.02,.4,.06,1.06-.23,1.25-.56,.16-.28-.06-.94-.31-1.28-1.75-2.39-4.53-2.48-7.08-3.02-.67-.14-1.4-.04-2.1,0-1.7,.1-3.47,.12-3.34,2.52-2.04,.27-4.2-1.3-5.33-3.74-.27-.59-.49-1.53-.92-1.65-1.61-.44-3.61-1.3-4.89-.72-2.87,1.29-5.71,1.53-8.74,1.5-1.25-.02-2-.67-2.98-1.1-1.28-.57-2.88-.37-4.29-.72-.98-.24-1.99-.7-2.78-1.32-1.81-1.42-3.49-2.99-5.17-4.45l2.26-1.97-.12-.54c-.82-.04-1.66-.22-2.44-.08-1.85,.32-3.56,1.06-5.3,1.81-2.02,.87-4.52,.88-6.8,.78-1.33-.06-2.61-1.09-3.93-1.62-.51-.21-1.18-.49-1.62-.32-1.89,.72-3.31-.08-4.74-1.14-.26-.19-.81-.06-1.21,0-1.77,.3-3.53,.64-5.42,.52l4.93-2.28-.28-.68c-1.41,.56-2.81,1.12-4.33,1.72v-13.65c.68,1.08,2.73,.62,1.29,2.59,.8-.35,1.27-2.14,1.4-5.37l1.59,.42c.08-.18,.22-.49,.21-.5-.7-.38-1.41-1.02-2.13-1.02-2.5,0-3.24-.65-3.18-3.2,0-.31,.05-.62,.31-.95l.24,2.72,.65,.42c.12-.34,.34-.68,.35-1.03,.12-2.53,.17-5.06,.32-7.58,.06-1.05-.38-1.47-1.34-1.7-1.47-.36-2.92-.82-4.51-1.28-.09,.46-.23,.87-.25,1.28-.15,3.83-.32,7.66-.42,11.49-.04,1.72-.51,3.68,2.36,4.19l-.51,.46c-4.09-.26-8.18-.52-12.28-.78-.41-.34-.82-.69-1.2-1.01,.3-1.15,.9-2.38-.76-2.59l-1.84,2.97,3.83,.57c2.89,.95,5.77,1.91,8.66,2.86,.78,.26,1.59,.46,2.49,.71l.79-1.44-2.71-.15,.05-.65c.48-.07,.97-.2,1.45-.2,2.92,.05,2.91,.06,2.88-2.9-.04-3.83-.07-7.66-.09-11.49,0-.6,.07-1.2,.1-1.8h.74v29.01c-.24-.82-.7-1.57-.64-2.28,.16-1.86-.34-2.79-2.39-2.57-2.12,.23-4.25,.29-6.38,.43-.19,0-.39,.11-.56,.07-2.94-.76-5.9-1.44-8.79-2.34-1.49-.47-2.91-1.25-4.27-2.04-.68-.39-1.44-1.02-1.68-1.7-.85-2.44-2.87-2.73-4.91-2.76-1.88-.03-3.75,.39-5.64,.48-3.41,.17-6.91,.63-9.69-1.95-1.6,1.29-2.98,.97-4.31-1.15l1.95,.73c-.64-2.66,3.2-2.14,3.28-4.36h-4.87l-.02,.42,1.38,.37-1.04,1.85-.89-.73-.31,1.59c-1.89,.47-3.13-.03-4.22-1.73-1.85-2.88-5.56-3.75-9.13-2.73-3.74,1.06-7.32,.41-10.86-1.16-2.3-1.02-4.8-1.55-7.21-2.32-.71-.23-1.44-.44-2.1-.77-1.98-.98-2.56-2.62-2.16-4.73,.12-.62,.16-1.3,.03-1.91-.15-.69-.54-1.33-.83-1.99l-1.33,.74c0-4.05,.03-8.35,0-12.64-.02-1.91-.08-3.83-.33-5.72C-.21,.49,.68-.14,2.05,.03c2.3,.28,4.57,.78,6.83,1.31,2.92,.69,5.81,1.49,8.71,2.25,1.15,.3,2.28,.7,3.45,.91,.95,.17,1.95,.05,2.91,.2,1.14,.18,2.27,.48,3.39,.76,1.44,.36,2.87,.72,4.3,1.12,.4,.11,.83,.28,1.13,.55,1.02,.92,1.94,1.21,2.83-.44,2.82,3.63,6.91,3.38,10.72,3.96,.65,.1,1.29,.33,1.93,.5l7.5,1.59,.12-.52c-1.25-.32-2.49-.75-3.76-.93-1.27-.18-2.58-.1-3.87-.14h0Zm21.66,5.11c-3.59-1.1-7.18-2.19-10.77-3.29l-.21,.75c3.2,.92,6.4,1.86,9.62,2.72,.43,.12,.97-.16,1.46-.26,.11,.33,.21,.94,.34,.95,1.51,.07,3.02,.04,4.53,.04l.04-.29-5.01-.63h0Zm53.06,14.47c1.78,.31,3.57,.55,5.32,.96,1.82,.42,3.6,.99,5.41,1.48,3.58,1.19,7.15,2.39,10.73,3.58l.18-.59c-.89-.3-1.77-.65-2.68-.88-2.75-.71-5.52-1.38-8.27-2.07-1.08-.69-2.07-1.69-3.25-2.02-3.89-1.08-7.85-1.94-11.8-2.81-.45-.1-1.01,.25-1.52,.39-.19-.32-.33-.87-.58-.93-4.7-1.23-9.42-2.39-14.13-3.59-2-.51-3.96-1.17-5.97-1.6-2.03-.43-4.1-.65-6.15-.97l1-.94-1.99-1.08,.43,1.3c-3.7-1.03-7.3-2.03-10.89-3.02l-.12,.49c1.51,.43,3.01,.87,4.52,1.29,2.37,.65,4.74,1.29,7.11,1.93,.39,.21,.75,.49,1.17,.61,4.69,1.38,9.38,2.76,14.09,4.08,1.21,.34,2.48,.45,3.66,.65l-.64,.19,.28,.21,5.45,.38-.73,.95c1.21,0,2.38,0,3.55-.01l3.42,1.09-2.55-.16-.05,.36c3.04,.81,6.08,1.61,9.12,2.42l.14-.48-4.26-1.2h0ZM26.82,11.36l.96,.09-.25-1.98c.65-.08,1.36-.36,1.93-.19,2.85,.87,5.67,1.86,8.45,2.79v1.92c.66-.54,1.03-.94,1.48-1.18,.57-.31,1.21-.51,1.82-.75,.21,.62,.42,1.25,.64,1.86,.39,1.07,.71,2.18,1.23,3.17,.11,.22,.99,.03,1.46,.03l-2.26-3.09,3.68-.86c-.09,.43-.14,.71-.11,.55,3.39,.49,6.77,.99,10.14,1.48-5.62-1.51-11-4.07-17-3.47,.08-.23,.16-.49,.11-.32-5.74-1.81-11.47-3.62-17.53-5.53,.14-.04-.31,.24-.66,.15C15.51,4.56,10.14,3.04,4.77,1.52c-1.02-.29-2.03-.61-3.05-.91l-.25,.93c8.46,2.33,16.91,4.65,25.12,6.91,.12,1.24,.2,2.1,.27,2.96l-1.39-2.07-.63,.06c0,1.36-.08,2.73,.06,4.07,.03,.31,.84,.55,1.28,.81,.2-.41,.49-.8,.58-1.23,.11-.54,.04-1.12,.05-1.68h0Zm-4.95,13.5l1.69-.14c1.78-5.49,.51-12.18-2.13-13.42,.44,1.33,1.12,3.01,1.55,4.75,.46,1.89-.9,3.01-2.66,2.08-.89-.47-1.35-1.76-1.89-2.51,.06,2.11-.53,3.61-1.78,4.51l-.98-1.14-.76,2.48-.58-.12c-.76-2.66-1.08-5.51-2.87-7.73l-.52,.19,1.68,5.58-.65,.5c.53,.74,1.17,1.28,1.25,1.89,.06,.47-.58,1.04-1.1,1.88,9.83,2.44,19.59,4.87,29.37,7.28,.71,.28,1.4,.64,2.14,.83,5.59,1.46,11.19,2.9,16.79,4.31,1.24,.31,2.52,.47,3.99,.73l-.12-2.23-.46-.46c-.54,.43-1.02,1-1.63,1.23-.44,.16-1.22,.04-1.54-.27-.58-.56-.94-1.36-1.39-2.06l-.42,.18-.22,1.68-.53,.25-1.28-2.01c-.16,.07-.6,.13-.81,.38-.95,1.11-1.65,.44-2.09-.38-1.09-2.05-1.06-2.08-2.64-.22-.1-.8-.12-1.41-.28-1.99-.13-.49-.41-.95-.63-1.42-.28,.48-.57,.95-.83,1.43-.26,.49-.49,.99-.74,1.49-.34-.49-.74-.96-1.01-1.49-.15-.31-.08-.72-.12-1.18h-1.29l-1.33,1.78-1.79-1.5-1.83,.98-3.01-2.21c-.14,.18-.52,.77-.6,.73-1.29-.6-2.53-1.28-3.79-1.95l-.53,.78-.82-1.6-.69,1.09c-1.83-.51-4.65,.73-4.21-3.29l-1.16,2.3c-1.21-.33-2.37-.58-3.49-.98-.48-.17-.84-.67-1.25-1.03l-.03,.04,.02-.02Zm72.61,2.41l1.94-.68c.13,.5,.44,1.02,.37,1.49-.16,1.01-.7,1.98-.75,2.98-.16,3.24-.23,6.49-.18,9.74,.01,.9,.56,1.79,.96,3l1.16-1.45,1.2,2.14,.33-.12,.07-1.51c.66,.58,1.25,.86,1.37,1.28,.1,.35-.26,1.05-.6,1.23-.3,.16-.86-.21-1.31-.33-.77-.19-1.54-.35-2.43-.55v3.39h.23l.38-2.24c1.47,.31,2.7,.56,3.92,.82,1.58,.6,3.12,1.37,4.75,1.78,3.94,1.01,7.95,1.74,11.88,2.79,5.41,1.45,10.75,3.17,16.15,4.64,7.66,2.08,15.36,3.97,23,6.1,1.45,.4,2.39,.53,3.11-.94l-.27,1.89c3.45,1.06,6.83,2.09,10.31,3.16v-4.17c-2.36,2.53-2.84,2.6-5.47,.96,0-.06-.03-.14,0-.19,.32-.85,1.21-1.89-.15-2.42-1.07-.42-2.15-.14-2.19,1.46,0,.25-.53,.48-1.05,.92-.06-.67-.15-.98-.1-1.27,.47-2.66-.92-4.02-3.21-4.92-.54-.21-1.1-.9-1.24-1.47-.37-1.45-1.23-1.71-2.66-1.47,1.09,2.61,3.02,4.04,5.68,4.64-1.57,1.93-2.59,2.4-3.08,1.39-.81,.31-1.65,.96-2.34,.83-2.1-.39-2.18-.76-1.58-3.86,1.45-.38,1.49,.58,1.59,1.6,.07,.66,.35,1.29,.53,1.93,1.51-2.84-.87-4.6-1.27-6.78-2.26,.34-1.8-2.55-3.94-2.85,.94,2-1.19,4.31,1.45,6.02,.41,.26,0,1.79-.04,2.73-.57-.32-1.36-.5-1.66-.98-.43-.69-.63-1.59-.7-2.41-.2-2.23,.87-4.53-.52-6.69-.64-.99-1.14-2.07-1.7-3.12l.4-.12v12.82c-.99-.89-1.91-1.72-2.82-2.53-.87,.74-1.75,2.47-2.61-.1-.09-.28-1.19-.32-1.82-.28-.36,.02-.7,.4-.74,.42-.87-.63-1.46-1.39-2.11-1.46-1.14-.11-2.32,.22-3.47,.36l-.35-2.19c-2.32,1.76-4.12,1.09-4.63-1.7-.82,.77-1.14,2.46-3.06,1.59,.48-.35,.74-.5,.95-.7,.25-.24,.45-.53,.69-.82-2.33-1.16-2.63-1.09-3.45,.79-.42,0-.87,.03-1.31,0-2.64-.19-3.35-1.01-3.75-3.58-.29-1.87-.92-3.7-1.39-5.54l-.6,.13,.99,7.15-1.11,.31c-.37-2.19-.43-4.47-1.21-6.54-.23,1.53-.28,3.06-.49,4.55-.06,.41-.67,1.13-.89,1.08-2.59-.61-5.16-1.35-7.73-2.05,.05-.73,.1-1.41,.15-2.09l4.29,2.1c-2.67-5.5-1.13-10.97-1.63-16.32l.7-.14c1.34,2.36,2.67,4.73,4.01,7.09-.49-2.37-1.17-4.6-2.06-6.73-.23-.57-1.05-1.05-1.7-1.25-1.07-.32-2.22-.37-3.55-.57v15.87l-1.61,1.83-.82-1.12c-.96,.17-1.78,.32-2.61,.47,.24-.9,.66-1.8,.68-2.71,.09-4.51,.09-9.03,.09-13.55,0-.83-.16-1.67-.26-2.56-1.33,.28-2.81,1.52-2.64-.94,0-.08-.29-.22-.46-.27-1.91-.57-3.83-1.12-5.74-1.68l-.13,.35c.63,.72,1.27,1.44,1.91,2.16-1.27-.47-1.75-.02-1.7,1.32,.07,1.78,.02,3.56,.02,5.2,.6,.3,1.48,.46,1.65,.9,.25,.63,.22,1.94-.13,2.12-2.22,1.14-1.15,3.03-1.42,4.95,2.29-2.15,.88,.93,2.12,.86,.13-.67,.38-1.42,.4-2.17,.11-3.56,.23-7.13,.15-10.69-.02-.85-.76-1.69-1.17-2.53l.03,.02h0Zm-44.96,.09c4.51-2.82,4.11-2.71,3.59-6.49-.16-1.12-.02-2.28-.02-3.42l.72-.06,.82,5.17,.33-.35,1.9,2.01h-2.23l.37,7.15c2.3,.9,2.36,.86,2.38-1.54,.02-3,.07-6,.04-9-.05-4.46,.27-4.1-3.49-5.01-.49-.12-.96-.36-1.44-.53-2.15-.79-2.84-.27-2.74,1.97,.15,3.24,1.31,6.47-.23,10.09h0Zm44.56-9.58c29.84,8.14,59.68,16.28,89.53,24.42l.16-.58c-29.85-8.01-59.34-17.35-89.68-23.84h-.01Zm-58.3,9.16l.91,.27,.88-3.21,.43,.03,.25,3.48,2.7,.31v-10.54c-1.5,.46-3.14,.29-3.82,2.15-.14-1.24-.13-2.44-.14-3.65,0-1.53-.41-2.58-1.2-3.15v14.3h-.01Zm66.91,1.44c0,4.81,.05,9.56-.03,14.31-.03,1.71,.82,2.15,2.46,2.21,.08-.92,.21-1.72,.21-2.53,0-3.82-.13-7.65-.03-11.47,.05-1.97-.77-2.62-2.61-2.53h0Zm-41.37,4.65v-11.17c0-1.92,.68-4.16-2.13-4.89-.2-.05-.33-.39-.58-.7-.16,.36-.3,.53-.3,.69,.06,4.51,.22,9.02,.17,13.53-.02,1.84,.75,2.5,2.84,2.54ZM3.11,12.3c-.19,1.54-.28,2.86-.53,4.15-.56,2.89,.36,4.46,3.19,5.21,.43,.12,.89,.18,1.28,.39,1.78,.93,2.61,.08,3.2-1.54,.91-2.54-.02-5.85-2.07-6.84l-.93,2.57,1.49-.84-.63,3.98c-.43-.28-.85-.57-1.29-.84-.35-.21-.95-.62-1.02-.54-.34,.36-.53,.85-.96,1.64,1.77,.23,3.16,.42,4.36,.57-.77,1.04-.94,1.17-2.55,.64-.82-.27-2.02-.79-2.18-1.41-.46-1.89-.62-3.89-.67-5.85-.04-1.52-.6-2.49-2.15-3.14v2.43l1.48-.58h-.02Zm78.2,9.52v13.93l-.52,.03-.38-2.94-.48-.02c-.11,.51-.23,1.01-.32,1.52-.22,1.36-.16,2.4,1.75,2.23,.53-.05,1.14,.66,1.77,1.06,.18-4.4,.38-8.91,.56-13.43,.09-2.31-.09-2.46-2.37-2.38h0Zm-31.86-4.76l-3.87-.45c0,3.57-.07,7.12,.07,10.66,.02,.52,1,1.01,1.53,1.51,.29-.54,.77-1.06,.84-1.63,.15-1.19-.03-2.42,.15-3.6,.33-2.13,.82-4.23,1.28-6.49Zm12.87,.5c0,4.98,.02,9.69,0,14.39,0,1.65,.82,1.93,2.35,1.54v-15.11l-2.34-.82h-.01Zm75.84,36.39l.79-.18v-11.94c0-.76-.4-1.75-.06-2.23,1.48-2.04,.2-2.81-1.82-3.37l.85,1.86c-.37,1.47-.95,2.69-.93,3.91,.03,1.95,.39,3.89,.71,5.83,.38,2.33,0,3.05-2.11,3.62-.45,2.27,1.7,1.69,2.58,2.5h-.01Zm3.9-11.3l-.74,.02v1.74c0,2.11,.05,4.21,.02,6.32-.04,2.7,1.24,4.22,3.84,4.57,.1,0,.22-.1,.22-.1v-9.65h-.53v4.73h-.23l-.23-.85-1.6,1.57-.77-.35v-7.99h.02ZM44.42,28.82v-10.76l-2.62-.38c0,.75-.04,1.38,0,2,.17,2.37,.56,4.75,.48,7.12-.05,1.48,.38,1.98,2.14,2.03h0ZM30.36,10.78c-.8,4.51-1.34,9.02-.26,13.53,.1,.42,.79,.71,1.55,1.34,.04-5.36,.22-10.18-1.3-14.87h.01Zm4,15.46c0-5.04,.03-9.48-.05-13.92,0-.36-.69-.71-1.06-1.07-.25,.37-.72,.75-.72,1.12,.03,4.02,.09,8.03,.28,12.04,.03,.53,.84,1.02,1.54,1.83h.01Zm32.63,17.64c3.66,.82,7.19,2.25,11.07,1.42-2.03-1.09-4.24-1.65-6.28-2.56-1.95-.87-3.35-.2-4.79,1.14Zm56.67,15.41h8.37v.5l-1.77,.23v.22c2.04,.18,4.07,.36,6.1,.54-1.9-1.1-4-1.88-5.89-2.99-2.64-1.54-4.7-.45-6.81,1.5Zm9.02-22.83c-2.49,2.52-2.91,3.68-1.87,5.02,.98-1.79,1.97-3.59,2.96-5.39,1.7,1.02,1.62,.99,1.02,2.41-.67,1.59-1.16,3.26-1.73,4.89l.64,.24c1.8-2.04,1.09-5.2,3.45-7.3-2.23-.66-3.88-1.15-5.52-1.64l-.23,.42,1.29,1.37v-.02h-.01Zm53.21,7.21h-.75c-.06,.53-.15,1.07-.18,1.6-.14,2.61-.28,5.22-.37,7.84-.05,1.57-.65,2.61-2.24,3.13-2.43,.79-4.81,1.74-7.21,2.62l.22,.58c3.22-1.25,6.46-2.44,9.64-3.8,.41-.18,.59-1.18,.65-1.83,.17-1.88,.26-3.77,.31-5.66,.04-1.49-.03-2.99-.05-4.48h-.02ZM59.05,7.83l-.14,.73c7.23,1.95,14.46,3.89,21.69,5.84l.16-.61c-7.24-1.98-14.47-3.97-21.71-5.95h0Zm84.52,32.82c.16-2.64-1.7-2.57-3.48-3.21,0,3.94,.05,7.67-.02,11.41-.03,1.34-.42,2.67-.47,4.02-.02,.52,.44,1.07,.68,1.6l.67-.25v-2.23c0-3.86-.03-7.73,.04-11.59,0-.53,.49-1.05,.75-1.58,.4,.31,.82,.6,1.19,.94,.22,.2,.37,.49,.65,.88h0Zm-70.34-7.18c0,1.38-.26,2.62,.1,3.66,.21,.63,1.33,1.06,2.13,1.29,.2,.06,.99-.95,1.05-1.52,.26-2.65,.2-2.65-3.27-3.43h-.01Zm97.81,14.76l.6-.2c0-.63-.05-1.26,0-1.88,.11-1.23-.22-1.7-1.64-1.85-2.58-.28-5.11-1.06-7.68-1.54-.77-.15-1.59-.02-2.38-.02l-.08,.59,1.95,1.23-.35-1.35c2.52,.53,5.05,1.1,7.6,1.59,1.04,.2,1.61,.55,1.46,1.76-.06,.53,.32,1.11,.51,1.67h0ZM19.81,30.84c-2.17-2.25-4.8-2.61-6.18-.96,3.14,1.67,4.24,1.86,6.18,.96Zm58.7-4.78c-1.41,3.36-1.34,3.92,.92,4.63l.66-3.84-1.57-.79h-.01Zm13.15-1.43c-.29,.11-.5,.15-.5,.19-.01,3.14-.01,6.28-.01,9.41l.52,.05c.19-3.18,.31-6.36,0-9.65h0Zm56.93,15.51c1.06,2.1,.36,4.63,2.84,5.62-.07-3.31-.69-4.67-2.84-5.62Zm5.43-4.66c-1.7-.37-2.78-.68-3.87-.77-.22-.02-.52,.78-.78,1.2,.91,.36,1.8,.88,2.74,1.01,.42,.06,.94-.68,1.9-1.44h0Zm-40.49-4.63l.53-.24c.32,.86,.64,1.71,1.08,2.9l.18-2.29h1.85l-.02-.15-4.75-1.18c.23,.99,.45,1.87,.66,2.76l.37-.06,.09-1.74h0Zm6.77,19.82l.68-.2-1.32-7.82-.73,.14c.35,1.25,.75,2.49,1.04,3.75,.12,.52,.26,1.38,0,1.58-1.63,1.26-.22,1.8,.34,2.55h0ZM9.87,26.95c-3.27-1.51-5.09-1.69-5.48-.56,1.96-1.09,3.13,1.94,5.48,.56Zm17.93-4.28l.42-.08-.62-7.38-.66,.08,.86,7.37h0Zm82.94,22.76l.7-.03c-.11-2.01-.22-4.01-.32-6.02l-.38,.02v6.03Zm-26.7-30.44l-.1,.44c2.64,.72,5.29,1.44,7.93,2.16l.15-.59-7.98-2.01Zm-40.09,21.77l-.12,.61,5.6,1.14,.14-.69c-1.87-.36-3.75-.71-5.62-1.07h0Zm81.66,7.73l-.58,.15c.3,1.35-.75,3.03,1.38,3.94l-.8-4.09Zm-16.26-3.77h.32v-5.3h-.32v5.3Zm48.64,6.31l.25,.08,1.1-2.23,1.74,2.23,.39-.34c-.76-1.06-1.52-2.12-2.46-3.43l-1.01,3.69h-.01Zm-2.49-11.2l1.78,2.66,1.93-1.45-3.71-1.22h0Zm-73.92,2.9l.22-.62-3.69-1.3-.22,.63c.89,1.39,2.45,.92,3.7,1.29h0Zm13.2,6.03l.22-.9c-1.27-.29-2.54-.59-3.8-.88l-.14,.58,3.73,1.2h-.01Zm16.37,1.6l.68,2.09,2.26-.8-.19-.47-2.75-.82Zm-43.14-20.2l.64,.25,1.17-3.66-.76-.25-1.04,3.66h0Z" fill="#41463d"/><path d="M99.1,41.5v-7.34h.21v7.39l-.21-.05Z" fill="#41463d"/><path d="M21.9,24.84l-5.97-.5-.41-.83,2.33-3.71,.39,.26-.6,2.37c.85-.27,1.64-.8,2.24-.64,.57,.15,.99,1,1.38,1.61,.28,.44,.4,.99,.6,1.49l.04-.05Z" fill="#41463d"/></g></g></g></g></svg>