<?xml version="1.0" encoding="UTF-8"?><svg id="b" xmlns="http://www.w3.org/2000/svg" viewBox="0 0 147.31 60.47"><g id="c"><g id="d"><g id="e"><g><path d="M8.85,4.08c.63-.53,1.18-1.24,1.9-1.54,2.09-.85,3.87-.47,5.32,2.27l-2.47,3.61-.68-.9-.33,3.64,1.68-1.42c-.5,1.78-.9,2.93-1.09,4.11-.04,.26,.69,.94,1.03,.91,.74-.06,1.45-.45,2.84-.93-.67,1.22-1.09,1.99-1.52,2.76-.38,.68-1.06,1.35-1.1,2.05-.16,2.72-.19,5.46-.08,8.19,.03,.68,.75,1.33,1.15,2,.58-.69,1.58-1.34,1.65-2.07,.31-3.21,.34-6.44,.49-9.66,.01-.29,.16-.58,.29-1.03,1.26,.88,1.29,1.84,.86,2.99-.47,1.27-.51,2.44,.83,2.94,.75-.75,1.41-1.28,1.89-1.94,.47-.64,.98-1.39,1.07-2.14,.17-1.47,.05-2.97,.05-4.63,.29,.18,.65,.29,.67,.43,.16,1.79,.28,3.59,.41,5.47l3.47,.52V4.43l.85,.67,.43-.29c-.37-.53-.74-1.07-1.11-1.6-.44-.62-1.14-1.22-1.22-1.88-.05-.41,.97-1.41,1.31-1.33,4.93,1.17,9.83,2.44,14.72,3.76,9.85,2.67,19.69,5.4,29.54,8.09,11.54,3.15,23.09,6.27,34.62,9.44,9.53,2.61,19.05,5.26,28.57,7.92,1.23,.34,2.52,.66,3.61,1.29,2.72,1.57,2.41,4.29,2.29,6.87-.25,5.45-.27,5.45,4.7,7.38,.47,.18,.94,.35,1.82,.68-2.63,.95-4.85,1.71-7.02,2.57-.36,.14-.54,.73-.62,1.28-3.73,1.22-7.67,1.48-11.7,.54-.79-.19-1.8,.54-2.63,.82,.19-1.24-.84-1.67-2.39-2.04-3.41-.81-6.74-1.97-10.13-2.88-.64-.17-1.42,.13-2.13,.22,.24,.65,.31,1.45,.75,1.9,.6,.63,1.48,1,2.34,1.55v-1.55l2.85,3.43c.2-2.18-.95-2.9-2.4-3.65,2.28-.41,2.8,1.16,3.42,2.46,.84,1.76,.94,4.07,3.75,4.46-.81-1.7-2.38-3.14-1.42-5.4l2,4.93,.54-.21,.41-4.32,.68-.15c-1.01,4.07,.16,7.1,4.35,8.93-.8,.35-1.34,.75-1.48,.64-2.72-2.08-6.25-1.63-9.14-2.96-2.85-1.31-5.44-3.16-8.14-4.79-.51-.31-1-.65-1.49-.97,.43-1.96-.55-2.83-2.7-2.38,.83-2.05-.1-2.66-5.93-4.24,.82,.15,1.63,.33,2.45,.43,.84,.11,1.68,.14,2.78-.21-.64-.42-1.23-1-1.93-1.22-3.15-.99-6.31-1.91-9.49-2.79-5.46-1.5-10.94-2.95-16.4-4.43-3.31-.9-6.62-1.81-10.5-2.87,.25,1.33,.47,2.52,.71,3.71,.04,.18,.3,.4,.25,.49-1.2,2.28,.58,1.81,1.76,1.96,.39,.05,.75,.3,1.05,.92-1.14,0-2.29,.12-3.4-.07-.34-.06-.89-1.14-.74-1.43,.77-1.47,.12-1.89-1.21-2.03-.98-.11-1.95-.27-2.92-.41l.1-.65,3.82,.6c.85-1.75,.58-2.85-1.3-3.47-3.25-1.08-6.59-1.92-10.37-3l1.14,4.13-.48,.32c-.44-.7-1.08-1.34-1.3-2.1-.59-2.04-.99-4.13-1.5-6.19-.1-.42-.35-.8-.6-1.34-1.37,1.04-1.34,1.91-.32,3.01,.31,.34,.42,1.17,.22,1.6-.16,.35-.9,.44-1.89,.86l1.47,1.93c-.54,2.08-2.38,.15-3.61,1.19,2.26-5.78,1.06-11.28,1.21-16.72l-.79-.19c-.27,.89-.6,1.77-.81,2.67-.29,1.24-.57,2.5-.72,3.77-.12,1.02,.12,2.09-.11,3.07-.11,.47-.9,.98-1.46,1.09-.44,.09-1-.39-1.51-.61l.27-.6,1.58,.28c.08-.9,.19-1.67,.22-2.44,.02-.79,0-1.6-.07-2.39-.22-2.11,1.84-4.36-.95-6.3l.68-.17,1.8,1.94,2.22-1.87-5.95-2.03,.49,7.25-3.58-1.2,.13-.51,2.79,.43c-.66-2.4,.3-5.01-2.21-6.62,1.99,2.14-1.37,3.24-1.01,5.02l-1.06-5.78h-.72c-.4,1.48-.9,2.93-1.18,4.43-.29,1.54,.29,2.46,2.08,2.14,.17-.03,.38,.23,.86,.55-.61,.21-.92,.38-1.24,.41-1.22,.12-1.77,.75-1.65,1.98,.22,2.2,.43,4.4,.6,6.6,.04,.52-.07,1.05-.63,2.12,1.3,.26,2.59,.74,3.89,.74,2.93,.01,3.09,.07,3.28,3.31-2.07,.13-4.16,.23-6.24,.39-2.3,.18-4.63,.72-6.9,.53-1.72-.15-3.38-1.17-5.01-1.92-.17-.08-.02-.88-.02-1.85l-4.24,1.52-.77-1.36c-1.91,.42-3.82,.98-5.76,1.23-1.27,.17-2.66,.13-3.87-.22-3.6-1.06-7.13-2.32-10.51-3.44,.12-1.06,.28-1.92,.3-2.78,.08-3.98-.02-7.97,.24-11.94,.07-1.11,1.15-2.16,1.98-3.63l.9,4.34,1.93-6.73,1.33,1.53,1.6-2.19,.52,1.52h3.08l.07-.67-2.12-.13-.36-.22,1.1-.42-1.69-2.47-.03,.06h0Zm60.81,9.03c2,1.19,5.03,.66,5.84,4.05l.6-1.7,4.29,.81c-1.13-.67-2.3-1.14-3.51-1.44-2.41-.61-4.85-1.12-7.27-1.68-2.23-.73-4.43-1.55-6.69-2.19-4.95-1.4-9.92-2.72-14.89-4.07l-.15,.51c2.32,.68,4.62,1.43,6.95,2.03,4.93,1.27,9.88,2.47,14.83,3.68Zm-37.18,11.36l2.96,.31V11.67l1,.38,.3-.38-1.27-1.84-.95,.5c-.12,1.62,.26,3.52-.46,4.8-1.71,3.03-.88,6.29-1.51,9.38l-1.02,2.14c.52,.24,.72,.41,.87,.38,.77-.13,1.53-.32,2.29-.48l-1.5-1.38c-.24-.23-.47-.47-.71-.7Zm-21.91-6.89c-1.24-.1-2.24-.41-1.7-2,1.95-.4,2.87-1.09,2.78-2.06l-2.82,.21-1,3.11c-.82-.93-1.79-1.06-1.79,.19-.02,3.79,.24,7.59,.48,11.37,.02,.37,.66,.9,1.11,1.01,1.81,.47,3.66,.82,5.69,1.25v-8.23h-.21v6.54c-.36-3.51-.33-7.02-.39-10.52,0-.51-.39-1.01-.6-1.52l-1.58,.68,.03-.03Zm51.88,3.83c-1.95-2.95-3.49-3.08-5.88-.86-1.31,1.21-1.81,3.26-2.8,4.85-.98,1.57,.1,2.47,1.18,2.66,3.15,.54,6.36,.74,9.54,1.07l.12-.65c-.49-.11-.97-.29-1.46-.3-2.78-.08-2.83-.14-3.29-2.84-.13-.79-.43-1.55-.6-2.13l-2.53,.95-.3-.9,6-1.84h.02Zm8.02,8.67l-.22,.68c18.91,5.23,37.81,10.45,56.72,15.68l.21-.75c-18.9-5.2-37.81-10.41-56.71-15.61Zm-48.38-7.53l-.04,.65,5.28,2.45-.46,.91h3.93c-.3-4.72-.61-9.5-.93-14.57-1.94,2.03,1.37,5.14-1.72,6.26l.18,3.18-2.31-.71-.64,1.93-.22-.59-3.07,.49ZM1.26,14.06v13.05l4.33,1.5c-.12-2.04-.19-3.93-.35-5.82-.04-.47-.26-1.21-.57-1.32-2.7-.91-2.19-2.87-1.86-4.92,.14-.85,.64-2.2-1.55-2.5h0Zm128.61,19.07l-.55,.02c0,1.84-.32,3.76,.09,5.5,.37,1.57,.05,2.46-1.81,3.35l4.83-.35c.02-1.01,.14-2.08,.05-3.13-.14-1.62-.36-3.24-.68-4.83-.09-.45-.66-.81-1.18-1.4v4.05l-.3,.04-.44-3.25h-.01Zm-2.09-3.67l.16-.58c-11.17-3.09-22.34-6.19-33.51-9.28l-.18,.67c11.18,3.06,22.35,6.13,33.53,9.19ZM18,23.07v5.53c1.56-.5,2.9-.8,4.11-1.37,.6-.28,1.3-1.06,1.32-1.64,.02-.48-.83-1.12-1.42-1.44-.29-.16-.98,.48-1.33,.35-.91-.34-1.73-.91-2.68-1.44h0Zm105.85,16.15l.59-.19c-.25-.66-.51-1.88-.74-1.88-1.36,.03-1.05-.92-1.16-1.63-.28-1.91-.54-3.82-.81-5.74h-.52c-.12,.3-.39,.63-.35,.92,.23,1.73,.32,3.53,.88,5.16,.48,1.41,.15,2.03-1.2,2.72l1.83,.71,.44-1.81,1.04,1.74Zm2.51,5.02l.44-.02v-13.08l-.44,.02v13.08ZM31.03,13.99c.92-.47,1.92-.68,1.99-1.06,.21-1.25,.16-2.57,0-3.84-.02-.18-1.21-.21-2-.33v5.23h.01Zm.96-.08c-1.23,1.97-1.16,6.68,0,8.13V13.9h0ZM4.21,11.14c.72,.66,1.22,1.41,1.55,1.34,.53-.11,1.37-.83,1.31-1.17-.13-.81-.71-1.54-1.1-2.3l-1.75,2.13h-.01Zm6.33,1.1c-.77-2.31-1.8-3.21-3.1-2.7l1.55,3.48c.12-.22,.18-.49,.32-.54,.39-.13,.81-.17,1.23-.25h0Zm127.79,27.42l.85-.11c-.7-2.42,.74-5.17-1.33-7.77l.49,7.88h-.01Zm-25.18,12.18l.68-.86c-1.74-1.25-3.48-2.5-5.21-3.75l-.51,.66,5.04,3.95Zm-20.36-31.99l.15-.68-8.07-2.22-.14,.51,8.05,2.4h0Zm6.2,8.8c-.76,.68-1.56,1.29-2.22,2.02-.35,.38-.47,.97-.69,1.46,1.13-1.8,1.96-1.1,2.78,.49l.46-.41-.34-3.56h.01ZM34.18,3.36l-.14,.49,10.1,2.5,.11-.45-10.06-2.53h0Zm43.42,17.33l-.07,.52,2.35,.54v-4.35h-.47v3.29h-1.81Zm25.96,14.81c.41-1.79,1.27-3.59,.22-5.22l-.71,.05,.48,5.16h0Zm19.22-3.14c.51,1.41,.91,2.48,1.32,3.6l.64-2.82-1.96-.78ZM47.16,9.87l.35-.9-3.66-1.11-.21,.64,3.51,1.36h.01ZM4.95,20.12l.69-.6-1.12-2.05c-.33,.52-.94,1.07-.89,1.54,.05,.42,.85,.74,1.32,1.11Z" fill="#41463d"/><path d="M37.21,39.32c.32-2.76,2.73-1.85,4.04-2.55,1.37-.73,3.18-.64,5.08-.95l-.54,1.75c1.02,.19,2.03,.33,3.01,.57,.43,.1,.85,.35,1.22,.61,1,.72,1.79,.37,2.02-.89,2.46-.18,3.58,1.54,4.55,3.35,.19,.35,0,1.07-.26,1.44-.2,.27-.8,.31-1.23,.35-.92,.08-1.91-.1-2.77,.18-2.1,.67-4,.53-5.82-.75-1.34-.94-2.66-2-4.14-2.65-.92-.4-2.13-.13-3.21-.2-.62-.04-1.23-.16-1.96-.25h0Z" fill="#41463d"/><path d="M101.58,58.94l1.2-1.13-1.2-.32-.11-.45,3.48-.98,.14,.51c-1.17,.9-.95,1.4,1.32,2.68-.03-.5-.05-.89-.07-1.28,2.71,.89,3.29,1.16,3.63,1.76-2.94,1.57-5.6,.31-8.39-.8h0Z" fill="#41463d"/><path d="M68.37,36.22l9.93,2.47-.15,.64-9.81-2.61,.03-.51h0Z" fill="#41463d"/><path d="M8.88,4.02c-.94,1.66-2.34,1.69-4.15,.85l.54,1.7c-.83-.98-.71-1.95,.38-2.92,1.14,0,1.7-.05,2.24,.02,.33,.04,.64,.28,.96,.42l.04-.07h-.01Z" fill="#41463d"/><path d="M97.11,42.09c-.76,0-1.52-.06-2.26,.02-.57,.06-1.11,.38-1.68,.45-.45,.06-.96-.02-1.38-.18-.21-.08-.48-.65-.41-.72,.27-.3,.66-.69,1-.69,.83,0,1.66,.2,2.48,.34,.75,.12,1.49,.26,2.24,.39l.02,.39h0Z" fill="#41463d"/><path d="M91.71,50.38l1.2,3.72-4.11,.29-.07-.32c.82-.32,1.93-.43,2.37-1.03,.45-.62,.24-1.71,.32-2.6l.28-.05h.01Z" fill="#41463d"/><path d="M54.89,37.05l6.11,1.1-.1,.56-6.1-1.14,.09-.52Z" fill="#41463d"/><path d="M39.59,20.29l.36,1.49,2.64-.53,.14,.65-3.31,.76-.13-2.37h.3Z" fill="#41463d"/><path d="M88.21,45.13l-3.51-.21,.03-.58h3.53l-.04,.79h0Z" fill="#41463d"/><path d="M10.54,17.61l.68,5.01c-2.11-.97-2.48-.74-2.51,1.53-.02,1.57,0,3.14,0,4.71l-.77,.26c-.3-.58-.85-1.17-.84-1.75,.03-1.76,.38-3.51,.41-5.27,.02-1.73,.57-2.77,2.49-2.6,.21-.69,.39-1.3,.58-1.93l-.03,.02v.02h-.01Z" fill="#41463d"/></g></g></g></g></svg>