<?xml version="1.0" encoding="UTF-8"?><svg id="b" xmlns="http://www.w3.org/2000/svg" viewBox="0 0 195.97 95.29"><g id="c"><g id="d"><g id="e"><g><path d="M37.4,23.64c6.94,2.83,14.17,4.54,21.58,5.5,13.33,1.72,26.7,2.27,40.06,.4,5.86-.82,11.76-1.58,17.48-3.02,6.2-1.56,12.26-3.77,18.3-5.92,2.04-.72,4.31-1.7,5.65-3.27,1.97-2.3,4.44-2.73,7-3.39,.41-.11,.9-.74,.96-1.19,.15-.98,.05-2,.05-3.48-19.28,7.85-39.05,11.87-59.52,12.3l-.07-.53c2.22-.12,4.45-.16,6.66-.37,4.35-.41,8.71-.76,13.02-1.42,5.35-.82,10.7-1.77,15.98-2.96,4.18-.94,8.29-2.24,12.38-3.55,3.31-1.06,6.61-2.2,9.77-3.63,1.46-.66,2.58-2.09,3.98-3.27l.62,1.88,1.3,.12,2.24-4.31c.79,1.13,1.46,1.8,1.8,2.62,.75,1.82,.68,1.85,3.43,1.84-1.26-.99-.84-2.5-2.21-3.48-.64-.46-.11-2.55-.11-3.9l.58-.16c.31,.52,.68,1.02,.91,1.58,.71,1.76,1.48,3.51,2.01,5.34,.33,1.13,.46,2.39,.32,3.55-.24,1.85,.64,2.49,2.19,3.13,2.13,.87,4.1,2.14,6.13,3.24l-.13,.65c-.86,.29-2.08,.35-2.48,.94-.43,.65-.1,1.81-.5,2.75v-1.38c0-.5-.05-.99-.08-1.49l-3.48,.53v2.95l-.95-.71-.51,.12c.52,2.86-.44,5.84,.81,8.62-.17,.37-.73,1.1-.58,1.31,.32,.43,.99,.64,1.56,.82,2.78,.87,5.83,1.18,7.74,3.95l-1.3,.88-.91-1.14-.67,1.24c-1.4-.86-4.34,.43-4.81,2.3l-.58-1.74c-.21,.35-.42,.53-.41,.7,.23,4.01,.4,8.03,.76,12.03,.37,4.06,.92,8.1,1.45,12.13,.89,6.82,1.83,13.63,2.72,20.45,.48,3.66,.9,7.33,1.31,11,.04,.35-.15,.73-.23,1.09h-1.92c-.17-.43-.33-.87-.51-1.29-.32-.73-.66-1.46-.94-2.1,1.05,.07,1.22-.9,.95-2.22-.26-1.27-.67-2.58-.6-3.84,.09-1.48-.12-2.62-1.47-3.39-.06-.03-.05-.2-.07-.31,.42,.13,.83,.25,1.31,.4-.2-2.11-1.22-3.27-2.24-2.56-1.44,1.01-2.74,.44-4.15,.31-.63-.06-1.68,.13-1.88,.53-.36,.72-.23,1.7-.3,2.56-1.62,3.19-.33,6.91-1.6,10.29l2.91,.41-2.92,1.2h-2.3c0-2.22,.08-4.44-.04-6.65-.1-1.72,.93-3.73-1.04-5.07l.81-.12c-.6-1.14-1.21-2.28-1.81-3.42l-1.93,1.24c1.16,.91,2.06,1.6,2.95,2.3-2.08-1.5-2.73-1.48-5.19,.12l2.22-3.66c-3.02-1.12-4.27,.54-3.9,4.96l.72-.21c-.31,.96-.76,1.9-.91,2.89-.27,1.84-.42,3.7-.49,5.56,0,.3,.54,.81,.92,.91,.66,.17,1.39,.11,1.97,.14-1.2,.18-2.53,.32-3.84,.58-1.07,.21-1.65-.09-1.55-1.23,.24-2.71,.48-5.42,.79-8.12,.66-5.62,1.39-11.22,2.08-16.84,.53-4.29,1.09-8.57,1.53-12.87,.49-4.8,.93-9.6,1.23-14.41,.06-1.03-.34-2.83-.9-2.99-1.24-.36-2.72,.09-4.17,.22l-.75-1.93-.74-.19c1.27,3.34-.98,4.19-3,5.21-4.15,2.08-8.19,4.43-12.49,6.15-3.31,1.32-6.94,1.85-10.42,2.74-4.66,1.2-9.26,2.85-14,3.53-6.85,.98-13.8,1.6-20.72,1.72-6.26,.1-12.59-.32-18.8-1.17-7.77-1.06-15.26-3.48-22.57-6.33-1.91-.74-3.75-1.67-5.62-2.51l-.04,.04c.79,.16,1.62,.23,2.37,.5,1.79,.65,3.55,1.4,5.33,2.09,10.36,3.99,21.11,6.28,32.17,6.89,12.98,.72,25.69-1.12,38.23-4.46,9.26-2.47,18.34-5.34,26.67-10.22,1.32-.78,2.13-1.72,2.26-3.28,.11-1.32,1-2.05,2.47-2.25h4.89l-.04-.69c-1.63,.11-3.35-.77-4.85,.71,.34-.56,.57-1.3,1.06-1.63,.89-.59,1.91-1.01,2.93-1.36,1.1-.38,1.41-1.03,1.35-2.16-.11-1.93-.03-3.88-.03-5.82l.43-.06,.89,1.3c3.14-.92,3.54-1.52,2.6-4.51l-2.49,3.36c-.36-.64-.74-1.31-1.11-1.99-.25-.46-.44-1.29-.72-1.32-1.71-.17-2.53-1.19-2.89-3.33-.37,3.05,.25,4.04,2.78,4.76-.79,.28-1.67,.7-1.73,.6-.91-1.43-1.71-2.93-2.59-4.51l-.71,1.07-.59-1.38-.25,1.96c-.71-1.57-1.65-1-2.65-.52-1.09,.53-2.23,.92-3.34,1.41-13.94,6.09-28.69,8.65-43.73,9.89-8.4,.69-16.79,.48-25.2-.3-7.82-.73-15.53-1.91-23.05-4.18-2.16-.65-4.15-1.89-6.22-2.86l-.03,.05h0Zm111.77,43.58c-.69,.87-1.39,1.73-2.37,2.96l3.03-.24c-.28-1.05-.5-1.86-.71-2.67,.7-1.95-.91-2.56-2.12-3.45v3.72c.82-.12,1.5-.22,2.17-.31h0Zm7.03,11.26c3.69-1.75,3.89-5.08,1.25-6.84-.41,2.25-.8,4.39-1.25,6.84Zm1.86,.49c2.25,1.17,4.07,1.17,4.48-.09,.59-1.85-1.33-2.17-2.17-3.5l-2.31,3.6h0Zm2.56-4.83c.77-1.14,1.55-1.88,1.73-2.74,.09-.45-.85-1.57-1.36-1.6-.86-.04-1.75,.56-2.92,.99,.9,1.19,1.54,2.03,2.54,3.34h.01Zm-14.82,4.66h4.9l-2.07-3.97-2.82,3.97h0Zm13.37-67.93l-.22,.31-1.59-.32v3.27l2.72-.14,.03-.38-1.97-1.27,.19-.41,1.46,.19c.06-1.07,.12-2.03,.19-3.19l-3.13,.86,2.32,1.09h0Zm-2.2,40.64l3.88,2.18c1.25-1.33,.32-2.4-.39-3.08-1.12-1.08-2.32-.62-3.49,.9Zm4.18,13.25l-1.47,2.24,3.23,2.83c.25-1.03-.34-2.72-1.77-5.07h.01Zm-4.06-5.52c3.2-4.23,2.76-3.92,0-5.93v5.93Zm.63-18.36l-.55,.46c-.08,1.45-.29,3.02,1.59,3.5,.39,.1,1.01-.74,1.53-1.14l-2.57-2.82h0Zm2.74-18.41l-3.11-1.69c.21,1.15,.46,2.47,.74,3.98l2.36-.11v-2.17h0Zm-9.91,22.91c2.86-2.3,2.95-3.05,.38-4.11-.12,1.37-2.49,2.33-.38,4.11Zm1.57,13.23l.63-.16c-.07-1.01-.07-2.04-.23-3.04-.33-2.08-.76-2.22-2.62-.81,.73,1.33,1.47,2.67,2.21,4.02h0Zm.37,12.86l-.51-.25c-.75,.84-1.5,1.68-2.3,2.57l2.81,2.54v-4.86Zm.38-19.71c-1.43-1.58-2.8-1.32-4.05-.82-.17,.07,.26,1.63,.46,2.79l3.59-1.98h0Zm6.9,7.8l-.34,.63,1.79,2.62h.71l.74-2.45-2.89-.8h-.01Zm-10.1-50.06v2.59l1.7,.29-.66,1.75,2.02-.37,.49-.39c-1.77-.43-1.41-1.23-.73-2.02-.98-.64-1.8-1.18-2.82-1.85Zm11.04,40c.8-1.84,0-2.72-1.15-3.05-.53-.15-1.33,.61-2,.96l.12,.59,3.04,1.5h0Zm-4.2,15v4.68c2.3-1.62,2.3-2.56,0-4.68Zm8.43,13.14c-.49-1.73-.98-3.46-1.47-5.19-1.16,2.25-.74,4.01,1.47,5.19Zm-12.42-8.26v-4.44c-2.43,1.15-2.49,2.37,0,4.44Zm7.13-36.59l.81-2.65-3.52,.44c.28,.65,.66,.87,1.04,1.11,.46,.29,.91,.6,1.67,1.1h0Zm-14.15,44.33c2.1-1.61,2.94-3.25,.48-4.01-.15,1.28-.3,2.54-.48,4.01Zm2.49-3.24l1.43-3.33c-1.3,.29-2.15,.47-3.3,.73,.69,.97,1.17,1.63,1.87,2.61h0Zm9.41-47.87l-.27,.48,3.24,2.12v-2.87h-.27l-.34,1.47-2.36-1.2Zm-8.36,23.71h3.87l-2.4-2.04-1.48,2.04h0Zm-.98,8.32l.71,.11c1.52-1.78,1.52-1.88-.27-3.56l-.44,3.45Zm12.51,6.03l-.22-.43-3.26,.38,1.8,2.03,1.69-1.99h-.01Zm-10.39,11.04l-.4,.24c.73,1.31,1.47,2.61,2.2,3.92,1.04-2.4-.9-2.96-1.8-4.16Zm9.55-19.06l.13,2.83,2.74-.2-2.88-2.63h0Z" fill="#41463d"/><path d="M6.48,69.81l-.4,1.23,3.82,1.03-.05,.22c-1.09-.17-2.17-.36-3.27-.5-1.45-.18-2.33,.51-2.62,1.9-.61,2.93-1.24,5.87-1.7,8.83-.08,.52,.56,1.16,1.05,2.07-.25,.95-.52,2.35-1.01,3.68-.16,.43-.88,.89-1.35,.89-.33,0-.99-.78-.95-1.14,.44-3.62,.9-7.24,1.55-10.83,1.5-8.31,3.11-16.6,4.69-24.9,.49-2.59,1.27-5.14,1.53-7.74,.19-1.93-.25-3.92-.4-5.88l-.54-.04-.85,1.27c.3-2.4-1.38-2.79-3.24-3.33v4.29c-1.98-3.44-1.08-6.1,2.03-7.25,1.42-.52,2.8-1.17,4.15-1.86,.37-.19,.8-.72,.81-1.11,.15-3.44,.21-6.88,.28-10.31,0-.07-.18-.15-.3-.24-1.55,.62,.5,3.17-1.71,3.57l-.28-4.86h-.81l-.35,4.05h-.32c0-.88-.04-1.75,.01-2.62,.06-1.05-.21-1.92-1.41-1.65-.41,.09-.68,1.03-.91,1.63-.13,.33-.02,.75-.02,1.21-1.88-1.84-1.45-4.82,.8-5.64,1.34-.49,2.82-.6,4.2-.98,.52-.15,1.32-.54,1.38-.91,.18-1.28-.07-2.63,.16-3.89,.13-.69,.89-1.26,1.36-1.87l-.34,1.02,2.67,.12,.24-.34-1.99-1.69,.79-1.45,1.48,2.09,1.89-3.76,2.01,2.22,1.01-1.94,.55,.03-.21,3.56,3.72-.58c.17-1.99-3.05-3.95-1-7.2,.62,2.1,.99,3.85,1.66,5.47,.73,1.76,.44,3.54,.49,5.32,.03,1.1,.4,1.71,1.57,2.01,6.22,1.63,12.36,3.64,18.64,4.95,5.56,1.16,11.27,1.7,16.94,2.31,3.66,.39,7.37,.44,11.05,.62,4.67,.23,9.35,.43,14,.78-21.08,.75-41.78-1.48-61.89-8.52-.29,3.35-.27,3.26,2.41,3.75,1.21,.22,2.48,.71,3.46,1.44,2.23,1.66,4.3,3.53,6.43,5.32l.03-.05c-1.21-.58-2.47-1.08-3.62-1.78-1.08-.65-2.02-1.55-3.08-2.25-.38-.25-1.01-.42-1.39-.27-.24,.1-.31,.83-.32,1.28-.02,.65,.09,1.29,.15,1.94l-.55,.09-.53-2.29h-.44l-.35,2.8c-.18-1.18-.23-1.93-.43-2.63-.08-.28-.44-.58-.74-.68-.16-.05-.63,.3-.65,.5-.17,1.63-.29,3.27-.39,4.92-.04,.63,.08,1.26,.03,1.89-.11,1.38-.35,2.75-.36,4.12,0,.4,.51,1.12,.87,1.18,5.08,.75,8.16,4.28,11.08,8.08l-5.31-3.76v2.55c-.53-.62-1.06-1.46-1.82-2.02-.35-.26-1.12,.06-1.88,.13l1.33,1.52-2.22-.1c0,.78,.17,1.36-.03,1.76-.74,1.45-.2,2.2,1.17,2.79,1.78,.76,3.49,1.67,5.24,2.51l.04-.04c-2.13-.72-4.25-1.44-6.66-2.26,.25,1.77,.42,3.33,.69,4.87,.71,3.99,1.47,7.97,2.2,11.96,1.46,7.93,2.92,15.87,4.37,23.8,.03,.19,.11,.38,.1,.56-.13,1.54,.09,2.72,2.21,2.3l-2.02,.87,.38,2.28c-1.07,.38-2.03,.93-2.79-.55-.13-.26-1.01-.12-1.54-.2-.68-.1-1.35-.24-2.01-.61h3.98c-.48-1.3-.63-2.47-1.27-3.25-2.43-3-5.02-5.87-7.42-8.65,3.23,1.59,5.21,5.01,7.84,7.68l.74-.32c-.91-4.02-1.83-8.04-2.74-12.07-.15-1.29-.17-2.61-.49-3.86-.14-.55-.84-1.21-1.39-1.33-.46-.1-1.07,.52-1.59,.8,1.29,1.63,2.38,3.01,3.47,4.39h-3.28c.48-.45,.96-.89,1.41-1.32-2.22-2.97-4.74-2.63-6.72,.92l2.72,.52c-.18,.77-.41,1.37-1.4,.82-.72-.4-1.49-.7-2.26-1-.86-.33-1.85-.68-2.05,.71-.16,1.09,.06,2.07,1.5,2.13,.56,.02,1.13,.15,1.69,.23-.23,1.82-.82,2.04-3.87,1.21v10.35c0,1.87,.11,3.75,0,5.61-.02,.36-1.11,1.02-1.21,.94-.54-.46-1.31-1.09-1.32-1.67-.06-3.94,.05-7.88,.1-11.81,.01-.94,0-1.88,0-2.73-4.57-1.55-5.83,2.7-8.82,4.65,1.95-3.79,6.41-5.12,7.16-9.57l-2.04,.13,.99-.89c-1.26-1.09-2.48-2.14-4.03-3.47-.53,.7-.97,1.28-1.42,1.87,.17-.44,.5-.9,.47-1.34-.03-.55-.36-1.08-.56-1.61-.42,.33-1.1,.59-1.21,1-.29,1.09-.33,2.25-.52,3.88l1.88-1.98v-.03h-.01Zm5.76-22.41l1.61,.3v-4.6l-2.65,1.7c.87,.81,2.31,1.24,1.04,2.6-.09-1.97-1.78-.96-2.99-1.92,.69,2.79-2.47,5.24,.16,7.24-.41,.16-1.65,.33-1.76,.77-.46,1.85-.58,3.79-.82,5.67l2.17,.86c-1.66,.45-3.89,3.18-3.9,4.6,0,.36,.43,.81,.77,1.07,1.07,.83,2.2,1.58,3.29,2.37,1.51,1.09,3.01,2.2,4.85,3.54,0-1.75,.36-3.16-.11-4.2-.38-.83-1.76-1.2-2.83-1.85l2.91,.21v-4.75c-.67,.64-1.1,1.08-1.55,1.48-.44,.39-.92,.74-1.38,1.11l-.25-.22,.81-1.88-1.92,1.19,1.09-2.21c1.79,1.11,3.1,.31,3.38-1.73,.32-2.37-.3-4.12-2.52-5.18-.14-.07-.24-.25-.63-.68l2.14,.68,.19-.31-2.86-2.2,.29-.4,3.27,2.23c.3-1.91,.49-3.38-1.19-4.36-.31-.18-.4-.75-.59-1.14h-.02Zm8.55,5.84c.48-.18,.96-.51,1.44-.5,1.23,.02,2.46,.19,3.86,.31-.05-.63,.03-1.16-.15-1.59-.31-.73-.64-1.76-1.22-1.97-.6-.22-1.61,.24-2.25,.68-.93,.63-1.69,1.5-2.57,2.31l.94,.73c-.77,.53-1.69,.94-2.3,1.63-2.1,2.37-.06,5.26-.84,7.86-.32,1.06,.04,2.32,0,3.48-.05,1.74-.18,3.48-.29,5.46,1.02-.2,1.73-.15,2.22-.46,2.09-1.33,4.13-2.74,6.12-4.22,.24-.18,.22-1.28-.01-1.43-1.21-.75-2.52-1.33-3.81-1.97l.37-1.16c1.89,1.14,3.72,2.25,5.55,3.36l.68-.48c-.54-1.94-1.08-3.87-1.62-5.81-.05-.19-.1-.39-.11-.59-.06-1.54-.05-3.08-.21-4.61-.03-.3-.65-.73-1.03-.77-1.58-.15-3.18-.17-4.77-.25h0Zm-2.88-.86l.49,.19,4.42-3.77-2.58-2.37h4.67l-.47-3.31-5.97-2.08v6.06l-.56,5.28Zm1.17-31.33c-.43,1.6-.98,3.34,.47,4.55,.81,.68,2.57,1.21,3.3,.78,1.77-1.03,.91-2.94,.92-4.99-2.05,2.25-3.06-.29-4.69-.34Zm4.46,9.84c.94-2.62,0-3.43-4.62-3.95l.5,3.63c-1.19,.84-.16,1.94,.37,3.17,1.89-.77,3.17-1.82,2.78-4.51l.97,1.67h0Zm-12.88-4.96c2.95-.52,4.35-2.31,3.73-4.75-.66,.45-1.24,1.17-1.88,1.22-2.54,.2-2.02,1.84-1.85,3.53Zm-.71,17.87l.59,.43,3.45-2.06-2.59-3.24-.38,.15,.42,1.76-1.49,2.96Zm.2-16.63c0,1.1,.03,1.98,0,2.85-.07,1.33,.8,1.53,1.51,.88,.67-.62,.97-1.69,1.23-2.62,.04-.13-1.07-.6-1.66-.88-.22-.1-.48-.11-1.07-.23h-.01Zm1.88-17.16c-1.12,3.1,2.95,2.07,3.01,4.14,.49-3.29,.03-3.94-3.01-4.14Zm11.47,.09c-.74,.1-1.42,.29-2.1,.28-1.61-.03-1.94,.32-1.65,1.93,3.1,.28,3.32,.13,3.75-2.2h0Zm-9.73,62.81l-2.07,3.38c2.75,.32,2.87,.14,2.07-3.38Zm.39-40.16l.54-.31-.87-2.76-1.9,2.24,2.23,.83Zm4.95-17.17l.4,.82c.77-.45,1.6-.84,2.24-1.43,.11-.1-.46-1.23-.94-1.58-.33-.24-1.04,.05-2.06,.15l2.36,1.24-2,.81h0Zm5.03,19.13l-.03-.46-4.91,.33c1.52,.4,3.01,.4,4.51,.38,.14,0,.29-.17,.43-.26h0Z" fill="#41463d"/><path d="M186.18,65.32c.17-.32,.33-.63,.67-1.28l.61,5.32,.65-.02v-8.61h.38c.6,3.25,1.2,6.51,1.8,9.77h.73c.4-1.98,.81-3.97,1.31-6.49l.46,2.82,.57,.08c.16-.64,.44-1.28,.45-1.92,.04-4.81,.02-9.61,.02-14.42l.8-.07c.09,1.15,.26,2.29,.25,3.44-.02,3.69-.09,7.38-.17,11.07-.02,.89-.11,1.78-.24,2.66-.18,1.23,.19,1.77,1.5,1.27v4.71c-3.74-1.19-7.44-2.37-11.38-3.62l.72,1.11h-2.38l.84-1.93,1.22,.32c.08-1.7,.15-3.3,.24-5.21,.44,.46,.69,.73,.94,.99h0Z" fill="#41463d"/><path d="M151.63,6.07c-.53-2.2-.5-4.2,.91-6.07,1.34,1.28,.83,4.85-.91,6.07Z" fill="#41463d"/><path d="M15.01,.68c1.74,1.48,1.5,2.75-.77,4.43l.77-4.43Z" fill="#41463d"/><path d="M137.42,32.31c-9.94,6.15-20.52,10.81-31.95,13.41,11.25-3.03,21.76-7.85,31.95-13.41Z" fill="#41463d"/><path d="M85.32,48.51c5.67-.69,11.34-1.38,17.02-2.08l.05,.5c-5.67,.67-11.35,1.33-17.02,2l-.05-.42Z" fill="#41463d"/><path d="M47.55,46.06c-2.83-1.07-5.66-2.14-8.49-3.22l.21-.51c2.26,.85,4.54,1.67,6.78,2.58,.56,.23,.98,.78,1.47,1.18l.03-.03Z" fill="#41463d"/><path d="M47.52,46.09c.48-.09,1-.32,1.45-.23,3.02,.58,6.02,1.23,8.95,2.28-3.45-.7-6.9-1.4-10.36-2.09l-.04,.04Z" fill="#41463d"/><path d="M66.89,48.7h7.89v.21h-7.89v-.21Z" fill="#41463d"/><path d="M82.99,48.78l-5.82,.36-.02-.47h5.84v.11Z" fill="#41463d"/><path d="M12.32,55.19c1.33,.83,1.65,1.54,.78,2.41-1.04,1.04-1.92,2.49-3.93,1.57,1.99-.5,3.64-1.22,3.14-3.98h.01Z" fill="#41463d"/></g></g></g></g></svg>