<?xml version="1.0" encoding="utf-8"?>
<!-- Generator: Adobe Illustrator 26.3.1, SVG Export Plug-In . SVG Version: 6.00 Build 0)  -->
<svg version="1.1" xmlns="http://www.w3.org/2000/svg" xmlns:xlink="http://www.w3.org/1999/xlink" x="0px" y="0px"
	 viewBox="0 0 70.5 131.5" style="enable-background:new 0 0 70.5 131.5;" xml:space="preserve">
<style type="text/css">
	.st0{fill:#E4D6A7;}
	.st1{fill:#41463D;}
</style>
<g id="Layer_2">
	<polygon class="st0" points="1.7,116.1 2.1,94 0.7,87.4 2.2,82.7 2.7,44.9 6.3,38 6.3,20 20.4,0 38.6,27.5 45,29 48.1,25.8 
		53.6,33.8 59.6,43.3 61,111.9 65,113.9 60.8,120.9 45.3,130.5 32.4,125.4 	"/>
</g>
<g id="b">
	<g id="c">
		<g id="d">
			<g id="e">
				<g>
					<path class="st1" d="M7.7,84.8c-0.9-1.6-2.1-2.6-4-2.6c-0.2,0-0.4-0.9-0.5-1.5c-0.2-3-0.2-6-0.5-8.9c-0.2-1.7-0.8-3.3-0.9-5
						c-0.1-1.2,0.2-2.4,0.2-3.5C2.2,58,2.2,52.7,2.2,47.4c0-0.5-0.2-1.2-0.5-1.6c-1.4-2-0.9-4.2,1.3-5C5.4,40,6.2,38.7,6,36.3
						C5.7,32.9,5.7,29.4,5.6,26c0-0.3,0.2-0.7,0.4-1c0.7-1.3,1.3-2.5-1-2.9c-0.2,0-0.6-1.6-0.3-2.1c1.6-2.4,3.4-4.7,5.2-6.8
						c0.7-0.8,1.8-1.2,2.8-1.6c0.9-0.3,1.5-0.3,1.4-1.6c-0.1-1.2,0.5-2.4,1.5-3.5c1.4-1.6,2.1-3.6,3.2-5.4c0.3-0.5,1-1,1.5-1.1
						c0.6-0.1,1.5,0.2,1.9,0.6c1.7,2.2,3.3,4.4,4.9,6.7c0.1,0.1,0.1,0.2,0.1,0.3c0.9,4.6,5.1,6.9,7.5,10.5c0.5,0.8,1.2,1.1,0.6,2.2
						c-0.6,1.3-0.1,2.5,0.8,3.5c-1-0.5-4.5,0-5.2,0.7C31,24.7,31,25,30.9,25.2c-1.7,4.5-3.4,9-5.1,13.5l4.8,2
						c-2.4,0.1-4.4-2-6.8-1.4l-0.2,0.8l8,2.4l0.3-0.5l-1-1.2c1.3,0.8,1.4-0.6,2-1.1c1.5-1.5,2.7-1.5,3.8,0.2
						c0.7,1.1,1.7,2.3,1.8,3.6c0.1,1.2,0.4,1.7,1.4,2c0.9,0.3,1.8,0.7,2.7,0.7c1.4,0,1.9-0.8,1.3-2l-4.6-0.4
						c1.3-0.9,1.9-2.5,2.2-5.6l-3.5-1.4l0.2-0.4l3.6,0.8l0.1-0.4c-2.4-0.8-4.8-1.7-7.2-2.5L34.2,35l2.9,1.2l0,0.2l-3.7-0.6l1.8-3.5
						c-0.4,0.7-1,1.5,0.2,1.7c0.5,0.1,1.2-0.5,1.7-1c0.6-0.5,1.1-1.2,1.5-1.9c0.3-0.4,0.6-0.8,0.6-1.2c0-0.3-0.7-0.5-1-0.7l0.4-1.7
						l-1.5-1.1c-1,0.2-2.1,1.7-2.8-0.1l2.7-1.6c2,1.1,4,2.3,6,3.4c1.1,0.6,2.1,0.2,2.5-1c0.5-1.4,1.4-1.4,2.6-1.1
						c2.3,0.6,3.9,1.5,4.4,4.2c0.4,2.4,1.5,4.7,2.3,7.2c0.3,0,0.8,0.1,1.2,0.2c4,0.9,4.2,1.1,4.2,5.2c0,4.8,0,9.6,0,14.4
						c0,1.3,0.1,2.3,1.5,2.9c0.5,0.2,0.9,1.2,0.8,1.8c-0.3,1.5-1.2,2.9-1.3,4.4c-0.3,4.5-0.4,9-0.3,13.6c0,1.3,0.8,2.5,1.3,4
						c-2.5,1.7-1.4,4.8-1.5,7.4c-0.1,3.4,0,6.9,0,10.3c0,1,0.4,2.1,0.6,3.1c0,0.2,0.2,0.4,0.1,0.5c-1.4,2.2-0.7,4.1,0.7,6l-0.4,0.2
						l-1.6-2.1l-0.4,0.2c0.3,0.8,0.7,1.5,1.2,2.4l-2.8,1.3c0.2,0.3,0.6,1.1,0.7,1.1c1.8-0.4,3.5-1,5.5-1.6l0.6,1.2l0.3-2.5l1.5,1.3
						L67,108c1.2,0.3,3.4,0.5,3.4,0.8c0.2,1.6,0.1,3.5-0.6,4.9c-0.4,0.7-2.2,0.7-3.5,0.9c-1.1,0.6,0.4,2.9-1.8,3
						c0.3-0.6,0.7-1.1,0.7-1.7c0-0.5-0.3-1.1-0.7-1.5c0,2.3-1.2,3.8-2.7,5.1c-0.4,0.4-0.7,0.9-1,1.3c0.5,0.3,0.9,0.7,1.4,1
						c0.5,0.4,0.9,0.8,1.3,1.2c-0.4,0.4-0.8,1-1.3,1.3c-1.4,0.7-2.7-0.1-3.2-1.5c-0.5-1.5-1.2-2.9-1.8-4.2c-1.8,0.4-3,0.2-3.6-0.5
						c-0.2,0.7-0.3,1.2-0.4,1.6c-1.1,0.3-2.1,0.6-3.2,1l0.1,0.7c1.2-0.1,2.3-0.3,3.6-0.4l-0.6-1.3c0.9,0.4,1.8,0.8,2.6,1.2l0,0.5
						c-0.5,0.2-0.9,0.3-1.4,0.5c-0.1,0-0.3-0.2-0.3-0.1c-1,0.4-2.1,0.8-3,1.4c-0.2,0.1,0.1,1.4,0.2,1.4c1,0.1,2,0.1,3.1,0.1
						c-0.5-1.1-0.2-1.1,0.8-1.7c0.7-0.4,1-1.5,1.4-2.1l0.5,3.1c-1.2,0.5-3.3,0.6-3.7,1.5c-1.2,2.8-3.8,1.3-5.7,2.4l0.5,2.2l-2.9,0.7
						l-0.1-0.2l2.1-0.8c-0.4-1.5-0.8-3-1.3-4.5c1.3,0,2.9-0.1,3.5-1.8c-1.7-1.9-2.6,2.6-4.2,0.3l1.1-0.9l-2.4-1.6
						c2.3,0.9,3.4,0.8,4.4,0c-3-0.7-6.2-1.5-9.5-2.3l-0.1,0.3c1.5,0.7,2.9,1.4,4.4,2.1c-0.7,0.2-1.4,0.3-2,0.5
						c-0.7,0.1-1.4,0.1-2.6,0.2c1.4,0.7,2.4,1.2,3.5,1.8c-1.4,0.7-4-0.1-3.4,3.1c-1.5-2.6-3,0.4-5-0.6c1.1-0.6,2-1.1,2.8-1.6
						l-0.3-0.7c-1,0.4-2.1,0.7-3.1,1.1c-1.3,0.5-2.6,0.7-3.8-0.4c-0.3-0.3-1.1-0.3-1.5-0.2c-2.2,0.9-4,0-5.5-1.3
						c-0.6-0.5-0.5-1.7-1.1-2.5l-0.2,1.3c-2.1-0.4-4.1-0.8-6.2-1.1c-0.7-1.6-1.9,0.1-2.8-0.5c0.1-0.3,0.1-0.9,0.4-1
						c0.8-0.3,1.7-0.4,2.6-0.6v-1.8l-2-0.5c-0.4,0.5-0.6,1.2-0.9,1.2c-2.6,0.2-5.2,0.4-7.7,0.5l-0.8-3.2c-1,1.4-1.7,2.4-2.4,3.3
						l0.3-2.4L0,115.9c1.8-0.9,1.2-2.2,1-3.7c-0.3-2.3-0.9-4.8,0.6-7.1c0.3-0.4,0.2-1.1,0.2-1.7c0-3.2,0-6.3,0.3-9.5v12.8
						c4.1,1.5,8.6,3.2,13.4,5c-0.5-0.6-0.7-0.9-1-1.2c0.2-0.6,0.6-1.1,0.6-1.7c-0.1-2.5-0.4-4.9-0.4-7.4c0-0.7,0.4-1.4,0.6-1.9
						c-0.4-1.2-0.8-2.4-1.3-3.8c0,4.7,0,9.2,0,13.7c0,0.4,0.4,0.8,0.6,1.2c-3.6-1.3-7.2-2.5-10.8-3.9c-0.4-0.2-0.8-0.9-0.8-1.4
						c0-3,0-6,0.3-8.9c0.2-2.2-0.8-3.5-2-5c-0.7-0.9-1-5.3-0.5-6.2c0.5-0.7,0.9-1.6,1-2.4c0.2-1.4,0-2.9,0.2-4.4c0,1.4,0,2.9,0,4.3
						c0,0.5,0.2,1.5,0.4,1.5c1.7,0.4,3.4,0.7,5.1,1C7.7,85.1,7.7,84.9,7.7,84.8c0.3,0.3,0.6,0.9,1,1.1c2.6,1.2,2.6,1.2,1.9,3.9
						c-0.3,1.1-0.3,2.2-0.4,3.5l2-0.4l-2.5,2.9l-0.4-2l-0.2,0c-0.4,3.2-0.9,6.4-1.3,9.7l-3-0.9V95H4.1c0,2.6-0.5,5.4,0.2,7.7
						c0.3,1.1,3.1,1.5,4.6,2.2l0.1-1.8l0.5,0.1v2.9c-1.6-0.6-3.3-1.3-5-1.9l-0.6,0.5c0.4,0.6,0.6,1.6,1.2,1.8c2.5,1,5.2,1.8,7.8,2.8
						c0-4.5,0-8.7,0-13c0-1,0.4-2,0.6-2.9l2.3,0.4c-0.2-1.7-0.4-3.2-0.6-4.7c0.6,0.1,1.2,0.1,2.5,0.3c-0.7-1-1.1-1.6-1.5-2.2
						c-0.2-0.3-0.9-0.8-0.8-0.9c0.8-1.8-1-2.1-1.8-3.4l-0.3,2.9c-0.1-0.2-0.4-0.4-0.4-0.6c-0.3-2.9-0.2-2.9-3-2
						c-0.4,0.1-0.9,0.2-1.3,0.3C7.4,83.3,7.2,83.9,7.7,84.8L7.7,84.8L7.7,84.8z M28,55.6c-1-0.3-1.9-0.6-2.9-0.9
						c-0.3-0.1-0.8,0-1,0.1c-0.1,0.1-0.2,0.7,0,0.9C25,57.1,27.1,56.9,28,55.6c-0.9,2.5,2.3,1.3,2.7,2.7c0,0,1.1-0.2,1.7-0.3v-0.4
						C30.9,56.9,29.4,56.3,28,55.6L28,55.6L28,55.6z M43.2,98.7c0.6-1,1.2-2,1.8-3c-2-0.3-2.5-0.1-2.8,1.3c-0.2,0.8-0.3,1.8,1.1,1.6
						L42,100c3.2,0.5,2.8-2,3.5-3.6C44.7,97.2,44,98,43.2,98.7C43.2,98.7,43.2,98.7,43.2,98.7z M49.1,81.8c0.3-0.1,0.9-0.2,0.9-0.2
						c0-1.6-0.2-3.2-0.3-4.8l-1,0.1C48.8,78.5,49,80.2,49.1,81.8c-0.8,3.3-0.4,5.8,1.6,5.7C50.1,85.5,49.6,83.7,49.1,81.8L49.1,81.8
						L49.1,81.8z M13.8,114.9h1.3l0.1-0.5c-1.7-0.9-3.4-1.9-5.1-2.8l-0.5,0.7c0.4,0.5,0.8,1.2,1.4,1.5
						C11.9,114.2,12.9,114.5,13.8,114.9l-1.5,0l-0.2,0.6l2.8,1.1l0.3-0.6L13.8,114.9L13.8,114.9L13.8,114.9z M5,111.1
						c0.7,0.5,1.3,1,1.9,1.5c0.4,0.4,0.9,0.8,1.3,1.1l-0.5-3.4l0.4-0.1l0.2,1.6l0.3-0.1l-0.6-2.2l-0.5,0.1l-0.2,1.4H7.1l-0.4-2
						l-0.4,1.7l-0.3,0l-0.2-1.6L5,111.1c-0.1-0.9,0.8-2.1-0.6-2.7c-0.2-0.1-0.5,0.2-0.7,0.3c0.1,0.2,0.1,0.4,0.2,0.4
						c0.2,0.1,0.4,0.1,0.7,0.1l-0.2,1.1L3,109.8c-0.1-0.8,0-1.5-0.2-1.9c-0.1-0.2-0.8-0.2-1.2-0.3v3C3,110.8,4,111,5,111.1z
						 M54.9,117c1.3,0.4,2.6,1.7,3.8-0.3l-1.9-0.7l0.2-0.4l3.6,1.3c-0.4-0.5-0.6-1.1-1-1.2c-1.2-0.4-2.6-0.5-3.7-1.1
						c-1.5-0.8-1.8,1.1-3,0.9l0.3,0.5c-0.3,0.3-0.6,0.5-0.9,0.8c-0.4,0.4-0.8,0.8-1.2,1.3C52.6,119.3,53.6,117.6,54.9,117L54.9,117
						L54.9,117z M6.3,57.9c0.8,1,1.6,1.9,2.4,2.8c0.9-2.4,0.5-3.9-1.1-4.3L6.3,57.9c-1.8-0.8-1.5-2.2-1.3-3.8l3.9,1.1
						c0.4-3.2,0.4-3.5-1-4.1l-0.2,3.1L4,53l0.3,6.4C5.1,58.8,5.7,58.4,6.3,57.9L6.3,57.9L6.3,57.9z M25.8,92.1l1.1-0.1
						c0.4,1.1,0.9,2.2,1.3,3.3l2.1,2c3.2-1.2,6.5-2.3,9.8-3.7c0.6-0.2,1-1.1,1.4-1.7c-0.8-0.2-1.6-0.7-2.3-0.6
						c-2.6,0.6-5,1.8-7.6,2.3c-1.2,0.2-2.2,1.1-3.3,1.6c0.4-0.5,0.9-0.9,1.3-1.4c0.1-0.2-0.1-0.5-0.1-0.8c0.3-0.2,0.7-0.3,1-0.5
						c2.1,0.8,3.2-0.1,3.1-2.2c-0.1-2.3-0.6-4.8,0.2-6.8c1.2-2.8,0.2-5.5,0.6-8.3l-2,0.4v16.1l-1.9,0.8c0-0.2-0.1-0.7-0.1-0.7
						c1.5-0.4,1.4-1.6,1.4-2.7c0-9,0-18.1,0-27.1c0-1.3-0.4-2.2-2-2.2V69l-4.6-1.4L25,68l1.6,0.8l-0.1,0.2l-1.4-0.2l-0.6,2.8h-0.2
						c-0.2-1.7-0.4-3.5-0.6-5.2l1.4,0.3c-0.1-1.3-0.1-2.3-0.2-3.4c0-1.1,0-2.2,0-3.2c0-3.1-0.5-3.6-3.9-3.8c0,5-0.1,10.1,0.1,15.1
						c0,0.9,0.9,1.9,1.4,2.8c0.1,0.1,0.1,0.3,0.1,0.6L21,74.1c0,4.7,0,9.2,0.1,13.8c0,0.5,0.7,1.3,1.3,1.4c1.6,0.6,3.4,0.9,5,1.3
						c-0.6,0-1.2-0.2-1.8-0.1c-0.9,0.1-1.8,0.2-1.5,1.5l-2.6,2.3c2.4,0.8,4.7,1.6,7.5,2.6L25.8,92.1L25.8,92.1L25.8,92.1z
						 M50.3,98.4c-0.2,1.2-0.7,2.3-0.6,3.5c0.2,3.9,0.6,7.7,0.9,11.1c0.2-1.2,0.6-2.8,1-4.5c0.1-0.3,0-0.7-0.1-1
						c-0.2-0.6-0.7-1.2-0.7-1.8C50.4,103.2,50.4,100.8,50.3,98.4c0.1-1.3,0.2-2.7,0.3-4.5c0.3,1.3,0.5,2.1,0.7,2.9
						c1-2.9-0.1-7.7-1.9-8.6c0,3.1,0,6.2,0,9.2C49.5,97.8,50,98.1,50.3,98.4L50.3,98.4z M57.7,90.5c0.4-0.3,1.2-0.6,1.2-1
						c0.1-5.4,0-10.7,0-16.1l-0.4-0.2c-0.5,0.4-1.1,0.8-1.3,1.3c-0.1,0.3,0.4,0.9,0.6,1.3c-0.2,0.5-0.5,1.1-0.5,1.6
						c0,3.4,0.1,6.7,0.2,10.1C57.4,88.5,57.6,89.5,57.7,90.5H57c-0.1-1.2-0.2-2.4-0.2-3.6c-0.1-4.2-0.9-4.7-4.6-2.8v9.1
						c1.9-1.1,3.3-2,4.8-2.8c-0.1,3.7-0.2,7.4-0.2,11c0,1.2,0,2.3,0,3.7c2-1.2,2.2-1.4,2.2-3.1c0-2.4,0.1-4.8-0.1-7.2
						C58.7,93.3,58.1,91.9,57.7,90.5z M53.7,54.4l-0.8,1.2l2.8-1.1v6.7l0.5,0.3c0.1-0.2,0.2-0.5,0.2-0.8c0-2.2,0-4.4-0.1-6.7
						c0-0.3-0.5-0.5-0.8-0.8c1.6-0.8,0.9-2.2,1-3.4c0.1-1.1,0-2.3-1.6-2.3c-1.4,0-3.1,0-3.3,2c-0.1,1.7,0,3.4,0,5.1L53.7,54.4
						C53.7,54.4,53.7,54.4,53.7,54.4z M17.5,70.6c0.3-0.3,0.9-0.6,0.9-0.9c0.1-3,0-6,0-9.5c-1.2,1.1-3.3-0.7-3.2,1.8L13,61.8l-0.5,4
						C15.4,66.1,17.6,67.2,17.5,70.6l-5.1-2.1l3.2,0.6l0.3-0.5l-4.3-3.2c0.3-0.8,0.6-1.6,0.8-2.5c0-0.1-0.7-0.4-1-0.6
						c0.4-0.4,1.1-0.8,1.1-1.3c0.3-3,0.4-6.1,0.6-9.1l0.5-0.1c-0.6,2.6,1,2.8,3,3v-3.1l0.4,0c0.2,2.5,0.5,5,0.8,7.5
						c0.4-2.4,0.5-4.8,0.4-7.2c0-0.3-0.5-1-0.8-0.9c-1.6,0.2-2.6-1.2-4.1-1.5c-0.2,0-0.4,0-0.6,0l-0.1,1.1L10.9,50
						c0,3.8,0,7.2,0,10.7c0,0.5,0.3,1.1,0.4,1.6c-0.7-0.2-1.4-0.4-2.2-0.6c-0.5-0.2-1.2-0.2-1.4-0.5c-1-1.4-2.5-1.7-4-0.7
						c-0.2-3.1-0.3-6.2-0.5-9.4h1.9c0.7-2.4-1.9-1.1-2.5-2.3v15.8c0.9-1.8,3.5-2.3,6.3-1l-3.2,0.2C6,64,6.3,64.1,6.5,64.3
						c0.2,0.2,0.5,0.4,0.4,0.3L2,65l-0.2,0.9c1.4,0.7,2.8,1.5,4.6,2.4l-3.9-0.9c-0.6,2,0,3.1,1.9,3.6c1.2,0.3,2.4,0.8,3.3,1.1
						c0.2,1.7,0.3,3.2,0.5,4.7c0.5,3.6-0.2,4.5-3.7,3.8c0-1.1,0-2.3,0-3.5c-0.1-1.2-0.2-2.4-0.3-3.7c-0.3,2.4-0.4,4.7-0.2,7.1
						c0.1,1.5,2.5,2.5,4,1.9c0.3-0.1,0.6-0.1,1-0.1c0.5-0.1,1-0.2,1.5-0.3c0.9-0.2,1.7-0.3,1.7-1.5c-0.1-2.2,0-4.3,0-6.5
						c1.9-0.2,3.8,0.6,4.1,2.1c0.5,2.2,0,4.7-0.1,7.4c1.8,1,1.5,3.5,2.2,5.7V71.2c-2.7,2.1-4.8-0.4-6.8-0.6c0.3-0.8,0.6-1.4,0.9-2.1
						c0.1,2,2.7,3.7,4.4,2.9C17.1,71.3,17.2,70.8,17.5,70.6L17.5,70.6z M31.7,110.8c0.1,0.5,0.2,1,0.3,1.5c-0.7,0.3-1.3,0.7-2.1,1.1
						c-0.1,1.5-0.2,3.3-0.3,5.3l1.7,0.7l0.4,5l0.6-0.1c-0.1-2.1,0.8-4.3-1.1-6.2c-0.6-0.6-0.9-1.4-1.3-2.2l0.3-0.2l0.3,1.7l0.7,0
						l0.7-5.2l1.6,1.1c0-2.3,0-4.4,0-6.5c0-1.9-0.1-3.8,0.2-5.7c0.3-2.6,3-1.6,4.5-2.6c0.4-0.2,0.8-0.3,1.2-0.5
						c2.4-0.8,2.5-1.2,0.8-3.3c-3.8,1.4-7.7,2.9-11.7,4.4c1.6,0.5,3,0.9,4.9,1.5l-1.7,0.6c0,2.3,0.1,4.4-0.1,6.5
						c-0.1,0.7-0.8,1.4-1.1,2.1C30.7,109.9,31.2,110.4,31.7,110.8c-0.5,0-1,0-1.4-0.2c-2.5-0.9-4.9-1.8-7.3-2.7
						c-0.6-0.2-1.2-0.3-1.9-0.5l-0.2,0.6c3.3,1.2,6.5,2.3,9.8,3.4C30.9,111.5,31.3,111,31.7,110.8L31.7,110.8L31.7,110.8z
						 M10.5,30.4L10.5,30.4c0.2,0.7,0.7,1.6,0.7,2.4c0.1,1.8,0.1,3.6,0,5.3c-0.1,1.7,0.5,2.5,2.2,2.9c1.9,0.5,4,0.8,4.1,3.5
						c0,0,0.2,0,0.9,0.1c-0.2-2.7-0.5-5.2-0.7-7.8c-0.1-2.5,0-5,0-7.4c-1.7-0.6-3.4-0.1-4.6-1.5l1.4-0.1c-0.1-0.5-0.2-1.1-0.4-1.1
						c-1.9-0.2-1.5-2.1-1.3-2.8c0.7-2.2-1-3.5-1.7-5.3c-1.1,1.5-2,3.1-2.6,4.8c-0.6,1.5,0.3,2.5,1.7,3.1c0.7,0.3,1.3,0.7,2,1
						l-5.9-0.6c0,3.6,0,7.4,0,11.1c0,0.3,0.5,0.7,0.8,1l0.6-0.1c0.2-1.7,0.5-3.5,0.5-5.2c0-1.7-0.3-3.4-0.5-5l0.2-0.2l1,1.9
						L10.5,30.4L10.5,30.4z M35,61c-2,0-2.9,0.8-2.9,2.5c0.1,1.7,0.1,3.3,0.2,5c0,2.1,0,4.3,0,6.6c3.2-0.8,6-1.6,8.8-2.4
						c0.3-0.1,0.8-0.4,0.8-0.7c0.1-1.3,0-2.7,0-4c-1.7,3.2-5,2.2-7.5,3.6C34.6,67.9,34.8,64.5,35,61C35,61,35,61,35,61z M9.5,89.8
						c-0.1-3.2-0.2-3.3-3.4-4c-0.6-0.1-1.3-0.2-1.9-0.3c-1.1-0.2-2.5-0.6-2.8,0.7c-0.4,1.4-0.6,3.5,0.2,4.3c1.6,1.6,3.7,2.9,6.2,2.9
						c0.5,0,1.2-0.7,1.4-1.3C9.5,91.4,9.4,90.6,9.5,89.8L9.5,89.8L9.5,89.8z M43.6,69.2l-0.8,0v16.2c0.4-0.5,0.5-1,0.6-1.5
						c0.3-2.7-1.6-5.7,1.4-7.9c0.1-0.1,0.1-0.2,0.1-0.3c0.7,1.5,1.7,0.9,2.3,0.1c1.9-2.5,1-5.3,0.9-8.3l-3.9,1v6.5h-0.5L43.6,69.2
						L43.6,69.2L43.6,69.2z M47.1,27.6c-1.8,5.3-4.3,10.3-5.2,15.9c0.8-0.3,1.5-0.7,1.8-1.3c0.4-0.9,0.3-2,0.7-2.9
						c1.6-3.4,3.4-6.8,5.1-10.2c0.2-0.3,0.1-0.7,0.2-1.1L47.1,27.6C47.1,27.5,47.1,27.5,47.1,27.6z M16.1,48.7l-0.3,0.5
						c0.3,0.3,0.6,0.8,1,1c4.9,1.8,9.9,3.7,14.9,5.4c0.6,0.2,1.4,0.3,2,0c2.5-1,4.9-2,7.3-3.2c0.5-0.2,0.8-0.9,1.2-1.4l-0.5-0.5
						c-2.9,1.4-5.8,2.8-8.8,4.2C27.5,52.7,21.8,50.7,16.1,48.7L16.1,48.7L16.1,48.7z M19.9,45.3l0.5-0.1c0.1,1,0.3,2,0.5,3
						c0.1,0.5,0.1,1.2,0.5,1.5c1.4,1.2,3.8,1.2,5.3,0.2c0.5-0.3,0.9-0.6,2-1.3c-2.9-1.4-5.4-2.6-7.9-3.8C19.2,44,18.5,44.8,18,46
						c-0.3,0.8-0.2,1.7-0.2,2.7l2.4,0.4C20.1,47.6,20,46.4,19.9,45.3z M57.3,40.8c-1,3.3,0.5,6.4,0,9.6c-0.5,3.3-0.1,6.7-0.1,10
						l0.5,0c0.3-1.1,1-2.2,1-3.3c0.1-2.7,0-5.4-0.1-8.1c0-0.6-0.3-1.5-0.2-1.6c1.8-1,0.8-2.7,1.1-4.1C59.9,41.6,59.2,40.8,57.3,40.8
						L57.3,40.8C57.3,40.8,57.3,40.8,57.3,40.8z M15.8,42.7c-1.6,2.5-3.3,0.7-4.8,0.5c-1.7-0.2-3.8-0.3-4.3-2.7v3.6l7.5,2.7l0.6-2.2
						c0,0.5-0.1,0.7,0,1c0.2,0.5,0.4,1,0.6,1.5c0,0,0.7-0.1,0.8-0.3c0.1-0.5,0.1-1,0.1-1.6C16.1,44.6,16,43.9,15.8,42.7L15.8,42.7
						L15.8,42.7z M47.9,61.7c-1.4,0.7-2.5,1.5-3.6,1.8c-2.2,0.6-1,2.2-1.2,3.4c0,0.2,0.8,0.8,1,0.8c1.3-0.5,3.4,0.1,3.8-2
						C48.1,64.6,47.9,63.4,47.9,61.7z M41.7,73.6l-0.5-0.2c-0.2,0.7-0.5,1.4-0.6,2.2c-0.1,3.4-0.2,6.9-0.2,10.3c0,0.8-0.1,1.7,0,2.5
						c0,0.3,0.4,0.6,0.7,0.9c0.2-0.3,0.6-0.6,0.6-0.9c0.1-0.8,0-1.5,0-2.3L41.7,73.6L41.7,73.6L41.7,73.6z M1.8,43.5l-0.3,0.3
						c0.4,0.4,0.7,0.9,1.2,1.1c2.1,0.8,4.2,1.6,6.3,2.3c2.1,0.7,4.3,1.3,6.6,2c-0.1-0.5,0-0.8-0.1-0.9C10.9,46.7,6.4,45.1,1.8,43.5
						L1.8,43.5L1.8,43.5z M17.3,94.8l0.6,0.1c0.1-1.5,0.2-3,0.4-4.6l-2.1-0.7c0.1,1.9,0.2,3.4,0.2,4.9c0,0-0.2-0.2-0.4-0.2
						c-0.5,0-1,0.1-1.5,0.1c0.3,0.4,0.6,0.9,1,1.1c0.9,0.4,1.9,0.6,2.9,0.9l0.3-0.6L17.3,94.8L17.3,94.8L17.3,94.8z M19.8,88.4
						l0.5,0V70.1h-0.5V88.4L19.8,88.4L19.8,88.4z M25.9,20c0.8-2.5,1.6-4.9,2.4-7.5h-3.2v0.4l2.3,0.5c-0.9,1.2-3.3-0.1-3.5,2.3
						l1.9,0.1V20z M56,67.9c-2.7,0.9-4,2.2-3.9,3.8C56,71.3,56.9,70.4,56,67.9z M41.8,58.1l-1.1,0c0,1.4,0,2.9,0,4.3
						c0,1.3,0.2,2.7-0.2,3.8c-0.4,1-1.7,1.6-2.5,2.4c1.5-0.6,3.5-1.3,3.8-2.5C42.2,63.6,41.8,60.8,41.8,58.1L41.8,58.1L41.8,58.1z
						 M50.5,78.5c1.1-2.7,0.5-6.1-1.5-9.8c0,0.1,0,0.1,0,0.2C48.3,72.3,50.6,75.2,50.5,78.5z M24,114.6v-4.1l-2.4-0.7
						C20.9,113.8,21.1,114.2,24,114.6z M50.3,62.6l0.5-0.1V48.9h-0.5V62.6L50.3,62.6L50.3,62.6z M19.1,41.6c2.2-1.7-0.2-3.7,0.7-5.8
						c0.4,1.1,0.6,1.8,0.8,2.5l0.2,0v-4.5C19.2,34.2,18.3,38.8,19.1,41.6z M14.3,18.7l-2-2.6l-0.4,0.2c1.2,2.2,2.5,4.4,2.7,6.9
						c0,0.1,0.6,0.3,0.8,0.2c0.2-0.2,0.5-0.6,0.4-0.9c-0.4-1.1-0.8-2.1-1.2-3.1l0.3,0.1l0.4-2.2l-0.7-0.1
						C14.6,17.1,14.3,18.7,14.3,18.7z M56.6,65.3c-4.5,1.3-5.2,1.6-3.8,3.5C53.7,67.2,56.8,68.2,56.6,65.3z M25.1,117.6l-0.5-0.2
						c-0.2,0.5-0.5,1.1-0.5,1.6c-0.1,1.2-0.2,2.5-0.1,3.8c0,0.5,0.7,0.9,1,1.3c0.2-0.4,0.8-0.9,0.7-1.3
						C25.6,121.1,25.3,119.4,25.1,117.6C25.1,117.6,25.1,117.6,25.1,117.6z M48.2,88.3V77.2l-0.8,0C47.5,80.9,46.7,84.7,48.2,88.3z
						 M54.5,62c-0.2-1.5-0.3-2.8-0.4-4.2c-2.8,1-1.1,3-1.9,4.6L54.5,62L54.5,62L54.5,62z M47.4,61l0.4-0.1v-7l-0.4,0V61z M50.3,47
						c-2.6,1-4.7,1.9-7.2,2.9C45.2,50.6,49,49.1,50.3,47z M20.2,97.4h-0.2v10.1h0.2V97.4z M48,118.1l-6.2-0.9
						c1.2,0.9,2.3,1.7,3.6,2.2c0.7,0.3,1.6,0.3,2.2,0.1C47.9,119.4,47.9,118.4,48,118.1L48,118.1L48,118.1z M19.3,64.3l-0.1-0.1v4.4
						c1.1-0.8,1.4-8.4,0.5-12.6v9.8h-0.2C19.5,65.8,19.3,64.3,19.3,64.3z M26.9,99.6h-0.6c0.2,3.1-0.4,6.2,0.6,9.2V99.6z M45.9,47.2
						l0.7-3c-0.8,0.1-1.8,0-2,0.4c-0.5,0.9-0.7,2-1,3.1L45.9,47.2C45.9,47.2,45.9,47.2,45.9,47.2z M27.6,115.8v-4.7
						c-0.8,0.5-1.5,0.7-1.6,1.1C25.4,114.4,25.8,115.4,27.6,115.8z M40,74.2c-3.4,0.5-5.1,1.3-5,2.2C36.7,75.7,38.8,75.8,40,74.2z
						 M55.4,38.1l0.6,3.7h0.2v-3l3.3,2C59.7,39,59.2,38.7,55.4,38.1L55.4,38.1L55.4,38.1z M9.7,56.1H9.4l0.6,5.3l0.6,0v-8.7h-0.2
						L10,57.7H9.9L9.7,56.1L9.7,56.1L9.7,56.1z M48.9,98.2l-0.3,0.1v16.1h0.3C48.9,114.3,48.9,98.2,48.9,98.2z M18.7,61.7h0.4v-7.5
						h-0.4V61.7z M19.5,118.3c-0.5,1.6-0.1,2.7,1.2,3.4C21.1,119.9,20.7,118.8,19.5,118.3z M45,101.1h-0.2v13.3H45V101.1z
						 M56.4,76.5l-0.5,0c-0.6,2.4-0.3,4.8,0.8,5.2C56.5,79.9,56.5,78.2,56.4,76.5L56.4,76.5L56.4,76.5z M55.8,105.1l0.3,0.1V92.3
						h-0.3C55.8,92.3,55.8,105.1,55.8,105.1z M26,59v8.3l0.9-0.3C25.8,64.4,26.9,61.5,26,59z M56.4,110l-0.6-0.6c-1,0.7-2.8,0.7-2,3
						L56.4,110C56.4,110,56.4,110,56.4,110z M16,8.2c2.4,1,5,1.4,7.2-0.3L16,8.2z M59.7,97l0.4-0.1V93l-0.4,0
						C59.7,93,59.7,97,59.7,97z M29.2,112.6l-0.6,0.1c-0.9,2-0.7,3.3,0.8,4.2C29.5,116.8,29.2,112.6,29.2,112.6z M58.3,70
						c0.3-1.3,0.6-2.2,0.9-3.4C56.4,67.4,56.3,67.7,58.3,70z M51.4,64.7l-0.5,0.1l-1.9-1.5c-0.8,2.2,1.5,2,2.2,3.5L51.4,64.7
						L51.4,64.7L51.4,64.7z M56.6,71.1c-1.4,0.6-1.6,2.3-0.2,3.9L56.6,71.1z M51.7,99.2h-0.3v5.8h0.3V99.2z M17.7,106.5l-0.6-0.1
						l-1.2,4.3l0.9,0.2C17.1,109.4,17.4,107.9,17.7,106.5L17.7,106.5L17.7,106.5z M16.4,111.8l-0.5,0v5h0.5V111.8z M59.1,64.2
						c-1.2,0.5-2.7,0.5-2,2.4C58.2,66.2,59.6,66.2,59.1,64.2z M21.7,3.6l-0.6,0.1v3.1l1.7-1.2L21.7,3.6L21.7,3.6L21.7,3.6z
						 M13.2,60.1l0.7-0.1l-0.2-4.5l-0.4,0V60.1z M25.4,111.1l-0.6,0l0.2,4.3l0.4,0V111.1z M20.4,91.9l3.5-1.7L21,89.8L20.4,91.9
						L20.4,91.9z M59.8,91.1h0.3v-4.5h-0.3V91.1z"/>
					<path class="st1" d="M7.1,120.9c1.2,0.7,1.3,0,1.2-0.8c1.3,0.1,2.6,0.2,3.8,0.3c0.8,0.6,2.1-1.1,2.8,0.5
						c-0.4,0.3-0.8,0.8-1.2,0.8c-1.5,0.1-3,0.1-4.6-0.1C8.5,121.6,7.8,121.2,7.1,120.9L7.1,120.9L7.1,120.9z"/>
					<path class="st1" d="M42.6,131.4c-0.8-0.4-2.6,1.2-2.9-1.1c-0.4-3.1-0.1-3.3,3.6-4c-1.2,0.6-2.4,0.9-3,1.7
						c-0.4,0.5-0.5,1.9-0.1,2.3C40.8,130.9,41.9,131.1,42.6,131.4L42.6,131.4L42.6,131.4z"/>
					<path class="st1" d="M67.8,75c0.4,1.3,0.8,2.4,1.2,3.6h-1.6L67.8,75L67.8,75z"/>
					<path class="st1" d="M10.5,30.4c1.6,0.5,3.2,1,4.8,1.6c0.2,0.1,0.3,0.7,0.3,1.1c0,2.5,0,5,0,7.8l1.9-1.1l-0.8,1.6l-5-1.7
						c0-2.3-0.1-4.7,0-7C11.8,31.6,11.4,30.9,10.5,30.4C10.5,30.4,10.5,30.4,10.5,30.4z"/>
					<path class="st1" d="M31.6,28.4c-0.5,0.8-1,1.5-1.4,2.2c0.1-1,0.3-2.1,0.5-3.4l3.9,1.1C33.7,28.5,32.8,30.5,31.6,28.4z"/>
					<path class="st1" d="M13.2,85.5c0.3,0.4,0.6,0.8,0.8,1.2c0.4,0.8,0.8,1.5,1.1,2.3c-1.4,1.1-1.5-1.1-2-0.9V85.5L13.2,85.5
						L13.2,85.5z"/>
					<path class="st1" d="M29.9,75.6v12.1l-4.6-1.3l-0.4,0.4l1.9,1.9h-2.2c-0.1-2.5-0.3-5-0.3-7.5c0-2.8,0-5.5,0-8.8
						c1.9,0.9,3.6,1.8,5.3,2.7l-3.8-1.3C26,75.7,27.4,76.2,29.9,75.6z"/>
				</g>
			</g>
		</g>
	</g>
</g>
</svg>
