<?xml version="1.0" encoding="utf-8"?>
<!-- Generator: Adobe Illustrator 26.3.1, SVG Export Plug-In . SVG Version: 6.00 Build 0)  -->
<svg version="1.1" id="b" xmlns="http://www.w3.org/2000/svg" xmlns:xlink="http://www.w3.org/1999/xlink" x="0px" y="0px"
	 viewBox="0 0 395 329.9" style="enable-background:new 0 0 395 329.9;" xml:space="preserve">
<style type="text/css">
	.st0{fill:#E4D6A7;}
	.st1{fill:#41463D;}
</style>
<path class="st0" d="M2.7,218.2l19.1-0.7l-6.3-31.6l8.5-15.4l5.7-22l21.9,1.9l10,16.9l-3.8-49.1l31-15.3L91.2,25l6.5-0.9l-0.3,73
	l18.3-10.7l1.6-76.5l8.5,4l1.6,71.5l25.3-10.3l2.8-49.2c0,0,32.5-20.7,41,3.4s3,53.7,3,53.7l6.1-65.3C213.6,0.1,225.6-5,245,14.7
	l-0.1,48.5l14.1-0.3l3.1-33l1.4-14.6l6.9,59.2l41.3,9.7l13-24.2l15.6,0l3.4,79.8l15.4,3.2l2.8,40.4l30.2,28.5L188.4,319.7L2.7,218.2
	z"/>
<g id="c">
	<g id="d">
		<g id="e">
			<g>
				<path class="st1" d="M214.1,213.7c0.6-0.1,1.1-0.1,1.9-0.2v-2.3c0-14.3,0-28.5,0-42.8c0-0.7-0.4-1.4-0.6-2.2
					c7.7-3.2,16-6.7,24.2-10.1c1.2-0.5,2.5-1,3.7-1.4c0.5-0.1,1.1,0,1.8,0c0.4-0.3,1-1,1.8-1.3c6.9-3,13.7-5.9,20.6-8.9
					c14.7-6.4,29.4-12.9,44-19.3c1.6-0.7,3.3-1.4,5-2.1v7.6c1.4-0.5,2.7-0.7,3.8-1.4c0.5-0.3,1-1.3,1-2c-0.1-3.3-0.3-6.6-0.4-9.9
					c0-0.8,0.2-1.6,0.4-2.3l0-0.1c0.3,2.3,1.2,4.1,2.5,5.3l-1.6-1v4.2c3.3,1.8,6.1,4,9.8,4.1v-11.2l-2,0.9l-0.1-2l1.9-0.1
					c0.9-2.9,0.6-3.5-2.2-3.9c0.1-0.1,0.1-0.3,0.2-0.3c2.9,0.9,2.4-1.2,2.4-2.7c-0.1-2.6,0.6-5.2-0.6-7.7l-2.2-0.5
					c-0.1-0.9-0.1-1.6-0.2-2.3c0-0.7-0.3-1.8,0-2.1c0.6-0.4,1.5-0.2,2.7-0.3c0.1-4.7,0.5-9.7-0.2-14.7c0.1-0.8,0.4-1.7,0.4-2.5
					c0-3.6-1.7-6.1-5.1-7.4c-1.5-0.6-3-1.2-4.9-1.9v24.6l-0.6,0c0.1-1.4,0.4-2.7,0.2-4.1c0-0.6-0.8-1.5-1.3-1.6
					c-7.4-1.5-14.9-2.9-22.3-4.3c-0.6-0.1-1.2,0.2-1.8,0.2c-1,0.1-2,0.1-3,0.2c-0.6,0.1-1.3,0-1.8,0.3c-1.3,0.6-2.4,1.4-3.7,2.1
					c-0.6,0.3-1.3,0.5-2.1,0.3c1.9-1,3.7-2.1,6.2-3.4c-2.6-0.7-4.7-1.3-6.8-1.7c-0.4-0.1-0.8,0.5-1.3,0.8c-0.8-1.1-1.5-2.2-2.4-3.2
					c-0.6-0.7-1.5-1.3-2.2-2c-0.4-0.4-0.8-0.8-1.2-1.3l-0.2,0.6h-2.8V73c-0.8,1.2-1.5,2.2-2.1,3.1c-0.9-0.6-1.6-1.1-2.6-1.7
					c0,1,0.1,1.7,0,2.4c-0.2,1.8,0.3,4-2.5,4.3c1.8-2.2-1.2-2.2-1.3-3.6l-0.6,0.3l1.5,2.4c-0.5,0.4-1,0.7-2,1.4l1.6-0.1
					c-1.8,1.1-0.5,2.5-0.6,3.7l0.5,0.3c1.4-1.5,2.7-2.9,4.2-4.5c1.1,1.8,2.3,1.6,3.6,0.5c0.9-0.7,1.9-1.3,2.9-1.8
					c0.4-0.2,1.1-0.2,1.5,0.1c1.4,1.1,2.8,2.4,4.1,3.5l0.5-0.7c0.4,0.8,0.8,1.7,1.2,2.5c-0.4,0.7-0.9,1.5-1.2,2.1
					c0.8,1.1,1.4,1.9,2,2.7c0.2-0.5,0.4-0.9,0.7-1.5c0.3,0.3,0.6,0.4,0.6,0.6c0.6,2.2,1.3,4.2,4.3,3.5c0.2,0,0.8,1.2,1,2
					c0.1,0.7-0.1,1.4-0.1,2c1.5-1.1,3-2.2,4.6-3.4l0.5,0.2c-1.8,3.2-0.3,6.2,0.3,9.2c0,0.2,0.1,0.5,0.3,0.7c2.1,2.1,1.7,4.8,1.7,7.4
					c0,1.2,0.4,2.4,0.6,3.5c-1.8-0.4-3-2-5.4-0.9c-6.8,3.2-13.8,6-20.7,9c-0.6,0.2-1.1,0.6-1.7,1l0.2,0.5c0.5-0.2,1-0.2,1.5-0.4
					c7.2-3.1,14.5-6.1,21.7-9.3c1.2-0.5,2.1-0.4,2.7,0.4c0.9,1.2,1.9,1.2,3.1,0.8c-0.5-0.4-1-0.8-1.5-1.1c1.1,0.3,2.5,0.3,2,2.2
					c-0.1,0.2,0.5,0.6,0.8,1c0.4,0.4,0.7,0.7,1.1,1.1c1.9,1.3,3.9,2.6,5.8,3.9c0.5,0.4,1,0.9,1.9,1.6c-2.7,1-5,2.1-7.4,2.7
					c-1.4,0.4-2.9-0.2-3.4-1.9l1.1-0.6c-0.6-0.5-1.2-0.9-1.9-1.5c-0.1,1.1,0.1,2.2-0.3,2.9c-0.3,0.6-1.3,0.8-2.3,1.4
					c0.2-2.4,0.4-4.2,0.6-5.9c1.6,0,2.9,1.8,3.9-0.1c1.1-2-0.6-2.6-2.1-3.3c-0.4,2.7-2.8,2-4.4,2.7l-0.1,0.4
					c-0.6,0.2-1.2,0.5-1.8,0.6c-1.8,0.2-2,1.8-2.8,2.9c-0.1,0.1,0.8,1.1,1.2,1.2c0.9,0.1,1.9-0.2,2.8-0.4c0.7-0.1,1.3-0.2,2-0.3
					c0.1,0.2,0.2,0.4,0.3,0.6c-0.6,0.4-1.1,1-1.7,1.2c-1.7,0.4-3.5,0.6-5.3,1c-3.6,0.9-7.1,2-10.7,3c-0.5,0.1-1.1,0.5-1.3,1
					c-0.3,0.5-0.6,1.5-0.4,1.8c0.5,0.5,1.4,0.9,2.1,0.9c1-0.1,2-0.6,3.1-0.9c-0.4-0.4-0.8-0.8-1.2-1.3l0.2-0.4
					c0.7,0.4,1.6,0.5,2,1.1c0.6,0.7,0.8,1.7,1.2,2.6c-4.3,1.9-8.3,3.8-12.5,5.4c-0.7,0.3-1.9-0.2-2.6-0.7c-0.7-0.5-1.2-1.4-1.8-2.2
					c0.7-0.4,1.6-0.9,2.4-1.4l0.2,0.4c-0.5,0.3-0.9,0.7-1.5,1.1c1.4,1.7,2.5,0.2,3.7-0.1c-1.8-3.9-1.4-7.8,0.8-8.5
					c-2.5-0.7-5.2-0.9-6.8-3.8l5.3-0.8c-3-2.3-5.1,0.4-7.6,0.9v8.2l-1.5-1.6l-2.4,0.9c-1,0.8-1.8,1.4-2.9,2.2
					c-0.4-0.8-0.6-1.4-1-2.2c-0.1,0.2-0.3,0.6-0.6,0.9c-0.5,0.4-1.5,1.1-1.6,1c-1.1-1-1.2-0.4-1.6,0.6c-0.2,0.4-1.3,0.5-2,0.6
					c-0.4,0.1-1.1-0.1-1.1,0c-0.3,2.1-2.1,1.9-3.4,2.5c-1.5,0.8-3,1.7-4.8,2.7l1.8,1.2c-3.9,1.9-4,1.9-5.9,1.1
					c0.5-1.1,1.1-2.2,1.6-3.3l-0.5-0.3c-0.6,0.9-1.4,1.8-1.8,2.8c-1.4,3.4-2.4,3.6-4.9,0.6l-1.5,1.2c0.4,1.1,0.8,2,1.1,3l-0.5,0.4
					l-2.6-2.6c-0.4,0.6-1.1,1.4-1.8,2.2c-1,1.1-2.1,1.1-3.4,0.2c-0.4-0.3-1.1-0.3-1.8-0.1c2.8,0.6,2.6,3.3,3.8,5.1
					c-1.8,1.2-3.5,2.5-6,1.9c1.7-0.4,1.8-1.3,2.1-2.9c0.5-2.8-1.2-3.2-2.8-4.1c-2.7-1.6-5.4-3.2-8.2-4.5c-2-0.9-2.6-2.1-2.3-4.1
					c0.4-2.8,0.7-5.6,1.1-8.5c-0.2,2.6,0,5.2,1.7,7.5c0.2-0.4,0.6-0.9,0.6-1.4c-0.1-1.5,0.8-2.2,2-2.6c0.3-0.1,0.6-0.4,1-0.6
					c1.8-0.8,1.2-1.6,0-2.3c-1.5-1-3.1-2-4.5-3c-0.6-0.4-1-1-1.5-1.6l0,0l3.3-1.8l0.2,0.2c-0.8,0.7-1.6,1.3-2.4,2l0.4,0.7
					c0.9-0.4,1.7-0.8,2.6-1.3c1.4-0.8,2.8-1.8,4.2-2.5c7.1-3,13.7-6.9,21-9.3c0.6-0.2,1.4-0.3,1.9-0.1c2.4,1.2,4.7,2.5,7.4,4
					c0.2-0.4,0.5-0.9,0.7-1.4c0.6,0,1.2,0.1,1.6-0.2c4.5-1.8,9-3.7,13.5-5.6c0.4-0.2,0.7-0.5,1.5-1c-0.9,0-1.2-0.1-1.5,0
					c-4.9,2-9.8,3.9-14.7,6c-0.2,0.1-0.2,0.6-0.4,0.9l-2-0.6c0.1-0.7,0.4-1.3,0.4-1.9c0-10.4,0-20.7,0.1-31.1c0-1.1-0.1-2.6,1.8-2.9
					l-1.1,1.7l0.3,0.3l18.1-7.4c0.6,1.1,1.1,1.9,1.5,2.7l0.3-0.1c-0.1-1.1-0.2-2.2-0.4-3.3c-0.1-0.3-0.5-0.7-0.8-0.8
					c-4.4-1.8-8.9-3.4-13.4-5.2c-0.5-0.2-0.7-0.8-0.9-1c-0.9-0.1-1.7,0-2.3-0.2c-3.2-1.2-6.4-2.6-9.6-3.9c-0.4,1.5,0.1,2.2,1.3,2.8
					c1.8,0.8,3.5,1.6,5.1,2.8c-3.1-0.8-6.2-1.6-9.2-2.4c0-1.5,0-3.5,0-5.4c0-0.8,0.3-1.6,0.5-2.6c-1.4-0.6-2,0.5-2.8,1.8
					c-2.2-2.4-4.7-2-7.3-0.7c-0.7,0.4-1.6,0.5-2.4,0.8l0,0c0.1-0.2,0.1-0.4,0.2-0.4c3-0.5,3.9-2.4,3.7-5.3
					c-0.2-3.7-0.1-7.4-0.1-11.1h0.6v13.7h0.4V26h-0.3v11h-0.4V25.2h-0.2c-0.1,0.6-0.1,1.2-0.2,1.8h-0.2c-0.1-0.6,0-1.3-0.2-1.8
					c-0.1-0.4-0.5-1-0.9-1.1c-3.4-0.6-6.7-1.2-10.2-1.7l-0.1,2.2l-1.8,0.2l1.2-0.7l-2.1-0.6v5.3l-0.3,0.1c-0.2-0.4-0.4-0.8-0.5-1.2
					c-0.1-3.2-1.6-5.3-4.6-6.3c-1.6-0.5-3.2-1-4.7-1.7c-0.8-0.3-1.6-0.9-2.4-1.4V66h-0.2c-0.2-17.1-0.5-34.3-0.7-51.8
					c-1,0.6-1.5,0.9-1.9,1.1c-0.1-0.6-0.1-1.2-0.1-1.8c0-1.1,0-2.2,0-3.3l0.5,0l0.3,1.1c0.3-7,6-7.9,11.1-9.8c-0.7,1.1,0.8,2-0.2,3
					c0.4,0.3,0.8,0.8,1.1,0.8c2-0.3,4-0.6,6-1.1c0.4-0.1,0.7-0.7,1-1.1c-0.5-0.2-0.9-0.5-1.4-0.5c-0.9,0.1-1.9,0.3-2.6,0.4
					c0.5-0.8,1.1-1.5,1.6-2.4c0,0.1-0.1,0.5,0.1,0.7c0.2,0.3,0.6,0.8,0.9,0.7c0.5,0,1.3-0.2,1.4-0.6c0.8-1.7,0.8-1.7,2.2-1.1
					l-0.6,1.1l2.1,0.6l1.3-2l0.4,0.3l-0.8,1.2l3.8,0.8l0.2-0.7l-1.3-1c5.5-0.2,12.9,1.9,16.3,5l0.6-1.6c0.5,1.4,0.9,2.2,1,3.1
					c0.2,1.2,0.2,2.4,0.3,3.6c0,0.1,0.3,0.2,0.4,0.2c0.3,0.1,0.7,0,0.8,0.1c0.6,1.6,1.4,3.2,1.5,4.8c0.2,5.3,0.1,10.6,0,15.9
					c0,0.9-0.4,1.8-1,2.7c-0.4-0.8-0.7-1.6-1.1-2.5c-0.2,0.1-0.6,0.2-0.6,0.3c-0.1,9.8-0.2,19.7-0.3,29.6c0,0.1,0.1,0.2,0.2,0.4
					c1.2,0.2,1.8,0,1.9-1.5c0.1-0.8,0.7-1.6,1.1-2.4l0.7,0.1c0.2,0.7,0.5,1.4,0.7,2.1c1.1-0.4,2.1-0.7,3.2-1.1
					c1.7-0.6,3.4-1.2,5-1.9c0.5-0.2,0.7-1,1.4-2c0,2.7,0.1,5,0,7.2c-0.1,1.8,0.8,2.6,2.3,2.9c2.4,0.6,4.8,1.1,7.3,1.4
					c-1.5-0.4-2.9-0.9-4.4-1.2c-1-0.2-1.2-0.7-1.2-1.7c0.2-3,0.4-5.9,0.3-8.9c0-0.5-1.2-1.1-1.8-1.6l0,0c0.4-0.2,1.2-0.2,1.2-0.5
					c0.3-1.2-0.4-2.7,1.1-3.5c-0.5-0.8-1-1.7-1.6-2.6c0-0.1,0.4-0.6,0.4-1.1c0-7.2,0-14.3,0.1-21.5c0-3.2,0.2-6.3,0.7-9.5
					c0,0.9,0,1.7,0,2.6c-0.2,2.5,0.2,2.9,3,2.7c0.6-2-1.3-4.8,2.1-6c0.2,0.9,0.5,2,0.5,3c0.1,9.7,0.1,19.4,0.1,29.2
					c0,6.5,0.1,12.9,0.1,19.4c0,1.3,0.4,1.8,1.6,2.1c3.5,0.9,7,2,10.3,2.9c-0.2-2.7-0.4-5.4-0.6-7.7c0.5-0.7,1-1,1-1.4
					c0.1-1.2,0.2-2.5,0-3.6c-0.4-2.3,0.7-3.3,2.9-3.7c0.2,5.3,0.5,10.6,0.7,15.9c0,1.1-0.2,2.2,1.1,3.1c0.4,0.2,0.3,1.3,0.4,2.2
					l-1.2-0.8c-0.5,1.9,0.8,2.1,2,2.6c1.5,0.6,2.8,1.4,4.2,2.1c1.1,0.6,2.2,1.2,3.3,1.9c5.6,1.9,11.6,2.4,17.6,4.1
					c-0.1-1.6,0.6-2.1,2.2-1.7l-1.2,0.8c1.7,2.1,4.2,1.5,6.3,2.3l1.4-3.9l-1.2,0.6l-0.2-0.2c0.3-0.2,0.5-0.4,0.8-0.6
					c0.3-0.3,0.8-0.6,0.8-0.8c0-1.6-0.1-3.2-0.2-4.9c0-0.8-0.1-1.7,0-2.4c0.3-3.1,0.8-6.1-0.3-9.2c-0.7-1.9-0.1-4.2,0-6.2
					c0-0.4,0.3-0.9,0.6-1.1c2.9-1.9,6-3.4,9.6-3v2.4c0.4-0.7,0.5-0.9,0.5-0.8c0.8,0.4,1.5,0.8,2.5,1.3v-2.6l-3-0.2
					c4.4-0.9,8.6-0.3,12.7,1.6c-0.6,0-1.1,0-1.7-0.1c-2.1-0.6-2.4-0.4-2.2,2l4.8-0.2c-0.5-0.9-0.8-1.3-1-1.8c3,1.3,3.3,1.7,3.2,5.1
					c-0.2,4.6-0.5,9.2-0.7,13.8c-0.1,1.2,0.5,2.7-0.1,3.5c-1.2,1.9-0.8,3.7-0.8,5.6c0,0.5,0.6,1,0.7,1.5c0.1,1.1,0.2,2.3-0.1,3.3
					c-0.8,2.2-0.8,4.1,0.1,6.3c0.4,0.9,0.5,2.2,0.1,2.9c-1.3,2.5-0.7,5-0.7,7.9l1.1-0.9c-0.2,2.9-0.4,5.6-0.7,8.3h-0.1v-4.4
					c-0.8,2.2-0.6,5.6,0,7.1c0.3,0.7,0.2,1.5,0.3,2.2c0,1.3,0.1,2.6,0,3.9c-0.2,2.5-0.6,5-0.9,7.5c-0.1,0.6,0.1,1.2,0.5,1.8v-4.2
					c-0.1,1.8,1,3.8-0.4,5.6c1,0.7,2.1,1.4,3.2,2.2h-5.2c0.8,0.7,1.6,0.8,2.1,1.3c1.5,1.4,2.1,1.6,4.4,0.7c-1.1-0.4-2.3-0.9-3.1-1.1
					c0.4-0.2,1-0.6,1.6-0.9c1.2,0.9,2.4,1.7,3.9,2.8c-0.1-1.1-0.1-1.9-0.2-2.6c1.5,1.1,3,2.3,4.7,3.6c-0.7,0.2-1.3,0.3-1.8,0.6
					c-0.4,0.2-0.7,0.6-1,1c0.5,0.1,1.1,0.3,1.5,0.2c1.2-0.5,2.3-1.1,3.6-1.8v3.6c0,9.9,0,19.7,0,29.6c0,3.1,0.2,3.2,3,4.4
					c3.2,1.4,6.2,3.1,9.6,4.7c-1.7,0.7-3.2,1.3-4.6,2c-1.3,0.6-2.5,1.3-3.8,1.9c-0.6,0.2-1.6,0.5-2,0.2c-1.5-1.1-2.9-0.6-4.4-0.3
					c-2,0.4-4,0.9-5.6,1.4c0.2,1.4,1,2.8,0.5,3.7c-0.4,0.9-1.9,1.3-2.7,1.8c-0.4-1.6-0.5-2.8-1-3.9c-0.1-0.3-1.3-0.5-1.9-0.3
					c-1.1,0.4-2.1,1.3-3.3,1.5c-1.5,0.3-2.3,0.8-2.1,2.5c0,0.2-0.2,0.4-0.7,0.7c-0.1-1.1-0.2-2.2-0.2-3.1c-2.5,2-0.9,3.5,1.5,5.1
					c-0.6,0.2-1.3,0.6-2.3,1c-2.9-1.1-4.6-0.4-6.7,3.1c-0.5-0.4-1.2-0.8-1.4-1.3c-0.8-1.9-1.6-2.2-3.4-1.1c-1.1,0.7-2.1,1.4-3.4,0.3
					c3-3.2,6-6.3,9.3-9.8c-1.5-0.6-2.6-1-3.5-1.3c-0.9,0.9-1.6,1.7-2.3,2.5c-1.7,1.7-3.3,1.8-5.1,0.3c-2.2-1.9-4.5-3.8-6.8-5.6
					c-1.4-1.1-2.9-2.1-4.4-3.1c-2.9-2.1-5.8-2.1-8.9-0.6c-1.6,0.7-3.4,1-4.9,1.9c-2.7,1.6-3.4-1.1-5.1-1.9c0.7,0.8,1.4,1.5,1.9,2.1
					c-2.1,1.4-5,0.4-7,2.6c-6.1-3.1-12.3-6.2-18.5-9.4c-0.1,0.2-0.2,0.4-0.4,0.6c0.7,0.5,1.4,1.1,2.2,1.5c6.7,3.5,13.4,7,20,10.5
					c0.2,0.1,0.4,0.3,0.6,0.5l-3.2-1l-0.2,0.4c1.5,0.8,3,1.6,4.5,2.4c-1.9-0.6-3.9-1.1-5.7-2c-1.8-0.9-3.2-2.7-5.1-3.2
					c-2.9-0.9-5.6-3.1-9-2c-2.1,0.7-2.3,1.2-0.9,3c0.1,0.2,0.3,0.4,0.5,0.5c-4.2,2.7-5.6,2.8-8.4,0.7c2.1-0.6,4.1-1.2,6.2-1.7l0-0.7
					c-1.1-0.1-2.3-0.5-3.4-0.3c-2.3,0.4-2.6,0.1-4.1-2c-0.5-0.7-1.1-1.4-1.6-2l-0.4,0.3c0.2,0.3,0.5,0.7,0.8,1.1l-2,0.7l0.6,0.6
					l-0.6-0.9c-0.5,0.5-0.9,1.1-1.5,1.8c-5.1-2.4-10.3-5-15.5-7.5l-0.4,0.4c0.4,0.4,0.7,0.9,1.1,1.1c10.8,5.4,21.7,10.7,32.5,16
					c0.6,0.3,1.3,0.4,2,0.4c1.6,0.1,2.6,1.1,2.5,2.8c-0.9-0.1-1.9-0.2-3.2-0.3c0.6,0.8,1,1.3,1.4,1.8c-1.3,0.2-4.5-1.3-4.6-2.4
					c-0.1-0.5,0.5-1.1,0.8-1.9c-8.5-4.1-17.3-8.4-26.4-12.9c0.1,0.8,0.2,1.2,0.2,1.5c-0.8,0.1-1.4,0.2-2.1,0.2
					c-0.5,0-1.3-0.1-1.4-0.4c-0.5-1.6-1.6-0.8-2.1-0.4c-0.6,0.4-1.6,0.9-1.1,2.3c0.4,1.2-0.1,2.7-0.1,4.1c-0.1,5.5-0.2,11-0.3,16.5
					c0,1.1,0.3,1.7,1.5,2.3c0.8,0.4,1,2,1.6,3.2c1.5,0.2,3.9-1.5,5.2-4.2c-1.1,0.3-2.2,0.6-3.3,0.9v-7c1.5,0.7,2.7,1.3,3.9,1.9
					c0.3,0.1,0.5,0.5,0.7,0.6c2.8,0.6,2.6,2.7,2.6,4.8c0,1.7,0.5,3.4,0.8,5.1c0.1,0.4-0.1,0.8-0.2,1.2c1.5,1.5,3.2,3.1,4.8,4.8
					l-0.4,0.5l2.2-0.1c-0.1,1.2-3.8,2.5-6.8,2.4c1-1.4,0.9-3.5-0.3-4.5c0.8,0.1,1.4,0.1,2,0.1l0.2-0.3c-0.9-0.7-1.8-1.3-2.4-1.8
					c-1.4,1.1-2.3,2.1-3.4,2.8c-1.4,0.8-2.9,1.4-4.4,2.1l-0.4-0.6c1.8-2.6,3.6-5.2,5.6-8.1c-4.9,1.4-9.5,2.8-14.4,4.2
					c2.2-2.1,4.2-3.9,6.3-5.9c-1.4-1.2-2.1-3.1-4.4-1.9l-0.3-2.7c0.2,4-3.4,4-5.7,5.4c-0.9,0.6-1.9,1-2.9,1.4
					c-0.2,0.1-0.4,0.1-0.5,0.1c-4.1-0.6-7.5,1.8-11.2,2.8C216,214.9,215,214.9,214.1,213.7L214.1,213.7L214.1,213.7L214.1,213.7
					L214.1,213.7z M237.3,4.3l2.1,0.5l0.2-0.7l-4.1-1.4l-0.3,0.6C235.9,3.7,236.6,4,237.3,4.3l-1.8,0.1L235.4,5l4,1.3l0.2-0.6
					C238.8,5.3,238.1,4.8,237.3,4.3z M207,5.5L206,7l0.5,0.5c1.2-1.2,3.3-0.7,4.4-2.7c-0.5-0.1-0.7-0.2-0.9-0.1
					C209,4.9,208,5.2,207,5.5c0.9-0.4,1.9-0.8,2.8-1.3c0.4-0.3,0.6-0.8,0.9-1.3l-0.5-0.4c-1.1,0.4-2.2,0.6-3.2,1.1
					C206,4.1,205.3,4.9,207,5.5L207,5.5L207,5.5z M231.1,3l-2.5,0.3v0.8l5.7,1.2l0.4-0.4c-0.4-0.4-0.8-1-1.2-1.2
					C232.7,3.3,231.9,3.1,231.1,3l3.5,0.3c-0.8-1.6-3.7-2.3-6.1-1.5C228.5,1.8,231.1,3,231.1,3z M308.3,173.9
					c0.9-1.5-0.4-1.9-1.3-2.7c-0.1,0.6-0.2,1.1-0.3,1.4c-1.4-0.5-2.6-1-3.9-1.4l-0.2,0.4c1.3,0.9,2.6,1.8,3.8,2.8
					c0.9,0.7,1.3,0.4,1.8-0.3c0.2,0.3,0.3,0.7,0.5,0.8c1,0.2,2,0.2,3,0.3c-0.5,0.5-0.9,0.9-1.3,1.3c0.9,0.6,1.8,1.2,2.7,1.8
					c0.9,0.6,1.8,1.1,2.4,1.6c-0.2-1.1-1.2-2.8-0.7-3.6c0.6-1.2,2.4-1.7,4-2.8c-0.9-0.8-1.6-1.5-2.5-2.2c-1-0.8-1.3-1.6-0.3-2.7
					c0.4-0.4,0.5-1.1,0.8-1.7l-0.9-0.7c-0.5,0.7-1.1,1.3-1.6,2c-1.5-1.2-3.2-2.5-5-3.9c-1.2,1.7-1.2,2.2,0.8,3.7
					c0.8,0.6,1.7,0.9,2.5,1.5c0.6,0.4,1.1,0.9,1.7,1.4l-0.3,0.4l-5.2-2.8l-0.3,0.4l1.8,1.6c-0.9-0.4-1.7-0.8-2.4-1.4
					c-1.4-1.2-1.4-1.2-2.2-0.2c0.9,0.8,1.8,1.6,2.7,2.4C309.1,172.1,309.5,173,308.3,173.9L308.3,173.9L308.3,173.9z M277.4,85.4
					c-2.5-3.1-3.6-2.4-4.5-0.3c0-0.3,0.2-0.6,0.1-0.9c-0.1-0.5-0.2-1.2-0.5-1.3c-0.3-0.2-1,0.2-1.3,0.5c-0.8,0.6-1.3,1.4-2.1,1.8
					c-2.8,1.4-3.2,4.3-3.8,6.7c-0.3,1.3-0.4,2.9-0.7,4.4c-0.1,0.3,0.1,0.7,0.1,1l0.4,0.2c0.8-1.3,1.5-2.7,2.3-4
					c0.4-0.7,0.9-1.6,1.6-1.8c2.2-0.8,2.8-1.6,2.7-4.1c0-0.3,0.4-0.6,0.7-1.1c0.4,4.9,2.7,9.3,0.3,14.1c1.8-1.1,3.1-5.4,2.4-7.2
					c-1.1-2.8-0.5-5.3,0.9-8.2c0.4,1.7,0.9,2.9,0.8,4.1c-0.1,1.2-0.9,2.3-1.4,3.4l0.5,0.2c1-1.8,1.9-3.5,2.8-5.1
					C278.3,87.2,277.9,86.3,277.4,85.4c1.4,0.9,2.9,1.8,4.3,2.8c-0.4,0.7-0.6,1.2-0.8,1.7c0.9,0.1,1.5,0.1,2.1,0.3
					c0.6,0.2,1.2,0.7,1.8,1.1l0.3-0.4c-0.7-0.6-1.5-1.2-2.5-2.1c-0.2-1.4-3-3.8-5-3.9C277.7,84.8,277.6,85.2,277.4,85.4L277.4,85.4
					L277.4,85.4z M223.3,9.8l3.8,3c-0.9,0.3-1.8,0.5-2.7,0.9c-0.5,0.2-1.3,0.7-1.4,1.1c-0.1,1.6-0.3,3.3,0.3,4.6
					c0.2,0.5,2.3,0.3,3.6,0.4c0.3,0,0.6-0.4,1-0.6c-0.3-0.2-0.6-0.5-1-0.6c-1-0.1-1.9-0.1-2.9-0.2l-0.1-0.5c0.9-0.4,2-1.2,2.5-1
					c1.7,0.9,2.2-0.3,3.2-1.3c0.3,0.9,0.6,1.7,0.9,2.5c1.7,0.2,3.1-0.3,4.3-1.5c0.2-0.2,0.6-0.4,0.9-0.4c2.3-0.2,3.7-1.8,5.2-3.2
					c0.2-0.2,0.6-0.2,1.4-0.3c-0.9,0.9-1.4,1.5-1.9,2l0.2,0.5c0.8-0.3,2.1-0.5,2.2-1c0.3-0.9,0.3-2.5-0.3-3.1
					c-1.4-1.3-3-2.4-4.8-3.2c-1.9-0.9-3.9-1.9-6-0.1l-0.7-1.6l-2.4,2.6c-2.5-2.1-4.2-2.3-6.3-0.8C222.7,8.6,223,9.2,223.3,9.8
					c-1.2-0.2-2.5-0.3-3.8-0.6c-1.8-0.4-4.6,1-5.4,2.7c1.8,1.6,3.4-0.1,5.1-0.4c0.4-0.1,0.9-0.4,1.2-0.3
					C222,12,222.6,11.7,223.3,9.8L223.3,9.8L223.3,9.8z M333.2,140.7c0-0.2,0-0.5,0-0.7c2-0.3,4-0.5,6-0.9c0.6-0.1,1.2-0.6,1.8-1
					c-0.4-0.4-0.6-1-1.1-1.3c-0.5-0.4-1.1-0.6-1.7-0.9c-1.3-0.6-2.1,0.1-2,1.8c-1-1.4-1.6-1.1-2.2,0.3c-0.8,1.9-1.6,2.1-3.4,1.1
					c-1.4-0.8-2.8-1.5-4.2-2.2c-1.6-0.8-3.2-1.5-4.8-2.2l-0.3,0.5c0.9,0.7,1.8,1.4,2.7,2.1c-0.6,3.4-1.9,6.8-0.6,10.5
					c-0.2,0.8-0.4,2-0.7,3.4c1.5-0.6,2.6-1,3.6-1.4c-1,1.1-2.5,1.7-1.9,3.5c1,2.6,2,5.1,3.1,7.6c0,0.1,0.5,0.1,0.8,0.1
					c-0.6,2.2-0.1,3,3.8,5.2l0.7-1.8l0.7-0.1c0.9,2.5,1.8,4.9,2.8,7.5c-3.9,0.4-7.3,0.8-10.7,1.1l-0.1-0.6c0.6-0.1,1.2-0.2,1.8-0.4
					c0.7-0.2,1.4-0.5,2.1-0.7c2-0.6,2.5-2.2,0.9-3.7c-1-0.9-2.2-1.7-3.5-2.7c-1.9,2-3.6,3.8-5.7,6c1.5,0.3,2.4,0.5,3.2,0.6l0.2,0.5
					c-3.6,1.1-7.1,2.3-8.8,6.1c2.3,4.5,6.4,7.3,10.7,9.9c-0.6-0.7-1.2-1.4-1.9-2.1c1.6,0.4,4.4-1.4,4.6-3.1c0.3-2.1,1.7-3.2,3.3-4.2
					c-0.9-3.2,2.1-4,3.3-6.2c0.5,1.8,0.8,3.2,1.1,4.6l0.5-0.1v-1.8h0.5c0,0.6,0,1.1,0,1.7c0.1,1.7-0.1,3.6,0.5,5.1
					c0.6,1.3,2.2,2.2,3.5,3.4c-0.4-4,0.5-8-0.5-12.4c-0.6,0.7-0.9,1.1-1.2,1.4c-1.2-1.6-2.3-3.1-3.4-4.5l0.4-0.2l4.7,3
					c0.1-1.1,0.1-1.9,0.1-2.6c0-7.3,0-14.6-0.1-21.9c0-1.2,0.6-1.8,1.6-2.1c0.8-0.2,1.6-0.4,2.4-0.6
					C340.6,146.2,337.3,142.5,333.2,140.7L333.2,140.7L333.2,140.7L333.2,140.7z M222.5,143.8l0.2,0.6c0.8-0.2,1.6-0.4,2.4-0.8
					c1.3-0.5,2.5-1.2,3.8-1.8c11.4-4.8,22.9-9.5,34.3-14.3c0.5-0.2,0.8-0.6,1.2-0.9l-0.3-0.5c-6.3,2.6-12.6,5.1-19.2,7.9v-12.7
					c-1.7-0.1-2.4,0.5-2.3,2.1c0.1,0.9,0,1.9,0,2.9v2.9l-0.6,0v-6.7l-0.7-0.2c-1.4,1.7,0.2,4.4-1.7,6.1c0.1-1.8,0.2-3.4,0.3-5
					c-2.5,0-0.9,2.4-2.2,3.2c-0.2-0.8-0.3-1.5-0.6-2.6l-2.7,1.9c-0.4-0.1-0.9-0.4-1.2-0.2c-2.7,1.3-5.4,2.5-8,4
					c-1.9,1-2.2,3.9-0.9,5.7l0.3-2.1c0.8,1.9,1.4,3.6,2.1,5.3l0.6-0.2c-0.3-1.8-0.6-3.6-0.9-5.8c0.7,0.9,1.5,1.5,1.6,2.2
					c0.2,1,0.1,2.2,0.1,3.2c0,0.1,0,0.3,0,0.4c0.3,0.8,0.6,1.6,0.9,2.4c-0.9,0.4-2.1,1-3.4,1.6C224.7,142.9,223.6,143.4,222.5,143.8
					L222.5,143.8L222.5,143.8z M321.5,64.1l-0.2,0.8c1.8,0.9,3.5,1.9,5.3,2.6c3.4,1.3,6.9,0.9,10.4,0.3c2.4-0.4,4.8-1.2,7.2-2
					c1.7-0.6,1.8-1,1.9-2.3c-1.5,1.4-4.2,1.6-5.4,0.2c1.1-0.6,2.2-1.2,3.5-1.9c-1.6-2-3.4-1.2-5.2-0.8l1.4-1c-1-0.1-2,0.2-2.9,0.2
					c-1,0-2.4,0.8-2.5-1.1c0-0.2-0.8-0.3-1.3-0.3c-0.3,0-0.7,0.5-0.9,0.4c-2.8-1.1-5.4,0.2-8,0.8c-3.2,0.7-3.4,1.2-2.6,4.2
					L321.5,64.1L321.5,64.1L321.5,64.1z M246.3,119c-1.8-0.8-3-1.5-4.3-2.1l-0.3,0.6l2.9,1.5l-0.1,0.6c-0.6-0.1-1.2,0-1.8-0.2
					c-2.3-1.1-4.7-1.8-7.2-0.6c-0.6,0.3-1.4,0.5-2,0.8c-3.5,1.9-7.6,2.3-10.9,4.7c-2,1.4-4.2,2.6-6.2,3.9c-0.3,0.2-0.3,0.9-0.5,1.4
					c1.7,0.2,0.7,1.5,0.9,2.1c1.2,0.2,2.2,0.4,2.8,0.5c1.3-1.2,2.3-2.4,3.6-3.3c0.7-0.5,1.8-0.3,2.6-0.6c5.6-2.4,11.2-4.8,16.8-7.3
					C243.9,120.7,244.9,119.9,246.3,119L246.3,119L246.3,119L246.3,119z M265.2,65.7l0.6,0c0-0.3,0.1-0.6,0.1-0.8
					c0.1-11.5,0.2-23,0.2-34.5c0-0.6-0.6-1.3-0.7-1.6c0.4-0.6,1.5-1.4,1.4-2c-0.2-1.6-1.4-2.5-3.6-2.5c0.1,1.5,0.3,2.9,0.3,4.4
					c-0.1,5.9-0.2,11.9-0.2,17.8c0,0.5,0.2,1,0.3,1.4c0.4,1.4,1.2,2.7,1.2,4.1c0.2,4,0.1,8.1,0.2,12.1
					C265,64.6,265.1,65.1,265.2,65.7L265.2,65.7L265.2,65.7z M238.3,200.9v-39.2l-0.6-0.1c-0.3,1.6-0.9,3.1-0.9,4.7
					c-0.1,6.7,0,13.4,0,20.1v14.9L238.3,200.9L238.3,200.9L238.3,200.9z M333.2,111.3V81.6c3-0.5,5.7-0.9,8.5-1.4l0-0.2
					c-2.8,0.3-5.6,0.5-8.5,0.8c0-2.9,0-5.4,0-7.9c0-1.3-0.6-2.9,1.7-3.4c-2-0.5-2.6,0.1-2.6,2.2c0,18.6,0,37.2,0,55.7
					c0,0.4,0.1,0.9,0.2,1.8c1.2-2.6-0.7-5.6,1.6-7.4c-0.2-0.1-0.9-0.2-0.9-0.3c-0.1-3.2,0-6.3,0-9.5l5.9-0.9l-0.1-0.4
					C337.2,110.8,335.3,111,333.2,111.3L333.2,111.3L333.2,111.3z M220.3,144.2c0-2.9-0.1-5.9,0-8.9c0-1.4-0.4-2.3-1.9-2.4l0.2,1.2
					h-1.8c0.3,2.8,0.6,5.6,0.8,8.4C217.9,144.6,217.9,144.6,220.3,144.2L220.3,144.2L220.3,144.2z M348.2,163.7
					c1.6-0.6,3.1-1.3,4.6-1.7c1.2-0.3,1.6-1,1.3-2.1c-0.2-0.9-0.8-1.8-1-2.4c-1.8,0.7-3.1,1.2-4.9,1.9V163.7L348.2,163.7
					L348.2,163.7z M246.2,14.2l-0.8-0.2c-0.1,0.2-0.4,0.5-0.4,0.8c-0.1,5.1-0.1,10.3-0.1,15.4c0,0.5,0.4,1.1,0.6,1.6
					c0.2-0.5,0.7-1.1,0.7-1.6C246.2,24.8,246.2,19.5,246.2,14.2L246.2,14.2L246.2,14.2z M294.9,139.2c-1.3,4.6-0.8,9.2-0.4,13.9
					C295.9,148.5,295.2,143.8,294.9,139.2z M259.1,100.2c0.5-0.4,1.3-0.7,1.3-1c0.1-3.2,0-6.3,0-9.7c-0.7,0.4-1.3,0.5-1.3,0.7
					C259.1,93.4,259.1,96.6,259.1,100.2L259.1,100.2L259.1,100.2z M265.1,157.9c4.9-1.6,5.7-2.6,4.5-5.8c-2.3,0.1-1.1,2.3-2,3.6
					c-0.1-1-0.2-1.8-0.3-2.6C265.1,154,264.9,154.6,265.1,157.9z M256.2,91.9l-0.5-0.3c-0.4,0.5-1.1,1-1.2,1.5
					c-0.1,2.8-0.1,5.6-0.1,8.5l0.5,0.3c0.4-0.5,1.1-1.1,1.2-1.6C256.3,97.4,256.2,94.7,256.2,91.9L256.2,91.9L256.2,91.9z
					 M294.6,157.2c-0.4,4-1,8,0,12C295.6,165.2,295.5,161.2,294.6,157.2z M244.9,63.2c0.4,1.5,13.7,6,17.8,5.7
					C256.8,67,250.9,65.1,244.9,63.2z M226,174.6c3.8-1.3,4.1-1.7,3.2-5.3C225.7,170.2,225.6,170.6,226,174.6z M340.6,135.9l0.5-0.3
					c-0.3-0.6-0.4-1.5-0.8-1.7c-2.4-1.1-4.8-1.9-7.1,0.4c0.7,1.4,1.6,1.6,3.1,0.6c0.5-0.4,1.5-0.1,2.3,0.1
					C339.3,135.2,339.9,135.6,340.6,135.9L340.6,135.9L340.6,135.9z M271.6,179.7c-3.3-2.4-7.6-1.6-9.5,0.5c0.7,0,1.3,0.2,1.7,0
					c1.3-0.9,2.4-0.8,3.7-0.1C268.8,180.7,270.3,181.3,271.6,179.7L271.6,179.7L271.6,179.7z M331.5,184.8l2.2,1.4
					c1.2-1.5,2.3-2.7,3.4-4C335.8,181.1,333.9,182,331.5,184.8L331.5,184.8z M252,93.2c-0.9,1.4-1.4,3.1-1.4,4.9
					c-0.1,2.7,0.4,4.3,1.4,4.8V93.2z M285.2,145.2c-2.9,1-3.3,1.8-2.3,5C285.8,149.5,286,149,285.2,145.2z M270.5,162.4
					c-5.3,1.5-8.2,3.1-8.1,4.5C267.3,165.3,270.1,163.8,270.5,162.4z M280.1,97.9l-0.8-0.1c-0.1,1.4-0.3,2.9-0.3,4.3
					c0,0.2,1.1,0.8,1.6,0.6c1.3-0.4,2-4,1.2-5.4c-0.7,1.1-1.4,2.1-2.3,3.5L280.1,97.9L280.1,97.9L280.1,97.9z M290.4,100.2
					c-1.6,0-2.7,0.1-2.3,2.1c0.1,0.5-0.2,1.1-0.2,1.7c0,0.6,0.2,1.2,0.3,1.8c0.6-0.4,1.5-0.8,1.7-1.3
					C290.2,103.1,290.2,101.7,290.4,100.2z M316.6,133.2l-0.2,0v27.2h0.2V133.2L316.6,133.2z M227.6,20.3h-5l-0.4,0.5
					c0.4,0.5,0.8,1.5,1.4,1.6C225.7,22.8,227.4,21.9,227.6,20.3z M342.8,161.3c1.8-4.3,3.7-8.9,5.6-13.5
					C345.8,152.1,343.2,156.4,342.8,161.3z M215.1,144.6v-6.2c-0.8,0.8-2.1,1.4-2.2,2.1c-0.2,1.2,0.4,2.5,0.7,3.9L215.1,144.6z
					 M221,2.7l-0.1,1l6.8,0.6c0.4-1.3,0-1.8-1.2-1.8c-1.3,0-2.6-0.1-3.9-0.2C222.1,2.3,221.6,2.5,221,2.7L221,2.7L221,2.7z
					 M246.8,165.5c2.5-0.7,2.9-1.9,1.9-5C247.2,161.2,246.6,162.8,246.8,165.5z M343.7,139.8c1,1.1,1.7,1.9,2.5,2.7
					c0.2,0.2,0.7,0.1,1,0.1c0-2,2-1.6,3.4-2.8L343.7,139.8L343.7,139.8z M262.1,159.1c2.4-0.5,2.5-0.9,1.8-4.6
					C261.7,154.8,261.4,155.4,262.1,159.1z M214,12.9c-1.4,1.2-3.1,1.7-2.4,3.4c0.2,0.7,1.4,1,2.4,1.7V12.9L214,12.9L214,12.9z
					 M232.6,167.8c-2,0.7-2.8,2.4-2.4,5.1c2.6-0.3,0.5-2.9,1.8-3.9c0.1,1,0.1,1.9,0.2,2.8l0.4,0L232.6,167.8L232.6,167.8
					L232.6,167.8z M357.1,180c0.2,0.7,0.2,1.4,0.5,1.7c1.1,1,2.2,2,3.5,2.9c0.3,0.2,0.9,0.1,1.3,0.1c-0.1-0.5-0.1-1.1-0.5-1.4
					C360.5,182.3,359,181.3,357.1,180L357.1,180L357.1,180z M275.2,163.3l-0.3,0v11.5h0.3V163.3z M261.3,80.5
					c-1.5-0.1-3-0.9-2.9,1.2c0,2.1,0.4,4.1,0.6,6.2c0.1-0.5,0.1-1,0.1-1.5c0-1.4-0.6-3,1.5-3.7C260.9,82.5,261,81.4,261.3,80.5
					C261.3,80.5,261.3,80.5,261.3,80.5z M290.2,142.9c-1.9,0.6-2,1.1-1.5,4.9C290.7,147.2,291,146.1,290.2,142.9z M231,55.3l0.3,0
					v-21H231V55.3L231,55.3L231,55.3z M304.7,149c2.4-1,4.4-1.9,6.5-2.9C309.6,145,305.6,146.7,304.7,149z M246.1,161.8
					c-1.9,0.4-2.3,1.7-1.4,4.7C246.4,165.9,246.6,165.1,246.1,161.8z M223.6,175.7c1.8-0.5,2-1.5,1.4-4.7
					C223.4,171.7,223,172.9,223.6,175.7z M249.7,164.2c1.8-0.1,2.2-1.4,1.4-4.6C249.3,160,249,161.1,249.7,164.2z M260.8,155.7
					c-2.1,0.6-2.6,2.2-1.6,4.8C261.3,159.8,261.5,159.2,260.8,155.7z M341.1,139.4c-1.6,0.1-2.7,0.6-2.5,2.3
					c0.1,0.6,0.8,1.1,1.2,1.6c0.4-0.5,0.9-1,1.1-1.5C341.1,141.1,341,140.3,341.1,139.4L341.1,139.4L341.1,139.4z M280.3,151.2
					c1.9-0.6,2.3-1.8,1.5-4.5C279.8,146.9,279.8,147,280.3,151.2z M307.2,135.9c-1.9,0.5-2.5,2.1-1.4,4.5
					C307.6,139.7,307.8,139.1,307.2,135.9z M303.2,137.5c-1.9,0.7-2.3,2.2-1.6,4.8C304,141.3,302.8,139.3,303.2,137.5z M235.3,18.9
					c2.6-0.2,4.2-1.5,4.2-3.5C238.6,17.2,235.1,15.7,235.3,18.9z M254.6,112.9c1.8-0.8,2-4.4,0.3-6.4
					C254.8,108.9,254.7,110.8,254.6,112.9z M258.8,111.5c1.9-0.9,2.1-2.3,1-5.6C258.1,107.7,259.2,109.6,258.8,111.5z M220.4,19.5
					c-1.8-0.4-3.5-0.8-5.3-1.1v3.2c0,1.7,0.7,2,2.6,1.2l-1.7-0.5l0.9-1.6l-1.4-1H220.4z M256.8,82l-0.8-0.4
					c-1.1,0.4-2.5,0.8-2.3,2.4c0.1,0.5,1.1,0.8,1.7,1.3C255.4,85.3,256.8,82,256.8,82z M252.3,83.4c-2.3,0.7-2.7,1.5-1.8,3.6
					C252.7,86.4,252.8,86.2,252.3,83.4z M264,20.9l-0.6,0.5c0.1,0.6,0.1,1.7,0.5,1.9c0.9,0.4,2,0.4,3,0.5c0.1-0.3,0.2-0.6,0.3-0.9
					C266.2,22.2,265.1,21.6,264,20.9z M233.3,179.7c-1.8-0.9-5.6,0.6-6,2.5C229.4,181.4,231.2,180.6,233.3,179.7z M276.2,99.4
					c-1.6,4.2-0.9,8.6-0.7,12.8L276.2,99.4z M303.9,148.7l-0.5-0.7c-1.6,0.9-3.1,1.9-4.7,2.8l0.4,0.6
					C300.9,150.9,302.5,150,303.9,148.7L303.9,148.7L303.9,148.7z M331.7,136.3c-0.9-2.1-2.5-2.2-4.9,0c1.3-0.3,2.7-0.9,2.5,1
					L331.7,136.3L331.7,136.3L331.7,136.3z M265.8,179.5c-0.6,0.9-1.1,1.4-1,1.8c0.1,0.6,0.7,1.1,1.1,1.6c0.5-0.4,1.5-0.9,1.5-1.4
					C267.3,181,266.5,180.5,265.8,179.5L265.8,179.5L265.8,179.5z M287.4,144.6c-1.8,0.2-2,0.9-1.2,4.1
					C287.7,148.4,287.9,148,287.4,144.6z M309.5,135c-1.9,0.5-2.2,1.6-1.4,4.5C310.4,138.5,308.9,136.6,309.5,135z M212.8,19.5
					l0.4-0.6c-0.7-1.6-2.4-1.4-3.9-2.1c0,0.8,0.1,1.5,0.4,2c0.1,0.1,1-0.2,1.4-0.4L212.8,19.5L212.8,19.5L212.8,19.5z M233.8,19.5
					l-0.1-0.8h-5c0.1,0.4,0.3,1,0.4,1C230.7,19.7,232.3,20.2,233.8,19.5L233.8,19.5L233.8,19.5z M317.5,168.1
					c0.8,0.1,1.2,0.3,1.7,0.3c0.5,0.1,1,0.1,1.5,0c0.5-0.1,1-0.3,1.5-0.5c-0.1-0.3-0.2-0.8-0.3-0.8c-0.5-0.1-1,0.1-1.6,0.1
					c-0.5,0-1-0.1-1.9-0.1C318.4,167,318.1,167.4,317.5,168.1L317.5,168.1L317.5,168.1z M291.4,153.5c-2.9,0.6-4,1.5-3.9,2.9
					C288.6,155.2,290.6,155.5,291.4,153.5z M275.7,147.5c-1.7,3-0.5,6.3-0.8,9.5C275.2,153.8,275.5,150.7,275.7,147.5z M339.6,129.7
					c-0.5,1-1,1.7-1.4,2.4l3.2,0.4l0.1-0.5C341,131.4,340.6,130.9,339.6,129.7L339.6,129.7z M250.8,114.7c2.3-1,0.9-2.8,1.1-4.3
					c-0.6,0.2-1.2,0.6-1.3,1C250.5,112.3,250.7,113.3,250.8,114.7L250.8,114.7L250.8,114.7z M282.3,157.8l0.5,0.7
					c1.1-0.8,2.9-0.7,3.4-2.3l-0.4-0.6C284.6,156.3,283.4,157,282.3,157.8L282.3,157.8L282.3,157.8z M246.3,131.8
					c0.8-1.3,1.6-2.5,2.3-3.7C245.9,129.3,245.4,130.3,246.3,131.8z M308.5,124.3c1-1.5-0.1-1.9-0.9-2.3c-0.5-0.2-1.3-0.1-1.9-0.1
					l-0.1,0.8L308.5,124.3z M222.5,184.5c1.3-0.9,3.1-0.6,3.4-2.7C224.4,182.3,222.7,182.1,222.5,184.5z M303.9,141
					c1.5-1.1,0.9-2.7,0.8-4.1C302.9,138,303.8,139.6,303.9,141z M336.3,90.3l0.1,0.3c2.6-0.5,5.3-1,7.9-1.5l-0.1-0.5L336.3,90.3
					L336.3,90.3L336.3,90.3z M335.4,57.8l2-0.2c-0.1-0.7-0.1-1.5-0.4-2.1c-0.1-0.3-1-0.1-1.6-0.2V57.8L335.4,57.8L335.4,57.8z
					 M309.9,138.5c1.4-0.7,1.6-3.2,0.5-4.7C310.2,135.5,310.1,136.9,309.9,138.5z M212.8,21.8c0.3-2,0-2.2-3.4-2.2l-0.3,0.5
					L212.8,21.8L212.8,21.8L212.8,21.8z M287.1,126.1c0.1,1.2,0.8-0.2,1.5-0.4c0.4-0.2,0.8-0.4,1.1-0.6c-0.2-0.3-0.4-0.7-0.7-0.7
					c-0.5,0-1.1,0.1-1.5,0.4C287.3,125,287.2,125.6,287.1,126.1C287.1,126.1,287.1,126.1,287.1,126.1z M223,172.4l-0.9-0.1l-0.3,4.1
					l0.9,0.1C222.8,175.1,222.9,173.8,223,172.4L223,172.4L223,172.4z M217.9,20.6v0.5l3.5,1.2l-0.2-2.1L217.9,20.6L217.9,20.6
					L217.9,20.6z M247.1,20.5h-0.2v11.5h0.2V20.5z M228.8,21.9l3.9-1.3C230.2,20.2,228.9,20.6,228.8,21.9z M345.4,76.2l0.2,0v-5.1
					l-0.2,0V76.2z M208.8,16.2l-3.4,1.3l3.2,1.1C208.7,17.7,208.7,17.1,208.8,16.2L208.8,16.2L208.8,16.2z M300.8,138.9l-0.7,0v3.7
					h0.5C300.6,141.4,300.7,140.2,300.8,138.9z"/>
				<path class="st1" d="M179.9,154.2c-0.2,0.6-0.6,1.1-0.7,1.7c-0.1,0.9,0,1.9,0,3c-1-0.2-1.9-0.4-2.8-0.6
					c-0.4-2.7-0.8-5.5-1.1-8.4l-0.6,0.1v15.9l-0.2,0.1c-0.1-0.4-0.2-0.7-0.2-1.1c-0.1-4.7-0.2-9.4-0.4-14.1c0-0.6,0.1-1.1,0.2-1.7
					c0.6-3.7-0.2-5.2-3-6.6c-1.6,0.4-2.6,0.7-3.7,0.9l-0.1-0.6l1.9-0.5c-0.6-0.6-1-1.4-1.6-1.7c-4.2-2.1-8.5-4.1-12.7-6.2
					c-0.9-0.4-1.7-1-2.7-1.6c6.4-2.7,12.7-5.3,19-8l-0.3-0.7c-7.1,2.8-14.2,5.5-21.8,8.4c-0.2,10.2,0,20.9,0.5,31.7
					c1.3,0.5,2.8,1.1,4.1,1.7c0.4-4.1,0.4-7.8,0.3-11.8c1.7,0.8,3.4,1.2,4.7,2.2c1.1,0.8,1.8,2.2,2.8,3.6l0.5-2.2
					c1.3,1,2.6,2,3.9,2.8c0.7,0.4,1.5,0.6,2.3,0.7c1.4,0.1,2.2,0.7,2.2,2.2c-0.1,3.1,0,6.2,0,9.4c-3.6-1.8-7.4-3.7-11.2-5.6
					l-0.3,0.6c4.4,2.4,8.7,4.7,13.1,7l0.1,0.5c-1.3,0.3-2.6,0.7-3.8,1l-0.3-0.6c0.6-0.3,1.2-0.7,1.9-1.1c-2.5-1.1-4.4-3.3-7.5-3.3
					c-0.6,0-1.1-0.7-1.7-0.9c-0.7-0.2-1.5-0.3-2.3-0.1c1.1,0.5,2.3,0.9,3.3,1.4c0.4,0.2,0.8,0.9,0.7,1.1c-0.2,0.5-0.8,1.1-1.2,1.1
					c-0.7,0-1.6-0.2-2.2-0.7c-1-0.8-1.8-1.8-2.7-2.7c-0.7,0.8-1.3,1.5-1.9,2.3c-0.1-1-0.2-1.9-0.3-2.9c-1.1,2.4-0.6,3.4,1.9,6.1
					c-2.5-1.3-4.9-2.1-6.1-4.8l2.3,0.5l0.2-0.4l-4-1.6l0.1-0.5c1.2-0.3,2.3-0.5,3.7-0.8c-0.7-1.1-1.2-2-1.9-2.7
					c-0.3-0.3-1.2-0.1-1.7,0.1c-1.6,0.4-3.3,0.8-5.2,1.2l0.1,0.6c-1.6,0.1-3.2,0.3-4.9,0.5c0.4,5.5-1.3,10.7,0.6,15.8
					c-2.7,0.4-5.1-0.3-6.9-3.1c0.3-0.4,0.6-0.9,1-1.4l1,0.8c1.5-0.8,1.4-2.2,1.4-3.6c-0.1-3.5-0.1-7,0-10.6c0-0.8-1.9-2.1,1.4-2.5
					c-4-2-7.2-3.6-10.8-5.4c0.5,2.8-1.8,5.5,1.3,7.4l0,0c-0.3,0.4-0.8,0.7-0.9,1.1c-0.2,1.2,0.6,2.6-1.1,3.5
					c-0.3,0.1-0.2,1.1-0.2,1.6c0,1.7,0,3.4,0,5.2c-1.9,0.5-2.4-0.6-2.7-1.9c-0.2-0.8,0-1.7,0-2.5c0-14.9,0.1-29.8,0-44.7
					c0-0.6,0.6-1.8-0.8-1.8l0.1,0.1c0.2-0.6,0.6-1.2,0.7-1.9c0.2-2,0.1-3.9-2.2-5c-1.5-0.7-2.8-1.8-4.3-2.7
					c-0.1,0.6-0.2,1.2-0.3,1.8c-0.9-1.6-0.6-2.8,0.9-3.5c0.3-0.2,0.8-0.3,1-0.6c1.3-2.5,3.1-1.1,4.7-0.5c2.3,0.8,4.8,1.2,6.8,3
					c0-1.3,0.2-2.7-0.1-3.9c-0.4-1.8,0.5-2.3,1.8-2.9c0.6-0.2,1.1-0.6,1.9-1c0.3,0.8,0.6,1.6,1,2.3c0.3,0.6,0.8,1.3,1.4,1.4
					c2.3,0.4,4.6,0.7,7.3,1c-4.1,1.6-7.4,4.4-11.8,4.1c-0.7,0.6-1.4,1.2-2.2,1.8c-0.2-0.8-0.3-1.5-0.5-2.5c-1.4,0.8-2.8,1.4-4.3,0.5
					c0.8-0.5,1.6-1,2.7-1.7c-2-0.6-3.7-0.9-5,0.5c-0.3,0.4-0.3,1-0.5,1.6c0.5,0,1,0.2,1.5,0.1c0.5-0.1,0.9-0.4,1.4-0.6l-0.5,2.2
					l3.4-0.4l0.3,1.5l0.5,0.4c0.3-0.5,0.7-1.1,1-1.6l0.2,1.5c3.9-1.7,7.6-3.2,11.2-4.8c3.3-1.5,6.6-3.1,9.9-4.7
					c0.9-0.5,1.6-1.3,2.3-2.2c1.2-0.4,1.8,0.1,1.7,1.4c-0.2,3-0.6,6.1-0.5,9.1c0,3.1,0.4,6.3,0.9,9.5c0.1-0.5,0.1-1,0.1-1.5
					c0.1-6,0.1-12,0.1-18c0-1,0-2,1.4-1.3c0.1,0,0.3,0,0.4-0.1c1.6-1,3.1-2.1,4.8-2.9c6.3-2.9,12.8-5.6,19.1-8.5
					c4.2-2,8.3-4.3,12.7-6.6c-2.9-1.4-5.8-2.8-8.8-4.2c-0.2-0.1-0.5,0-0.7,0.1c-2.3,1-4.6,2-6.8,3.2c-0.6,0.3-1,0.9-1.4,1.3
					c-0.5-1,0.5-1.7,1.5-1.9c2.3-0.7,2.9-2.1,2.7-4.4c-0.2-1.9,0.1-3.9,0.2-5.9l0,0c0.2-0.7,0.6-1.4,0.6-2.1c0.1-4.2,0-8.3,0.3-12.5
					v13.5l0.6,0.3c0.3-0.5,0.9-1,0.9-1.5c0.1-6.7,0.1-13.3,0-19.9c-0.1-3.9-0.4-7.8-0.6-11.6c-0.1-0.9,0-1.8-0.2-2.8
					c-0.1,2.1-0.2,4.2-0.4,6.4h-0.2c0-1.6,0.1-3.2,0-4.8c-0.1-0.9,0.9-2.2-1.6-2.1c-2.1,0-4.6-0.7-6.9-1.1
					c-3.7-0.7-7.5-1.5-11.1-2.5c-2.1-0.6-4-1.9-6.1-3c-0.1,0.5-0.1,1.1-0.1,1.6c-0.1,18.7-0.1,37.3-0.2,56c0,1.1-0.5,2.2-0.9,3.3
					l5.4-1.8c0.1-1.1,0.2-2.2,0.4-3.8c0.7,0.8,1.6,1.4,1.5,1.7c-0.7,2.9,1.5,4.5,2.8,6.4c0.1,0.2,0.2,0.3,0.4,0.4h-1l-0.4,0.4
					c0.6,0.7,1,1.7,1.7,2.1c0.5,0.3,1.5,0,2.6-0.1c-1.3-1.1-2.1-1.8-2.9-2.5c1.7,0.7,3.3,1.3,5.5,2.1c-3.6,1.5-6.9,2.9-10.2,4.3
					l-0.3-0.7l4-1.8l-3.1-1.7l0.2-0.4l1.9,0.5c0.5-2.1,0.1-3.9-1.3-5.5c-0.4-0.4-1.3-0.7-1.8-0.6c-1.9,0.5-3.6,1.1-5.5,1.7
					c0.7,2.3,0.5,5,2.1,7c-0.8,0.5-1.9,1.7-3.1,1.9c-1.1,0.2-2.4-0.7-3.7-1.2l-0.6,1.3l-0.2-0.4l-8.5,2.2c0.2-3.1,0.4-6,0.7-8.8
					c0.1-0.5,0.8-1.1,1.3-1.4c0.6-0.4,1.4-0.5,2.2-0.8c1.5-0.5,2.9-1.5,4.1,0.5c0.1,0.2,0.7,0.2,1.4,0.5c-0.7-3.8,2.4-3.9,4.4-5.4
					c-0.7,0.2-1.4,0.5-2.1,0.7c-1.6,0.3-3.3,0.7-4.9,0.7c-0.8,0-1.4-1.2-2.3-1.6c-1.5-0.7-3-1.5-4.6-0.2c-0.5,0.4-1.3,0.2-2.1,0.1
					c2.3-1.1,4.6-2.2,7.4-3.5c-2.6-0.9-4.8-1.4-7.1-0.1c-1.6,0.8-3.3,1.4-4.9,2.3c-0.4,0.2-0.6,1-0.9,1.4c-0.6,0.9-1.3,1.8-2.1,2.5
					c-2.5,2.4-2.5,5.4-2.3,8.5c-0.6,0.1-1.3,0-1.8,0.3c-4.8,2-9.7,4.1-14.5,6.1c-0.2,0.1-0.3,0.4-0.7,1c1.2-0.3,2-0.5,2.7-0.8
					c2.2-1,4.3-2,6.4-3c2.6-1.2,5.2-2.4,7.8-3.5c-0.1,2,0.3,4.3-2.2,5.3c-0.3,0.1-0.5,0.4-0.8,0.4c-3.2,0.2-5.7,2.1-8.4,3.6
					c-0.6,0.3-1.5-0.1-2.6-0.1l0.9,2.4l-0.3,0.4c-1.9-1.1-3.8-2.2-5.9-3.5c-0.2,0.9-0.6,1.8-0.6,2.7c0,10,0,20,0,29.9
					c0,2.6-0.2,5.2-0.4,8c-0.1-1.7-0.4-3.2-0.2-4.7c0.2-1.4-0.3-2-1.4-2.5c-2.4-1.1-4.8-2.4-7.2-3.5c-0.4-0.2-0.9-0.3-1.6-0.5
					c0,2.4-0.1,4.7,0.1,6.9c0,0.6,0.9,1.1,1.5,1.5c1.3,0.9,2.2,4.1,1.4,5.4c-0.2,0.3-0.8,0.5-1.2,0.5c-0.5,0-1.1-0.3-2-0.7
					c0,2-0.1,3.7,0.1,5.5c0,0.4,0.7,0.9,1.1,1.2c1.1,0.9,2.3,1.7,3.4,2.5l0.1-0.1c-3.6-1.6-7.2-3.3-10.8-4.9
					c-0.6-0.3-1.2-0.9-1.7-1.3l0,0l1.6,0.3c0-2,0.1-3.9-0.1-5.8c-0.1-0.6-0.9-1.4-1.5-1.7c-3.9-1.8-3.9-1.8-3.8-6.1
					c0-0.4,0.1-0.7,0.1-1.3l5.6,2.4v-5.7l0.5,0c0,0.8,0.1,1.6,0.1,2.3c0,4.6-0.1,9.2-0.1,13.8c0,2.9,0.4,3.4,3.5,4.1
					c0.1-0.8,0.2-1.5,0.2-2.2c0-5.6-0.2-11.2-0.1-16.9c0-1.4,0.5-2.8,0.8-4.2l-2.7-1.9c1.2,0.3,2.3,0.9,3.3-0.8
					c-0.6-0.4-1.2-1-1.9-1.4c-1.3-0.6-2.8,0.5-2.7,1.8c-2.9-1.6-5.8-3.2-8.7-4.8c-1.4-0.8-2.9-1.5-4.3-2.3c-0.3,0.9-0.4,1.6-0.6,1.6
					c-1.6,0.1-2.4,0.9-2.3,2.7l-0.5,0c-0.5-1.1-1-2.1-1.5-3.2c-1.2-2.9-2.7-3.8-6.2-3.6c-0.5-1.8-1.6-2.7-3.4-2.7
					c0.8-2.6-0.8-3.8-2.9-4.8c9.2-4.2,18.2-8.3,27.2-12.4c7.4-3.4,14.8-6.9,22.2-10.4c0.8-0.3,1.8-0.5,1.3-1.9
					c-0.1-0.3,0.6-1.3,1.2-1.5c1.7-0.8,2.5-1.9,2.1-3.8c-0.1-0.4,0.2-0.9,0.7-1.3c0.1,1,0.2,2,0.3,3.1c0.4-0.1,0.9,0,1-0.2
					c1.2-1.6,3.3-1.5,4.9-2.3c1.1-0.6,1.6-1.2,1.6-2.5c0.2-5,0.4-9.9,0.6-14.9c0-0.6-0.2-1.3-0.7-1.9c-0.3,0.5-0.5,0.9-0.9,1.5
					c-0.8-1.8-0.6-3.1,0.3-4.2c0.4-0.5,0.8-1.3,0.8-2c-0.2-4.3-0.6-8.6-0.8-12.9c-0.2-3.6-0.1-7.2,0-10.8c0-1.2,0.5-2.5,0.7-3.7
					c0.1-1,0.9-2.1-0.5-2.9c-0.3-0.2-0.4-0.9-0.4-1.4c-0.2-3.3-0.3-6.6-0.4-9.9c-0.1-3.1,0-3.1-2.9-4c-0.5-0.1-0.9-0.3-1.6-0.5
					c-0.2,2.8-0.4,5.5-0.5,8.2c-0.2,9.4-0.2,18.8-0.5,28.1c-0.1,3.6-0.5,7.1-0.7,10.7c-0.1,2-0.1,4-0.1,5.9c0.1,3.1,0.3,6.2,0.3,9.3
					c0,0.9-0.3,1.7-0.9,2.5c0-2.9-0.1-5.9,0-8.8c0.1-3.9,0.3-7.9,0.4-11.8c0.3-11,0.6-22,0.9-33c0.1-3.6,0.4-7.1,0.4-10.7
					c0-1.3,0.2-2.7-1-3.9c-1.2-1.2-0.5-2.6,1.2-3.4c-0.2,0.7-0.8,1.9-0.5,2.7c0.6,1.5,2.7,1.9,4.6,1.1c-1.4-0.9-3.6-0.2-4.2-2.3
					c2.2-1.6,6.1-1.1,6.8,0.9l1.5-1.1c-1.8-2-4.2-1.6-6.3-2.2c1.7,0.2,3.4,0.2,5,0.6c2.1,0.5,2.6,2.4,1.5,4.2
					c-0.4,0.7-0.6,1.5-0.6,2.3c0.1,4,0.3,8,0.4,12c0.2,8.2,0.4,16.4,0.6,24.5c0.2,8.3,0.5,16.6,0.7,24.9c0.1,2.5,0.3,5.1,0.4,7.8
					c-4.1,1.8-8.1,3.7-12.1,5.4c-1.6,0.7-2.6,1.3-1.9,3.5c0.5,1.7,0,3.7,0,5.5c0,1,0,2,0.3,3.1c0.2-3,0.4-5.9,0.8-8.9
					c0.1-0.7,0.6-1.6,1.2-1.8c12.4-5.7,24.8-11.4,37.1-17.1c0.6-0.3,1.3-1,1.3-1.6c0.2-5,0.2-9.9,0.3-14.9c0-5.6,0.1-11.1,0-16.7
					c-0.1-4.2-0.3-8.4-0.6-12.6c-0.1-2.7,0.4-4.8,3-6.6c4.2-3.1,8.9-4.1,13.9-5c4.8-0.9,9.5-0.5,14.2,0.1c1.3,0.2,2.5,0.8,3.7,1.2
					c-0.1,0.2-0.2,0.4-0.4,0.6c-2.3,0.3-0.1,1.8-0.9,2.5l3.8,1.1c0.7-1.7,0.3-2.6-1.5-3c-0.5-0.1-1-0.5-1.5-0.7
					c3.2-0.6,5.7,1.3,8,2.8c1.2,0.9,2,3.2,2,5c0.3,12.3,0.4,24.6,0.4,36.8c0,4.3-0.2,8.6-0.2,12.8c0,1.7,0.2,3.4,0.4,5.1
					c0,0.3,0.5,0.6,0.7,0.9c0.2-0.3,0.5-0.6,0.5-0.9c0.1-0.7-0.1-1.4,0-2.1c0.1-0.6-0.6-1.7,0.8-1.7c0.1,0,0.2-0.2,0.2-0.3
					c0.6-3.5,1.1-7,1.8-11.2c2.1-0.4,4.9-0.9,7.7-1.5l0.1-0.4c-2.2-0.3-4.3-0.6-6.5-0.8c0.3-0.4,0.9-0.9,0.8-1.1
					c-1.2-3.2,0.2-6.4,0.1-9.7c-0.2-3.4,0.8-6.9,1.4-10.4v19.5h0.6V41.4h0.5V49h0.5v-7.3h0.5v6.6l0.3,0l0.3-2.5h0.3v6.3h0.4v-6.3
					l0.4,0l0.5,5.8h0.2v-5.7h0.1v7.5c0.4-0.3,0.7-1.6,0.8-3.8c0.2,0.4,0.6,1.8,0.9,1.8c1.6-0.2,0.8-1.6,0.8-2.4
					c0-1.1-0.6-2.3-0.6-3.4c0-1,0.3-2,0.5-3.1l0.4,1.3l0.4,0l0.1-1.8l1.5,1.4c-1.7,2.2-2.4,5-1.5,7.2c1,2.4,0.1,4.6,0.6,6.8
					c0.4,1.5,0.5,3,1,4.5c0.6,1.8,2,1.3,3.3,0.9c1.7-0.6,3.3-1.3,5-2c0.6-0.2,1.2-0.2,1.8-0.3l0,0c-3.7,1.5-7.4,3-11.2,4.4
					c-1.3,0.5-1.9,1.1-1.9,2.6c0.1,10.8,0.1,21.6,0.1,32.4v3.1l1.6-0.3c-0.1,0.2-0.1,0.3-0.2,0.4c-10.2,4.2-20.4,8.5-30.6,12.7
					c-0.2,0.1-0.4,0-0.6,0V97.1c-0.2,0.2-0.3,0.2-0.3,0.3c-0.2,5.7-0.4,11.5-0.5,17.2c0,0.4,0.6,0.8,0.9,1.2
					c-3.2,1.4-6.4,2.9-9.6,4.3c-1.2,0.5-1.7,0.9-1.4,2.5c0.4,2,0.1,4.1,0,6.2c0,0.4-0.7,1-1.1,1.2c-3.3,1.3-6.7,2.4-10,3.7
					c-1,0.4-1.9,0.8-3,1.3c0.4,0.3,0.7,0.6,1.1,0.8c2,1,3.9,2.1,5.9,3c0.7,0.3,1.6,0.2,2.4,0.1c0.9-0.2,1.8-0.9,2.7,0.1
					c0.3,0.3,1.2,0.1,1.6,0.1c0.4,1.4,0.6,2.7,1.2,3.9c0.2,0.4,1.1,0.7,1.7,0.7c1.4,0,3.1-2.1,3-3.7c1.3,0.5,0.9,3.6-0.7,5.1
					l0.3,0.4c0.4-0.3,1-0.5,1.3-0.9c1.2-1.5,1.6-1.6,3.9-1.1c-4.1,1.3-3.2,5.7-5.5,8.3c1.1,0.9,2.2,1.9,3.3,2.8l0,0L179.9,154.2
					L179.9,154.2L179.9,154.2z M168.7,20c0.9-0.8,2.8,0,3.1-1.9C169.4,17.7,168.9,18,168.7,20l-0.4,1.6l0.4,0.3
					c0.8-0.8,2.8,0.4,2.8-2.1C170.4,19.8,169.6,19.9,168.7,20z M163,21.5c-1.1,1.2-3.4,1-3.9,3.1c0.9-0.1,1.7-0.6,2.5-0.8
					C162.9,23.5,163.3,22.7,163,21.5l0-1.6c-3.3,0.8-4.1,1.5-3.7,3C160.6,22.4,161.8,22,163,21.5L163,21.5L163,21.5z M165,20.9
					l-1.4,1.4l0.4,0.5c1-0.3,2.1-0.4,3.1-0.8c0.3-0.1,0.3-1,0.4-1.6c0.3-0.6,0.5-1.1,0.8-1.7c-0.6,0-1.2-0.2-1.8-0.1
					c-0.6,0.1-1.3,0.2-1.8,0.5c-0.4,0.2-0.6,0.7-0.9,1L165,20.9L165,20.9L165,20.9z M181.6,19.1c-1.6,0-1,1-0.9,1.8l5.1,0.7l0.2-2.1
					C184.4,19.4,182.9,19.2,181.6,19.1l4.2,0c-1.6-1.7-3.3-1.2-5.6-1.1L181.6,19.1L181.6,19.1L181.6,19.1z M186.3,34.4
					c1-0.5,2-1.1,3.1-1.5c2.8-1,3.1-1.4,2.9-4.1c0,0,0.1-0.1,0.2-0.1c0.4,0.7,0.8,1.4,1.2,2.1c2.7-2,2.7-3.5,0-4.8
					c-1.8-0.9-3.6-1.8-5.5-2.2c-6.9-1.7-13.7-0.4-20.2,2c-0.4,0.2-0.8,0.5-1.2,0.8c1.2,1.9,3,2.6,5.4,2.1l-0.5-1
					c1.2-0.5,2.2-1,3.3-1.3c0.4-0.1,1.1-0.1,1.5,0.1c0.2,0.1,0.2,0.8,0.3,1.2c0.1,0.4,0.3,0.8,0.4,1.1c-0.7,0.3-1.5,0.8-2.3,1.1
					c-0.6,0.2-1.3,0.6-1.8,0.4c-1.9-0.5-3.9-0.9-5.6-1.8c-1.4-0.7-2.3-0.4-3,0.6c-0.8,1.1-1.4,2.5-1.6,3.8c-0.1,0.3,1.6,1.3,2.6,1.4
					c3.2,0.4,6.5,0.5,9.7,0.8c1.8,0.2,3.4,0.5,4.8-1.5c0.6-0.9,0.8-1.2,0.2-2c-0.2-0.3-0.5-0.6-0.8-1c2.2-0.2,2.9,1.2,2.3,4.3
					l2.5-0.2l-3.9,1.1l0.1,0.4l4.3-0.6l0.1,0.4l-4.6,1.1l0.2,0.7c2.2-0.6,4.5-1.1,6.8-1.7c0.2-0.1,0.5-0.8,0.4-0.9
					C187.2,34.8,186.7,34.6,186.3,34.4L186.3,34.4L186.3,34.4z M74.3,126.9c0.2-0.9,0.4-2.5,0.8-4.1c0.2-0.6,0.5-1.4,1-1.7
					c2.5-1.6,5.1-3.1,7.7-4.8c-2.8-0.9-5.9-1.8-8.9-2.7l-0.5,0.6l1.9,1l-0.2,0.5c-2.1-2.1-3.4,0.1-4.9,0.7c-0.7,0.3-1.6,0.7-1.9,1.3
					c-1.1,1.8-0.3,5.1,1.4,6.5C71.9,125.2,73.2,126,74.3,126.9L74.3,126.9L74.3,126.9L74.3,126.9z M134.2,157.9c0-1.4,0.1-2.9,0-4.3
					c-0.1-1.6,0-3.1,1.9-3.8c1-0.4,1.9-0.9,2.9-1.4c-4.6-3.4-6.1-3.5-10.8-1c-0.2,0.1-0.5,0.2-0.7,0.4c-0.2,0.2-0.4,0.4-0.4,0.6
					c0,2.1,0,4.2,0.1,6.3c0,0.2,0.4,0.3,1,0.7v-5.3l1.9,1.1c-1.4,0.9-0.8,2.3-0.7,3.3C129.5,157.4,132.6,156.5,134.2,157.9
					L134.2,157.9L134.2,157.9z M106.9,125c-0.9,0.2-1.5,0.5-1.7,0.3c-1.9-1.5-4-1.5-5.7,0.2c-0.4,0.4-0.9,0.9-1.4,1
					c-1.2,0.3-2.3,0.5-3.5,0.7c-0.1,0-0.1,0.3-0.3,0.6h2.1l-2,1.7c1.2,0.1,2.3-0.2,3.4-0.2c0.7,0,1.4,0.6,2,1c0.4,0.2,0.6,0.8,1,1
					c0.6,0.2,1.5,0.1,2,0.4c1.3,1.2,2.5,2.6,4,4.2C107.5,132.2,106.8,128.7,106.9,125L106.9,125L106.9,125z M155.3,161.3l0.5,0.2
					c0.4,1.8,0.7,3.7,1.2,6.2c0.2-1.1,0.4-1.8,0.5-2.5c0.2-1.4-0.9-3.6,2.1-3.1c0.3,0.1,0.7-0.5,1.3-0.9c-1-1-1.8-2.1-2.8-2.8
					c-1.8-1.2-2.1-1.1-2.9,0.9c-0.3,0.9-0.4,1.9-0.6,2.9l0.4,0.2L155.3,161.3L155.3,161.3L155.3,161.3z M189,68.3
					c3.6-4.6,8.6-20.9,8.1-23.9C194.5,52,191.7,60.2,189,68.3z M91,119.5c1.7,1.2,1.7,1.2,3.2,0.1c0.2-0.1,0.5-0.1,0.8-0.1
					c0.2,0,0.7,0,0.7-0.1c0.1-0.3,0.1-0.8,0-1c-0.6-1-3-1-4.1-0.7c-1.2,0.4-1,2.3-2.7,2.2c-0.4,0-0.9,1.2-1.3,1.9l2,0.9
					c-0.5-0.9-0.9-1.4-1.4-2.3c1.5,0.5,2.3,0.8,3.5,1.2L91,119.5z M198.2,87.8c3.9-1.7,7.5-3.2,11.3-4.8
					C207.4,82.1,199.1,85.6,198.2,87.8z M179.7,20.9l-0.1-2c-2.1,0.2-4.1,0.3-6,0.5c-0.4,0-0.6,0.8-1.2,1.5H179.7z M172.9,38.8
					l0.1,0.5c2,0,4,0.3,6-0.1l0-0.5l-1-0.5l1-0.9c-2.9-0.5-5.8-0.2-6.2,0.9h2.6v0.2L172.9,38.8L172.9,38.8L172.9,38.8z M169.3,35.4
					v3.7h2.6l0-0.3l-1.3-0.5l1.4-0.3v-2.6L169.3,35.4L169.3,35.4z M109.3,104.3c-1.5,0-2.6,0-3.7,0c-0.4,0-0.9,0.1-1.3,0.2
					c0.2,0.4,0.2,1.1,0.6,1.2c1.2,0.6,1,1.6,1,2.6c0,0.9,0,1.8,0,2.7c0.3-0.2,0.4-0.5,0.4-0.7c-0.1-1.8-0.6-3.8,2-4.5
					C108.6,105.6,108.8,104.9,109.3,104.3L109.3,104.3L109.3,104.3z M180.1,18.5c-1.1-1-6.2-1.4-7-0.7c-0.2,0.1-0.4,0.5-0.3,0.6
					c0.1,0.2,0.4,0.6,0.6,0.5C175.6,18.9,177.7,18.7,180.1,18.5L180.1,18.5L180.1,18.5z M95.8,121.9c-0.1,0.8,0.1,1.5-0.2,1.8
					c-0.4,0.4-1.1,0.5-1.7,0.7l0.3,0.5c0.8-0.5,1.8-0.8,2.3-1.5c0.4-0.5,0.3-1.8-0.1-2.3c-0.3-0.4-1.5-0.3-2.2-0.1
					c-0.4,0.1-1,0.8-1,1.2c0,0.4,0.6,0.9,1,1.3L95.8,121.9L95.8,121.9L95.8,121.9z M149.2,103.4c0.5-0.6,0.9-1.3,1.5-1.6
					c0.6-0.3,0.9-0.2,0.9-0.5V99C149.2,99.1,148.2,100.7,149.2,103.4L149.2,103.4L149.2,103.4z M213,52.8h-0.4v9.5h0.4V52.8z
					 M127.7,144.4l0.2,0.4c4-1.8,8.1-3.5,12.1-5.3l-0.2-0.4C135.8,140.9,131.8,142.7,127.7,144.4L127.7,144.4L127.7,144.4z
					 M192.4,21.1c-0.3,2,0.1,3.2,2.3,3.2C195.3,22.3,195.1,22,192.4,21.1z M168.3,38.9c0.3-2.5-0.2-3.7-1.5-3.7v3.5L168.3,38.9z
					 M179.2,35.7h-6.6C174,36.9,177.9,36.9,179.2,35.7z M196.4,29.1c-1,1.1-2.1,2.3-3.4,3.8c0.8,0.1,1.5,0.4,1.7,0.2
					C195.8,32,196.7,30.6,196.4,29.1L196.4,29.1L196.4,29.1z M183.6,63l-0.1-0.1v13.5h0.1V63z M155.4,25.7c0.9-1,2.9-1.3,2.8-3.6
					C156.7,23.3,155,23.7,155.4,25.7z M145,123.7l1.4,0.9v-2.4c-1.1,0.8-3,0.3-3.1,2.1l1.8,0.5C145,124.8,145,123.7,145,123.7z
					 M198.5,95.1l-0.3,0v6.4h0.3V95.1z M155.2,168.9c1.2-2.5,1-3.5-0.8-3.9C154.7,166.4,155,167.7,155.2,168.9z M180.1,38.3l0.1,0.8
					l4.8-0.9l-0.1-0.8L180.1,38.3L180.1,38.3L180.1,38.3z M68.4,119.2l-0.7-1l-2.3,1.2c0.4,0.4,1,1.1,1.3,1
					C67.4,120.3,67.9,119.7,68.4,119.2L68.4,119.2L68.4,119.2z M182.9,61.3l-0.2,0.1v10.5h0.2V61.3z M182.3,53.9h0.1V43.3h-0.1V53.9
					z M161.8,33.6c-0.8,0.1-1.4,0.1-2,0.3c-0.2,0.1-0.4,1-0.2,1.2c0.3,0.4,0.9,0.6,1.5,0.9C161.4,35.1,161.6,34.5,161.8,33.6
					L161.8,33.6L161.8,33.6z M183,52.6l0.2,0.1v-9.4H183V52.6L183,52.6L183,52.6z M163.7,36.9l1-0.5c-0.3-0.6-0.5-1.3-0.9-1.8
					c-0.1-0.1-0.8,0.3-1.2,0.5C163,35.6,163.3,36.2,163.7,36.9L163.7,36.9L163.7,36.9z"/>
				<path class="st1" d="M120.6,201.4c-4.7,1.9-9.2,3.7-13.6,5.5l-0.2-0.3l1-1.1l-0.2-0.3c-0.7,0.4-1.8,0.8-1.8,1.1
					c0,1.7-1.3,1.7-2.2,2.1c-0.5-0.4-0.9-0.7-1.3-1.1c-0.3,0.4-0.6,1-1,1.3c-0.7,0.6-1.5,1.1-2.1,1.6c-0.5-0.8-0.9-1.3-1.2-1.8
					l-0.7,0.2c0.8,4.3-2.2,0.5-2.9,1.9l1.3,0.6c-3.6,1.4-7,2.7-10.6,4.1c-0.2-0.4-0.4-1-0.7-1.6l-0.8,0.6l1.1,2.1
					c-2.2-0.7-3.8,2.2-6.4,0.4c-0.3,3.2-2.8,3.3-5.7,3.7l1.6-1.1l-0.4-0.6c-0.7,0.5-1.4,1.1-2.1,1.6c-0.6,0.3-1.2,0.6-1.9,0.6
					c-0.6,0-1.1-0.7-1.7-0.8c-0.9-0.2-1.9-0.4-2.6,0c-0.4,0.2-0.3,1.5-0.6,2.8c-2.2,0.8-5,1.8-7.7,2.9c-0.6-0.7-1.3-1.4-2.4-2.5v3.6
					l-0.5,0.2c-0.8-0.8-1.6-1.5-2.7-2.5l0.2,2.7c-2,0.7-4,1.5-6.1,2.2c-1.5,0.5-2.8,0.2-3.9-1.6l2,0.6c0-0.8,0.1-1.5,0.1-2.1
					c0-6.8,0-13.7,0-20.5c0-1.2,0.6-2.4,0.7-3c1.3,0.1,2.2,0.4,2.9,0.1c6.3-2.6,12.6-5.3,18.9-8c12.4-5.3,24.8-10.7,37.2-16
					c1.8-0.8,3.5-1.7,5.6-2.6l-1.9-1.5c1.8,0.3,2.3,1.3,2.2,3c-0.1,2.6-0.1,5.2,0,7.9c0,1.6,0.2,3.2-1.3,4.4
					c-0.2,0.2-0.3,0.7-0.3,1.1c-0.1,2.5,2.3,5,4.2,5.1C115.1,198.5,117.7,199.8,120.6,201.4L120.6,201.4L120.6,201.4z M75.5,208
					c-2.9,0.6-3.1,1.1-2.1,3.7c0.6-0.2,1.2-0.4,1.8-0.6L75.5,208L75.5,208L75.5,208z M89.1,204.5c2.1-0.3,2.8-1.3,2.3-3.3
					C89,201,88.9,202.5,89.1,204.5z M52.2,211.4l-0.5-0.4c-3.4,0.9-4.2,1.8-3.2,3.4c0.8-0.5,1.6-1,2.3-1.6
					C51.3,212.4,51.7,211.9,52.2,211.4z M76,209.7c2.7-0.5,2.8-0.7,2.2-3C76.6,207,75.2,207.5,76,209.7z M51.8,218.3
					c-2.6,0.6-2.7,0.7-2,2.6C51,220.5,52.6,220.4,51.8,218.3z M62.3,216.1c2.7-0.9,3-1.2,2-2.9C62.8,213.9,62.2,214.9,62.3,216.1z
					 M64.6,210.5c-2.6,0.9-2.8,1.1-2.1,3C63.6,212.7,65.4,212.7,64.6,210.5z M62.2,210.5c2.6-0.6,2.8-1,2.1-2.9
					C63.4,208.4,61.7,208.4,62.2,210.5z M51.8,213.3c-1.5,0.3-2.8,0.6-2,2.6C51,215.5,52.5,215.5,51.8,213.3z M101,197.4
					c-2.2,0.7-2.3,0.9-1.7,2.8C100.9,199.9,101.5,199,101,197.4z M91.4,196.1c-1.3,0.5-2.9,0.5-2.2,2.7
					C90.4,198.2,92.1,198.5,91.4,196.1z M100.9,194.6c-1.7,0.3-2.3,1.1-1.8,2.7C100.7,196.9,101.6,196.3,100.9,194.6z M76,206.6
					c2.6-0.6,2.7-0.7,2.2-2.4C76.6,204.7,75.9,205.5,76,206.6z M91.6,193.6c-1.1,0.7-2.8,0.5-2.6,2.7
					C90.3,195.8,92.2,196.2,91.6,193.6z M76,204c2.5-0.4,2.7-0.6,2.2-2.4C77.3,202.3,75.5,202,76,204z M76.2,201.9
					c1-0.7,2.9-0.4,2.1-2.7C77.3,199.8,75.5,199.4,76.2,201.9z M91.4,198.7c-1.2,0.4-2.7,0.3-2.2,2.4C90.3,200.6,92,201,91.4,198.7z
					 M64.7,205.2c-2.5,0.7-2.8,0.9-2.1,2.8C63.4,207.1,65.3,207.3,64.7,205.2z M99,191.6l0.6,0.6l2.3-2.3l-0.5-0.5
					C100.6,190.1,98.6,189.6,99,191.6L99,191.6L99,191.6z M72.9,208c1.3-0.6,2.8-0.5,2.3-2.7C74.2,206.1,72.6,205.9,72.9,208z
					 M88.4,197.4c-2.3,0.5-2.5,0.7-1.6,2.3C87.8,199.3,89.2,199.1,88.4,197.4z M75.3,202.9c-1.1,0.8-2.7,0.7-2.4,2.9
					C74.1,204.9,75.7,205.1,75.3,202.9z M60.5,217.9l0.2,0.6c2.1-0.8,4.1-1.5,6.2-2.3l-0.2-0.5C64.7,216.5,62.6,217.2,60.5,217.9
					L60.5,217.9L60.5,217.9z M51.8,215.5l-2.6,1.9l0.4,0.6C50.7,217.8,52.2,218.1,51.8,215.5z M86.4,202.2c1.2-0.5,2.7-0.5,2-2.3
					C87.1,200.2,86.4,200.9,86.4,202.2z M88.4,194.9c-1.1,0.4-2.5,0.3-2,2.3C87.6,196.8,89.1,196.9,88.4,194.9z M100.9,192.1
					c-1.1,0.2-2.4,0.2-2,2.1C100.2,194,101.5,194.1,100.9,192.1z M72.6,202.4l0.3,0.4c2.3-0.3,2.6-0.6,2.2-2.5
					C74.2,201.1,73.4,201.7,72.6,202.4L72.6,202.4L72.6,202.4z"/>
				<path class="st1" d="M103.2,279c-6.2-3.5-12.4-7-18.6-10.5c1,0.2,1.2-0.3,1.2-1.2c-0.1-1.7-0.1-3.4,0-5.1
					c0.1-1.9-0.3-3.3-2.3-3.9c-0.4-0.1-0.7-0.6-1.1-1c1,0.4,2,0.8,3.1,1.3l0.8-1.5c-0.2,3.7,3.1,3.8,5.1,5.1c1.5,1,3.3,1.7,5,2.5
					l0.6-1.9c0.3,0.5,0.8,0.9,0.7,1.2c-0.6,1.5,0.5,1.9,1.4,2.5c4.4,2.6,8.7,5.3,13.1,7.9c0.8,0.5,1.8,0.5,2.8,0.7l0.1-0.5l-0.9-1.2
					l0.2-0.4c0.6,0.2,1.3,0.5,2,0.8c1.8-1.8,4-3.4,5.3-5.6c1.2-2.1,3.5-2.8,4.8-4.6c0.4-0.5,0.8-1.4,0.7-2c0-4.5-0.3-8.9-0.2-13.4
					c0.1-1.7,0.9-3.3,1.4-5c0.2-0.8,0.6-1.6,0.7-2.5c0.1-1.1,0.1-2.3,0.6-3.4c-0.1,1-0.1,1.9-0.2,2.9l0.4,0.1
					c0.2-0.7,0.3-1.4,0.6-2.5l0.2,1.9l0.3,0c0.2-0.6,0.3-1.1,0.4-1.5c1.1,0.9,2.1-0.1,2.1-0.8c0-2,0.5-3.4,2.7-3.8
					c0.3-0.1,0.5-0.6,1.1-1.2c-0.3,1.8-0.5,3.2-0.7,4.6l0.8,0.2c0.4-1.4,0.7-2.7,1.1-4.3c0.4-0.1,1.1-0.2,1.8-0.3
					c-2.9,0.6-1.5,2.7-1.7,4.4c0.6-0.1,1.2-0.1,1.9-0.2l-0.8-0.7l0.3-0.4l2.2,1.6v-4c-0.8-0.3-1.3-0.5-1.9-0.7
					c0.1-0.1,0.3-0.4,0.4-0.4c0.6,0.2,1.2,0.4,1.9,0.6c0.2,1.2,0.4,2.6,0.5,3.9h0.6c0.2-1.3,0.3-2.6,0.5-3.9l0.3,0l0.5,1.7l1.4-0.3
					c0.2,0.6,0.4,1.1,0.8,2.2l1-2c0.1,1.3,0.2,2.5,0.3,3.8l0.6,0v-3.4l0.7-0.1c0.2,1,0.4,2,0.8,3c0.2,0.5,0.5,1.1,0.9,1.2
					c0.9,0.3,1.9,0.4,3,0.6l0.2-2.8c0.4,1.9-0.2,3.9,2.4,3.7c2.3-1.8-1-2.4-1.3-3.9c2.2,1.1,4.1,2.3,3.2,5.2c-2.4-0.5-4.8-1-7.2-1.5
					l0-0.2l-3.1-0.3l-0.1,0.5c1.7,0.5,3.5,0.9,5.2,1.4c1.4,0.4,2.7,0.7,4.1,1.1c2.6,0.8,3.4,1.8,3.4,4.6c0.1,4.2,0.2,8.4,0.3,12.6
					c0,0.8,0.1,1.5,0.2,2.4c2.9-0.4,5.5-0.8,8.2-1.1c5.4-0.6,10.7-1.3,16.1,0c3.5,0.9,7,1.6,10.4,2.5c-3.1,1.8-6.6,3.8-10.5,4.1
					c-2.2,0.1-3.9,0.9-5.8,1.7c-0.7,0.3-1.6,0.2-2.4,0.3c-0.8,0.7-1.8,1.7-3,2.8c0.4,2.4-1.8,2-3.2,2.2c-0.3,0.9-0.5,1.6-0.7,2.3
					c-0.8,3-2,5.5-5.6,6c-0.9,0.1-1.6,0.9-2.4,1.2c-0.9,0.4-1.8,0.9-2.8,1c-2.6,0.2-5.2-0.2-7.7,0.5c-0.9,0.2-1.9,1.2-3.2,1.2
					c-5.2-0.2-10.4-0.5-15.7-0.8l0.5,1l-1.1-0.1v9.2c-0.6-0.4-1.4-1-2.2-1.6c0.8,0.2,1.2,0,1.1-0.9c0-2.3,0.1-4.6,0-7
					c0-0.3-0.6-0.7-1.2-1.3v6.6c0,0.9,0.1,1.8,0.1,2.7c-1.1-0.7-2.2-1.4-3.4-2.1c0.3-0.3,0.8-0.6,0.8-1c0.2-1.8,0.3-3.5,0.3-5.3
					c0-0.7-0.4-1.6-0.9-2c-3.5-2.2-7-4.3-10.6-6.4c-2.3-1.3-4.6-2.5-7.2-4c0,2.3,0.1,4.4,0,6.5c-0.1,1.2,0.2,2.2,1.1,3l-2.9-1.6
					l1.2,0.2c0-2.7,0-5.2,0-7.7c0-0.4-0.2-0.9-0.5-1.1c-1.2-0.8-2.4-1.5-3.9-2.5v9.3C104.3,279.5,103.7,279.2,103.2,279
					c0.2-0.3,0.7-0.6,0.7-0.9c0.1-1.4,0-2.8,0.2-4.2c0.4-2.7-0.2-4.6-3-5.6c-1.2-0.4-2.2-1.3-3.9-2.3c0,2.8,0.1,5.1,0,7.5
					c-0.1,1.3,0.4,2.1,1.6,2.7C100.3,277,101.7,278,103.2,279L103.2,279L103.2,279z M151.3,255.5c-1.8-1.1-2.2-2.6-1.2-4.6
					c0.6,0.9,1.2,1.7,1.7,2.5l0.4-0.4c-0.6-1.2-1.2-2.4-1.7-3.7c-0.2-0.6,0-1.4-0.1-2.2c-0.1-0.7-0.2-1.6-0.7-2
					c-0.8-0.6-1.5-1.4-3-0.5c-1.9,1.1-3.5-1-2.9-4.3c-2.6-0.3-5.2-0.5-7.8-0.8c-0.1-0.6-0.1-1.1-0.2-1.7l-1.8,0.2v1.6
					c0.6,0.2,1.1,0.4,1.1,0.4c-2.2,1.4-5.2,2.5-6.8,4.6c-1.9,2.6-0.4,5.7,1.4,8.3c-0.7-0.7-1.4-1.4-2.3-2.5c0,1.1,0,1.8,0,2.5
					c0.1,6.4,0.4,12.7,0.4,19.1c0,2.8,2.4,3.9,3.6,5.9c0,0,0.2,0,0.4-0.1l0.5-1.7c2.5,1,4.4,3.1,7.3,3c1.6,0,2.3-0.4,2.1-2
					c-0.1-0.6,0-1.3,0-1.9v-1.9c1,2,0.2,4.6,2.5,5.9l0.7-0.2v-20.2c-2.9,0.3-2.3,2.7-2.1,4.6c0.2,1.9-1.3,4.2,1.1,5.6
					c-0.5,0.7-1.1,1.5-1.6,2.2l-1.3-2.5c1.7-3.4,1.1-7,0.9-10.5c-6.1-0.5-9.7-2.1-10.5-4.6C137.8,258.2,144.4,257.2,151.3,255.5
					L151.3,255.5L151.3,255.5L151.3,255.5z M92.5,264.3c-1.2-2.2-3.9-2.3-5.8-4c0,3.1,0,5.6,0,8.2c0,0.4,0.3,1.1,0.6,1.3
					c2.9,1.7,5.8,3.2,9.2,5.1c0-3.1,0.2-5.9-0.1-8.5c-0.1-0.8-1.6-1.5-2.6-2.1C93.4,263.9,92.7,264.3,92.5,264.3L92.5,264.3
					L92.5,264.3z M171,267.5c1.3,0.3,2,2.9,3.9,1c0.2-1.8-2.8-4.4,1.2-5.5l-0.4-1.4C173.5,262.9,173.7,266.3,171,267.5L171,267.5
					L171,267.5z M142.4,238c-0.1-0.1-0.4-0.5-0.8-0.5c-1.1-0.1-2.3-0.2-3.4-0.1c-0.6,0-1.2,0.3-1.6,0.6c-0.2,0.1,0,1.2,0.1,1.2
					c0.6,0.1,1.2,0.1,1.8-0.1C139.6,238.8,140.8,238.4,142.4,238L142.4,238L142.4,238z M147.2,269.8c1.3-2.2,1.2-4.5,0-5.3V269.8z"
					/>
				<path class="st1" d="M189.9,318.2c3.4-1.6,6.8-3.1,10.1-4.7c4.8-2.4,9.6-4.9,14.3-7.4c1.1-0.6,2.1-1.2,3.5-2v10.6h0.3
					c0-2.9,0.1-5.9,0-8.8c-0.1-1.8,0.2-2.7,2.2-3.4c3-1.1,5.7-3,8.6-4.6c3.7-2,7.5-3.9,11.2-5.9c7.5-4,15-8.1,22.6-12.1
					c2.6-1.4,5.3-2.7,8-4.1c0.5-0.3,0.9-0.8,1.4-1.2l2-0.8c6.7-3.5,13.4-7.1,20.3-10.7c0,3.2,0,6.6,0,10.1c0,0.9,0.3,1.7,0.5,2.9
					c-3.9,2.1-8.2,4.3-12.4,6.5c-19.6,10.4-39.2,20.8-58.9,31.2c-10.1,5.3-20.2,10.5-30.2,15.8c-1.8,0.9-2.8-0.2-4-1.1l0,0
					c0.1-0.6,0.4-1.3,0.4-2C189.9,323.7,189.9,321,189.9,318.2L189.9,318.2L189.9,318.2z"/>
				<path class="st1" d="M316.2,264.3c0.3-1.4,0.7-2.4,0.7-3.4c0-2.4-0.2-4.8-0.6-7.3v8.2H316c0-3.1,0-6.2,0-9.2
					c0-0.5,0.4-1.1,0.7-1.3c1.5-0.8,3.1-1.3,4.5-2.2c1.5-0.9,2.9-2,4.3-3.1c0.2-0.2,0.4-0.5,0.7-0.6c4.6-2.1,9.4-3.9,13.9-6.2
					c15.3-7.9,30.5-15.9,45.8-23.9c1.2-0.6,2.5-1.2,3.7-1.9c1.2-0.7,2.2-1.1,2.9,0.4l1.9-1.5l0.5,0.3c0,3.2,0.1,6.5-0.1,9.7
					c0,0.5-0.8,1.1-1.3,1.4c-10.9,5.8-21.8,11.5-32.7,17.3c-10.4,5.5-20.8,11-31.1,16.5c-4.1,2.1-8.2,4.2-12.3,6.4
					C317,264.1,316.5,264.2,316.2,264.3L316.2,264.3L316.2,264.3z M359.2,230.9l-0.2,0v8.3h0.2V230.9L359.2,230.9L359.2,230.9z"/>
				<path class="st1" d="M310,213.5c-0.6,0.8-1.6,1.5-1.7,2.4c-0.3,2.1-0.3,4.3-0.3,6.4c0,0.7,0.2,1.4,0.3,2.1h-4.8l1,1.3
					c-1.2,0.9-2.3,1.8-3.7,2.8c-2.3,0-1.2-2.3-1.7-3.9c-1.2,0.4-2.5,0.7-3.5,1.3c-2.8,1.7-5.7,2.3-8.9,2.3c-0.5,0-1,0.2-1.5,0.4
					c-1.9,0.9-2.2,0.7-2.2-1.4c0-0.4,0.1-0.7-0.2-1.2l-0.5,3.1l-1.7,0.3c0.2-0.7,0.6-1.5,0.6-2.3c0.1-8.3,0.1-16.6,0-24.9
					c0-0.6-1.2-1.2-1.7-1.7c0.5-0.2,1.4-0.5,2.4-0.9c1.2,1.4,2.4,1.4,3.3-0.2c1.1,0.4,2.4,1.4,3.1-0.8l0.5,2c1.3-0.6,2.5-1.3,4-2
					l-1.9-1.2c4-1.8,8.2-3.6,12.6-5.5c-0.3,1.1-0.6,2.4-0.9,3.5c0.4,1.1,0.8,2.1,0.9,3.1c0.3,2.2,1.6,3.6,4.6,3.6
					c2.4,0.1,4.1,1.3,5.8,2.6c0.3,0.2,0.2,1,0.2,1.2c2,0.8,4,1.5,5.8,2.4c0.7,0.4,1.6,1.1,1.8,1.8c0.3,1.4,1.1,1.9,2.7,1.8
					c-0.2,0.9-0.5,1.6-0.6,2.4l0.1,0c-0.1,0.6,0,1.3-0.3,1.7c-0.7,0.8-1.2,1.7-2.6,1.8c-0.9,0-1.7,1.2-2.6,2c0-0.1-0.3-0.4-0.5-0.7
					c-3,1.5-6,3.1-9.1,4.7c-0.8-4.1-1.5-7.9,1.6-10.2L310,213.5L310,213.5L310,213.5z M286,201c-0.7,1.8-2.1,3.2-1.1,5.5
					c1-1.8,1.9-3.4,2.9-5C287.2,201.3,286.6,201.2,286,201L286,201z M312.1,214.1c-2,0.6-0.9,1.7-0.5,2.5c0.8,1.7,1.8,1.9,2.8,1.4
					C313.7,216.7,312.9,215.4,312.1,214.1L312.1,214.1z M294.3,212.2l0.5,0.4c1.6-2.1,3.1-4.3,4.7-6.4l-0.4-0.3
					C297.4,208,295.9,210.1,294.3,212.2L294.3,212.2L294.3,212.2z M294,222.3l0.4,0.3c1.4-2.2,2.7-4.4,4-6.5l-0.5-0.3
					C296.7,217.9,295.3,220.1,294,222.3L294,222.3L294,222.3z"/>
				<path class="st1" d="M23.9,188.6l-3.2,0.4l0.3-0.5c-1.6-1-3.1-2.1-4.7-3.1l-0.7,0.4c0,8.1,0.1,16.1-0.1,24.2
					c0,2.4,0.7,3.9,2.9,4.7c0.7,0.3,1.3,0.9,2.1,1.3c-2.2,0-4.1-0.1-6.1,0.1c-0.9,0.1-1.7,0.8-2.6,1.2c-1.1,0.5-2.3,1.1-3.5,1.4
					c-1.4,0.4-2.7,0.6-3.9,1.8c-0.9,0.8-2.7,0.8-4.1,1c-0.1,0-0.6-1.1-0.4-1.5c1-1.8,2.1-3.5,3.4-5.2l-0.8,3.4c0.6,0,1,0.1,1.3,0.1
					c2-0.4,3.8-1.5,5.8-1.9c2.2-0.5,2.8-2.9,3.4-4.9c0.2-0.5,0.3-1.1,0.7-1.6l0.7,2.7h0.5c0.1-0.6,0.2-1.1,0.2-1.7
					c0-8.1,0-16.2-0.1-24.3c0-1.8,0.6-3.1,2.2-3.9c1.2-0.6,2.4-1.3,3.6-1.8c1.9-0.8,2.6-2.1,2.6-4.2c-0.1-5.9-0.1-11.9,0.1-17.8
					c0-1.2,1-2.3,1.5-3.5l0,0c-0.8,1.4-0.8,2.7,0,4.2c0.5,0.9,0.4,2.1,0.5,3.1l-1.1-1.8c-0.1,0.9-0.4,1.6-0.4,2.4c0,2.4,0,4.7,0,7.1
					c0,2.6,0.6,3.4,3.1,4.5c0.4,0.2,0.7,0.4,1,0.7c0.5,0.5,1.3,1.7,1.4,1.6c1-0.6,2.6-1.3,2.8-2.2c0.3-2,0-4.1-0.1-6.4
					c0,0,0.5-0.3,0.5-0.7c0.1-0.4-0.2-0.9-0.3-1.4c-1.1,0.6-1.6-0.7-2.5-0.9c-0.7-0.1-1.2-0.9-1.8-1.4c0.6-0.5,1.2-1.1,1.8-1.6
					c0.9-0.8,1.9-1.7,2.7-2.6c1.1-1.1,2.1-2.4,3.2-3.5c1-1,1.4-2.8,3.4-2.8c1,0,6.1,1.4,6.6,2.4c0.1,0.3,0.1,0.6,0.2,0.9
					c0.5,0.9,0.9,1.9,1.5,2.8c0.5,0.6,1.3,0.9,0.4,1.8c-2.4-0.2-3.3-2.3-4.8-3.6c-0.4-0.3-1-0.5-1.5-0.7l-0.3,1.4
					c-0.7-0.3-1.2-2.1-2.5-0.7c-2.1,2.5-4,5.1-5.9,7.6c0.6,0.7,1,1.1,1.4,1.5c-1.1-0.3-1.7-0.1-1.5,1.2c0.3,1.7,0.4,3.4,0.7,5.1
					l-0.6,0v-3.8h-0.4v5.2H37c-1.8,1-3.8,2.2-5.8,3.2c-0.4,0.2-1,0-1.6-0.1c-1.4,4.4-6.1,4.8-9.2,7.3c1.8-0.7,3.7-1.2,5.5-2.1
					c2.1-1.1,3.9-2.7,5.9-3.7c2.2-1.1,5.1-1.2,6.9-2.6c3.5-2.8,8.2-2.7,11.6-5.5c0.6-0.5,1.5-0.6,2.4-0.9l-0.2,1.3
					c0.5-0.3,1.1-0.4,1.3-0.7c1.1-1.8,3-2,4.7-2.7c1.1-0.5,2.3-0.9,3.3-1.5c0.6-0.4,0.9-1.4,1.5-1.8c1.4-0.9,2.9-1.5,4.9-2.5
					l-1.4,1.5L67,165c3.6-1.6,7.2-3.2,10.8-4.8c2.9,3.3,6.9,4.7,10.7,6.6c6.2,3.1,12.4,6.2,18.8,9.4c-1.7,0.6-3.1,1.2-4.6,1.7
					l-0.1-0.2l1.8-1.4c-1.6-0.2-2.3-1.6-3.8,0.2c-1.1,1.4-3.1,1.6-4.7-0.3c0.8-0.8,1.6-1.7,2.7-2.9c-1.8-0.5-3.5-0.9-5.4-1.5l2-0.9
					c-0.4-0.4-0.6-0.7-0.9-0.8c-4.3-1.9-8.6-3.9-12.9-5.7c-0.4-0.2-1.2-0.1-1.4,0.1c-1.6,1.6-3.5,1.9-5.4,1.4
					c-2.5,2.8-5.5,3.7-9,4.2c-2.2,0.3-4.3,1.4-6.4,2.2c-0.3,0.1-0.2,1-0.4,1.8c-0.3-0.6-0.5-1-0.5-0.9l-1.2,1.4c0.7,0.9,1,1,5.3,1.6
					v2.4c-0.4,0.2-1.2,0.6-2,1l0.1,0.4c0.8,0,1.6-0.1,2.3-0.1l0.2,0.7c-1.6,0.5-3.1,1-5.2,1.6c1.5,0.3,2.6,0.5,3.9,0.7
					c-2,0.5-3.7,1-5.4,1.3c-1,0.1-2.1,0.2-2.9-0.2c-1.4-0.7-2.7-0.4-4,0c-1.4,0.5-2.9,0.9-4.5,1.4c0.7,1.7,2,1,2.8,0.7l3.9,2.1
					c-1,0.7-1.8,1.3-2.8,2l0.9,1.4l-2.2-0.1c0.3,1.2-2.2,2.5,0.3,3.9c-1.7,0.4-3.1,1.7-3.4-1c0-0.4-0.9-0.8-1.4-1
					c-0.3-0.1-0.8,0.3-1,0.6c-1.4,2.3-2.4,2.4-4.4,0.5c-0.1-0.1-0.3-0.2-0.1-0.1c-1.1,0.2-1.8,0.3-2.5,0.4c0.1-0.4,0.1-0.9,0.2-1.3
					c0.5,0.1,1.1,0.2,1.8,0.3l0.2-2.7c-1.2,0.4-2,0.6-3.2,1l1.2,1.5c-0.7-0.1-1.3-0.1-2-0.2l0.2-1.7c-0.4-0.1-0.8-0.2-1.2-0.2
					c-0.4,0-0.8,0.1-1.3-0.1l1-0.5c-0.1-0.1-0.1-0.2-0.2-0.2c-2.3-0.7-4.7-1.4-7-2L23.9,188.6L23.9,188.6z M51.6,181.2
					c-0.5,1.9-2.4,1-4,1.2c1,0.9,3.5,0.8,4.1,0.1c1.5-1.9,1.5-3.9-0.1-5.1c-1.1-0.8-2.8,0.1-4.1,2.5
					C48.9,180.3,50.2,180.7,51.6,181.2L51.6,181.2L51.6,181.2z M42.1,187c-1,0.6-1.7,1.1-2.5,1.5c-2.3,1.1-2.5,2.3-0.4,4l1.4-2
					C42.2,190.9,42.7,190.2,42.1,187L42.1,187L42.1,187z M41.1,183.6c-0.8-0.1-1.4-0.2-2-0.2l-0.2,0.5c1,0.6,2.1,1.3,3.3,2.1v-8.6
					l-0.7-0.1C41.4,179.4,41.2,181.4,41.1,183.6C41.1,183.6,41.1,183.6,41.1,183.6z M32.2,188.2c-0.5-0.6-0.8-1-1.2-1.3
					c-0.4-0.3-0.8-0.4-1.3-0.7c2.6-1.2,3.5-2.1,3.1-3.6c-1.8,1.5-3.6,3-5.4,4.4C28.2,188.1,29.8,188.4,32.2,188.2z M57.1,181.4
					c-1.4,0.3-2.9-1.4-3.7,0.6c-0.2,0.4,0.1,1.4,0.5,1.6C55.9,184.6,56,182.4,57.1,181.4L57.1,181.4L57.1,181.4z M75.9,164.7
					l0.7-0.2l-0.2-2l-1.5,0.5L75.9,164.7z"/>
				<path class="st1" d="M195.7,125.7c-1.4-0.3-1.6,0.6-1.5,1.6c0.1,0.8,0.1,1.6,0.2,2.4c-0.8,0.4-1.7,0.8-2.6,1.3
					c3.2,3.4,5.3,3.4,8,0.2c0.8,0.6,1.6,1.2,2.5,1.7c0.9,0.5,1.8,0.9,2.7,1.4c-0.9,0.6-1.6,4.1-0.8,4.7c1.3,1.1,2.4,0.4,3.5-1.3v4.2
					c-0.9-0.5-1.8-0.9-2.6-1.4c-5.1-2.6-10.1-5.2-15.2-7.8c-0.4-0.2-0.8-0.5-1.2-0.5c-0.4-0.1-0.8,0.2-1.2,0.3
					c0.2,0.3,0.4,0.8,0.6,0.9c2.1,1,4.3,1.9,6.5,2.9c0.4,0.2,0.8,0.4,1.2,0.6l-0.2,0.4c-1.5-0.6-2.9-1.4-4.4-1.9
					c-3.7-1.2-7.4-1.1-11,0.5c-1.5,0.7-1.9,0.3-1.9-1.1c0-2.9-0.1-5.9,0.1-8.8c0-0.5,0.7-1.2,1.3-1.5c2.4-1,4.8-1.8,7.1-2.7
					l-0.1-0.7c-0.9,0.1-1.9-0.1-2.6,0.3c-1.6,0.6-3,2-4.6,2.1c-1.5,0.1-3-0.9-4.9-1.6c2.1-1,4-1.4,5.1-2.6c2.8-3.1,6.7-3.8,10.3-5.3
					c8.2-3.5,16.4-6.8,24.6-10.3c1-0.4,2-1,2.6-1.3c-0.4-1.1-0.9-1.8-0.9-2.5c0-7.4,0-14.8,0-22.3c0-3.3-0.1-6.5-0.4-9.8
					c-0.2-1.9,0.8-2.7,2.2-3.2c2.9-1.2,5.8-2.3,8.7-3.5c0.6-0.2,1.3-0.4,1.7-0.8c2.3-2,4.4-0.8,5.8,0.9c0.7,0.9,0.5,2.6,0.7,4.1
					c-2.8-0.3-5.3-2-7.5,0.3c-0.3,0.3-0.2,0.9-0.4,1.5c-1.8,1-3.3-0.2-4.9-1.6c-0.3,1-0.6,1.8-0.9,2.7c-0.9-0.1-2.1-1.3-2.4,1.3
					c-0.1,1.2-0.5,2.7-0.7,4.1c-0.1,1.4,0.6,2.1,1.7,2.6c1.9,0.8,3.8,1.7,5.6,2.6c0.6,0.3,1.2,1.1,1.2,1.6c0.1,4.5,0.1,9-0.2,13.6
					l-0.4-1.2c-1.2,1.8-2.3,0.7-3.3,0.1s-2.6-1.1-3.1-2c-0.5-1.2-0.1-2.8-0.1-4.5c2.3,1.4,4.4,2.7,6.6,4.1c0.5-1.3,0.4-2.1-0.9-2.6
					c-1.2-0.5-2.2-1.3-3.5-1.6c-2.2-0.6-2.7-1.9-2.5-3.9c0.2-1.5,0-3.1-0.3-4.6v12.8H219V76.3l-0.7,0c0.4,8.6-0.9,17.2,0.7,25.7
					l0.7,0c0.1-1.2,0.2-2.5,0.3-4c2.3,1.1,4.6,2.1,6.7,3.2c0.4,0.2,0.6,1,0.6,1.6c0.1,1.9,0.1,3.8,0.2,5.7c0,1.1-0.4,1.8-1.6,1.9
					c-1.7,0.2-3.4,0.4-5.3,0.7c0.1,0.4,0.3,0.7,0.2,0.6c-1.4,0.8-2.6,1.5-4.1,2.3c-0.9-0.9-2-1.9-3.2-3c2.7,0.4,4.6-0.5,6.3-2.3
					c2.2,2.1,3.8,0,5.6-0.9c-0.1-0.2-0.2-0.4-0.2-0.4c-3.3,1.2-6.8-1.5-10.2,0.3c-0.9,0.5-2.1,0.6-3.2,0.9c-0.2,0.1-0.7,0.2-0.7,0.2
					c0.2,2.5-2.2,1.3-3.1,2.1c-1.2,1-2.7,1.6-4.1,2.3c0,0.1,0-0.2,0.1-1.1c-3.6,1.6-7.1,2.9-10.3,4.6c-0.8,0.4-1,2-1.5,3l-0.2-1.7
					c-1.8,0.5-3.7,1-5.6,1.5c0.8,0.5,1.7,1,2.4,1.6c0.3,0.3,0.5,0.9,0.5,1.3c0,1-0.1,2-0.2,3.1c-0.2,2.3,0.4,2.9,3,2.8
					c0.1-2.3,0.2-4.6,0.3-6.9l0.8-0.2c0.5,0.8,0.9,1.5,1.4,2.3l0,0c0.4,0.5,0.7,1,1.1,1.5C195.7,125.4,195.7,125.6,195.7,125.7
					L195.7,125.7L195.7,125.7L195.7,125.7z"/>
				<path class="st1" d="M214.1,213.7c-1.9-0.8-3.8-1.7-5.8-2.5c-0.9-0.3-2.1-0.6-3-0.4c-2.1,0.5-4.2,1.3-6.3,2
					c-0.2,0.1-0.5,0.3-0.7,0.2c-1.8-0.6-3.5-1.2-5.3-1.8c1.9,0.3,1.1-1,0.9-2.3c1.4,1.2,2.4,2.1,3.6,3.1V196
					c0.3-0.3,0.9-1.2,1.8-1.8c1.2-0.7,2.6-1.2,3.9-1.8c0.6-0.3,1.1-0.7,2-1.4c-4.5-1.4-8.6-2.3-13-1.7l0.4-2
					c-1.9-3.2-4.9-4.6-8.5-4.8l1.1,0.3v0.1c-0.9-0.1-1.9-0.2-2.9-0.3c1,2.8-1.6,2.1-2.7,2.9c-0.3,0.2-0.5,0.4-0.9,0.8
					c-2.7-1.2-5.5-2.6-8.4-3.9c-0.6-0.3-1.4-0.1-2.2-0.2l-0.1,0.6l0.9,0.8c-1.6,1.3-1.2,4,0.6,4.9c1.1,0.6,2,1.5,3,2.2
					c0.3,0.2,0.9,0.1,1.3,0.1c0.6,0.1,1.3,0.1,1.8,0.3c2.3,1.2,4.5,2.5,6.8,3.8c0.7,0.4,1.3,0.8,2,1.3c0.2-0.5,0.4-0.9,0.4-0.9
					c0.8,0.6,1.5,1.2,2.3,1.9c0.1,0.1,0.3,0.2,0.5,0.2c4.1,1.1,5.8,3.6,4.8,7.8c0,0.2,0,0.4,0,0.6c0.2,2.4-0.8,3.8-3.2,4.2
					c-0.8,0.1-5-3.2-4.9-3.8c0.2-1.1-1-2.2-1.9-1.8c-1.9,1-2.9-0.4-3.9-1.5c-0.9-0.9-1.5-2.1-2.4-3.4c-2.4,1-4.8,1.9-7.4,2.9l-1-1.4
					l-0.3,0.1l0.8,2c-2.6,0.8-5.1,1.7-7.8,2.3c-0.4,0.1-1-0.8-1.6-1.2l0.3-0.5l-1.6-0.3c-0.6,0.5-1,1-1.5,1.1c-0.2,0.1-1-0.7-1-0.8
					c0.2-0.5,0.6-1,1-1.3c0.5-0.3,1.2-0.3,2.1-0.5l0.1-1.6c0.7,0.5,1.2,0.9,2.1,1.6c-1-2.2,0.2-2.8,1.6-3.4c1.7-0.8,3.2-1.8,5.1-2.8
					l-2.1-1.5c-0.2-4.2-0.6-8.3-0.6-12.4c0-0.8,0-2,1.4-2.5c2.7-1,5.3-2.3,7.9-3.5c0.6-0.3,1.1-0.9,1.6-1.3c1.2,0.8,2.6,1.9,4.2,2.7
					c4.1,2.2,8.3,4.2,12.5,6.2c2.2,1.1,4.5,1.8,7,2.8V177c2.2,1,4.3,1.8,6.1,2.9c0.6,0.4,0.6,1.6,1.1,2.7c-2.1-0.5-3.7-1-5.7-1.5
					c0.3,2.2,0.6,4,0.8,5.8h0.4l0.1-3.4h0.2l0.5,2.7l0.5,0v-2.5c2.9,1,2.9,1,2.5,4.4c-0.1,0.7-0.1,1.4,0.2,2.1
					c0.2,0.4,0.8,0.7,1.3,1c0.5,0.9,1.1,1.9,1.4,2.5c-0.4,0.8-1.1,1.4-1,2c0.2,4.1,0.6,8.1,0.8,12.1c0.1,2,0.8,3.3,2.8,4
					C212.2,212.3,213.1,213.1,214.1,213.7L214.1,213.7L214.1,213.7L214.1,213.7L214.1,213.7z M182.9,181.1c-0.1-3.2-4.2-3.2-9-1.7
					c0.9,1.3,1.8,2.5,3.6,2.2C179.3,181.4,181,181.2,182.9,181.1L182.9,181.1L182.9,181.1z M189.2,206.9l-0.4,0.6
					c-0.2-0.2-0.6-0.3-0.6-0.6c-0.6-1.8-1.3-2.3-2.9-2c0.9,2.1,2.6,3.4,5.2,4.1C189.9,208.1,189.5,207.5,189.2,206.9L189.2,206.9
					L189.2,206.9z M177.4,184.9c0-1.7-1.8-3.2-3.9-3.3C173.4,183.1,173.9,183.5,177.4,184.9z M201.1,188l-0.1,0.4
					c1,0.6,2.1,1.1,3.5,1.9c-0.3-1.2-0.5-1.9-0.6-2.3L201.1,188L201.1,188z"/>
				<path class="st1" d="M198,234.5c-2,1-4.1,2-6.4,3.1c0.4,0.6,0.6,1.2,0.9,1.4c2.9,1.9,5.9,3.8,8.9,5.5c1.4,0.8,1.9,0.2,1.7-1.4
					c1.5,0.2,3-1.8,4.5-0.2c-0.9,0.1-1.8,0.3-3.1,0.5l1.2,1.4c-0.8,0-1.7,0.1-2.3,0.1v3.6c-0.7-0.3-1.3-0.5-1.8-0.7l-0.2,0.2
					c0.8,0.6,1.5,1.2,2.1,1.6c0.7-0.7,1.3-1.2,1.9-1.7c0.5-0.6,0.9-1.2,1.4-1.8c0.2-0.3,0.7-0.6,1-0.6c2.3,0.3,3.8-1.2,5.4-2.4
					c0.7-0.5,0.9-1.2,0-1.9c-2-1.6-4-3.4-5.9-5.1c-0.3-0.3-0.6-0.6-0.7-1c2.5,1.7,5,3.4,7.6,5.1c0.4,0.3,1.2,0.5,1.5,0.3
					c1.9-1.2,1.9,0,1.8,1.3c0,0.2,0.1,0.5,0.1,0.8h1.3c2.1,3.2,5.1,5,8.3,6.3c0.6,0.2,1.4,0,2.1-0.1l0.3-0.6
					c1.3,1.7,2.7,3.5,4.1,5.4c-0.9,0.4-1.4,0.6-2.3,1c0.9,0.5,1.6,0.9,2.6,1.5c-0.8,0.5-1.4,0.8-2,1.1c-2.9,1.3-5.9,2.5-8.7,4
					c-2.4,1.3-4.1,0-5.9-1.1c-2-1.2-3.9-2.7-5.9-4.2c0,1.4-0.4,2.3-2.1,1.4l0.8-2.6c-1,0.2-1.8,0.2-2.4,0.4
					c-0.9,0.4-1.2,0.3-1.2-0.7c0-0.1,0.1-0.3,0-0.3c-1.5-1-1.5-3.6-3.8-3.8c-1.3-0.1-2.7-0.2-3.9-0.6c-0.7-0.2-1.3-1-1.7-1.6
					c-0.6-1-0.7-2.3-2.4-2.3c-0.5,0-1-1.1-1.9-2c0.3,1.6,0.4,2.6,0.6,3.6c-0.6-0.3-1.4-0.2-1.1-1.6c0.1-0.5-1.3-1.5-2.1-2.1
					c-2.1-1.4-4.1-2.8-6.3-4c-1.6-0.8-2.4-1.9-2.4-3.9c0.7-0.2,1.5-0.4,2.6-0.6c-0.8-1-1.5-1.8-2.4-2.9l1.6-1.3
					c0.2,0.7,0.5,1.3,0.7,2c0.6-0.3,1.2-0.5,1.7-0.8c3-1.7,6-3.7,9.1-5.1c0.8-0.4,2.6,0.6,3.5,1.4c1.3,1.3,2.4,2.8,4.3,3.2
					c0.6,0.1,1.1,0.3,1.7,0.5l-1,1.1c-1.5-1.1-2.8-2.3-4.4-3.1c-1.4-0.7-2.5-2.5-4.4-2.3l-0.3,0.6c1.9,1.3,3.8,2.4,5.6,3.8
					c1.6,1.3,4.1,1.6,5,3.8l-0.4,0.6c-1.5-0.9-2.9-1.7-4.4-2.6C199.3,234,198.6,233.2,198,234.5c-0.3-0.4-0.4-1.1-0.8-1.4
					c-0.8-0.8-1.8-1.4-2.8-2.1c-0.4-0.2-0.9-0.5-1.2-0.4c-0.3,0.1-0.7,0.7-0.6,0.9c0.3,0.8,0.9,1.4,1.6,2.5c-1.6,0.3-3.3,0.6-5,0.9
					c1.2,2.2,1.8,2.3,3.8,1.4C194.6,235.6,196.4,235.1,198,234.5L198,234.5L198,234.5z M221.2,253.2c-2.8-1.8-5.6-3.6-8.3-5.4
					l-0.1,0.6l-4.1,0.3c0-0.1,0,0.1,0,0.1c3.4,1.9,6.7,3.9,10.2,5.4c0.9,0.4,2.4-0.8,3.7-1.3l-0.1-0.6l-1.1-0.6L221.2,253.2
					L221.2,253.2L221.2,253.2z M221,247.8c1.8,2.3,3.8,3.4,6.3,3.9c-0.4-0.7-1-1-1.5-1.4c-2.1-1.3-4.2-2.6-6.3-4.1
					c-0.5-0.3-0.7-1-1.2-1.7l-1.3,0.8c1,0.8,1.8,1.5,2.6,2.2l-0.2,0.3c-0.9-0.5-1.7-1.1-3-1.9c1.1,1.7,1.9,3,2.8,4.6
					C219.9,249.3,220.4,248.6,221,247.8L221,247.8L221,247.8z M183.7,237.4l-0.3,0.7c2.9,1.9,5.9,3.8,8.8,5.7l0.5-0.3
					c-0.2-0.4-0.3-1-0.6-1.2c-1-0.6-2.2-1-3.2-1.6C187.1,239.6,185.4,238.5,183.7,237.4L183.7,237.4L183.7,237.4z M229.6,253.5
					l-0.9-0.4c0.2,1.6-0.4,2.3-1.9,2.8c-1.5,0.5-2.9,1.6-4.3,2.4l0.3,0.5c1.9-1,3.9-1.8,5.6-3C229.1,255.4,229.3,254.3,229.6,253.5
					L229.6,253.5L229.6,253.5z M191.2,241.3l0.4-0.6c-2.1-1.4-4.1-2.9-6.1-4.3L185,237C187.1,238.4,189.1,239.8,191.2,241.3
					L191.2,241.3L191.2,241.3z M214.4,256l0.4-0.8c-2.1-1.3-4.1-2.7-6.2-4l-0.2,0.4C210.3,253.1,212.4,254.6,214.4,256L214.4,256
					L214.4,256z M215.6,256.6l-0.3,0.5c1.6,1,3.1,1.9,4.7,2.9l0.3-0.4C218.7,258.6,217.1,257.6,215.6,256.6L215.6,256.6L215.6,256.6
					z"/>
				<path class="st1" d="M97.1,25.5l2.2-1.4L96,22.4c3.2-0.2,4.3,1.5,3.3,4.8c-0.5,1.5-0.2,3.3-0.1,4.9c0.1,4.2,0.3,8.4,0.4,12.6
					c0.3,11.8,0.5,23.5,0.8,35.2c0.1,5.1,0.2,10.1,0.4,15.1c0,0.6,0.1,1.3,0.1,2.1l1.9-0.4l0.1,0.3c-5.1,2.4-10.3,4.8-15.3,7.2
					c0.3-0.7,0.7-1.5,0.8-2.2c0.3-10.1,0.5-20.2,0.8-30.2c0.5-14.3,1-28.6,1.5-42.9c0-0.9-0.3-1.9-0.7-2.6c-0.7-1.3-0.4-2.1,0.5-2.8
					c0.3,0.7,0.4,1.9,0.8,2c1.4,0.4,2.8,0.4,4.3,0.5L97.1,25.5C97.1,25.5,97.1,25.5,97.1,25.5z M94.6,43.8l1.7,0.3
					c0-3.4,0-6.7,0-9.9c0-0.4-0.3-1.1-0.6-1.3c-1.5-0.8-3.1-1.4-4.6-2.1c-0.1,0.3-0.2,0.5-0.2,0.6c-0.3,9-0.5,18-0.8,27
					c-0.1,2.4,0.1,4.7-0.2,7.1c-0.2,1.6-0.6,2.9,0.6,3.7c-0.5,1.2-1.1,2.2-1.2,3.2c-0.1,1.8,0.1,3.7,0.1,5.5
					c-0.1,4.2-0.2,8.3-0.2,12.4c0,0.6,0.4,1.2,0.6,1.7c-1.8,3.3-0.6,6.8-0.9,10.7c2.6-1.2,4.7-2.3,6.8-3.2c1.3-0.5,1.7-1.4,1.7-2.7
					c-0.1-1.9-0.3-3.8-0.4-5.8c0-1,0.3-2,0.3-3c-0.1-4.6-0.3-9.3-0.3-13.9c0-2.4,0.2-4.9,0.2-7.3c0-0.9-0.9-1.8-0.7-2.6
					c0.8-3.4,0.6-6.7-0.1-10.2l0.9,0.7c-0.2-2-0.5-3.9-0.6-5.8c0-2.4-0.3-2.7-2.6-2.3c-0.3,0-0.6,0-1.2-0.1
					C93.5,45.6,94,44.8,94.6,43.8C94.7,43.8,94.6,43.8,94.6,43.8z"/>
				<path class="st1" d="M276.8,222.3c-1.1-1.6-2.1-3.2-3.2-4.7c-0.4-0.5-1.1-0.8-1.7-1.2c-0.3,0.7-0.6,1.4-0.9,2
					c-1,0.1-2.2,0.2-3.9,0.3c0.7,0.9,1,1.3,1.3,1.7l-0.3,0.4l-1.6-1l1-1.3l-0.1-0.5c-0.8,0.2-1.7,0.3-2.5,0.6
					c-0.5,0.2-0.8,0.9-1.2,1c-0.4,0.1-1.2,0.1-1.5-0.2c-0.2-0.2,0-0.9,0.1-1.4c0.1-0.4,0.3-0.8,0.6-1.6c-0.8,0.4-1.2,0.6-1.7,0.8
					c-0.1-0.2-0.2-0.4-0.2-0.5c0-4.1,0.1-8.3,0.1-12.5c0-1,0.6-2.3-1-2.9c-0.4-0.1-0.2-1.4-0.4-2.4c1.8,0.9,3.3,1.7,4.9,2.5
					c4,2.1,8.1,4.2,12.1,6.2c1,0.5,1.4,1.1,1.4,2.2c0,5.3,0.1,10.6,0.2,15.9c0,1.1,0.4,2.2,0.6,3c-1.6-1.1-3.6-2.4-5.9-3.8
					c0.1-1.6,1.5-1.9,3.2-1.4C276.3,223.1,276.6,222.7,276.8,222.3L276.8,222.3L276.8,222.3L276.8,222.3z"/>
				<path class="st1" d="M152.1,308.6c-3.8-1.9-7.5-3.7-11.2-5.7c-0.5-0.3-0.5-1.6-0.5-2.4c0-1.3,0.2-2.6,0.3-3.9l0.5,0.1
					c-0.1,1.2-0.1,2.3-0.2,3.5l0.9,0v-8.3l0.9-0.2c0.3,0.7,0.5,1.5,1,2.1c0.4,0.6,1.1,1.1,1.8,1.4c7.7,4.1,15.4,8.1,23.1,12.2
					c4.1,2.2,8.2,4.5,12.4,6.8c0-0.3-0.1-0.6,0-0.8c0.3-0.6,0.6-1.2,0.9-1.9c0.2,0.6,0.4,1.2,0.6,1.7c0.2,0.4,0.4,0.8,0.6,1.1h-0.8
					c1.7,1.5,3.5,2.5,5.4,3.5c1,0.5,1.3,1.1,1.3,2.2c0,2.8,0.2,5.6,0.4,8.4l0,0c-2.6-1.4-5.3-2.7-7.9-4.1c-4.5-2.3-8.9-4.7-13.4-7
					c-0.3-0.2-0.6-0.5-0.9-0.7c0.3,0,0.6-0.1,1.1-0.1c-0.9-0.8-1.7-1.3-2.4-1.9l0,0c2.1-0.6,0-1.3,0.1-2l0,0
					c0.4,0.5,0.9,0.9,1.2,1.4c0.3,0.4,0.5,1,1,1.9c0.7-2.7,0.5-4.3-1.7-5.3l2.3,1c-0.4-1.7-0.3-3.5-1-3.9c-4.3-2.5-8.8-4.6-13-6.7
					c-0.4,0.5-0.8,1-1.1,1.4c0.1-0.6,0.1-1.2,0.2-1.9c-3.3-1.9-6.7-3.7-10-5.5l-0.5,0.3c0.4,0.9,0.8,1.7,1.2,2.5l-1.1,0.4
					c0.1,0.3,0.2,0.7,0.4,0.9c0.3,0.4,0.6,0.7,0.9,1l0,0c-0.8-0.1-1.3,0.2-1.6,1.1c0.5,0.3,1,0.6,1.5,1l-0.1,0.2
					c-0.6-0.2-1.3-0.4-1.9-0.7c0.1,1.2,0.6,2.1,1.6,2.6C146.9,305.7,149.5,307.2,152.1,308.6L152.1,308.6L152.1,308.6z M169.2,316.9
					l0.4,0v-8.1h-0.4V316.9z M188.4,319.7l-0.2,0.1v7.3l0.2,0V319.7z"/>
				<path class="st1" d="M274.3,249.1c-0.5,0.3-1,0.5-1.8,1l-4.7-3.1l0.2-0.4h3.5c0.6-3.2-2.4-1.4-3.3-2.7c0.6-0.4,1.2-0.8,1.7-1.1
					c1.1,0.8,2.2,1.5,3.5,2.4c-0.1-1.1-0.2-1.6-0.2-2.2c0.9,0.4,1.5,0.9,2.3,1.1c1,0.4,0.9,1,0.5,1.7l-1.7,0.9l0.2,0.4
					c0.8,0.2,1.6,0.4,2.4,0.6l0.3-0.4l-0.9-1.4c1.8,0.6,3.6,1.3,5.7,1.9l-0.4,1.4c-1.1-0.1-2.1-0.1-3.1-0.1c2.6,1.4,3.2,1.3,4.5-1
					c0.4-0.8,0.9-1.5,1.5-2.2c1.1-1.1,2.3-4,2.3-5.5c0-0.8,0.1-1.6,0.1-2.1c1.4,0.3,2.6,0.4,3.7,0.7c0.8,0.3,1.4,0.9,2.1,1.4
					c0.4,0.3,0.7,1.5,1.5,0.4c0.4,0.3,0.9,0.6,1,0.9c0.2,1,0.3,2.1,0.4,3.4c2.1,1,4.5,2.1,6.9,3.1l0.1,0.5c-3,1-5.9,2-8.9,3
					c-0.5,0.2-1,0.5-1.5,0.7c-1.4,0.6-2.3,2-4.3,1.7c-1.4-0.2-3,0.4-4.6,0.1c-1.1-0.2-2.8,0.2-4.2,0.9c-0.5,0.3-1.6-0.4-2.4-0.8
					c-0.7-0.4-1.4-1-2-1.5C274.5,251.7,274.4,250.4,274.3,249.1c0.8,1.3,1.6,2.7,3.5,2.6C278.3,249.1,277.3,248.4,274.3,249.1
					L274.3,249.1L274.3,249.1z M292.6,241.1l-0.4-0.7c-1.3,0.5-2.7,1-4,1.5l0.3,0.8C289.9,242.1,291.2,241.6,292.6,241.1
					L292.6,241.1L292.6,241.1z"/>
				<path class="st1" d="M48.2,161.6c0.9-0.9,0-1.2-0.4-1.8c-0.6-0.8-1-1.8-1.5-2.8c1.2-0.1,2.4-0.3,3.6-0.4l-0.3,0.5l2.3,2.8
					c1.8-2.6-0.8-3.6-1.1-5.5l2.1,1.7l0.6-0.2c-0.1-0.6-0.1-1.4-0.4-1.6c-2.2-1.2-4.5-2.4-6.9-3.3c-0.9-0.4-2.1-0.1-3.2,0.1
					c-1,0.2-1.2,0-0.9-1.3c1.6,0.1,3.2,0.3,4.8,0.5l0-0.8c-3.5-0.2-7-0.4-10.4-0.5l0,0.8h4.5l0.2,0.6c-0.3,0.2-0.6,0.5-0.9,0.5
					c-0.6-0.1-1.2-0.5-1.8-0.5c-2.4-0.2-4.7-0.6-7.1,0.1c-1.3-0.9-2.5-0.3-3.9,0.9l-0.5-2.8l-0.5-0.1c-0.1,1.1-0.2,2.2-0.5,3.4
					c-0.2,1.2,0.6,2.6-0.9,3.4l0,0c0.1-1.1,0.3-2.3,0.4-3.5c0.2-4.1,1.6-5.5,5.8-6c-0.5,0.8-1.1,1.6-1.5,2.4
					c-0.1,0.2,0.3,0.7,0.4,1.1c0.4-0.3,0.9-0.5,1-0.9c0.1-0.9,0.1-1.8,0.1-2.6l0.9-0.3l-0.7,3.9c2.9-0.2,0.9-2.7,2.4-3.6
					c0,0.8-0.1,1.5,0,2.2c0,0.3,0.4,0.6,0.7,0.9c0.2-0.3,0.5-0.6,0.6-1c0.1-0.6,0-1.1,0-1.8c1,0,2.4-1.5,2.6,0.9
					c0.1,0.6,1,1.1,1.8,2.1l0.5-3.4l0.3,0l0.7,3h0.6l0.5-3.2h0.3l0.5,3.3l0.7,0.1l0.6-2.6l1.5,3.1l0.5-2.8l0.4-0.1l0.6,2.6l0.5,0
					l0.4-2.3l0.4-0.1l0.7,2.6c1.5-0.5-0.3-2.7,1.6-3v3.9l0.6,0v-3.4c2.1,1.4,3,3,3,5.2c0,0.7,0,1.6,0.4,2.1c1.6,2.3,2.1,4.7,2,7.4
					c-0.1,2,0,3.9,0,6.2c-3.3,1.3-6.7,2.6-10.3,4c-0.2-1.6,0.8-3.2-0.3-4.4l-0.7,0c0,1.2-0.2,2.5,0,3.6c0.4,1.6-0.4,1.7-1.5,1.9
					l0.5-4.4c-2.8-0.5-5.4-1-8-1.5c2.4,0.1,4.9,0.2,7.5,0.3c0-1,0.1-1.6,0-2.3c-0.1-0.6-0.4-1.3-0.6-1.9l0.2,0c0.5,1,1,2,1.5,2.9
					C49.2,164.8,49.4,164.5,48.2,161.6L48.2,161.6L48.2,161.6L48.2,161.6z"/>
				<path class="st1" d="M101.8,230.6c-3.5,1.8-7.5,3.6-12.1,4.7l-0.2,0.8c-1.8,0.6-3.5,1.1-5.2,1.6l0.1,0.6l-1.9-1
					c-0.2,0.6-0.3,1.1-0.5,1.6l-0.4,0V236c-1.2,0.6-2.5,1.2-3.3,1.5c-1.1-0.4-1.7-0.7-2.4-0.9l0,0.2c-0.7-0.4-1.4-0.8-2.5-1.4
					c0-0.4-0.1-1.2-0.1-1.9c0.9-0.3,1.7-0.6,2.5-0.9v1.4l1.9-1.3c0.7-0.5,1.2,2,2.2-0.1c-1.7-0.6-3.2-1.2-4.8-1.8
					c-1.1-0.4-1.8-1-1.1-2.4c0.3,2.2,2.3,2,3.7,2.6c3.1,1.2,4,0.7,5.1-2.5l2.2,0.3c1-1.9,1.8-3.8,4.3-4.4c0.8-0.2,1.6-1.3,2.1-2.2
					c0.8-1.3,1.7-2.2,3.4-1.5l0.3-0.5c-0.4-0.2-0.8-0.4-1.5-0.7c1.5-0.4,2.2-0.2,2.2,1.1c0,0.5,0,1.1-0.2,1.5
					c-1.1,2.1,0.4,3.2,1.8,4.6l0.6-1.5l3.3,0.9c0.5,1.1-1.7,2.5,0.6,3.1C102.2,229.1,102,229.8,101.8,230.6L101.8,230.6L101.8,230.6
					z M92.1,232.2c0.8-1.6,1.5-2.9,2.4-4.6C92.5,228.8,91.3,231,92.1,232.2z"/>
				<path class="st1" d="M237,234.1c2.8-2.1,3.4,2.6,5.9,1.9c-1,2.1,0.3,2.8,1.7,3.4c-1.8,1.2-3.8,1.5-5.9,0.9
					c-0.2-0.1-0.4-0.2-0.6-0.1c-2.2,1.5-3.8-0.2-5.6-1c-2.6-1.2-5.1-2.9-7.9-3.7c-3.3-1-5.9-3.2-9-4.4c-0.7-0.2-1.2-1-1.7-1.4
					c0.3-1,0.6-1.9,1-2.8l2,0.8c0.6-1,1.1-1.9,1.7-2.9c1,0.5,1.7,2.2,2.4,0.8c2,0.8,3.9,1.4,5.7,2.4c1.1,0.6,2.9-0.1,3.2,2
					c0,0.2,1.4,0.2,2.3,0.4l-0.2,1C233.8,232.3,235.4,233.2,237,234.1L237,234.1L237,234.1z M231.7,234.1c-0.1,0.2-0.1,0.4-0.1,0.4
					c2.6,1.2,5.2,2.5,7.8,3.7l0.3-0.7C237,236.3,234.3,235.2,231.7,234.1L231.7,234.1L231.7,234.1z M224.8,230.6l0.3-0.4
					c-1.7-0.9-3.3-1.8-5-2.7l-0.2,0.4C221.5,228.8,223.1,229.7,224.8,230.6L224.8,230.6L224.8,230.6z"/>
				<path class="st1" d="M186.8,287.6c1,2.7,2,5.5,3,8.2c0.8,2.2-2.3,6.1-5,5.8l1.3-0.6l0-0.2l-2.3,0.2l-0.2-0.4
					c0.9-0.4,1.8-0.7,2.7-1l-0.1-0.6h-1.8c-0.4,0-0.7,0-1.1,0c-4.7-0.8-5-0.3-7.9,2.5c-0.9-1.5-1.7-3-2.8-4.8c1.7,0,2.6,0.1,3.6,0
					c0.3,0,0.9-0.6,0.9-0.7c-0.8-1.8,1-2.5,1.6-3.7c0.9-2,2.2-3.9,3.4-6c-1.5-0.2-2.8-0.4-4-0.6v-4.3c2.1,1,4,1.8,5.8,2.6
					c0.2-1.9,0.3-3.7,0.5-5.8l2.4,1.2c-2.6,1.6-2.7,2-1.6,4.4c0.5,1.1,0.9,2.2,1.3,3.3C186.7,287.1,186.8,287.4,186.8,287.6
					L186.8,287.6L186.8,287.6z M181.5,288.6c-0.1,0.6-0.2,1.3-0.4,1.9c-0.3,0.7-0.9,1.3-1.1,2c-0.1,0.5,0.2,1.1,0.4,1.6l0.6-0.1
					c-0.8-1.8,0.2-3.4,2.5-4.3L181.5,288.6L181.5,288.6L181.5,288.6z"/>
				<path class="st1" d="M105.8,248.8l-0.4-1.3c2.3-0.9,3.9-2.4,5-4.7c0,0,0.2,0.1,0.3,0.2c0.1,0.1,0.1,0.3,0.2,0.6l0.8-0.9
					c1.1,0.6,2.1,1.1,3,1.6c-0.9-0.1-1.8-0.2-2.8-0.2c-1.2-0.1-1.9,0.6-1.9,1.8c2.2,0.9,5.3,0.2,6.4-1.4c0.1,1.9-0.4,4.1,0.5,5.6
					c0.8,1.4,3,2,4.8,3.2c-1,0.4-1.8,0.8-2.6,1c-2,0.5-4.1,0.9-6.1,1.4c-0.2,0-0.5,0.2-0.6,0.1c-2.2-1.8-3.9,1.3-6,0.6
					c-0.2-0.1-0.5,0.5-0.8,0.6c-0.7,0.1-1.5,0.4-2,0.1c-1.1-0.6-2.1-1.5-3.3-2.4c-0.1,0.6-0.1,1-0.2,1.4c-0.7-0.5-0.5-1.2,0.3-2.1
					c0-2.2-0.1-4.2,0.1-6.1c0.1-0.9,2.7-1.1,3.6-0.2c0.5,0.4,0.8,1.1,1.1,1.7L105.8,248.8L105.8,248.8L105.8,248.8L105.8,248.8z
					 M106,253.7c0.5-3.6-0.2-4.6-3.6-5.1l0.5,3.2C104,252.5,105,253.1,106,253.7z M114.5,247.5c-1.8-0.2-3.5-0.4-5.2-0.6l-0.3,0.4
					c0.4,0.4,0.8,1.1,1.2,1.1c2.1,0,3.5,1.1,4.3,3.5L114.5,247.5L114.5,247.5z"/>
				<path class="st1" d="M132.2,220.6c-0.4-0.6-0.8-1.4-1.3-1.6c-1.3-0.5-2.7-0.6-4-1c-0.5-0.2-0.9-0.9-1.4-1.5l3.5-2.1
					c-1.4-0.5-2.2-0.8-3.1-1.1c-2.1-0.7-2.7-2.1-1.7-4.2l0.8,1.1c1.4,0,2.9-0.4,3.9,0.1c0.8,0.5,0.9,2.1,1.1,2.9
					c0.7-0.9,1.4-1.9,2.2-2.8c0.1-0.1,1,0.3,1.2,0.6c0.5,1.2,2.1,2.4,0.2,3.8c-0.5-0.2-1-0.5-1.6-0.8l-0.2,0.5
					c2.1,0.7,4.1,1.3,6.5,2.1c-1.9,1.3-3.6,2.6-5.4,3.8l0.4,0.5c1.8-1.1,3.6-2.3,5-3.2c2.1,1,4.1,1.7,5.9,2.7
					c0.9,0.5,1.7,1.4,2.4,2.2c0.1,0.1,0,0.9-0.2,1c-0.8,0.4-1.8,1.1-2.6,0.9c-1.2-0.3-2-0.8-2.6,0.9c-0.2,0.5-2.4,0.5-3.5,0.1
					c-2.3-0.8-4.4-2.1-6.7-3.1c-0.6-0.3-1.2-0.4-2-0.6c0.6-0.4,1.1-0.9,1.6-1.3c-0.7-0.5-1.3-0.9-1.9-1.4l0.3-0.4
					c0.9,0.6,1.9,1.3,2.8,1.9L132.2,220.6L132.2,220.6L132.2,220.6L132.2,220.6z M133.4,222.4c2.7,0.8,4,3.6,6.9,2.3
					c-0.3-2.5-2.1-3.5-4-4C135.7,220.5,134.7,221.6,133.4,222.4L133.4,222.4L133.4,222.4z M142.1,222.6l0.3-0.5l-4.9-2.7l-0.3,0.5
					C138.8,220.9,140.5,221.8,142.1,222.6L142.1,222.6L142.1,222.6z"/>
				<path class="st1" d="M206.2,295.2c0.3,0.1,0.6,0.2,1.4,0.5c-1.7,0.8-3.1,1.3-4.3,2c-0.8,0.4-1.5,1.1-2.3,1.5
					c-0.5,0.3-1.2,0.5-1.7,0.4c-1.8-0.6-3.1-0.4-3.9,1.5c-2.2-1.2-3.5-3.4-3.1-5.7l1.6,0.4c-2.2-1.4-1.8-3-1.3-4.2
					c0.9,0.6,1.8,1.2,2.7,1.9l0.5,1.4c1.4-2,2.5-3.4,1.3-5.1c-0.4-0.5-1.2-0.8-1.8-1.1c0.2,1.8,1.7,3.2-0.1,4.6
					c-2.2-1.6-1.7-4.3,0-8.2c1.4,1.2,2.8,2.4,4.2,3.6c0.4-0.7,0.7-1.2,1.3-2.1l3.5,2.2c0.2-1,0.5-2,0.7-3c1.8,0.5,2.2,1.5,1.1,3
					c-0.4,0.6-0.5,1.4-0.9,2c-0.3,0.6-0.9,1.1-1.6,2C204.3,293.3,205.3,294.2,206.2,295.2L206.2,295.2L206.2,295.2L206.2,295.2z
					 M199.6,292.8c-0.8,0.4-1.4,0.8-2.2,1.2c0.5,0.4,0.9,0.6,1.3,0.9c1.8-2.1,2.8-4.4,3.4-6.8l-0.6-0.3c-0.4,0.9-0.8,1.7-1.2,2.5
					c-0.4-0.2-0.9-0.4-1.8-0.8c0.8,0.9,1.2,1.4,2.1,2.4l-2.4-1C198.9,291.8,199.2,292.2,199.6,292.8L199.6,292.8L199.6,292.8z"/>
				<path class="st1" d="M197.1,147.4c1.4,0.4,1.2-0.5,1.4-1.4c0.2-1.4,0.4-3,2.1-3.7c-1.1-1.2-3.6-0.8-3.7-3.2c1.9,1,3.9,2,5.8,3
					l0.3-0.4c-0.9-0.6-1.7-1.1-2.6-1.8c-0.7-0.5-1.4-1.1-2-1.6c1.4,0.6,3,1,4.3,1.8c1.8,0.9,3.4,2.1,5,3.2v7.9l0.5,0.1l0.6-1.3
					l2.2,0.3c0.5-1.8,0-2.2-2.4-2.1v-5.1c3.7,2.1,7.1,4,10.9,6.1l-1.1,0.9c-1.8-3-5.2-3.1-7.6-5l-0.4,0.6c2.1,1.1,4.2,2.2,6.9,3.6
					c-2,1.3-3.6,3.1-5.4,3.3c-2.1,0.3-4.4-0.7-7-1.2c0.5-0.9,0.7-1.7,1.2-2.1c1.6-1.3,1.1-2.2-0.4-3c-0.3-0.1-0.5-0.4-0.6-0.8
					l1.9,0.9l0.3-0.3c-0.6-0.6-1.1-1.5-1.9-1.8c-1.4-0.5-1.3,0.8-1.3,1.6c0,1.5,0.1,2.9,0.2,4.8l-3.9-1c1.6-0.9,2.5-1.4,3.4-2
					l-0.3-0.3l-3.6,0.3c0.2,2.1-0.9,2.9-3.1,2.1c-1.2-0.4-2.4-0.7-3.8-1.1l1-1c0.5,0.2,1,0.6,1.5,0.7
					C196.4,148.8,197.2,148.7,197.1,147.4L197.1,147.4L197.1,147.4z"/>
				<path class="st1" d="M30.7,221l-0.9-1.8c-0.4,0-0.9,0.2-1.2,0.1c-1.4-0.5-2.6-0.7-4,0c-1.6,0.7-2.5-0.6-2.8-1.8v-13.5
					c3.1,1.8,6,3.5,8.9,5.2c0.3,0.1,0.5,0.6,0.5,0.9c0,3.3,0,6.6,0,9.9C31.2,220.2,31,220.4,30.7,221L30.7,221L30.7,221z"/>
				<path class="st1" d="M241.1,290.7c-3.4-2.4-0.5-5.9-2-9l-1.6-0.4c1.3-1.2,2.8-0.9,3.4,0.7c3.1-1.8,6.2-3.6,9.2-5.4
					c1.3,1.4-0.6,3.7,1.7,4.4c1.5,0.5,3,0.9,4.8,1.4C251.5,285.2,246.4,287.9,241.1,290.7L241.1,290.7L241.1,290.7z"/>
				<path class="st1" d="M368.1,210.4c-2.1-1.1-4.1-2.2-6.3-3.2c-0.9-0.4-2-0.5-3-0.9c-0.4-0.1-0.9-0.6-0.9-1c-0.1-3.7,0-7.5,0-11.5
					c1.2,0.9,2.4,1.4,2.8,2.2c1,2.4,3.5,2.4,5.3,3.5c1.7,1,3,1.9,2.8,4.1c-0.2,2.2,0,4.4,0,6.6L368.1,210.4L368.1,210.4L368.1,210.4
					z"/>
				<path class="st1" d="M369.2,210.5v-9.3c3.2,1.6,6.1,3.1,8.9,4.5c0.3,0.1,0.5,0.6,0.5,0.9c0,3.3,0,6.6,0,10c-2-1-3.7-2-5.6-2.7
					c-0.9-0.3-2-0.2-2.9-0.1c-1.4,0.3-2.8,0.8-4.2,1.1c-0.6,0.1-1.3,0-2,0l-0.1-0.5c0.6-0.2,1.1-0.6,1.7-0.7
					c1.1-0.2,2.3-0.3,3.4-0.6c0.6-0.2,1.2-0.7,1.8-1C370.1,211.6,369.7,211.1,369.2,210.5L369.2,210.5L369.2,210.5z"/>
				<path class="st1" d="M25.9,232.1c1,2.1,3.5,2.2,5,3.6c2,1.7,3.7,0.9,5.7,0.2l-1.6-1.8c1.7,0.6,3.1,1.1,4.5,1.5
					c-2,1.6-4.5,2.1-7.4,1.8c-3.4-0.3-6.3-1.8-9.2-3.5c-2.8-1.6-5.6-3.2-8.6-5c1.7-0.8,3.1-1.4,4.5-2c0.9-0.4,1.5-0.8,1.4-1.9
					c0-0.5,0.2-1.1,0.6-1.5c1.4-1.8,1.4-1.8,2.6,0.2c0.9,1.4,2,1.2,3.1,0.6c0.7-0.4,1.2-1,1.9-1.3c0.5-0.2,1-0.2,1.6-0.4
					c-0.4,3-2.5,3-4.6,3.2l-0.1,0.5c0.7,0.6,1.4,1.2,2,1.8c-0.6-0.3-1.3-0.6-2.2-1.1c0.2,0.9,0.5,1.5,0.5,2.2s-0.4,1.4-0.4,2.1
					C25.2,231.5,25.7,231.8,25.9,232.1L25.9,232.1L25.9,232.1z M24.2,233v-6.9c-3,0.6-3,0.8-3,3.2C21.2,231.4,23.3,231.7,24.2,233z
					 M20.1,227.4l-0.5-0.4c-0.9,0.5-1.9,0.9-2.8,1.4l0.1,0.8c0.7,0.1,1.6,0.4,2.2,0.1C19.6,229,19.7,228,20.1,227.4L20.1,227.4
					L20.1,227.4z"/>
				<path class="st1" d="M390.8,212.1c-3.3,1.7-6.3,3.3-9.4,4.8c-1.2,0.6-2.2,0-2.2-1.2c-0.1-3,0-6.1,0-9.6
					C383.2,208.2,386.9,210.1,390.8,212.1z"/>
				<path class="st1" d="M195.7,125.7c0-0.2,0-0.3,0-0.5c0.9,0.1,1.7,0.1,2.7,0.2c0.4-1.6,0.7-3.4,1.1-5.1c0.2-0.8,0.4-1.6,1.7-1.6
					c0.9,0,1.7-0.7,2.9-1.2l-0.4,1.6c1.7,1.4,3.6,2.6,5,4.2c0.6,0.7,0.1,2.3,0.2,3.5l0,0c-0.8-0.1-1.5-0.3-2.2-0.4
					c-0.9-0.1-2.1,0.3-2.8-0.1c-2.5-1.3-3.1-1.1-3.8,2.3l1.6-1l0.2,0.1c-0.5,0.7-1.1,1.3-1.5,1.8
					C198.5,128.1,197.1,126.9,195.7,125.7L195.7,125.7L195.7,125.7z M204.5,122.4l-1.9,2c0.9,0.5,1.8,0.9,2.7,1.3
					c0.1,0.1,0.6-0.5,0.6-0.6C205.5,124.2,205.1,123.4,204.5,122.4z"/>
				<path class="st1" d="M161.4,192.1c-3.6-0.6-3.5-0.6-3.5-3.7c0-1.2,0.9-2.9-1.3-3.7c-0.1,1.3-0.4,2.5-0.4,3.7
					c0.1,1.9-1,2.8-2.5,3.1c-1,0.2-2.2-0.2-2.9-0.3c0.2-1.5,0.4-2.5,0.5-3.6l2.2,0.4c-3-2.1-0.8-5.1-1.8-7.4l0.9-0.4l1.7,2.6
					c2.1,1,4.4,2,6.5,3.1c0.3,0.1,0.5,0.6,0.5,0.9C161.4,188.5,161.4,190.2,161.4,192.1L161.4,192.1L161.4,192.1L161.4,192.1z"/>
				<path class="st1" d="M356.5,220.1c-1,0.5-2.1,0.9-3.2,1.4c-0.6-0.5-1.1-0.9-1.9-1.6v2.1c-1.5,0.6-2.9,1.1-4.3,1.6
					c-3,1.1-3.1,1.1-5.4-1.5c1.4-1.4,1.4-1.7-0.4-3c0.7,0.3,1.4,0.6,2.5,1c0.8-1.4,1.7-3,2.6-4.6c0.5,0.2,0.5,1.1,0,2.8
					c2.4-0.1,1.9-2.8,3.6-4c0.3,0.7,0.9,1.3,0.8,1.9c-0.2,1.5,0.5,1.9,1.8,2.2c1.3,0.3,2.6,0.8,4,1.2L356.5,220.1L356.5,220.1
					L356.5,220.1z M348.3,219.3c2.1-1.7,2.4-2.6,1.2-3.9C349.2,216.7,348.8,217.8,348.3,219.3z"/>
				<path class="st1" d="M240.2,95.2c-2.1-0.9-4-1.8-5.9-2.7c-0.4-0.2-0.7-0.8-0.7-1.2c-0.1-2.7,0-5.5,0-8.6
					c2.2,1.1,4.2,2.1,6.1,3.1c0.3,0.2,0.4,0.7,0.4,1.1C240.3,89.7,240.2,92.5,240.2,95.2L240.2,95.2L240.2,95.2z"/>
				<path class="st1" d="M61.4,255.5c1.1,0.4,2.3,0.8,3.7,1.4c0-2.2,0.3-4.3-0.1-6.3c-0.2-0.8-1.7-1.4-2.6-2
					c-0.7-0.5-1.5-0.9-2.2-1.3l-0.1,0.1c-0.2-0.2-0.4-0.6-0.7-0.7c-1-0.6-1.9-1.1-3-1.7c0.4,2.9-1.5,6.4,1.8,8.9
					c-2-1.2-4.1-2.4-6.1-3.6c1,0.4,2,0.7,3,1v-10.8l1.4-0.5c-0.5,2,0.8,3,2.4,3.8c2.1,1,4.1,2.2,6.2,3.3l0.9-1.3
					c-0.2,1.9,0.9,2.9,2.3,3.6c0.5,0.3,1,0.8,1.4,1.2l-3.8-0.7c0,2.6-0.1,4.8,0.1,7c0,0.6,0.8,1.2,1.4,1.5c1.3,0.9,2.8,1.6,4.1,2.4
					c0.4,0.2,0.6,0.7,0.9,1.1C68.7,259.8,65.1,257.6,61.4,255.5L61.4,255.5L61.4,255.5z"/>
				<path class="st1" d="M186.8,287.6c-0.1-0.2-0.1-0.5-0.2-0.7c0.4-0.1,0.7-0.1,1.1-0.2c-0.5-1-1.2-2.2-1.6-3.5
					c-0.2-0.5-0.1-1.5,0.2-1.8c0.4-0.3,1.3-0.3,1.9-0.1c1.2,0.4,2.2,1.1,3.5,1.8c0.9-1.2,1.8-2.6,2.7-3.9l0.6,0.1
					c-0.1,0.8-0.1,1.7-0.4,2.5c-1.1,3-2.4,6-3.6,9.1c-0.4-0.1-1.2-0.3-2-0.5c1.6,1.3,2.5,2.7,1.4,5.2
					C189.1,292.6,188,290.1,186.8,287.6L186.8,287.6L186.8,287.6z"/>
				<path class="st1" d="M121.4,141.8v33c-7-3.8-13.7-7.4-20.3-10.9l-0.1,0.1c2.2,1,4.5,1.9,6.7,3c2.7,1.4,5.4,2.9,8.3,4.4l0.3-1.7
					c-0.2,2.8,2.5,2.4,3.9,3.6c-0.1-4.9,0.6-9.7-0.3-14.9c0.1-0.4,0.4-1.3,0.4-2.2c-0.1-2.7-0.4-5.4-0.4-8.1c0-3.3,0.2-6.7,0.4-10
					c0-0.3,0.4-0.6,0.8-1.2c-0.1,1.4-0.2,2.5-0.1,3.6C121.1,140.8,121.3,141.3,121.4,141.8L121.4,141.8L121.4,141.8L121.4,141.8z"/>
				<path class="st1" d="M191.5,182.4c-2-0.9-3.5-1.6-5.1-2.3c0.1-1.9,0.2-3.8,0.3-5.7h1.1c0-0.3,0-0.9-0.1-0.9
					c-1.9-0.3-1-1.7-1.2-3c2.5,1.1,4.7,2,6.9,3.1c0.2,0.1,0.4,0.5,0.4,0.8c0,3,0,5.9,0,9c-2.4-0.6-2.2-2.3-1.9-3.9
					c0.1-0.5,0.7-0.9,1.5-1.7c0.2-1.5,0.6-1.2-4.1-3.2l-0.4,1.5l-1.6-0.2l-0.2,1.8c1.2-0.1,2.6-0.5,3.4-0.1
					C192.2,178.6,191.4,180.5,191.5,182.4L191.5,182.4L191.5,182.4z"/>
				<path class="st1" d="M233.4,104.2c2.1,1,4.2,1.9,6.2,2.8c1,0.4,1.3,1.2,0.8,2.2c-0.2,0.3-0.3,0.7-0.4,1.1
					c-1.3,3.6-1.3,3.6-4.9,2.3c-0.4-0.2-1.1,0.1-1.7,0.1L233.4,104.2L233.4,104.2L233.4,104.2z"/>
				<path class="st1" d="M170.3,154.5c-2.9-1.3-5.5-2.5-8.1-3.7v-5.9c2.6,1.4,5,2.6,7.3,3.9c0.4,0.2,0.7,0.8,0.7,1.2
					C170.4,151.4,170.3,152.8,170.3,154.5L170.3,154.5L170.3,154.5z"/>
				<path class="st1" d="M193.8,167.1c-0.8-0.6-1.6-1.3-2.5-1.7c-4.9-2.2-5-2.1-4.8-7.5c0-0.1,0.1-0.1,0.2-0.5
					c2.1,1.1,4.2,2.1,6.2,3.2c0.4,0.2,0.7,1,0.7,1.6C193.9,163.9,193.8,165.7,193.8,167.1L193.8,167.1L193.8,167.1z"/>
				<path class="st1" d="M70.5,141c-1-0.6-1.6-0.9-2.2-1.2c-0.8-0.4-1.4-1.7-2.7-0.6c-0.1,0.1-1.4-0.8-1.5-1.4
					c-0.5-2.2-0.7-4.4-0.9-6.5c2.4,1.3,4.7,2.5,7,3.8c0.2,0.1,0.3,0.5,0.3,0.8C70.5,137.5,70.5,139,70.5,141
					C70.5,141,70.5,141,70.5,141z"/>
				<path class="st1" d="M253.2,195.1c-2.6-1-4.9-1.9-7.5-2.9v-5.8c2.2,1.2,4.4,2.4,6.6,3.6c0.4,0.3,0.8,0.9,0.9,1.4
					C253.3,192.6,253.2,193.8,253.2,195.1L253.2,195.1L253.2,195.1z"/>
				<path class="st1" d="M78.7,145.8c-2.3-1.4-4.3-2.5-6.3-3.8c-0.3-0.2-0.5-0.7-0.5-1.1c-0.1-1.3,0-2.6,0-4.5
					c2.3,1.1,4.3,2.1,6.2,3.1c0.3,0.2,0.6,0.7,0.6,1.1C78.7,142.2,78.7,143.8,78.7,145.8L78.7,145.8L78.7,145.8z"/>
				<path class="st1" d="M199,163.5c1.2,0.7,2.2,1.2,3.2,1.7c2.7,1.4,3.8,3.7,3.4,7.1c-2.1-0.8-4.2-1.6-6.3-2.5
					c-0.2-0.1-0.3-0.4-0.3-0.7C199,167.3,199.1,165.5,199,163.5L199,163.5L199,163.5z"/>
				<path class="st1" d="M159.8,149.5c-0.8-0.4-1.1-0.6-1.5-0.7c-3.8-1-5-3.4-4.3-7.2c0.4-2.1,0.1-4.3,0.1-6.7l1.4,0.8
					c-0.3,0.4-0.6,0.6-0.6,0.9c-0.1,0.4,0,0.9,0,1.3c-0.4,2.4,0.5,4,2.9,4.7c1.8,0.5,2.5,1.7,2.2,3.6
					C159.7,147.1,159.8,148.2,159.8,149.5L159.8,149.5L159.8,149.5z"/>
				<path class="st1" d="M173.6,216.6c1.7,1.6,3.5,3.3,5.5,5.2l-2.3,1.1l0.6,1.8l-0.3,0.1l-0.8-1.4l-0.4,0.1
					c0.1,0.5,0.2,1.1,0.3,1.6l-0.3,0.1c-0.6-1.6-1.1-3.2-1.7-5c-1.7,0.9-2.5,4.9-5.5,2.3c-0.8-0.6-1.1-1.7-1.5-2.7
					c0.9,1.8,2.1,2.1,3.5,0.6C171.6,219.2,172.5,218,173.6,216.6L173.6,216.6L173.6,216.6z"/>
				<path class="st1" d="M102.1,151.4c1.7,0.8,3.4,1.7,5.2,2.6v11.6h-0.3c0-1.4-0.1-2.7,0-4.1s-0.5-2.2-1.6-2.8
					c-0.3-0.2-0.7-0.4-1-0.6C101.6,156.5,101,154.9,102.1,151.4L102.1,151.4L102.1,151.4z"/>
				<path class="st1" d="M219,275.3c-3.3,1.1-6.6,2.1-10.2,3.3v-5.5c0.5-0.3,1.3,0.1,2.4,1.2c0.9-1.1,1.9-2.2,2.8-3.3
					c0.6,3,2.5,3.8,5,3.7L219,275.3L219,275.3L219,275.3z"/>
				<path class="st1" d="M178.6,175.8c-2.1-0.8-2.7-2.3-2.5-4.5c0.2-1.8,0-3.7,0-5.9c2.5,1.2,4.8,2.1,6.9,3.3
					c0.5,0.3,0.5,1.5,0.9,2.9c-2.2-1-3.9-1.7-5.8-2.5C177.8,171.5,177.6,173.7,178.6,175.8L178.6,175.8L178.6,175.8L178.6,175.8z"/>
				<path class="st1" d="M313.9,241.7c2.1-1.6,4-3,5.9-4.4c1.1,1.4,2.1,2.6,3,3.7C320.5,243.6,317.1,244.1,313.9,241.7L313.9,241.7
					L313.9,241.7z"/>
				<path class="st1" d="M116.3,147.9c-1.4-0.5-2.5-0.9-3.6-1.4c-0.3-0.2-0.7-0.7-0.7-1.1c-0.1-2.6,0-5.2,0.1-7.9
					c-0.3,2.1,1.4,2.5,2.7,3.1c1.2,0.5,1.7,1.1,1.6,2.4C116.2,144.5,116.3,146.1,116.3,147.9L116.3,147.9L116.3,147.9z"/>
				<path class="st1" d="M113.2,130.1l-0.5,4.1l-0.6-0.1v-10.8c3.9,0.7,4.7,2.1,4,7.6L113.2,130.1L113.2,130.1L113.2,130.1z"/>
				<path class="st1" d="M67,189.6c-0.7-1.6-0.3-2.9,1.1-3.6c1-0.5,2.3-0.7,3.2,0.6l1.5-0.9c0.3,0.6,0.6,1.2,0.9,1.8
					c1.9-0.9,3.8-1.8,6-2.8l-0.5,3.2C75.5,188.5,71.2,189,67,189.6L67,189.6L67,189.6z M67.4,187.6c0.8,1.4,1.8,1.4,2.6,0.7
					c0.4-0.3,0.3-1.1,0.5-2C69.2,186.8,68.4,187.1,67.4,187.6L67.4,187.6L67.4,187.6z"/>
				<path class="st1" d="M232.3,148.6c2.4,3.2,5.4,4.7,8.9,5.7l-0.2,0.6c-0.7-0.1-1.5-0.1-2.1-0.4c-1.4-0.7-2.8-1.9-4.6-0.5
					c0,0.3,0.1,0.8,0.1,1.2c-2.4,0.9-4.7,0.8-6.8-1.2C231.9,154.6,233.1,152.6,232.3,148.6L232.3,148.6L232.3,148.6z"/>
				<path class="st1" d="M111.8,156.3c4.5,1.3,5.2,2.6,4.4,7.5C111.7,163,111.2,162,111.8,156.3z"/>
				<path class="st1" d="M23.9,188.6h0.8c0.1,1.8,1.9,2.1,3,2.9c3.8,2.6,7.8,5.1,11.6,7.7c1.1,0.7,2,1.2,2.9-0.5
					c0.8-1.5,2.4-1.6,4.8-0.7c-0.7,0.8-1.4,1.6-2.1,2.2c-0.2,0.2-0.7,0.2-0.8,0.1c-1.4-1.4-1.9-0.2-2.5,1.1
					c-1.2-0.8-2.4-1.6-3.6-2.4c-4.5-2.9-8.9-5.7-13.3-8.6C24.2,190,22.9,189.7,23.9,188.6L23.9,188.6L23.9,188.6z"/>
				<path class="st1" d="M58.2,116.7v10.8c0,4.2-0.1,8.4,0.1,12.6c0,0.8,0.9,1.6,1.4,2.3c-1.7-0.9-3.5-1.9-5.8-3.1
					c0.8-1,1.6-2.1,2.6-3c1-1,1.5-2,1.5-3.5c-0.1-4.9,0-9.8,0-14.7C57.9,117.8,58,117.5,58.2,116.7L58.2,116.7L58.2,116.7z"/>
				<path class="st1" d="M210.3,198.1c0.2-4.6-1.2-8.8-1.7-14.2c0.2-1.4,0.5-3.8,0.8-6.2c1.1,3,0.6,7,5.5,7.5
					c-0.7,1.3-1.2,2.2-2,3.5c-1-1.8-1.9-3.4-2.7-4.9l-0.7,0.1c0.5,4.7,1,9.4,1.5,14L210.3,198.1L210.3,198.1L210.3,198.1z"/>
				<path class="st1" d="M240,100.9c-1.6-0.7-2.9-1.4-4.3-1.8c-1.3-0.4-2-1.1-1.9-2.6c0.1-1,0-2.1,0-3.4
					C236.1,95.8,240.9,96.1,240,100.9z"/>
				<path class="st1" d="M235.9,69.1c1,0.9,1.5,1,3.4,0.3c0.8-0.3,1.5-0.8,2.3-0.8s1.8,0.3,2.2,0.9c0.6,0.9-0.1,1.6-1.1,2
					c-1,0.4-2,0.9-3,1.3c-1.7,0.5-2.8-0.3-2.9-1.7l-1.7-1L235.9,69.1L235.9,69.1L235.9,69.1L235.9,69.1L235.9,69.1z"/>
				<path class="st1" d="M70.7,175.6l1.4-0.5l-1-1.1c3.1,1.7,5.2,0,8-1.1c-3-1.5-5.7,1-8.3-0.7c2.7-0.2,5.4-0.5,8.1-0.4
					c0.7,0,1.2,1.6,2.1,2.6C77.3,174.6,74.6,177.6,70.7,175.6z"/>
				<path class="st1" d="M179.9,154.2c3.3,0.8,3.8,1.4,3.7,4.5v3.3c-1-0.9-2-1.6-2.8-2.4c-0.4-0.4-0.9-1.1-0.9-1.7
					C179.8,156.7,179.9,155.4,179.9,154.2L179.9,154.2L179.9,154.2L179.9,154.2z"/>
				<path class="st1" d="M127.6,165.8c4.2,0.5,5.1,1.9,4.5,6.7c-3.1-0.6-3.5-1.1-3.6-4.1C128.4,167.5,127.9,166.6,127.6,165.8
					L127.6,165.8L127.6,165.8L127.6,165.8z"/>
				<path class="st1" d="M73.7,262.4h1.5c0-2.5,0.1-4.9-0.1-7.4c-0.1-0.7-0.8-1.6-1.4-2.1c-1.2-0.9-2.7-1.7-4-2.5
					c1.3,0.5,2.6,1,3.8,1.6c1.1,0.5,1.8,0.6,1.8-0.9c0.2,0,0.4,0.1,0.4,0.1c0.3,3,2.9,3.7,4.9,4.9c0.6,0.4,1.2,0.8,1.8,1.2
					c-1.1-0.5-2.2-0.9-3.2-1.4c-1-0.5-1.9-1-3.3-1.8c0,3-0.1,5.7,0,8.3c0,0.5,0.6,1,0.9,1.4L73.7,262.4L73.7,262.4L73.7,262.4z"/>
				<path class="st1" d="M277.7,190.6c0.5-0.5,0.9-1.2,1.5-1.5c1.5-0.9,3-1.6,4.5-2.5l-0.2-0.7c0.5,0.3,1.2,0.4,1.6,0.8
					c1.1,0.9,0.8,1.9-0.4,2.6c-1.9,1-3.8,1.7-6,0.9C278.5,190.2,278.1,190.5,277.7,190.6L277.7,190.6L277.7,190.6z"/>
				<path class="st1" d="M264.7,74.7c-0.9,0.4-1.9,1-2.9,1.1c-0.6,0.1-1.9-0.7-1.8-0.9c0.3-1.6-0.9-1.8-1.8-2.2
					c-3.4-1.4-6.7-2.8-10.1-4.3c-0.4-0.2-0.7-0.5-1-1C253.1,69.9,259.1,72.4,264.7,74.7L264.7,74.7L264.7,74.7z"/>
				<path class="st1" d="M178.6,175.8l1-3.4c1,0.6,2.2,1.3,3.7,2.1c-0.1,0.9-0.1,2.2-0.2,3.9C181.4,177.5,180,176.6,178.6,175.8
					L178.6,175.8L178.6,175.8L178.6,175.8z"/>
				<path class="st1" d="M148.9,296.2c0.4-0.5,0.8-1,1.1-1.4c0.4,0.7,0.7,1.5,1.3,2.6c0.4-0.9,0.6-1.2,0.8-1.8
					c0.7,1.4,1.1,3.1,3.1,2.4c0.7,1.6,5.1,3.9,6.4,3l0.2,1.4c2.2-1.4,2.3,0.9,3,2.1C159.5,301.8,154.2,299,148.9,296.2L148.9,296.2
					L148.9,296.2z"/>
				<path class="st1" d="M282.3,232.7c0.2,0.6,0.6,1.2,0.6,1.9c0.1,2.5,0,5,0.1,7.5c0,0.8,0.4,1.7,0.7,2.7l-2,1.1V233L282.3,232.7z"
					/>
				<path class="st1" d="M193.9,147.6l-0.3-1.6c-1.6,0.8-2.9,1.5-4.3,2.1c1.1-2.1,1.1-4-0.4-5l2.7-1.3l-0.3,0.6
					c1.4,1.4,2.7,2.9,4.1,4.3C194.8,147,194.4,147.3,193.9,147.6L193.9,147.6L193.9,147.6z"/>
				<path class="st1" d="M288.9,191c-0.9,0.2-1.7,0.5-2.6,0.7c1.6-1.5,3.1-1.4,4.4,0.1c0,0.1,0.1,0.1,0.1,0.2c0.5,0.7,1,1.4,1.5,2.2
					c-1.2,0.3-2.4,0.8-3.7,0.9c-0.6,0.1-1.3-0.2-2-0.6c0.6-0.1,1.3-0.2,1.9-0.4c0.4-0.2,0.6-0.7,0.9-1.1l-0.5-0.3l-2.2,0.8l-0.2-0.4
					l2.6-1.4L288.9,191L288.9,191L288.9,191z"/>
				<path class="st1" d="M151.6,207.6c-0.2-0.8-0.4-1.4-0.6-1.9l0.6-0.3c0.6,1.1,1.8,2.2,1.7,3.2c0,0.8-1.5,1.6-2.5,2.2
					c-0.3,0.2-1,0-1.3-0.3c-0.2-0.2,0-0.8,0.1-1.4l-1.3-0.9C149.1,206.1,150.5,208.2,151.6,207.6L151.6,207.6L151.6,207.6z"/>
				<path class="st1" d="M224.1,279.6c1.2-0.5,2.5-1.1,3.8-1.5c0.2-0.1,0.6,0.2,0.9,0.4c0.1,0-0.1,0.6-0.2,0.6
					c-3.2,1.4-6.4,3.1-9.9,3.7l-0.2-0.5c1.7-0.9,3.4-1.8,5.1-2.7L224.1,279.6L224.1,279.6z"/>
				<path class="st1" d="M165.2,221.6c-2.1,1.5-1.5,5.4-5.5,5.2c1.2-2,2.3-4,3.6-5.9c0.2-0.3,1.1,0,1.7,0L165.2,221.6z"/>
				<path class="st1" d="M83,147.8c-3.8-1.4-1.6-4.4-2.5-6.7C83.5,141.8,83.5,141.4,83,147.8z"/>
				<path class="st1" d="M35.6,224l-3.6-1.2c0.2-1.9,0.5-3.8,0.6-5.6c0.1-3.9,0-7.9,0-11.8l0.7,0v6.2c0,2.3,0.1,4.6,0,6.9
					C33.2,220.7,33.1,222.8,35.6,224L35.6,224L35.6,224z"/>
				<path class="st1" d="M318.4,192.7c2.3,0.2,2.1,2.1,2.9,3.5v-2.3l0.5-0.2c0.3,0.7,1.1,1.6,0.9,2c-0.8,1.4-2,2.3-3.9,1.8
					C318.7,196,318.6,194.5,318.4,192.7L318.4,192.7L318.4,192.7z"/>
				<path class="st1" d="M239,74.7l5.6-1.3l0.4,0.4l-1.2,0.1c0.8,1.2,1.3,1.9,1.8,2.7c-0.7,0.4-1.4,0.9-2.3,1.5
					C243,75.1,240.4,76,239,74.7z"/>
				<path class="st1" d="M235.9,69.1c-0.9-1.2-1.6-0.2-2.4,0.1c-0.9,0.3-1.7,0.6-2.6,0.8c-0.1,0-0.5-0.8-0.4-0.9
					c0.7-0.6,1.4-1.2,2.3-1.6c1.2-0.5,2.2-2.3,4-0.4C236.5,67.7,236.2,68.4,235.9,69.1L235.9,69.1L235.9,69.1L235.9,69.1z"/>
				<path class="st1" d="M214.6,159.7c0.5,0.2,1.4,0.4,1.5,0.8c0.4,1.1,0.8,2.3,0.6,3.3c-0.1,0.4-1.8,0.9-2.5,0.7
					c-1.5-0.5-2.9-1.5-4.3-2.4c-0.3-0.2-0.3-1-0.6-2c1.6,1.3,2.7,2.4,3.9,3.2c0.5,0.3,1.3,0.2,1.9,0.3c0-0.7,0.1-1.5,0-2.2
					c-0.1-0.5-0.5-0.9-0.8-1.3L214.6,159.7L214.6,159.7L214.6,159.7z"/>
				<path class="st1" d="M71.4,111.5c-1,0.4-1.9,0.9-2.9,1.4c2-1.2,1.7-3,1.4-5l-1.9,0.1c0.2-1,0.3-1.9,0.6-2.6
					c0.1-0.2,1.3-0.3,1.5,0c0.6,0.6,1.1,1.4,1.3,2.2C71.5,108.9,71.4,110.1,71.4,111.5L71.4,111.5L71.4,111.5z"/>
				<path class="st1" d="M97.1,25.5l-1.7,0.4l-4.2-1l0.1-0.8c1.9-1.3,4-1,6.3-0.1L97.1,25.5L97.1,25.5L97.1,25.5z"/>
				<path class="st1" d="M294.4,188.9c2,0.9,4,1.8,6.1,2.8c-1.4,1.2-3.9,1-6-0.7c-0.4-0.3-0.5-1.1-0.7-1.7L294.4,188.9L294.4,188.9
					L294.4,188.9z"/>
				<path class="st1" d="M224.1,279.6h-0.6c-2.3,0.5-4.6,1.1-6.9,1.5c-2.2,0.4-4.4,0.5-6.5,0.8l-0.1-0.6c0.9-0.2,1.8-0.4,2.7-0.6
					c3.5-0.6,7-1.1,10.5-1.6C223.5,279,223.8,279.4,224.1,279.6L224.1,279.6L224.1,279.6z"/>
				<path class="st1" d="M145.8,186.6l0.6-5.1c-0.7-0.2-1.6-0.5-2.4-0.8l0.2-0.6c0.6,0.2,1.2,0.4,2.2,0.7c-0.2-0.7-0.3-1.1-0.4-1.5
					l2.6,1.2c-0.6,2-1.2,4-1.9,6C146.5,186.7,145.8,186.6,145.8,186.6L145.8,186.6L145.8,186.6z"/>
				<path class="st1" d="M195.4,151.9c2,1.9,3.6,3.4,5.4,5.1c-0.9-0.2-1.6-0.4-2.3-0.5l-0.2,0.5c0.6,0.4,1.1,0.9,1.7,1.3
					C197.4,158,195.3,155.4,195.4,151.9L195.4,151.9L195.4,151.9z"/>
				<path class="st1" d="M130.3,179.5l0.8,0.9l-0.2,0.3c-1.2-0.8-2.4-1.6-4.1-2.7c2-1,3.7-1.8,5.3-2.6l0.6,0.6L130.3,179.5
					L130.3,179.5L130.3,179.5z"/>
				<path class="st1" d="M55.1,240.6c-0.9,2.1-2.9,2.5-4.8,3.1c-1.7,0.5-3.5,1-5.7,1.7c2.2,1.4,3.9,2.6,5.7,3.7c-2-1-4-2.1-6.5-3.4
					c1.1-0.7,1.7-1.2,2.4-1.4c1.9-0.7,3.9-1.1,5.8-1.9c0.8-0.3,1.4-1,2.1-1.5C54.3,240.6,54.8,240.6,55.1,240.6L55.1,240.6
					L55.1,240.6z"/>
				<path class="st1" d="M265.9,139.9c0.9,0.7,1.6,0.9,1.5-0.7c2.2,0.7,2.2,1.2,0.1,3.7c-1-0.2-1.8-0.3-2.6-0.5
					c-0.6-0.1-1.2-0.1-1.8-0.2c-0.2-0.1-0.2-0.6-0.3-0.9c0.3,0,0.7-0.2,0.8-0.1C265.6,143.1,265.3,140.7,265.9,139.9z"/>
				<path class="st1" d="M189.1,185.6c2.1,0.6,1.8,2.3,2,4.5c-1.4-0.8-2.4-1.4-3.5-1.9C188.2,187.3,188.7,186.4,189.1,185.6z"/>
				<path class="st1" d="M172.3,291.4c-0.4,1.5-0.9,2.9-1.3,4.4c-1.1-0.5-2-0.8-3.2-1.3l2.6-1.2c-0.4-0.7-0.8-1.4-1.3-2.1
					C170.3,291.2,171.2,291.3,172.3,291.4L172.3,291.4L172.3,291.4z"/>
				<path class="st1" d="M321.2,115c0-3.3,0-6.6,0.1-9.9c0-1.4,0.3-2.8,0.4-4.2l0.5,0v14.2C322.1,115.1,321.7,115,321.2,115
					L321.2,115L321.2,115L321.2,115z"/>
				<path class="st1" d="M135.8,111.8c1.7-0.8,3.3-1.6,5.1-2.4c0.4,0.4,0.8,0.9,1.3,1.5C140,111.9,138.1,113.5,135.8,111.8
					L135.8,111.8L135.8,111.8z"/>
				<path class="st1" d="M113.4,194.2h-3.2c-0.1-1-0.2-2.2-0.1-3.4c0-0.2,1.3-0.5,1.4-0.4C112.2,191.5,112.7,192.7,113.4,194.2
					L113.4,194.2L113.4,194.2z"/>
				<path class="st1" d="M221.2,118.8l-0.8-1.8c1.1-0.4,2.3-0.7,3.8-1.2c0.4,0.2,1.3,0.7,2.5,1.4L221.2,118.8L221.2,118.8
					L221.2,118.8z"/>
				<path class="st1" d="M212.3,279.7c2.9-1.5,5.8-3,8.8-4.4c0.2-0.1,0.6,0.1,0.9,0.2c-0.1,0.3-0.2,0.8-0.5,0.9
					c-1,0.5-2.1,0.9-3.2,1.2c-2,0.7-4,1.4-6,2.1L212.3,279.7L212.3,279.7L212.3,279.7z"/>
				<path class="st1" d="M140.6,175.5c0.1,0.7,0.2,1.5,0.3,2.4c0.6-0.3,1.1-0.6,1.1-0.6c0.9,0.3,1.4,0.5,2.1,0.8
					c-0.6,1.1-1.1,2.1-1.6,3.1C141.1,179.7,140.5,177.8,140.6,175.5L140.6,175.5L140.6,175.5z"/>
				<path class="st1" d="M259.6,265.1c1.4,0.4,2.9,1.4,3.8-0.8c1.3-0.4,2.6-0.7,4-1.1c0.1,0.3,0.2,0.6,0.3,0.9
					c-1.7,0.9-3.3,2-5.1,2.5C261.8,266.8,260.6,265.6,259.6,265.1L259.6,265.1L259.6,265.1z"/>
				<path class="st1" d="M242.4,114.8c0,0-0.3-0.2-0.6-0.3c-1.6-0.6-2.3-1.6-1.3-3.3c0.5-0.9,0.7-1.9,1.1-2.9l0.6,0.1
					C242.2,110.5,242.3,112.7,242.4,114.8L242.4,114.8L242.4,114.8z"/>
				<path class="st1" d="M206.3,295.2c-0.7-0.8-0.7-2.1,0.1-4c1,0.4,2,0.8,3.5,1.4C208.4,293.6,207.3,294.4,206.3,295.2L206.3,295.2
					L206.3,295.2L206.3,295.2z"/>
				<path class="st1" d="M251.9,244.1c0.4-0.6,0.5-0.9,0.7-1.2c0.3,0.4,0.7,0.8,1,1.2l0.4-0.2c-0.2-0.4-0.4-0.9-0.8-1.8
					c1,0.3,1.6,0.4,2.8,0.7c-0.7-0.9-1.2-1.4-1.5-1.9c1.6-0.1,2.8,0.8,2.1,2.4C255.7,245.4,253.7,244,251.9,244.1L251.9,244.1
					L251.9,244.1z"/>
				<path class="st1" d="M132.1,103.5c-0.7-0.9-1.9-1.8-2-2.8c-0.1-0.8,1.2-1.7,1.8-2.6l0.6,0.3v4.8L132.1,103.5L132.1,103.5
					L132.1,103.5z"/>
				<path class="st1" d="M193.3,300.7c-1.7,0.2-3,0.3-4.5,0.4c0.8-1.4,1.5-2.8,2.4-4.3C191.9,298.1,192.6,299.3,193.3,300.7
					L193.3,300.7L193.3,300.7z"/>
				<path class="st1" d="M280.1,246.8c-1.2-1.5-2.5-3-3.8-4.7l2.9-0.8c0.7,1.6-1,3.8,1.7,4.9L280.1,246.8z"/>
				<path class="st1" d="M252.4,138.8c-0.1,0.5-0.4,1-0.2,1.4c0.5,1.7-0.5,1.9-1.7,1.7c-0.6-0.1-1.1-0.4-1.6-0.6
					c0.3-0.4,0.7-0.7,0.9-1.2c0.2-0.4,0.3-0.9,0.5-1.6L252.4,138.8L252.4,138.8L252.4,138.8L252.4,138.8z"/>
				<path class="st1" d="M276.3,54v14.9h-0.4V54C275.9,54,276.3,54,276.3,54z"/>
				<path class="st1" d="M303.9,118.4l-1.1-1.1c3.8,1.7,7.7,3.3,11.5,5l-0.2,0.7c-1-0.4-2-0.9-3-1.3c-1.2-0.5-2.5-1.1-3.7-1.6
					C306.2,119.6,305,119,303.9,118.4L303.9,118.4L303.9,118.4z"/>
				<path class="st1" d="M208.5,171.6c-0.1,0.9-0.1,1.8-0.1,2.6h-0.4c0-0.9,0-1.9,0-2.9c0.1-0.9,0.2-1.8,0.3-2.6
					c1.4,0.3,1.9,3.9,0.7,7.6C208.7,174.8,208.6,173.2,208.5,171.6L208.5,171.6L208.5,171.6z"/>
				<path class="st1" d="M97.2,246.6c1.3-0.4,2.6-0.8,3.8-1.2l-0.1-0.6l-2.7-0.2l0-0.5c1.2,0.1,2.4,0.5,3.4,0.1
					c1.1-0.3,1.9-1.3,2.8-2C103.9,244.8,99.3,247.5,97.2,246.6L97.2,246.6L97.2,246.6z"/>
				<path class="st1" d="M126.1,226.4c-1.2,0.4-2.2,0.6-3.2,1c-0.3-1.3-1-2.5,0.5-3.1C124.9,223.7,125.4,224.9,126.1,226.4
					L126.1,226.4L126.1,226.4z"/>
				<path class="st1" d="M205.2,237.4c0.1-0.4,0.3-0.9,0.5-1.6c1.9,1.6,3.7,3.1,5.4,4.6l-0.3,0.5C209,239.8,207.2,238.6,205.2,237.4
					L205.2,237.4L205.2,237.4z"/>
				<path class="st1" d="M259.2,262.5c-1,0-2.4-0.4-1.9,1.5c-1.9,0.4-3.8,0.9-5.3,1.2c2.1-1.3,4.6-2.8,7-4.3l-0.2-0.5l2.6,1.4
					l-0.1,0.3c-0.6-0.2-1.2-0.4-1.8-0.5C259.5,261.6,259.4,262.2,259.2,262.5L259.2,262.5L259.2,262.5z"/>
				<path class="st1" d="M124.5,198.3c-1.4,1.5-2.7,1.3-3.7,0.5c-0.4-0.4-0.2-1.3-0.3-2l0.5-0.3C122.1,197,123.2,197.6,124.5,198.3
					L124.5,198.3L124.5,198.3z"/>
				<path class="st1" d="M277.7,190.6c-0.8,0.5-1.5,1-2.6,1.6c-1.1-0.5-2.5-1.2-4-1.9c1.5-0.1,3.1-0.3,4.6-0.3
					C276.4,190,277.1,190.4,277.7,190.6L277.7,190.6L277.7,190.6z"/>
				<path class="st1" d="M120.2,288.5c0.2-0.6,0.7-1.1,0.7-1.7c0.1-2.1,0-4.2,0-6.3l0.8,0c0,1.5-0.1,2.9,0,4.3
					c0.1,1.6,0.4,3.3,0.6,4.9C121.6,289.3,120.9,288.9,120.2,288.5C120.1,288.5,120.2,288.5,120.2,288.5z"/>
				<path class="st1" d="M252.7,59.6c-1.1,0.4-2.2,0.7-3.2,1.1c-0.5-2.9,0.3-3.3,4-2L252.7,59.6z"/>
				<path class="st1" d="M88.6,157.6c-1.4-0.6-2.8-1.2-4.1-1.9c-2.8-1.4-5.5-2.9-8.1-4.5C80.6,152.9,84.7,155,88.6,157.6L88.6,157.6
					L88.6,157.6L88.6,157.6z"/>
				<path class="st1" d="M231,211.5c0.2,0.9,0.4,1.7,0.6,2.4l-3.2,0.7c0-0.4-0.1-1,0.2-1.2C229.1,212.9,229.9,212.4,231,211.5z"/>
				<path class="st1" d="M228.9,67.8c0.1,1.1,0.1,2,0.1,3l-3.6-0.9v-0.6c0.7-0.3,1.4-0.6,2-0.8C228,68.3,228.6,68,228.9,67.8
					L228.9,67.8L228.9,67.8z"/>
				<path class="st1" d="M295.3,120.8l0.1-0.4c0.1,0.3,0.2,0.6,0.2,0.8c-0.1,0.8-0.2,1.6-0.4,2.9c-0.8-0.1-1.9-0.2-3-0.3l-0.1-0.5
					C293.1,122.4,294.2,121.6,295.3,120.8C295.2,120.8,295.3,120.8,295.3,120.8z"/>
				<path class="st1" d="M149,189.7c-1.1,1.3-2.2,1.2-3.3-0.4c0.5-0.7,0.9-1.3,1.4-2.1C147.7,188,148.4,188.8,149,189.7z"/>
				<path class="st1" d="M242.2,103.7V87.8h0.1v15.9H242.2z"/>
				<path class="st1" d="M176.1,92.9c0.3,1.5,0.6,3.1,0.9,4.8l-2.9,0.7l-0.2-1.8l1.7,0.8c0.1-0.6,0.4-1.1,0.4-1.7
					c0-0.9-0.1-1.8-0.2-2.8L176.1,92.9z"/>
				<path class="st1" d="M169.7,135.6c0.9-1.6,1.6-2.9,2.4-4.3c0.1,1.3,0.2,2.7,0.3,4.5C171.6,135.7,170.6,135.7,169.7,135.6
					L169.7,135.6L169.7,135.6z"/>
				<path class="st1" d="M76.7,108.7c0-0.7,0-1.4,0.1-2.1c0.2-1.1,1.8-1.9,2.6-1.2c0.3,0.2,0.1,0.9,0.1,1.4
					C77.8,106.2,78.1,108.5,76.7,108.7z"/>
				<path class="st1" d="M60.3,191.1c1.3-0.9,2.6-1.8,4-2.8l0.5,1c-1.1,0.8-2.1,1.6-3.2,2.2c-0.4,0.2-1,0.1-1.6,0.2
					C60.1,191.7,60.3,191.1,60.3,191.1z"/>
				<path class="st1" d="M176.4,290.4c-0.5,1-1,2.1-1.6,3.1l-0.7,0c-0.1-0.7-0.5-1.6-0.2-2.1c0.3-0.7,1.2-1.1,1.9-1.6L176.4,290.4z"
					/>
				<path class="st1" d="M374.2,189.9l2.1-0.6c0,0.9,0.3,2.2,0,2.4c-0.9,0.4-2,0.4-3,0.5l0-0.6c0.5,0.1,0.9,0.1,1.7,0.3
					C374.7,191.1,374.4,190.6,374.2,189.9L374.2,189.9L374.2,189.9z"/>
				<path class="st1" d="M122,126.2c-0.1,2-0.3,4-0.4,6h-0.4c-0.1-1.6-0.2-3.2-0.2-4.8C120.9,127,121.6,126.6,122,126.2L122,126.2
					L122,126.2L122,126.2z"/>
				<path class="st1" d="M200.5,155.4c2.6-2.1,2.7,1.1,4.2,1.4l-0.2,0.4C203.1,156.6,201.8,156,200.5,155.4z"/>
				<path class="st1" d="M244.1,228.5c0.4,0.7,1.1,1.3,1.1,1.8c-0.1,0.7-0.8,1.3-1.3,1.8c-0.1,0.1-0.6,0.1-0.8,0
					c-0.1-0.1-0.1-0.6-0.1-0.8C243.3,230.5,243.6,229.8,244.1,228.5z"/>
				<path class="st1" d="M276.8,222.3c-0.2,0.4-0.5,0.7-0.7,1c-1.7,0-2.7-1.1-3.9-2.8L276.8,222.3z"/>
				<path class="st1" d="M307.3,182.7c-0.3,1.1-0.6,2.2-0.9,3.5l-1.8-1.2c0.8-0.9,1.5-1.8,2.2-2.6L307.3,182.7L307.3,182.7
					L307.3,182.7z"/>
				<path class="st1" d="M311.5,84.7c-2.9-0.8-5.9-1.6-8.8-2.4l0.1-0.4c3,0.8,5.9,1.6,8.9,2.4L311.5,84.7L311.5,84.7L311.5,84.7z"/>
				<path class="st1" d="M392.2,211.8l-4.9-2.3c0.4-0.8,0.7-1.4,1-2.1C388.6,209.9,390.5,210.7,392.2,211.8z"/>
				<path class="st1" d="M290.9,131.3c-0.4-0.5-1-1.1-1.4-1.7c1.3-0.2,2.6-0.5,4.1-0.7c0.4,0.6,0.2,1-1,1.4
					C292,130.6,291.5,131,290.9,131.3L290.9,131.3L290.9,131.3z"/>
				<path class="st1" d="M237.5,149.8c2.3-1.6,2.9,1.8,4.8,1.4C240.1,152.4,239.1,150.1,237.5,149.8z"/>
				<path class="st1" d="M166,94.5l3.7-1.7c-1.2,1.5-2.1,2.7-3.1,4L166,94.5L166,94.5L166,94.5z"/>
				<path class="st1" d="M248.9,73.8c1.3,0.4,2.6,0.8,3.9,1.3l0.1,0.5l-2.5,0.8l-0.1-0.3l1.2-0.5l-2.8-1.1L248.9,73.8z"/>
				<path class="st1" d="M297.9,100.1c-0.1-1.7-0.3-3.4-0.3-5.1c0-0.3,0.7-0.6,1.2-1c-0.1,2.2-0.2,4.1-0.4,6L297.9,100.1
					L297.9,100.1L297.9,100.1z"/>
				<path class="st1" d="M331.6,222.1c-1.3,0.7-2.5,1.6-4,0.9l-0.1-0.6c1.3-0.3,2.7-0.7,4-1C331.5,221.6,331.6,221.9,331.6,222.1
					L331.6,222.1L331.6,222.1z"/>
				<path class="st1" d="M274.2,273.8l-2,0.8c-1,0.4-2,0.7-3,1.1l-0.2-0.4c1.7-0.9,3.4-1.8,5.6-2.9L274.2,273.8L274.2,273.8
					L274.2,273.8z"/>
				<path class="st1" d="M228.7,102.9c1.2-0.5,2.3,2.1,3.4,0.1v3C232.4,103.4,229,104.9,228.7,102.9z"/>
				<path class="st1" d="M219.8,38.8c-0.4-1-0.7-2-1.1-3.2h2.4C220.6,36.7,220.2,37.7,219.8,38.8z"/>
				<path class="st1" d="M235.6,229.4l3.7,0.3c-0.7,0.6-1.1,1.1-1.4,1.1c-0.9-0.1-1.7-0.5-2.6-0.7L235.6,229.4L235.6,229.4
					L235.6,229.4z"/>
				<path class="st1" d="M305.7,190.9c1.4,0.4,2.3,0.7,3.4,1C308.3,192.9,307.1,192.6,305.7,190.9z"/>
				<path class="st1" d="M252.5,138.9c0-0.5,0.1-1,0.1-2l2.9,2.1l-0.3,0.6C254.3,139.3,253.4,139.1,252.5,138.9L252.5,138.9
					L252.5,138.9L252.5,138.9z"/>
				<path class="st1" d="M169.4,50.1l-2.2-0.4v1.8l-0.6,0.1c-0.1-0.7-0.1-1.4-0.2-2.1h3.1L169.4,50.1L169.4,50.1L169.4,50.1z"/>
				<path class="st1" d="M356,199.6l-2.6-2.9c1.1,0.1,2.2-0.1,2.4,0.2C356.1,197.6,356,198.4,356,199.6L356,199.6L356,199.6z"/>
				<path class="st1" d="M261.5,53.8c-1.5,0.4-2.1-0.2-2-1.8c0.1-0.9,0-1.9,0-2.8l0.6,0c0,1,0.1,2,0,3
					C260.1,53.2,260.5,53.7,261.5,53.8L261.5,53.8L261.5,53.8L261.5,53.8z"/>
				<path class="st1" d="M377.5,204.5c0.3-0.7,0.5-1.2,0.8-2.3c0.6,1.3,1,2.2,1.6,3.7C378.8,205.2,378.1,204.8,377.5,204.5
					L377.5,204.5z"/>
				<path class="st1" d="M121.5,141.8v-7.1l0.1-0.1c0.1,0.7,0.3,1.4,0.3,2.1c0.1,1.4,0.2,2.9,0.2,4.4
					C122.1,141.3,121.7,141.5,121.5,141.8L121.5,141.8L121.5,141.8z"/>
				<path class="st1" d="M158.5,214.3c-0.9-0.1-1.8-0.2-2.7-0.3c0.1-0.4,0.2-1,0.3-1c0.8,0.1,1.6,0.3,2.5,0.5L158.5,214.3
					L158.5,214.3L158.5,214.3z"/>
				<path class="st1" d="M301.4,190.7c-2-1-4-1.9-6-2.9l0.2-0.4c2,1,4,2,6,3L301.4,190.7L301.4,190.7L301.4,190.7z"/>
				<path class="st1" d="M103.2,230.5l-0.3-3c1.1,0.6,1.8,0.9,2.6,1.4C104.9,229.4,104.3,229.8,103.2,230.5L103.2,230.5L103.2,230.5
					z"/>
				<path class="st1" d="M166.1,314.6c-2.1-0.9-4.2-1.7-6.2-2.8c-3.7-2-7.3-4.1-10.9-6.3c0.4,0,0.9,0,1.2,0.2
					c5.1,2.8,10.1,5.5,15.2,8.3C165.7,314.1,165.9,314.4,166.1,314.6L166.1,314.6z"/>
				<path class="st1" d="M152.9,302.3h0.9c2.2,0.9,4.1,2.5,6.7,2.8c0.9,0.1,1.6,1.4,2.3,2.3C159.5,305.8,156.2,304.1,152.9,302.3
					L152.9,302.3L152.9,302.3z"/>
				<path class="st1" d="M166.2,312.6c-0.7-0.2-1.4-0.4-2.1-0.7c-2.6-1.4-5.2-2.8-7.8-4.2l0.2-0.4
					C159.7,309.1,162.9,310.9,166.2,312.6L166.2,312.6L166.2,312.6L166.2,312.6z"/>
				<path class="st1" d="M144.5,297.7c2.6,1.4,5.3,2.9,7.9,4.3C149.8,300.6,147.2,299.1,144.5,297.7z"/>
				<path class="st1" d="M144.9,300.1c2.1,1,4.1,1.9,6.2,2.9l-0.4,0.7C148.8,302.5,146.9,301.3,144.9,300.1L144.9,300.1L144.9,300.1
					L144.9,300.1z"/>
				<path class="st1" d="M320.1,181.6c0.2-0.6,0.2-1.3,0.5-1.8c0.8-1.1,1.7-1.9,2.5-3c0.2-0.2,0-0.7-0.1-1.3
					c1.9,0.9,3.7,1.8,5.7,2.7c-0.7,1.2-1.3,2.2-2,3.3c0.6,0.2,1,0.3,1.5,0.5c-0.2,0.3-0.4,0.5-0.5,0.5c-1.1-0.4-2.3-0.5-3.2-1.1
					c-1.5-1-2.7-1.5-3.9,0.6L320.1,181.6L320.1,181.6L320.1,181.6z"/>
				<path class="st1" d="M330.4,176.7c-0.1,0.5-0.1,1-0.2,1.5c-1.7-0.9-3.5-1.8-5.3-2.7l0.3-0.6l1.6,0.6l0.1-0.9
					C328.2,175.4,329.4,176.1,330.4,176.7L330.4,176.7L330.4,176.7z"/>
				<path class="st1" d="M239.5,10.3c-1.3,1.7-2.8,1.9-4.5,0.6C236.3,9.1,236.7,9,239.5,10.3z"/>
				<path class="st1" d="M235.4,14.7c-0.8,0.3-1.5,0.8-2.3,0.8c-0.3,0-1.1-1.2-0.9-1.4c0.9-1.7,1.9,0.1,3,0L235.4,14.7L235.4,14.7
					L235.4,14.7z"/>
				<path class="st1" d="M183.5,32.5c0.9-1,1.3-1.6,1.8-2.1c0.5-0.4,1.2-1,1.8-1c0.4,0,1,1,1.1,1.6c0,0.4-0.9,0.9-1.4,1.1
					C185.9,32.4,184.8,32.4,183.5,32.5L183.5,32.5L183.5,32.5z"/>
			</g>
		</g>
	</g>
</g>
</svg>
