<?xml version="1.0" encoding="UTF-8"?><svg id="b" xmlns="http://www.w3.org/2000/svg" viewBox="0 0 44.07 28.05"><g id="c"><g id="d"><g id="e"><g><path d="M7.83,21.02l-.65,.15,.08-.24-.55-.05v-.35l.46,.17,.34-.98-.37-.25c-.25,.29-.15,.74-.56,.87l.06,.11-.27,.23-.12-.23-.87,.77-.21-.49c-.16,.56-.16,.55,.3,.63,.19,.03,.38,.13,.58,.2l-.08,.34c.23-.19,.71,.11,.48-.61l.19,.16v.65h0l-.38-.13-.21,.65h.22l-.21,.23c-.14-.12-.24-.24-.37-.29-.14-.06-.3-.05-.47-.08,0-.17-.07-.23-.65-.57-.28,.05-.46,.08-.64,.11h0l.19-1.15-.7,.17c.4-.41,.08-1.09,.58-1.46,.04-.03,0-.17,0-.25v-.46l.09-.04,.33,.47c.02-.6,.35-1.12-.02-1.62l-.39,.03h0c.13-.15,.59-.14,.26-.52h0c.07,0,.14-.04,.21-.04,.29,.02,.58,.06,.88,.09-.05,.47-.41,.08-.63,.18v2.56l.2,.02,.3-2.28h.07l-.12,1.56c.39-.3,.14-.75,.3-1.17v.91h.05l.2-.61,.07,.62,.66,.05c0-.79,0-1.61,0-2.43,0-.11,.13-.31,.22-.33,.67-.09,.68-.08,1.11-.56-.12,.07-.24,.13-.36,.2-.13,.08-.27,.16-.47,.29v-3.08c.33-.09,.67-.16,.99-.28,.11-.04,.21-.18,.26-.3,.04-.11,0-.25,0-.38h0l.53-.29c-.28,.49-.18,.7,.41,.79,.13,.02,.29,0,.41-.06,.34-.16,.67-.35,1-.52l-.03-.13c-.42-.14-.83-.28-1.24-.42l.2-.3,.46,.07v-.63h-.01l.99,.52-.17-.32,.74,.23,.05-.12-.12,.18,.04,.07c.57-.23,1.15-.46,1.72-.69,.58-.23,1.16-.46,1.74-.7v-2.16c.23,.17,.38,.34,.57,.42,1.17,.53,2.36,1.02,3.54,1.55,.59,.26,1.17,.56,1.75,.84l.1-.07-.18-.67s.05,0,.13,0c.03-.35-.55-.8-.88-.72-.2,.05-.43,.03-.64,.05l-.02-.11,.44,.02c-.53-.49-.99-.1-1.44-.06v-.16l1.45-.2c-.06-.05-.14-.15-.25-.18-.41-.11-.78,.03-1.16,.17-.19,.07-.43,.02-.64,0-.35-.04-.26-.29-.26-.52,0-.08-.1-.17-.16-.25h.01l.11-.77-.64-.09,.36-.18-1.01-.82c.12-.1,.21-.17,.3-.24,.03,.07,.05,.16,.11,.2,.29,.2,.59,.38,.89,.57-.03,.03-.06,.05-.09,.08,.27,.25,.52,.52,.96,.44l-.89-.53-.22-.4c.25-.01,.43,.03,.59,.28,.12,.19,.36,.3,.64,.4l-.15-.76-.33,.1c-.11-.13-.33-.3-.38-.5-.08-.33-.05-.68-.04-1.03,.01-.44,.1-.89,.07-1.32-.03-.36,.08-.62,.34-.8,.16-.11,.55,.31,.63,.67l-.81-.05v.51h.06s.03-.13,.08-.16c.1-.07,.21-.15,.33-.16,.05,0,.1,.18,.16,.27,.08,.13,.16,.25,.24,.38,.05-.13,.14-.27,.15-.4,.01-.32,.02-.64-.04-.96-.03-.13-.22-.32-.35-.32-.35-.01-.78-.23-.69-.46,.07-.18,.39-.28,.63-.42l.16,.45,.68-.2c.17,1.98-.25,3.93,.59,5.78-.01,0,.07-.01,.19-.03l-.12,.41,.75-.31-.08,.3,.36,.13,.22-1.31-.15-.03-.08,.41h-.05v-1.09h.05l.06,.48h.09v-.89c.3-.1,.47-.05,.48,.31,0,.32,.05,.64,.08,.99,.21-.05,.46,.01,.66-.27,.19-.26,.28-.44,.13-.76-.09-.2,.02-.49,.01-.75,0-.33-.03-.65-.05-1-.35,.03-.32,.33-.3,.58,.01,.23-.05,.38-.29,.38-.22,0-.47-.03-.45-.41,.1,.02,.17,.05,.25,.04,.07,0,.13-.03,.23-.06l.11,.46c.06-.16,.1-.21,.1-.27,0-.68,0-1.37,0-2.06,0-.13,.09-.27,.14-.4l.31,.28c-.12,.12-.26,.2-.25,.27,0,.29-.16,.64,.2,.84,.05-.37,.11-.72,.13-1.08,0-.19-.06-.39-.14-.57-.14-.33-.09-.55,.38-.74V5.58l.34-.24-.15,1.43,.13,.09,.44-.3,.03,.25,.4-.02V2.79l.38,.49c-.09,.14-.24,.26-.24,.39,0,.98,.02,1.95,.05,2.93,0,.1,.13,.19,.19,.28l.12-.07c0-.92-.02-1.84,0-2.76,.02-.94,.09-1.88,.13-2.78l-.69-.18,.02-.14,.93-.07V6.31c.55-.21,1.06-.4,1.56-.62,.08-.04,.13-.19,.17-.29,.04-.1,.05-.22,.08-.32l.13,.02c-.01,.2-.03,.41-.04,.61h.05c.01-.21,.02-.43,.04-.65,.02-.23,.04-.46,.08-.69,.03-.2,.08-.4,.12-.59l.16,.03c.06,.57,.12,1.15,.19,1.78l.74-.26c-.06,.13-.08,.26-.15,.31-.1,.07-.24,.09-.36,.14-.3,.11-.76,.15-.27,.62,.05,.05,0,.18,0,.29l.64-.22-.05,.74c.42-.32,.41-.66,.02-1.05,.23-.29,.29-.28,.37,.05,.04,.18,.07,.37,.13,.67l.09-.42,.26,.28c-.03-.16-.05-.25-.06-.35,0-.01,.01-.04,.02-.04,.03,0,.05,0,.08,.01,.34,.35,1.65,.31,1.84,0-.23-.07-.46-.17-.71-.21-.1-.02-.28,.03-.31,.11-.14,.31-.32,.24-.52,.14,.1-.49,.41-.61,.84-.55l-.51-.12c.11-.24,.2-.46,.29-.66,.1,.03,.13,.04,.15,.05,.12,.03,.24,.05,.37,.08-.05-.09-.13-.18-.16-.28-.02-.06,.02-.14,.03-.22l-.47,.03c-.05-.18-.08-.35-.15-.49-.04-.08-.15-.13-.23-.2-.05,.08-.11,.16-.13,.25-.03,.16-.04,.33-.05,.49l-.55,.07c.08,.34,.07,.82,.25,.91,.53,.26,.14,.41,0,.61-.12-.18-.25-.35-.36-.54-.08-.12-.13-.25-.2-.37-.08-.14-.18-.28-.29-.46,.05-.17,.14-.42,.18-.67,.02-.12-.06-.25-.09-.37-.02-.09-.08-.23-.04-.27,.31-.34,.14-.66,.04-1.03-.08-.29,.03-.62,.03-.93,0-.18-.06-.35-.08-.53-.03-.26-.15-.54,.24-.67,.21-.07,.3-.24,0-.42l-.15,.22-.11-.06c.06-.09,.1-.23,.18-.25,.11-.04,.25,0,.42,.01,0,.99,0,1.99,0,2.98,0,.27,.05,.41,.33,.52,.18,.06,.29,.29,.53,.42V1.8c.61,.29,1.03-.02,1.4-.46h-.01c.33-.09,.36,.1,.37,.35,0,1.03,.02,2.06,.04,3.09,0,.14,.02,.27,.03,.41h.14V.31h.12c.05,1.32,.1,2.63,.15,4.05,.57-.24,1.1-.43,1.59-.69,.14-.08,.19-.37,.24-.58,.04-.16,.03-.34,.14-.51l.06,1,.43-.28c-.6-.18-.1-.39-.05-.58,.07-.27,.17-.54,.25-.81h.14l.19,.24c-.03,.06-.03,.09-.04,.09-.7,.16-.19,.7-.33,1.05-.03,.09,.11,.24,.17,.36l.37-.3c.16,.22-.03,.41-.27,.44-.33,.05-.37,.23-.35,.48,.02,.33,.04,.66,.09,.99,.01,.11,.1,.2,.15,.3,.08-.09,.23-.16,.24-.26,.02-.16-.05-.34,0-.53,.05,.26,.11,.52,.18,.86,.12-.08,.26-.18,.41-.28,.07,.04,.14,.08,.2,.13-.02,.13-.05,.27-.1,.55,.33-.13,.58-.21,.81-.34,.05-.03,0-.23,0-.35h.01c0-.35-.01-.71,0-1.06,0-.11,.1-.22,.15-.33,.07,.08,.18,.15,.2,.24,.07,.22,.12,.45,.15,.68,.03,.28-.06,.59,.32,.73,.05,.02,.05,.2,.05,.3,0,1.07,0,2.14,0,3.18,.45,.24,.85,.44,1.25,.65,.04,.02,.09,.09,.08,.13,0,.37,.11,.35,.38,.17,.07-.05,.3,.15,.52,.27,.28-.14,.52-.12,.58,.38,.02,.15,.29,.28,.52,.48v-.46c.24,.36,.53,.46,.85,.37,.17,.25,.32,.47,.47,.69l.12-.07-.12-.3,.71,.35,.12-.09v2.77l-.62,.59-.47-.02v-.42l-.13-.02-.07,.54c-.2-.15-.6-.01-.69-.5-.13,.22-.26,.44-.39,.66,0-.1,.02-.2,.04-.38-.37,.3-.78,.42-.9,.85,0-.49-.1-.57-.58-.59-.08,0-.17-.08-.23-.14-.07-.06-.12-.15-.25-.2l.07,.36-.6-.3c-.05,.25,.32,.55-.12,.67l.03-.37c-.07,0-.18-.03-.2,0-.05,.12-.05,.26-.11,.36-.16,.28-.33,.57-.55,.82-.05,.05-.3-.07-.46-.11l-.08-.17-.14,.36-.11-.1c.25-.41,.51-.82,.82-1.32-.24,.08-.49,.38-.77,.88-.05-.08-.11-.14-.15-.21-.03-.06-.04-.13-.09-.33-.05,.27-.43,.16-.27,.49,0,.01-.07,.1-.11,.1-.04,0-.1-.05-.12-.09-.05-.12-.07-.25-.1-.37-.27,.15-.25,.15-.14,.43,.06,.15,.05,.34,.06,.46-.39,0-.72,.03-1.03-.01-.1-.01-.19-.18-.34-.34,.08,.48-.05,.79-.48,.93-.06,.02-.05,.23-.09,.47,.25-.26,.28-.66,.65-.39l.2-.39s.08,.1,.07,.13c-.08,.15-.16,.31-.27,.43-.07,.08-.19,.14-.3,.17-.12,.04-.26,0-.36,.06-.24,.12-.46,.3-.76,.15-.02,0-.09,.05-.11,.09-.14,.24-.33,.33-.61,.31-.59-.05-.81,.08-1.05,.54l-.14-.16,.4-.41-1.2,.1-.09,.39c-.06-.17-.09-.42-.17-.43-.45-.08-.69,.19-.8,.58-.21-.13-.4-.23-.58-.34l-.1,.13,.3,.11-.05,.13-.55,.24-.05-.11,.48-.15c-.17-.08-.27-.18-.35-.16-.23,.05-.46,.13-.68,.21-.06,.02-.17,.1-.16,.11,.13,.24-.07,.41-.19,.33-.27-.18-.77,.26-.88-.32,.39-.21,.51-.56,.37-1.03,.17,.32,.53-.77,.73,.08-.08-.21-.13-.45-.26-.62-.16-.22-.39-.15-.63-.05-.27,.11-.23,.26-.17,.48,.08,.25,.11,.52,.18,.84l-.61-.27h0c.26-.28,.09-.45-.19-.6,.02,.11,.04,.22,.07,.32-.01,0-.03,.02-.04,.02-.28-.08-.56-.17-.93-.28l.45-.19-.58-.27c.07,.28-.13,.58-.62,.89-.73,.48-.03-.02-.03-.03,.03-.08,.05-.16,.05-.15l-.46-.13c-.13,.27-.26,.56-.42,.82-.02,.03-.18-.02-.27-.08,.45-.1,.28-.44,.35-.68l-.95,.95c.23,0,.53-.09,.71,.02,.51,.29,.6-.15,.86-.48l.61,.64-1.05,.17,.17,.23-1.03-.38c-.28,.48-.73,.54-1.34,.08l.81-.1,.02-.09c-.18-.03-.37-.11-.52-.07-.3,.09-.58,.24-.86,.4-.05,.03-.03,.18-.04,.29-.11-.06-.21-.13-.32-.19,.28-.31,.14-.9-.25-1-.11,.38-.11,.74,.26,1.01l-.68,.3,.22-.92-.2,.1-.08-.89h-.15l-.13,1.26h-.1l-.09-.53h-.12l-.09,.73c-.33,.01-.51,.19-.39,.68l-.64-.47,.09-.13,.28,.12c-.01-.08,0-.17-.03-.19-.47-.32-.25-.8-.28-1.22-.03-.36-.08-.42-.52-.58,.05,1.2,.1,2.38,.15,3.57h.06c0-.18-.03-.36-.02-.55,0-.15,.01-.35,.1-.42,.08-.06,.28,.01,.42,.05,.15,.03,.31,.07,.45,.14,.15,.08,.27,.19,.41,.29v-.89c.21,.51-.13,1.24,.7,1.47l.12-.37c.26,.13,.28,.7,.85,.35l-.33,.44h.01l-.54-.22-.09,.2,.43,.22v.05c-.23-.05-.44-.11-.68-.17-.18,.55-.74,.17-1.11,.37l.2,.29-.06,.07-.46-.39-.1,.52c-.31-.23-.43-.73-.95-.58,.34,.14,.67,.27,.42,.71-.23-.04-.45-.05-.64-.13-.32-.13-.39-.02-.35,.29-.14-.45-.62-.83-.15-1.37-.35,.13-.36,.13-.26,.95,.04,.36,.12,.72,.12,1.1l-.28-.79-.12,.05,.18,.44-.69-.24c-.26,.09-.05,.41-.05,.63,0,.23,.09,.46,.14,.69l-.1,.06-.35-.43-.25,.17-.05-.06,.3-.33c-.33-.04-.58-.02-.51,.38,0,.06-.21,.24-.24,.22-.4-.25-.51,.12-.74,.19-.2,.03-.43,.03-.6,.12-.1,.05-.1,.27-.17,.4-.05,.09-.16,.22-.24,.22-.38,0-.87,.11-1.12-.08-.52-.4-.94-.17-1.41,.06l-.03-.14,.38-.2-.39-.24,.71-.25-.04-.11c-.29,.12-.57,.26-.87,.33-.18,.05-.38-.01-.68-.03,.34-.13,.58-.23,.86-.33l-.97-.72,.08-.1c.91,.59,1.97,.68,3,.82,.26,.04,.56-.24,.84-.37l-.07-.14c-.12,.06-.26,.11-.35,.2-.19,.19-.42,.23-.6,.08-.5-.42-1.15-.15-1.68-.41-.22-.1-.47-.14-.69-.23-.43-.18-.44-.7-.1-1.02,.53-.51,1.04-1.03,1.49-1.61,.44-.56,.8-1.2,1.19-1.79h-.5l-.03-.1-.41,.43c-.13-.12-.39-.24-.41-.39-.03-.33,.05-.67,.11-1.01,.03-.19,.12-.37,.21-.62,.34,.34-.1,.7,.02,1.05,.31-.15,.38-.4,.36-.68-.02-.36-.03-.73-.08-1.09-.02-.16-.12-.32-.18-.48-.17,.15-.39,.28-.5,.47-.14,.22-.19,.49-.26,.7-.03,.01,.06-.03,.15-.07l.05,.06-.46,.38c.09,0,.14,.01,.1,0,0,.25-.08,.52-.01,.73,.08,.25,.04,.41-.13,.57h.02c-.08,0-.19,0-.24,.04-.36,.38-.71,.78-1.03,1.14h-.5l.03,.21c.38-.12,.76-.25,1.15-.36,.07-.02,.15,.01,.23,.02h-.01c-.19,.12-.38,.24-.56,.37-.15,.1-.31,.2-.06,.37-.18-.11-.37-.22-.56-.34-.16,.2-.26,.44-.05,.71l-.02-.02h0Zm8.67-5.99c.31-.02,.59-.44,.93-.06,0,0,.12-.09,.19-.13-.07-.07-.13-.17-.22-.2-.14-.05-.29-.07-.38-.08l-.52,.22,.38-.46c-.31-.32-1.39-.07-1.56,.35,.4-.03,.6,.19,.5,.49,.22-.12,.46-.25,.69-.38,0,.1,0,.19,0,.28h-.19c.06,.11,.1,.29,.18,.31,.16,.05,.35,.03,.51-.01,.05-.02,.06-.2,.12-.43l-.59,.37-.04-.25h0Zm15.04-1.47c-.17-.02-.34-.06-.51-.07-.35-.02-.71-.03-1.06-.01-.09,0-.17,.12-.25,.19,.08,.08,.14,.19,.23,.22,.59,.21,1.09-.07,1.58-.34l.9-.24c-1.03-.35-1.47-.37-1.91-.1l1.02,.35Zm-19.41,5.22c-.38,.34-.64,.76-.92,1.17l.11,.14,.83-.32-.11,.33,.56-.38c-.17-.33-.33-.65-.49-.96,.18,.15,.35,.4,.61,.09,.01-.01,.2,.11,.3,.18,.09,.06,.17,.13,.25,.19l.12-.14-.83-.92c-.07,.11-.05,.16-.03,.21,.04,.11,.09,.21,.13,.32-.13,0-.25,.01-.38,.03-.05,0-.1,.04-.15,.06Zm7.83-6.37l-.64-.25v.04c.78,.44,1.56,.89,2.3,1.31-.18-.46-.43-.67-1.19-.95l.4,.04c0-.46-.02-.86,0-1.27,.04-.52-.17-.79-.71-.78,0,.16,.01,.33,0,.5-.05,.46-.1,.91-.16,1.36h0Zm-4.48-1.78c-.37-.04-.45,.21-.46,.49-.02,.48-.01,.96-.01,1.44v1.15l.18,.05c.07-.14,.18-.28,.19-.42,.02-.54,0-1.07,.02-1.61,.01-.37,.06-.74,.09-1.12v3.08c.25-.22,.55-.35,.56-.51,.05-.9,.02-1.81,.02-2.73-.22,.06-.4,.11-.58,.17h0Zm24.77,3.03c-.07-.04-.17-.13-.21-.11-.32,.16-.62,.12-.95,0-.1-.04-.28,.15-.43,.23,.21,.11,.37,.13,.52,.15,.17,.02,.35,.04,.52,.05-.1,.12-.22,.13-.33,.16-.12,.04-.24,.1-.35,.16-.31,.19-.29,.51,.03,.63l.12-.56c.08,.82,.55,.23,.83,.33l-.2-.26,.23-.08c.34,.4,.7,0,1.11,.15l-.29-.51c-.01-.81-.02-1.62-.04-2.43,0-.14-.11-.28-.17-.41l-.08,.04-.09,.42,.07-.11-1.01-.65c-.05,.74,0,.84,.51,1.14,.18,.1,.46,.24,.46,.38,.03,.43,.2,.93-.26,1.27h0Zm-23.31-3.66c-.75-.55-1.57-.62-1.84-.08,.64-.47,1.19-.03,1.77,.09,.03,0,.05-.01,.08-.02-.09,.1-.17,.23-.28,.28-.31,.13-.23,.28-.04,.43,.07,.06,.17,.08,.17,.08-.08,.22-.16,.38-.18,.55-.03,.26,0,.52-.01,.78-.04,.43,.18,.59,.59,.64v-1.92c.56,.5,.79-.13,1.17-.22l-.03-.12-1.12,.27,.1-.29,.21,.13,.1-.11c-.11-.1-.22-.22-.35-.31-.1-.08-.22-.12-.33-.18h0Zm-7.7,4.62l.35-.17-.14-.24c-.11,.07-.27,.1-.34,.2-.29,.43-.51,.93-.85,1.31-.36,.41-.47,.85-.5,1.35-.01,.2-.03,.4-.04,.6h-.11l.13-1.45c-.81,.38-.88,.66-.43,1.75l.17-1.11c.08,.17,.06,.33,.05,.49,0,.17,0,.34,0,.51,.81-.12,1.01-.39,.8-1.13-.1-.36-.06-.68,.17-.98l.05,1.35c.22-.51,.32-1.02,.53-1.48,.16-.34,.32-.64,.15-1.01h0Zm6.9,2.24c-.1-.38,.18-.54,.48-.7l-.55-.45c.08-.04,.13-.03,.17,0,.31,.2,.59,.38,1.03,.31,.26-.04,.57,.19,.84,.33,.04,.02,.03,.18,.04,.3-1.18-.54-1.48-.5-1.67,.17l.98,.33-.17-.43,.09-.06,.41,.46,.18-.33,.07,.03-.11,.54,.43-.15-.1-.09c.03-.11,.02-.27,.09-.33,.24-.23,.54-.39,.76-.64,.21-.23,.59-.41,.44-.84l.22-.07c-.06-.09-.11-.22-.2-.25-.38-.12-.77-.22-1.24-.35,.19-.13,.31-.27,.45-.29,.08-.02,.19,.15,.29,.23,.13-.51-.34-.36-.48-.45l-.61,.36,.2,.32c-.3,.2-.6,.39-.89,.6-.3,.23-.59,.45-.99,.18-.1-.07-.26-.06-.43-.09,.03,.51-.13,.99,.26,1.36-.63-.22-1.24,.31-1.32,1.04,.41-.32,.86-.68,1.32-1.05h0Zm-5.34,5.28h-1.09l.53,.88,.13-.05-.16-.64,.67,.11c.11,.26,.17,0,.24-.03,.13-.05,.24-.12,.36-.18l.11,.43c.35-.47,.68-.91,1.01-1.36l.12,.08-1.44,2.16,.11,.07c1.03-1.34,1.88-2.79,2.55-4.38-1.2,.82-2.72,1.22-3.35,2.75l.2,.15h0Zm-.68-9.19l.26,1.92h.13l.13-.57,.36,1.2-.58-.15-.1,.08,.6,.84,.4-.21,.12-.45,.12,.03v.36h.04c.12-.89,.23-1.78,.36-2.73,.23,.56,.76,.48,1.15,.66l-.7-.38v-.11c.25,0,.7-.05,.71,0,.15,.53,.62,.4,1.01,.63v-2.88c-.61,.24-1.22,.48-1.84,.71-.13,.05-.29,.07-.41,.15-.32,.23-.61,.59-1.08,.18l-.1,.44-.05-.23h-.11l-.18,.73-.04-.45h-.08c-.03,.08-.07,.16-.1,.23l-.22,.41-.04-.25h-.06l-.07,.38-.17-.4c-.04,.17-.06,.26-.06,.26l-.57-.31v1.24c.13-.11,.22-.2,.32-.27,.1-.07,.22-.14,.34-.18,.6-.22,.6-.22,.52-.88h0Zm21.94-6.19c-.45-.06-.9-.38-1.34,.06l.18,.16-.52,.04c.29,.22,.53,.4,.82,.61-.66,.25-1.27,.48-1.88,.71l-.02-.14-.99,.3c.03,.31,.04,.66-.51,.5l.06-.29,.27,.18,.06-.06-.26-.72c-.26,.33-.47,.6-.71,.91l-.44,.05v-.07l.36-.13c.11-.24,.31-.39,.43-.59,.18-.31,.37-.35,.69-.21l-.35-.29,.12-.39-.12-.07c-.1,.15-.24,.29-.3,.46-.15,.38-.13,.39-.67,.55,.28-.34,.68-.57,.39-1.01l.41,.04-.45-.36-.16,.43-.29-.08,.09,.61c-.17-.22-.36-.29-.58-.23h.01c.24-.36,.14-.8,.23-1.21l-.29-.05,.27-.13-.07-.15c-.61,.03-1.12,.39-1.77,.62l.45,.03,.03,.12c-.15,.05-.3,.12-.46,.14-.54,.08-1.08,.15-1.62,.23-.08,.01-.15,.11-.23,.16l.06,.08,.38-.17c-.23,.37-.17,.71,.17,1.03,.16,.15,.32,.3,.48,.44,.19,.18,.2,.18-.15,.56-.05,.05-.22-.01-.33-.03-.01,0-.02-.04-.03-.06l.39-.15-1.08-.64c.13-.04,.2,0,.28,.03,.08,.03,.17,.04,.26,.05l.05-.09-.66-.63v-.25l-.1-.03-.16,.34-.4,.18,.26-.41-.07-.12-.63,.12v.07l.33,.1-.45,.15v.09l.42,.04c-.13,.04-.26,.09-.39,.13-.19,1.01-.1,1.26,.42,1.25-.02,.39-.11,.73-.52,.78-.1,.6,.31,.73,.7,.88,.22,.08,.43,.18,.62,.31,.1,.06,.22,.2,.22,.3,0,1.42,0,2.85-.01,4.27,0,.43,.02,.86,.03,1.29h.15v-.7c0-1.55,.01-3.11,0-4.66,0-.31,.09-.48,.39-.58,.39-.13,.76-.28,1.14-.44,1.66-.71,3.31-1.44,4.96-2.15,1.25-.54,2.51-1.06,3.76-1.59,.81-.34,1.63-.68,2.45-1.02,.17-.07,.34-.15,.51-.23l-.07-.14-1.04,.38,.02-.12-1.01-.2c0,.21,.07,.44-.02,.54-.13,.14-.35,.2-.55,.27-.15,.05-.31,.03-.46,.08-.34,.1-.68,.21-.97,.3-.11-.17-.16-.25-.21-.33,.35,.11,.67,.18,1.04,0,.32-.16,.57-.3,.46-.7-.08-.3-.29-.54-.58-.56-.42-.03-.85,.04-1.27,.06-.14,0-.28,.05-.42,.03-.3-.03-.6-.1-.9-.12-.11,0-.23,.08-.35,.13,.12,.1,.23,.25,.36,.28,.19,.05,.41,.01,.61,.01l-.07,.11c.15,.15,.27,.37,.45,.44,.18,.08,.41,.02,.64,.02l.03,.29h-.03Zm-.71,4.05c1.46,.48,2.63-.09,3.83-.62-.31-.11-.6-.19-.85-.32-.49-.26-.95-.24-1.44,.01-.37,.19-.78,.32-1.17,.47-.04,.02-.07,.05-.12,.08l.18,.2-.42,.18h0Zm-4.42,3.11l.15-.1-.27-.41,.43-.16,.04,.34c.56-.25,1.09-.48,1.66-.74-.24-.08-.37-.14-.51-.17-.54-.1-1.04-.36-1.64-.25-.66,.13-1.31,.53-2.03,.25-.01,0-.05,.05-.07,.08,.76,.39,1.51,.78,2.25,1.16h0Zm6.98-4.78l-.04-.18c-.4-.07-.84-.25-1.21-.17-.57,.13-1.12,.4-1.62,.7-.16,.1-.17,.46-.24,.71l.17,.1,.08-.29,.07,.07,.06,.26c.51-.19,.99-.35,1.45-.56,.44-.19,.86-.43,1.29-.65Zm-7.43,7.66c.06-.02,.13-.07,.16-.05,.45,.25,.44-.05,.43-.35,0-.38-.02-.75-.02-1.13,0-.33-.22-.45-.47-.55-.12-.05-.25-.06-.37-.1-.1-.03-.22-.12-.3-.09-.07,.02-.14,.17-.15,.26-.02,.26,0,.52,0,.78,.02,.44,.24,.7,.67,.78l.03,.44h0Zm-12.17-2.75c.21-.15,.58-.29,.59-.44,.06-.87,.03-1.75,.03-2.59-.43-.15-.63-.09-.62,.31,0,.88,0,1.76,0,2.72h0Zm3.59-2.91c-.55,.05-.57,.06-.56,.54,.03,.84,.07,1.67,.14,2.51,0,.11,.15,.22,.23,.33l.19-.08v-3.3h0Zm12.09-4.06l-1.28-.2c-.09,.21-.11,.33-.18,.4-.28,.3-.27,.4,.12,.56,.57,.23,1.62,.07,2.18-.35l-.42-.27c-.05,.12-.09,.3-.14,.3-.43,.03,.06-.46-.28-.45h0Zm3.63-2.05c-.21-.51,.53-.96-.09-1.34-.57,.24-1.09,.46-1.7,.72,.6,.21,1.12,.39,1.78,.63h0ZM12.57,15.94l.12,.07,1-.45c-.28-.68-.98-1.37-1.34-1.28l.45,.27-.03,.07-.38-.06-.03,.06,.21,.16c-.06,.16-.14,.27-.12,.34,.05,.16,.16,.31,.25,.48l-.13,.33Zm7.33-3.01c-.46,.14-.85,.23-1.22,.37-.12,.05-.29,.25-.27,.32,.05,.14,.2,.28,.34,.34,.53,.25,.95,.04,1.34-.42l-.87-.14-.02-.05,.68-.05,.02-.38h0Zm-12.12,2.26v-1.99c-.65,.24-.77,.46-.64,1.36,.02,.13,.33,.23,.58,.38l.06,.25Zm6.69,1.01c-.23,0-.42-.06-.53,.01-.35,.24-.68,.52-1.03,.79,.09,.08,.16,.12,.2,.18,.08,.1,.14,.22,.21,.33,.13-.08,.29-.15,.38-.26,.24-.29,.44-.61,.76-1.05h0Zm26.91-4.38c-.11,.92,.13,1.21,.94,1.15,.04-.71-.23-1.05-.94-1.15Zm-20.28,2.01c-.59,.02-.89,.3-.86,.74,0,.11,.15,.29,.24,.3,.39,.03,.86-.31,.81-.58-.03-.18-.13-.34-.19-.47Zm1.25-.53h-.05c0,.36,0,.71,0,1.07,0,.33,.01,.67-.02,1-.06,.55-.15,1.1-.22,1.65l.17,.02c.03-.21,.05-.42,.1-.62,.03-.09,.13-.18,.22-.23,.03-.02,.13,.1,.23,.18l-.29,.04c.04,.06,.08,.13,.12,.19,.04,.07,.07,.13,.1,.2l-.27,.05,.28,.44c.2-.71,.14-.95-.22-1.41-.1-.12-.15-.31-.15-.47-.02-.71,0-1.42,0-2.13h0Zm-13.95-.18l-.14-.06c-.08,.13-.21,.25-.22,.38-.04,.53-.04,1.07-.04,1.61,0,.14,.04,.28,.06,.43h.13c.38-.76,.14-1.57,.21-2.36h0Zm1.09,8.82c.26-.08,.59-.18,.93-.29,.07-.02,.15-.05,.19-.1,.24-.27,.47-.55,.69-.83,.03-.04,.01-.13,.02-.19-.07,0-.15-.03-.19,0-.17,.09-.33,.2-.48,.32-.01,0,.06,.13,.08,.18-.65,.04-.91,.61-1.23,.91h0Zm-.48-3.51c.1-1.05-.07-2.16,.7-3.09-.16,.01-.29,.04-.33,.12-.49,.94-.48,1.95-.36,2.98ZM33.81,5.47c-.4,.23-.01,.68-.03,1.06,.44-.66,.14-1.41,.28-2.15l-.24,.57-.18-.03,.17,.55Zm-15.54,2.61v.45c.6-.13,.73-.35,.57-1.11l-.33,.96-.12-.04,.05-.61-.8,.07,.05,.38,.58-.11Zm9.07,5.82h-.13s-.05,.06-.05,.09c0,1.26,.01,2.52,.03,3.78,0,.06,.12,.12,.14,.14v-4.01Zm10.86-3.67c0,.75,.1,.91,.63,1.03,.04-.47-.17-.81-.63-1.03Zm-26.66,7.93h.07v-1.01h-.05l-.12,.53c-.25-.34,.09-.82-.48-1l.15,1.28,.3-.19,.12,.39Zm3.61-1.82l.32,.12,.14-.82c-.66,.23-.8,.56-.51,1.08l.05-.39h0Zm-10.31,5.16c-.07-.22-.14-.42-.2-.62-.09-.26-.18-.52-.3-.87v1.46l.51,.03h0Zm1.85-3.32c.41-.71,.42-1.37,.08-1.65l-.08,1.65Zm7.06-3.6c.13,.2,.21,.29,.24,.4,.15,.49,.15,.49,.63,.22,.03-.6-.51-.37-.87-.61h0Zm2.69-4.44c-.51-.43-.61-.43-1.13-.06,.34,.53,.7,.07,1.13,.06ZM7.05,15.97c.68-.31,.72-.65,.22-1.02l-.22,1.02ZM18.41,5.84l-.28-.24,.08-.43h-.45c-.11,.67,.05,.85,.64,.67h0Zm-9.79,7.14h-.06v1.76h.06v-1.76Zm25.56,.64h-.11c-.06,.64-.12,1.28-.18,1.93h.14c.05-.63,.1-1.28,.15-1.93h0ZM18.83,4.1h-.14c-.15-.08-.28-.16-.44-.21-.07-.02-.17,.03-.25,.05,.03,.07,.05,.15,.11,.19,.08,.05,.26,.08,.26,.1-.02,.22,.08,.35,.28,.26,.1-.05,.12-.26,.18-.4h0Zm11.48,5.2l-.2-.48-.73,.28v.1l.92,.1h0Zm-8.58,8.51h.07v-2.84h-.07v2.84Zm-9.8-1.73l.18,.02v-1.78h-.07c-.03,.58-.07,1.18-.1,1.77Zm8.93-7.87l-.12-.06c-.04,.1-.14,.22-.12,.31,.06,.25-.17,.6,.24,.83v-1.08Zm-5.73,2.3c-.27-.32-.41-.35-.69-.16-.06,.04-.08,.15-.12,.23,.08,.03,.16,.11,.23,.1,.18-.03,.35-.1,.58-.17Zm-2.83,1.11c.3,0,.6,.03,.43-.42h-.61l.18,.42Zm8.09,1.45c-.1,.51-.07,.53,.37,.53v-.45l-.37-.09h0Zm.26,4.75l-.21,.02c0,.2,0,.39,.01,.59,0,.02,.18,.02,.28,.02l-.08-.63h0Zm-3.97,.76h-.18l.11,1.05h.06v-1.05Zm12.13-4.77c-.39,.27-.26,.55-.23,.85,.4-.19,.29-.48,.23-.85Zm.65-.17c-.57,.21-.3,.53-.32,.84,.46-.17,.19-.51,.32-.84Zm-9.04,1.66l.8-.3c-.03-.06-.08-.17-.09-.17-.24,.08-.47,.16-.7,.25-.01,0,0,.05-.01,.22h0Zm-7.05-3.98v-.61l-.67,.22,.67,.39h0Zm5.26-6.57c-.27-.09-.43-.2-.56-.17-.14,.03-.25,.18-.37,.28l.08,.1,.85-.21Zm-7.58,6.63l-.04,.52,.66,.14,.05-.06-.66-.6h0Zm-1.55,11.46c.73,.51,1.23,.51,1.44-.04-.47,.66-.96,.13-1.44,.04ZM29.89,3.27l.57,.28v-.67l-.57,.39Zm.18-.21l.13-.04c-.01-.24-.03-.49-.04-.76l-.41,.05,.31,.76h0ZM13.61,11.17l.61-.41c-.65-.15-.68-.13-.61,.41Zm8.95,2.95h.07v-1.1h-.07v1.1Zm7.75-1.99h-.16v1.06h.11c.02-.35,.03-.71,.05-1.06Zm-19.72-.86l-.21,.15c.11,.15,.22,.3,.33,.44,0,0,.18-.11,.17-.12-.09-.16-.2-.31-.3-.47ZM30.35,3.76v.68l.45-.33-.45-.35Zm-9.24,12.2h-.14l.08,1.29h.06v-1.29ZM28.29,2.91h.05V1.02h-.05v1.89Z" fill="#41463d"/><path d="M3.94,22.03h0c.05,.58,.04,.59-.53,.55-.14-.01-.28,0-.37,0l-.51-.4,.24-.57c-.56,.03-1.05,0-1.5,.11-.57,.15-.86-.25-1.26-.5,.45,.08,.44-.22,.43-.53,0-.45,.02-.9,0-1.35-.02-.39,.1-.67,.49-.8l-.26,.46,.16,.15,.69-.5-.07-.14-.35,.08,.83-.41-.23,.33c.18,.02,.32,.05,.46,.04,.1,0,.23-.04,.3-.1,.04-.05,.03-.23-.02-.26-.08-.05-.2-.02-.3-.02l.96-.42-.28,.2,.22,.47c-.56,.2-.9,1.35-.69,2.26l.15-1.42,.2,.6h.12l.28-1.22,.11,.81h.05l.15-.64h.26c-.05,.61-.1,1.23-.15,1.85,0,.03,0,.06-.02,.08-.38,.45-.12,.85,.11,1.25l-.49,.14c-.24-.47-.17-1.63,.16-2.05-.07-.02-.13-.03-.19-.06-.07-.03-.13-.07-.21-.11-.16,.69,0,2.15,.35,2.56l.38-.5,.38,.06h0Zm-2.21-1.28l.16,.08c.07-.14,.2-.28,.2-.42,0-.42-.07-.84-.08-1.25,0-.2,.05-.43-.2-.41-.12,.01-.27,.28-.3,.44-.05,.31-.01,.63-.01,.95h-.06l-.06-1-.17-.06c-.08,.13-.23,.25-.24,.38-.05,.52-.05,1.04-.07,1.56,0,.12,.03,.24,.05,.36h.11l.12-1.57,.05,1.19c.61-.36,.3-.99,.56-1.41l-.06,1.15h0Zm-1.12,.49c.34-.62,.34-1.74,0-1.84v1.84Z" fill="#41463d"/><path d="M12.55,27.01l.36,.1c-.08-.18-.15-.29-.18-.41-.16-.55-.03-.72,.54-.76,.14,0,.28-.06,.42-.09,.27-.06,.32,.05,.43,.32,.11,.28,.34,.5,.53,.77,.07-.08,.12-.11,.13-.14,.11-.36,.19-.54,.72-.56,.53-.02,1.04-.54,1.54-.86,.08-.05,.06-.25,.08-.37-.33,.05-.61,.09-.89,.13l-.31-.42,.08-.08,.34,.34c.23-.09,.54-.32,.76-.25,.19,.06,.27,.47,.41,.75l.28-.1,.02,.14c-.13,.01-.25,.03-.38,.03-.04,0-.09-.05-.17-.1l-.08,.46c-.11,0-.23,0-.34,.04-.1,.03-.2,.08-.26,.16-.03,.05,0,.21,.03,.22,.08,.03,.19,0,.28,0,.27,0,.54,0,.81,0l.02,.23c-.16,.02-.32,.03-.47,.07-.45,.11-.91,.22-1.35,.38-.1,.04-.11,.29-.11,.56l-2.23,.51c.09-.31-.21-.64-.64-.78-.14-.05-.25-.17-.37-.26h0Zm1.49-.56c-.34-.31-.92-.45-1.09-.25-.1,.11-.08,.33-.12,.5l.12,.04,.3-.26,.16,.2,.63-.22Zm-.44,.46c0,.12-.03,.25-.01,.37,.01,.1,.06,.2,.12,.28,.03,.03,.13,0,.19,0v-.3l.37-.06-.66-.28h0Zm1.35,.6l-.44-.54h-.13l-.04,.54h.61Z" fill="#41463d"/><path d="M22.91,20.89c.24-.14,.54-.22,.67-.42,.1-.15-.02-.44-.04-.61,.54,.07,1.1,.15,1.67,.22-.77,.04-1.24,.14-1.39,.3l1.42-.06c.09,.36,.16,.66,.25,1.03-.26-.09-.53-.21-.82-.28-.15-.03-.36,0-.47,.08-.4,.33-.57,.33-.86-.1-.07,.05-.18,.09-.19,.15-.06,.45-.37,.47-.69,.37-.36-.12-.82,.2-1.1-.26,.29-.21,.08-.72,.58-.84,.44-.11,.66,.16,.98,.42h0Z" fill="#41463d"/><path d="M18.89,25c.1-.13,.25-.25,.28-.39,.05-.21,.04-.44,.33-.38,.14,.03,.25,.19,.36,.28,.13-.21,.11-.3-.18-.48-.46-.28-.47-.43-.05-.79,.15-.13,.32-.25,.54-.43,0,.02,0-.07-.02-.18,.07,0,.13,0,.15,.02,.21,.18,.07,.29-.09,.4-.34,.22-.42,.54-.25,.92,.04,.09,.02,.2,.04,.3,.04,.17,.1,.34,.14,.51h.13l.19-.33c.28,.12,.59,.18,.47,.62-.41-.08-.81-.18-1.22-.24-.11-.02-.24,.05-.35,.08-.15,.03-.31,.06-.47,.09h0Z" fill="#41463d"/><path d="M18.89,25l.11,.43c.32,.04,.65,.09,1.02,.14-.36,.58-.99,.03-1.37,.37-.25-.18-.21-.57-.66-.61-.24-.02-.05-.44,.1-.66,.04-.06,.08-.13,.13-.21,.12,.4,.33,.35,.59,.05l.09,.13-.42,.58c.2-.11,.32-.16,.43-.22h0Z" fill="#41463d"/><path d="M42.79,14.87c.05-.31,.11-.54,.11-.77,0-.6-.04-1.19-.05-1.79,0-.17,.03-.35,.05-.52h.2c.05,.84,.11,1.68,.17,2.54l.77,.09,.02,.11-1.27,.34h0Z" fill="#41463d"/><path d="M27.82,21.1l.37-.17v.76l.06,.02,.1-.23h.04l-.1,.5h.25l.1-1.02h.11l.14,.7,.36-.12,.07,.58-.09,.02-.08-.16-1.24,.12c-.03-.36,.3-.68-.08-1.01h0Z" fill="#41463d"/><path d="M20.49,22.04l.52-.07,.39,.46,.09-.55c.21,.2,.23,.41,.04,.63l.35,.38-.07,.09-.71-.17-.05,.13c-.23-.28-.6-.46-.56-.91h0Z" fill="#41463d"/><path d="M31.95,19.25l-.87-.1c.07-.5,.21-.56,.63-.37,.14,.07,.32,.04,.48,.06v.88c-.55,.14-1.11,.2-1.58-.29,.1,.05,.19,.1,.29,.14,.12,.05,.24,.11,.36,.15,.41,.14,.67-.02,.69-.48h0Z" fill="#41463d"/><path d="M35.79,17.78c.1,.13,.17,.32,.27,.34,.13,.02,.3-.07,.41-.16,.33-.28,.73-.2,1.09-.31l.04,.1-.65,.27c.05,.09,.29,.14,.71,.16-.31,.08-.61,.2-.93,.24-.32,.04-.65,0-1,0l.05-.64h0Z" fill="#41463d"/><path d="M20.8,20.09l-.45,.04c.07-.27,.52-.28,.08-.61l.57-.16-.07,.12,.49,.44c-.15,.11,.46,.61-.21,.66-.14-.17-.27-.33-.41-.5h0Z" fill="#41463d"/><path d="M39.19,16.04c.01-.06,.03-.13,.04-.19,.31-.21,.62-.41,.92-.62l-.45,.61,.49,.08v.09l-.68,.18,.15,.22c-.24-.02-.41,.04-.33,.35-.08-.16-.15-.32-.23-.48,.03-.08,.05-.16,.07-.24h0Z" fill="#41463d"/><path d="M5.54,16.73l-.33,.05,.76-.41-.2,.32,.57,.3c-.42,.17-.91,.14-.8,.73v-.99Z" fill="#41463d"/><path d="M24.07,18.82c.24,.16,.73-.24,.76,.38,0,.1-.1,.21-.15,.31l-.71-.51,.11-.18h0Z" fill="#41463d"/><path d="M22.94,23.81l.13-.74h.06l.03,.56h.1v-.54h.08l.08,.56c.3-.11,.59-.21,.87-.31-.09,.22-.54,.38-1.35,.48Z" fill="#41463d"/><path d="M20.8,20.09c.14,.17,.27,.33,.41,.5,.05,.06,.09,.12,.13,.18l-.04,.1-.81-.18,.3-.6h0Z" fill="#41463d"/><path d="M6.64,22.1c.2-.07,.16-.06,.19,.11,.02,.09,.19,.17,.3,.21,.26,.09,.54,.15,.78,.29l-.87-.04v.1c-.13-.12-.27-.25-.41-.36-.07-.06-.16-.09-.25-.13,.09-.07,.18-.13,.27-.2h0Z" fill="#41463d"/><path d="M39.19,16.04c-.03,.08-.05,.16-.07,.24v.59c-.39-.23-.2-.92-.85-.82l.05-.15,.86,.14h0Z" fill="#41463d"/><path d="M9.96,10.75l-.27,.2c-.13-.35-.4-.35-.71-.23,0-.44,.34-.36,.58-.33,.2,.02,.39,.16,.58,.25-.08,.02-.31-.19-.2,.13h.01Z" fill="#41463d"/><path d="M4.01,17.72l-.45,.53-.28-.26,.29-.25-.03-.1c-.11,.02-.21,.04-.32,.06,.35-.16,.71-.32,1.06-.48h0l-.66,.48,.07,.1,.33-.06h0Z" fill="#41463d"/><path d="M23.37,21.87h2.53v.08h-2.54v-.08h0Z" fill="#41463d"/><path d="M7.13,22.2l.18-.41c.2,.04,.39,.08,.58,.11-.07,.28-.32,.39-.76,.3Z" fill="#41463d"/><path d="M15.29,24.96c-.44,.22-.91,.17-1.38,.08v-.13c.45-.03,.91-.06,1.37-.09v.13Z" fill="#41463d"/><path d="M9.42,18.88l.38-.03c-.16,.34-.31,.66-.48,.97-.03,.06-.17,.06-.26,.09h.01c.05-.13,.1-.27,.15-.42,.07-.21,.14-.42,.2-.63h-.02Z" fill="#41463d"/><path d="M21.51,23.99l.24,.6,.39-.06,.04,.15-.84,.2c.05-.28,.1-.54,.16-.88h0Z" fill="#41463d"/><path d="M30.8,1.34l-.3,.05-.09-.08c.16-.17,.32-.35,.49-.51,0,0,.15,.12,.23,.18-.11,.12-.23,.24-.34,.36h.01Z" fill="#41463d"/><path d="M16.86,24.16l-.84-.08,.02-.17,.43,.11,.12-.56h.1l.17,.7Z" fill="#41463d"/><path d="M30.84,.15l-.34,.11,.63,.31-.06,.1h-.6V.05l.38-.03V.15Z" fill="#41463d"/><path d="M17.3,7.88l-.5,.46,.08,.1-.74-.3c.46-.1,.82-.18,1.18-.25h-.01Z" fill="#41463d"/><path d="M35.05,19.43c-.31,.08-.61,.2-.92,.24-.37,.05-.6-.1-.46-.56,.01,.64,.46,.36,.74,.38,.2,.01,.41-.1,.61-.16l.03,.11h0Z" fill="#41463d"/><path d="M6.89,11.49c.22-.1,.44-.2,.67-.3-.41,.2-.57,.53-.55,.98,.01,.35-.01,.69-.02,1.04-.04-.36-.09-.72-.12-1.08-.01-.21,.01-.43,.02-.64h0Z" fill="#41463d"/><path d="M19.82,21.56l.39,.19,.28-.11c0,.13,0,.26,0,.39h0c-.13,0-.25,.02-.41,.04-.07-.14-.16-.33-.26-.52h-.01Z" fill="#41463d"/><path d="M19.01,23.28l.11,.35-.05,.02c-.09-.18-.2-.36-.27-.55-.02-.05,.03-.15,.07-.2,.04-.04,.14-.06,.19-.04,.1,.05,.18,.14,.29,.23l-.35,.2Z" fill="#41463d"/><path d="M25.17,19.35l.2-.51c.08,.05,.22,.1,.21,.13-.04,.17-.11,.32-.17,.48l-.25-.1h0Z" fill="#41463d"/><path d="M18.37,24.06v-1.12h.09v1.12h-.09Z" fill="#41463d"/><path d="M15.87,23.18h.72l.03,.11-.55,.15,.05,.24-.11,.03-.14-.53h0Z" fill="#41463d"/><path d="M35.45,5.49c-.07-.04-.14-.08-.2-.13,.12-.03,.24-.08,.36-.08,.04,0,.08,.11,.14,.18,.13-.04,.27-.08,.42-.12h-.01l-.26,.36-.44-.22h0Z" fill="#41463d"/><path d="M22.79,23.46c-.1-.27-.22-.61-.34-.94,.46,.28,.63,.43,.34,.94Z" fill="#41463d"/><path d="M16.28,7.97l-1.03-.33,.42-.23-.06,.12,.69,.39-.02,.06h0Z" fill="#41463d"/><path d="M31.57,18.44l.07-.3-.74,.37c.03-.1,.04-.24,.07-.24,.32-.04,.66-.44,.96,.06l-.36,.11h0Z" fill="#41463d"/><path d="M32.54,19.15l1.05-.33-.72,.48-.33-.15s.01-.03,0,0Z" fill="#41463d"/><path d="M25.39,18.13c-.14,.13-.29,.25-.43,.38-.08,.07-.15,.15-.26,.18,.24-.29,.24-.31-.11-.75,.3,.07,.56,.13,.81,.18h0Z" fill="#41463d"/><path d="M38.31,17.41c.66,.09,.69,.08,.95-.3l.1,.06c-.09,.13-.15,.29-.27,.37-.28,.19-.55,.14-.78-.12h0Z" fill="#41463d"/><path d="M12.56,27.01l-.45,.18,.46,.23-.02,.1-.57-.09v-.41h.58Z" fill="#41463d"/><path d="M8.22,12.24l-.31,.1-.55-.79,.29-.24c-.08,.51,.34,.66,.56,.94h.01Z" fill="#41463d"/><path d="M22.47,9.32c.49,.57,1.09,.36,1.69,.24,.23-.05,.47-.08,.7-.12l.04,.13c-.38,.13-.75,.31-1.14,.37-.33,.05-.73,.51-1.03-.11l-.21,.24-.47-.31,.43-.46h-.01Z" fill="#41463d"/><path d="M25.73,9.53l.47-.2-.04-.13-1.06,.35c-.12-.32,.62-.22,.16-.68,.45,.13,.79,.48,1.08-.04l.24,.43,.72-.08,.02,.13c-.52,.1-1.04,.2-1.55,.29l-.03-.08h0Z" fill="#41463d"/><path d="M26.37,7.69l-.96,.73,.23-.43-.38-.2,.33-.04,.19-.69c-.05,.38,.19,.67,.6,.65h-.01Z" fill="#41463d"/><path d="M22.48,9.32c-.24-.41-.03-.76,.11-1.12l.15,.02c-.09,.37-.17,.73-.26,1.1h0Z" fill="#41463d"/><path d="M18.55,14.94c.34,.12,.68,.24,1.02,.35h-1.19c-.03-.13,.52-.07,.17-.35Z" fill="#41463d"/><path d="M40.88,13.98c-.12,.17-.19,.35-.44,.09-.09-.1-.37-.02-.69-.02l.52-.43,.61,.35Z" fill="#41463d"/></g></g></g></g></svg>