<?xml version="1.0" encoding="UTF-8"?><svg id="b" xmlns="http://www.w3.org/2000/svg" viewBox="0 0 196.57 127.63"><g id="c"><g id="d"><g id="e"><g><path d="M128.01,94.41c-2.06,1.52-3.06,1.47-5.4,.07-.56-.34-1.44-.14-2.32,.24l1.99,1.13c-1.54,.17-2.8,.18-3.97,.49-1.09,.28-2.09,.89-3.02,1.3-1.63-1.78-3.77-3.48-2.26-6.29,.39-.72,1.26-1.19,2.06-1.9l-1.58-1.1c-.88,1.7-1.93,3.74-3.04,5.89-1.03,.17-2.15-.58-3.4,.62-.65,.62-2.8-.31-4.45-.57V59.61l-2.19-.69c3.27,2.44,.85,5.65,1.23,8.55l-1.51,.08c1.96,.29,2.08,1.41,1.52,2.96l-1.02-1.08c-.19,.47-.52,.93-.55,1.42-.13,1.78-.09,3.56-.26,5.33-.05,.52-.56,.99-.87,1.48l-.57-.16,.22,1.44,3.14-.82v6.22l-.46,.31-1.09-1.93-.33,.31c.74,1.18,1.95,2.29,2.13,3.54,.34,2.41,.1,4.91,.1,7.37l-.69,.37c-.58-.49-1.52-.9-1.66-1.5-.2-.85-.73-2.28,1.15-2.39,.21-.01,.38-.79,.72-1.56-1.82,1.42-2.61,2.87-2.38,4.34l-6.87-1.86,.5,.73,1.04-1.91c.11,.13,.31,.54,.59,.61,.42,.1,.94,.05,1.32-.15,.18-.1,.29-.83,.14-.97-.25-.24-.78-.4-1.1-.3-.76,.23-1.43,.74-2.19,.93-.94,.23-1.95,.39-2.91,.34-1.61-.09-3.21-.36-4.81-.58-.43-.06-.84-.25-1.27-.38l.6-.6c1.23-.3,2.46-.6,3.71-.9v-2.57c.21,.63,.43,1.27,.75,2.22l.38-1.51,.3,.04-.17,2.26c.52-.25,.66-.65,.81-1.04,.4-1.03,.79-2.07,1.23-3.09,.01-.02,.53,.17,.81,.27-.26,.67-.66,1.33-.74,2.02-.22,1.9-.73,2.36-2.55,2.19-.76-.07-1.55,.1-2.33,.17l.08,.78c1.37-.16,2.96,.05,4.06-.58,1.64-.94,1.49-2.9,1.42-4.62l1.34-.69c-1.79-1.09-3.43-2.13-5.1-3.1-2.35-1.37-2.89-1.14-3.72,1.41-.09,.27-.36,.47-.54,.7l.19,.26,1.74-.69-.46,2.96,1.05-2.02,.26,.13-.55,2.12,.23,.06,.42-1.25,1.16,1.06-1.36,1.19-.15-.23-4.24,2.9-.29-.35,.43-.75-4.94-.57-.02-.35,3.02-1.3c-3.81-.6-7.2-1.13-10.74-1.68l.81,1.38c-1.16,1.6-2.08,3.32-2.07,5.57,0,1.47,.6,1.43,1.56,1.33,.87-.09,1.74-.24,2.6-.36l.22,.49c-1.13,.55-2.24,1.5-3.38,1.53-1.1,.03-2.23-.89-3.47-1.44l-.15,1.22c-1.33,.12-2.7,.69-3.24-1.75-.36-1.63-2.25-1.47-3.84-.99l1.79,1.21c-1.75,.22-3.4,.4-5.04,.66-.15,.02-.23,.54-.37,.88l1.58,.12,.05-.05-2.04,2.5,1.89,.68-.1,.53c-1.04-.17-2.25-.07-3.1-.57-1.26-.75-1.92-.35-2.67,.17-1.74,.28-3.49,.55-5.23,.83l.04,.36c4.01,.24,8.01,.47,12.15,.72-.31-2.29,1.8-1.94,2.99-1.95,2.27-.01,1.51,2.54,2.56,3.65l-1.6,1.37c2.11,.54,2.73-.19,2.23-2.76l3.79,.84-1.56,.62,1.6,1.57-2.92-.21-.08,.57,1.43,.53-2.74,.38c-.83,1.1-1.96,2.6-3.09,4.09l.37,.28c1.48-1.16,2.97-2.32,4.7-3.67l.51,2.45-2.25,1.06,.03,.36,2.64-.16c-.74,.82-1.19,1.33-1.66,1.83-.21,.22-.65,.49-.61,.64,.56,2.09-.92,2.95-2.25,3.94-.19,.14-.22,.51-.33,.77-.18,.43-.29,1.18-.54,1.22-.43,.08-1.05-.15-1.41-.46-.49-.42-.75-1.09-1.21-1.55-.45-.45-.72-1.7-1.8-.52-.19,.2-1.21-.32-1.82-.57-1.14-.47-2.26-.98-3.38-1.47l-.23,.51,4.32,2.38-.05,.27-4.77-1.29c.03,1.06,1.08,2.96-1.61,1.99l1.32-.92c-.93-.21-1.64-.38-2.83-.66l1.95-.85,.03-.55c-2.27-.05-4.89,1.99-6.73-.66-2.99-.01-3.57-2.98-5.7-4.54,1.09-.1,2,0,2.74-.31,.55-.23,1.35-1.16,1.23-1.47-.52-1.38,.18-2.13,1.24-2.17,.62-.03,1.29,.94,1.98,1.5l1.42-1.23-2.03-1.66,.1-.24c.84,.45,1.66,.93,2.52,1.34,.51,.24,1.08,.36,1.84,.6l-1.38-4.95c-.77,.55-1.58,1.13-2.4,1.71-.17-1.62-1.31-2.11-3.35-1.59,.23-.24,.43-.56,.71-.71,.47-.25,1.01-.39,1.51-.57,.96-.46,1.92-.93,2.89-1.4-.93-1.5-1.62-.42-1.98,.09-.65-.37-1.11-.84-1.58-.85-.96-.02-1.67,.66-1.77,1.41-.36,.15-.73,.3-.6,.25-1.75,.22-2.91,.38-4.08,.51-.68,.07-1.61,.39-1.98,.07-.56-.48-.8-1.39-1.05-2.16-.16-.47-.09-1.02-.12-1.53l-.67,.05v3.53l-2.23-.44-.39-5.2,1.61,.44c-.27-.55-.42-1.13-.59-1.14-.91-.02-1.83,.1-2.74,.18l.62,2.81-.07-.03c.3,1.52,.29,3.21,1.02,4.48,.4,.7,2.05,.68,3.1,.98l-.97,1.22c1.23,1.81,3.34-1.58,4.47,1.6,.44-.85,.64-1.61,1.13-2.08,.51-.5,1.29-.74,2.13-.77l-2.05,1.69,1.75,.73,.1,.58-5.19,1.56-.23-.47,1.29-1.08-6.52-.73-.12,.77c1.33,.14,2.66,.27,4.07,.41,.19,1.01,.13,1.73-1.24,1.45-.4-.08-.93-.09-1.26,.11-1.59,.97-3.38,.99-4.93,.42-3.02-1.11-6.08-.78-9.15-.91-1.87-.08-3.72-.58-5.56-1.29l1.66,.11-.14-2.52-1.19,1.6c-.46-1.43-1.12-1.85-2.48-1-.64,.4-1.69,.19-2.56,.2-1.87,.02-3.73,0-5.6,0v-.38l4.32-2.02-.25-.51,1.01,.31-.19-4.22,.43-.07,.69,4.79h.22l.39-2.24,1.67,1.19c.26-3.74-1.59-6.42-2.87-9.38l2.92,4.12,.5-.13-1.21-10.45,.54-.08c.32,1.68,.52,3.4,1,5.04,.34,1.17,1.05,2.24,1.6,3.35l-.03-.03c.27,1.93,.5,3.87,.85,5.79,.06,.35,.6,.61,.92,.91,.27-.4,.76-.78,.78-1.19,.2-3.54,.16-3.63,3.57-4.42,2.2-.51,4.47-.71,6.75-1.06l-1.58-1.47,.19-.41,4.51,.65,.32-.55-3.23-2.05,.47-.51-3.29-3.53,5.58,1.87,.39-.48-1.11-3.01,.37-.29,2.35,3.03h.52l-.37-5.89,2.13,2.02c-2.14,1.18-1.03,2.97-1.18,4.52l.46,.16c.15-.36,.36-.7,.43-1.07,.31-1.55,.53-3.11,.92-4.64,.09-.36,.69-.58,1.32-1.08l.63,3.44-.32,.06-.17-1.33-.11,.03v5.27l.78,.1,1.72-6.79c1.41,2.31,.37,4.33-.79,6.3l2.43,.82,3.27-2.74-1.05-.98,.49-.45,2.47,2.79c.09-.64,.2-1.09,.2-1.55,0-2.68,0-5.37-.02-8.05-.02-1.28,.13-2.43-1.2-3.52-.69-.56-.4-2.51-.23-3.79,.04-.31,1.35-.6,2.09-.65,1.53-.1,3.08,.09,4.6-.06,2.45-.24,1.77,1.48,1.91,2.75,.15,1.39-.17,2.21-1.83,2.04-1.32-.13-2.66-.03-4.22-.03v12.94c3.95-2.44,6.64,1,9.99,2.2l.4,1.35h3.24v.79h-4.35l1.47,3.11,3.01-1.82c-.07-.13,.08,.15,.19,.34,1.2-.39,2.36-.81,3.55-1.14,1.2-.34,2.2,.03,2.81,1.3,.93-1.68,1.32-2.72,1.15-2.95,1.07-.76,1.18-2.6,.55-3.61-.44-.71-.55-1.76-.47-2.63,.09-.9,.59-1.77,.97-2.84l-4.8,2.51,.28,.5,1.55-1.09,.25,3.6-4.2-2.24c-.07-2.29,.27-2.68,2.37-2.66,1.48,.02,2.01-.75,1.49-2.21-.17-.47-.51-.89-.69-1.36-.15-.38-.19-.79-.31-1.3,1.67,.68,2.06,2.04,1.58,4.66l3.35-2.66c-.6-2.3-1.29-5.12-2.08-7.91-.32-1.13-1.02-1.78-2.25-2.39-1.98-.99-3.58-2.76-5.11-4.48,4.36,1.51,7.63,4.64,11.54,7.43,0-1.25,.02-2.18,0-3.11-.15-5.93-.25-11.86-.49-17.78-.07-1.65-.51-3.29-.85-5.36,1.71,0,3.66-.06,5.59,.02,1.71,.07,2.63-.41,2.4-2.35-.16-1.36-.03-2.74-.03-4.12l.59-.03,.28,6.07,6.6-.53,.07-.61c-.58-.16-1.16-.33-1.73-.49,.72-.93,2.32-.86,5.72,.39l.74-17.69,4.95-1.26v-3.39l.38-.05,.58,3.26,7.49-1.64,.2,.62c-2.56,.77-5.13,1.55-7.92,2.39,2.63,2.59,7.33,.5,9.01,4.93h-8.83l.27,5.62-.52,.03-.51-5.29c-2.25-.2-3.44,.68-3.58,2.64-.07,.89-.21,1.77-.27,2.66-.07,.95-.27,1.94-.08,2.84,.18,.85,.79,1.61,1.29,2.58l1.02,.09v-2.62l7.42,.7-1.27-1.59c1.34-1.62,2.85-2.8,4.93-2.89l.35,.48-3.22,2.7,3.29-.61c0-6.91,.05-13.86-.02-20.81-.05-5.07-.24-10.13-.36-15.14,1.71-.65,2.44-.31,2.41,1.35-.03,1.72,.14,3.45,.05,5.17-.07,1.35,.24,2.14,2.09,1.81-3.15,5.49-1.9,11.24-2.08,16.83-.02,.58,.68,1.19,1.04,1.78,.41-.33,.77-.74,1.23-.95,.53-.25,1.14-.32,1.72-.47l.09,.5-1.34,.23,1.04,.63-.04,.38-3.36,.29v2.42c.64,.05,1.31,.12,1.99,.14,2.12,.06,3.48,1.77,3.34,3.89-.12,1.83,.04,3.68,.08,5.52-.27-1.48-.53-2.94-.71-3.95-.19,.81-.11,2.48-.9,3.25s-2.45,.63-4.41,1.03c1.12,.79,1.78,1.25,2.46,1.71,.01,0,.14-.15,.26-.27l-.62-.38c.57-.24,1.22-.54,1.89-.78,.67-.24,1.36-.42,2.04-.63l1.22,.59v-5.57c.02-3.39-.27-6.83,.16-10.17,.32-2.49,1.52-4.88,2.4-7.28,.1-.26,.65-.36,1.24-.66l-1.17,2.7c.9-2.05,2.9-2.22,4.63-3.07,2.83-1.39,5.65-1.84,8.7-1.78,3.01,.06,4.35,1.01,5.33,3.81,.23,.65,1,1.09,1.46,1.67,.44,.56,1.11,1.18,1.13,1.78,.11,3.67,.05,7.35,.09,11.03,0,.81,.34,1.62,.31,2.43-.15,4.09-.4,8.18-.55,12.27-.19,5.23-1.01,4.88,4.99,6.14,.27,.06,.57,0,.87,0l-2.18-2.08,.43-.47c1.93,1.73,3.9,3.41,5.75,5.22,.43,.42,.46,1.25,.76,2.16l3.72-1.03-.37,3.36-3.19-.72-.44,.67,3.8,3.8,.48-.31c.38-5.96,.76-11.93,1.13-17.89h.78v4.03c0,8.49,0,16.98-.02,25.47,0,1.11,.18,1.99,1.53,2.19,1.04,.16,1.46-.15,1.29-1.2-.24-1.55-.46-3.09-.69-4.64l.63-.18c.37,1.21,.72,2.44,1.14,3.63,.12,.33,.46,.58,.7,.86l.52-.27,.36,2.33,.49,.09c.54-1.79,1.08-3.57,1.62-5.36l.47,.08-.43,3.53,1.23-.52,1.59,1.32-3.86,1.45c2.4,1.69,4.11,1.64,5.54-.66,.56-.9,.37-2.38,.24-3.56-.17-1.5-.65-2.96-.95-4.44-.76-3.8-1.5-7.6-2.19-11.42,1.81,5.82,4.04,11.54,4.4,17.73,.08,1.35,.13,2.69,2.16,2.61,.44-.02,1.15,.92,1.35,1.54,.81,2.5,.75,2.52,2.62,3.33l-.55,3.43,.53,.52c-.2-2.51,.94-.85,1.17-.88,.21-.88,.23-1.62,.55-2.19,.58-1.06,.19-3.34-.85-4.13-.2-.15-.45-.3-.54-.51-.26-.64-.46-1.31-.8-2.33l2.53-.29c.52-1.85-.33-4.05-1.95-5.01-.36-.22-.62-.62-.92-.94,.41,.04,.82,.13,1.22,.12,.55-.02,1.09-.12,1.56-.18,1.33-3.26-.93-4.81-3.47-6.22l.5-.52,3.19,.77c-.21-1.64-.54-3.05-.53-4.45,.02-2.17,.26-4.34,.42-6.5,.06-.82,.12-1.64,.19-2.47,.08-.82-.33-1.86,1.18-1.89,1.57-.04,1.56,.92,1.54,2.01-.02,.89-.09,1.8,.05,2.68,.11,.69,.52,1.34,.53,1.87-.23,3.1-.46,6.19-.72,9.81,3.21-.66,6-1.24,8.79-1.81,.63,2.31-.52,3.01-2.27,3.51-1.63,.46-3.3,1.04-4.68,1.97-.77,.52-1.13,1.84-1.33,2.86-.05,.24,1.3,.76,2.02,1.13,.27,.14,.58,.2,.57,.2l1.75-1.56c1.73,2.06,2.6-.47,3.96-.55,1.24,1.4,.89,2.31-1.01,2.85-1.3,.37-2.59,.8-3.86,1.29-.27,.11-.4,.59-.6,.9-.35,.13-.8,.15-1.03,.39-.59,.61-1.08,1.31-1.62,1.98,.96,.42,1.93,1.22,2.87,1.18,1.7-.07,3.39-.63,5.38-1.04l-5.99-.81,.54-1.75c1.32,2.08,3.65,1.31,5.49,1.9,.29,.09,.71-.21,.82-.24,.3,1.06,.26,2.56,.97,3.12,1.33,1.04,2.84-.22,2.47-1.92-.2-.9-.53-1.77-.8-2.65l.57-.18c1.05,3.28,2.1,6.56,3.17,9.94,.58-.08,1.35-.32,2.07-.22,.55,.07,1.32,.47,1.48,.91,.2,.56,.06,1.44-.29,1.93-.22,.31-1.15,.31-1.68,.16-1.55-.44-4.98,.41-6.01,1.71l2.18,.14c-2.44,.52-4.77,.93-7.06,1.54-.72,.19-1.48,.75-1.93,1.36-1,1.34-2.21,1.51-3.68,1.08-.27-.08-.61,.08-1.11,.16v4.03c0,5.42-.04,10.85,.03,16.27,0,.74,.63,1.46,.85,2.23,.23,.83,.4,1.7,.45,2.56,.07,1.22-.24,2.51,.08,3.64,.23,.82,1.23,1.42,2.11,2.37-2.88-.17-5.86-.34-8.84-.51,2.09-1.72,1.41-3.83,1.47-5.8,.2-6.48,.48-12.96,.7-19.44,.06-1.87,0-3.74,0-5.54-1.23-1.21-2.46-1-3.89-.55-2.81,.87-5.7,2.02-8.56,2.04-1.74,.02-3.01,.56-4.4,1.13-1.3,.53-2.04,1.52-1.63,3.18l-5.94,.89,2.39-3.26-.34-.37c-1.46,.85-2.89,1.76-4.4,2.5-.55,.27-1.35,.35-1.93,.16-2.38-.75-4.72-1.63-7.28-2.15l1.42,1.19-1.46,.78-1.89-1.97c-.5,1.62-3.4,2.11-5.41,1.28l-.05,.05c.79-.64,2.01-.79,2.08-2.28,.02-.35,1.5-.84,2.33-.91,1.23-.09,1.54-.58,1.15-2.34-.32,2.27-1.31,1.88-2.5,1.63-1.34-.27-2.77-.24-4.14-.14-.35,.03-.64,.83-1.11,1.47-1.15-.32-2.47-.7-3.78-1.07l.06,.07c1.15-.69,2.29-1.39,3.44-2.07,.5-.29,1.02-.53,1.98-1.02-1.02-.11-1.43-.16-1.85-.2-.54-.76-1.08-1.52-1.61-2.27v-5.66l-5.72-1.1c1.22,.66,2.51,1.16,3.83,1.25,1.41,.09,1.99,.58,1.78,1.97-.08,.56-.12,1.12-.18,1.68-1.85-.19-3.53,.85-3.19,1.86h1.21l.02,.38-1.87,.7c1.64,1.82,3.66,1.68,5.74,1.16l-.04,.06Zm-19.43-59.67l-2.11-.68c-.23,.75-.75,1.55-.63,2.24,.12,.7,.61,1.68,1.78,1.29,.42-.34,1.08-.61,1.2-1.03,.15-.55-.14-1.21-.25-1.83h.01Zm-32.68,42.25l.4,.27,.91-3.53-2.51,2.51,.77,.7-1.58,5.81c1.53-.11,2.09-1.76,1.99-5.77h.02ZM14.91,98.21c.1-1.35,.24-2.7,.29-4.06,.01-.31-.24-.65-.45-.91-.06-.07-.49,.05-.64,.2-.66,.67-.03,4.09,.85,4.72l1.36,1.56,.28-2.37c-.09,1.93,1.28,1.53,2.7,1.7l-1-3.24-2.67,.16c-.27,.84-.5,1.55-.72,2.25h0Zm38.14,4.76l.84,2.28c1.19-3.26,3.17-.84,4.64-1.56-.65-.49-1.32-.94-2-.96-1.17-.04-2.35,.18-3.52,.3l-.28-2.58,7.88,2.1,.1-.57c-4.04-2-8.31-2.63-12.76-2.21l-.26,.57c1.79,.87,3.58,1.75,5.37,2.63h0Zm37.28-33.8c-1.52,1.6-3.51,1.03-5.66,1.15,.42,.49,.72,1.14,1.02,1.14,1.42-.02,2.85-.16,4.25-.37,.74-.11,1.44-.46,2.16-.71l-1.77-1.21-1.23-.95,1.86-.12-1.49-3.43c2.33-.58,2.94-2.33,2.33-4.72l-3.77-1.21c-.22,3.65-.42,7.07-.64,10.85,1.25-.18,2.1-.3,2.95-.42h-.01Zm-10.52-10.46c1.83,.75,1.83,1.93,1.13,3.4-.43,.92-.84,1.88-1.03,2.87-.11,.6,.01,1.59,.4,1.86,1.21,.84,2.6,1.42,4.23,2.26,.25-3.28,.36-6.14,.71-8.97,.23-1.9-.31-3.3-2.03-3.88l-2.28-.68c-.62-.24-1.65,.06-2.08-.32-.5-.43-.47-1.47-.64-2.12,1.66,.48,3.09,.88,4.51,1.3,3.8,1.11,7.6,2.24,11.42,3.3,.23,.06,.6-.41,1.12-.79,0,0,.29,.31,.64,.52,.44,.26,1,.7,1.37,.59,.52-.15,1.27-.72,1.29-1.15,.12-2.45,.06-4.9,.06-7.59-3.26,.92-6.6,.72-7.87,4.34v-.83c-1.1,.71-2.19,2.01-3.14,1.91-2.45-.24-4.84-1.1-7.26-1.71l.06-.49c1.35-.32,2.69-.65,4.04-.94,1.13-.24,1.51-.9,1.51-2.04,0-1.03,.09-1.9-1.26-2.13-2.07-.34-4.12-.78-6.18-1.16-.71-.13-1.43-.2-2.19-.31v3.36l1.85,.32c-.4,.17-.59,.21-.71,.31-.76,.62-.84,2.55-.25,3.39,.2,.29,.28,.91,.1,1.17-1.74,2.62-1.67,5.54-1.57,8.49,.01,.44-.35,.89-.62,1.49l1.02,.54c.73-1.5-.37-3.44,1.57-4.59l-.4,1.91c1-1.48,1.74-2.57,2.47-3.64h.01ZM124.65,15.65c-.4,1.1-1.15,2.26-1.19,3.44-.12,3.5,.11,7.01,.07,10.51-.02,1.34,.56,1.76,1.74,1.97,1.49,.27,2.95,.69,4.43,1.04l-.07,.28-5.46-.53v2.9l-2.86-.23v1.19l1.54-.08,.06,.27-1.5,.62c2.04,.22,3.58-1.53,5.7-.93v-1.86h5.3v6.54c2.02-1.47,3.03-4.5,1.66-5.53-2.21-1.67-2.01-3.91-2.12-6.09-.16-3.12-.08-6.24-.08-9.37,0-1.39-.51-2.24-1.98-2.57-1.66-.37-3.27-.98-5.26-1.59l.02,.02Zm-2.59,46.96l-.02-.7c-1.01,0-2.29-.39-2.99,.08-1.97,1.32-6.07,1.68-8.16,.35,.63-4.68,.56-9.35,0-13.99l-.5-.02-.52,.95c-.32-.39-.53-.93-.88-1.04-1.08-.34-2.23-.68-3.33-.65-.32,0-.86,1.27-.88,1.96-.09,3.92-.04,7.84-.04,11.72l4.78,1.76-2.52,3.26c1.99-.18,2.74-1.52,3.49-3.21,3.95,1.85,7.86,1.69,11.59-.45l-.02-.02h0Zm21.69,25.11c-3.81-2.53-8.11-2.3-10.89,.67,2.06,1.36,4.09,2.69,5.99,3.94l-.47,1.78,.5,.1c.51-.94,1.03-1.89,1.54-2.83l.25,.13-.53,1.94c2.17,.81,4.37,2.29,6.52,2.24,2.26-.06,4.49-1.59,6.73-2.48v-.73c-3.47-1.63-6.93-3.25-10.39-4.88l-.19,.36,.93-.23h.01Zm-70.24-28.03c1.61-5.33,2.69-10.32,1.53-15.8-.91,.32-1.9,.35-2.22,.83-1.47,2.2-2.67,4.54-2.59,7.33,.06,2.22,0,4.45,.02,6.68,0,.39,.14,.78,.24,1.26l2.82-2.18,.21,1.88h0Zm81.24,24.53l.37-.96c1.5,1.85,3.78-.88,5.25,1.25,.03,.05,.47-.06,.5-.16,.18-.51,.45-1.09,.35-1.57-.06-.3-.72-.54-1.15-.68-.81-.25-1.64-.47-2.48-.58-1.82-.24-3.64-.48-5.47-.52-.34,0-.71,.91-1.04,1.43-.22,.35-.29,.86-.58,1.09-1.42,1.09-2.41,3.85-1.86,5.19l.65-2.29,.31,.09v2.14l1.25-2.43,.5,2.13,1.52-1.94c-.21,1.26-.4,2.42-.6,3.59l.52,.04c1.84-1.43,3.67-2.85,5.49-4.26l-3.54-1.55h0Zm-11.46-10.4l.43-.14c-.62-2.09-1.74-4.19-1.72-6.28,.02-2.19,.45-4.31-.74-6.37-.38,1.28-.35,2.55-.4,3.81-.05,1.18,.45,2.51-.63,3.68-.75-2.65-.07-5.27-1.46-7.52-.39,1.54-.46,3.05-.62,4.55-.06,.52-.37,1-.55,1.5-.18,.51-.49,1.04-.46,1.55,.04,.8,.43,1.59,.47,2.39,.03,.75-.33,1.52-.28,2.26,.06,.83,.23,2.23,.62,2.33,1.01,.25,2.16-.07,3.26-.17l-.42-.55,.2-2.73,.69,.03,.41,3.21,.37-.05,.4-2.16,.45,.68-.02-.02h0Zm-27.91-43.87v-8.83h-.49c-1.09,5.89-1.54,11.78-.62,17.94l6.16-1.41c.72-4.14,.13-7.38-5.04-7.71h-.01Zm6.65,30.98c-2.34-.5-1.73-2.01-1.23-2.91,.78-1.4,.08-1.81-.94-2.27-.51-.23-1.02-.47-2.09-.96l2.37-2.52-2.66-.89,2.55-1.04,.18,.99c.35-.75,.48-1.47,.42-2.18-.04-.52-.32-1.43-.53-1.44-.94-.05-2.59-.1-2.74,.31-.64,1.73-1.75,3.43-.96,5.54,.39,1.03,.19,2.3,.21,3.46,.03,1.48,0,2.96,0,4.42l5.41-.51h.01Zm25.74,8.19l.13,.31-3.23,1.86,.23,.42,1.5-.57,.27,.39-1.48,.69-.09,.63c3.83,.17,2.74,4.05,4.65,5.66l.63-.21c-.31-1.79-.62-3.58-.91-5.23,1.06-.62,.56-1.69,.42-2.64l-2.34,.74-.19-.62,3.12-1.67-3.41-4.73-.62,.25c-.67,1.94-1.34,3.88-2.15,6.22l3.47-1.5h0Zm-59.2-18.29c.97-.42,2.55-.64,2.73-1.26,.52-1.79,1.22-4.19,.43-5.49-.72-1.18-.89-2.13-.73-3.95-1.1,.84-2.3,1.31-2.34,1.87-.2,2.83-.09,5.68-.09,8.83Zm27.4,10.98c-.16-4.21-.29-8.44-.53-12.67-.03-.45-.68-.86-1.04-1.3l-.88,.28c0,3.91,.08,7.82-.04,11.73-.05,1.66,.56,2.21,2.48,1.95h0Zm14.69,12.08l.47,.23c.29-.47,.81-.93,.85-1.42,.17-2.09,.27-4.2,.23-6.29,0-.69-.53-1.38-.82-2.07-.95,.53-2.5,.89-2.71,1.63-.44,1.53-.44,3.33-.08,4.89,.17,.73,1.62,1.17,2.59,1.8l-.52,1.22h0Zm-1.75-25.65c-1.43,.12-3.17-.22-3.7,.43-.81,1.01-.8,2.69-1.2,4.36l3.34-.34-1.9,.84,.17,.63c1.11-.26,2.99-.26,3.19-.83,.68-2.01,.79-4.22,1.11-6.35l-.67-.11-.34,1.38h0Zm-3.06,10.87c.66-2.39,2.13,.17,3.29-1.03l-4.14-.9c-.55,2.03-1.05,3.84-1.56,5.71,.13,.08,.34,.23,.57,.32,.17,.06,.38,.07,.55,.03,1.93-.45,3.87-.87,5.78-1.4,.48-.13,.86-.62,1.29-.94-.41-.37-.77-.97-1.24-1.08-1.41-.33-2.86-.46-4.54-.71Zm-33.05-9.77l6.29-1.84c-1.23-3.03-2.93-4.01-6.29-3.58v5.42Zm-51.43,18.77c.28,1.37-.83,3,1.03,3.26,2.09,.29,4.25,.07,6.32,.07,.56-3.25,.43-3.4-2.47-3.33-1.51,.03-3.03,0-4.87,0h0Zm71.78,5.78c0-.11-.07,.3,.01,.33,1.56,.64,1.32,2,1.33,3.25,.01,2.04-.03,4.08,.03,6.11,.01,.39,.42,.76,.65,1.14,.23-.37,.65-.74,.65-1.11,.05-3.54,.03-7.08,.03-10.53l-2.71,.8h0Zm-47.33,14.68l.82,.44c3.17-6.06,6.34-12.11,9.5-18.17l-.45-.24c-4.3,5.45-6.12,12.23-9.87,17.98h0Zm61.41-46.74c.5,.44,1,.67,1.16,1.04,1.24,3.01,2.85,5.97,1.46,9.41-.46,1.13-.09,1.95,1.37,2.09,.3-.61,.97-1.32,.86-1.87-.69-3.29-1.53-6.55-2.4-9.8-.3-1.12-1.15-1.35-2.45-.88h0Zm-25.26,17.04l.66-.28c0-2.9,.05-5.8-.05-8.7-.02-.52-.65-1.02-1-1.52l-.82,.32c0,3.09-.03,6.17,.05,9.26,0,.32,.75,.61,1.15,.92h0Zm72.73,31.49l-.18,.02v28.69h.18v-28.72h0Zm-56.86,2.6c-.52-.38-1.22-1.19-2.1-1.46-.98-.31-2.22,1.45-2.2,2.81,.03,1.42,.96,1.6,2.06,1.58,1.51-.03,2.1-.93,2.24-2.92h0Zm-75.18-5.82c-1.64-1.31-2.98-.71-3.96,.44-1.15,1.35-2.53,1.77-4.19,1.74-.33,0-.66,.14-1.05,.23,1.38,2.15,1.34,2.1,3.18,.72,1.04-.78,1.9-2.01,3.59-1.49,.65,.2,1.46-.14,2.2-.24l.22-1.4h0Zm55.95-17.87c-1.14-.44-2.04-.79-2.94-1.13-1.91,1.25-.13,2.96-.71,4.23l3.65,.35v-3.46h0Zm29.39-3.61l-3.5,.94c.32,1.44,.6,2.67,.89,3.95l2.61,.4v-5.29Zm15.32,2.24l2.71-4.29-.5-.34-.8,.46-.72-2.3-.45,.1-.25,1.14-.42-1.42c-1.2,2.31,.38,4.27,.43,6.65Zm-9.79-11.18c.42,.84,.55,1.56,.84,1.62,3.09,.72,6.19,1.33,9.3,1.97l.17-.61c-3.26-.94-6.52-1.89-10.3-2.98h0Zm-47.15-13.13l-6.05,1.44v.52c1.89,.35,3.78,.71,5.87,1.1l.18-3.05h0ZM16.13,93.21l.13,.83,9.75-.66,.02-.68c-2-.08-4.01-.27-6-.2-1.3,.04-2.59,.46-3.89,.71h-.01Zm11.15-7.69s-.51,.44-.66,.95c-.13,.46,.01,1.08,.24,1.53,.16,.31,.7,.67,1.01,.62,1.59-.25,3.16-.62,4.54-.9-1.31-.56-2.93-1.26-5.14-2.2h0Zm38.16-15.71c.64,.59,1.47,1.09,1.89,1.81,.48,.82,.6,1.85,.88,2.78l-.38,.08-.92-1.74-.34,.2,2.11,4.54c.97-4.29,.36-5.85-3.24-7.68h0Zm14.75-.53l-.7,.27,.95,3.46,3.62-2.05-3.87-1.69h0Zm101.56,19.29l-.6,1.59,1.4,.43,1.37-3.49c-.95-.34-2.68,.39-3.2-1.58v3.25l1.04-.2h0Zm-55.1-16.17c-.64,.32-1.14,.45-1.15,.59-.05,1.81-.04,3.63,.02,5.44,0,.16,.53,.47,.71,.41,.28-.1,.66-.46,.66-.7-.03-1.81-.14-3.62-.24-5.74ZM16.39,102.94l-1.12,.43v-2.06h-2.5c.14,.66,.07,1.57,.47,1.92,.99,.86,2.18,1.16,3.15-.29Zm127.02-16.97l2.74,1.79-.9-1.47,1.89-1.74-.36-.36c-.24,.22-.48,.44-.29,.27-.97-.41-1.62-.81-2.3-.92-.4-.07-.87,.32-1.31,.51l.11,.35,1.48,.15-1.07,1.42h0Zm-33.28-8.73l-.54-.14-1.84,7.46,.94,.25c1.34-2.3,.85-5.07,1.43-7.57h0ZM22.4,97.28l-.84-1.55-.32,.17v3.05l3.23-1.16-.76-2.71-1.31,2.2Zm53.41-29.12l.75,.35,3.68-8.36-.71-.33-3.72,8.34Zm40.86-21.7c1.42-.51,2.44-.82,3.41-1.25,.27-.12,.5-.54,.56-.86,.04-.19-.29-.66-.45-.65-.94,.02-2-.09-2.76,.32-.46,.25-.45,1.37-.75,2.45h-.01Zm5.16,7.14c2.52,1.79,5.38,2.22,8.33,2.29-2.56-.94-5.18-1.64-7.8-2.32-.16-.04-.35,.02-.53,.03Zm-10.87,34.18c-.99-2.56-3.37,.02-4.44-1.63l-1.36-1.5-.24,.29,.86,2.67-.51,.11c.71,1.64,2.17-2.15,2.79,.68,.73-1.57,1.72-1.44,2.91-.62h-.01Zm-64.13,.31l.09,.35c.67,.03,1.35,.05,2.02,.1,.66,.05,1.31,.12,2.02,.19-.42-2.94-.65-3.04-2.74-1.49-.43,.32-.93,.57-1.4,.85h.01Zm84.66-52.68c-1.53,.63-1.6,3.81,0,5.35v-5.35Zm-.26,55.04l-.48,.58c2.72,1.87,5.43,3.74,8.15,5.61l.27-.39c-2.65-1.93-5.29-3.86-7.94-5.8Zm-21.94-20.44l.32-.28-4.58-1.52v2.19l4.26-.39Zm-24.34,9l.19-.43-6.72-1.76,1.99-.3-2.58-.69-.23,1.53c2.52,.57,4.94,1.11,7.35,1.66h0Zm1.01-1.8l-.09,.24-4.1-.9-.05,.47c2.21,.28,4.34,1.99,6.86,.09l-3.76-1-.11,.43,1.24,.67h.01ZM20.2,95.66l-.61,.05v4.28c-.66-.11-1.24-.21-2.21-.37,.77,.53,1.22,1.08,1.6,1.03,.61-.07,1.68-.53,1.68-.83,.01-1.39-.28-2.77-.46-4.16Zm78.86-6.84l.96-.17c-.5-1.72,.98-3.84-1.42-5.29,.16,1.89,.31,3.68,.46,5.47h0Zm-36.28,19.34l-4.09,2.75,.16,.48c1.35-1.21,2.55-1.02,3.55,.33l.38-3.56Zm72.77-28.55c-.42,1.87-.83,3.73-1.26,5.63,1.27-.06,1.92-2.46,1.26-5.63Zm-37.02-18.24l-3.53,1.63,4.34,1.07-.81-2.7Zm67.33,29.54c-1.42-2.78-1.54-2.81-4.06-1.02l2.96,1.23v-1.11l1.1,.91h0Zm2.48,2.65l.79,.13c.24-1.99,.47-3.99,.71-5.98l-.6-.1c-.3,1.98-.6,3.96-.9,5.94h0Zm-61.36-22.07c-2.22,0-2.39,.25-1.84,2.48h1.84v-2.48Zm16.41-2.94c-.43,.27-1.1,.56-1.07,.68,.54,2.05-1.18,2.52-2.23,3.6l3.53-1.46-.23-2.81h0Zm11.76,5.45h.59v-5.37h-.59v5.37Zm-61.86-12.91l-.65-.28c-2.33,2.21-2.44,2.54-1.42,4.54l2.08-4.26h-.01Zm112.4,30.43c-.29-.84-.81-1.72-.78-2.59,0-.41,1.1-.79,1.68-1.17-1.29-.55-2.31-.1-2.84,1.33-.48,1.3,.35,2.15,1.94,2.42h0Zm-140.08,2.71l-.17-.5c-3.05-.39-4.73-.18-4.84,1.62,1.68-.38,3.35-.75,5.02-1.12h-.01Zm131.31-4.43l.92,.34c1.41-1.31,.27-3.26,1.13-4.71l-.55-.15-1.5,4.52ZM92.53,25.37c-1.88-.27-2.3,.71-2.36,2.19h2.36v-2.19Zm-12.92,55.8l.27,3.46h.25l.46-1.82,2.28,.25,.08-.43-3.34-1.46Zm-55.73,22.54l1.28-2.74,.75,1.68,.36-.12-.6-2.15-2.35,.77,.56,2.55h0Zm110.03-57.32l.2-.05c0-1.52,.03-3.04-.02-4.56,0-.29-.34-.57-.52-.86-.35,.37-1.07,.83-1,1.1,.34,1.48,.88,2.92,1.35,4.37h0Zm-34.8,29.31c-.31-.85-.37-1.65-.78-1.95-.4-.3-1.64-.27-1.7-.1-.32,.88-.38,1.86-.55,2.95l1.21-2.1,1.82,1.2Zm-16.07-1.39l-.11,.43,7.54,2.36,.15-.49-7.58-2.3Zm-39.6,34.09c-.6,.35-1.31,.67-1.28,.76,.32,1.04,.76,2.05,1.17,3.07l.53-.2-.42-3.63Zm98.99-25.09h4.65c-1.57-.45-3.17-.6-4.71-.35-.41,.07-.62,1.36-.92,2.09l.65,.18,.32-1.92h.01Zm-14.41-36.06l.44-.87-3.38-1.81-.41,.75,3.36,1.94h0Zm35.85,37.51l1.4,3.03c.61-1.05,.95-1.64,1.44-2.49l-2.84-.54Zm-29.53-17.6h.24c.14-1.66,.28-3.33,.43-5l-.66-.03v5.03h0ZM49.5,105.1l-.12,.37c.9,.19,1.79,.43,2.7,.56,.31,.05,.69-.09,.96-.27,.13-.09,.19-.6,.1-.66-.28-.19-.65-.38-.98-.36-.89,.06-1.78,.23-2.67,.35h.01Zm84.08-52.56c.08,.83,.02,1.6,.26,2.26,.1,.29,.78,.42,1.22,.53,.16,.04,.49-.13,.54-.28,.07-.18,0-.51-.13-.66-.53-.57-1.12-1.1-1.9-1.85h.01ZM29.87,89.26l-.15,.62c1.01,.8,1.96,1.84,3.56,.45l-3.4-1.07h-.01ZM123.08,41.9c.82,.38,1.55,.83,2.34,1.06,.43,.12,.98-.06,1.43-.22,.12-.04,.2-.71,.07-.82-.31-.25-.76-.49-1.13-.46-.9,.07-1.8,.29-2.7,.45h-.01Z" fill="#41463d"/><path d="M83.16,116.33c-.15,.44-.52,.93-.42,1.3,.36,1.35-.12,1.86-1.46,2-.72,.07-1.39,.53-2.31,.9l-1.53-1.64-1.52,.65c.43-1.87,2.44-2.91,1.87-5.11-.14-.54,1.11-1.43,1.72-2.16l.68,.51-1.7,2.43,.22,.51,2.41-.73c.63,.69-1.08,2.09,.62,3.08l.27-5.8c-1.41-.51-3.17-1.15-4.8-1.74l.78-.5-3.25-.23c2.37-1.49,3.42-1.42,5.47,.15,.35,.27,1.01,.3,1.49,.23,.68-.1,1.32-.41,2.05-.65l-.38,1.97-1.41-.18-.18,.43c.81,.38,1.71,1.2,2.42,1.06,1.61-.32,3.17,1.75,4.88-.12,.46-.5,2.11,.1,3.48-.19l-2.45-2.04,.11-.26c1.19,.56,2.38,1.12,3.57,1.67l.22-.54c-.58-.6-1.27-1.13-1.71-1.83-.96-1.53-2.01-1.39-3.67-1.04-1.85,.39-3.89-.16-5.87-.72l1.97-.52-.02-.19h-2.8l-.97,1.25c-.59-.5-.96-.94-1.43-1.17-.7-.35-1.99,.22-1.92-1.28-.52,.02-1.08-.09-1.54,.09-.98,.39-2.03,1.45-2.84,1.28-1.49-.33-2.83-1.35-4.24-2.08l-.05,.06c1.86-.4,3.71-.81,5.57-1.21l-.06-.7-1.11-.41,.09-.5,2.85,.55-.93-1.4c.98,.25,1.61,.36,2.2,.56,.58,.2,1.14,.48,1.9,.81v-2.55l1.94-.54c.81-1.15,1.37-1.94,2.09-2.96l.76,3.21,.56-.08-.37-2.94,4.27-.62,.46-1.27c.16,0,.36-.05,.4,0,.95,1.41,2.42,1.41,3.89,1.48,2.34,.1,4.54,.58,6,2.67-.65-.14-1.3-.24-1.93-.42-1.78-.51-3.56-1.06-5.34-1.59l-.36,.71c.9,.65,1.73,1.65,2.73,1.89,2.02,.47,4.25,.3,5.28,2.67,.11,.26,.18,.54,.27,.81l.44-.43-1.14-3.7c1.26,2.02,2.52,4.05,3.92,6.3l-1.17-.22-.11,.26c.33,.15,.91,.49,.95,.43,.47-.65,.86-1.37,1.31-2.11,.09,1.71,2.7,1.1,2.82,2.97-.04,.06-.08,.11-.13,.17-1.78,.58-3.53,1.23-5.34,1.7-.65,.17-1.42-.11-1.72-.14l.38-1.71h-5.08l-.19,.66c1.08,.48,2.16,.96,3.24,1.42,.4,.17,1.16,.22,1.19,.41,.38,2.33,2.72,2.03,4.27,3.31-1.54-.19-2.42,1.7-4.5,.81-1.35,.94-3.18,.82-5.28,.17-1.19-.36-2.75,.5-3.96,.77l1.28,3.71-.55,.19-.61-1.35c-.58,.3-1.1,.74-1.67,.84-2.66,.45-2.66,.42-1.45,3.38l.97-2.43,1.53,1.02,1.36-.75,.8,1.46,.48-2.11,1.9,.81,.15-.28,1.58,1.94,.11-.65c.93-.28,1.85-.6,2.79-.78,.15-.03,.61,.6,.6,.91-.02,.33-.35,.78-.67,.95-1.06,.56-2.17,1.02-3.21,1.81,1.54-1.23,2.73-.36,4.04,.63-1.43,.56-2.76,1.26-4.17,1.57-1.44,.32-3.04,.97-4.59-.39,1.44-.44,2.67-.81,3.91-1.19-1.48-.9-3.19,1.55-4.42-1.1-.63,1.88-1.8,1.91-3.05,1.74-1.06,.28-2.17,.85-3.17,.7-.39-.06-.59-1.73-.73-2.68-.02-.11,.92-.36,1.42-.54l.49,.5,.3-2.71-2.72,1.75c-.46,.94-.65,2.04-1.28,2.41-.73,.43-1.83,.21-2.77,.27l-.08-.73,2.71-1.42-.47-1.37c2.85-.42,2.97-.61,2.43-4.06,.55-.1,1.1-.19,1.66-.29l-1.6-3.18c-1.49,1.16-.46,2.25-.08,3.33h-.04Zm2.75-12.76l.67,1.67c1.1-.06,1.77-.05,2.42-.13,.72-.09,1.92-.09,2.04-.43,.37-1.1,.44-2.33,.44-3.51,0-1.29-.42-2.47-2.06-2.37-1.48,.09-2.87,.41-2.87,2.23l-1.05-1.25c.19,1.64,.31,2.73,.43,3.83l-1.24-2.55-.46,.25,1.53,4.96,.49-.17-.36-2.54h.02Z" fill="#41463d"/><path d="M112.56,114c-1.12,.22-2.23,.44-3.35,.66l-.04-.28,4.12-3.06-.27-.55c1.62,0,3.24,.05,4.86-.02,1.34-.06,2.16,.25,1.79,1.82-.04,.18,0,.38,.02,.57,.38,2.97,.24,3.14-2.69,3.31-2.49,.14-4.25-.83-4.45-2.47,.7,.25,1.39,.63,2.1,.67,.36,.02,.76-.58,1.14-.9-.38-.24-.83-.74-1.14-.67-.73,.16-1.39,.6-2.08,.93h-.01Z" fill="#41463d"/><path d="M130.01,110.61l.69-3.72,.49,3.61,1.82,.66-.19,.67c-3.6,1.23-7.1,.02-10.57-.73-1.02-.22-1.86-1.22-2.79-1.86l-.54,.38,.14-3.24,1.19,2.03,.5-.16,.26-1.97,1.89,2.63,.38-2.63,.53,1.86,.16-2.41,1.69,4.65,.6-.14,.44-2.9c.12,1.98,1.16,3.03,3.3,3.27h0Z" fill="#41463d"/><path d="M67.82,110.4c2.16,.3,4.1,.52,6.02,.85,.74,.13,1.55,.37,2.12,.81,.45,.35,.59,1.1,.86,1.67-.44,.14-.91,.47-1.31,.4-1.96-.35-3.97-.63-5.82-1.31-.77-.28-1.19-1.49-1.87-2.42Z" fill="#41463d"/><path d="M130.38,101.22c-1.43-.48-2.65,1.33-4.39,.08-1.14-.82-3.06-.55-5.07-.83,2.43-.4,4.38-.73,6.4-1.06l2.08,1.01,.25-.51-.9-.59c.61-.39,1.11-.77,1.67-1.02,.19-.08,.74,.14,.77,.29,.09,.49,.13,1.04-.02,1.5-.14,.44-.55,.79-.84,1.18l.05-.05h0Z" fill="#41463d"/><path d="M107.08,106.86c.3-1.08,.59-2.17,.98-3.6l.96,3.65,.94-1.45,.48,1.33,.39,.03c.16-1,.31-2,.47-3l.34-.04c.34,1.08,.67,2.17,1,3.25-2.25,1.81-4.49,1.8-5.69,0,.04-.06,.09-.11,.13-.17Z" fill="#41463d"/><path d="M56.76,94.35c2.3-.6,4.49-.4,6.67,.84-1.12,1.06-3.35-2.38-3.6,1.66l-1.48-2-.32,.17,.53,1.67-.49,.25c-.42-.88-.85-1.76-1.27-2.64l-.05,.05h0Z" fill="#41463d"/><path d="M71.35,97.9l.45-2.1c.7,.24,1.68,.37,2.37,.9,.41,.31,.34,1.24,.57,2.24-.45-.04-1.12-.01-1.73-.19-.6-.18-1.13-.57-1.66-.85Z" fill="#41463d"/><path d="M141.78,45.04c-1.9,3.47-.02,5.84,1.88,8.22-1.72-2.44-5.39-4.32-1.88-8.22Z" fill="#41463d"/><path d="M65.17,115.53c.77-.62,1.35-1.11,1.96-1.56,.38-.28,.81-.49,1.21-.73,.02,.48,0,.96,.07,1.43,.03,.27,.19,.52,.44,1.15-1.38-.86-2.62,1.67-3.68-.28h0Z" fill="#41463d"/><path d="M10.75,91.29l2.63-9.05,.71,.24c-1.12,2.93-2.25,5.86-3.37,8.78l.03,.03Z" fill="#41463d"/><path d="M68.97,105.13l-.78,1.03-2.67-1.5,4.18-1.14,.15,.46-.93,1.2,.05-.06h0Z" fill="#41463d"/><path d="M63.49,97.07c1.77-1.85,3.39-2.05,6.67-1.06-2.2,.35-4.24,.68-6.67,1.06Z" fill="#41463d"/><path d="M145.19,43.19l1.02-1.19-.08,.61,2.67,1.44-1.07,1.55-2.51-2.43-.04,.02h0Z" fill="#41463d"/><path d="M124.42,97.72l-.06-.07c.21,.35,.42,.7,.63,1.04l-.18,.64c-1.32-2.07-2.83-1.51-4.38-.95-.13,.05-.47-.49-.65-.69,1.18-.31,2.27-.69,3.4-.82,.37-.04,.82,.55,1.24,.85Z" fill="#41463d"/><path d="M71.28,119.68l4.14-1.71c-.55,1.21-1.84,1.98-3.88,2.32l-.26-.61Z" fill="#41463d"/><path d="M142.82,49.81v-7.9l.06-.02v7.91l-.06,.02h0Z" fill="#41463d"/><path d="M145.02,47.75c.36,1.99,.73,3.98,1.09,5.97l-.47,.07c-.35-2-.69-4-1.04-6l.42-.04Z" fill="#41463d"/><path d="M145.23,43.17c-1.12,.18-1.55-.15-1.13-1.33,.16-.47,.15-1.04,.09-1.54-.13-1.15,.32-1.65,1.78-1.87-1.01,.69-1.53,3.86-.78,4.77l.05-.03h0Z" fill="#41463d"/><path d="M59,78.35l-.84,5.01c-1.07-.6-.95-2.81,.84-5.01Z" fill="#41463d"/><path d="M100.22,117.83l2.99,.95-2.38,1.07-.61-2.03h0Z" fill="#41463d"/><path d="M108.58,34.74c.1,.61,.39,1.28,.25,1.83-.11,.42-.78,.69-1.2,1.03l-.58-2.61,1.53-.25Z" fill="#41463d"/><path d="M109.14,59.58c-.8,.29-1.58,.66-2.4,.83-.22,.05-.56-.5-.84-.77,.25-.21,.48-.58,.75-.6,.79-.08,1.59-.03,2.39-.03l.1,.58h0Z" fill="#41463d"/><path d="M116.48,36.84l-.74-3.19c.62,1.11,2.99,1.88,4.15,1.28-.46,1.65-1.34,2.63-3.42,1.92h0Z" fill="#41463d"/><path d="M86.59,80.79c1.23,.62,2.46,1.24,3.88,1.96l-2.37,1.89-.31-.35,1.63-1.45-3-1.69,.17-.36Z" fill="#41463d"/></g></g></g></g></svg>